%TF.GenerationSoftware,KiCad,Pcbnew,9.0.5*%
%TF.CreationDate,2025-10-09T03:18:41-06:00*%
%TF.ProjectId,PropController,50726f70-436f-46e7-9472-6f6c6c65722e,1.0*%
%TF.SameCoordinates,PX5dc1770PY781d830*%
%TF.FileFunction,Drillmap*%
%TF.FilePolarity,Positive*%
%FSLAX45Y45*%
G04 Gerber Fmt 4.5, Leading zero omitted, Abs format (unit mm)*
G04 Created by KiCad (PCBNEW 9.0.5) date 2025-10-09 03:18:41*
%MOMM*%
%LPD*%
G01*
G04 APERTURE LIST*
%ADD10C,0.050000*%
%ADD11C,0.200000*%
%ADD12C,0.100000*%
%ADD13C,0.120000*%
%ADD14C,0.178000*%
G04 APERTURE END LIST*
D10*
X1000Y600000D02*
X1000Y9400000D01*
X8769000Y0D02*
X601000Y0D01*
X9369000Y9400000D02*
X9369000Y600000D01*
X601000Y10000000D02*
X8769000Y10000000D01*
X8979000Y9400000D02*
G75*
G02*
X8559000Y9400000I-210000J0D01*
G01*
X8559000Y9400000D02*
G75*
G02*
X8979000Y9400000I210000J0D01*
G01*
X8769000Y10000000D02*
G75*
G02*
X9369000Y9400000I0J-600000D01*
G01*
X811000Y9400000D02*
G75*
G02*
X391000Y9400000I-210000J0D01*
G01*
X391000Y9400000D02*
G75*
G02*
X811000Y9400000I210000J0D01*
G01*
X1000Y9400000D02*
G75*
G02*
X601000Y10000000I600000J0D01*
G01*
X811000Y600000D02*
G75*
G02*
X391000Y600000I-210000J0D01*
G01*
X391000Y600000D02*
G75*
G02*
X811000Y600000I210000J0D01*
G01*
X601000Y0D02*
G75*
G02*
X1000Y600000I0J600000D01*
G01*
X9369000Y600000D02*
G75*
G02*
X8769000Y0I-600000J0D01*
G01*
X8979000Y600000D02*
G75*
G02*
X8559000Y600000I-210000J0D01*
G01*
X8559000Y600000D02*
G75*
G02*
X8979000Y600000I210000J0D01*
G01*
D11*
D12*
X555000Y1534000D02*
X615000Y1474000D01*
X615000Y1534000D02*
X555000Y1474000D01*
X593000Y4782000D02*
X653000Y4722000D01*
X653000Y4782000D02*
X593000Y4722000D01*
X593000Y4654000D02*
X653000Y4594000D01*
X653000Y4654000D02*
X593000Y4594000D01*
X593000Y4527000D02*
X653000Y4467000D01*
X653000Y4527000D02*
X593000Y4467000D01*
X596000Y4909000D02*
X656000Y4849000D01*
X656000Y4909000D02*
X596000Y4849000D01*
X1003000Y4249000D02*
X1063000Y4189000D01*
X1063000Y4249000D02*
X1003000Y4189000D01*
X1725000Y5414000D02*
X1785000Y5354000D01*
X1785000Y5414000D02*
X1725000Y5354000D01*
X1807000Y4912000D02*
X1867000Y4852000D01*
X1867000Y4912000D02*
X1807000Y4852000D01*
X2350000Y4912000D02*
X2410000Y4852000D01*
X2410000Y4912000D02*
X2350000Y4852000D01*
X2625000Y7314000D02*
X2685000Y7254000D01*
X2685000Y7314000D02*
X2625000Y7254000D01*
X3126000Y7060000D02*
X3186000Y7000000D01*
X3186000Y7060000D02*
X3126000Y7000000D01*
X3255000Y8081000D02*
X3315000Y8021000D01*
X3315000Y8081000D02*
X3255000Y8021000D01*
X3261000Y4438000D02*
X3321000Y4378000D01*
X3321000Y4438000D02*
X3261000Y4378000D01*
X3507000Y7055000D02*
X3567000Y6995000D01*
X3567000Y7055000D02*
X3507000Y6995000D01*
X3854000Y4912000D02*
X3914000Y4852000D01*
X3914000Y4912000D02*
X3854000Y4852000D01*
X3875000Y7806000D02*
X3935000Y7746000D01*
X3935000Y7806000D02*
X3875000Y7746000D01*
X4768000Y4437000D02*
X4828000Y4377000D01*
X4828000Y4437000D02*
X4768000Y4377000D01*
X5363000Y4912000D02*
X5423000Y4852000D01*
X5423000Y4912000D02*
X5363000Y4852000D01*
X6274000Y4443000D02*
X6334000Y4383000D01*
X6334000Y4443000D02*
X6274000Y4383000D01*
X6877000Y4911000D02*
X6937000Y4851000D01*
X6937000Y4911000D02*
X6877000Y4851000D01*
X7776000Y4443000D02*
X7836000Y4383000D01*
X7836000Y4443000D02*
X7776000Y4383000D01*
X8217000Y8040000D02*
X8277000Y7980000D01*
X8277000Y8040000D02*
X8217000Y7980000D01*
X8217000Y6751000D02*
X8277000Y6691000D01*
X8277000Y6751000D02*
X8217000Y6691000D01*
X2256000Y8669000D02*
G75*
G02*
X2156000Y8669000I-50000J0D01*
G01*
X2156000Y8669000D02*
G75*
G02*
X2256000Y8669000I50000J0D01*
G01*
X2256000Y6383000D02*
G75*
G02*
X2156000Y6383000I-50000J0D01*
G01*
X2156000Y6383000D02*
G75*
G02*
X2256000Y6383000I50000J0D01*
G01*
X2510000Y8669000D02*
G75*
G02*
X2410000Y8669000I-50000J0D01*
G01*
X2410000Y8669000D02*
G75*
G02*
X2510000Y8669000I50000J0D01*
G01*
X2510000Y6383000D02*
G75*
G02*
X2410000Y6383000I-50000J0D01*
G01*
X2410000Y6383000D02*
G75*
G02*
X2510000Y6383000I50000J0D01*
G01*
X2764000Y8669000D02*
G75*
G02*
X2664000Y8669000I-50000J0D01*
G01*
X2664000Y8669000D02*
G75*
G02*
X2764000Y8669000I50000J0D01*
G01*
X2764000Y6383000D02*
G75*
G02*
X2664000Y6383000I-50000J0D01*
G01*
X2664000Y6383000D02*
G75*
G02*
X2764000Y6383000I50000J0D01*
G01*
X2792500Y5223000D02*
G75*
G02*
X2692500Y5223000I-50000J0D01*
G01*
X2692500Y5223000D02*
G75*
G02*
X2792500Y5223000I50000J0D01*
G01*
X3018000Y8669000D02*
G75*
G02*
X2918000Y8669000I-50000J0D01*
G01*
X2918000Y8669000D02*
G75*
G02*
X3018000Y8669000I50000J0D01*
G01*
X3018000Y6383000D02*
G75*
G02*
X2918000Y6383000I-50000J0D01*
G01*
X2918000Y6383000D02*
G75*
G02*
X3018000Y6383000I50000J0D01*
G01*
X3046500Y5223000D02*
G75*
G02*
X2946500Y5223000I-50000J0D01*
G01*
X2946500Y5223000D02*
G75*
G02*
X3046500Y5223000I50000J0D01*
G01*
X3272000Y8669000D02*
G75*
G02*
X3172000Y8669000I-50000J0D01*
G01*
X3172000Y8669000D02*
G75*
G02*
X3272000Y8669000I50000J0D01*
G01*
X3272000Y6383000D02*
G75*
G02*
X3172000Y6383000I-50000J0D01*
G01*
X3172000Y6383000D02*
G75*
G02*
X3272000Y6383000I50000J0D01*
G01*
X3526000Y8669000D02*
G75*
G02*
X3426000Y8669000I-50000J0D01*
G01*
X3426000Y8669000D02*
G75*
G02*
X3526000Y8669000I50000J0D01*
G01*
X3526000Y6383000D02*
G75*
G02*
X3426000Y6383000I-50000J0D01*
G01*
X3426000Y6383000D02*
G75*
G02*
X3526000Y6383000I50000J0D01*
G01*
X3780000Y8669000D02*
G75*
G02*
X3680000Y8669000I-50000J0D01*
G01*
X3680000Y8669000D02*
G75*
G02*
X3780000Y8669000I50000J0D01*
G01*
X3780000Y6383000D02*
G75*
G02*
X3680000Y6383000I-50000J0D01*
G01*
X3680000Y6383000D02*
G75*
G02*
X3780000Y6383000I50000J0D01*
G01*
X4034000Y8669000D02*
G75*
G02*
X3934000Y8669000I-50000J0D01*
G01*
X3934000Y8669000D02*
G75*
G02*
X4034000Y8669000I50000J0D01*
G01*
X4034000Y6383000D02*
G75*
G02*
X3934000Y6383000I-50000J0D01*
G01*
X3934000Y6383000D02*
G75*
G02*
X4034000Y6383000I50000J0D01*
G01*
X4288000Y8669000D02*
G75*
G02*
X4188000Y8669000I-50000J0D01*
G01*
X4188000Y8669000D02*
G75*
G02*
X4288000Y8669000I50000J0D01*
G01*
X4288000Y6383000D02*
G75*
G02*
X4188000Y6383000I-50000J0D01*
G01*
X4188000Y6383000D02*
G75*
G02*
X4288000Y6383000I50000J0D01*
G01*
X4296500Y5223000D02*
G75*
G02*
X4196500Y5223000I-50000J0D01*
G01*
X4196500Y5223000D02*
G75*
G02*
X4296500Y5223000I50000J0D01*
G01*
X4542000Y8669000D02*
G75*
G02*
X4442000Y8669000I-50000J0D01*
G01*
X4442000Y8669000D02*
G75*
G02*
X4542000Y8669000I50000J0D01*
G01*
X4542000Y6383000D02*
G75*
G02*
X4442000Y6383000I-50000J0D01*
G01*
X4442000Y6383000D02*
G75*
G02*
X4542000Y6383000I50000J0D01*
G01*
X4550500Y5223000D02*
G75*
G02*
X4450500Y5223000I-50000J0D01*
G01*
X4450500Y5223000D02*
G75*
G02*
X4550500Y5223000I50000J0D01*
G01*
X4796000Y8669000D02*
G75*
G02*
X4696000Y8669000I-50000J0D01*
G01*
X4696000Y8669000D02*
G75*
G02*
X4796000Y8669000I50000J0D01*
G01*
X4796000Y6383000D02*
G75*
G02*
X4696000Y6383000I-50000J0D01*
G01*
X4696000Y6383000D02*
G75*
G02*
X4796000Y6383000I50000J0D01*
G01*
X5050000Y8669000D02*
G75*
G02*
X4950000Y8669000I-50000J0D01*
G01*
X4950000Y8669000D02*
G75*
G02*
X5050000Y8669000I50000J0D01*
G01*
X5050000Y6383000D02*
G75*
G02*
X4950000Y6383000I-50000J0D01*
G01*
X4950000Y6383000D02*
G75*
G02*
X5050000Y6383000I50000J0D01*
G01*
X5304000Y8669000D02*
G75*
G02*
X5204000Y8669000I-50000J0D01*
G01*
X5204000Y8669000D02*
G75*
G02*
X5304000Y8669000I50000J0D01*
G01*
X5304000Y6383000D02*
G75*
G02*
X5204000Y6383000I-50000J0D01*
G01*
X5204000Y6383000D02*
G75*
G02*
X5304000Y6383000I50000J0D01*
G01*
X5788500Y5226000D02*
G75*
G02*
X5688500Y5226000I-50000J0D01*
G01*
X5688500Y5226000D02*
G75*
G02*
X5788500Y5226000I50000J0D01*
G01*
X6042500Y5226000D02*
G75*
G02*
X5942500Y5226000I-50000J0D01*
G01*
X5942500Y5226000D02*
G75*
G02*
X6042500Y5226000I50000J0D01*
G01*
X6918000Y7950000D02*
G75*
G02*
X6818000Y7950000I-50000J0D01*
G01*
X6818000Y7950000D02*
G75*
G02*
X6918000Y7950000I50000J0D01*
G01*
X6918000Y7696000D02*
G75*
G02*
X6818000Y7696000I-50000J0D01*
G01*
X6818000Y7696000D02*
G75*
G02*
X6918000Y7696000I50000J0D01*
G01*
X6918000Y7442000D02*
G75*
G02*
X6818000Y7442000I-50000J0D01*
G01*
X6818000Y7442000D02*
G75*
G02*
X6918000Y7442000I50000J0D01*
G01*
X6918000Y7188000D02*
G75*
G02*
X6818000Y7188000I-50000J0D01*
G01*
X6818000Y7188000D02*
G75*
G02*
X6918000Y7188000I50000J0D01*
G01*
X7297500Y5226000D02*
G75*
G02*
X7197500Y5226000I-50000J0D01*
G01*
X7197500Y5226000D02*
G75*
G02*
X7297500Y5226000I50000J0D01*
G01*
X7551500Y5226000D02*
G75*
G02*
X7451500Y5226000I-50000J0D01*
G01*
X7451500Y5226000D02*
G75*
G02*
X7551500Y5226000I50000J0D01*
G01*
D13*
X1371000Y1289000D02*
X1371000Y1169000D01*
X1311000Y1229000D02*
X1431000Y1229000D01*
X1371000Y469000D02*
X1371000Y349000D01*
X1311000Y409000D02*
X1431000Y409000D01*
X1871000Y1289000D02*
X1871000Y1169000D01*
X1811000Y1229000D02*
X1931000Y1229000D01*
X1871000Y469000D02*
X1871000Y349000D01*
X1811000Y409000D02*
X1931000Y409000D01*
X2371000Y1289000D02*
X2371000Y1169000D01*
X2311000Y1229000D02*
X2431000Y1229000D01*
X2371000Y469000D02*
X2371000Y349000D01*
X2311000Y409000D02*
X2431000Y409000D01*
X2871000Y1289000D02*
X2871000Y1169000D01*
X2811000Y1229000D02*
X2931000Y1229000D01*
X2871000Y469000D02*
X2871000Y349000D01*
X2811000Y409000D02*
X2931000Y409000D01*
X3371000Y1289000D02*
X3371000Y1169000D01*
X3311000Y1229000D02*
X3431000Y1229000D01*
X3371000Y469000D02*
X3371000Y349000D01*
X3311000Y409000D02*
X3431000Y409000D01*
X3871000Y1289000D02*
X3871000Y1169000D01*
X3811000Y1229000D02*
X3931000Y1229000D01*
X3871000Y469000D02*
X3871000Y349000D01*
X3811000Y409000D02*
X3931000Y409000D01*
X4371000Y1289000D02*
X4371000Y1169000D01*
X4311000Y1229000D02*
X4431000Y1229000D01*
X4371000Y469000D02*
X4371000Y349000D01*
X4311000Y409000D02*
X4431000Y409000D01*
X4871000Y1289000D02*
X4871000Y1169000D01*
X4811000Y1229000D02*
X4931000Y1229000D01*
X4871000Y469000D02*
X4871000Y349000D01*
X4811000Y409000D02*
X4931000Y409000D01*
X5368000Y1290000D02*
X5368000Y1170000D01*
X5308000Y1230000D02*
X5428000Y1230000D01*
X5368000Y470000D02*
X5368000Y350000D01*
X5308000Y410000D02*
X5428000Y410000D01*
X5868000Y1290000D02*
X5868000Y1170000D01*
X5808000Y1230000D02*
X5928000Y1230000D01*
X5868000Y470000D02*
X5868000Y350000D01*
X5808000Y410000D02*
X5928000Y410000D01*
X6368000Y1290000D02*
X6368000Y1170000D01*
X6308000Y1230000D02*
X6428000Y1230000D01*
X6368000Y470000D02*
X6368000Y350000D01*
X6308000Y410000D02*
X6428000Y410000D01*
X6868000Y1290000D02*
X6868000Y1170000D01*
X6808000Y1230000D02*
X6928000Y1230000D01*
X6868000Y470000D02*
X6868000Y350000D01*
X6808000Y410000D02*
X6928000Y410000D01*
X7368000Y1290000D02*
X7368000Y1170000D01*
X7308000Y1230000D02*
X7428000Y1230000D01*
X7368000Y470000D02*
X7368000Y350000D01*
X7308000Y410000D02*
X7428000Y410000D01*
X7868000Y1290000D02*
X7868000Y1170000D01*
X7808000Y1230000D02*
X7928000Y1230000D01*
X7868000Y470000D02*
X7868000Y350000D01*
X7808000Y410000D02*
X7928000Y410000D01*
D14*
X2763933Y3733067D02*
X2763933Y3858933D01*
X2638067Y3858933D01*
X2638067Y3733067D01*
X2763933Y3733067D01*
X2763933Y2741067D02*
X2763933Y2866933D01*
X2638067Y2866933D01*
X2638067Y2741067D01*
X2763933Y2741067D01*
X3103933Y3733067D02*
X3103933Y3858933D01*
X2978067Y3858933D01*
X2978067Y3733067D01*
X3103933Y3733067D01*
X3103933Y2741067D02*
X3103933Y2866933D01*
X2978067Y2866933D01*
X2978067Y2741067D01*
X3103933Y2741067D01*
X4257933Y3733067D02*
X4257933Y3858933D01*
X4132067Y3858933D01*
X4132067Y3733067D01*
X4257933Y3733067D01*
X4257933Y2741067D02*
X4257933Y2866933D01*
X4132067Y2866933D01*
X4132067Y2741067D01*
X4257933Y2741067D01*
X4597933Y3733067D02*
X4597933Y3858933D01*
X4472067Y3858933D01*
X4472067Y3733067D01*
X4597933Y3733067D01*
X4597933Y2741067D02*
X4597933Y2866933D01*
X4472067Y2866933D01*
X4472067Y2741067D01*
X4597933Y2741067D01*
X5756933Y3733067D02*
X5756933Y3858933D01*
X5631067Y3858933D01*
X5631067Y3733067D01*
X5756933Y3733067D01*
X5756933Y2741067D02*
X5756933Y2866933D01*
X5631067Y2866933D01*
X5631067Y2741067D01*
X5756933Y2741067D01*
X6096933Y3733067D02*
X6096933Y3858933D01*
X5971067Y3858933D01*
X5971067Y3733067D01*
X6096933Y3733067D01*
X6096933Y2741067D02*
X6096933Y2866933D01*
X5971067Y2866933D01*
X5971067Y2741067D01*
X6096933Y2741067D01*
X7253933Y3733067D02*
X7253933Y3858933D01*
X7128067Y3858933D01*
X7128067Y3733067D01*
X7253933Y3733067D01*
X7253933Y2741067D02*
X7253933Y2866933D01*
X7128067Y2866933D01*
X7128067Y2741067D01*
X7253933Y2741067D01*
X7593933Y3733067D02*
X7593933Y3858933D01*
X7468067Y3858933D01*
X7468067Y3733067D01*
X7593933Y3733067D01*
X7593933Y2741067D02*
X7593933Y2866933D01*
X7468067Y2866933D01*
X7468067Y2741067D01*
X7593933Y2741067D01*
D11*
X259277Y-313984D02*
X259277Y-113984D01*
X259277Y-113984D02*
X306896Y-113984D01*
X306896Y-113984D02*
X335467Y-123508D01*
X335467Y-123508D02*
X354515Y-142555D01*
X354515Y-142555D02*
X364039Y-161603D01*
X364039Y-161603D02*
X373562Y-199698D01*
X373562Y-199698D02*
X373562Y-228269D01*
X373562Y-228269D02*
X364039Y-266365D01*
X364039Y-266365D02*
X354515Y-285412D01*
X354515Y-285412D02*
X335467Y-304460D01*
X335467Y-304460D02*
X306896Y-313984D01*
X306896Y-313984D02*
X259277Y-313984D01*
X459277Y-313984D02*
X459277Y-180650D01*
X459277Y-218746D02*
X468801Y-199698D01*
X468801Y-199698D02*
X478324Y-190174D01*
X478324Y-190174D02*
X497372Y-180650D01*
X497372Y-180650D02*
X516420Y-180650D01*
X583086Y-313984D02*
X583086Y-180650D01*
X583086Y-113984D02*
X573563Y-123508D01*
X573563Y-123508D02*
X583086Y-133031D01*
X583086Y-133031D02*
X592610Y-123508D01*
X592610Y-123508D02*
X583086Y-113984D01*
X583086Y-113984D02*
X583086Y-133031D01*
X706896Y-313984D02*
X687848Y-304460D01*
X687848Y-304460D02*
X678324Y-285412D01*
X678324Y-285412D02*
X678324Y-113984D01*
X811658Y-313984D02*
X792610Y-304460D01*
X792610Y-304460D02*
X783086Y-285412D01*
X783086Y-285412D02*
X783086Y-113984D01*
X1040229Y-313984D02*
X1040229Y-113984D01*
X1040229Y-113984D02*
X1106896Y-256841D01*
X1106896Y-256841D02*
X1173563Y-113984D01*
X1173563Y-113984D02*
X1173563Y-313984D01*
X1354515Y-313984D02*
X1354515Y-209222D01*
X1354515Y-209222D02*
X1344991Y-190174D01*
X1344991Y-190174D02*
X1325944Y-180650D01*
X1325944Y-180650D02*
X1287848Y-180650D01*
X1287848Y-180650D02*
X1268801Y-190174D01*
X1354515Y-304460D02*
X1335467Y-313984D01*
X1335467Y-313984D02*
X1287848Y-313984D01*
X1287848Y-313984D02*
X1268801Y-304460D01*
X1268801Y-304460D02*
X1259277Y-285412D01*
X1259277Y-285412D02*
X1259277Y-266365D01*
X1259277Y-266365D02*
X1268801Y-247317D01*
X1268801Y-247317D02*
X1287848Y-237793D01*
X1287848Y-237793D02*
X1335467Y-237793D01*
X1335467Y-237793D02*
X1354515Y-228269D01*
X1449753Y-180650D02*
X1449753Y-380650D01*
X1449753Y-190174D02*
X1468801Y-180650D01*
X1468801Y-180650D02*
X1506896Y-180650D01*
X1506896Y-180650D02*
X1525943Y-190174D01*
X1525943Y-190174D02*
X1535467Y-199698D01*
X1535467Y-199698D02*
X1544991Y-218746D01*
X1544991Y-218746D02*
X1544991Y-275889D01*
X1544991Y-275889D02*
X1535467Y-294936D01*
X1535467Y-294936D02*
X1525943Y-304460D01*
X1525943Y-304460D02*
X1506896Y-313984D01*
X1506896Y-313984D02*
X1468801Y-313984D01*
X1468801Y-313984D02*
X1449753Y-304460D01*
X1630705Y-294936D02*
X1640229Y-304460D01*
X1640229Y-304460D02*
X1630705Y-313984D01*
X1630705Y-313984D02*
X1621182Y-304460D01*
X1621182Y-304460D02*
X1630705Y-294936D01*
X1630705Y-294936D02*
X1630705Y-313984D01*
X1630705Y-190174D02*
X1640229Y-199698D01*
X1640229Y-199698D02*
X1630705Y-209222D01*
X1630705Y-209222D02*
X1621182Y-199698D01*
X1621182Y-199698D02*
X1630705Y-190174D01*
X1630705Y-190174D02*
X1630705Y-209222D01*
D12*
X-61500Y-612500D02*
X-1500Y-672500D01*
X-1500Y-612500D02*
X-61500Y-672500D01*
D11*
X297372Y-533984D02*
X316420Y-533984D01*
X316420Y-533984D02*
X335467Y-543508D01*
X335467Y-543508D02*
X344991Y-553031D01*
X344991Y-553031D02*
X354515Y-572079D01*
X354515Y-572079D02*
X364039Y-610174D01*
X364039Y-610174D02*
X364039Y-657793D01*
X364039Y-657793D02*
X354515Y-695889D01*
X354515Y-695889D02*
X344991Y-714936D01*
X344991Y-714936D02*
X335467Y-724460D01*
X335467Y-724460D02*
X316420Y-733984D01*
X316420Y-733984D02*
X297372Y-733984D01*
X297372Y-733984D02*
X278324Y-724460D01*
X278324Y-724460D02*
X268801Y-714936D01*
X268801Y-714936D02*
X259277Y-695889D01*
X259277Y-695889D02*
X249753Y-657793D01*
X249753Y-657793D02*
X249753Y-610174D01*
X249753Y-610174D02*
X259277Y-572079D01*
X259277Y-572079D02*
X268801Y-553031D01*
X268801Y-553031D02*
X278324Y-543508D01*
X278324Y-543508D02*
X297372Y-533984D01*
X449753Y-714936D02*
X459277Y-724460D01*
X459277Y-724460D02*
X449753Y-733984D01*
X449753Y-733984D02*
X440229Y-724460D01*
X440229Y-724460D02*
X449753Y-714936D01*
X449753Y-714936D02*
X449753Y-733984D01*
X630705Y-533984D02*
X592610Y-533984D01*
X592610Y-533984D02*
X573563Y-543508D01*
X573563Y-543508D02*
X564039Y-553031D01*
X564039Y-553031D02*
X544991Y-581603D01*
X544991Y-581603D02*
X535467Y-619698D01*
X535467Y-619698D02*
X535467Y-695889D01*
X535467Y-695889D02*
X544991Y-714936D01*
X544991Y-714936D02*
X554515Y-724460D01*
X554515Y-724460D02*
X573563Y-733984D01*
X573563Y-733984D02*
X611658Y-733984D01*
X611658Y-733984D02*
X630705Y-724460D01*
X630705Y-724460D02*
X640229Y-714936D01*
X640229Y-714936D02*
X649753Y-695889D01*
X649753Y-695889D02*
X649753Y-648270D01*
X649753Y-648270D02*
X640229Y-629222D01*
X640229Y-629222D02*
X630705Y-619698D01*
X630705Y-619698D02*
X611658Y-610174D01*
X611658Y-610174D02*
X573563Y-610174D01*
X573563Y-610174D02*
X554515Y-619698D01*
X554515Y-619698D02*
X544991Y-629222D01*
X544991Y-629222D02*
X535467Y-648270D01*
X773562Y-533984D02*
X792610Y-533984D01*
X792610Y-533984D02*
X811658Y-543508D01*
X811658Y-543508D02*
X821182Y-553031D01*
X821182Y-553031D02*
X830705Y-572079D01*
X830705Y-572079D02*
X840229Y-610174D01*
X840229Y-610174D02*
X840229Y-657793D01*
X840229Y-657793D02*
X830705Y-695889D01*
X830705Y-695889D02*
X821182Y-714936D01*
X821182Y-714936D02*
X811658Y-724460D01*
X811658Y-724460D02*
X792610Y-733984D01*
X792610Y-733984D02*
X773562Y-733984D01*
X773562Y-733984D02*
X754515Y-724460D01*
X754515Y-724460D02*
X744991Y-714936D01*
X744991Y-714936D02*
X735467Y-695889D01*
X735467Y-695889D02*
X725943Y-657793D01*
X725943Y-657793D02*
X725943Y-610174D01*
X725943Y-610174D02*
X735467Y-572079D01*
X735467Y-572079D02*
X744991Y-553031D01*
X744991Y-553031D02*
X754515Y-543508D01*
X754515Y-543508D02*
X773562Y-533984D01*
X964039Y-533984D02*
X983086Y-533984D01*
X983086Y-533984D02*
X1002134Y-543508D01*
X1002134Y-543508D02*
X1011658Y-553031D01*
X1011658Y-553031D02*
X1021182Y-572079D01*
X1021182Y-572079D02*
X1030705Y-610174D01*
X1030705Y-610174D02*
X1030705Y-657793D01*
X1030705Y-657793D02*
X1021182Y-695889D01*
X1021182Y-695889D02*
X1011658Y-714936D01*
X1011658Y-714936D02*
X1002134Y-724460D01*
X1002134Y-724460D02*
X983086Y-733984D01*
X983086Y-733984D02*
X964039Y-733984D01*
X964039Y-733984D02*
X944991Y-724460D01*
X944991Y-724460D02*
X935467Y-714936D01*
X935467Y-714936D02*
X925943Y-695889D01*
X925943Y-695889D02*
X916420Y-657793D01*
X916420Y-657793D02*
X916420Y-610174D01*
X916420Y-610174D02*
X925943Y-572079D01*
X925943Y-572079D02*
X935467Y-553031D01*
X935467Y-553031D02*
X944991Y-543508D01*
X944991Y-543508D02*
X964039Y-533984D01*
X1116420Y-733984D02*
X1116420Y-600650D01*
X1116420Y-619698D02*
X1125944Y-610174D01*
X1125944Y-610174D02*
X1144991Y-600650D01*
X1144991Y-600650D02*
X1173563Y-600650D01*
X1173563Y-600650D02*
X1192610Y-610174D01*
X1192610Y-610174D02*
X1202134Y-629222D01*
X1202134Y-629222D02*
X1202134Y-733984D01*
X1202134Y-629222D02*
X1211658Y-610174D01*
X1211658Y-610174D02*
X1230705Y-600650D01*
X1230705Y-600650D02*
X1259277Y-600650D01*
X1259277Y-600650D02*
X1278325Y-610174D01*
X1278325Y-610174D02*
X1287848Y-629222D01*
X1287848Y-629222D02*
X1287848Y-733984D01*
X1383086Y-733984D02*
X1383086Y-600650D01*
X1383086Y-619698D02*
X1392610Y-610174D01*
X1392610Y-610174D02*
X1411658Y-600650D01*
X1411658Y-600650D02*
X1440229Y-600650D01*
X1440229Y-600650D02*
X1459277Y-610174D01*
X1459277Y-610174D02*
X1468801Y-629222D01*
X1468801Y-629222D02*
X1468801Y-733984D01*
X1468801Y-629222D02*
X1478324Y-610174D01*
X1478324Y-610174D02*
X1497372Y-600650D01*
X1497372Y-600650D02*
X1525943Y-600650D01*
X1525943Y-600650D02*
X1544991Y-610174D01*
X1544991Y-610174D02*
X1554515Y-629222D01*
X1554515Y-629222D02*
X1554515Y-733984D01*
X1944991Y-524460D02*
X1773563Y-781603D01*
X2202134Y-533984D02*
X2221182Y-533984D01*
X2221182Y-533984D02*
X2240229Y-543508D01*
X2240229Y-543508D02*
X2249753Y-553031D01*
X2249753Y-553031D02*
X2259277Y-572079D01*
X2259277Y-572079D02*
X2268801Y-610174D01*
X2268801Y-610174D02*
X2268801Y-657793D01*
X2268801Y-657793D02*
X2259277Y-695889D01*
X2259277Y-695889D02*
X2249753Y-714936D01*
X2249753Y-714936D02*
X2240229Y-724460D01*
X2240229Y-724460D02*
X2221182Y-733984D01*
X2221182Y-733984D02*
X2202134Y-733984D01*
X2202134Y-733984D02*
X2183087Y-724460D01*
X2183087Y-724460D02*
X2173563Y-714936D01*
X2173563Y-714936D02*
X2164039Y-695889D01*
X2164039Y-695889D02*
X2154515Y-657793D01*
X2154515Y-657793D02*
X2154515Y-610174D01*
X2154515Y-610174D02*
X2164039Y-572079D01*
X2164039Y-572079D02*
X2173563Y-553031D01*
X2173563Y-553031D02*
X2183087Y-543508D01*
X2183087Y-543508D02*
X2202134Y-533984D01*
X2354515Y-714936D02*
X2364039Y-724460D01*
X2364039Y-724460D02*
X2354515Y-733984D01*
X2354515Y-733984D02*
X2344991Y-724460D01*
X2344991Y-724460D02*
X2354515Y-714936D01*
X2354515Y-714936D02*
X2354515Y-733984D01*
X2487848Y-533984D02*
X2506896Y-533984D01*
X2506896Y-533984D02*
X2525944Y-543508D01*
X2525944Y-543508D02*
X2535468Y-553031D01*
X2535468Y-553031D02*
X2544991Y-572079D01*
X2544991Y-572079D02*
X2554515Y-610174D01*
X2554515Y-610174D02*
X2554515Y-657793D01*
X2554515Y-657793D02*
X2544991Y-695889D01*
X2544991Y-695889D02*
X2535468Y-714936D01*
X2535468Y-714936D02*
X2525944Y-724460D01*
X2525944Y-724460D02*
X2506896Y-733984D01*
X2506896Y-733984D02*
X2487848Y-733984D01*
X2487848Y-733984D02*
X2468801Y-724460D01*
X2468801Y-724460D02*
X2459277Y-714936D01*
X2459277Y-714936D02*
X2449753Y-695889D01*
X2449753Y-695889D02*
X2440229Y-657793D01*
X2440229Y-657793D02*
X2440229Y-610174D01*
X2440229Y-610174D02*
X2449753Y-572079D01*
X2449753Y-572079D02*
X2459277Y-553031D01*
X2459277Y-553031D02*
X2468801Y-543508D01*
X2468801Y-543508D02*
X2487848Y-533984D01*
X2630706Y-553031D02*
X2640229Y-543508D01*
X2640229Y-543508D02*
X2659277Y-533984D01*
X2659277Y-533984D02*
X2706896Y-533984D01*
X2706896Y-533984D02*
X2725944Y-543508D01*
X2725944Y-543508D02*
X2735468Y-553031D01*
X2735468Y-553031D02*
X2744991Y-572079D01*
X2744991Y-572079D02*
X2744991Y-591127D01*
X2744991Y-591127D02*
X2735468Y-619698D01*
X2735468Y-619698D02*
X2621182Y-733984D01*
X2621182Y-733984D02*
X2744991Y-733984D01*
X2811658Y-533984D02*
X2935467Y-533984D01*
X2935467Y-533984D02*
X2868801Y-610174D01*
X2868801Y-610174D02*
X2897372Y-610174D01*
X2897372Y-610174D02*
X2916420Y-619698D01*
X2916420Y-619698D02*
X2925944Y-629222D01*
X2925944Y-629222D02*
X2935467Y-648270D01*
X2935467Y-648270D02*
X2935467Y-695889D01*
X2935467Y-695889D02*
X2925944Y-714936D01*
X2925944Y-714936D02*
X2916420Y-724460D01*
X2916420Y-724460D02*
X2897372Y-733984D01*
X2897372Y-733984D02*
X2840229Y-733984D01*
X2840229Y-733984D02*
X2821182Y-724460D01*
X2821182Y-724460D02*
X2811658Y-714936D01*
X3106896Y-533984D02*
X3068801Y-533984D01*
X3068801Y-533984D02*
X3049753Y-543508D01*
X3049753Y-543508D02*
X3040229Y-553031D01*
X3040229Y-553031D02*
X3021182Y-581603D01*
X3021182Y-581603D02*
X3011658Y-619698D01*
X3011658Y-619698D02*
X3011658Y-695889D01*
X3011658Y-695889D02*
X3021182Y-714936D01*
X3021182Y-714936D02*
X3030706Y-724460D01*
X3030706Y-724460D02*
X3049753Y-733984D01*
X3049753Y-733984D02*
X3087848Y-733984D01*
X3087848Y-733984D02*
X3106896Y-724460D01*
X3106896Y-724460D02*
X3116420Y-714936D01*
X3116420Y-714936D02*
X3125944Y-695889D01*
X3125944Y-695889D02*
X3125944Y-648270D01*
X3125944Y-648270D02*
X3116420Y-629222D01*
X3116420Y-629222D02*
X3106896Y-619698D01*
X3106896Y-619698D02*
X3087848Y-610174D01*
X3087848Y-610174D02*
X3049753Y-610174D01*
X3049753Y-610174D02*
X3030706Y-619698D01*
X3030706Y-619698D02*
X3021182Y-629222D01*
X3021182Y-629222D02*
X3011658Y-648270D01*
X3202134Y-533984D02*
X3202134Y-572079D01*
X3278325Y-533984D02*
X3278325Y-572079D01*
X3573563Y-810174D02*
X3564039Y-800650D01*
X3564039Y-800650D02*
X3544991Y-772079D01*
X3544991Y-772079D02*
X3535468Y-753031D01*
X3535468Y-753031D02*
X3525944Y-724460D01*
X3525944Y-724460D02*
X3516420Y-676841D01*
X3516420Y-676841D02*
X3516420Y-638746D01*
X3516420Y-638746D02*
X3525944Y-591127D01*
X3525944Y-591127D02*
X3535468Y-562555D01*
X3535468Y-562555D02*
X3544991Y-543508D01*
X3544991Y-543508D02*
X3564039Y-514936D01*
X3564039Y-514936D02*
X3573563Y-505412D01*
X3640229Y-553031D02*
X3649753Y-543508D01*
X3649753Y-543508D02*
X3668801Y-533984D01*
X3668801Y-533984D02*
X3716420Y-533984D01*
X3716420Y-533984D02*
X3735468Y-543508D01*
X3735468Y-543508D02*
X3744991Y-553031D01*
X3744991Y-553031D02*
X3754515Y-572079D01*
X3754515Y-572079D02*
X3754515Y-591127D01*
X3754515Y-591127D02*
X3744991Y-619698D01*
X3744991Y-619698D02*
X3630706Y-733984D01*
X3630706Y-733984D02*
X3754515Y-733984D01*
X3821182Y-533984D02*
X3944991Y-533984D01*
X3944991Y-533984D02*
X3878325Y-610174D01*
X3878325Y-610174D02*
X3906896Y-610174D01*
X3906896Y-610174D02*
X3925944Y-619698D01*
X3925944Y-619698D02*
X3935468Y-629222D01*
X3935468Y-629222D02*
X3944991Y-648270D01*
X3944991Y-648270D02*
X3944991Y-695889D01*
X3944991Y-695889D02*
X3935468Y-714936D01*
X3935468Y-714936D02*
X3925944Y-724460D01*
X3925944Y-724460D02*
X3906896Y-733984D01*
X3906896Y-733984D02*
X3849753Y-733984D01*
X3849753Y-733984D02*
X3830706Y-724460D01*
X3830706Y-724460D02*
X3821182Y-714936D01*
X4183087Y-733984D02*
X4183087Y-533984D01*
X4268801Y-733984D02*
X4268801Y-629222D01*
X4268801Y-629222D02*
X4259277Y-610174D01*
X4259277Y-610174D02*
X4240230Y-600650D01*
X4240230Y-600650D02*
X4211658Y-600650D01*
X4211658Y-600650D02*
X4192610Y-610174D01*
X4192610Y-610174D02*
X4183087Y-619698D01*
X4392611Y-733984D02*
X4373563Y-724460D01*
X4373563Y-724460D02*
X4364039Y-714936D01*
X4364039Y-714936D02*
X4354515Y-695889D01*
X4354515Y-695889D02*
X4354515Y-638746D01*
X4354515Y-638746D02*
X4364039Y-619698D01*
X4364039Y-619698D02*
X4373563Y-610174D01*
X4373563Y-610174D02*
X4392611Y-600650D01*
X4392611Y-600650D02*
X4421182Y-600650D01*
X4421182Y-600650D02*
X4440230Y-610174D01*
X4440230Y-610174D02*
X4449753Y-619698D01*
X4449753Y-619698D02*
X4459277Y-638746D01*
X4459277Y-638746D02*
X4459277Y-695889D01*
X4459277Y-695889D02*
X4449753Y-714936D01*
X4449753Y-714936D02*
X4440230Y-724460D01*
X4440230Y-724460D02*
X4421182Y-733984D01*
X4421182Y-733984D02*
X4392611Y-733984D01*
X4573563Y-733984D02*
X4554515Y-724460D01*
X4554515Y-724460D02*
X4544992Y-705412D01*
X4544992Y-705412D02*
X4544992Y-533984D01*
X4725944Y-724460D02*
X4706896Y-733984D01*
X4706896Y-733984D02*
X4668801Y-733984D01*
X4668801Y-733984D02*
X4649753Y-724460D01*
X4649753Y-724460D02*
X4640230Y-705412D01*
X4640230Y-705412D02*
X4640230Y-629222D01*
X4640230Y-629222D02*
X4649753Y-610174D01*
X4649753Y-610174D02*
X4668801Y-600650D01*
X4668801Y-600650D02*
X4706896Y-600650D01*
X4706896Y-600650D02*
X4725944Y-610174D01*
X4725944Y-610174D02*
X4735468Y-629222D01*
X4735468Y-629222D02*
X4735468Y-648270D01*
X4735468Y-648270D02*
X4640230Y-667317D01*
X4811658Y-724460D02*
X4830706Y-733984D01*
X4830706Y-733984D02*
X4868801Y-733984D01*
X4868801Y-733984D02*
X4887849Y-724460D01*
X4887849Y-724460D02*
X4897373Y-705412D01*
X4897373Y-705412D02*
X4897373Y-695889D01*
X4897373Y-695889D02*
X4887849Y-676841D01*
X4887849Y-676841D02*
X4868801Y-667317D01*
X4868801Y-667317D02*
X4840230Y-667317D01*
X4840230Y-667317D02*
X4821182Y-657793D01*
X4821182Y-657793D02*
X4811658Y-638746D01*
X4811658Y-638746D02*
X4811658Y-629222D01*
X4811658Y-629222D02*
X4821182Y-610174D01*
X4821182Y-610174D02*
X4840230Y-600650D01*
X4840230Y-600650D02*
X4868801Y-600650D01*
X4868801Y-600650D02*
X4887849Y-610174D01*
X4964039Y-810174D02*
X4973563Y-800650D01*
X4973563Y-800650D02*
X4992611Y-772079D01*
X4992611Y-772079D02*
X5002134Y-753031D01*
X5002134Y-753031D02*
X5011658Y-724460D01*
X5011658Y-724460D02*
X5021182Y-676841D01*
X5021182Y-676841D02*
X5021182Y-638746D01*
X5021182Y-638746D02*
X5011658Y-591127D01*
X5011658Y-591127D02*
X5002134Y-562555D01*
X5002134Y-562555D02*
X4992611Y-543508D01*
X4992611Y-543508D02*
X4973563Y-514936D01*
X4973563Y-514936D02*
X4964039Y-505412D01*
D12*
X-1500Y-906500D02*
G75*
G02*
X-101500Y-906500I-50000J0D01*
G01*
X-101500Y-906500D02*
G75*
G02*
X-1500Y-906500I50000J0D01*
G01*
D11*
X364039Y-997984D02*
X249753Y-997984D01*
X306896Y-997984D02*
X306896Y-797984D01*
X306896Y-797984D02*
X287848Y-826555D01*
X287848Y-826555D02*
X268801Y-845603D01*
X268801Y-845603D02*
X249753Y-855127D01*
X449753Y-978936D02*
X459277Y-988460D01*
X459277Y-988460D02*
X449753Y-997984D01*
X449753Y-997984D02*
X440229Y-988460D01*
X440229Y-988460D02*
X449753Y-978936D01*
X449753Y-978936D02*
X449753Y-997984D01*
X583086Y-797984D02*
X602134Y-797984D01*
X602134Y-797984D02*
X621182Y-807508D01*
X621182Y-807508D02*
X630705Y-817031D01*
X630705Y-817031D02*
X640229Y-836079D01*
X640229Y-836079D02*
X649753Y-874174D01*
X649753Y-874174D02*
X649753Y-921793D01*
X649753Y-921793D02*
X640229Y-959888D01*
X640229Y-959888D02*
X630705Y-978936D01*
X630705Y-978936D02*
X621182Y-988460D01*
X621182Y-988460D02*
X602134Y-997984D01*
X602134Y-997984D02*
X583086Y-997984D01*
X583086Y-997984D02*
X564039Y-988460D01*
X564039Y-988460D02*
X554515Y-978936D01*
X554515Y-978936D02*
X544991Y-959888D01*
X544991Y-959888D02*
X535467Y-921793D01*
X535467Y-921793D02*
X535467Y-874174D01*
X535467Y-874174D02*
X544991Y-836079D01*
X544991Y-836079D02*
X554515Y-817031D01*
X554515Y-817031D02*
X564039Y-807508D01*
X564039Y-807508D02*
X583086Y-797984D01*
X773562Y-797984D02*
X792610Y-797984D01*
X792610Y-797984D02*
X811658Y-807508D01*
X811658Y-807508D02*
X821182Y-817031D01*
X821182Y-817031D02*
X830705Y-836079D01*
X830705Y-836079D02*
X840229Y-874174D01*
X840229Y-874174D02*
X840229Y-921793D01*
X840229Y-921793D02*
X830705Y-959888D01*
X830705Y-959888D02*
X821182Y-978936D01*
X821182Y-978936D02*
X811658Y-988460D01*
X811658Y-988460D02*
X792610Y-997984D01*
X792610Y-997984D02*
X773562Y-997984D01*
X773562Y-997984D02*
X754515Y-988460D01*
X754515Y-988460D02*
X744991Y-978936D01*
X744991Y-978936D02*
X735467Y-959888D01*
X735467Y-959888D02*
X725943Y-921793D01*
X725943Y-921793D02*
X725943Y-874174D01*
X725943Y-874174D02*
X735467Y-836079D01*
X735467Y-836079D02*
X744991Y-817031D01*
X744991Y-817031D02*
X754515Y-807508D01*
X754515Y-807508D02*
X773562Y-797984D01*
X964039Y-797984D02*
X983086Y-797984D01*
X983086Y-797984D02*
X1002134Y-807508D01*
X1002134Y-807508D02*
X1011658Y-817031D01*
X1011658Y-817031D02*
X1021182Y-836079D01*
X1021182Y-836079D02*
X1030705Y-874174D01*
X1030705Y-874174D02*
X1030705Y-921793D01*
X1030705Y-921793D02*
X1021182Y-959888D01*
X1021182Y-959888D02*
X1011658Y-978936D01*
X1011658Y-978936D02*
X1002134Y-988460D01*
X1002134Y-988460D02*
X983086Y-997984D01*
X983086Y-997984D02*
X964039Y-997984D01*
X964039Y-997984D02*
X944991Y-988460D01*
X944991Y-988460D02*
X935467Y-978936D01*
X935467Y-978936D02*
X925943Y-959888D01*
X925943Y-959888D02*
X916420Y-921793D01*
X916420Y-921793D02*
X916420Y-874174D01*
X916420Y-874174D02*
X925943Y-836079D01*
X925943Y-836079D02*
X935467Y-817031D01*
X935467Y-817031D02*
X944991Y-807508D01*
X944991Y-807508D02*
X964039Y-797984D01*
X1116420Y-997984D02*
X1116420Y-864650D01*
X1116420Y-883698D02*
X1125944Y-874174D01*
X1125944Y-874174D02*
X1144991Y-864650D01*
X1144991Y-864650D02*
X1173563Y-864650D01*
X1173563Y-864650D02*
X1192610Y-874174D01*
X1192610Y-874174D02*
X1202134Y-893222D01*
X1202134Y-893222D02*
X1202134Y-997984D01*
X1202134Y-893222D02*
X1211658Y-874174D01*
X1211658Y-874174D02*
X1230705Y-864650D01*
X1230705Y-864650D02*
X1259277Y-864650D01*
X1259277Y-864650D02*
X1278325Y-874174D01*
X1278325Y-874174D02*
X1287848Y-893222D01*
X1287848Y-893222D02*
X1287848Y-997984D01*
X1383086Y-997984D02*
X1383086Y-864650D01*
X1383086Y-883698D02*
X1392610Y-874174D01*
X1392610Y-874174D02*
X1411658Y-864650D01*
X1411658Y-864650D02*
X1440229Y-864650D01*
X1440229Y-864650D02*
X1459277Y-874174D01*
X1459277Y-874174D02*
X1468801Y-893222D01*
X1468801Y-893222D02*
X1468801Y-997984D01*
X1468801Y-893222D02*
X1478324Y-874174D01*
X1478324Y-874174D02*
X1497372Y-864650D01*
X1497372Y-864650D02*
X1525943Y-864650D01*
X1525943Y-864650D02*
X1544991Y-874174D01*
X1544991Y-874174D02*
X1554515Y-893222D01*
X1554515Y-893222D02*
X1554515Y-997984D01*
X1944991Y-788460D02*
X1773563Y-1045603D01*
X2202134Y-797984D02*
X2221182Y-797984D01*
X2221182Y-797984D02*
X2240229Y-807508D01*
X2240229Y-807508D02*
X2249753Y-817031D01*
X2249753Y-817031D02*
X2259277Y-836079D01*
X2259277Y-836079D02*
X2268801Y-874174D01*
X2268801Y-874174D02*
X2268801Y-921793D01*
X2268801Y-921793D02*
X2259277Y-959888D01*
X2259277Y-959888D02*
X2249753Y-978936D01*
X2249753Y-978936D02*
X2240229Y-988460D01*
X2240229Y-988460D02*
X2221182Y-997984D01*
X2221182Y-997984D02*
X2202134Y-997984D01*
X2202134Y-997984D02*
X2183087Y-988460D01*
X2183087Y-988460D02*
X2173563Y-978936D01*
X2173563Y-978936D02*
X2164039Y-959888D01*
X2164039Y-959888D02*
X2154515Y-921793D01*
X2154515Y-921793D02*
X2154515Y-874174D01*
X2154515Y-874174D02*
X2164039Y-836079D01*
X2164039Y-836079D02*
X2173563Y-817031D01*
X2173563Y-817031D02*
X2183087Y-807508D01*
X2183087Y-807508D02*
X2202134Y-797984D01*
X2354515Y-978936D02*
X2364039Y-988460D01*
X2364039Y-988460D02*
X2354515Y-997984D01*
X2354515Y-997984D02*
X2344991Y-988460D01*
X2344991Y-988460D02*
X2354515Y-978936D01*
X2354515Y-978936D02*
X2354515Y-997984D01*
X2487848Y-797984D02*
X2506896Y-797984D01*
X2506896Y-797984D02*
X2525944Y-807508D01*
X2525944Y-807508D02*
X2535468Y-817031D01*
X2535468Y-817031D02*
X2544991Y-836079D01*
X2544991Y-836079D02*
X2554515Y-874174D01*
X2554515Y-874174D02*
X2554515Y-921793D01*
X2554515Y-921793D02*
X2544991Y-959888D01*
X2544991Y-959888D02*
X2535468Y-978936D01*
X2535468Y-978936D02*
X2525944Y-988460D01*
X2525944Y-988460D02*
X2506896Y-997984D01*
X2506896Y-997984D02*
X2487848Y-997984D01*
X2487848Y-997984D02*
X2468801Y-988460D01*
X2468801Y-988460D02*
X2459277Y-978936D01*
X2459277Y-978936D02*
X2449753Y-959888D01*
X2449753Y-959888D02*
X2440229Y-921793D01*
X2440229Y-921793D02*
X2440229Y-874174D01*
X2440229Y-874174D02*
X2449753Y-836079D01*
X2449753Y-836079D02*
X2459277Y-817031D01*
X2459277Y-817031D02*
X2468801Y-807508D01*
X2468801Y-807508D02*
X2487848Y-797984D01*
X2621182Y-797984D02*
X2744991Y-797984D01*
X2744991Y-797984D02*
X2678325Y-874174D01*
X2678325Y-874174D02*
X2706896Y-874174D01*
X2706896Y-874174D02*
X2725944Y-883698D01*
X2725944Y-883698D02*
X2735468Y-893222D01*
X2735468Y-893222D02*
X2744991Y-912269D01*
X2744991Y-912269D02*
X2744991Y-959888D01*
X2744991Y-959888D02*
X2735468Y-978936D01*
X2735468Y-978936D02*
X2725944Y-988460D01*
X2725944Y-988460D02*
X2706896Y-997984D01*
X2706896Y-997984D02*
X2649753Y-997984D01*
X2649753Y-997984D02*
X2630706Y-988460D01*
X2630706Y-988460D02*
X2621182Y-978936D01*
X2840229Y-997984D02*
X2878325Y-997984D01*
X2878325Y-997984D02*
X2897372Y-988460D01*
X2897372Y-988460D02*
X2906896Y-978936D01*
X2906896Y-978936D02*
X2925944Y-950365D01*
X2925944Y-950365D02*
X2935467Y-912269D01*
X2935467Y-912269D02*
X2935467Y-836079D01*
X2935467Y-836079D02*
X2925944Y-817031D01*
X2925944Y-817031D02*
X2916420Y-807508D01*
X2916420Y-807508D02*
X2897372Y-797984D01*
X2897372Y-797984D02*
X2859277Y-797984D01*
X2859277Y-797984D02*
X2840229Y-807508D01*
X2840229Y-807508D02*
X2830706Y-817031D01*
X2830706Y-817031D02*
X2821182Y-836079D01*
X2821182Y-836079D02*
X2821182Y-883698D01*
X2821182Y-883698D02*
X2830706Y-902746D01*
X2830706Y-902746D02*
X2840229Y-912269D01*
X2840229Y-912269D02*
X2859277Y-921793D01*
X2859277Y-921793D02*
X2897372Y-921793D01*
X2897372Y-921793D02*
X2916420Y-912269D01*
X2916420Y-912269D02*
X2925944Y-902746D01*
X2925944Y-902746D02*
X2935467Y-883698D01*
X3106896Y-864650D02*
X3106896Y-997984D01*
X3059277Y-788460D02*
X3011658Y-931317D01*
X3011658Y-931317D02*
X3135467Y-931317D01*
X3202134Y-797984D02*
X3202134Y-836079D01*
X3278325Y-797984D02*
X3278325Y-836079D01*
X3573563Y-1074174D02*
X3564039Y-1064650D01*
X3564039Y-1064650D02*
X3544991Y-1036079D01*
X3544991Y-1036079D02*
X3535468Y-1017031D01*
X3535468Y-1017031D02*
X3525944Y-988460D01*
X3525944Y-988460D02*
X3516420Y-940841D01*
X3516420Y-940841D02*
X3516420Y-902746D01*
X3516420Y-902746D02*
X3525944Y-855127D01*
X3525944Y-855127D02*
X3535468Y-826555D01*
X3535468Y-826555D02*
X3544991Y-807508D01*
X3544991Y-807508D02*
X3564039Y-778936D01*
X3564039Y-778936D02*
X3573563Y-769412D01*
X3630706Y-797984D02*
X3754515Y-797984D01*
X3754515Y-797984D02*
X3687848Y-874174D01*
X3687848Y-874174D02*
X3716420Y-874174D01*
X3716420Y-874174D02*
X3735468Y-883698D01*
X3735468Y-883698D02*
X3744991Y-893222D01*
X3744991Y-893222D02*
X3754515Y-912269D01*
X3754515Y-912269D02*
X3754515Y-959888D01*
X3754515Y-959888D02*
X3744991Y-978936D01*
X3744991Y-978936D02*
X3735468Y-988460D01*
X3735468Y-988460D02*
X3716420Y-997984D01*
X3716420Y-997984D02*
X3659277Y-997984D01*
X3659277Y-997984D02*
X3640229Y-988460D01*
X3640229Y-988460D02*
X3630706Y-978936D01*
X3868801Y-883698D02*
X3849753Y-874174D01*
X3849753Y-874174D02*
X3840229Y-864650D01*
X3840229Y-864650D02*
X3830706Y-845603D01*
X3830706Y-845603D02*
X3830706Y-836079D01*
X3830706Y-836079D02*
X3840229Y-817031D01*
X3840229Y-817031D02*
X3849753Y-807508D01*
X3849753Y-807508D02*
X3868801Y-797984D01*
X3868801Y-797984D02*
X3906896Y-797984D01*
X3906896Y-797984D02*
X3925944Y-807508D01*
X3925944Y-807508D02*
X3935468Y-817031D01*
X3935468Y-817031D02*
X3944991Y-836079D01*
X3944991Y-836079D02*
X3944991Y-845603D01*
X3944991Y-845603D02*
X3935468Y-864650D01*
X3935468Y-864650D02*
X3925944Y-874174D01*
X3925944Y-874174D02*
X3906896Y-883698D01*
X3906896Y-883698D02*
X3868801Y-883698D01*
X3868801Y-883698D02*
X3849753Y-893222D01*
X3849753Y-893222D02*
X3840229Y-902746D01*
X3840229Y-902746D02*
X3830706Y-921793D01*
X3830706Y-921793D02*
X3830706Y-959888D01*
X3830706Y-959888D02*
X3840229Y-978936D01*
X3840229Y-978936D02*
X3849753Y-988460D01*
X3849753Y-988460D02*
X3868801Y-997984D01*
X3868801Y-997984D02*
X3906896Y-997984D01*
X3906896Y-997984D02*
X3925944Y-988460D01*
X3925944Y-988460D02*
X3935468Y-978936D01*
X3935468Y-978936D02*
X3944991Y-959888D01*
X3944991Y-959888D02*
X3944991Y-921793D01*
X3944991Y-921793D02*
X3935468Y-902746D01*
X3935468Y-902746D02*
X3925944Y-893222D01*
X3925944Y-893222D02*
X3906896Y-883698D01*
X4183087Y-997984D02*
X4183087Y-797984D01*
X4268801Y-997984D02*
X4268801Y-893222D01*
X4268801Y-893222D02*
X4259277Y-874174D01*
X4259277Y-874174D02*
X4240230Y-864650D01*
X4240230Y-864650D02*
X4211658Y-864650D01*
X4211658Y-864650D02*
X4192610Y-874174D01*
X4192610Y-874174D02*
X4183087Y-883698D01*
X4392611Y-997984D02*
X4373563Y-988460D01*
X4373563Y-988460D02*
X4364039Y-978936D01*
X4364039Y-978936D02*
X4354515Y-959888D01*
X4354515Y-959888D02*
X4354515Y-902746D01*
X4354515Y-902746D02*
X4364039Y-883698D01*
X4364039Y-883698D02*
X4373563Y-874174D01*
X4373563Y-874174D02*
X4392611Y-864650D01*
X4392611Y-864650D02*
X4421182Y-864650D01*
X4421182Y-864650D02*
X4440230Y-874174D01*
X4440230Y-874174D02*
X4449753Y-883698D01*
X4449753Y-883698D02*
X4459277Y-902746D01*
X4459277Y-902746D02*
X4459277Y-959888D01*
X4459277Y-959888D02*
X4449753Y-978936D01*
X4449753Y-978936D02*
X4440230Y-988460D01*
X4440230Y-988460D02*
X4421182Y-997984D01*
X4421182Y-997984D02*
X4392611Y-997984D01*
X4573563Y-997984D02*
X4554515Y-988460D01*
X4554515Y-988460D02*
X4544992Y-969412D01*
X4544992Y-969412D02*
X4544992Y-797984D01*
X4725944Y-988460D02*
X4706896Y-997984D01*
X4706896Y-997984D02*
X4668801Y-997984D01*
X4668801Y-997984D02*
X4649753Y-988460D01*
X4649753Y-988460D02*
X4640230Y-969412D01*
X4640230Y-969412D02*
X4640230Y-893222D01*
X4640230Y-893222D02*
X4649753Y-874174D01*
X4649753Y-874174D02*
X4668801Y-864650D01*
X4668801Y-864650D02*
X4706896Y-864650D01*
X4706896Y-864650D02*
X4725944Y-874174D01*
X4725944Y-874174D02*
X4735468Y-893222D01*
X4735468Y-893222D02*
X4735468Y-912269D01*
X4735468Y-912269D02*
X4640230Y-931317D01*
X4811658Y-988460D02*
X4830706Y-997984D01*
X4830706Y-997984D02*
X4868801Y-997984D01*
X4868801Y-997984D02*
X4887849Y-988460D01*
X4887849Y-988460D02*
X4897373Y-969412D01*
X4897373Y-969412D02*
X4897373Y-959888D01*
X4897373Y-959888D02*
X4887849Y-940841D01*
X4887849Y-940841D02*
X4868801Y-931317D01*
X4868801Y-931317D02*
X4840230Y-931317D01*
X4840230Y-931317D02*
X4821182Y-921793D01*
X4821182Y-921793D02*
X4811658Y-902746D01*
X4811658Y-902746D02*
X4811658Y-893222D01*
X4811658Y-893222D02*
X4821182Y-874174D01*
X4821182Y-874174D02*
X4840230Y-864650D01*
X4840230Y-864650D02*
X4868801Y-864650D01*
X4868801Y-864650D02*
X4887849Y-874174D01*
X4964039Y-1074174D02*
X4973563Y-1064650D01*
X4973563Y-1064650D02*
X4992611Y-1036079D01*
X4992611Y-1036079D02*
X5002134Y-1017031D01*
X5002134Y-1017031D02*
X5011658Y-988460D01*
X5011658Y-988460D02*
X5021182Y-940841D01*
X5021182Y-940841D02*
X5021182Y-902746D01*
X5021182Y-902746D02*
X5011658Y-855127D01*
X5011658Y-855127D02*
X5002134Y-826555D01*
X5002134Y-826555D02*
X4992611Y-807508D01*
X4992611Y-807508D02*
X4973563Y-778936D01*
X4973563Y-778936D02*
X4964039Y-769412D01*
D13*
X-61500Y-1110500D02*
X-61500Y-1230500D01*
X-121500Y-1170500D02*
X-1500Y-1170500D01*
D11*
X364039Y-1261984D02*
X249753Y-1261984D01*
X306896Y-1261984D02*
X306896Y-1061984D01*
X306896Y-1061984D02*
X287848Y-1090555D01*
X287848Y-1090555D02*
X268801Y-1109603D01*
X268801Y-1109603D02*
X249753Y-1119127D01*
X449753Y-1242936D02*
X459277Y-1252460D01*
X459277Y-1252460D02*
X449753Y-1261984D01*
X449753Y-1261984D02*
X440229Y-1252460D01*
X440229Y-1252460D02*
X449753Y-1242936D01*
X449753Y-1242936D02*
X449753Y-1261984D01*
X535467Y-1081031D02*
X544991Y-1071508D01*
X544991Y-1071508D02*
X564039Y-1061984D01*
X564039Y-1061984D02*
X611658Y-1061984D01*
X611658Y-1061984D02*
X630705Y-1071508D01*
X630705Y-1071508D02*
X640229Y-1081031D01*
X640229Y-1081031D02*
X649753Y-1100079D01*
X649753Y-1100079D02*
X649753Y-1119127D01*
X649753Y-1119127D02*
X640229Y-1147698D01*
X640229Y-1147698D02*
X525944Y-1261984D01*
X525944Y-1261984D02*
X649753Y-1261984D01*
X773562Y-1061984D02*
X792610Y-1061984D01*
X792610Y-1061984D02*
X811658Y-1071508D01*
X811658Y-1071508D02*
X821182Y-1081031D01*
X821182Y-1081031D02*
X830705Y-1100079D01*
X830705Y-1100079D02*
X840229Y-1138174D01*
X840229Y-1138174D02*
X840229Y-1185793D01*
X840229Y-1185793D02*
X830705Y-1223889D01*
X830705Y-1223889D02*
X821182Y-1242936D01*
X821182Y-1242936D02*
X811658Y-1252460D01*
X811658Y-1252460D02*
X792610Y-1261984D01*
X792610Y-1261984D02*
X773562Y-1261984D01*
X773562Y-1261984D02*
X754515Y-1252460D01*
X754515Y-1252460D02*
X744991Y-1242936D01*
X744991Y-1242936D02*
X735467Y-1223889D01*
X735467Y-1223889D02*
X725943Y-1185793D01*
X725943Y-1185793D02*
X725943Y-1138174D01*
X725943Y-1138174D02*
X735467Y-1100079D01*
X735467Y-1100079D02*
X744991Y-1081031D01*
X744991Y-1081031D02*
X754515Y-1071508D01*
X754515Y-1071508D02*
X773562Y-1061984D01*
X964039Y-1061984D02*
X983086Y-1061984D01*
X983086Y-1061984D02*
X1002134Y-1071508D01*
X1002134Y-1071508D02*
X1011658Y-1081031D01*
X1011658Y-1081031D02*
X1021182Y-1100079D01*
X1021182Y-1100079D02*
X1030705Y-1138174D01*
X1030705Y-1138174D02*
X1030705Y-1185793D01*
X1030705Y-1185793D02*
X1021182Y-1223889D01*
X1021182Y-1223889D02*
X1011658Y-1242936D01*
X1011658Y-1242936D02*
X1002134Y-1252460D01*
X1002134Y-1252460D02*
X983086Y-1261984D01*
X983086Y-1261984D02*
X964039Y-1261984D01*
X964039Y-1261984D02*
X944991Y-1252460D01*
X944991Y-1252460D02*
X935467Y-1242936D01*
X935467Y-1242936D02*
X925943Y-1223889D01*
X925943Y-1223889D02*
X916420Y-1185793D01*
X916420Y-1185793D02*
X916420Y-1138174D01*
X916420Y-1138174D02*
X925943Y-1100079D01*
X925943Y-1100079D02*
X935467Y-1081031D01*
X935467Y-1081031D02*
X944991Y-1071508D01*
X944991Y-1071508D02*
X964039Y-1061984D01*
X1116420Y-1261984D02*
X1116420Y-1128650D01*
X1116420Y-1147698D02*
X1125944Y-1138174D01*
X1125944Y-1138174D02*
X1144991Y-1128650D01*
X1144991Y-1128650D02*
X1173563Y-1128650D01*
X1173563Y-1128650D02*
X1192610Y-1138174D01*
X1192610Y-1138174D02*
X1202134Y-1157222D01*
X1202134Y-1157222D02*
X1202134Y-1261984D01*
X1202134Y-1157222D02*
X1211658Y-1138174D01*
X1211658Y-1138174D02*
X1230705Y-1128650D01*
X1230705Y-1128650D02*
X1259277Y-1128650D01*
X1259277Y-1128650D02*
X1278325Y-1138174D01*
X1278325Y-1138174D02*
X1287848Y-1157222D01*
X1287848Y-1157222D02*
X1287848Y-1261984D01*
X1383086Y-1261984D02*
X1383086Y-1128650D01*
X1383086Y-1147698D02*
X1392610Y-1138174D01*
X1392610Y-1138174D02*
X1411658Y-1128650D01*
X1411658Y-1128650D02*
X1440229Y-1128650D01*
X1440229Y-1128650D02*
X1459277Y-1138174D01*
X1459277Y-1138174D02*
X1468801Y-1157222D01*
X1468801Y-1157222D02*
X1468801Y-1261984D01*
X1468801Y-1157222D02*
X1478324Y-1138174D01*
X1478324Y-1138174D02*
X1497372Y-1128650D01*
X1497372Y-1128650D02*
X1525943Y-1128650D01*
X1525943Y-1128650D02*
X1544991Y-1138174D01*
X1544991Y-1138174D02*
X1554515Y-1157222D01*
X1554515Y-1157222D02*
X1554515Y-1261984D01*
X1944991Y-1052460D02*
X1773563Y-1309603D01*
X2202134Y-1061984D02*
X2221182Y-1061984D01*
X2221182Y-1061984D02*
X2240229Y-1071508D01*
X2240229Y-1071508D02*
X2249753Y-1081031D01*
X2249753Y-1081031D02*
X2259277Y-1100079D01*
X2259277Y-1100079D02*
X2268801Y-1138174D01*
X2268801Y-1138174D02*
X2268801Y-1185793D01*
X2268801Y-1185793D02*
X2259277Y-1223889D01*
X2259277Y-1223889D02*
X2249753Y-1242936D01*
X2249753Y-1242936D02*
X2240229Y-1252460D01*
X2240229Y-1252460D02*
X2221182Y-1261984D01*
X2221182Y-1261984D02*
X2202134Y-1261984D01*
X2202134Y-1261984D02*
X2183087Y-1252460D01*
X2183087Y-1252460D02*
X2173563Y-1242936D01*
X2173563Y-1242936D02*
X2164039Y-1223889D01*
X2164039Y-1223889D02*
X2154515Y-1185793D01*
X2154515Y-1185793D02*
X2154515Y-1138174D01*
X2154515Y-1138174D02*
X2164039Y-1100079D01*
X2164039Y-1100079D02*
X2173563Y-1081031D01*
X2173563Y-1081031D02*
X2183087Y-1071508D01*
X2183087Y-1071508D02*
X2202134Y-1061984D01*
X2354515Y-1242936D02*
X2364039Y-1252460D01*
X2364039Y-1252460D02*
X2354515Y-1261984D01*
X2354515Y-1261984D02*
X2344991Y-1252460D01*
X2344991Y-1252460D02*
X2354515Y-1242936D01*
X2354515Y-1242936D02*
X2354515Y-1261984D01*
X2487848Y-1061984D02*
X2506896Y-1061984D01*
X2506896Y-1061984D02*
X2525944Y-1071508D01*
X2525944Y-1071508D02*
X2535468Y-1081031D01*
X2535468Y-1081031D02*
X2544991Y-1100079D01*
X2544991Y-1100079D02*
X2554515Y-1138174D01*
X2554515Y-1138174D02*
X2554515Y-1185793D01*
X2554515Y-1185793D02*
X2544991Y-1223889D01*
X2544991Y-1223889D02*
X2535468Y-1242936D01*
X2535468Y-1242936D02*
X2525944Y-1252460D01*
X2525944Y-1252460D02*
X2506896Y-1261984D01*
X2506896Y-1261984D02*
X2487848Y-1261984D01*
X2487848Y-1261984D02*
X2468801Y-1252460D01*
X2468801Y-1252460D02*
X2459277Y-1242936D01*
X2459277Y-1242936D02*
X2449753Y-1223889D01*
X2449753Y-1223889D02*
X2440229Y-1185793D01*
X2440229Y-1185793D02*
X2440229Y-1138174D01*
X2440229Y-1138174D02*
X2449753Y-1100079D01*
X2449753Y-1100079D02*
X2459277Y-1081031D01*
X2459277Y-1081031D02*
X2468801Y-1071508D01*
X2468801Y-1071508D02*
X2487848Y-1061984D01*
X2725944Y-1128650D02*
X2725944Y-1261984D01*
X2678325Y-1052460D02*
X2630706Y-1195317D01*
X2630706Y-1195317D02*
X2754515Y-1195317D01*
X2811658Y-1061984D02*
X2944991Y-1061984D01*
X2944991Y-1061984D02*
X2859277Y-1261984D01*
X3011658Y-1081031D02*
X3021182Y-1071508D01*
X3021182Y-1071508D02*
X3040229Y-1061984D01*
X3040229Y-1061984D02*
X3087848Y-1061984D01*
X3087848Y-1061984D02*
X3106896Y-1071508D01*
X3106896Y-1071508D02*
X3116420Y-1081031D01*
X3116420Y-1081031D02*
X3125944Y-1100079D01*
X3125944Y-1100079D02*
X3125944Y-1119127D01*
X3125944Y-1119127D02*
X3116420Y-1147698D01*
X3116420Y-1147698D02*
X3002134Y-1261984D01*
X3002134Y-1261984D02*
X3125944Y-1261984D01*
X3202134Y-1061984D02*
X3202134Y-1100079D01*
X3278325Y-1061984D02*
X3278325Y-1100079D01*
X3573563Y-1338174D02*
X3564039Y-1328650D01*
X3564039Y-1328650D02*
X3544991Y-1300079D01*
X3544991Y-1300079D02*
X3535468Y-1281031D01*
X3535468Y-1281031D02*
X3525944Y-1252460D01*
X3525944Y-1252460D02*
X3516420Y-1204841D01*
X3516420Y-1204841D02*
X3516420Y-1166746D01*
X3516420Y-1166746D02*
X3525944Y-1119127D01*
X3525944Y-1119127D02*
X3535468Y-1090555D01*
X3535468Y-1090555D02*
X3544991Y-1071508D01*
X3544991Y-1071508D02*
X3564039Y-1042936D01*
X3564039Y-1042936D02*
X3573563Y-1033412D01*
X3640229Y-1081031D02*
X3649753Y-1071508D01*
X3649753Y-1071508D02*
X3668801Y-1061984D01*
X3668801Y-1061984D02*
X3716420Y-1061984D01*
X3716420Y-1061984D02*
X3735468Y-1071508D01*
X3735468Y-1071508D02*
X3744991Y-1081031D01*
X3744991Y-1081031D02*
X3754515Y-1100079D01*
X3754515Y-1100079D02*
X3754515Y-1119127D01*
X3754515Y-1119127D02*
X3744991Y-1147698D01*
X3744991Y-1147698D02*
X3630706Y-1261984D01*
X3630706Y-1261984D02*
X3754515Y-1261984D01*
X3868801Y-1147698D02*
X3849753Y-1138174D01*
X3849753Y-1138174D02*
X3840229Y-1128650D01*
X3840229Y-1128650D02*
X3830706Y-1109603D01*
X3830706Y-1109603D02*
X3830706Y-1100079D01*
X3830706Y-1100079D02*
X3840229Y-1081031D01*
X3840229Y-1081031D02*
X3849753Y-1071508D01*
X3849753Y-1071508D02*
X3868801Y-1061984D01*
X3868801Y-1061984D02*
X3906896Y-1061984D01*
X3906896Y-1061984D02*
X3925944Y-1071508D01*
X3925944Y-1071508D02*
X3935468Y-1081031D01*
X3935468Y-1081031D02*
X3944991Y-1100079D01*
X3944991Y-1100079D02*
X3944991Y-1109603D01*
X3944991Y-1109603D02*
X3935468Y-1128650D01*
X3935468Y-1128650D02*
X3925944Y-1138174D01*
X3925944Y-1138174D02*
X3906896Y-1147698D01*
X3906896Y-1147698D02*
X3868801Y-1147698D01*
X3868801Y-1147698D02*
X3849753Y-1157222D01*
X3849753Y-1157222D02*
X3840229Y-1166746D01*
X3840229Y-1166746D02*
X3830706Y-1185793D01*
X3830706Y-1185793D02*
X3830706Y-1223889D01*
X3830706Y-1223889D02*
X3840229Y-1242936D01*
X3840229Y-1242936D02*
X3849753Y-1252460D01*
X3849753Y-1252460D02*
X3868801Y-1261984D01*
X3868801Y-1261984D02*
X3906896Y-1261984D01*
X3906896Y-1261984D02*
X3925944Y-1252460D01*
X3925944Y-1252460D02*
X3935468Y-1242936D01*
X3935468Y-1242936D02*
X3944991Y-1223889D01*
X3944991Y-1223889D02*
X3944991Y-1185793D01*
X3944991Y-1185793D02*
X3935468Y-1166746D01*
X3935468Y-1166746D02*
X3925944Y-1157222D01*
X3925944Y-1157222D02*
X3906896Y-1147698D01*
X4183087Y-1261984D02*
X4183087Y-1061984D01*
X4268801Y-1261984D02*
X4268801Y-1157222D01*
X4268801Y-1157222D02*
X4259277Y-1138174D01*
X4259277Y-1138174D02*
X4240230Y-1128650D01*
X4240230Y-1128650D02*
X4211658Y-1128650D01*
X4211658Y-1128650D02*
X4192610Y-1138174D01*
X4192610Y-1138174D02*
X4183087Y-1147698D01*
X4392611Y-1261984D02*
X4373563Y-1252460D01*
X4373563Y-1252460D02*
X4364039Y-1242936D01*
X4364039Y-1242936D02*
X4354515Y-1223889D01*
X4354515Y-1223889D02*
X4354515Y-1166746D01*
X4354515Y-1166746D02*
X4364039Y-1147698D01*
X4364039Y-1147698D02*
X4373563Y-1138174D01*
X4373563Y-1138174D02*
X4392611Y-1128650D01*
X4392611Y-1128650D02*
X4421182Y-1128650D01*
X4421182Y-1128650D02*
X4440230Y-1138174D01*
X4440230Y-1138174D02*
X4449753Y-1147698D01*
X4449753Y-1147698D02*
X4459277Y-1166746D01*
X4459277Y-1166746D02*
X4459277Y-1223889D01*
X4459277Y-1223889D02*
X4449753Y-1242936D01*
X4449753Y-1242936D02*
X4440230Y-1252460D01*
X4440230Y-1252460D02*
X4421182Y-1261984D01*
X4421182Y-1261984D02*
X4392611Y-1261984D01*
X4573563Y-1261984D02*
X4554515Y-1252460D01*
X4554515Y-1252460D02*
X4544992Y-1233412D01*
X4544992Y-1233412D02*
X4544992Y-1061984D01*
X4725944Y-1252460D02*
X4706896Y-1261984D01*
X4706896Y-1261984D02*
X4668801Y-1261984D01*
X4668801Y-1261984D02*
X4649753Y-1252460D01*
X4649753Y-1252460D02*
X4640230Y-1233412D01*
X4640230Y-1233412D02*
X4640230Y-1157222D01*
X4640230Y-1157222D02*
X4649753Y-1138174D01*
X4649753Y-1138174D02*
X4668801Y-1128650D01*
X4668801Y-1128650D02*
X4706896Y-1128650D01*
X4706896Y-1128650D02*
X4725944Y-1138174D01*
X4725944Y-1138174D02*
X4735468Y-1157222D01*
X4735468Y-1157222D02*
X4735468Y-1176270D01*
X4735468Y-1176270D02*
X4640230Y-1195317D01*
X4811658Y-1252460D02*
X4830706Y-1261984D01*
X4830706Y-1261984D02*
X4868801Y-1261984D01*
X4868801Y-1261984D02*
X4887849Y-1252460D01*
X4887849Y-1252460D02*
X4897373Y-1233412D01*
X4897373Y-1233412D02*
X4897373Y-1223889D01*
X4897373Y-1223889D02*
X4887849Y-1204841D01*
X4887849Y-1204841D02*
X4868801Y-1195317D01*
X4868801Y-1195317D02*
X4840230Y-1195317D01*
X4840230Y-1195317D02*
X4821182Y-1185793D01*
X4821182Y-1185793D02*
X4811658Y-1166746D01*
X4811658Y-1166746D02*
X4811658Y-1157222D01*
X4811658Y-1157222D02*
X4821182Y-1138174D01*
X4821182Y-1138174D02*
X4840230Y-1128650D01*
X4840230Y-1128650D02*
X4868801Y-1128650D01*
X4868801Y-1128650D02*
X4887849Y-1138174D01*
X4964039Y-1338174D02*
X4973563Y-1328650D01*
X4973563Y-1328650D02*
X4992611Y-1300079D01*
X4992611Y-1300079D02*
X5002134Y-1281031D01*
X5002134Y-1281031D02*
X5011658Y-1252460D01*
X5011658Y-1252460D02*
X5021182Y-1204841D01*
X5021182Y-1204841D02*
X5021182Y-1166746D01*
X5021182Y-1166746D02*
X5011658Y-1119127D01*
X5011658Y-1119127D02*
X5002134Y-1090555D01*
X5002134Y-1090555D02*
X4992611Y-1071508D01*
X4992611Y-1071508D02*
X4973563Y-1042936D01*
X4973563Y-1042936D02*
X4964039Y-1033412D01*
D14*
X-27567Y-1497433D02*
X-27567Y-1371567D01*
X-153433Y-1371567D01*
X-153433Y-1497433D01*
X-27567Y-1497433D01*
D11*
X364039Y-1525984D02*
X249753Y-1525984D01*
X306896Y-1525984D02*
X306896Y-1325984D01*
X306896Y-1325984D02*
X287848Y-1354555D01*
X287848Y-1354555D02*
X268801Y-1373603D01*
X268801Y-1373603D02*
X249753Y-1383127D01*
X449753Y-1506936D02*
X459277Y-1516460D01*
X459277Y-1516460D02*
X449753Y-1525984D01*
X449753Y-1525984D02*
X440229Y-1516460D01*
X440229Y-1516460D02*
X449753Y-1506936D01*
X449753Y-1506936D02*
X449753Y-1525984D01*
X525944Y-1325984D02*
X659277Y-1325984D01*
X659277Y-1325984D02*
X573563Y-1525984D01*
X764039Y-1411698D02*
X744991Y-1402174D01*
X744991Y-1402174D02*
X735467Y-1392650D01*
X735467Y-1392650D02*
X725943Y-1373603D01*
X725943Y-1373603D02*
X725943Y-1364079D01*
X725943Y-1364079D02*
X735467Y-1345031D01*
X735467Y-1345031D02*
X744991Y-1335508D01*
X744991Y-1335508D02*
X764039Y-1325984D01*
X764039Y-1325984D02*
X802134Y-1325984D01*
X802134Y-1325984D02*
X821182Y-1335508D01*
X821182Y-1335508D02*
X830705Y-1345031D01*
X830705Y-1345031D02*
X840229Y-1364079D01*
X840229Y-1364079D02*
X840229Y-1373603D01*
X840229Y-1373603D02*
X830705Y-1392650D01*
X830705Y-1392650D02*
X821182Y-1402174D01*
X821182Y-1402174D02*
X802134Y-1411698D01*
X802134Y-1411698D02*
X764039Y-1411698D01*
X764039Y-1411698D02*
X744991Y-1421222D01*
X744991Y-1421222D02*
X735467Y-1430746D01*
X735467Y-1430746D02*
X725943Y-1449793D01*
X725943Y-1449793D02*
X725943Y-1487888D01*
X725943Y-1487888D02*
X735467Y-1506936D01*
X735467Y-1506936D02*
X744991Y-1516460D01*
X744991Y-1516460D02*
X764039Y-1525984D01*
X764039Y-1525984D02*
X802134Y-1525984D01*
X802134Y-1525984D02*
X821182Y-1516460D01*
X821182Y-1516460D02*
X830705Y-1506936D01*
X830705Y-1506936D02*
X840229Y-1487888D01*
X840229Y-1487888D02*
X840229Y-1449793D01*
X840229Y-1449793D02*
X830705Y-1430746D01*
X830705Y-1430746D02*
X821182Y-1421222D01*
X821182Y-1421222D02*
X802134Y-1411698D01*
X964039Y-1325984D02*
X983086Y-1325984D01*
X983086Y-1325984D02*
X1002134Y-1335508D01*
X1002134Y-1335508D02*
X1011658Y-1345031D01*
X1011658Y-1345031D02*
X1021182Y-1364079D01*
X1021182Y-1364079D02*
X1030705Y-1402174D01*
X1030705Y-1402174D02*
X1030705Y-1449793D01*
X1030705Y-1449793D02*
X1021182Y-1487888D01*
X1021182Y-1487888D02*
X1011658Y-1506936D01*
X1011658Y-1506936D02*
X1002134Y-1516460D01*
X1002134Y-1516460D02*
X983086Y-1525984D01*
X983086Y-1525984D02*
X964039Y-1525984D01*
X964039Y-1525984D02*
X944991Y-1516460D01*
X944991Y-1516460D02*
X935467Y-1506936D01*
X935467Y-1506936D02*
X925943Y-1487888D01*
X925943Y-1487888D02*
X916420Y-1449793D01*
X916420Y-1449793D02*
X916420Y-1402174D01*
X916420Y-1402174D02*
X925943Y-1364079D01*
X925943Y-1364079D02*
X935467Y-1345031D01*
X935467Y-1345031D02*
X944991Y-1335508D01*
X944991Y-1335508D02*
X964039Y-1325984D01*
X1116420Y-1525984D02*
X1116420Y-1392650D01*
X1116420Y-1411698D02*
X1125944Y-1402174D01*
X1125944Y-1402174D02*
X1144991Y-1392650D01*
X1144991Y-1392650D02*
X1173563Y-1392650D01*
X1173563Y-1392650D02*
X1192610Y-1402174D01*
X1192610Y-1402174D02*
X1202134Y-1421222D01*
X1202134Y-1421222D02*
X1202134Y-1525984D01*
X1202134Y-1421222D02*
X1211658Y-1402174D01*
X1211658Y-1402174D02*
X1230705Y-1392650D01*
X1230705Y-1392650D02*
X1259277Y-1392650D01*
X1259277Y-1392650D02*
X1278325Y-1402174D01*
X1278325Y-1402174D02*
X1287848Y-1421222D01*
X1287848Y-1421222D02*
X1287848Y-1525984D01*
X1383086Y-1525984D02*
X1383086Y-1392650D01*
X1383086Y-1411698D02*
X1392610Y-1402174D01*
X1392610Y-1402174D02*
X1411658Y-1392650D01*
X1411658Y-1392650D02*
X1440229Y-1392650D01*
X1440229Y-1392650D02*
X1459277Y-1402174D01*
X1459277Y-1402174D02*
X1468801Y-1421222D01*
X1468801Y-1421222D02*
X1468801Y-1525984D01*
X1468801Y-1421222D02*
X1478324Y-1402174D01*
X1478324Y-1402174D02*
X1497372Y-1392650D01*
X1497372Y-1392650D02*
X1525943Y-1392650D01*
X1525943Y-1392650D02*
X1544991Y-1402174D01*
X1544991Y-1402174D02*
X1554515Y-1421222D01*
X1554515Y-1421222D02*
X1554515Y-1525984D01*
X1944991Y-1316460D02*
X1773563Y-1573603D01*
X2202134Y-1325984D02*
X2221182Y-1325984D01*
X2221182Y-1325984D02*
X2240229Y-1335508D01*
X2240229Y-1335508D02*
X2249753Y-1345031D01*
X2249753Y-1345031D02*
X2259277Y-1364079D01*
X2259277Y-1364079D02*
X2268801Y-1402174D01*
X2268801Y-1402174D02*
X2268801Y-1449793D01*
X2268801Y-1449793D02*
X2259277Y-1487888D01*
X2259277Y-1487888D02*
X2249753Y-1506936D01*
X2249753Y-1506936D02*
X2240229Y-1516460D01*
X2240229Y-1516460D02*
X2221182Y-1525984D01*
X2221182Y-1525984D02*
X2202134Y-1525984D01*
X2202134Y-1525984D02*
X2183087Y-1516460D01*
X2183087Y-1516460D02*
X2173563Y-1506936D01*
X2173563Y-1506936D02*
X2164039Y-1487888D01*
X2164039Y-1487888D02*
X2154515Y-1449793D01*
X2154515Y-1449793D02*
X2154515Y-1402174D01*
X2154515Y-1402174D02*
X2164039Y-1364079D01*
X2164039Y-1364079D02*
X2173563Y-1345031D01*
X2173563Y-1345031D02*
X2183087Y-1335508D01*
X2183087Y-1335508D02*
X2202134Y-1325984D01*
X2354515Y-1506936D02*
X2364039Y-1516460D01*
X2364039Y-1516460D02*
X2354515Y-1525984D01*
X2354515Y-1525984D02*
X2344991Y-1516460D01*
X2344991Y-1516460D02*
X2354515Y-1506936D01*
X2354515Y-1506936D02*
X2354515Y-1525984D01*
X2487848Y-1325984D02*
X2506896Y-1325984D01*
X2506896Y-1325984D02*
X2525944Y-1335508D01*
X2525944Y-1335508D02*
X2535468Y-1345031D01*
X2535468Y-1345031D02*
X2544991Y-1364079D01*
X2544991Y-1364079D02*
X2554515Y-1402174D01*
X2554515Y-1402174D02*
X2554515Y-1449793D01*
X2554515Y-1449793D02*
X2544991Y-1487888D01*
X2544991Y-1487888D02*
X2535468Y-1506936D01*
X2535468Y-1506936D02*
X2525944Y-1516460D01*
X2525944Y-1516460D02*
X2506896Y-1525984D01*
X2506896Y-1525984D02*
X2487848Y-1525984D01*
X2487848Y-1525984D02*
X2468801Y-1516460D01*
X2468801Y-1516460D02*
X2459277Y-1506936D01*
X2459277Y-1506936D02*
X2449753Y-1487888D01*
X2449753Y-1487888D02*
X2440229Y-1449793D01*
X2440229Y-1449793D02*
X2440229Y-1402174D01*
X2440229Y-1402174D02*
X2449753Y-1364079D01*
X2449753Y-1364079D02*
X2459277Y-1345031D01*
X2459277Y-1345031D02*
X2468801Y-1335508D01*
X2468801Y-1335508D02*
X2487848Y-1325984D01*
X2621182Y-1325984D02*
X2754515Y-1325984D01*
X2754515Y-1325984D02*
X2668801Y-1525984D01*
X2868801Y-1325984D02*
X2887848Y-1325984D01*
X2887848Y-1325984D02*
X2906896Y-1335508D01*
X2906896Y-1335508D02*
X2916420Y-1345031D01*
X2916420Y-1345031D02*
X2925944Y-1364079D01*
X2925944Y-1364079D02*
X2935467Y-1402174D01*
X2935467Y-1402174D02*
X2935467Y-1449793D01*
X2935467Y-1449793D02*
X2925944Y-1487888D01*
X2925944Y-1487888D02*
X2916420Y-1506936D01*
X2916420Y-1506936D02*
X2906896Y-1516460D01*
X2906896Y-1516460D02*
X2887848Y-1525984D01*
X2887848Y-1525984D02*
X2868801Y-1525984D01*
X2868801Y-1525984D02*
X2849753Y-1516460D01*
X2849753Y-1516460D02*
X2840229Y-1506936D01*
X2840229Y-1506936D02*
X2830706Y-1487888D01*
X2830706Y-1487888D02*
X2821182Y-1449793D01*
X2821182Y-1449793D02*
X2821182Y-1402174D01*
X2821182Y-1402174D02*
X2830706Y-1364079D01*
X2830706Y-1364079D02*
X2840229Y-1345031D01*
X2840229Y-1345031D02*
X2849753Y-1335508D01*
X2849753Y-1335508D02*
X2868801Y-1325984D01*
X3125944Y-1525984D02*
X3011658Y-1525984D01*
X3068801Y-1525984D02*
X3068801Y-1325984D01*
X3068801Y-1325984D02*
X3049753Y-1354555D01*
X3049753Y-1354555D02*
X3030706Y-1373603D01*
X3030706Y-1373603D02*
X3011658Y-1383127D01*
X3202134Y-1325984D02*
X3202134Y-1364079D01*
X3278325Y-1325984D02*
X3278325Y-1364079D01*
X3573563Y-1602174D02*
X3564039Y-1592650D01*
X3564039Y-1592650D02*
X3544991Y-1564079D01*
X3544991Y-1564079D02*
X3535468Y-1545031D01*
X3535468Y-1545031D02*
X3525944Y-1516460D01*
X3525944Y-1516460D02*
X3516420Y-1468841D01*
X3516420Y-1468841D02*
X3516420Y-1430746D01*
X3516420Y-1430746D02*
X3525944Y-1383127D01*
X3525944Y-1383127D02*
X3535468Y-1354555D01*
X3535468Y-1354555D02*
X3544991Y-1335508D01*
X3544991Y-1335508D02*
X3564039Y-1306936D01*
X3564039Y-1306936D02*
X3573563Y-1297412D01*
X3754515Y-1525984D02*
X3640229Y-1525984D01*
X3697372Y-1525984D02*
X3697372Y-1325984D01*
X3697372Y-1325984D02*
X3678325Y-1354555D01*
X3678325Y-1354555D02*
X3659277Y-1373603D01*
X3659277Y-1373603D02*
X3640229Y-1383127D01*
X3925944Y-1325984D02*
X3887848Y-1325984D01*
X3887848Y-1325984D02*
X3868801Y-1335508D01*
X3868801Y-1335508D02*
X3859277Y-1345031D01*
X3859277Y-1345031D02*
X3840229Y-1373603D01*
X3840229Y-1373603D02*
X3830706Y-1411698D01*
X3830706Y-1411698D02*
X3830706Y-1487888D01*
X3830706Y-1487888D02*
X3840229Y-1506936D01*
X3840229Y-1506936D02*
X3849753Y-1516460D01*
X3849753Y-1516460D02*
X3868801Y-1525984D01*
X3868801Y-1525984D02*
X3906896Y-1525984D01*
X3906896Y-1525984D02*
X3925944Y-1516460D01*
X3925944Y-1516460D02*
X3935468Y-1506936D01*
X3935468Y-1506936D02*
X3944991Y-1487888D01*
X3944991Y-1487888D02*
X3944991Y-1440269D01*
X3944991Y-1440269D02*
X3935468Y-1421222D01*
X3935468Y-1421222D02*
X3925944Y-1411698D01*
X3925944Y-1411698D02*
X3906896Y-1402174D01*
X3906896Y-1402174D02*
X3868801Y-1402174D01*
X3868801Y-1402174D02*
X3849753Y-1411698D01*
X3849753Y-1411698D02*
X3840229Y-1421222D01*
X3840229Y-1421222D02*
X3830706Y-1440269D01*
X4183087Y-1525984D02*
X4183087Y-1325984D01*
X4268801Y-1525984D02*
X4268801Y-1421222D01*
X4268801Y-1421222D02*
X4259277Y-1402174D01*
X4259277Y-1402174D02*
X4240230Y-1392650D01*
X4240230Y-1392650D02*
X4211658Y-1392650D01*
X4211658Y-1392650D02*
X4192610Y-1402174D01*
X4192610Y-1402174D02*
X4183087Y-1411698D01*
X4392611Y-1525984D02*
X4373563Y-1516460D01*
X4373563Y-1516460D02*
X4364039Y-1506936D01*
X4364039Y-1506936D02*
X4354515Y-1487888D01*
X4354515Y-1487888D02*
X4354515Y-1430746D01*
X4354515Y-1430746D02*
X4364039Y-1411698D01*
X4364039Y-1411698D02*
X4373563Y-1402174D01*
X4373563Y-1402174D02*
X4392611Y-1392650D01*
X4392611Y-1392650D02*
X4421182Y-1392650D01*
X4421182Y-1392650D02*
X4440230Y-1402174D01*
X4440230Y-1402174D02*
X4449753Y-1411698D01*
X4449753Y-1411698D02*
X4459277Y-1430746D01*
X4459277Y-1430746D02*
X4459277Y-1487888D01*
X4459277Y-1487888D02*
X4449753Y-1506936D01*
X4449753Y-1506936D02*
X4440230Y-1516460D01*
X4440230Y-1516460D02*
X4421182Y-1525984D01*
X4421182Y-1525984D02*
X4392611Y-1525984D01*
X4573563Y-1525984D02*
X4554515Y-1516460D01*
X4554515Y-1516460D02*
X4544992Y-1497412D01*
X4544992Y-1497412D02*
X4544992Y-1325984D01*
X4725944Y-1516460D02*
X4706896Y-1525984D01*
X4706896Y-1525984D02*
X4668801Y-1525984D01*
X4668801Y-1525984D02*
X4649753Y-1516460D01*
X4649753Y-1516460D02*
X4640230Y-1497412D01*
X4640230Y-1497412D02*
X4640230Y-1421222D01*
X4640230Y-1421222D02*
X4649753Y-1402174D01*
X4649753Y-1402174D02*
X4668801Y-1392650D01*
X4668801Y-1392650D02*
X4706896Y-1392650D01*
X4706896Y-1392650D02*
X4725944Y-1402174D01*
X4725944Y-1402174D02*
X4735468Y-1421222D01*
X4735468Y-1421222D02*
X4735468Y-1440269D01*
X4735468Y-1440269D02*
X4640230Y-1459317D01*
X4811658Y-1516460D02*
X4830706Y-1525984D01*
X4830706Y-1525984D02*
X4868801Y-1525984D01*
X4868801Y-1525984D02*
X4887849Y-1516460D01*
X4887849Y-1516460D02*
X4897373Y-1497412D01*
X4897373Y-1497412D02*
X4897373Y-1487888D01*
X4897373Y-1487888D02*
X4887849Y-1468841D01*
X4887849Y-1468841D02*
X4868801Y-1459317D01*
X4868801Y-1459317D02*
X4840230Y-1459317D01*
X4840230Y-1459317D02*
X4821182Y-1449793D01*
X4821182Y-1449793D02*
X4811658Y-1430746D01*
X4811658Y-1430746D02*
X4811658Y-1421222D01*
X4811658Y-1421222D02*
X4821182Y-1402174D01*
X4821182Y-1402174D02*
X4840230Y-1392650D01*
X4840230Y-1392650D02*
X4868801Y-1392650D01*
X4868801Y-1392650D02*
X4887849Y-1402174D01*
X4964039Y-1602174D02*
X4973563Y-1592650D01*
X4973563Y-1592650D02*
X4992611Y-1564079D01*
X4992611Y-1564079D02*
X5002134Y-1545031D01*
X5002134Y-1545031D02*
X5011658Y-1516460D01*
X5011658Y-1516460D02*
X5021182Y-1468841D01*
X5021182Y-1468841D02*
X5021182Y-1430746D01*
X5021182Y-1430746D02*
X5011658Y-1383127D01*
X5011658Y-1383127D02*
X5002134Y-1354555D01*
X5002134Y-1354555D02*
X4992611Y-1335508D01*
X4992611Y-1335508D02*
X4973563Y-1306936D01*
X4973563Y-1306936D02*
X4964039Y-1297412D01*
M02*
