%TF.GenerationSoftware,KiCad,Pcbnew,9.0.5*%
%TF.CreationDate,2025-10-09T03:15:35-06:00*%
%TF.ProjectId,PropController,50726f70-436f-46e7-9472-6f6c6c65722e,1.0*%
%TF.SameCoordinates,PX5dc1770PY781d830*%
%TF.FileFunction,Legend,Bot*%
%TF.FilePolarity,Positive*%
%FSLAX46Y46*%
G04 Gerber Fmt 4.6, Leading zero omitted, Abs format (unit mm)*
G04 Created by KiCad (PCBNEW 9.0.5) date 2025-10-09 03:15:35*
%MOMM*%
%LPD*%
G01*
G04 APERTURE LIST*
%ADD10C,0.000000*%
G04 APERTURE END LIST*
D10*
%TO.C,G\u002A\u002A\u002A*%
G36*
X88216189Y17077764D02*
G01*
X88216189Y16823553D01*
X87961977Y16823553D01*
X87707765Y16823553D01*
X87707765Y17077764D01*
X87707765Y17331976D01*
X87961977Y17331976D01*
X88216189Y17331976D01*
X88216189Y17077764D01*
G37*
G36*
X89460767Y16331689D02*
G01*
X89709683Y16325721D01*
X89715652Y16076805D01*
X89721620Y15827890D01*
X89466736Y15827890D01*
X89211852Y15827890D01*
X89211852Y16082774D01*
X89211852Y16337658D01*
X89460767Y16331689D01*
G37*
G36*
X90207515Y17077764D02*
G01*
X90207515Y16823553D01*
X89963895Y16823553D01*
X89720275Y16823553D01*
X89720275Y17077764D01*
X89720275Y17331976D01*
X89963895Y17331976D01*
X90207515Y17331976D01*
X90207515Y17077764D01*
G37*
G36*
X91203178Y16823553D02*
G01*
X91203178Y15827890D01*
X90959558Y15827890D01*
X90715938Y15827890D01*
X90715938Y16823553D01*
X90715938Y17819216D01*
X90959558Y17819216D01*
X91203178Y17819216D01*
X91203178Y16823553D01*
G37*
G36*
X86224863Y18571259D02*
G01*
X86224863Y17819216D01*
X86468482Y17819216D01*
X86712102Y17819216D01*
X86712102Y16823553D01*
X86712102Y15827890D01*
X86468482Y15827890D01*
X86224863Y15827890D01*
X86224863Y16822880D01*
X86224863Y17817871D01*
X85975947Y17823839D01*
X85727031Y17829808D01*
X85721464Y18576555D01*
X85715897Y19323302D01*
X85970380Y19323302D01*
X86224863Y19323302D01*
X86224863Y18571259D01*
G37*
G36*
X84869066Y20583484D02*
G01*
X84869066Y20339579D01*
X84164687Y20345160D01*
X83460309Y20350742D01*
X83454319Y20589066D01*
X83451524Y20700283D01*
X83598007Y20700283D01*
X83598007Y20583769D01*
X83598007Y20467256D01*
X84169983Y20467256D01*
X84741960Y20467256D01*
X84741960Y20583769D01*
X84741960Y20700283D01*
X84169983Y20700283D01*
X83598007Y20700283D01*
X83451524Y20700283D01*
X83448329Y20827389D01*
X84158698Y20827389D01*
X84869066Y20827389D01*
X84869066Y20700283D01*
X84869066Y20583484D01*
G37*
G36*
X84678407Y19630475D02*
G01*
X84678407Y19386855D01*
X84159391Y19386855D01*
X83640375Y19386855D01*
X83640375Y19630475D01*
X83640375Y19768173D01*
X83788666Y19768173D01*
X83788666Y19641067D01*
X83788666Y19513961D01*
X84169983Y19513961D01*
X84551301Y19513961D01*
X84551301Y19641067D01*
X84551301Y19768173D01*
X84169983Y19768173D01*
X83788666Y19768173D01*
X83640375Y19768173D01*
X83640375Y19874095D01*
X84159391Y19874095D01*
X84678407Y19874095D01*
X84678407Y19768173D01*
X84678407Y19630475D01*
G37*
G36*
X83656080Y17728339D02*
G01*
X83693153Y17705456D01*
X83705503Y17695560D01*
X83715573Y17678192D01*
X83709051Y17652893D01*
X83682795Y17611161D01*
X83633663Y17544493D01*
X83577269Y17466767D01*
X83511613Y17371316D01*
X83457056Y17287112D01*
X83445022Y17267702D01*
X83407570Y17210679D01*
X83381986Y17182797D01*
X83360763Y17178037D01*
X83336393Y17190380D01*
X83307827Y17212969D01*
X83286130Y17240166D01*
X83288443Y17256711D01*
X83310631Y17303809D01*
X83350309Y17370402D01*
X83401814Y17448546D01*
X83459483Y17530297D01*
X83517651Y17607710D01*
X83570656Y17672841D01*
X83612834Y17717745D01*
X83638521Y17734478D01*
X83656080Y17728339D01*
G37*
G36*
X84241025Y21336993D02*
G01*
X84258887Y21330017D01*
X84283854Y21314159D01*
X84284926Y21288422D01*
X84265747Y21238255D01*
X84259889Y21223924D01*
X84241108Y21172635D01*
X84233536Y21142567D01*
X84241767Y21139200D01*
X84285755Y21134300D01*
X84362560Y21130108D01*
X84466331Y21126844D01*
X84591217Y21124725D01*
X84731368Y21123970D01*
X85229199Y21123970D01*
X85229199Y21060417D01*
X85229199Y20996864D01*
X84169983Y20996864D01*
X83110767Y20996864D01*
X83110767Y21060417D01*
X83110767Y21123970D01*
X83604205Y21123970D01*
X84097643Y21123970D01*
X84122715Y21214003D01*
X84126610Y21227847D01*
X84149935Y21299398D01*
X84172510Y21337002D01*
X84200739Y21347315D01*
X84241025Y21336993D01*
G37*
G36*
X84122885Y18407081D02*
G01*
X84128747Y18094612D01*
X84467130Y18094612D01*
X84805513Y18094612D01*
X84805513Y18031059D01*
X84805513Y17967506D01*
X84466564Y17967506D01*
X84127615Y17967506D01*
X84127615Y17480267D01*
X84127615Y16993027D01*
X84540709Y16993027D01*
X84953803Y16993027D01*
X84953803Y16929474D01*
X84953803Y16865921D01*
X84011101Y16865921D01*
X83068399Y16865921D01*
X83068399Y16929474D01*
X83068399Y16993027D01*
X83523862Y16993027D01*
X83979325Y16993027D01*
X83979325Y17480267D01*
X83979325Y17967506D01*
X83608599Y17967506D01*
X83237873Y17967506D01*
X83237873Y18031059D01*
X83237873Y18094612D01*
X83608033Y18094612D01*
X83978192Y18094612D01*
X83984054Y18407081D01*
X83989917Y18719549D01*
X84053470Y18719549D01*
X84117023Y18719549D01*
X84122885Y18407081D01*
G37*
G36*
X86224863Y14578015D02*
G01*
X86224863Y13328140D01*
X88470400Y13328140D01*
X90715938Y13328140D01*
X90715938Y14334395D01*
X90715938Y15340650D01*
X90959558Y15340650D01*
X91203178Y15340650D01*
X91203178Y14334395D01*
X91203178Y13328140D01*
X90959558Y13328140D01*
X90715938Y13328140D01*
X90715938Y13084520D01*
X90715938Y12840900D01*
X88470400Y12840900D01*
X86224863Y12840900D01*
X86224863Y13083848D01*
X86224863Y13326795D01*
X85975947Y13332764D01*
X85727031Y13338732D01*
X85721566Y14583311D01*
X85716100Y15827890D01*
X85970481Y15827890D01*
X86224863Y15827890D01*
X86224863Y14578015D01*
G37*
G36*
X90715938Y15584270D02*
G01*
X90715938Y15340650D01*
X90461727Y15340650D01*
X90207515Y15340650D01*
X90207515Y15584270D01*
X90207515Y15827890D01*
X90461727Y15827890D01*
X90715938Y15827890D01*
X90715938Y15584270D01*
G37*
G36*
X85086684Y18216422D02*
G01*
X85086966Y18194375D01*
X85090110Y17979426D01*
X85093883Y17800990D01*
X85098894Y17653709D01*
X85105751Y17532228D01*
X85115063Y17431187D01*
X85127438Y17345231D01*
X85143485Y17269001D01*
X85163812Y17197141D01*
X85189029Y17124294D01*
X85219742Y17045102D01*
X85277001Y16901978D01*
X85227212Y16864422D01*
X85188111Y16840855D01*
X85162331Y16836194D01*
X85158849Y16840182D01*
X85140695Y16874607D01*
X85113835Y16935447D01*
X85082713Y17012843D01*
X85056137Y17084939D01*
X85026988Y17176509D01*
X85003777Y17269903D01*
X84985872Y17370909D01*
X84972641Y17485317D01*
X84963451Y17618913D01*
X84957670Y17777486D01*
X84954664Y17966824D01*
X84953803Y18192716D01*
X84953803Y18836063D01*
X84011101Y18836063D01*
X83068399Y18836063D01*
X83068399Y18899616D01*
X83068399Y18963169D01*
X84072801Y18963169D01*
X85077203Y18963169D01*
X85086684Y18216422D01*
G37*
G36*
X85123278Y19651659D02*
G01*
X85123278Y19132644D01*
X85049133Y19132644D01*
X84974988Y19132644D01*
X84974988Y19588106D01*
X84974988Y20043569D01*
X84159391Y20043569D01*
X83343795Y20043569D01*
X83343795Y19677081D01*
X83344029Y19603682D01*
X83346304Y19469251D01*
X83351142Y19373174D01*
X83358720Y19312724D01*
X83369216Y19285171D01*
X83391660Y19274428D01*
X83447687Y19263837D01*
X83519977Y19259749D01*
X83522423Y19259749D01*
X83590804Y19258643D01*
X83626000Y19252850D01*
X83636936Y19238591D01*
X83632543Y19212085D01*
X83624759Y19179527D01*
X83619480Y19146216D01*
X83618544Y19144332D01*
X83591453Y19137424D01*
X83534521Y19134484D01*
X83458010Y19136152D01*
X83452836Y19136412D01*
X83381350Y19140539D01*
X83325972Y19148139D01*
X83284646Y19164073D01*
X83255317Y19193204D01*
X83235930Y19240393D01*
X83224429Y19310502D01*
X83218759Y19408393D01*
X83216864Y19538927D01*
X83216689Y19706967D01*
X83216689Y20170675D01*
X84169983Y20170675D01*
X85123278Y20170675D01*
X85123278Y19651659D01*
G37*
G36*
X83533740Y13153369D02*
G01*
X83533700Y13143535D01*
X83527866Y12913055D01*
X83513088Y12708529D01*
X83489905Y12533148D01*
X83458855Y12390101D01*
X83420476Y12282579D01*
X83375305Y12213771D01*
X83367545Y12206096D01*
X83324524Y12171763D01*
X83285023Y12166639D01*
X83229299Y12187122D01*
X83225263Y12189067D01*
X83170596Y12239261D01*
X83123984Y12329087D01*
X83086213Y12456564D01*
X83058066Y12619709D01*
X83052782Y12665791D01*
X83053161Y12709683D01*
X83067408Y12733991D01*
X83099742Y12752111D01*
X83119159Y12760873D01*
X83157256Y12774618D01*
X83171917Y12766589D01*
X83174320Y12734086D01*
X83174500Y12726769D01*
X83180860Y12670580D01*
X83194300Y12594490D01*
X83212043Y12510844D01*
X83231317Y12431985D01*
X83249344Y12370257D01*
X83263352Y12338006D01*
X83275975Y12326654D01*
X83302182Y12322351D01*
X83309290Y12329235D01*
X83329707Y12375399D01*
X83349280Y12456005D01*
X83367147Y12565164D01*
X83382449Y12696988D01*
X83394325Y12845589D01*
X83401916Y13005079D01*
X83413490Y13370508D01*
X83473972Y13370508D01*
X83534454Y13370508D01*
X83533740Y13153369D01*
G37*
G36*
X84173680Y16693568D02*
G01*
X84210826Y16650294D01*
X84374581Y16457387D01*
X84599050Y16241418D01*
X84849857Y16050678D01*
X85133870Y15879431D01*
X85152551Y15869334D01*
X85220176Y15832428D01*
X85269730Y15804829D01*
X85291576Y15791888D01*
X85291980Y15791464D01*
X85283830Y15771893D01*
X85254086Y15737440D01*
X85207182Y15690535D01*
X85096381Y15751456D01*
X84956779Y15832895D01*
X84740855Y15976287D01*
X84538270Y16131274D01*
X84363062Y16287591D01*
X84159540Y16486859D01*
X84097496Y16406290D01*
X83946036Y16235233D01*
X83760575Y16068611D01*
X83549551Y15913306D01*
X83321337Y15776115D01*
X83142544Y15679951D01*
X83105471Y15724491D01*
X83080589Y15758104D01*
X83068399Y15783321D01*
X83068963Y15784868D01*
X83092244Y15802917D01*
X83142855Y15832442D01*
X83211393Y15867885D01*
X83305029Y15916575D01*
X83570018Y16085572D01*
X83812384Y16288539D01*
X83874859Y16349487D01*
X83975277Y16456079D01*
X84040903Y16540208D01*
X84071536Y16601598D01*
X84066978Y16639972D01*
X84060804Y16648658D01*
X84062336Y16671427D01*
X84099774Y16694385D01*
X84110787Y16699253D01*
X84145371Y16707888D01*
X84173680Y16693568D01*
G37*
G36*
X91457390Y19323302D02*
G01*
X91711601Y19323302D01*
X91711601Y18571259D01*
X91711601Y17819216D01*
X91457390Y17819216D01*
X91203178Y17819216D01*
X91203178Y18571259D01*
X91203178Y19323302D01*
X91457390Y19323302D01*
G37*
G36*
X91203178Y19577905D02*
G01*
X91203178Y19323302D01*
X90705346Y19323302D01*
X90207515Y19323302D01*
X90207515Y19069091D01*
X90207515Y18814879D01*
X89963895Y18814879D01*
X89720275Y18814879D01*
X89720275Y18571259D01*
X89720275Y18327639D01*
X88968232Y18327639D01*
X88216189Y18327639D01*
X88216189Y18570587D01*
X88216189Y18813534D01*
X87967273Y18819503D01*
X87718357Y18825471D01*
X87712389Y19074387D01*
X87706420Y19323302D01*
X86965641Y19323302D01*
X86224863Y19323302D01*
X86224863Y19577514D01*
X86224863Y19831726D01*
X86966314Y19831726D01*
X87707765Y19831726D01*
X87707765Y19577514D01*
X87707765Y19323302D01*
X87961977Y19323302D01*
X88216189Y19323302D01*
X88216189Y19069091D01*
X88216189Y18814879D01*
X88968232Y18814879D01*
X89720275Y18814879D01*
X89720275Y19069091D01*
X89720275Y19323302D01*
X89963223Y19323302D01*
X90206170Y19323302D01*
X90212139Y19572218D01*
X90218107Y19821134D01*
X90710642Y19826820D01*
X91203178Y19832507D01*
X91203178Y19577905D01*
G37*
G36*
X84254721Y12855729D02*
G01*
X84254721Y12851771D01*
X84255691Y12671674D01*
X84258473Y12526458D01*
X84262989Y12417989D01*
X84269164Y12348132D01*
X84276919Y12318752D01*
X84287743Y12292644D01*
X84273519Y12240370D01*
X84245455Y12201731D01*
X84209981Y12184187D01*
X84203771Y12184787D01*
X84160207Y12194818D01*
X84089120Y12214836D01*
X84000127Y12241760D01*
X83902848Y12272510D01*
X83806903Y12304003D01*
X83721910Y12333159D01*
X83657489Y12356895D01*
X83623259Y12372132D01*
X83608212Y12391998D01*
X83609164Y12443698D01*
X83622777Y12497940D01*
X83836990Y12425801D01*
X83937149Y12392080D01*
X84021000Y12366391D01*
X84075799Y12357372D01*
X84107704Y12367311D01*
X84122870Y12398491D01*
X84127455Y12453202D01*
X84127615Y12533728D01*
X84127615Y12713795D01*
X83882588Y12713795D01*
X83637561Y12713795D01*
X83644264Y12772051D01*
X83650968Y12830308D01*
X83889291Y12836298D01*
X84127615Y12842288D01*
X84127615Y12958108D01*
X84127615Y13073928D01*
X83882588Y13073928D01*
X83637561Y13073928D01*
X83644264Y13132185D01*
X83650968Y13190442D01*
X83889291Y13196432D01*
X84127615Y13202421D01*
X84127615Y13286465D01*
X84127703Y13303434D01*
X84132216Y13348822D01*
X84150299Y13367118D01*
X84191168Y13370508D01*
X84254721Y13370508D01*
X84254721Y12855729D01*
G37*
G36*
X84314324Y14386470D02*
G01*
X84350100Y14377073D01*
X84412847Y14359594D01*
X84492724Y14336756D01*
X84537502Y14324536D01*
X84651217Y14297183D01*
X84777226Y14270524D01*
X84895546Y14248915D01*
X85123278Y14211676D01*
X85123278Y13833461D01*
X85123278Y13455246D01*
X84201760Y13455246D01*
X83280242Y13455246D01*
X83280242Y13868340D01*
X83280242Y14281434D01*
X83703928Y14281434D01*
X84127615Y14281434D01*
X84127615Y14228986D01*
X84127615Y14176537D01*
X83772777Y14170729D01*
X83417940Y14164920D01*
X83411537Y14053703D01*
X83405134Y13942485D01*
X83755782Y13942485D01*
X84106431Y13942485D01*
X84106431Y13890049D01*
X84106431Y13837613D01*
X83762185Y13831792D01*
X83417940Y13825971D01*
X83411587Y13704161D01*
X83405234Y13582352D01*
X84200703Y13582352D01*
X84996172Y13582352D01*
X84996172Y13698327D01*
X84996172Y13814303D01*
X84662519Y13820137D01*
X84328866Y13825971D01*
X84322163Y13884228D01*
X84315460Y13942485D01*
X84655816Y13942485D01*
X84996172Y13942485D01*
X84996172Y14022859D01*
X84996172Y14103233D01*
X84752044Y14150811D01*
X84670951Y14167365D01*
X84555129Y14193156D01*
X84449885Y14218840D01*
X84370784Y14240745D01*
X84233652Y14283101D01*
X84267807Y14335228D01*
X84293974Y14371724D01*
X84309798Y14387356D01*
X84314324Y14386470D01*
G37*
G36*
X85080909Y12845137D02*
G01*
X85080922Y12822369D01*
X85082030Y12645943D01*
X85084868Y12503075D01*
X85089348Y12395963D01*
X85095382Y12326804D01*
X85102881Y12297795D01*
X85114007Y12272574D01*
X85102774Y12217753D01*
X85099141Y12208538D01*
X85087179Y12186790D01*
X85069113Y12174201D01*
X85039295Y12171579D01*
X84992079Y12179733D01*
X84921817Y12199472D01*
X84822865Y12231605D01*
X84689574Y12276940D01*
X84608858Y12304868D01*
X84529171Y12334085D01*
X84478814Y12356272D01*
X84451468Y12374954D01*
X84440816Y12393656D01*
X84440540Y12415905D01*
X84446066Y12450717D01*
X84454307Y12475571D01*
X84470792Y12473657D01*
X84520128Y12460443D01*
X84593822Y12437739D01*
X84683441Y12408031D01*
X84759102Y12382669D01*
X84840303Y12356688D01*
X84900092Y12339005D01*
X84929183Y12332477D01*
X84931899Y12333028D01*
X84944243Y12357669D01*
X84951457Y12420361D01*
X84953803Y12523136D01*
X84953803Y12713795D01*
X84699591Y12713795D01*
X84445380Y12713795D01*
X84445380Y12777347D01*
X84445380Y12840900D01*
X84699591Y12840900D01*
X84953803Y12840900D01*
X84953803Y12957414D01*
X84953803Y13073928D01*
X84699591Y13073928D01*
X84445380Y13073928D01*
X84445380Y13137481D01*
X84445380Y13201034D01*
X84699591Y13201034D01*
X84953803Y13201034D01*
X84953803Y13285771D01*
X84953904Y13303967D01*
X84958490Y13349029D01*
X84976606Y13367162D01*
X85017356Y13370508D01*
X85080909Y13370508D01*
X85080909Y12845137D01*
G37*
G36*
X84869066Y15246318D02*
G01*
X84869056Y15206816D01*
X84868527Y15026989D01*
X84866656Y14884110D01*
X84862710Y14773640D01*
X84855953Y14691041D01*
X84845652Y14631773D01*
X84831071Y14591299D01*
X84811476Y14565078D01*
X84786132Y14548573D01*
X84754306Y14537244D01*
X84752085Y14536676D01*
X84709958Y14531702D01*
X84632270Y14527108D01*
X84525148Y14523086D01*
X84394720Y14519828D01*
X84247110Y14517526D01*
X84088448Y14516372D01*
X83915282Y14516000D01*
X83756565Y14516727D01*
X83631401Y14519633D01*
X83535125Y14525719D01*
X83463075Y14535988D01*
X83410583Y14551442D01*
X83372987Y14573084D01*
X83345621Y14601915D01*
X83323821Y14638939D01*
X83302921Y14685156D01*
X83277443Y14746567D01*
X83250771Y14824779D01*
X83244224Y14877342D01*
X83257432Y14911357D01*
X83290027Y14933926D01*
X83326783Y14950348D01*
X83352633Y14954085D01*
X83365198Y14931525D01*
X83375488Y14875089D01*
X83376686Y14868580D01*
X83400796Y14791402D01*
X83436440Y14721502D01*
X83483158Y14652160D01*
X84083505Y14646529D01*
X84254130Y14645391D01*
X84417128Y14645634D01*
X84542150Y14647649D01*
X84631551Y14651504D01*
X84687685Y14657268D01*
X84712906Y14665011D01*
X84717596Y14670548D01*
X84726087Y14694034D01*
X84732471Y14736979D01*
X84736999Y14803963D01*
X84739923Y14899567D01*
X84741493Y15028370D01*
X84741960Y15194954D01*
X84741960Y15700784D01*
X84209168Y15700784D01*
X83676375Y15700784D01*
X83690535Y15494237D01*
X83701506Y15364864D01*
X83718735Y15237358D01*
X83739613Y15149556D01*
X83763900Y15102730D01*
X83778011Y15096941D01*
X83828575Y15089157D01*
X83904855Y15083816D01*
X83996670Y15081833D01*
X84208543Y15081833D01*
X84187146Y15020455D01*
X84169484Y14984981D01*
X84136422Y14957222D01*
X84083179Y14942581D01*
X84002598Y14939264D01*
X83887519Y14945482D01*
X83788421Y14956024D01*
X83714240Y14975005D01*
X83663439Y15008906D01*
X83629665Y15064579D01*
X83606564Y15148871D01*
X83587782Y15268634D01*
X83583260Y15303208D01*
X83568621Y15424908D01*
X83555260Y15548917D01*
X83545605Y15653119D01*
X83531542Y15827890D01*
X84200304Y15827890D01*
X84869066Y15827890D01*
X84869066Y15246318D01*
G37*
%TD*%
M02*
