M48
; DRILL file {KiCad 9.0.5} date 2025-10-09T03:18:41-0600
; FORMAT={-:-/ absolute / metric / decimal}
; #@! TF.CreationDate,2025-10-09T03:18:41-06:00
; #@! TF.GenerationSoftware,Kicad,Pcbnew,9.0.5
; #@! TF.FileFunction,Plated,1,2,PTH
FMAT,2
METRIC
; #@! TA.AperFunction,Plated,PTH,ViaDrill
T1C0.600
; #@! TA.AperFunction,Plated,PTH,ComponentDrill
T2C1.000
; #@! TA.AperFunction,Plated,PTH,ComponentDrill
T3C1.200
; #@! TA.AperFunction,Plated,PTH,ComponentDrill
T4C1.780
%
G90
G05
T1
X5.85Y15.04
X6.23Y47.52
X6.23Y46.24
X6.23Y44.97
X6.26Y48.79
X10.33Y42.19
X17.55Y53.84
X18.37Y48.82
X23.8Y48.82
X26.55Y72.84
X31.56Y70.3
X32.85Y80.51
X32.91Y44.08
X35.37Y70.25
X38.84Y48.82
X39.05Y77.76
X47.98Y44.07
X53.93Y48.82
X63.04Y44.13
X69.07Y48.81
X78.06Y44.13
X82.47Y80.1
X82.47Y67.21
T2
X22.06Y86.69
X22.06Y63.83
X24.6Y86.69
X24.6Y63.83
X27.14Y86.69
X27.14Y63.83
X27.425Y52.23
X29.68Y86.69
X29.68Y63.83
X29.965Y52.23
X32.22Y86.69
X32.22Y63.83
X34.76Y86.69
X34.76Y63.83
X37.3Y86.69
X37.3Y63.83
X39.84Y86.69
X39.84Y63.83
X42.38Y86.69
X42.38Y63.83
X42.465Y52.23
X44.92Y86.69
X44.92Y63.83
X45.005Y52.23
X47.46Y86.69
X47.46Y63.83
X50.0Y86.69
X50.0Y63.83
X52.54Y86.69
X52.54Y63.83
X57.385Y52.26
X59.925Y52.26
X68.68Y79.5
X68.68Y76.96
X68.68Y74.42
X68.68Y71.88
X72.475Y52.26
X75.015Y52.26
T3
X13.71Y12.29
X13.71Y4.09
X18.71Y12.29
X18.71Y4.09
X23.71Y12.29
X23.71Y4.09
X28.71Y12.29
X28.71Y4.09
X33.71Y12.29
X33.71Y4.09
X38.71Y12.29
X38.71Y4.09
X43.71Y12.29
X43.71Y4.09
X48.71Y12.29
X48.71Y4.09
X53.68Y12.3
X53.68Y4.1
X58.68Y12.3
X58.68Y4.1
X63.68Y12.3
X63.68Y4.1
X68.68Y12.3
X68.68Y4.1
X73.68Y12.3
X73.68Y4.1
X78.68Y12.3
X78.68Y4.1
T4
X27.01Y37.96
X27.01Y28.04
X30.41Y37.96
X30.41Y28.04
X41.95Y37.96
X41.95Y28.04
X45.35Y37.96
X45.35Y28.04
X56.94Y37.96
X56.94Y28.04
X60.34Y37.96
X60.34Y28.04
X71.91Y37.96
X71.91Y28.04
X75.31Y37.96
X75.31Y28.04
M30
