%TF.GenerationSoftware,KiCad,Pcbnew,9.0.5*%
%TF.CreationDate,2025-10-09T03:15:35-06:00*%
%TF.ProjectId,PropController,50726f70-436f-46e7-9472-6f6c6c65722e,1.0*%
%TF.SameCoordinates,PX5dc1770PY781d830*%
%TF.FileFunction,Paste,Top*%
%TF.FilePolarity,Positive*%
%FSLAX46Y46*%
G04 Gerber Fmt 4.6, Leading zero omitted, Abs format (unit mm)*
G04 Created by KiCad (PCBNEW 9.0.5) date 2025-10-09 03:15:35*
%MOMM*%
%LPD*%
G01*
G04 APERTURE LIST*
G04 Aperture macros list*
%AMRoundRect*
0 Rectangle with rounded corners*
0 $1 Rounding radius*
0 $2 $3 $4 $5 $6 $7 $8 $9 X,Y pos of 4 corners*
0 Add a 4 corners polygon primitive as box body*
4,1,4,$2,$3,$4,$5,$6,$7,$8,$9,$2,$3,0*
0 Add four circle primitives for the rounded corners*
1,1,$1+$1,$2,$3*
1,1,$1+$1,$4,$5*
1,1,$1+$1,$6,$7*
1,1,$1+$1,$8,$9*
0 Add four rect primitives between the rounded corners*
20,1,$1+$1,$2,$3,$4,$5,0*
20,1,$1+$1,$4,$5,$6,$7,0*
20,1,$1+$1,$6,$7,$8,$9,0*
20,1,$1+$1,$8,$9,$2,$3,0*%
G04 Aperture macros list end*
%ADD10RoundRect,0.250001X-0.872499X-1.044999X0.872499X-1.044999X0.872499X1.044999X-0.872499X1.044999X0*%
%ADD11RoundRect,0.250000X0.300000X0.300000X-0.300000X0.300000X-0.300000X-0.300000X0.300000X-0.300000X0*%
%ADD12RoundRect,0.150000X0.825000X0.150000X-0.825000X0.150000X-0.825000X-0.150000X0.825000X-0.150000X0*%
%ADD13RoundRect,0.150000X0.150000X-0.825000X0.150000X0.825000X-0.150000X0.825000X-0.150000X-0.825000X0*%
%ADD14R,1.000000X2.750000*%
%ADD15RoundRect,0.200000X-0.200000X-0.275000X0.200000X-0.275000X0.200000X0.275000X-0.200000X0.275000X0*%
%ADD16RoundRect,0.200000X-0.275000X0.200000X-0.275000X-0.200000X0.275000X-0.200000X0.275000X0.200000X0*%
%ADD17R,4.200000X1.500000*%
%ADD18RoundRect,0.090000X-0.660000X-0.360000X0.660000X-0.360000X0.660000X0.360000X-0.660000X0.360000X0*%
%ADD19RoundRect,0.243750X0.456250X-0.243750X0.456250X0.243750X-0.456250X0.243750X-0.456250X-0.243750X0*%
%ADD20RoundRect,0.225000X-0.250000X0.225000X-0.250000X-0.225000X0.250000X-0.225000X0.250000X0.225000X0*%
%ADD21RoundRect,0.250000X-0.325000X-0.650000X0.325000X-0.650000X0.325000X0.650000X-0.325000X0.650000X0*%
G04 APERTURE END LIST*
D10*
%TO.C,C3*%
X15147500Y53800000D03*
X8732500Y53800000D03*
%TD*%
D11*
%TO.C,D1*%
X11560000Y42230000D03*
X14360000Y42230000D03*
%TD*%
D12*
%TO.C,U2*%
X9375000Y44972500D03*
X9375000Y46242500D03*
X9375000Y47512500D03*
X9375000Y48782500D03*
X4425000Y48782500D03*
X4425000Y47512500D03*
X4425000Y46242500D03*
X4425000Y44972500D03*
%TD*%
D13*
%TO.C,U1*%
X29050000Y72800000D03*
X30320000Y72800000D03*
X31590000Y72800000D03*
X32860000Y72800000D03*
X34130000Y72800000D03*
X35400000Y72800000D03*
X36670000Y72800000D03*
X36670000Y77750000D03*
X35400000Y77750000D03*
X34130000Y77750000D03*
X32860000Y77750000D03*
X31590000Y77750000D03*
X30320000Y77750000D03*
X29050000Y77750000D03*
%TD*%
D14*
%TO.C,SW2*%
X82470000Y77230000D03*
X82470000Y82990000D03*
X86470000Y77230000D03*
X86470000Y82990000D03*
%TD*%
%TO.C,SW1*%
X82470000Y64220000D03*
X82470000Y69980000D03*
X86470000Y64220000D03*
X86470000Y69980000D03*
%TD*%
D15*
%TO.C,R5*%
X72865000Y55360000D03*
X74515000Y55360000D03*
%TD*%
%TO.C,R4*%
X57795000Y55360000D03*
X59445000Y55360000D03*
%TD*%
%TO.C,R3*%
X42875000Y55360000D03*
X44525000Y55360000D03*
%TD*%
%TO.C,R2*%
X27865000Y55360000D03*
X29515000Y55360000D03*
%TD*%
D16*
%TO.C,R1*%
X6830000Y18330000D03*
X6830000Y16680000D03*
%TD*%
D17*
%TO.C,L1*%
X14390000Y45170000D03*
X14390000Y48770000D03*
%TD*%
D18*
%TO.C,D6*%
X71240000Y47410000D03*
X71240000Y44110000D03*
X76140000Y44110000D03*
X76140000Y47410000D03*
%TD*%
%TO.C,D5*%
X56180000Y47410000D03*
X56180000Y44110000D03*
X61080000Y44110000D03*
X61080000Y47410000D03*
%TD*%
%TO.C,D4*%
X41200000Y47380000D03*
X41200000Y44080000D03*
X46100000Y44080000D03*
X46100000Y47380000D03*
%TD*%
%TO.C,D3*%
X26220000Y47380000D03*
X26220000Y44080000D03*
X31120000Y44080000D03*
X31120000Y47380000D03*
%TD*%
D19*
%TO.C,D2*%
X4590000Y16382500D03*
X4590000Y18257500D03*
%TD*%
D20*
%TO.C,C2*%
X25660000Y76140000D03*
X25660000Y74590000D03*
%TD*%
D21*
%TO.C,C1*%
X6165000Y42190000D03*
X9115000Y42190000D03*
%TD*%
M02*
