%TF.GenerationSoftware,KiCad,Pcbnew,9.0.5*%
%TF.CreationDate,2025-10-09T03:15:35-06:00*%
%TF.ProjectId,PropController,50726f70-436f-46e7-9472-6f6c6c65722e,1.0*%
%TF.SameCoordinates,PX5dc1770PY781d830*%
%TF.FileFunction,Soldermask,Bot*%
%TF.FilePolarity,Negative*%
%FSLAX46Y46*%
G04 Gerber Fmt 4.6, Leading zero omitted, Abs format (unit mm)*
G04 Created by KiCad (PCBNEW 9.0.5) date 2025-10-09 03:15:35*
%MOMM*%
%LPD*%
G01*
G04 APERTURE LIST*
%ADD10C,0.100000*%
%ADD11C,1.905000*%
%ADD12C,1.700000*%
%ADD13R,1.700000X1.700000*%
%ADD14C,2.780000*%
G04 APERTURE END LIST*
D10*
X75531197Y28769188D02*
X75669205Y28712024D01*
X75793408Y28629034D01*
X75848815Y28578815D01*
X77625023Y26802607D01*
X77926780Y26478496D01*
X78204647Y26133684D01*
X78457207Y25769928D01*
X78683174Y25389081D01*
X78881397Y24993085D01*
X79050864Y24583956D01*
X79190714Y24163781D01*
X79300232Y23734699D01*
X79378862Y23298898D01*
X79426201Y22858598D01*
X79442010Y22416042D01*
X79442000Y22416042D01*
X79442000Y12300000D01*
X79438331Y12225311D01*
X79422000Y12143209D01*
X79422000Y4150000D01*
X79418331Y4075311D01*
X79389189Y3928803D01*
X79332024Y3790796D01*
X79249034Y3666592D01*
X79143408Y3560966D01*
X79019204Y3477976D01*
X78881197Y3420811D01*
X78734689Y3391669D01*
X78585311Y3391669D01*
X78438803Y3420811D01*
X78300796Y3477976D01*
X78176592Y3560966D01*
X78070966Y3666592D01*
X77987976Y3790796D01*
X77930811Y3928803D01*
X77901669Y4075311D01*
X77898000Y4150000D01*
X77898000Y12350000D01*
X77901669Y12424689D01*
X77918000Y12506792D01*
X77918000Y22416037D01*
X77918009Y22416241D01*
X77918009Y22620346D01*
X77882392Y23027418D01*
X77811432Y23429838D01*
X77705670Y23824542D01*
X77565910Y24208526D01*
X77393216Y24578868D01*
X77188901Y24932750D01*
X76954522Y25267479D01*
X76691861Y25580506D01*
X76547390Y25724978D01*
X76547391Y25724979D01*
X75074370Y27198000D01*
X71930000Y27198000D01*
X71855311Y27201669D01*
X71708803Y27230811D01*
X71570796Y27287976D01*
X71446592Y27370966D01*
X71340966Y27476592D01*
X71257976Y27600796D01*
X71200811Y27738803D01*
X71171669Y27885311D01*
X71171669Y28034689D01*
X71200811Y28181197D01*
X71257976Y28319204D01*
X71340966Y28443408D01*
X71446592Y28549034D01*
X71570796Y28632024D01*
X71708803Y28689189D01*
X71855311Y28718331D01*
X71930000Y28722000D01*
X74974880Y28722000D01*
X75088803Y28769188D01*
X75235311Y28798331D01*
X75384689Y28798331D01*
X75531197Y28769188D01*
G36*
X75531197Y28769188D02*
G01*
X75669205Y28712024D01*
X75793408Y28629034D01*
X75848815Y28578815D01*
X77625023Y26802607D01*
X77926780Y26478496D01*
X78204647Y26133684D01*
X78457207Y25769928D01*
X78683174Y25389081D01*
X78881397Y24993085D01*
X79050864Y24583956D01*
X79190714Y24163781D01*
X79300232Y23734699D01*
X79378862Y23298898D01*
X79426201Y22858598D01*
X79442010Y22416042D01*
X79442000Y22416042D01*
X79442000Y12300000D01*
X79438331Y12225311D01*
X79422000Y12143209D01*
X79422000Y4150000D01*
X79418331Y4075311D01*
X79389189Y3928803D01*
X79332024Y3790796D01*
X79249034Y3666592D01*
X79143408Y3560966D01*
X79019204Y3477976D01*
X78881197Y3420811D01*
X78734689Y3391669D01*
X78585311Y3391669D01*
X78438803Y3420811D01*
X78300796Y3477976D01*
X78176592Y3560966D01*
X78070966Y3666592D01*
X77987976Y3790796D01*
X77930811Y3928803D01*
X77901669Y4075311D01*
X77898000Y4150000D01*
X77898000Y12350000D01*
X77901669Y12424689D01*
X77918000Y12506792D01*
X77918000Y22416037D01*
X77918009Y22416241D01*
X77918009Y22620346D01*
X77882392Y23027418D01*
X77811432Y23429838D01*
X77705670Y23824542D01*
X77565910Y24208526D01*
X77393216Y24578868D01*
X77188901Y24932750D01*
X76954522Y25267479D01*
X76691861Y25580506D01*
X76547390Y25724978D01*
X76547391Y25724979D01*
X75074370Y27198000D01*
X71930000Y27198000D01*
X71855311Y27201669D01*
X71708803Y27230811D01*
X71570796Y27287976D01*
X71446592Y27370966D01*
X71340966Y27476592D01*
X71257976Y27600796D01*
X71200811Y27738803D01*
X71171669Y27885311D01*
X71171669Y28034689D01*
X71200811Y28181197D01*
X71257976Y28319204D01*
X71340966Y28443408D01*
X71446592Y28549034D01*
X71570796Y28632024D01*
X71708803Y28689189D01*
X71855311Y28718331D01*
X71930000Y28722000D01*
X74974880Y28722000D01*
X75088803Y28769188D01*
X75235311Y28798331D01*
X75384689Y28798331D01*
X75531197Y28769188D01*
G37*
X60561197Y28769188D02*
X60699205Y28712024D01*
X60823408Y28629034D01*
X60878815Y28578815D01*
X62625023Y26832608D01*
X62625057Y26832571D01*
X62926780Y26508496D01*
X63204647Y26163684D01*
X63457207Y25799928D01*
X63683174Y25419081D01*
X63881397Y25023085D01*
X64050864Y24613956D01*
X64190714Y24193781D01*
X64300232Y23764699D01*
X64378862Y23328898D01*
X64426201Y22888598D01*
X64442010Y22446042D01*
X64442000Y22446042D01*
X64442000Y12300000D01*
X64438331Y12225311D01*
X64422000Y12143209D01*
X64422000Y4150000D01*
X64418331Y4075311D01*
X64389189Y3928803D01*
X64332024Y3790796D01*
X64249034Y3666592D01*
X64143408Y3560966D01*
X64019204Y3477976D01*
X63881197Y3420811D01*
X63734689Y3391669D01*
X63585311Y3391669D01*
X63438803Y3420811D01*
X63300796Y3477976D01*
X63176592Y3560966D01*
X63070966Y3666592D01*
X62987976Y3790796D01*
X62930811Y3928803D01*
X62901669Y4075311D01*
X62898000Y4150000D01*
X62898000Y12350000D01*
X62901669Y12424689D01*
X62918000Y12506792D01*
X62918000Y22446037D01*
X62918009Y22446241D01*
X62918009Y22650346D01*
X62882392Y23057418D01*
X62811432Y23459838D01*
X62705670Y23854542D01*
X62565910Y24238526D01*
X62393216Y24608868D01*
X62188901Y24962750D01*
X61954522Y25297479D01*
X61691861Y25610506D01*
X61547390Y25754978D01*
X61547390Y25754979D01*
X60104370Y27198000D01*
X56960000Y27198000D01*
X56885311Y27201669D01*
X56738803Y27230811D01*
X56600796Y27287976D01*
X56476592Y27370966D01*
X56370966Y27476592D01*
X56287976Y27600796D01*
X56230811Y27738803D01*
X56201669Y27885311D01*
X56201669Y28034689D01*
X56230811Y28181197D01*
X56287976Y28319204D01*
X56370966Y28443408D01*
X56476592Y28549034D01*
X56600796Y28632024D01*
X56738803Y28689189D01*
X56885311Y28718331D01*
X56960000Y28722000D01*
X60004880Y28722000D01*
X60118803Y28769188D01*
X60265311Y28798331D01*
X60414689Y28798331D01*
X60561197Y28769188D01*
G36*
X60561197Y28769188D02*
G01*
X60699205Y28712024D01*
X60823408Y28629034D01*
X60878815Y28578815D01*
X62625023Y26832608D01*
X62625057Y26832571D01*
X62926780Y26508496D01*
X63204647Y26163684D01*
X63457207Y25799928D01*
X63683174Y25419081D01*
X63881397Y25023085D01*
X64050864Y24613956D01*
X64190714Y24193781D01*
X64300232Y23764699D01*
X64378862Y23328898D01*
X64426201Y22888598D01*
X64442010Y22446042D01*
X64442000Y22446042D01*
X64442000Y12300000D01*
X64438331Y12225311D01*
X64422000Y12143209D01*
X64422000Y4150000D01*
X64418331Y4075311D01*
X64389189Y3928803D01*
X64332024Y3790796D01*
X64249034Y3666592D01*
X64143408Y3560966D01*
X64019204Y3477976D01*
X63881197Y3420811D01*
X63734689Y3391669D01*
X63585311Y3391669D01*
X63438803Y3420811D01*
X63300796Y3477976D01*
X63176592Y3560966D01*
X63070966Y3666592D01*
X62987976Y3790796D01*
X62930811Y3928803D01*
X62901669Y4075311D01*
X62898000Y4150000D01*
X62898000Y12350000D01*
X62901669Y12424689D01*
X62918000Y12506792D01*
X62918000Y22446037D01*
X62918009Y22446241D01*
X62918009Y22650346D01*
X62882392Y23057418D01*
X62811432Y23459838D01*
X62705670Y23854542D01*
X62565910Y24238526D01*
X62393216Y24608868D01*
X62188901Y24962750D01*
X61954522Y25297479D01*
X61691861Y25610506D01*
X61547390Y25754978D01*
X61547390Y25754979D01*
X60104370Y27198000D01*
X56960000Y27198000D01*
X56885311Y27201669D01*
X56738803Y27230811D01*
X56600796Y27287976D01*
X56476592Y27370966D01*
X56370966Y27476592D01*
X56287976Y27600796D01*
X56230811Y27738803D01*
X56201669Y27885311D01*
X56201669Y28034689D01*
X56230811Y28181197D01*
X56287976Y28319204D01*
X56370966Y28443408D01*
X56476592Y28549034D01*
X56600796Y28632024D01*
X56738803Y28689189D01*
X56885311Y28718331D01*
X56960000Y28722000D01*
X60004880Y28722000D01*
X60118803Y28769188D01*
X60265311Y28798331D01*
X60414689Y28798331D01*
X60561197Y28769188D01*
G37*
X45571197Y28769188D02*
X45709205Y28712024D01*
X45833408Y28629034D01*
X45888815Y28578815D01*
X47655023Y26812607D01*
X47956780Y26488496D01*
X48234647Y26143684D01*
X48487207Y25779928D01*
X48713174Y25399081D01*
X48911397Y25003085D01*
X49080864Y24593956D01*
X49220714Y24173781D01*
X49330232Y23744699D01*
X49408862Y23308898D01*
X49456201Y22868598D01*
X49472010Y22426042D01*
X49472000Y22426042D01*
X49472000Y12290000D01*
X49468331Y12215311D01*
X49452000Y12133209D01*
X49452000Y4140000D01*
X49448331Y4065311D01*
X49419189Y3918803D01*
X49362024Y3780796D01*
X49279034Y3656592D01*
X49173408Y3550966D01*
X49049204Y3467976D01*
X48911197Y3410811D01*
X48764689Y3381669D01*
X48615311Y3381669D01*
X48468803Y3410811D01*
X48330796Y3467976D01*
X48206592Y3550966D01*
X48100966Y3656592D01*
X48017976Y3780796D01*
X47960811Y3918803D01*
X47931669Y4065311D01*
X47928000Y4140000D01*
X47928000Y12340000D01*
X47931669Y12414689D01*
X47948000Y12496792D01*
X47948000Y22426037D01*
X47948009Y22426241D01*
X47948009Y22630346D01*
X47912392Y23037418D01*
X47841432Y23439838D01*
X47735670Y23834542D01*
X47595910Y24218526D01*
X47423216Y24588868D01*
X47218901Y24942750D01*
X46984522Y25277479D01*
X46721861Y25590506D01*
X46577390Y25734978D01*
X46577391Y25734979D01*
X45114370Y27198000D01*
X41970000Y27198000D01*
X41895311Y27201669D01*
X41748803Y27230811D01*
X41610796Y27287976D01*
X41486592Y27370966D01*
X41380966Y27476592D01*
X41297976Y27600796D01*
X41240811Y27738803D01*
X41211669Y27885311D01*
X41211669Y28034689D01*
X41240811Y28181197D01*
X41297976Y28319204D01*
X41380966Y28443408D01*
X41486592Y28549034D01*
X41610796Y28632024D01*
X41748803Y28689189D01*
X41895311Y28718331D01*
X41970000Y28722000D01*
X45014880Y28722000D01*
X45128803Y28769188D01*
X45275311Y28798331D01*
X45424689Y28798331D01*
X45571197Y28769188D01*
G36*
X45571197Y28769188D02*
G01*
X45709205Y28712024D01*
X45833408Y28629034D01*
X45888815Y28578815D01*
X47655023Y26812607D01*
X47956780Y26488496D01*
X48234647Y26143684D01*
X48487207Y25779928D01*
X48713174Y25399081D01*
X48911397Y25003085D01*
X49080864Y24593956D01*
X49220714Y24173781D01*
X49330232Y23744699D01*
X49408862Y23308898D01*
X49456201Y22868598D01*
X49472010Y22426042D01*
X49472000Y22426042D01*
X49472000Y12290000D01*
X49468331Y12215311D01*
X49452000Y12133209D01*
X49452000Y4140000D01*
X49448331Y4065311D01*
X49419189Y3918803D01*
X49362024Y3780796D01*
X49279034Y3656592D01*
X49173408Y3550966D01*
X49049204Y3467976D01*
X48911197Y3410811D01*
X48764689Y3381669D01*
X48615311Y3381669D01*
X48468803Y3410811D01*
X48330796Y3467976D01*
X48206592Y3550966D01*
X48100966Y3656592D01*
X48017976Y3780796D01*
X47960811Y3918803D01*
X47931669Y4065311D01*
X47928000Y4140000D01*
X47928000Y12340000D01*
X47931669Y12414689D01*
X47948000Y12496792D01*
X47948000Y22426037D01*
X47948009Y22426241D01*
X47948009Y22630346D01*
X47912392Y23037418D01*
X47841432Y23439838D01*
X47735670Y23834542D01*
X47595910Y24218526D01*
X47423216Y24588868D01*
X47218901Y24942750D01*
X46984522Y25277479D01*
X46721861Y25590506D01*
X46577390Y25734978D01*
X46577391Y25734979D01*
X45114370Y27198000D01*
X41970000Y27198000D01*
X41895311Y27201669D01*
X41748803Y27230811D01*
X41610796Y27287976D01*
X41486592Y27370966D01*
X41380966Y27476592D01*
X41297976Y27600796D01*
X41240811Y27738803D01*
X41211669Y27885311D01*
X41211669Y28034689D01*
X41240811Y28181197D01*
X41297976Y28319204D01*
X41380966Y28443408D01*
X41486592Y28549034D01*
X41610796Y28632024D01*
X41748803Y28689189D01*
X41895311Y28718331D01*
X41970000Y28722000D01*
X45014880Y28722000D01*
X45128803Y28769188D01*
X45275311Y28798331D01*
X45424689Y28798331D01*
X45571197Y28769188D01*
G37*
X30631197Y28769188D02*
X30769205Y28712024D01*
X30893408Y28629034D01*
X30948815Y28578815D01*
X32655023Y26872607D01*
X32956780Y26548496D01*
X33234647Y26203684D01*
X33487207Y25839928D01*
X33713174Y25459081D01*
X33911397Y25063085D01*
X34080864Y24653956D01*
X34220714Y24233781D01*
X34330232Y23804699D01*
X34408862Y23368898D01*
X34456201Y22928598D01*
X34472010Y22486042D01*
X34472000Y22486042D01*
X34472000Y12332427D01*
X34468331Y12257738D01*
X34452000Y12175636D01*
X34452000Y4140000D01*
X34448331Y4065311D01*
X34419189Y3918803D01*
X34362024Y3780796D01*
X34279034Y3656592D01*
X34173408Y3550966D01*
X34049204Y3467976D01*
X33911197Y3410811D01*
X33764689Y3381669D01*
X33615311Y3381669D01*
X33468803Y3410811D01*
X33330796Y3467976D01*
X33206592Y3550966D01*
X33100966Y3656592D01*
X33017976Y3780796D01*
X32960811Y3918803D01*
X32931669Y4065311D01*
X32928000Y4140000D01*
X32928000Y12340000D01*
X32931669Y12414689D01*
X32948000Y12496792D01*
X32948000Y22486037D01*
X32948009Y22486241D01*
X32948009Y22690346D01*
X32912392Y23097418D01*
X32841432Y23499838D01*
X32735670Y23894542D01*
X32595910Y24278526D01*
X32423216Y24648868D01*
X32218901Y25002750D01*
X31984522Y25337479D01*
X31721861Y25650506D01*
X31577390Y25794978D01*
X31577391Y25794979D01*
X30174370Y27198000D01*
X27030000Y27198000D01*
X26955311Y27201669D01*
X26808803Y27230811D01*
X26670796Y27287976D01*
X26546592Y27370966D01*
X26440966Y27476592D01*
X26357976Y27600796D01*
X26300811Y27738803D01*
X26271669Y27885311D01*
X26271669Y28034689D01*
X26300811Y28181197D01*
X26357976Y28319204D01*
X26440966Y28443408D01*
X26546592Y28549034D01*
X26670796Y28632024D01*
X26808803Y28689189D01*
X26955311Y28718331D01*
X27030000Y28722000D01*
X30074880Y28722000D01*
X30188803Y28769188D01*
X30335311Y28798331D01*
X30484689Y28798331D01*
X30631197Y28769188D01*
G36*
X30631197Y28769188D02*
G01*
X30769205Y28712024D01*
X30893408Y28629034D01*
X30948815Y28578815D01*
X32655023Y26872607D01*
X32956780Y26548496D01*
X33234647Y26203684D01*
X33487207Y25839928D01*
X33713174Y25459081D01*
X33911397Y25063085D01*
X34080864Y24653956D01*
X34220714Y24233781D01*
X34330232Y23804699D01*
X34408862Y23368898D01*
X34456201Y22928598D01*
X34472010Y22486042D01*
X34472000Y22486042D01*
X34472000Y12332427D01*
X34468331Y12257738D01*
X34452000Y12175636D01*
X34452000Y4140000D01*
X34448331Y4065311D01*
X34419189Y3918803D01*
X34362024Y3780796D01*
X34279034Y3656592D01*
X34173408Y3550966D01*
X34049204Y3467976D01*
X33911197Y3410811D01*
X33764689Y3381669D01*
X33615311Y3381669D01*
X33468803Y3410811D01*
X33330796Y3467976D01*
X33206592Y3550966D01*
X33100966Y3656592D01*
X33017976Y3780796D01*
X32960811Y3918803D01*
X32931669Y4065311D01*
X32928000Y4140000D01*
X32928000Y12340000D01*
X32931669Y12414689D01*
X32948000Y12496792D01*
X32948000Y22486037D01*
X32948009Y22486241D01*
X32948009Y22690346D01*
X32912392Y23097418D01*
X32841432Y23499838D01*
X32735670Y23894542D01*
X32595910Y24278526D01*
X32423216Y24648868D01*
X32218901Y25002750D01*
X31984522Y25337479D01*
X31721861Y25650506D01*
X31577390Y25794978D01*
X31577391Y25794979D01*
X30174370Y27198000D01*
X27030000Y27198000D01*
X26955311Y27201669D01*
X26808803Y27230811D01*
X26670796Y27287976D01*
X26546592Y27370966D01*
X26440966Y27476592D01*
X26357976Y27600796D01*
X26300811Y27738803D01*
X26271669Y27885311D01*
X26271669Y28034689D01*
X26300811Y28181197D01*
X26357976Y28319204D01*
X26440966Y28443408D01*
X26546592Y28549034D01*
X26670796Y28632024D01*
X26808803Y28689189D01*
X26955311Y28718331D01*
X27030000Y28722000D01*
X30074880Y28722000D01*
X30188803Y28769188D01*
X30335311Y28798331D01*
X30484689Y28798331D01*
X30631197Y28769188D01*
G37*
X30474689Y38738331D02*
X30556791Y38722000D01*
X41783209Y38722000D01*
X41865311Y38738331D01*
X41940000Y38742000D01*
X45340000Y38742000D01*
X45414689Y38738331D01*
X45496791Y38722000D01*
X56773209Y38722000D01*
X56855311Y38738331D01*
X56930000Y38742000D01*
X60330000Y38742000D01*
X60404689Y38738331D01*
X60486791Y38722000D01*
X71743209Y38722000D01*
X71825311Y38738331D01*
X71900000Y38742000D01*
X75300000Y38742000D01*
X75374689Y38738331D01*
X75521197Y38709189D01*
X75659204Y38652024D01*
X75783408Y38569034D01*
X75889034Y38463408D01*
X75972024Y38339204D01*
X76029189Y38201197D01*
X76058331Y38054689D01*
X76058331Y37905311D01*
X76029189Y37758803D01*
X75972024Y37620796D01*
X75889034Y37496592D01*
X75783408Y37390966D01*
X75659204Y37307976D01*
X75521197Y37250811D01*
X75374689Y37221669D01*
X75300000Y37218000D01*
X72066791Y37218000D01*
X71984689Y37201669D01*
X71910000Y37198000D01*
X60340000Y37198000D01*
X60265311Y37201669D01*
X60183209Y37218000D01*
X57096791Y37218000D01*
X57014689Y37201669D01*
X56940000Y37198000D01*
X45350000Y37198000D01*
X45275311Y37201669D01*
X45193209Y37218000D01*
X42106791Y37218000D01*
X42024689Y37201669D01*
X41950000Y37198000D01*
X30410000Y37198000D01*
X30335311Y37201669D01*
X30253209Y37218000D01*
X27166791Y37218000D01*
X27084689Y37201669D01*
X27010000Y37198000D01*
X22710487Y37198000D01*
X22710385Y37198005D01*
X22553358Y37198004D01*
X22240607Y37167200D01*
X21932382Y37105889D01*
X21631651Y37014663D01*
X21341310Y36894399D01*
X21064154Y36746256D01*
X20802854Y36571660D01*
X20559925Y36372293D01*
X20448825Y36261196D01*
X20448816Y36261185D01*
X19472000Y35284370D01*
X19472000Y12290000D01*
X19468331Y12215311D01*
X19452000Y12133209D01*
X19452000Y4140000D01*
X19448331Y4065311D01*
X19419189Y3918803D01*
X19362024Y3780796D01*
X19279034Y3656592D01*
X19173408Y3550966D01*
X19049204Y3467976D01*
X18911197Y3410811D01*
X18764689Y3381669D01*
X18615311Y3381669D01*
X18468803Y3410811D01*
X18330796Y3467976D01*
X18206592Y3550966D01*
X18100966Y3656592D01*
X18017976Y3780796D01*
X17960811Y3918803D01*
X17931669Y4065311D01*
X17928000Y4140000D01*
X17928000Y12340000D01*
X17931669Y12414689D01*
X17948000Y12496792D01*
X17948000Y35640000D01*
X17951669Y35714689D01*
X17980811Y35861197D01*
X18037976Y35999204D01*
X18120966Y36123408D01*
X18226592Y36229034D01*
X18331502Y36299133D01*
X19371185Y37338816D01*
X19371240Y37338867D01*
X19643477Y37590520D01*
X19934679Y37820085D01*
X20242994Y38026095D01*
X20566522Y38207280D01*
X20903268Y38362523D01*
X21251157Y38490866D01*
X21608043Y38591519D01*
X21971725Y38663861D01*
X22339963Y38707446D01*
X22710484Y38722005D01*
X22710484Y38722000D01*
X26843209Y38722000D01*
X26925311Y38738331D01*
X27000000Y38742000D01*
X30400000Y38742000D01*
X30474689Y38738331D01*
G36*
X30474689Y38738331D02*
G01*
X30556791Y38722000D01*
X41783209Y38722000D01*
X41865311Y38738331D01*
X41940000Y38742000D01*
X45340000Y38742000D01*
X45414689Y38738331D01*
X45496791Y38722000D01*
X56773209Y38722000D01*
X56855311Y38738331D01*
X56930000Y38742000D01*
X60330000Y38742000D01*
X60404689Y38738331D01*
X60486791Y38722000D01*
X71743209Y38722000D01*
X71825311Y38738331D01*
X71900000Y38742000D01*
X75300000Y38742000D01*
X75374689Y38738331D01*
X75521197Y38709189D01*
X75659204Y38652024D01*
X75783408Y38569034D01*
X75889034Y38463408D01*
X75972024Y38339204D01*
X76029189Y38201197D01*
X76058331Y38054689D01*
X76058331Y37905311D01*
X76029189Y37758803D01*
X75972024Y37620796D01*
X75889034Y37496592D01*
X75783408Y37390966D01*
X75659204Y37307976D01*
X75521197Y37250811D01*
X75374689Y37221669D01*
X75300000Y37218000D01*
X72066791Y37218000D01*
X71984689Y37201669D01*
X71910000Y37198000D01*
X60340000Y37198000D01*
X60265311Y37201669D01*
X60183209Y37218000D01*
X57096791Y37218000D01*
X57014689Y37201669D01*
X56940000Y37198000D01*
X45350000Y37198000D01*
X45275311Y37201669D01*
X45193209Y37218000D01*
X42106791Y37218000D01*
X42024689Y37201669D01*
X41950000Y37198000D01*
X30410000Y37198000D01*
X30335311Y37201669D01*
X30253209Y37218000D01*
X27166791Y37218000D01*
X27084689Y37201669D01*
X27010000Y37198000D01*
X22710487Y37198000D01*
X22710385Y37198005D01*
X22553358Y37198004D01*
X22240607Y37167200D01*
X21932382Y37105889D01*
X21631651Y37014663D01*
X21341310Y36894399D01*
X21064154Y36746256D01*
X20802854Y36571660D01*
X20559925Y36372293D01*
X20448825Y36261196D01*
X20448816Y36261185D01*
X19472000Y35284370D01*
X19472000Y12290000D01*
X19468331Y12215311D01*
X19452000Y12133209D01*
X19452000Y4140000D01*
X19448331Y4065311D01*
X19419189Y3918803D01*
X19362024Y3780796D01*
X19279034Y3656592D01*
X19173408Y3550966D01*
X19049204Y3467976D01*
X18911197Y3410811D01*
X18764689Y3381669D01*
X18615311Y3381669D01*
X18468803Y3410811D01*
X18330796Y3467976D01*
X18206592Y3550966D01*
X18100966Y3656592D01*
X18017976Y3780796D01*
X17960811Y3918803D01*
X17931669Y4065311D01*
X17928000Y4140000D01*
X17928000Y12340000D01*
X17931669Y12414689D01*
X17948000Y12496792D01*
X17948000Y35640000D01*
X17951669Y35714689D01*
X17980811Y35861197D01*
X18037976Y35999204D01*
X18120966Y36123408D01*
X18226592Y36229034D01*
X18331502Y36299133D01*
X19371185Y37338816D01*
X19371240Y37338867D01*
X19643477Y37590520D01*
X19934679Y37820085D01*
X20242994Y38026095D01*
X20566522Y38207280D01*
X20903268Y38362523D01*
X21251157Y38490866D01*
X21608043Y38591519D01*
X21971725Y38663861D01*
X22339963Y38707446D01*
X22710484Y38722005D01*
X22710484Y38722000D01*
X26843209Y38722000D01*
X26925311Y38738331D01*
X27000000Y38742000D01*
X30400000Y38742000D01*
X30474689Y38738331D01*
G37*
D11*
%TO.C,J2*%
X53680000Y12300000D03*
X53680000Y4100000D03*
X58680000Y12300000D03*
X58680000Y4100000D03*
X63680000Y12300000D03*
X63680000Y4100000D03*
X68680000Y12300000D03*
X68680000Y4100000D03*
X73680000Y12300000D03*
X73680000Y4100000D03*
X78680000Y12300000D03*
X78680000Y4100000D03*
%TD*%
%TO.C,J3*%
X13710000Y12290000D03*
X13710000Y4090000D03*
X18710000Y12290000D03*
X18710000Y4090000D03*
X23710000Y12290000D03*
X23710000Y4090000D03*
X28710000Y12290000D03*
X28710000Y4090000D03*
X33710000Y12290000D03*
X33710000Y4090000D03*
X38710000Y12290000D03*
X38710000Y4090000D03*
X43710000Y12290000D03*
X43710000Y4090000D03*
X48710000Y12290000D03*
X48710000Y4090000D03*
%TD*%
D12*
%TO.C,U3*%
X52540000Y86690000D03*
X50000000Y86690000D03*
X47460000Y86690000D03*
X44920000Y86690000D03*
X42380000Y86690000D03*
X39840000Y86690000D03*
X37300000Y86690000D03*
X34760000Y86690000D03*
X32220000Y86690000D03*
X29680000Y86690000D03*
X27140000Y86690000D03*
X24600000Y86690000D03*
X22060000Y86690000D03*
X22060000Y63830000D03*
X24600000Y63830000D03*
X27140000Y63830000D03*
X29680000Y63830000D03*
X32220000Y63830000D03*
X34760000Y63830000D03*
X37300000Y63830000D03*
X39840000Y63830000D03*
X42380000Y63830000D03*
X44920000Y63830000D03*
X47460000Y63830000D03*
X50000000Y63830000D03*
X52540000Y63830000D03*
%TD*%
D13*
%TO.C,J7*%
X72475000Y52260000D03*
D12*
X75015000Y52260000D03*
%TD*%
D13*
%TO.C,J6*%
X57385000Y52260000D03*
D12*
X59925000Y52260000D03*
%TD*%
D13*
%TO.C,J5*%
X42465000Y52230000D03*
D12*
X45005000Y52230000D03*
%TD*%
%TO.C,J4*%
X29965000Y52230000D03*
D13*
X27425000Y52230000D03*
%TD*%
%TO.C,J1*%
X68680000Y79500000D03*
D12*
X68680000Y76960000D03*
X68680000Y74420000D03*
X68680000Y71880000D03*
%TD*%
D14*
%TO.C,F4*%
X75310000Y37960000D03*
X71910000Y37960000D03*
X75310000Y28040000D03*
X71910000Y28040000D03*
%TD*%
%TO.C,F3*%
X60340000Y37960000D03*
X56940000Y37960000D03*
X60340000Y28040000D03*
X56940000Y28040000D03*
%TD*%
%TO.C,F2*%
X45350000Y37960000D03*
X41950000Y37960000D03*
X45350000Y28040000D03*
X41950000Y28040000D03*
%TD*%
%TO.C,F1*%
X30410000Y37960000D03*
X27010000Y37960000D03*
X30410000Y28040000D03*
X27010000Y28040000D03*
%TD*%
M02*
