%TF.GenerationSoftware,KiCad,Pcbnew,9.0.5*%
%TF.CreationDate,2025-10-09T03:15:35-06:00*%
%TF.ProjectId,PropController,50726f70-436f-46e7-9472-6f6c6c65722e,1.0*%
%TF.SameCoordinates,PX5dc1770PY781d830*%
%TF.FileFunction,Legend,Top*%
%TF.FilePolarity,Positive*%
%FSLAX46Y46*%
G04 Gerber Fmt 4.6, Leading zero omitted, Abs format (unit mm)*
G04 Created by KiCad (PCBNEW 9.0.5) date 2025-10-09 03:15:35*
%MOMM*%
%LPD*%
G01*
G04 APERTURE LIST*
%ADD10C,0.250000*%
%ADD11C,0.150000*%
%ADD12C,0.400000*%
%ADD13C,0.300000*%
%ADD14C,0.100000*%
%ADD15C,0.120000*%
G04 APERTURE END LIST*
D10*
X72952238Y72860664D02*
X70952238Y72860664D01*
X70952238Y72860664D02*
X70952238Y73622569D01*
X70952238Y73622569D02*
X71047476Y73813045D01*
X71047476Y73813045D02*
X71142714Y73908283D01*
X71142714Y73908283D02*
X71333190Y74003521D01*
X71333190Y74003521D02*
X71618904Y74003521D01*
X71618904Y74003521D02*
X71809380Y73908283D01*
X71809380Y73908283D02*
X71904619Y73813045D01*
X71904619Y73813045D02*
X71999857Y73622569D01*
X71999857Y73622569D02*
X71999857Y72860664D01*
X72952238Y74860664D02*
X71618904Y74860664D01*
X71999857Y74860664D02*
X71809380Y74955902D01*
X71809380Y74955902D02*
X71714142Y75051140D01*
X71714142Y75051140D02*
X71618904Y75241616D01*
X71618904Y75241616D02*
X71618904Y75432093D01*
X72952238Y76384473D02*
X72857000Y76193997D01*
X72857000Y76193997D02*
X72761761Y76098759D01*
X72761761Y76098759D02*
X72571285Y76003521D01*
X72571285Y76003521D02*
X71999857Y76003521D01*
X71999857Y76003521D02*
X71809380Y76098759D01*
X71809380Y76098759D02*
X71714142Y76193997D01*
X71714142Y76193997D02*
X71618904Y76384473D01*
X71618904Y76384473D02*
X71618904Y76670188D01*
X71618904Y76670188D02*
X71714142Y76860664D01*
X71714142Y76860664D02*
X71809380Y76955902D01*
X71809380Y76955902D02*
X71999857Y77051140D01*
X71999857Y77051140D02*
X72571285Y77051140D01*
X72571285Y77051140D02*
X72761761Y76955902D01*
X72761761Y76955902D02*
X72857000Y76860664D01*
X72857000Y76860664D02*
X72952238Y76670188D01*
X72952238Y76670188D02*
X72952238Y76384473D01*
X71618904Y78765426D02*
X73237952Y78765426D01*
X73237952Y78765426D02*
X73428428Y78670188D01*
X73428428Y78670188D02*
X73523666Y78574950D01*
X73523666Y78574950D02*
X73618904Y78384473D01*
X73618904Y78384473D02*
X73618904Y78098759D01*
X73618904Y78098759D02*
X73523666Y77908283D01*
X72857000Y78765426D02*
X72952238Y78574950D01*
X72952238Y78574950D02*
X72952238Y78193997D01*
X72952238Y78193997D02*
X72857000Y78003521D01*
X72857000Y78003521D02*
X72761761Y77908283D01*
X72761761Y77908283D02*
X72571285Y77813045D01*
X72571285Y77813045D02*
X71999857Y77813045D01*
X71999857Y77813045D02*
X71809380Y77908283D01*
X71809380Y77908283D02*
X71714142Y78003521D01*
X71714142Y78003521D02*
X71618904Y78193997D01*
X71618904Y78193997D02*
X71618904Y78574950D01*
X71618904Y78574950D02*
X71714142Y78765426D01*
X80721428Y52927650D02*
X80054761Y53880031D01*
X79578571Y52927650D02*
X79578571Y54927650D01*
X79578571Y54927650D02*
X80340476Y54927650D01*
X80340476Y54927650D02*
X80530952Y54832412D01*
X80530952Y54832412D02*
X80626190Y54737174D01*
X80626190Y54737174D02*
X80721428Y54546698D01*
X80721428Y54546698D02*
X80721428Y54260984D01*
X80721428Y54260984D02*
X80626190Y54070508D01*
X80626190Y54070508D02*
X80530952Y53975269D01*
X80530952Y53975269D02*
X80340476Y53880031D01*
X80340476Y53880031D02*
X79578571Y53880031D01*
X82340476Y53022888D02*
X82150000Y52927650D01*
X82150000Y52927650D02*
X81769047Y52927650D01*
X81769047Y52927650D02*
X81578571Y53022888D01*
X81578571Y53022888D02*
X81483333Y53213365D01*
X81483333Y53213365D02*
X81483333Y53975269D01*
X81483333Y53975269D02*
X81578571Y54165746D01*
X81578571Y54165746D02*
X81769047Y54260984D01*
X81769047Y54260984D02*
X82150000Y54260984D01*
X82150000Y54260984D02*
X82340476Y54165746D01*
X82340476Y54165746D02*
X82435714Y53975269D01*
X82435714Y53975269D02*
X82435714Y53784793D01*
X82435714Y53784793D02*
X81483333Y53594317D01*
X83197619Y53022888D02*
X83388095Y52927650D01*
X83388095Y52927650D02*
X83769047Y52927650D01*
X83769047Y52927650D02*
X83959524Y53022888D01*
X83959524Y53022888D02*
X84054762Y53213365D01*
X84054762Y53213365D02*
X84054762Y53308603D01*
X84054762Y53308603D02*
X83959524Y53499079D01*
X83959524Y53499079D02*
X83769047Y53594317D01*
X83769047Y53594317D02*
X83483333Y53594317D01*
X83483333Y53594317D02*
X83292857Y53689555D01*
X83292857Y53689555D02*
X83197619Y53880031D01*
X83197619Y53880031D02*
X83197619Y53975269D01*
X83197619Y53975269D02*
X83292857Y54165746D01*
X83292857Y54165746D02*
X83483333Y54260984D01*
X83483333Y54260984D02*
X83769047Y54260984D01*
X83769047Y54260984D02*
X83959524Y54165746D01*
X84911905Y52927650D02*
X84911905Y54260984D01*
X84911905Y54927650D02*
X84816667Y54832412D01*
X84816667Y54832412D02*
X84911905Y54737174D01*
X84911905Y54737174D02*
X85007143Y54832412D01*
X85007143Y54832412D02*
X84911905Y54927650D01*
X84911905Y54927650D02*
X84911905Y54737174D01*
X85769048Y53022888D02*
X85959524Y52927650D01*
X85959524Y52927650D02*
X86340476Y52927650D01*
X86340476Y52927650D02*
X86530953Y53022888D01*
X86530953Y53022888D02*
X86626191Y53213365D01*
X86626191Y53213365D02*
X86626191Y53308603D01*
X86626191Y53308603D02*
X86530953Y53499079D01*
X86530953Y53499079D02*
X86340476Y53594317D01*
X86340476Y53594317D02*
X86054762Y53594317D01*
X86054762Y53594317D02*
X85864286Y53689555D01*
X85864286Y53689555D02*
X85769048Y53880031D01*
X85769048Y53880031D02*
X85769048Y53975269D01*
X85769048Y53975269D02*
X85864286Y54165746D01*
X85864286Y54165746D02*
X86054762Y54260984D01*
X86054762Y54260984D02*
X86340476Y54260984D01*
X86340476Y54260984D02*
X86530953Y54165746D01*
X87197620Y54260984D02*
X87959524Y54260984D01*
X87483334Y54927650D02*
X87483334Y53213365D01*
X87483334Y53213365D02*
X87578572Y53022888D01*
X87578572Y53022888D02*
X87769048Y52927650D01*
X87769048Y52927650D02*
X87959524Y52927650D01*
X88911905Y52927650D02*
X88721429Y53022888D01*
X88721429Y53022888D02*
X88626191Y53118127D01*
X88626191Y53118127D02*
X88530953Y53308603D01*
X88530953Y53308603D02*
X88530953Y53880031D01*
X88530953Y53880031D02*
X88626191Y54070508D01*
X88626191Y54070508D02*
X88721429Y54165746D01*
X88721429Y54165746D02*
X88911905Y54260984D01*
X88911905Y54260984D02*
X89197620Y54260984D01*
X89197620Y54260984D02*
X89388096Y54165746D01*
X89388096Y54165746D02*
X89483334Y54070508D01*
X89483334Y54070508D02*
X89578572Y53880031D01*
X89578572Y53880031D02*
X89578572Y53308603D01*
X89578572Y53308603D02*
X89483334Y53118127D01*
X89483334Y53118127D02*
X89388096Y53022888D01*
X89388096Y53022888D02*
X89197620Y52927650D01*
X89197620Y52927650D02*
X88911905Y52927650D01*
X90435715Y52927650D02*
X90435715Y54260984D01*
X90435715Y53880031D02*
X90530953Y54070508D01*
X90530953Y54070508D02*
X90626191Y54165746D01*
X90626191Y54165746D02*
X90816667Y54260984D01*
X90816667Y54260984D02*
X91007144Y54260984D01*
X81102380Y50755381D02*
X81388094Y50660143D01*
X81388094Y50660143D02*
X81483332Y50564905D01*
X81483332Y50564905D02*
X81578570Y50374429D01*
X81578570Y50374429D02*
X81578570Y50088715D01*
X81578570Y50088715D02*
X81483332Y49898239D01*
X81483332Y49898239D02*
X81388094Y49803000D01*
X81388094Y49803000D02*
X81197618Y49707762D01*
X81197618Y49707762D02*
X80435713Y49707762D01*
X80435713Y49707762D02*
X80435713Y51707762D01*
X80435713Y51707762D02*
X81102380Y51707762D01*
X81102380Y51707762D02*
X81292856Y51612524D01*
X81292856Y51612524D02*
X81388094Y51517286D01*
X81388094Y51517286D02*
X81483332Y51326810D01*
X81483332Y51326810D02*
X81483332Y51136334D01*
X81483332Y51136334D02*
X81388094Y50945858D01*
X81388094Y50945858D02*
X81292856Y50850620D01*
X81292856Y50850620D02*
X81102380Y50755381D01*
X81102380Y50755381D02*
X80435713Y50755381D01*
X82245237Y51041096D02*
X82721427Y49707762D01*
X83197618Y51041096D02*
X82721427Y49707762D01*
X82721427Y49707762D02*
X82530951Y49231572D01*
X82530951Y49231572D02*
X82435713Y49136334D01*
X82435713Y49136334D02*
X82245237Y49041096D01*
X83959523Y51041096D02*
X83959523Y49041096D01*
X83959523Y50945858D02*
X84149999Y51041096D01*
X84149999Y51041096D02*
X84530952Y51041096D01*
X84530952Y51041096D02*
X84721428Y50945858D01*
X84721428Y50945858D02*
X84816666Y50850620D01*
X84816666Y50850620D02*
X84911904Y50660143D01*
X84911904Y50660143D02*
X84911904Y50088715D01*
X84911904Y50088715D02*
X84816666Y49898239D01*
X84816666Y49898239D02*
X84721428Y49803000D01*
X84721428Y49803000D02*
X84530952Y49707762D01*
X84530952Y49707762D02*
X84149999Y49707762D01*
X84149999Y49707762D02*
X83959523Y49803000D01*
X86626190Y49707762D02*
X86626190Y50755381D01*
X86626190Y50755381D02*
X86530952Y50945858D01*
X86530952Y50945858D02*
X86340476Y51041096D01*
X86340476Y51041096D02*
X85959523Y51041096D01*
X85959523Y51041096D02*
X85769047Y50945858D01*
X86626190Y49803000D02*
X86435714Y49707762D01*
X86435714Y49707762D02*
X85959523Y49707762D01*
X85959523Y49707762D02*
X85769047Y49803000D01*
X85769047Y49803000D02*
X85673809Y49993477D01*
X85673809Y49993477D02*
X85673809Y50183953D01*
X85673809Y50183953D02*
X85769047Y50374429D01*
X85769047Y50374429D02*
X85959523Y50469667D01*
X85959523Y50469667D02*
X86435714Y50469667D01*
X86435714Y50469667D02*
X86626190Y50564905D01*
X87483333Y49803000D02*
X87673809Y49707762D01*
X87673809Y49707762D02*
X88054761Y49707762D01*
X88054761Y49707762D02*
X88245238Y49803000D01*
X88245238Y49803000D02*
X88340476Y49993477D01*
X88340476Y49993477D02*
X88340476Y50088715D01*
X88340476Y50088715D02*
X88245238Y50279191D01*
X88245238Y50279191D02*
X88054761Y50374429D01*
X88054761Y50374429D02*
X87769047Y50374429D01*
X87769047Y50374429D02*
X87578571Y50469667D01*
X87578571Y50469667D02*
X87483333Y50660143D01*
X87483333Y50660143D02*
X87483333Y50755381D01*
X87483333Y50755381D02*
X87578571Y50945858D01*
X87578571Y50945858D02*
X87769047Y51041096D01*
X87769047Y51041096D02*
X88054761Y51041096D01*
X88054761Y51041096D02*
X88245238Y50945858D01*
X89102381Y49803000D02*
X89292857Y49707762D01*
X89292857Y49707762D02*
X89673809Y49707762D01*
X89673809Y49707762D02*
X89864286Y49803000D01*
X89864286Y49803000D02*
X89959524Y49993477D01*
X89959524Y49993477D02*
X89959524Y50088715D01*
X89959524Y50088715D02*
X89864286Y50279191D01*
X89864286Y50279191D02*
X89673809Y50374429D01*
X89673809Y50374429D02*
X89388095Y50374429D01*
X89388095Y50374429D02*
X89197619Y50469667D01*
X89197619Y50469667D02*
X89102381Y50660143D01*
X89102381Y50660143D02*
X89102381Y50755381D01*
X89102381Y50755381D02*
X89197619Y50945858D01*
X89197619Y50945858D02*
X89388095Y51041096D01*
X89388095Y51041096D02*
X89673809Y51041096D01*
X89673809Y51041096D02*
X89864286Y50945858D01*
X79473044Y30887762D02*
X78520663Y30887762D01*
X78520663Y30887762D02*
X78425425Y29935381D01*
X78425425Y29935381D02*
X78520663Y30030620D01*
X78520663Y30030620D02*
X78711139Y30125858D01*
X78711139Y30125858D02*
X79187330Y30125858D01*
X79187330Y30125858D02*
X79377806Y30030620D01*
X79377806Y30030620D02*
X79473044Y29935381D01*
X79473044Y29935381D02*
X79568282Y29744905D01*
X79568282Y29744905D02*
X79568282Y29268715D01*
X79568282Y29268715D02*
X79473044Y29078239D01*
X79473044Y29078239D02*
X79377806Y28983000D01*
X79377806Y28983000D02*
X79187330Y28887762D01*
X79187330Y28887762D02*
X78711139Y28887762D01*
X78711139Y28887762D02*
X78520663Y28983000D01*
X78520663Y28983000D02*
X78425425Y29078239D01*
X80330187Y29459191D02*
X81282568Y29459191D01*
X80139711Y28887762D02*
X80806377Y30887762D01*
X80806377Y30887762D02*
X81473044Y28887762D01*
X64423044Y30887762D02*
X63470663Y30887762D01*
X63470663Y30887762D02*
X63375425Y29935381D01*
X63375425Y29935381D02*
X63470663Y30030620D01*
X63470663Y30030620D02*
X63661139Y30125858D01*
X63661139Y30125858D02*
X64137330Y30125858D01*
X64137330Y30125858D02*
X64327806Y30030620D01*
X64327806Y30030620D02*
X64423044Y29935381D01*
X64423044Y29935381D02*
X64518282Y29744905D01*
X64518282Y29744905D02*
X64518282Y29268715D01*
X64518282Y29268715D02*
X64423044Y29078239D01*
X64423044Y29078239D02*
X64327806Y28983000D01*
X64327806Y28983000D02*
X64137330Y28887762D01*
X64137330Y28887762D02*
X63661139Y28887762D01*
X63661139Y28887762D02*
X63470663Y28983000D01*
X63470663Y28983000D02*
X63375425Y29078239D01*
X65280187Y29459191D02*
X66232568Y29459191D01*
X65089711Y28887762D02*
X65756377Y30887762D01*
X65756377Y30887762D02*
X66423044Y28887762D01*
X49373044Y30887762D02*
X48420663Y30887762D01*
X48420663Y30887762D02*
X48325425Y29935381D01*
X48325425Y29935381D02*
X48420663Y30030620D01*
X48420663Y30030620D02*
X48611139Y30125858D01*
X48611139Y30125858D02*
X49087330Y30125858D01*
X49087330Y30125858D02*
X49277806Y30030620D01*
X49277806Y30030620D02*
X49373044Y29935381D01*
X49373044Y29935381D02*
X49468282Y29744905D01*
X49468282Y29744905D02*
X49468282Y29268715D01*
X49468282Y29268715D02*
X49373044Y29078239D01*
X49373044Y29078239D02*
X49277806Y28983000D01*
X49277806Y28983000D02*
X49087330Y28887762D01*
X49087330Y28887762D02*
X48611139Y28887762D01*
X48611139Y28887762D02*
X48420663Y28983000D01*
X48420663Y28983000D02*
X48325425Y29078239D01*
X50230187Y29459191D02*
X51182568Y29459191D01*
X50039711Y28887762D02*
X50706377Y30887762D01*
X50706377Y30887762D02*
X51373044Y28887762D01*
X34323044Y30887762D02*
X33370663Y30887762D01*
X33370663Y30887762D02*
X33275425Y29935381D01*
X33275425Y29935381D02*
X33370663Y30030620D01*
X33370663Y30030620D02*
X33561139Y30125858D01*
X33561139Y30125858D02*
X34037330Y30125858D01*
X34037330Y30125858D02*
X34227806Y30030620D01*
X34227806Y30030620D02*
X34323044Y29935381D01*
X34323044Y29935381D02*
X34418282Y29744905D01*
X34418282Y29744905D02*
X34418282Y29268715D01*
X34418282Y29268715D02*
X34323044Y29078239D01*
X34323044Y29078239D02*
X34227806Y28983000D01*
X34227806Y28983000D02*
X34037330Y28887762D01*
X34037330Y28887762D02*
X33561139Y28887762D01*
X33561139Y28887762D02*
X33370663Y28983000D01*
X33370663Y28983000D02*
X33275425Y29078239D01*
X35180187Y29459191D02*
X36132568Y29459191D01*
X34989711Y28887762D02*
X35656377Y30887762D01*
X35656377Y30887762D02*
X36323044Y28887762D01*
X72144949Y92867762D02*
X72811615Y90867762D01*
X72811615Y90867762D02*
X73478282Y92867762D01*
X75192568Y90867762D02*
X74049711Y90867762D01*
X74621139Y90867762D02*
X74621139Y92867762D01*
X74621139Y92867762D02*
X74430663Y92582048D01*
X74430663Y92582048D02*
X74240187Y92391572D01*
X74240187Y92391572D02*
X74049711Y92296334D01*
X76049711Y91058239D02*
X76144949Y90963000D01*
X76144949Y90963000D02*
X76049711Y90867762D01*
X76049711Y90867762D02*
X75954473Y90963000D01*
X75954473Y90963000D02*
X76049711Y91058239D01*
X76049711Y91058239D02*
X76049711Y90867762D01*
X77383044Y92867762D02*
X77573521Y92867762D01*
X77573521Y92867762D02*
X77763997Y92772524D01*
X77763997Y92772524D02*
X77859235Y92677286D01*
X77859235Y92677286D02*
X77954473Y92486810D01*
X77954473Y92486810D02*
X78049711Y92105858D01*
X78049711Y92105858D02*
X78049711Y91629667D01*
X78049711Y91629667D02*
X77954473Y91248715D01*
X77954473Y91248715D02*
X77859235Y91058239D01*
X77859235Y91058239D02*
X77763997Y90963000D01*
X77763997Y90963000D02*
X77573521Y90867762D01*
X77573521Y90867762D02*
X77383044Y90867762D01*
X77383044Y90867762D02*
X77192568Y90963000D01*
X77192568Y90963000D02*
X77097330Y91058239D01*
X77097330Y91058239D02*
X77002092Y91248715D01*
X77002092Y91248715D02*
X76906854Y91629667D01*
X76906854Y91629667D02*
X76906854Y92105858D01*
X76906854Y92105858D02*
X77002092Y92486810D01*
X77002092Y92486810D02*
X77097330Y92677286D01*
X77097330Y92677286D02*
X77192568Y92772524D01*
X77192568Y92772524D02*
X77383044Y92867762D01*
D11*
G36*
X21389332Y95103849D02*
G01*
X21389332Y92322839D01*
X21144478Y92078291D01*
X19058339Y92078291D01*
X19058339Y90690991D01*
X18582371Y90690991D01*
X18582371Y94174200D01*
X19520263Y94174200D01*
X19989210Y93706475D01*
X19989210Y92547237D01*
X20920386Y92547237D01*
X20920386Y94872429D01*
X19520263Y94872429D01*
X19520263Y94174200D01*
X18582371Y94174200D01*
X18582371Y95104460D01*
X18820508Y95341375D01*
X21151195Y95341375D01*
X21389332Y95103849D01*
G37*
G36*
X22436218Y95341375D02*
G01*
X22436218Y94174505D01*
X22905164Y93706475D01*
X22905164Y92315817D01*
X22667027Y92078291D01*
X22212125Y92078291D01*
X21973988Y92315817D01*
X21973988Y95341375D01*
X22436218Y95341375D01*
G37*
G36*
X22436218Y95712624D02*
G01*
X21973988Y95712624D01*
X21890030Y95796278D01*
X21890030Y96117457D01*
X21973988Y96201110D01*
X22436218Y96201110D01*
X22520176Y96117457D01*
X22520176Y95796278D01*
X22436218Y95712624D01*
G37*
G36*
X23324651Y93470475D02*
G01*
X23555766Y93700063D01*
X23324651Y93934536D01*
X23317629Y95096522D01*
X23562483Y95341375D01*
X24017690Y95341375D01*
X24255522Y95102323D01*
X24255522Y93934536D01*
X25655644Y93934536D01*
X25655644Y95341375D01*
X26124590Y95341375D01*
X26124590Y93936979D01*
X25893781Y93706475D01*
X26124590Y93475665D01*
X26124590Y92078291D01*
X25662666Y92078291D01*
X25662666Y93465590D01*
X24724773Y93465590D01*
X24724773Y92313985D01*
X24486636Y92078291D01*
X23562788Y92078291D01*
X23324651Y92314901D01*
X23324651Y93470475D01*
G37*
G36*
X29466748Y95109650D02*
G01*
X29466748Y93697316D01*
X29235633Y93465590D01*
X28066626Y93465590D01*
X28066626Y92547237D01*
X29004824Y92547237D01*
X29004824Y93016183D01*
X29473770Y93016183D01*
X29473770Y92316122D01*
X29235633Y92078291D01*
X26911968Y92078291D01*
X26673831Y92315817D01*
X26673831Y93934536D01*
X27604702Y93934536D01*
X29004824Y93934536D01*
X29004824Y94872429D01*
X27604702Y94872429D01*
X27604702Y93934536D01*
X26673831Y93934536D01*
X26673831Y95110871D01*
X26904946Y95341375D01*
X29235633Y95341375D01*
X29466748Y95109650D01*
G37*
G36*
X30176884Y92078291D02*
G01*
X29938747Y92316428D01*
X29938747Y96041131D01*
X30176579Y96279268D01*
X30631786Y96279268D01*
X30869618Y96041131D01*
X30869618Y94178779D01*
X31331847Y93716550D01*
X31331847Y92316428D01*
X31093711Y92078291D01*
X30176884Y92078291D01*
G37*
G36*
X34507920Y92316122D02*
G01*
X34269784Y92078291D01*
X31953140Y92078291D01*
X31715003Y92315817D01*
X31715003Y95103849D01*
X31953140Y95341375D01*
X34276806Y95341375D01*
X34514942Y95101712D01*
X34514942Y94403483D01*
X34045996Y94403483D01*
X34045996Y94872429D01*
X32645874Y94872429D01*
X32645874Y94174200D01*
X33107798Y93713191D01*
X33107798Y92547237D01*
X34053018Y92547237D01*
X34053018Y93016183D01*
X34507920Y93016183D01*
X34507920Y92316122D01*
G37*
G36*
X35072427Y92771330D02*
G01*
X35317585Y93016183D01*
X36227390Y93016183D01*
X36472549Y92771330D01*
X36472549Y92323144D01*
X36227390Y92078291D01*
X35317585Y92078291D01*
X35072427Y92323144D01*
X35072427Y92771330D01*
G37*
G36*
X39367437Y95110871D02*
G01*
X39367437Y94167483D01*
X39829361Y93706475D01*
X39829361Y92315817D01*
X39591225Y92078291D01*
X37274581Y92078291D01*
X37036444Y92314596D01*
X37036444Y92547237D01*
X37967315Y92547237D01*
X38905513Y92547237D01*
X38905513Y93465590D01*
X37967315Y93465590D01*
X37967315Y92547237D01*
X37036444Y92547237D01*
X37036444Y93698231D01*
X37274581Y93934536D01*
X38905513Y93934536D01*
X38905513Y94872429D01*
X37498369Y94872429D01*
X37498369Y94403483D01*
X37036444Y94403483D01*
X37036444Y95108734D01*
X37267559Y95341375D01*
X39136322Y95341375D01*
X39367437Y95110871D01*
G37*
G36*
X40900366Y92078291D02*
G01*
X40662230Y92315817D01*
X40662230Y94872429D01*
X40186261Y94872429D01*
X40186261Y95341375D01*
X40662230Y95341375D01*
X40662230Y96279268D01*
X41131176Y96279268D01*
X41131176Y95341375D01*
X42062352Y95341375D01*
X42062352Y94872429D01*
X41593100Y94872429D01*
X41593100Y94173894D01*
X42062352Y93705864D01*
X42055330Y92315817D01*
X41817193Y92078291D01*
X40900366Y92078291D01*
G37*
G36*
X48097592Y92316122D02*
G01*
X47859456Y92078291D01*
X45542812Y92078291D01*
X45304675Y92315817D01*
X45304675Y95103849D01*
X45542812Y95341375D01*
X47866478Y95341375D01*
X48104614Y95101712D01*
X48104614Y94403483D01*
X47635668Y94403483D01*
X47635668Y94872429D01*
X46235546Y94872429D01*
X46235546Y94174200D01*
X46697470Y93713191D01*
X46697470Y92547237D01*
X47642690Y92547237D01*
X47642690Y93016183D01*
X48097592Y93016183D01*
X48097592Y92316122D01*
G37*
G36*
X51335947Y95103849D02*
G01*
X51335947Y92315817D01*
X51097811Y92078291D01*
X48781167Y92078291D01*
X48543030Y92315817D01*
X48543030Y94167178D01*
X49480923Y94167178D01*
X49936130Y93713191D01*
X49936130Y92547237D01*
X50874023Y92547237D01*
X50874023Y94872429D01*
X49480923Y94872429D01*
X49480923Y94167178D01*
X48543030Y94167178D01*
X48543030Y95103849D01*
X48781167Y95341375D01*
X51097811Y95341375D01*
X51335947Y95103849D01*
G37*
G36*
X54114820Y94872429D02*
G01*
X52714698Y94872429D01*
X52714698Y94166872D01*
X53176928Y93705864D01*
X53176928Y92315817D01*
X52938791Y92078291D01*
X52021964Y92078291D01*
X51783828Y92315817D01*
X51783828Y95103849D01*
X52021964Y95341375D01*
X54338608Y95341375D01*
X54576745Y95103849D01*
X54583767Y92078291D01*
X54114820Y92078291D01*
X54114820Y94872429D01*
G37*
G36*
X55647749Y92078291D02*
G01*
X55409613Y92315817D01*
X55409613Y94872429D01*
X54933644Y94872429D01*
X54933644Y95341375D01*
X55409613Y95341375D01*
X55409613Y96279268D01*
X55878559Y96279268D01*
X55878559Y95341375D01*
X56809735Y95341375D01*
X56809735Y94872429D01*
X56340483Y94872429D01*
X56340483Y94173894D01*
X56809735Y93705864D01*
X56802713Y92315817D01*
X56564576Y92078291D01*
X55647749Y92078291D01*
G37*
G36*
X57449040Y92078291D02*
G01*
X57210904Y92315817D01*
X57210904Y95103849D01*
X57449040Y95341375D01*
X59541896Y95341375D01*
X59541896Y94872429D01*
X58141774Y94872429D01*
X58141774Y94173894D01*
X58604004Y93712886D01*
X58604004Y92315817D01*
X58365867Y92078291D01*
X57449040Y92078291D01*
G37*
G36*
X62654161Y95103849D02*
G01*
X62654161Y92315817D01*
X62416024Y92078291D01*
X60099381Y92078291D01*
X59861244Y92315817D01*
X59861244Y94167178D01*
X60799136Y94167178D01*
X61254344Y93713191D01*
X61254344Y92547237D01*
X62192237Y92547237D01*
X62192237Y94872429D01*
X60799136Y94872429D01*
X60799136Y94167178D01*
X59861244Y94167178D01*
X59861244Y95103849D01*
X60099381Y95341375D01*
X62416024Y95341375D01*
X62654161Y95103849D01*
G37*
G36*
X63340178Y92078291D02*
G01*
X63102041Y92316428D01*
X63102041Y96041131D01*
X63339873Y96279268D01*
X63795080Y96279268D01*
X64032912Y96041131D01*
X64032912Y94178779D01*
X64495141Y93716550D01*
X64495141Y92316428D01*
X64257005Y92078291D01*
X63340178Y92078291D01*
G37*
G36*
X65074302Y92078291D02*
G01*
X64836165Y92316428D01*
X64836165Y96041131D01*
X65073997Y96279268D01*
X65529204Y96279268D01*
X65767036Y96041131D01*
X65767036Y94178779D01*
X66229265Y93716550D01*
X66229265Y92316428D01*
X65991129Y92078291D01*
X65074302Y92078291D01*
G37*
G36*
X69405338Y95109650D02*
G01*
X69405338Y93697316D01*
X69174224Y93465590D01*
X68005216Y93465590D01*
X68005216Y92547237D01*
X68943414Y92547237D01*
X68943414Y93016183D01*
X69412360Y93016183D01*
X69412360Y92316122D01*
X69174224Y92078291D01*
X66850558Y92078291D01*
X66612421Y92315817D01*
X66612421Y93934536D01*
X67543292Y93934536D01*
X68943414Y93934536D01*
X68943414Y94872429D01*
X67543292Y94872429D01*
X67543292Y93934536D01*
X66612421Y93934536D01*
X66612421Y95110871D01*
X66843536Y95341375D01*
X69174224Y95341375D01*
X69405338Y95109650D01*
G37*
G36*
X70115474Y92078291D02*
G01*
X69877338Y92315817D01*
X69877338Y95103849D01*
X70115474Y95341375D01*
X72208330Y95341375D01*
X72208330Y94872429D01*
X70808208Y94872429D01*
X70808208Y94173894D01*
X71270438Y93712886D01*
X71270438Y92315817D01*
X71032301Y92078291D01*
X70115474Y92078291D01*
G37*
D10*
X1327761Y21179337D02*
X3327761Y21179337D01*
X3327761Y21179337D02*
X3327761Y20417432D01*
X3327761Y20417432D02*
X3232523Y20226956D01*
X3232523Y20226956D02*
X3137285Y20131718D01*
X3137285Y20131718D02*
X2946809Y20036480D01*
X2946809Y20036480D02*
X2661095Y20036480D01*
X2661095Y20036480D02*
X2470619Y20131718D01*
X2470619Y20131718D02*
X2375380Y20226956D01*
X2375380Y20226956D02*
X2280142Y20417432D01*
X2280142Y20417432D02*
X2280142Y21179337D01*
X1327761Y18893623D02*
X1423000Y19084099D01*
X1423000Y19084099D02*
X1518238Y19179337D01*
X1518238Y19179337D02*
X1708714Y19274575D01*
X1708714Y19274575D02*
X2280142Y19274575D01*
X2280142Y19274575D02*
X2470619Y19179337D01*
X2470619Y19179337D02*
X2565857Y19084099D01*
X2565857Y19084099D02*
X2661095Y18893623D01*
X2661095Y18893623D02*
X2661095Y18607908D01*
X2661095Y18607908D02*
X2565857Y18417432D01*
X2565857Y18417432D02*
X2470619Y18322194D01*
X2470619Y18322194D02*
X2280142Y18226956D01*
X2280142Y18226956D02*
X1708714Y18226956D01*
X1708714Y18226956D02*
X1518238Y18322194D01*
X1518238Y18322194D02*
X1423000Y18417432D01*
X1423000Y18417432D02*
X1327761Y18607908D01*
X1327761Y18607908D02*
X1327761Y18893623D01*
X2661095Y17560289D02*
X1327761Y17179337D01*
X1327761Y17179337D02*
X2280142Y16798384D01*
X2280142Y16798384D02*
X1327761Y16417432D01*
X1327761Y16417432D02*
X2661095Y16036480D01*
X1423000Y14512670D02*
X1327761Y14703146D01*
X1327761Y14703146D02*
X1327761Y15084099D01*
X1327761Y15084099D02*
X1423000Y15274575D01*
X1423000Y15274575D02*
X1613476Y15369813D01*
X1613476Y15369813D02*
X2375380Y15369813D01*
X2375380Y15369813D02*
X2565857Y15274575D01*
X2565857Y15274575D02*
X2661095Y15084099D01*
X2661095Y15084099D02*
X2661095Y14703146D01*
X2661095Y14703146D02*
X2565857Y14512670D01*
X2565857Y14512670D02*
X2375380Y14417432D01*
X2375380Y14417432D02*
X2184904Y14417432D01*
X2184904Y14417432D02*
X1994428Y15369813D01*
X1327761Y13560289D02*
X2661095Y13560289D01*
X2280142Y13560289D02*
X2470619Y13465051D01*
X2470619Y13465051D02*
X2565857Y13369813D01*
X2565857Y13369813D02*
X2661095Y13179337D01*
X2661095Y13179337D02*
X2661095Y12988860D01*
X89594619Y64777331D02*
X89689857Y65063045D01*
X89689857Y65063045D02*
X89785095Y65158283D01*
X89785095Y65158283D02*
X89975571Y65253521D01*
X89975571Y65253521D02*
X90261285Y65253521D01*
X90261285Y65253521D02*
X90451761Y65158283D01*
X90451761Y65158283D02*
X90547000Y65063045D01*
X90547000Y65063045D02*
X90642238Y64872569D01*
X90642238Y64872569D02*
X90642238Y64110664D01*
X90642238Y64110664D02*
X88642238Y64110664D01*
X88642238Y64110664D02*
X88642238Y64777331D01*
X88642238Y64777331D02*
X88737476Y64967807D01*
X88737476Y64967807D02*
X88832714Y65063045D01*
X88832714Y65063045D02*
X89023190Y65158283D01*
X89023190Y65158283D02*
X89213666Y65158283D01*
X89213666Y65158283D02*
X89404142Y65063045D01*
X89404142Y65063045D02*
X89499380Y64967807D01*
X89499380Y64967807D02*
X89594619Y64777331D01*
X89594619Y64777331D02*
X89594619Y64110664D01*
X90642238Y66396378D02*
X90547000Y66205902D01*
X90547000Y66205902D02*
X90451761Y66110664D01*
X90451761Y66110664D02*
X90261285Y66015426D01*
X90261285Y66015426D02*
X89689857Y66015426D01*
X89689857Y66015426D02*
X89499380Y66110664D01*
X89499380Y66110664D02*
X89404142Y66205902D01*
X89404142Y66205902D02*
X89308904Y66396378D01*
X89308904Y66396378D02*
X89308904Y66682093D01*
X89308904Y66682093D02*
X89404142Y66872569D01*
X89404142Y66872569D02*
X89499380Y66967807D01*
X89499380Y66967807D02*
X89689857Y67063045D01*
X89689857Y67063045D02*
X90261285Y67063045D01*
X90261285Y67063045D02*
X90451761Y66967807D01*
X90451761Y66967807D02*
X90547000Y66872569D01*
X90547000Y66872569D02*
X90642238Y66682093D01*
X90642238Y66682093D02*
X90642238Y66396378D01*
X90642238Y68205902D02*
X90547000Y68015426D01*
X90547000Y68015426D02*
X90451761Y67920188D01*
X90451761Y67920188D02*
X90261285Y67824950D01*
X90261285Y67824950D02*
X89689857Y67824950D01*
X89689857Y67824950D02*
X89499380Y67920188D01*
X89499380Y67920188D02*
X89404142Y68015426D01*
X89404142Y68015426D02*
X89308904Y68205902D01*
X89308904Y68205902D02*
X89308904Y68491617D01*
X89308904Y68491617D02*
X89404142Y68682093D01*
X89404142Y68682093D02*
X89499380Y68777331D01*
X89499380Y68777331D02*
X89689857Y68872569D01*
X89689857Y68872569D02*
X90261285Y68872569D01*
X90261285Y68872569D02*
X90451761Y68777331D01*
X90451761Y68777331D02*
X90547000Y68682093D01*
X90547000Y68682093D02*
X90642238Y68491617D01*
X90642238Y68491617D02*
X90642238Y68205902D01*
X89308904Y69443998D02*
X89308904Y70205902D01*
X88642238Y69729712D02*
X90356523Y69729712D01*
X90356523Y69729712D02*
X90547000Y69824950D01*
X90547000Y69824950D02*
X90642238Y70015426D01*
X90642238Y70015426D02*
X90642238Y70205902D01*
X90892238Y77713521D02*
X89939857Y77046854D01*
X90892238Y76570664D02*
X88892238Y76570664D01*
X88892238Y76570664D02*
X88892238Y77332569D01*
X88892238Y77332569D02*
X88987476Y77523045D01*
X88987476Y77523045D02*
X89082714Y77618283D01*
X89082714Y77618283D02*
X89273190Y77713521D01*
X89273190Y77713521D02*
X89558904Y77713521D01*
X89558904Y77713521D02*
X89749380Y77618283D01*
X89749380Y77618283D02*
X89844619Y77523045D01*
X89844619Y77523045D02*
X89939857Y77332569D01*
X89939857Y77332569D02*
X89939857Y76570664D01*
X90797000Y79332569D02*
X90892238Y79142093D01*
X90892238Y79142093D02*
X90892238Y78761140D01*
X90892238Y78761140D02*
X90797000Y78570664D01*
X90797000Y78570664D02*
X90606523Y78475426D01*
X90606523Y78475426D02*
X89844619Y78475426D01*
X89844619Y78475426D02*
X89654142Y78570664D01*
X89654142Y78570664D02*
X89558904Y78761140D01*
X89558904Y78761140D02*
X89558904Y79142093D01*
X89558904Y79142093D02*
X89654142Y79332569D01*
X89654142Y79332569D02*
X89844619Y79427807D01*
X89844619Y79427807D02*
X90035095Y79427807D01*
X90035095Y79427807D02*
X90225571Y78475426D01*
X90797000Y80189712D02*
X90892238Y80380188D01*
X90892238Y80380188D02*
X90892238Y80761140D01*
X90892238Y80761140D02*
X90797000Y80951617D01*
X90797000Y80951617D02*
X90606523Y81046855D01*
X90606523Y81046855D02*
X90511285Y81046855D01*
X90511285Y81046855D02*
X90320809Y80951617D01*
X90320809Y80951617D02*
X90225571Y80761140D01*
X90225571Y80761140D02*
X90225571Y80475426D01*
X90225571Y80475426D02*
X90130333Y80284950D01*
X90130333Y80284950D02*
X89939857Y80189712D01*
X89939857Y80189712D02*
X89844619Y80189712D01*
X89844619Y80189712D02*
X89654142Y80284950D01*
X89654142Y80284950D02*
X89558904Y80475426D01*
X89558904Y80475426D02*
X89558904Y80761140D01*
X89558904Y80761140D02*
X89654142Y80951617D01*
X90797000Y82665903D02*
X90892238Y82475427D01*
X90892238Y82475427D02*
X90892238Y82094474D01*
X90892238Y82094474D02*
X90797000Y81903998D01*
X90797000Y81903998D02*
X90606523Y81808760D01*
X90606523Y81808760D02*
X89844619Y81808760D01*
X89844619Y81808760D02*
X89654142Y81903998D01*
X89654142Y81903998D02*
X89558904Y82094474D01*
X89558904Y82094474D02*
X89558904Y82475427D01*
X89558904Y82475427D02*
X89654142Y82665903D01*
X89654142Y82665903D02*
X89844619Y82761141D01*
X89844619Y82761141D02*
X90035095Y82761141D01*
X90035095Y82761141D02*
X90225571Y81808760D01*
X89558904Y83332570D02*
X89558904Y84094474D01*
X88892238Y83618284D02*
X90606523Y83618284D01*
X90606523Y83618284D02*
X90797000Y83713522D01*
X90797000Y83713522D02*
X90892238Y83903998D01*
X90892238Y83903998D02*
X90892238Y84094474D01*
D12*
X16422152Y18286777D02*
X16231676Y17905824D01*
X16231676Y17905824D02*
X16231676Y17334396D01*
X16231676Y17334396D02*
X16422152Y16762967D01*
X16422152Y16762967D02*
X16803104Y16382015D01*
X16803104Y16382015D02*
X17184057Y16191538D01*
X17184057Y16191538D02*
X17945961Y16001062D01*
X17945961Y16001062D02*
X18517390Y16001062D01*
X18517390Y16001062D02*
X19279295Y16191538D01*
X19279295Y16191538D02*
X19660247Y16382015D01*
X19660247Y16382015D02*
X20041200Y16762967D01*
X20041200Y16762967D02*
X20231676Y17334396D01*
X20231676Y17334396D02*
X20231676Y17715348D01*
X20231676Y17715348D02*
X20041200Y18286777D01*
X20041200Y18286777D02*
X19850723Y18477253D01*
X19850723Y18477253D02*
X18517390Y18477253D01*
X18517390Y18477253D02*
X18517390Y17715348D01*
X20231676Y20191538D02*
X17565009Y20191538D01*
X18326914Y20191538D02*
X17945961Y20382015D01*
X17945961Y20382015D02*
X17755485Y20572491D01*
X17755485Y20572491D02*
X17565009Y20953443D01*
X17565009Y20953443D02*
X17565009Y21334396D01*
X20231676Y23239157D02*
X20041200Y22858205D01*
X20041200Y22858205D02*
X19850723Y22667728D01*
X19850723Y22667728D02*
X19469771Y22477252D01*
X19469771Y22477252D02*
X18326914Y22477252D01*
X18326914Y22477252D02*
X17945961Y22667728D01*
X17945961Y22667728D02*
X17755485Y22858205D01*
X17755485Y22858205D02*
X17565009Y23239157D01*
X17565009Y23239157D02*
X17565009Y23810586D01*
X17565009Y23810586D02*
X17755485Y24191538D01*
X17755485Y24191538D02*
X17945961Y24382014D01*
X17945961Y24382014D02*
X18326914Y24572490D01*
X18326914Y24572490D02*
X19469771Y24572490D01*
X19469771Y24572490D02*
X19850723Y24382014D01*
X19850723Y24382014D02*
X20041200Y24191538D01*
X20041200Y24191538D02*
X20231676Y23810586D01*
X20231676Y23810586D02*
X20231676Y23239157D01*
X17565009Y28001062D02*
X20231676Y28001062D01*
X17565009Y26286776D02*
X19660247Y26286776D01*
X19660247Y26286776D02*
X20041200Y26477253D01*
X20041200Y26477253D02*
X20231676Y26858205D01*
X20231676Y26858205D02*
X20231676Y27429634D01*
X20231676Y27429634D02*
X20041200Y27810586D01*
X20041200Y27810586D02*
X19850723Y28001062D01*
X17565009Y29905824D02*
X20231676Y29905824D01*
X17945961Y29905824D02*
X17755485Y30096301D01*
X17755485Y30096301D02*
X17565009Y30477253D01*
X17565009Y30477253D02*
X17565009Y31048682D01*
X17565009Y31048682D02*
X17755485Y31429634D01*
X17755485Y31429634D02*
X18136438Y31620110D01*
X18136438Y31620110D02*
X20231676Y31620110D01*
X20231676Y35239158D02*
X16231676Y35239158D01*
X20041200Y35239158D02*
X20231676Y34858206D01*
X20231676Y34858206D02*
X20231676Y34096301D01*
X20231676Y34096301D02*
X20041200Y33715349D01*
X20041200Y33715349D02*
X19850723Y33524872D01*
X19850723Y33524872D02*
X19469771Y33334396D01*
X19469771Y33334396D02*
X18326914Y33334396D01*
X18326914Y33334396D02*
X17945961Y33524872D01*
X17945961Y33524872D02*
X17755485Y33715349D01*
X17755485Y33715349D02*
X17565009Y34096301D01*
X17565009Y34096301D02*
X17565009Y34858206D01*
X17565009Y34858206D02*
X17755485Y35239158D01*
X13377866Y16191538D02*
X13377866Y19239157D01*
X14901676Y17715348D02*
X11854057Y17715348D01*
X14901676Y23239158D02*
X14901676Y20953443D01*
X14901676Y22096300D02*
X10901676Y22096300D01*
X10901676Y22096300D02*
X11473104Y21715348D01*
X11473104Y21715348D02*
X11854057Y21334396D01*
X11854057Y21334396D02*
X12044533Y20953443D01*
X11282628Y24762967D02*
X11092152Y24953443D01*
X11092152Y24953443D02*
X10901676Y25334396D01*
X10901676Y25334396D02*
X10901676Y26286777D01*
X10901676Y26286777D02*
X11092152Y26667729D01*
X11092152Y26667729D02*
X11282628Y26858205D01*
X11282628Y26858205D02*
X11663580Y27048682D01*
X11663580Y27048682D02*
X12044533Y27048682D01*
X12044533Y27048682D02*
X12615961Y26858205D01*
X12615961Y26858205D02*
X14901676Y24572491D01*
X14901676Y24572491D02*
X14901676Y27048682D01*
X10901676Y28191539D02*
X14901676Y29524872D01*
X14901676Y29524872D02*
X10901676Y30858206D01*
D13*
X22780320Y21745600D02*
X23066034Y21650362D01*
X23066034Y21650362D02*
X23542225Y21650362D01*
X23542225Y21650362D02*
X23732701Y21745600D01*
X23732701Y21745600D02*
X23827939Y21840839D01*
X23827939Y21840839D02*
X23923177Y22031315D01*
X23923177Y22031315D02*
X23923177Y22221791D01*
X23923177Y22221791D02*
X23827939Y22412267D01*
X23827939Y22412267D02*
X23732701Y22507505D01*
X23732701Y22507505D02*
X23542225Y22602743D01*
X23542225Y22602743D02*
X23161272Y22697981D01*
X23161272Y22697981D02*
X22970796Y22793220D01*
X22970796Y22793220D02*
X22875558Y22888458D01*
X22875558Y22888458D02*
X22780320Y23078934D01*
X22780320Y23078934D02*
X22780320Y23269410D01*
X22780320Y23269410D02*
X22875558Y23459886D01*
X22875558Y23459886D02*
X22970796Y23555124D01*
X22970796Y23555124D02*
X23161272Y23650362D01*
X23161272Y23650362D02*
X23637463Y23650362D01*
X23637463Y23650362D02*
X23923177Y23555124D01*
X24494606Y22983696D02*
X25256510Y22983696D01*
X24780320Y23650362D02*
X24780320Y21936077D01*
X24780320Y21936077D02*
X24875558Y21745600D01*
X24875558Y21745600D02*
X25066034Y21650362D01*
X25066034Y21650362D02*
X25256510Y21650362D01*
X25923177Y21650362D02*
X25923177Y22983696D01*
X25923177Y22602743D02*
X26018415Y22793220D01*
X26018415Y22793220D02*
X26113653Y22888458D01*
X26113653Y22888458D02*
X26304129Y22983696D01*
X26304129Y22983696D02*
X26494606Y22983696D01*
X27161272Y21650362D02*
X27161272Y22983696D01*
X27161272Y23650362D02*
X27066034Y23555124D01*
X27066034Y23555124D02*
X27161272Y23459886D01*
X27161272Y23459886D02*
X27256510Y23555124D01*
X27256510Y23555124D02*
X27161272Y23650362D01*
X27161272Y23650362D02*
X27161272Y23459886D01*
X28113653Y22983696D02*
X28113653Y21650362D01*
X28113653Y22793220D02*
X28208891Y22888458D01*
X28208891Y22888458D02*
X28399367Y22983696D01*
X28399367Y22983696D02*
X28685082Y22983696D01*
X28685082Y22983696D02*
X28875558Y22888458D01*
X28875558Y22888458D02*
X28970796Y22697981D01*
X28970796Y22697981D02*
X28970796Y21650362D01*
X30780320Y22983696D02*
X30780320Y21364648D01*
X30780320Y21364648D02*
X30685082Y21174172D01*
X30685082Y21174172D02*
X30589844Y21078934D01*
X30589844Y21078934D02*
X30399367Y20983696D01*
X30399367Y20983696D02*
X30113653Y20983696D01*
X30113653Y20983696D02*
X29923177Y21078934D01*
X30780320Y21745600D02*
X30589844Y21650362D01*
X30589844Y21650362D02*
X30208891Y21650362D01*
X30208891Y21650362D02*
X30018415Y21745600D01*
X30018415Y21745600D02*
X29923177Y21840839D01*
X29923177Y21840839D02*
X29827939Y22031315D01*
X29827939Y22031315D02*
X29827939Y22602743D01*
X29827939Y22602743D02*
X29923177Y22793220D01*
X29923177Y22793220D02*
X30018415Y22888458D01*
X30018415Y22888458D02*
X30208891Y22983696D01*
X30208891Y22983696D02*
X30589844Y22983696D01*
X30589844Y22983696D02*
X30780320Y22888458D01*
X34304130Y21650362D02*
X33161273Y21650362D01*
X33732701Y21650362D02*
X33732701Y23650362D01*
X33732701Y23650362D02*
X33542225Y23364648D01*
X33542225Y23364648D02*
X33351749Y23174172D01*
X33351749Y23174172D02*
X33161273Y23078934D01*
D12*
X27251061Y16560800D02*
X27822490Y16370324D01*
X27822490Y16370324D02*
X28774871Y16370324D01*
X28774871Y16370324D02*
X29155823Y16560800D01*
X29155823Y16560800D02*
X29346299Y16751277D01*
X29346299Y16751277D02*
X29536776Y17132229D01*
X29536776Y17132229D02*
X29536776Y17513181D01*
X29536776Y17513181D02*
X29346299Y17894134D01*
X29346299Y17894134D02*
X29155823Y18084610D01*
X29155823Y18084610D02*
X28774871Y18275086D01*
X28774871Y18275086D02*
X28012966Y18465562D01*
X28012966Y18465562D02*
X27632014Y18656039D01*
X27632014Y18656039D02*
X27441537Y18846515D01*
X27441537Y18846515D02*
X27251061Y19227467D01*
X27251061Y19227467D02*
X27251061Y19608420D01*
X27251061Y19608420D02*
X27441537Y19989372D01*
X27441537Y19989372D02*
X27632014Y20179848D01*
X27632014Y20179848D02*
X28012966Y20370324D01*
X28012966Y20370324D02*
X28965347Y20370324D01*
X28965347Y20370324D02*
X29536776Y20179848D01*
X34512776Y20179848D02*
X34131823Y20370324D01*
X34131823Y20370324D02*
X33560395Y20370324D01*
X33560395Y20370324D02*
X32988966Y20179848D01*
X32988966Y20179848D02*
X32608014Y19798896D01*
X32608014Y19798896D02*
X32417537Y19417943D01*
X32417537Y19417943D02*
X32227061Y18656039D01*
X32227061Y18656039D02*
X32227061Y18084610D01*
X32227061Y18084610D02*
X32417537Y17322705D01*
X32417537Y17322705D02*
X32608014Y16941753D01*
X32608014Y16941753D02*
X32988966Y16560800D01*
X32988966Y16560800D02*
X33560395Y16370324D01*
X33560395Y16370324D02*
X33941347Y16370324D01*
X33941347Y16370324D02*
X34512776Y16560800D01*
X34512776Y16560800D02*
X34703252Y16751277D01*
X34703252Y16751277D02*
X34703252Y18084610D01*
X34703252Y18084610D02*
X33941347Y18084610D01*
X22465537Y16370324D02*
X22465537Y20370324D01*
X22465537Y20370324D02*
X23989347Y20370324D01*
X23989347Y20370324D02*
X24370299Y20179848D01*
X24370299Y20179848D02*
X24560776Y19989372D01*
X24560776Y19989372D02*
X24751252Y19608420D01*
X24751252Y19608420D02*
X24751252Y19036991D01*
X24751252Y19036991D02*
X24560776Y18656039D01*
X24560776Y18656039D02*
X24370299Y18465562D01*
X24370299Y18465562D02*
X23989347Y18275086D01*
X23989347Y18275086D02*
X22465537Y18275086D01*
D13*
X37850320Y21745600D02*
X38136034Y21650362D01*
X38136034Y21650362D02*
X38612225Y21650362D01*
X38612225Y21650362D02*
X38802701Y21745600D01*
X38802701Y21745600D02*
X38897939Y21840839D01*
X38897939Y21840839D02*
X38993177Y22031315D01*
X38993177Y22031315D02*
X38993177Y22221791D01*
X38993177Y22221791D02*
X38897939Y22412267D01*
X38897939Y22412267D02*
X38802701Y22507505D01*
X38802701Y22507505D02*
X38612225Y22602743D01*
X38612225Y22602743D02*
X38231272Y22697981D01*
X38231272Y22697981D02*
X38040796Y22793220D01*
X38040796Y22793220D02*
X37945558Y22888458D01*
X37945558Y22888458D02*
X37850320Y23078934D01*
X37850320Y23078934D02*
X37850320Y23269410D01*
X37850320Y23269410D02*
X37945558Y23459886D01*
X37945558Y23459886D02*
X38040796Y23555124D01*
X38040796Y23555124D02*
X38231272Y23650362D01*
X38231272Y23650362D02*
X38707463Y23650362D01*
X38707463Y23650362D02*
X38993177Y23555124D01*
X39564606Y22983696D02*
X40326510Y22983696D01*
X39850320Y23650362D02*
X39850320Y21936077D01*
X39850320Y21936077D02*
X39945558Y21745600D01*
X39945558Y21745600D02*
X40136034Y21650362D01*
X40136034Y21650362D02*
X40326510Y21650362D01*
X40993177Y21650362D02*
X40993177Y22983696D01*
X40993177Y22602743D02*
X41088415Y22793220D01*
X41088415Y22793220D02*
X41183653Y22888458D01*
X41183653Y22888458D02*
X41374129Y22983696D01*
X41374129Y22983696D02*
X41564606Y22983696D01*
X42231272Y21650362D02*
X42231272Y22983696D01*
X42231272Y23650362D02*
X42136034Y23555124D01*
X42136034Y23555124D02*
X42231272Y23459886D01*
X42231272Y23459886D02*
X42326510Y23555124D01*
X42326510Y23555124D02*
X42231272Y23650362D01*
X42231272Y23650362D02*
X42231272Y23459886D01*
X43183653Y22983696D02*
X43183653Y21650362D01*
X43183653Y22793220D02*
X43278891Y22888458D01*
X43278891Y22888458D02*
X43469367Y22983696D01*
X43469367Y22983696D02*
X43755082Y22983696D01*
X43755082Y22983696D02*
X43945558Y22888458D01*
X43945558Y22888458D02*
X44040796Y22697981D01*
X44040796Y22697981D02*
X44040796Y21650362D01*
X45850320Y22983696D02*
X45850320Y21364648D01*
X45850320Y21364648D02*
X45755082Y21174172D01*
X45755082Y21174172D02*
X45659844Y21078934D01*
X45659844Y21078934D02*
X45469367Y20983696D01*
X45469367Y20983696D02*
X45183653Y20983696D01*
X45183653Y20983696D02*
X44993177Y21078934D01*
X45850320Y21745600D02*
X45659844Y21650362D01*
X45659844Y21650362D02*
X45278891Y21650362D01*
X45278891Y21650362D02*
X45088415Y21745600D01*
X45088415Y21745600D02*
X44993177Y21840839D01*
X44993177Y21840839D02*
X44897939Y22031315D01*
X44897939Y22031315D02*
X44897939Y22602743D01*
X44897939Y22602743D02*
X44993177Y22793220D01*
X44993177Y22793220D02*
X45088415Y22888458D01*
X45088415Y22888458D02*
X45278891Y22983696D01*
X45278891Y22983696D02*
X45659844Y22983696D01*
X45659844Y22983696D02*
X45850320Y22888458D01*
X48231273Y23459886D02*
X48326511Y23555124D01*
X48326511Y23555124D02*
X48516987Y23650362D01*
X48516987Y23650362D02*
X48993178Y23650362D01*
X48993178Y23650362D02*
X49183654Y23555124D01*
X49183654Y23555124D02*
X49278892Y23459886D01*
X49278892Y23459886D02*
X49374130Y23269410D01*
X49374130Y23269410D02*
X49374130Y23078934D01*
X49374130Y23078934D02*
X49278892Y22793220D01*
X49278892Y22793220D02*
X48136035Y21650362D01*
X48136035Y21650362D02*
X49374130Y21650362D01*
D12*
X42321061Y16560800D02*
X42892490Y16370324D01*
X42892490Y16370324D02*
X43844871Y16370324D01*
X43844871Y16370324D02*
X44225823Y16560800D01*
X44225823Y16560800D02*
X44416299Y16751277D01*
X44416299Y16751277D02*
X44606776Y17132229D01*
X44606776Y17132229D02*
X44606776Y17513181D01*
X44606776Y17513181D02*
X44416299Y17894134D01*
X44416299Y17894134D02*
X44225823Y18084610D01*
X44225823Y18084610D02*
X43844871Y18275086D01*
X43844871Y18275086D02*
X43082966Y18465562D01*
X43082966Y18465562D02*
X42702014Y18656039D01*
X42702014Y18656039D02*
X42511537Y18846515D01*
X42511537Y18846515D02*
X42321061Y19227467D01*
X42321061Y19227467D02*
X42321061Y19608420D01*
X42321061Y19608420D02*
X42511537Y19989372D01*
X42511537Y19989372D02*
X42702014Y20179848D01*
X42702014Y20179848D02*
X43082966Y20370324D01*
X43082966Y20370324D02*
X44035347Y20370324D01*
X44035347Y20370324D02*
X44606776Y20179848D01*
X49582776Y20179848D02*
X49201823Y20370324D01*
X49201823Y20370324D02*
X48630395Y20370324D01*
X48630395Y20370324D02*
X48058966Y20179848D01*
X48058966Y20179848D02*
X47678014Y19798896D01*
X47678014Y19798896D02*
X47487537Y19417943D01*
X47487537Y19417943D02*
X47297061Y18656039D01*
X47297061Y18656039D02*
X47297061Y18084610D01*
X47297061Y18084610D02*
X47487537Y17322705D01*
X47487537Y17322705D02*
X47678014Y16941753D01*
X47678014Y16941753D02*
X48058966Y16560800D01*
X48058966Y16560800D02*
X48630395Y16370324D01*
X48630395Y16370324D02*
X49011347Y16370324D01*
X49011347Y16370324D02*
X49582776Y16560800D01*
X49582776Y16560800D02*
X49773252Y16751277D01*
X49773252Y16751277D02*
X49773252Y18084610D01*
X49773252Y18084610D02*
X49011347Y18084610D01*
X37535537Y16370324D02*
X37535537Y20370324D01*
X37535537Y20370324D02*
X39059347Y20370324D01*
X39059347Y20370324D02*
X39440299Y20179848D01*
X39440299Y20179848D02*
X39630776Y19989372D01*
X39630776Y19989372D02*
X39821252Y19608420D01*
X39821252Y19608420D02*
X39821252Y19036991D01*
X39821252Y19036991D02*
X39630776Y18656039D01*
X39630776Y18656039D02*
X39440299Y18465562D01*
X39440299Y18465562D02*
X39059347Y18275086D01*
X39059347Y18275086D02*
X37535537Y18275086D01*
D13*
X52890320Y21745600D02*
X53176034Y21650362D01*
X53176034Y21650362D02*
X53652225Y21650362D01*
X53652225Y21650362D02*
X53842701Y21745600D01*
X53842701Y21745600D02*
X53937939Y21840839D01*
X53937939Y21840839D02*
X54033177Y22031315D01*
X54033177Y22031315D02*
X54033177Y22221791D01*
X54033177Y22221791D02*
X53937939Y22412267D01*
X53937939Y22412267D02*
X53842701Y22507505D01*
X53842701Y22507505D02*
X53652225Y22602743D01*
X53652225Y22602743D02*
X53271272Y22697981D01*
X53271272Y22697981D02*
X53080796Y22793220D01*
X53080796Y22793220D02*
X52985558Y22888458D01*
X52985558Y22888458D02*
X52890320Y23078934D01*
X52890320Y23078934D02*
X52890320Y23269410D01*
X52890320Y23269410D02*
X52985558Y23459886D01*
X52985558Y23459886D02*
X53080796Y23555124D01*
X53080796Y23555124D02*
X53271272Y23650362D01*
X53271272Y23650362D02*
X53747463Y23650362D01*
X53747463Y23650362D02*
X54033177Y23555124D01*
X54604606Y22983696D02*
X55366510Y22983696D01*
X54890320Y23650362D02*
X54890320Y21936077D01*
X54890320Y21936077D02*
X54985558Y21745600D01*
X54985558Y21745600D02*
X55176034Y21650362D01*
X55176034Y21650362D02*
X55366510Y21650362D01*
X56033177Y21650362D02*
X56033177Y22983696D01*
X56033177Y22602743D02*
X56128415Y22793220D01*
X56128415Y22793220D02*
X56223653Y22888458D01*
X56223653Y22888458D02*
X56414129Y22983696D01*
X56414129Y22983696D02*
X56604606Y22983696D01*
X57271272Y21650362D02*
X57271272Y22983696D01*
X57271272Y23650362D02*
X57176034Y23555124D01*
X57176034Y23555124D02*
X57271272Y23459886D01*
X57271272Y23459886D02*
X57366510Y23555124D01*
X57366510Y23555124D02*
X57271272Y23650362D01*
X57271272Y23650362D02*
X57271272Y23459886D01*
X58223653Y22983696D02*
X58223653Y21650362D01*
X58223653Y22793220D02*
X58318891Y22888458D01*
X58318891Y22888458D02*
X58509367Y22983696D01*
X58509367Y22983696D02*
X58795082Y22983696D01*
X58795082Y22983696D02*
X58985558Y22888458D01*
X58985558Y22888458D02*
X59080796Y22697981D01*
X59080796Y22697981D02*
X59080796Y21650362D01*
X60890320Y22983696D02*
X60890320Y21364648D01*
X60890320Y21364648D02*
X60795082Y21174172D01*
X60795082Y21174172D02*
X60699844Y21078934D01*
X60699844Y21078934D02*
X60509367Y20983696D01*
X60509367Y20983696D02*
X60223653Y20983696D01*
X60223653Y20983696D02*
X60033177Y21078934D01*
X60890320Y21745600D02*
X60699844Y21650362D01*
X60699844Y21650362D02*
X60318891Y21650362D01*
X60318891Y21650362D02*
X60128415Y21745600D01*
X60128415Y21745600D02*
X60033177Y21840839D01*
X60033177Y21840839D02*
X59937939Y22031315D01*
X59937939Y22031315D02*
X59937939Y22602743D01*
X59937939Y22602743D02*
X60033177Y22793220D01*
X60033177Y22793220D02*
X60128415Y22888458D01*
X60128415Y22888458D02*
X60318891Y22983696D01*
X60318891Y22983696D02*
X60699844Y22983696D01*
X60699844Y22983696D02*
X60890320Y22888458D01*
X63176035Y23650362D02*
X64414130Y23650362D01*
X64414130Y23650362D02*
X63747463Y22888458D01*
X63747463Y22888458D02*
X64033178Y22888458D01*
X64033178Y22888458D02*
X64223654Y22793220D01*
X64223654Y22793220D02*
X64318892Y22697981D01*
X64318892Y22697981D02*
X64414130Y22507505D01*
X64414130Y22507505D02*
X64414130Y22031315D01*
X64414130Y22031315D02*
X64318892Y21840839D01*
X64318892Y21840839D02*
X64223654Y21745600D01*
X64223654Y21745600D02*
X64033178Y21650362D01*
X64033178Y21650362D02*
X63461749Y21650362D01*
X63461749Y21650362D02*
X63271273Y21745600D01*
X63271273Y21745600D02*
X63176035Y21840839D01*
D12*
X57361061Y16560800D02*
X57932490Y16370324D01*
X57932490Y16370324D02*
X58884871Y16370324D01*
X58884871Y16370324D02*
X59265823Y16560800D01*
X59265823Y16560800D02*
X59456299Y16751277D01*
X59456299Y16751277D02*
X59646776Y17132229D01*
X59646776Y17132229D02*
X59646776Y17513181D01*
X59646776Y17513181D02*
X59456299Y17894134D01*
X59456299Y17894134D02*
X59265823Y18084610D01*
X59265823Y18084610D02*
X58884871Y18275086D01*
X58884871Y18275086D02*
X58122966Y18465562D01*
X58122966Y18465562D02*
X57742014Y18656039D01*
X57742014Y18656039D02*
X57551537Y18846515D01*
X57551537Y18846515D02*
X57361061Y19227467D01*
X57361061Y19227467D02*
X57361061Y19608420D01*
X57361061Y19608420D02*
X57551537Y19989372D01*
X57551537Y19989372D02*
X57742014Y20179848D01*
X57742014Y20179848D02*
X58122966Y20370324D01*
X58122966Y20370324D02*
X59075347Y20370324D01*
X59075347Y20370324D02*
X59646776Y20179848D01*
X64622776Y20179848D02*
X64241823Y20370324D01*
X64241823Y20370324D02*
X63670395Y20370324D01*
X63670395Y20370324D02*
X63098966Y20179848D01*
X63098966Y20179848D02*
X62718014Y19798896D01*
X62718014Y19798896D02*
X62527537Y19417943D01*
X62527537Y19417943D02*
X62337061Y18656039D01*
X62337061Y18656039D02*
X62337061Y18084610D01*
X62337061Y18084610D02*
X62527537Y17322705D01*
X62527537Y17322705D02*
X62718014Y16941753D01*
X62718014Y16941753D02*
X63098966Y16560800D01*
X63098966Y16560800D02*
X63670395Y16370324D01*
X63670395Y16370324D02*
X64051347Y16370324D01*
X64051347Y16370324D02*
X64622776Y16560800D01*
X64622776Y16560800D02*
X64813252Y16751277D01*
X64813252Y16751277D02*
X64813252Y18084610D01*
X64813252Y18084610D02*
X64051347Y18084610D01*
X52575537Y16370324D02*
X52575537Y20370324D01*
X52575537Y20370324D02*
X54099347Y20370324D01*
X54099347Y20370324D02*
X54480299Y20179848D01*
X54480299Y20179848D02*
X54670776Y19989372D01*
X54670776Y19989372D02*
X54861252Y19608420D01*
X54861252Y19608420D02*
X54861252Y19036991D01*
X54861252Y19036991D02*
X54670776Y18656039D01*
X54670776Y18656039D02*
X54480299Y18465562D01*
X54480299Y18465562D02*
X54099347Y18275086D01*
X54099347Y18275086D02*
X52575537Y18275086D01*
X72681061Y16560800D02*
X73252490Y16370324D01*
X73252490Y16370324D02*
X74204871Y16370324D01*
X74204871Y16370324D02*
X74585823Y16560800D01*
X74585823Y16560800D02*
X74776299Y16751277D01*
X74776299Y16751277D02*
X74966776Y17132229D01*
X74966776Y17132229D02*
X74966776Y17513181D01*
X74966776Y17513181D02*
X74776299Y17894134D01*
X74776299Y17894134D02*
X74585823Y18084610D01*
X74585823Y18084610D02*
X74204871Y18275086D01*
X74204871Y18275086D02*
X73442966Y18465562D01*
X73442966Y18465562D02*
X73062014Y18656039D01*
X73062014Y18656039D02*
X72871537Y18846515D01*
X72871537Y18846515D02*
X72681061Y19227467D01*
X72681061Y19227467D02*
X72681061Y19608420D01*
X72681061Y19608420D02*
X72871537Y19989372D01*
X72871537Y19989372D02*
X73062014Y20179848D01*
X73062014Y20179848D02*
X73442966Y20370324D01*
X73442966Y20370324D02*
X74395347Y20370324D01*
X74395347Y20370324D02*
X74966776Y20179848D01*
D13*
X68210320Y21745600D02*
X68496034Y21650362D01*
X68496034Y21650362D02*
X68972225Y21650362D01*
X68972225Y21650362D02*
X69162701Y21745600D01*
X69162701Y21745600D02*
X69257939Y21840839D01*
X69257939Y21840839D02*
X69353177Y22031315D01*
X69353177Y22031315D02*
X69353177Y22221791D01*
X69353177Y22221791D02*
X69257939Y22412267D01*
X69257939Y22412267D02*
X69162701Y22507505D01*
X69162701Y22507505D02*
X68972225Y22602743D01*
X68972225Y22602743D02*
X68591272Y22697981D01*
X68591272Y22697981D02*
X68400796Y22793220D01*
X68400796Y22793220D02*
X68305558Y22888458D01*
X68305558Y22888458D02*
X68210320Y23078934D01*
X68210320Y23078934D02*
X68210320Y23269410D01*
X68210320Y23269410D02*
X68305558Y23459886D01*
X68305558Y23459886D02*
X68400796Y23555124D01*
X68400796Y23555124D02*
X68591272Y23650362D01*
X68591272Y23650362D02*
X69067463Y23650362D01*
X69067463Y23650362D02*
X69353177Y23555124D01*
X69924606Y22983696D02*
X70686510Y22983696D01*
X70210320Y23650362D02*
X70210320Y21936077D01*
X70210320Y21936077D02*
X70305558Y21745600D01*
X70305558Y21745600D02*
X70496034Y21650362D01*
X70496034Y21650362D02*
X70686510Y21650362D01*
X71353177Y21650362D02*
X71353177Y22983696D01*
X71353177Y22602743D02*
X71448415Y22793220D01*
X71448415Y22793220D02*
X71543653Y22888458D01*
X71543653Y22888458D02*
X71734129Y22983696D01*
X71734129Y22983696D02*
X71924606Y22983696D01*
X72591272Y21650362D02*
X72591272Y22983696D01*
X72591272Y23650362D02*
X72496034Y23555124D01*
X72496034Y23555124D02*
X72591272Y23459886D01*
X72591272Y23459886D02*
X72686510Y23555124D01*
X72686510Y23555124D02*
X72591272Y23650362D01*
X72591272Y23650362D02*
X72591272Y23459886D01*
X73543653Y22983696D02*
X73543653Y21650362D01*
X73543653Y22793220D02*
X73638891Y22888458D01*
X73638891Y22888458D02*
X73829367Y22983696D01*
X73829367Y22983696D02*
X74115082Y22983696D01*
X74115082Y22983696D02*
X74305558Y22888458D01*
X74305558Y22888458D02*
X74400796Y22697981D01*
X74400796Y22697981D02*
X74400796Y21650362D01*
X76210320Y22983696D02*
X76210320Y21364648D01*
X76210320Y21364648D02*
X76115082Y21174172D01*
X76115082Y21174172D02*
X76019844Y21078934D01*
X76019844Y21078934D02*
X75829367Y20983696D01*
X75829367Y20983696D02*
X75543653Y20983696D01*
X75543653Y20983696D02*
X75353177Y21078934D01*
X76210320Y21745600D02*
X76019844Y21650362D01*
X76019844Y21650362D02*
X75638891Y21650362D01*
X75638891Y21650362D02*
X75448415Y21745600D01*
X75448415Y21745600D02*
X75353177Y21840839D01*
X75353177Y21840839D02*
X75257939Y22031315D01*
X75257939Y22031315D02*
X75257939Y22602743D01*
X75257939Y22602743D02*
X75353177Y22793220D01*
X75353177Y22793220D02*
X75448415Y22888458D01*
X75448415Y22888458D02*
X75638891Y22983696D01*
X75638891Y22983696D02*
X76019844Y22983696D01*
X76019844Y22983696D02*
X76210320Y22888458D01*
X79543654Y22983696D02*
X79543654Y21650362D01*
X79067463Y23745600D02*
X78591273Y22317029D01*
X78591273Y22317029D02*
X79829368Y22317029D01*
D12*
X67895537Y16370324D02*
X67895537Y20370324D01*
X67895537Y20370324D02*
X69419347Y20370324D01*
X69419347Y20370324D02*
X69800299Y20179848D01*
X69800299Y20179848D02*
X69990776Y19989372D01*
X69990776Y19989372D02*
X70181252Y19608420D01*
X70181252Y19608420D02*
X70181252Y19036991D01*
X70181252Y19036991D02*
X69990776Y18656039D01*
X69990776Y18656039D02*
X69800299Y18465562D01*
X69800299Y18465562D02*
X69419347Y18275086D01*
X69419347Y18275086D02*
X67895537Y18275086D01*
X79942776Y20179848D02*
X79561823Y20370324D01*
X79561823Y20370324D02*
X78990395Y20370324D01*
X78990395Y20370324D02*
X78418966Y20179848D01*
X78418966Y20179848D02*
X78038014Y19798896D01*
X78038014Y19798896D02*
X77847537Y19417943D01*
X77847537Y19417943D02*
X77657061Y18656039D01*
X77657061Y18656039D02*
X77657061Y18084610D01*
X77657061Y18084610D02*
X77847537Y17322705D01*
X77847537Y17322705D02*
X78038014Y16941753D01*
X78038014Y16941753D02*
X78418966Y16560800D01*
X78418966Y16560800D02*
X78990395Y16370324D01*
X78990395Y16370324D02*
X79371347Y16370324D01*
X79371347Y16370324D02*
X79942776Y16560800D01*
X79942776Y16560800D02*
X80133252Y16751277D01*
X80133252Y16751277D02*
X80133252Y18084610D01*
X80133252Y18084610D02*
X79371347Y18084610D01*
D14*
X51486666Y14272581D02*
X51486666Y13558296D01*
X51486666Y13558296D02*
X51439047Y13415439D01*
X51439047Y13415439D02*
X51343809Y13320200D01*
X51343809Y13320200D02*
X51200952Y13272581D01*
X51200952Y13272581D02*
X51105714Y13272581D01*
X51915238Y14177343D02*
X51962857Y14224962D01*
X51962857Y14224962D02*
X52058095Y14272581D01*
X52058095Y14272581D02*
X52296190Y14272581D01*
X52296190Y14272581D02*
X52391428Y14224962D01*
X52391428Y14224962D02*
X52439047Y14177343D01*
X52439047Y14177343D02*
X52486666Y14082105D01*
X52486666Y14082105D02*
X52486666Y13986867D01*
X52486666Y13986867D02*
X52439047Y13844010D01*
X52439047Y13844010D02*
X51867619Y13272581D01*
X51867619Y13272581D02*
X52486666Y13272581D01*
X11386666Y14242581D02*
X11386666Y13528296D01*
X11386666Y13528296D02*
X11339047Y13385439D01*
X11339047Y13385439D02*
X11243809Y13290200D01*
X11243809Y13290200D02*
X11100952Y13242581D01*
X11100952Y13242581D02*
X11005714Y13242581D01*
X11767619Y14242581D02*
X12386666Y14242581D01*
X12386666Y14242581D02*
X12053333Y13861629D01*
X12053333Y13861629D02*
X12196190Y13861629D01*
X12196190Y13861629D02*
X12291428Y13814010D01*
X12291428Y13814010D02*
X12339047Y13766391D01*
X12339047Y13766391D02*
X12386666Y13671153D01*
X12386666Y13671153D02*
X12386666Y13433058D01*
X12386666Y13433058D02*
X12339047Y13337820D01*
X12339047Y13337820D02*
X12291428Y13290200D01*
X12291428Y13290200D02*
X12196190Y13242581D01*
X12196190Y13242581D02*
X11910476Y13242581D01*
X11910476Y13242581D02*
X11815238Y13290200D01*
X11815238Y13290200D02*
X11767619Y13337820D01*
D11*
X33059065Y74660075D02*
X33696486Y74660075D01*
X33696486Y74660075D02*
X33771476Y74697570D01*
X33771476Y74697570D02*
X33808972Y74735066D01*
X33808972Y74735066D02*
X33846467Y74810056D01*
X33846467Y74810056D02*
X33846467Y74960038D01*
X33846467Y74960038D02*
X33808972Y75035028D01*
X33808972Y75035028D02*
X33771476Y75072524D01*
X33771476Y75072524D02*
X33696486Y75110019D01*
X33696486Y75110019D02*
X33059065Y75110019D01*
X33059065Y75409981D02*
X33059065Y75897421D01*
X33059065Y75897421D02*
X33359028Y75634953D01*
X33359028Y75634953D02*
X33359028Y75747439D01*
X33359028Y75747439D02*
X33396523Y75822430D01*
X33396523Y75822430D02*
X33434018Y75859925D01*
X33434018Y75859925D02*
X33509009Y75897421D01*
X33509009Y75897421D02*
X33696486Y75897421D01*
X33696486Y75897421D02*
X33771476Y75859925D01*
X33771476Y75859925D02*
X33808972Y75822430D01*
X33808972Y75822430D02*
X33846467Y75747439D01*
X33846467Y75747439D02*
X33846467Y75522467D01*
X33846467Y75522467D02*
X33808972Y75447477D01*
X33808972Y75447477D02*
X33771476Y75409981D01*
X24260835Y66877256D02*
X25010835Y66877256D01*
X25010835Y66377256D02*
X25010835Y66234399D01*
X25010835Y66234399D02*
X24975121Y66162970D01*
X24975121Y66162970D02*
X24903692Y66091542D01*
X24903692Y66091542D02*
X24760835Y66055827D01*
X24760835Y66055827D02*
X24510835Y66055827D01*
X24510835Y66055827D02*
X24367978Y66091542D01*
X24367978Y66091542D02*
X24296550Y66162970D01*
X24296550Y66162970D02*
X24260835Y66234399D01*
X24260835Y66234399D02*
X24260835Y66377256D01*
X24260835Y66377256D02*
X24296550Y66448684D01*
X24296550Y66448684D02*
X24367978Y66520113D01*
X24367978Y66520113D02*
X24510835Y66555827D01*
X24510835Y66555827D02*
X24760835Y66555827D01*
X24760835Y66555827D02*
X24903692Y66520113D01*
X24903692Y66520113D02*
X24975121Y66448684D01*
X24975121Y66448684D02*
X25010835Y66377256D01*
X24939407Y65770113D02*
X24975121Y65734399D01*
X24975121Y65734399D02*
X25010835Y65662970D01*
X25010835Y65662970D02*
X25010835Y65484399D01*
X25010835Y65484399D02*
X24975121Y65412970D01*
X24975121Y65412970D02*
X24939407Y65377256D01*
X24939407Y65377256D02*
X24867978Y65341542D01*
X24867978Y65341542D02*
X24796550Y65341542D01*
X24796550Y65341542D02*
X24689407Y65377256D01*
X24689407Y65377256D02*
X24260835Y65805828D01*
X24260835Y65805828D02*
X24260835Y65341542D01*
X42040835Y85142745D02*
X42790835Y85142745D01*
X42790835Y84642745D02*
X42790835Y84499888D01*
X42790835Y84499888D02*
X42755121Y84428459D01*
X42755121Y84428459D02*
X42683692Y84357031D01*
X42683692Y84357031D02*
X42540835Y84321316D01*
X42540835Y84321316D02*
X42290835Y84321316D01*
X42290835Y84321316D02*
X42147978Y84357031D01*
X42147978Y84357031D02*
X42076550Y84428459D01*
X42076550Y84428459D02*
X42040835Y84499888D01*
X42040835Y84499888D02*
X42040835Y84642745D01*
X42040835Y84642745D02*
X42076550Y84714173D01*
X42076550Y84714173D02*
X42147978Y84785602D01*
X42147978Y84785602D02*
X42290835Y84821316D01*
X42290835Y84821316D02*
X42540835Y84821316D01*
X42540835Y84821316D02*
X42683692Y84785602D01*
X42683692Y84785602D02*
X42755121Y84714173D01*
X42755121Y84714173D02*
X42790835Y84642745D01*
X42790835Y84071317D02*
X42790835Y83607031D01*
X42790835Y83607031D02*
X42505121Y83857031D01*
X42505121Y83857031D02*
X42505121Y83749888D01*
X42505121Y83749888D02*
X42469407Y83678459D01*
X42469407Y83678459D02*
X42433692Y83642745D01*
X42433692Y83642745D02*
X42362264Y83607031D01*
X42362264Y83607031D02*
X42183692Y83607031D01*
X42183692Y83607031D02*
X42112264Y83642745D01*
X42112264Y83642745D02*
X42076550Y83678459D01*
X42076550Y83678459D02*
X42040835Y83749888D01*
X42040835Y83749888D02*
X42040835Y83964174D01*
X42040835Y83964174D02*
X42076550Y84035602D01*
X42076550Y84035602D02*
X42112264Y84071317D01*
X42719407Y83321316D02*
X42755121Y83285602D01*
X42755121Y83285602D02*
X42790835Y83214173D01*
X42790835Y83214173D02*
X42790835Y83035602D01*
X42790835Y83035602D02*
X42755121Y82964173D01*
X42755121Y82964173D02*
X42719407Y82928459D01*
X42719407Y82928459D02*
X42647978Y82892745D01*
X42647978Y82892745D02*
X42576550Y82892745D01*
X42576550Y82892745D02*
X42469407Y82928459D01*
X42469407Y82928459D02*
X42040835Y83357031D01*
X42040835Y83357031D02*
X42040835Y82892745D01*
X36960835Y67591542D02*
X37710835Y67591542D01*
X37710835Y67091542D02*
X37710835Y66948685D01*
X37710835Y66948685D02*
X37675121Y66877256D01*
X37675121Y66877256D02*
X37603692Y66805828D01*
X37603692Y66805828D02*
X37460835Y66770113D01*
X37460835Y66770113D02*
X37210835Y66770113D01*
X37210835Y66770113D02*
X37067978Y66805828D01*
X37067978Y66805828D02*
X36996550Y66877256D01*
X36996550Y66877256D02*
X36960835Y66948685D01*
X36960835Y66948685D02*
X36960835Y67091542D01*
X36960835Y67091542D02*
X36996550Y67162970D01*
X36996550Y67162970D02*
X37067978Y67234399D01*
X37067978Y67234399D02*
X37210835Y67270113D01*
X37210835Y67270113D02*
X37460835Y67270113D01*
X37460835Y67270113D02*
X37603692Y67234399D01*
X37603692Y67234399D02*
X37675121Y67162970D01*
X37675121Y67162970D02*
X37710835Y67091542D01*
X36960835Y66055828D02*
X36960835Y66484399D01*
X36960835Y66270114D02*
X37710835Y66270114D01*
X37710835Y66270114D02*
X37603692Y66341542D01*
X37603692Y66341542D02*
X37532264Y66412971D01*
X37532264Y66412971D02*
X37496550Y66484399D01*
X37710835Y65377256D02*
X37710835Y65734399D01*
X37710835Y65734399D02*
X37353692Y65770113D01*
X37353692Y65770113D02*
X37389407Y65734399D01*
X37389407Y65734399D02*
X37425121Y65662970D01*
X37425121Y65662970D02*
X37425121Y65484399D01*
X37425121Y65484399D02*
X37389407Y65412970D01*
X37389407Y65412970D02*
X37353692Y65377256D01*
X37353692Y65377256D02*
X37282264Y65341542D01*
X37282264Y65341542D02*
X37103692Y65341542D01*
X37103692Y65341542D02*
X37032264Y65377256D01*
X37032264Y65377256D02*
X36996550Y65412970D01*
X36996550Y65412970D02*
X36960835Y65484399D01*
X36960835Y65484399D02*
X36960835Y65662970D01*
X36960835Y65662970D02*
X36996550Y65734399D01*
X36996550Y65734399D02*
X37032264Y65770113D01*
X25010835Y84785602D02*
X25010835Y85142745D01*
X25010835Y85142745D02*
X24653692Y85178459D01*
X24653692Y85178459D02*
X24689407Y85142745D01*
X24689407Y85142745D02*
X24725121Y85071316D01*
X24725121Y85071316D02*
X24725121Y84892745D01*
X24725121Y84892745D02*
X24689407Y84821316D01*
X24689407Y84821316D02*
X24653692Y84785602D01*
X24653692Y84785602D02*
X24582264Y84749888D01*
X24582264Y84749888D02*
X24403692Y84749888D01*
X24403692Y84749888D02*
X24332264Y84785602D01*
X24332264Y84785602D02*
X24296550Y84821316D01*
X24296550Y84821316D02*
X24260835Y84892745D01*
X24260835Y84892745D02*
X24260835Y85071316D01*
X24260835Y85071316D02*
X24296550Y85142745D01*
X24296550Y85142745D02*
X24332264Y85178459D01*
X25010835Y84535602D02*
X24260835Y84285602D01*
X24260835Y84285602D02*
X25010835Y84035602D01*
X27515121Y84749888D02*
X27550835Y84821316D01*
X27550835Y84821316D02*
X27550835Y84928459D01*
X27550835Y84928459D02*
X27515121Y85035602D01*
X27515121Y85035602D02*
X27443692Y85107031D01*
X27443692Y85107031D02*
X27372264Y85142745D01*
X27372264Y85142745D02*
X27229407Y85178459D01*
X27229407Y85178459D02*
X27122264Y85178459D01*
X27122264Y85178459D02*
X26979407Y85142745D01*
X26979407Y85142745D02*
X26907978Y85107031D01*
X26907978Y85107031D02*
X26836550Y85035602D01*
X26836550Y85035602D02*
X26800835Y84928459D01*
X26800835Y84928459D02*
X26800835Y84857031D01*
X26800835Y84857031D02*
X26836550Y84749888D01*
X26836550Y84749888D02*
X26872264Y84714174D01*
X26872264Y84714174D02*
X27122264Y84714174D01*
X27122264Y84714174D02*
X27122264Y84857031D01*
X26800835Y84392745D02*
X27550835Y84392745D01*
X27550835Y84392745D02*
X26800835Y83964174D01*
X26800835Y83964174D02*
X27550835Y83964174D01*
X26800835Y83607031D02*
X27550835Y83607031D01*
X27550835Y83607031D02*
X27550835Y83428460D01*
X27550835Y83428460D02*
X27515121Y83321317D01*
X27515121Y83321317D02*
X27443692Y83249888D01*
X27443692Y83249888D02*
X27372264Y83214174D01*
X27372264Y83214174D02*
X27229407Y83178460D01*
X27229407Y83178460D02*
X27122264Y83178460D01*
X27122264Y83178460D02*
X26979407Y83214174D01*
X26979407Y83214174D02*
X26907978Y83249888D01*
X26907978Y83249888D02*
X26836550Y83321317D01*
X26836550Y83321317D02*
X26800835Y83428460D01*
X26800835Y83428460D02*
X26800835Y83607031D01*
X45295121Y66912970D02*
X45330835Y66984398D01*
X45330835Y66984398D02*
X45330835Y67091541D01*
X45330835Y67091541D02*
X45295121Y67198684D01*
X45295121Y67198684D02*
X45223692Y67270113D01*
X45223692Y67270113D02*
X45152264Y67305827D01*
X45152264Y67305827D02*
X45009407Y67341541D01*
X45009407Y67341541D02*
X44902264Y67341541D01*
X44902264Y67341541D02*
X44759407Y67305827D01*
X44759407Y67305827D02*
X44687978Y67270113D01*
X44687978Y67270113D02*
X44616550Y67198684D01*
X44616550Y67198684D02*
X44580835Y67091541D01*
X44580835Y67091541D02*
X44580835Y67020113D01*
X44580835Y67020113D02*
X44616550Y66912970D01*
X44616550Y66912970D02*
X44652264Y66877256D01*
X44652264Y66877256D02*
X44902264Y66877256D01*
X44902264Y66877256D02*
X44902264Y67020113D01*
X44580835Y66555827D02*
X45330835Y66555827D01*
X45330835Y66555827D02*
X44580835Y66127256D01*
X44580835Y66127256D02*
X45330835Y66127256D01*
X44580835Y65770113D02*
X45330835Y65770113D01*
X45330835Y65770113D02*
X45330835Y65591542D01*
X45330835Y65591542D02*
X45295121Y65484399D01*
X45295121Y65484399D02*
X45223692Y65412970D01*
X45223692Y65412970D02*
X45152264Y65377256D01*
X45152264Y65377256D02*
X45009407Y65341542D01*
X45009407Y65341542D02*
X44902264Y65341542D01*
X44902264Y65341542D02*
X44759407Y65377256D01*
X44759407Y65377256D02*
X44687978Y65412970D01*
X44687978Y65412970D02*
X44616550Y65484399D01*
X44616550Y65484399D02*
X44580835Y65591542D01*
X44580835Y65591542D02*
X44580835Y65770113D01*
X29340835Y67591542D02*
X30090835Y67591542D01*
X30090835Y67091542D02*
X30090835Y66948685D01*
X30090835Y66948685D02*
X30055121Y66877256D01*
X30055121Y66877256D02*
X29983692Y66805828D01*
X29983692Y66805828D02*
X29840835Y66770113D01*
X29840835Y66770113D02*
X29590835Y66770113D01*
X29590835Y66770113D02*
X29447978Y66805828D01*
X29447978Y66805828D02*
X29376550Y66877256D01*
X29376550Y66877256D02*
X29340835Y66948685D01*
X29340835Y66948685D02*
X29340835Y67091542D01*
X29340835Y67091542D02*
X29376550Y67162970D01*
X29376550Y67162970D02*
X29447978Y67234399D01*
X29447978Y67234399D02*
X29590835Y67270113D01*
X29590835Y67270113D02*
X29840835Y67270113D01*
X29840835Y67270113D02*
X29983692Y67234399D01*
X29983692Y67234399D02*
X30055121Y67162970D01*
X30055121Y67162970D02*
X30090835Y67091542D01*
X30090835Y66520114D02*
X30090835Y66055828D01*
X30090835Y66055828D02*
X29805121Y66305828D01*
X29805121Y66305828D02*
X29805121Y66198685D01*
X29805121Y66198685D02*
X29769407Y66127256D01*
X29769407Y66127256D02*
X29733692Y66091542D01*
X29733692Y66091542D02*
X29662264Y66055828D01*
X29662264Y66055828D02*
X29483692Y66055828D01*
X29483692Y66055828D02*
X29412264Y66091542D01*
X29412264Y66091542D02*
X29376550Y66127256D01*
X29376550Y66127256D02*
X29340835Y66198685D01*
X29340835Y66198685D02*
X29340835Y66412971D01*
X29340835Y66412971D02*
X29376550Y66484399D01*
X29376550Y66484399D02*
X29412264Y66520114D01*
X30090835Y65377256D02*
X30090835Y65734399D01*
X30090835Y65734399D02*
X29733692Y65770113D01*
X29733692Y65770113D02*
X29769407Y65734399D01*
X29769407Y65734399D02*
X29805121Y65662970D01*
X29805121Y65662970D02*
X29805121Y65484399D01*
X29805121Y65484399D02*
X29769407Y65412970D01*
X29769407Y65412970D02*
X29733692Y65377256D01*
X29733692Y65377256D02*
X29662264Y65341542D01*
X29662264Y65341542D02*
X29483692Y65341542D01*
X29483692Y65341542D02*
X29412264Y65377256D01*
X29412264Y65377256D02*
X29376550Y65412970D01*
X29376550Y65412970D02*
X29340835Y65484399D01*
X29340835Y65484399D02*
X29340835Y65662970D01*
X29340835Y65662970D02*
X29376550Y65734399D01*
X29376550Y65734399D02*
X29412264Y65770113D01*
D14*
X13982580Y78331430D02*
X14458771Y78664763D01*
X13982580Y78902858D02*
X14982580Y78902858D01*
X14982580Y78902858D02*
X14982580Y78521906D01*
X14982580Y78521906D02*
X14934961Y78426668D01*
X14934961Y78426668D02*
X14887342Y78379049D01*
X14887342Y78379049D02*
X14792104Y78331430D01*
X14792104Y78331430D02*
X14649247Y78331430D01*
X14649247Y78331430D02*
X14554009Y78379049D01*
X14554009Y78379049D02*
X14506390Y78426668D01*
X14506390Y78426668D02*
X14458771Y78521906D01*
X14458771Y78521906D02*
X14458771Y78902858D01*
X14982580Y77617144D02*
X14268295Y77617144D01*
X14268295Y77617144D02*
X14125438Y77664763D01*
X14125438Y77664763D02*
X14030200Y77760001D01*
X14030200Y77760001D02*
X13982580Y77902858D01*
X13982580Y77902858D02*
X13982580Y77998096D01*
X14649247Y76712382D02*
X13982580Y76712382D01*
X15030200Y76950477D02*
X14315914Y77188572D01*
X14315914Y77188572D02*
X14315914Y76569525D01*
X14982580Y75712382D02*
X14982580Y76188572D01*
X14982580Y76188572D02*
X14506390Y76236191D01*
X14506390Y76236191D02*
X14554009Y76188572D01*
X14554009Y76188572D02*
X14601628Y76093334D01*
X14601628Y76093334D02*
X14601628Y75855239D01*
X14601628Y75855239D02*
X14554009Y75760001D01*
X14554009Y75760001D02*
X14506390Y75712382D01*
X14506390Y75712382D02*
X14411152Y75664763D01*
X14411152Y75664763D02*
X14173057Y75664763D01*
X14173057Y75664763D02*
X14077819Y75712382D01*
X14077819Y75712382D02*
X14030200Y75760001D01*
X14030200Y75760001D02*
X13982580Y75855239D01*
X13982580Y75855239D02*
X13982580Y76093334D01*
X13982580Y76093334D02*
X14030200Y76188572D01*
X14030200Y76188572D02*
X14077819Y76236191D01*
X14982580Y74188572D02*
X14268295Y74188572D01*
X14268295Y74188572D02*
X14125438Y74236191D01*
X14125438Y74236191D02*
X14030200Y74331429D01*
X14030200Y74331429D02*
X13982580Y74474286D01*
X13982580Y74474286D02*
X13982580Y74569524D01*
X13982580Y73283810D02*
X14506390Y73283810D01*
X14506390Y73283810D02*
X14601628Y73331429D01*
X14601628Y73331429D02*
X14649247Y73426667D01*
X14649247Y73426667D02*
X14649247Y73617143D01*
X14649247Y73617143D02*
X14601628Y73712381D01*
X14030200Y73283810D02*
X13982580Y73379048D01*
X13982580Y73379048D02*
X13982580Y73617143D01*
X13982580Y73617143D02*
X14030200Y73712381D01*
X14030200Y73712381D02*
X14125438Y73760000D01*
X14125438Y73760000D02*
X14220676Y73760000D01*
X14220676Y73760000D02*
X14315914Y73712381D01*
X14315914Y73712381D02*
X14363533Y73617143D01*
X14363533Y73617143D02*
X14363533Y73379048D01*
X14363533Y73379048D02*
X14411152Y73283810D01*
X14030200Y72379048D02*
X13982580Y72474286D01*
X13982580Y72474286D02*
X13982580Y72664762D01*
X13982580Y72664762D02*
X14030200Y72760000D01*
X14030200Y72760000D02*
X14077819Y72807619D01*
X14077819Y72807619D02*
X14173057Y72855238D01*
X14173057Y72855238D02*
X14458771Y72855238D01*
X14458771Y72855238D02*
X14554009Y72807619D01*
X14554009Y72807619D02*
X14601628Y72760000D01*
X14601628Y72760000D02*
X14649247Y72664762D01*
X14649247Y72664762D02*
X14649247Y72474286D01*
X14649247Y72474286D02*
X14601628Y72379048D01*
X13982580Y71950476D02*
X14982580Y71950476D01*
X14363533Y71855238D02*
X13982580Y71569524D01*
X14649247Y71569524D02*
X14268295Y71950476D01*
D11*
X39500835Y67591542D02*
X40250835Y67591542D01*
X40250835Y67091542D02*
X40250835Y66948685D01*
X40250835Y66948685D02*
X40215121Y66877256D01*
X40215121Y66877256D02*
X40143692Y66805828D01*
X40143692Y66805828D02*
X40000835Y66770113D01*
X40000835Y66770113D02*
X39750835Y66770113D01*
X39750835Y66770113D02*
X39607978Y66805828D01*
X39607978Y66805828D02*
X39536550Y66877256D01*
X39536550Y66877256D02*
X39500835Y66948685D01*
X39500835Y66948685D02*
X39500835Y67091542D01*
X39500835Y67091542D02*
X39536550Y67162970D01*
X39536550Y67162970D02*
X39607978Y67234399D01*
X39607978Y67234399D02*
X39750835Y67270113D01*
X39750835Y67270113D02*
X40000835Y67270113D01*
X40000835Y67270113D02*
X40143692Y67234399D01*
X40143692Y67234399D02*
X40215121Y67162970D01*
X40215121Y67162970D02*
X40250835Y67091542D01*
X40250835Y66520114D02*
X40250835Y66055828D01*
X40250835Y66055828D02*
X39965121Y66305828D01*
X39965121Y66305828D02*
X39965121Y66198685D01*
X39965121Y66198685D02*
X39929407Y66127256D01*
X39929407Y66127256D02*
X39893692Y66091542D01*
X39893692Y66091542D02*
X39822264Y66055828D01*
X39822264Y66055828D02*
X39643692Y66055828D01*
X39643692Y66055828D02*
X39572264Y66091542D01*
X39572264Y66091542D02*
X39536550Y66127256D01*
X39536550Y66127256D02*
X39500835Y66198685D01*
X39500835Y66198685D02*
X39500835Y66412971D01*
X39500835Y66412971D02*
X39536550Y66484399D01*
X39536550Y66484399D02*
X39572264Y66520114D01*
X40250835Y65412970D02*
X40250835Y65555828D01*
X40250835Y65555828D02*
X40215121Y65627256D01*
X40215121Y65627256D02*
X40179407Y65662970D01*
X40179407Y65662970D02*
X40072264Y65734399D01*
X40072264Y65734399D02*
X39929407Y65770113D01*
X39929407Y65770113D02*
X39643692Y65770113D01*
X39643692Y65770113D02*
X39572264Y65734399D01*
X39572264Y65734399D02*
X39536550Y65698685D01*
X39536550Y65698685D02*
X39500835Y65627256D01*
X39500835Y65627256D02*
X39500835Y65484399D01*
X39500835Y65484399D02*
X39536550Y65412970D01*
X39536550Y65412970D02*
X39572264Y65377256D01*
X39572264Y65377256D02*
X39643692Y65341542D01*
X39643692Y65341542D02*
X39822264Y65341542D01*
X39822264Y65341542D02*
X39893692Y65377256D01*
X39893692Y65377256D02*
X39929407Y65412970D01*
X39929407Y65412970D02*
X39965121Y65484399D01*
X39965121Y65484399D02*
X39965121Y65627256D01*
X39965121Y65627256D02*
X39929407Y65698685D01*
X39929407Y65698685D02*
X39893692Y65734399D01*
X39893692Y65734399D02*
X39822264Y65770113D01*
X22435121Y66912970D02*
X22470835Y66984398D01*
X22470835Y66984398D02*
X22470835Y67091541D01*
X22470835Y67091541D02*
X22435121Y67198684D01*
X22435121Y67198684D02*
X22363692Y67270113D01*
X22363692Y67270113D02*
X22292264Y67305827D01*
X22292264Y67305827D02*
X22149407Y67341541D01*
X22149407Y67341541D02*
X22042264Y67341541D01*
X22042264Y67341541D02*
X21899407Y67305827D01*
X21899407Y67305827D02*
X21827978Y67270113D01*
X21827978Y67270113D02*
X21756550Y67198684D01*
X21756550Y67198684D02*
X21720835Y67091541D01*
X21720835Y67091541D02*
X21720835Y67020113D01*
X21720835Y67020113D02*
X21756550Y66912970D01*
X21756550Y66912970D02*
X21792264Y66877256D01*
X21792264Y66877256D02*
X22042264Y66877256D01*
X22042264Y66877256D02*
X22042264Y67020113D01*
X21720835Y66555827D02*
X22470835Y66555827D01*
X22470835Y66555827D02*
X21720835Y66127256D01*
X21720835Y66127256D02*
X22470835Y66127256D01*
X21720835Y65770113D02*
X22470835Y65770113D01*
X22470835Y65770113D02*
X22470835Y65591542D01*
X22470835Y65591542D02*
X22435121Y65484399D01*
X22435121Y65484399D02*
X22363692Y65412970D01*
X22363692Y65412970D02*
X22292264Y65377256D01*
X22292264Y65377256D02*
X22149407Y65341542D01*
X22149407Y65341542D02*
X22042264Y65341542D01*
X22042264Y65341542D02*
X21899407Y65377256D01*
X21899407Y65377256D02*
X21827978Y65412970D01*
X21827978Y65412970D02*
X21756550Y65484399D01*
X21756550Y65484399D02*
X21720835Y65591542D01*
X21720835Y65591542D02*
X21720835Y65770113D01*
X34420835Y85142745D02*
X35170835Y85142745D01*
X35170835Y84642745D02*
X35170835Y84499888D01*
X35170835Y84499888D02*
X35135121Y84428459D01*
X35135121Y84428459D02*
X35063692Y84357031D01*
X35063692Y84357031D02*
X34920835Y84321316D01*
X34920835Y84321316D02*
X34670835Y84321316D01*
X34670835Y84321316D02*
X34527978Y84357031D01*
X34527978Y84357031D02*
X34456550Y84428459D01*
X34456550Y84428459D02*
X34420835Y84499888D01*
X34420835Y84499888D02*
X34420835Y84642745D01*
X34420835Y84642745D02*
X34456550Y84714173D01*
X34456550Y84714173D02*
X34527978Y84785602D01*
X34527978Y84785602D02*
X34670835Y84821316D01*
X34670835Y84821316D02*
X34920835Y84821316D01*
X34920835Y84821316D02*
X35063692Y84785602D01*
X35063692Y84785602D02*
X35135121Y84714173D01*
X35135121Y84714173D02*
X35170835Y84642745D01*
X34420835Y83607031D02*
X34420835Y84035602D01*
X34420835Y83821317D02*
X35170835Y83821317D01*
X35170835Y83821317D02*
X35063692Y83892745D01*
X35063692Y83892745D02*
X34992264Y83964174D01*
X34992264Y83964174D02*
X34956550Y84035602D01*
X35170835Y83357031D02*
X35170835Y82857031D01*
X35170835Y82857031D02*
X34420835Y83178459D01*
X44973692Y85142745D02*
X44973692Y84892745D01*
X44580835Y84785602D02*
X44580835Y85142745D01*
X44580835Y85142745D02*
X45330835Y85142745D01*
X45330835Y85142745D02*
X45330835Y84785602D01*
X44580835Y84464174D02*
X45330835Y84464174D01*
X45330835Y84464174D02*
X44580835Y84035603D01*
X44580835Y84035603D02*
X45330835Y84035603D01*
X26800835Y66877256D02*
X27550835Y66877256D01*
X27550835Y66377256D02*
X27550835Y66234399D01*
X27550835Y66234399D02*
X27515121Y66162970D01*
X27515121Y66162970D02*
X27443692Y66091542D01*
X27443692Y66091542D02*
X27300835Y66055827D01*
X27300835Y66055827D02*
X27050835Y66055827D01*
X27050835Y66055827D02*
X26907978Y66091542D01*
X26907978Y66091542D02*
X26836550Y66162970D01*
X26836550Y66162970D02*
X26800835Y66234399D01*
X26800835Y66234399D02*
X26800835Y66377256D01*
X26800835Y66377256D02*
X26836550Y66448684D01*
X26836550Y66448684D02*
X26907978Y66520113D01*
X26907978Y66520113D02*
X27050835Y66555827D01*
X27050835Y66555827D02*
X27300835Y66555827D01*
X27300835Y66555827D02*
X27443692Y66520113D01*
X27443692Y66520113D02*
X27515121Y66448684D01*
X27515121Y66448684D02*
X27550835Y66377256D01*
X27300835Y65412970D02*
X26800835Y65412970D01*
X27586550Y65591542D02*
X27050835Y65770113D01*
X27050835Y65770113D02*
X27050835Y65305828D01*
X30090835Y85214174D02*
X30090835Y84749888D01*
X30090835Y84749888D02*
X29805121Y84999888D01*
X29805121Y84999888D02*
X29805121Y84892745D01*
X29805121Y84892745D02*
X29769407Y84821316D01*
X29769407Y84821316D02*
X29733692Y84785602D01*
X29733692Y84785602D02*
X29662264Y84749888D01*
X29662264Y84749888D02*
X29483692Y84749888D01*
X29483692Y84749888D02*
X29412264Y84785602D01*
X29412264Y84785602D02*
X29376550Y84821316D01*
X29376550Y84821316D02*
X29340835Y84892745D01*
X29340835Y84892745D02*
X29340835Y85107031D01*
X29340835Y85107031D02*
X29376550Y85178459D01*
X29376550Y85178459D02*
X29412264Y85214174D01*
X30090835Y84535602D02*
X29340835Y84285602D01*
X29340835Y84285602D02*
X30090835Y84035602D01*
X30090835Y83857031D02*
X30090835Y83392745D01*
X30090835Y83392745D02*
X29805121Y83642745D01*
X29805121Y83642745D02*
X29805121Y83535602D01*
X29805121Y83535602D02*
X29769407Y83464173D01*
X29769407Y83464173D02*
X29733692Y83428459D01*
X29733692Y83428459D02*
X29662264Y83392745D01*
X29662264Y83392745D02*
X29483692Y83392745D01*
X29483692Y83392745D02*
X29412264Y83428459D01*
X29412264Y83428459D02*
X29376550Y83464173D01*
X29376550Y83464173D02*
X29340835Y83535602D01*
X29340835Y83535602D02*
X29340835Y83749888D01*
X29340835Y83749888D02*
X29376550Y83821316D01*
X29376550Y83821316D02*
X29412264Y83857031D01*
X32595121Y84749888D02*
X32630835Y84821316D01*
X32630835Y84821316D02*
X32630835Y84928459D01*
X32630835Y84928459D02*
X32595121Y85035602D01*
X32595121Y85035602D02*
X32523692Y85107031D01*
X32523692Y85107031D02*
X32452264Y85142745D01*
X32452264Y85142745D02*
X32309407Y85178459D01*
X32309407Y85178459D02*
X32202264Y85178459D01*
X32202264Y85178459D02*
X32059407Y85142745D01*
X32059407Y85142745D02*
X31987978Y85107031D01*
X31987978Y85107031D02*
X31916550Y85035602D01*
X31916550Y85035602D02*
X31880835Y84928459D01*
X31880835Y84928459D02*
X31880835Y84857031D01*
X31880835Y84857031D02*
X31916550Y84749888D01*
X31916550Y84749888D02*
X31952264Y84714174D01*
X31952264Y84714174D02*
X32202264Y84714174D01*
X32202264Y84714174D02*
X32202264Y84857031D01*
X31880835Y84392745D02*
X32630835Y84392745D01*
X32630835Y84392745D02*
X31880835Y83964174D01*
X31880835Y83964174D02*
X32630835Y83964174D01*
X31880835Y83607031D02*
X32630835Y83607031D01*
X32630835Y83607031D02*
X32630835Y83428460D01*
X32630835Y83428460D02*
X32595121Y83321317D01*
X32595121Y83321317D02*
X32523692Y83249888D01*
X32523692Y83249888D02*
X32452264Y83214174D01*
X32452264Y83214174D02*
X32309407Y83178460D01*
X32309407Y83178460D02*
X32202264Y83178460D01*
X32202264Y83178460D02*
X32059407Y83214174D01*
X32059407Y83214174D02*
X31987978Y83249888D01*
X31987978Y83249888D02*
X31916550Y83321317D01*
X31916550Y83321317D02*
X31880835Y83428460D01*
X31880835Y83428460D02*
X31880835Y83607031D01*
X42040835Y67591542D02*
X42790835Y67591542D01*
X42790835Y67091542D02*
X42790835Y66948685D01*
X42790835Y66948685D02*
X42755121Y66877256D01*
X42755121Y66877256D02*
X42683692Y66805828D01*
X42683692Y66805828D02*
X42540835Y66770113D01*
X42540835Y66770113D02*
X42290835Y66770113D01*
X42290835Y66770113D02*
X42147978Y66805828D01*
X42147978Y66805828D02*
X42076550Y66877256D01*
X42076550Y66877256D02*
X42040835Y66948685D01*
X42040835Y66948685D02*
X42040835Y67091542D01*
X42040835Y67091542D02*
X42076550Y67162970D01*
X42076550Y67162970D02*
X42147978Y67234399D01*
X42147978Y67234399D02*
X42290835Y67270113D01*
X42290835Y67270113D02*
X42540835Y67270113D01*
X42540835Y67270113D02*
X42683692Y67234399D01*
X42683692Y67234399D02*
X42755121Y67162970D01*
X42755121Y67162970D02*
X42790835Y67091542D01*
X42790835Y66520114D02*
X42790835Y66055828D01*
X42790835Y66055828D02*
X42505121Y66305828D01*
X42505121Y66305828D02*
X42505121Y66198685D01*
X42505121Y66198685D02*
X42469407Y66127256D01*
X42469407Y66127256D02*
X42433692Y66091542D01*
X42433692Y66091542D02*
X42362264Y66055828D01*
X42362264Y66055828D02*
X42183692Y66055828D01*
X42183692Y66055828D02*
X42112264Y66091542D01*
X42112264Y66091542D02*
X42076550Y66127256D01*
X42076550Y66127256D02*
X42040835Y66198685D01*
X42040835Y66198685D02*
X42040835Y66412971D01*
X42040835Y66412971D02*
X42076550Y66484399D01*
X42076550Y66484399D02*
X42112264Y66520114D01*
X42040835Y65698685D02*
X42040835Y65555828D01*
X42040835Y65555828D02*
X42076550Y65484399D01*
X42076550Y65484399D02*
X42112264Y65448685D01*
X42112264Y65448685D02*
X42219407Y65377256D01*
X42219407Y65377256D02*
X42362264Y65341542D01*
X42362264Y65341542D02*
X42647978Y65341542D01*
X42647978Y65341542D02*
X42719407Y65377256D01*
X42719407Y65377256D02*
X42755121Y65412970D01*
X42755121Y65412970D02*
X42790835Y65484399D01*
X42790835Y65484399D02*
X42790835Y65627256D01*
X42790835Y65627256D02*
X42755121Y65698685D01*
X42755121Y65698685D02*
X42719407Y65734399D01*
X42719407Y65734399D02*
X42647978Y65770113D01*
X42647978Y65770113D02*
X42469407Y65770113D01*
X42469407Y65770113D02*
X42397978Y65734399D01*
X42397978Y65734399D02*
X42362264Y65698685D01*
X42362264Y65698685D02*
X42326550Y65627256D01*
X42326550Y65627256D02*
X42326550Y65484399D01*
X42326550Y65484399D02*
X42362264Y65412970D01*
X42362264Y65412970D02*
X42397978Y65377256D01*
X42397978Y65377256D02*
X42469407Y65341542D01*
X31880835Y67591542D02*
X32630835Y67591542D01*
X32630835Y67091542D02*
X32630835Y66948685D01*
X32630835Y66948685D02*
X32595121Y66877256D01*
X32595121Y66877256D02*
X32523692Y66805828D01*
X32523692Y66805828D02*
X32380835Y66770113D01*
X32380835Y66770113D02*
X32130835Y66770113D01*
X32130835Y66770113D02*
X31987978Y66805828D01*
X31987978Y66805828D02*
X31916550Y66877256D01*
X31916550Y66877256D02*
X31880835Y66948685D01*
X31880835Y66948685D02*
X31880835Y67091542D01*
X31880835Y67091542D02*
X31916550Y67162970D01*
X31916550Y67162970D02*
X31987978Y67234399D01*
X31987978Y67234399D02*
X32130835Y67270113D01*
X32130835Y67270113D02*
X32380835Y67270113D01*
X32380835Y67270113D02*
X32523692Y67234399D01*
X32523692Y67234399D02*
X32595121Y67162970D01*
X32595121Y67162970D02*
X32630835Y67091542D01*
X31880835Y66055828D02*
X31880835Y66484399D01*
X31880835Y66270114D02*
X32630835Y66270114D01*
X32630835Y66270114D02*
X32523692Y66341542D01*
X32523692Y66341542D02*
X32452264Y66412971D01*
X32452264Y66412971D02*
X32416550Y66484399D01*
X32559407Y65770113D02*
X32595121Y65734399D01*
X32595121Y65734399D02*
X32630835Y65662970D01*
X32630835Y65662970D02*
X32630835Y65484399D01*
X32630835Y65484399D02*
X32595121Y65412970D01*
X32595121Y65412970D02*
X32559407Y65377256D01*
X32559407Y65377256D02*
X32487978Y65341542D01*
X32487978Y65341542D02*
X32416550Y65341542D01*
X32416550Y65341542D02*
X32309407Y65377256D01*
X32309407Y65377256D02*
X31880835Y65805828D01*
X31880835Y65805828D02*
X31880835Y65341542D01*
X49660835Y66805828D02*
X50017978Y67055828D01*
X49660835Y67234399D02*
X50410835Y67234399D01*
X50410835Y67234399D02*
X50410835Y66948685D01*
X50410835Y66948685D02*
X50375121Y66877256D01*
X50375121Y66877256D02*
X50339407Y66841542D01*
X50339407Y66841542D02*
X50267978Y66805828D01*
X50267978Y66805828D02*
X50160835Y66805828D01*
X50160835Y66805828D02*
X50089407Y66841542D01*
X50089407Y66841542D02*
X50053692Y66877256D01*
X50053692Y66877256D02*
X50017978Y66948685D01*
X50017978Y66948685D02*
X50017978Y67234399D01*
X50410835Y66555828D02*
X49660835Y66055828D01*
X50410835Y66055828D02*
X49660835Y66555828D01*
X49660835Y65770113D02*
X50410835Y65770113D01*
X50410835Y65770113D02*
X50410835Y65591542D01*
X50410835Y65591542D02*
X50375121Y65484399D01*
X50375121Y65484399D02*
X50303692Y65412970D01*
X50303692Y65412970D02*
X50232264Y65377256D01*
X50232264Y65377256D02*
X50089407Y65341542D01*
X50089407Y65341542D02*
X49982264Y65341542D01*
X49982264Y65341542D02*
X49839407Y65377256D01*
X49839407Y65377256D02*
X49767978Y65412970D01*
X49767978Y65412970D02*
X49696550Y65484399D01*
X49696550Y65484399D02*
X49660835Y65591542D01*
X49660835Y65591542D02*
X49660835Y65770113D01*
X50375121Y84749888D02*
X50410835Y84821316D01*
X50410835Y84821316D02*
X50410835Y84928459D01*
X50410835Y84928459D02*
X50375121Y85035602D01*
X50375121Y85035602D02*
X50303692Y85107031D01*
X50303692Y85107031D02*
X50232264Y85142745D01*
X50232264Y85142745D02*
X50089407Y85178459D01*
X50089407Y85178459D02*
X49982264Y85178459D01*
X49982264Y85178459D02*
X49839407Y85142745D01*
X49839407Y85142745D02*
X49767978Y85107031D01*
X49767978Y85107031D02*
X49696550Y85035602D01*
X49696550Y85035602D02*
X49660835Y84928459D01*
X49660835Y84928459D02*
X49660835Y84857031D01*
X49660835Y84857031D02*
X49696550Y84749888D01*
X49696550Y84749888D02*
X49732264Y84714174D01*
X49732264Y84714174D02*
X49982264Y84714174D01*
X49982264Y84714174D02*
X49982264Y84857031D01*
X49660835Y84392745D02*
X50410835Y84392745D01*
X50410835Y84392745D02*
X49660835Y83964174D01*
X49660835Y83964174D02*
X50410835Y83964174D01*
X49660835Y83607031D02*
X50410835Y83607031D01*
X50410835Y83607031D02*
X50410835Y83428460D01*
X50410835Y83428460D02*
X50375121Y83321317D01*
X50375121Y83321317D02*
X50303692Y83249888D01*
X50303692Y83249888D02*
X50232264Y83214174D01*
X50232264Y83214174D02*
X50089407Y83178460D01*
X50089407Y83178460D02*
X49982264Y83178460D01*
X49982264Y83178460D02*
X49839407Y83214174D01*
X49839407Y83214174D02*
X49767978Y83249888D01*
X49767978Y83249888D02*
X49696550Y83321317D01*
X49696550Y83321317D02*
X49660835Y83428460D01*
X49660835Y83428460D02*
X49660835Y83607031D01*
X47120835Y66877256D02*
X47870835Y66877256D01*
X47870835Y66377256D02*
X47870835Y66234399D01*
X47870835Y66234399D02*
X47835121Y66162970D01*
X47835121Y66162970D02*
X47763692Y66091542D01*
X47763692Y66091542D02*
X47620835Y66055827D01*
X47620835Y66055827D02*
X47370835Y66055827D01*
X47370835Y66055827D02*
X47227978Y66091542D01*
X47227978Y66091542D02*
X47156550Y66162970D01*
X47156550Y66162970D02*
X47120835Y66234399D01*
X47120835Y66234399D02*
X47120835Y66377256D01*
X47120835Y66377256D02*
X47156550Y66448684D01*
X47156550Y66448684D02*
X47227978Y66520113D01*
X47227978Y66520113D02*
X47370835Y66555827D01*
X47370835Y66555827D02*
X47620835Y66555827D01*
X47620835Y66555827D02*
X47763692Y66520113D01*
X47763692Y66520113D02*
X47835121Y66448684D01*
X47835121Y66448684D02*
X47870835Y66377256D01*
X47870835Y65591542D02*
X47870835Y65520113D01*
X47870835Y65520113D02*
X47835121Y65448685D01*
X47835121Y65448685D02*
X47799407Y65412970D01*
X47799407Y65412970D02*
X47727978Y65377256D01*
X47727978Y65377256D02*
X47585121Y65341542D01*
X47585121Y65341542D02*
X47406550Y65341542D01*
X47406550Y65341542D02*
X47263692Y65377256D01*
X47263692Y65377256D02*
X47192264Y65412970D01*
X47192264Y65412970D02*
X47156550Y65448685D01*
X47156550Y65448685D02*
X47120835Y65520113D01*
X47120835Y65520113D02*
X47120835Y65591542D01*
X47120835Y65591542D02*
X47156550Y65662970D01*
X47156550Y65662970D02*
X47192264Y65698685D01*
X47192264Y65698685D02*
X47263692Y65734399D01*
X47263692Y65734399D02*
X47406550Y65770113D01*
X47406550Y65770113D02*
X47585121Y65770113D01*
X47585121Y65770113D02*
X47727978Y65734399D01*
X47727978Y65734399D02*
X47799407Y65698685D01*
X47799407Y65698685D02*
X47835121Y65662970D01*
X47835121Y65662970D02*
X47870835Y65591542D01*
X52950835Y67162971D02*
X52950835Y66734399D01*
X52200835Y66948685D02*
X52950835Y66948685D01*
X52950835Y66555828D02*
X52200835Y66055828D01*
X52950835Y66055828D02*
X52200835Y66555828D01*
X52200835Y65770113D02*
X52950835Y65770113D01*
X52950835Y65770113D02*
X52950835Y65591542D01*
X52950835Y65591542D02*
X52915121Y65484399D01*
X52915121Y65484399D02*
X52843692Y65412970D01*
X52843692Y65412970D02*
X52772264Y65377256D01*
X52772264Y65377256D02*
X52629407Y65341542D01*
X52629407Y65341542D02*
X52522264Y65341542D01*
X52522264Y65341542D02*
X52379407Y65377256D01*
X52379407Y65377256D02*
X52307978Y65412970D01*
X52307978Y65412970D02*
X52236550Y65484399D01*
X52236550Y65484399D02*
X52200835Y65591542D01*
X52200835Y65591542D02*
X52200835Y65770113D01*
X47870835Y85214174D02*
X47870835Y84749888D01*
X47870835Y84749888D02*
X47585121Y84999888D01*
X47585121Y84999888D02*
X47585121Y84892745D01*
X47585121Y84892745D02*
X47549407Y84821316D01*
X47549407Y84821316D02*
X47513692Y84785602D01*
X47513692Y84785602D02*
X47442264Y84749888D01*
X47442264Y84749888D02*
X47263692Y84749888D01*
X47263692Y84749888D02*
X47192264Y84785602D01*
X47192264Y84785602D02*
X47156550Y84821316D01*
X47156550Y84821316D02*
X47120835Y84892745D01*
X47120835Y84892745D02*
X47120835Y85107031D01*
X47120835Y85107031D02*
X47156550Y85178459D01*
X47156550Y85178459D02*
X47192264Y85214174D01*
X47870835Y84535602D02*
X47120835Y84285602D01*
X47120835Y84285602D02*
X47870835Y84035602D01*
X47870835Y83857031D02*
X47870835Y83392745D01*
X47870835Y83392745D02*
X47585121Y83642745D01*
X47585121Y83642745D02*
X47585121Y83535602D01*
X47585121Y83535602D02*
X47549407Y83464173D01*
X47549407Y83464173D02*
X47513692Y83428459D01*
X47513692Y83428459D02*
X47442264Y83392745D01*
X47442264Y83392745D02*
X47263692Y83392745D01*
X47263692Y83392745D02*
X47192264Y83428459D01*
X47192264Y83428459D02*
X47156550Y83464173D01*
X47156550Y83464173D02*
X47120835Y83535602D01*
X47120835Y83535602D02*
X47120835Y83749888D01*
X47120835Y83749888D02*
X47156550Y83821316D01*
X47156550Y83821316D02*
X47192264Y83857031D01*
D14*
X48796390Y77402857D02*
X48796390Y77069524D01*
X48272580Y76926667D02*
X48272580Y77402857D01*
X48272580Y77402857D02*
X49272580Y77402857D01*
X49272580Y77402857D02*
X49272580Y76926667D01*
X48320200Y76545714D02*
X48272580Y76402857D01*
X48272580Y76402857D02*
X48272580Y76164762D01*
X48272580Y76164762D02*
X48320200Y76069524D01*
X48320200Y76069524D02*
X48367819Y76021905D01*
X48367819Y76021905D02*
X48463057Y75974286D01*
X48463057Y75974286D02*
X48558295Y75974286D01*
X48558295Y75974286D02*
X48653533Y76021905D01*
X48653533Y76021905D02*
X48701152Y76069524D01*
X48701152Y76069524D02*
X48748771Y76164762D01*
X48748771Y76164762D02*
X48796390Y76355238D01*
X48796390Y76355238D02*
X48844009Y76450476D01*
X48844009Y76450476D02*
X48891628Y76498095D01*
X48891628Y76498095D02*
X48986866Y76545714D01*
X48986866Y76545714D02*
X49082104Y76545714D01*
X49082104Y76545714D02*
X49177342Y76498095D01*
X49177342Y76498095D02*
X49224961Y76450476D01*
X49224961Y76450476D02*
X49272580Y76355238D01*
X49272580Y76355238D02*
X49272580Y76117143D01*
X49272580Y76117143D02*
X49224961Y75974286D01*
X48272580Y75545714D02*
X49272580Y75545714D01*
X49272580Y75545714D02*
X49272580Y75164762D01*
X49272580Y75164762D02*
X49224961Y75069524D01*
X49224961Y75069524D02*
X49177342Y75021905D01*
X49177342Y75021905D02*
X49082104Y74974286D01*
X49082104Y74974286D02*
X48939247Y74974286D01*
X48939247Y74974286D02*
X48844009Y75021905D01*
X48844009Y75021905D02*
X48796390Y75069524D01*
X48796390Y75069524D02*
X48748771Y75164762D01*
X48748771Y75164762D02*
X48748771Y75545714D01*
X49272580Y74640952D02*
X49272580Y74021905D01*
X49272580Y74021905D02*
X48891628Y74355238D01*
X48891628Y74355238D02*
X48891628Y74212381D01*
X48891628Y74212381D02*
X48844009Y74117143D01*
X48844009Y74117143D02*
X48796390Y74069524D01*
X48796390Y74069524D02*
X48701152Y74021905D01*
X48701152Y74021905D02*
X48463057Y74021905D01*
X48463057Y74021905D02*
X48367819Y74069524D01*
X48367819Y74069524D02*
X48320200Y74117143D01*
X48320200Y74117143D02*
X48272580Y74212381D01*
X48272580Y74212381D02*
X48272580Y74498095D01*
X48272580Y74498095D02*
X48320200Y74593333D01*
X48320200Y74593333D02*
X48367819Y74640952D01*
X49177342Y73640952D02*
X49224961Y73593333D01*
X49224961Y73593333D02*
X49272580Y73498095D01*
X49272580Y73498095D02*
X49272580Y73260000D01*
X49272580Y73260000D02*
X49224961Y73164762D01*
X49224961Y73164762D02*
X49177342Y73117143D01*
X49177342Y73117143D02*
X49082104Y73069524D01*
X49082104Y73069524D02*
X48986866Y73069524D01*
X48986866Y73069524D02*
X48844009Y73117143D01*
X48844009Y73117143D02*
X48272580Y73688571D01*
X48272580Y73688571D02*
X48272580Y73069524D01*
D11*
X21720835Y84785602D02*
X21720835Y85142745D01*
X21720835Y85142745D02*
X22470835Y85142745D01*
X21720835Y84535602D02*
X22470835Y84535602D01*
X21720835Y84178459D02*
X22470835Y84178459D01*
X22470835Y84178459D02*
X21720835Y83749888D01*
X21720835Y83749888D02*
X22470835Y83749888D01*
X21720835Y83392745D02*
X22470835Y83392745D01*
X21720835Y82964174D02*
X22149407Y83285602D01*
X22470835Y82964174D02*
X22042264Y83392745D01*
X34420835Y67591542D02*
X35170835Y67591542D01*
X35170835Y67091542D02*
X35170835Y66948685D01*
X35170835Y66948685D02*
X35135121Y66877256D01*
X35135121Y66877256D02*
X35063692Y66805828D01*
X35063692Y66805828D02*
X34920835Y66770113D01*
X34920835Y66770113D02*
X34670835Y66770113D01*
X34670835Y66770113D02*
X34527978Y66805828D01*
X34527978Y66805828D02*
X34456550Y66877256D01*
X34456550Y66877256D02*
X34420835Y66948685D01*
X34420835Y66948685D02*
X34420835Y67091542D01*
X34420835Y67091542D02*
X34456550Y67162970D01*
X34456550Y67162970D02*
X34527978Y67234399D01*
X34527978Y67234399D02*
X34670835Y67270113D01*
X34670835Y67270113D02*
X34920835Y67270113D01*
X34920835Y67270113D02*
X35063692Y67234399D01*
X35063692Y67234399D02*
X35135121Y67162970D01*
X35135121Y67162970D02*
X35170835Y67091542D01*
X34420835Y66055828D02*
X34420835Y66484399D01*
X34420835Y66270114D02*
X35170835Y66270114D01*
X35170835Y66270114D02*
X35063692Y66341542D01*
X35063692Y66341542D02*
X34992264Y66412971D01*
X34992264Y66412971D02*
X34956550Y66484399D01*
X34920835Y65412970D02*
X34420835Y65412970D01*
X35206550Y65591542D02*
X34670835Y65770113D01*
X34670835Y65770113D02*
X34670835Y65305828D01*
X52593692Y85142745D02*
X52593692Y84892745D01*
X52200835Y84785602D02*
X52200835Y85142745D01*
X52200835Y85142745D02*
X52950835Y85142745D01*
X52950835Y85142745D02*
X52950835Y84785602D01*
X52200835Y84464174D02*
X52950835Y84464174D01*
X52950835Y84464174D02*
X52200835Y84035603D01*
X52200835Y84035603D02*
X52950835Y84035603D01*
X39500835Y85142745D02*
X40250835Y85142745D01*
X40250835Y84642745D02*
X40250835Y84499888D01*
X40250835Y84499888D02*
X40215121Y84428459D01*
X40215121Y84428459D02*
X40143692Y84357031D01*
X40143692Y84357031D02*
X40000835Y84321316D01*
X40000835Y84321316D02*
X39750835Y84321316D01*
X39750835Y84321316D02*
X39607978Y84357031D01*
X39607978Y84357031D02*
X39536550Y84428459D01*
X39536550Y84428459D02*
X39500835Y84499888D01*
X39500835Y84499888D02*
X39500835Y84642745D01*
X39500835Y84642745D02*
X39536550Y84714173D01*
X39536550Y84714173D02*
X39607978Y84785602D01*
X39607978Y84785602D02*
X39750835Y84821316D01*
X39750835Y84821316D02*
X40000835Y84821316D01*
X40000835Y84821316D02*
X40143692Y84785602D01*
X40143692Y84785602D02*
X40215121Y84714173D01*
X40215121Y84714173D02*
X40250835Y84642745D01*
X40250835Y84071317D02*
X40250835Y83607031D01*
X40250835Y83607031D02*
X39965121Y83857031D01*
X39965121Y83857031D02*
X39965121Y83749888D01*
X39965121Y83749888D02*
X39929407Y83678459D01*
X39929407Y83678459D02*
X39893692Y83642745D01*
X39893692Y83642745D02*
X39822264Y83607031D01*
X39822264Y83607031D02*
X39643692Y83607031D01*
X39643692Y83607031D02*
X39572264Y83642745D01*
X39572264Y83642745D02*
X39536550Y83678459D01*
X39536550Y83678459D02*
X39500835Y83749888D01*
X39500835Y83749888D02*
X39500835Y83964174D01*
X39500835Y83964174D02*
X39536550Y84035602D01*
X39536550Y84035602D02*
X39572264Y84071317D01*
X40250835Y83357031D02*
X40250835Y82892745D01*
X40250835Y82892745D02*
X39965121Y83142745D01*
X39965121Y83142745D02*
X39965121Y83035602D01*
X39965121Y83035602D02*
X39929407Y82964173D01*
X39929407Y82964173D02*
X39893692Y82928459D01*
X39893692Y82928459D02*
X39822264Y82892745D01*
X39822264Y82892745D02*
X39643692Y82892745D01*
X39643692Y82892745D02*
X39572264Y82928459D01*
X39572264Y82928459D02*
X39536550Y82964173D01*
X39536550Y82964173D02*
X39500835Y83035602D01*
X39500835Y83035602D02*
X39500835Y83249888D01*
X39500835Y83249888D02*
X39536550Y83321316D01*
X39536550Y83321316D02*
X39572264Y83357031D01*
X36960835Y85142745D02*
X37710835Y85142745D01*
X37710835Y84642745D02*
X37710835Y84499888D01*
X37710835Y84499888D02*
X37675121Y84428459D01*
X37675121Y84428459D02*
X37603692Y84357031D01*
X37603692Y84357031D02*
X37460835Y84321316D01*
X37460835Y84321316D02*
X37210835Y84321316D01*
X37210835Y84321316D02*
X37067978Y84357031D01*
X37067978Y84357031D02*
X36996550Y84428459D01*
X36996550Y84428459D02*
X36960835Y84499888D01*
X36960835Y84499888D02*
X36960835Y84642745D01*
X36960835Y84642745D02*
X36996550Y84714173D01*
X36996550Y84714173D02*
X37067978Y84785602D01*
X37067978Y84785602D02*
X37210835Y84821316D01*
X37210835Y84821316D02*
X37460835Y84821316D01*
X37460835Y84821316D02*
X37603692Y84785602D01*
X37603692Y84785602D02*
X37675121Y84714173D01*
X37675121Y84714173D02*
X37710835Y84642745D01*
X37710835Y83642745D02*
X37710835Y83999888D01*
X37710835Y83999888D02*
X37353692Y84035602D01*
X37353692Y84035602D02*
X37389407Y83999888D01*
X37389407Y83999888D02*
X37425121Y83928459D01*
X37425121Y83928459D02*
X37425121Y83749888D01*
X37425121Y83749888D02*
X37389407Y83678459D01*
X37389407Y83678459D02*
X37353692Y83642745D01*
X37353692Y83642745D02*
X37282264Y83607031D01*
X37282264Y83607031D02*
X37103692Y83607031D01*
X37103692Y83607031D02*
X37032264Y83642745D01*
X37032264Y83642745D02*
X36996550Y83678459D01*
X36996550Y83678459D02*
X36960835Y83749888D01*
X36960835Y83749888D02*
X36960835Y83928459D01*
X36960835Y83928459D02*
X36996550Y83999888D01*
X36996550Y83999888D02*
X37032264Y84035602D01*
X11773333Y56540420D02*
X11725714Y56492800D01*
X11725714Y56492800D02*
X11582857Y56445181D01*
X11582857Y56445181D02*
X11487619Y56445181D01*
X11487619Y56445181D02*
X11344762Y56492800D01*
X11344762Y56492800D02*
X11249524Y56588039D01*
X11249524Y56588039D02*
X11201905Y56683277D01*
X11201905Y56683277D02*
X11154286Y56873753D01*
X11154286Y56873753D02*
X11154286Y57016610D01*
X11154286Y57016610D02*
X11201905Y57207086D01*
X11201905Y57207086D02*
X11249524Y57302324D01*
X11249524Y57302324D02*
X11344762Y57397562D01*
X11344762Y57397562D02*
X11487619Y57445181D01*
X11487619Y57445181D02*
X11582857Y57445181D01*
X11582857Y57445181D02*
X11725714Y57397562D01*
X11725714Y57397562D02*
X11773333Y57349943D01*
X12106667Y57445181D02*
X12725714Y57445181D01*
X12725714Y57445181D02*
X12392381Y57064229D01*
X12392381Y57064229D02*
X12535238Y57064229D01*
X12535238Y57064229D02*
X12630476Y57016610D01*
X12630476Y57016610D02*
X12678095Y56968991D01*
X12678095Y56968991D02*
X12725714Y56873753D01*
X12725714Y56873753D02*
X12725714Y56635658D01*
X12725714Y56635658D02*
X12678095Y56540420D01*
X12678095Y56540420D02*
X12630476Y56492800D01*
X12630476Y56492800D02*
X12535238Y56445181D01*
X12535238Y56445181D02*
X12249524Y56445181D01*
X12249524Y56445181D02*
X12154286Y56492800D01*
X12154286Y56492800D02*
X12106667Y56540420D01*
X12348905Y39870181D02*
X12348905Y40870181D01*
X12348905Y40870181D02*
X12587000Y40870181D01*
X12587000Y40870181D02*
X12729857Y40822562D01*
X12729857Y40822562D02*
X12825095Y40727324D01*
X12825095Y40727324D02*
X12872714Y40632086D01*
X12872714Y40632086D02*
X12920333Y40441610D01*
X12920333Y40441610D02*
X12920333Y40298753D01*
X12920333Y40298753D02*
X12872714Y40108277D01*
X12872714Y40108277D02*
X12825095Y40013039D01*
X12825095Y40013039D02*
X12729857Y39917800D01*
X12729857Y39917800D02*
X12587000Y39870181D01*
X12587000Y39870181D02*
X12348905Y39870181D01*
X13872714Y39870181D02*
X13301286Y39870181D01*
X13587000Y39870181D02*
X13587000Y40870181D01*
X13587000Y40870181D02*
X13491762Y40727324D01*
X13491762Y40727324D02*
X13396524Y40632086D01*
X13396524Y40632086D02*
X13301286Y40584467D01*
X3208095Y43845181D02*
X3208095Y43035658D01*
X3208095Y43035658D02*
X3255714Y42940420D01*
X3255714Y42940420D02*
X3303333Y42892800D01*
X3303333Y42892800D02*
X3398571Y42845181D01*
X3398571Y42845181D02*
X3589047Y42845181D01*
X3589047Y42845181D02*
X3684285Y42892800D01*
X3684285Y42892800D02*
X3731904Y42940420D01*
X3731904Y42940420D02*
X3779523Y43035658D01*
X3779523Y43035658D02*
X3779523Y43845181D01*
X4208095Y43749943D02*
X4255714Y43797562D01*
X4255714Y43797562D02*
X4350952Y43845181D01*
X4350952Y43845181D02*
X4589047Y43845181D01*
X4589047Y43845181D02*
X4684285Y43797562D01*
X4684285Y43797562D02*
X4731904Y43749943D01*
X4731904Y43749943D02*
X4779523Y43654705D01*
X4779523Y43654705D02*
X4779523Y43559467D01*
X4779523Y43559467D02*
X4731904Y43416610D01*
X4731904Y43416610D02*
X4160476Y42845181D01*
X4160476Y42845181D02*
X4779523Y42845181D01*
X26258095Y78755181D02*
X26258095Y77945658D01*
X26258095Y77945658D02*
X26305714Y77850420D01*
X26305714Y77850420D02*
X26353333Y77802800D01*
X26353333Y77802800D02*
X26448571Y77755181D01*
X26448571Y77755181D02*
X26639047Y77755181D01*
X26639047Y77755181D02*
X26734285Y77802800D01*
X26734285Y77802800D02*
X26781904Y77850420D01*
X26781904Y77850420D02*
X26829523Y77945658D01*
X26829523Y77945658D02*
X26829523Y78755181D01*
X27829523Y77755181D02*
X27258095Y77755181D01*
X27543809Y77755181D02*
X27543809Y78755181D01*
X27543809Y78755181D02*
X27448571Y78612324D01*
X27448571Y78612324D02*
X27353333Y78517086D01*
X27353333Y78517086D02*
X27258095Y78469467D01*
X83056667Y85152800D02*
X83199524Y85105181D01*
X83199524Y85105181D02*
X83437619Y85105181D01*
X83437619Y85105181D02*
X83532857Y85152800D01*
X83532857Y85152800D02*
X83580476Y85200420D01*
X83580476Y85200420D02*
X83628095Y85295658D01*
X83628095Y85295658D02*
X83628095Y85390896D01*
X83628095Y85390896D02*
X83580476Y85486134D01*
X83580476Y85486134D02*
X83532857Y85533753D01*
X83532857Y85533753D02*
X83437619Y85581372D01*
X83437619Y85581372D02*
X83247143Y85628991D01*
X83247143Y85628991D02*
X83151905Y85676610D01*
X83151905Y85676610D02*
X83104286Y85724229D01*
X83104286Y85724229D02*
X83056667Y85819467D01*
X83056667Y85819467D02*
X83056667Y85914705D01*
X83056667Y85914705D02*
X83104286Y86009943D01*
X83104286Y86009943D02*
X83151905Y86057562D01*
X83151905Y86057562D02*
X83247143Y86105181D01*
X83247143Y86105181D02*
X83485238Y86105181D01*
X83485238Y86105181D02*
X83628095Y86057562D01*
X83961429Y86105181D02*
X84199524Y85105181D01*
X84199524Y85105181D02*
X84390000Y85819467D01*
X84390000Y85819467D02*
X84580476Y85105181D01*
X84580476Y85105181D02*
X84818572Y86105181D01*
X85151905Y86009943D02*
X85199524Y86057562D01*
X85199524Y86057562D02*
X85294762Y86105181D01*
X85294762Y86105181D02*
X85532857Y86105181D01*
X85532857Y86105181D02*
X85628095Y86057562D01*
X85628095Y86057562D02*
X85675714Y86009943D01*
X85675714Y86009943D02*
X85723333Y85914705D01*
X85723333Y85914705D02*
X85723333Y85819467D01*
X85723333Y85819467D02*
X85675714Y85676610D01*
X85675714Y85676610D02*
X85104286Y85105181D01*
X85104286Y85105181D02*
X85723333Y85105181D01*
X83126667Y72132800D02*
X83269524Y72085181D01*
X83269524Y72085181D02*
X83507619Y72085181D01*
X83507619Y72085181D02*
X83602857Y72132800D01*
X83602857Y72132800D02*
X83650476Y72180420D01*
X83650476Y72180420D02*
X83698095Y72275658D01*
X83698095Y72275658D02*
X83698095Y72370896D01*
X83698095Y72370896D02*
X83650476Y72466134D01*
X83650476Y72466134D02*
X83602857Y72513753D01*
X83602857Y72513753D02*
X83507619Y72561372D01*
X83507619Y72561372D02*
X83317143Y72608991D01*
X83317143Y72608991D02*
X83221905Y72656610D01*
X83221905Y72656610D02*
X83174286Y72704229D01*
X83174286Y72704229D02*
X83126667Y72799467D01*
X83126667Y72799467D02*
X83126667Y72894705D01*
X83126667Y72894705D02*
X83174286Y72989943D01*
X83174286Y72989943D02*
X83221905Y73037562D01*
X83221905Y73037562D02*
X83317143Y73085181D01*
X83317143Y73085181D02*
X83555238Y73085181D01*
X83555238Y73085181D02*
X83698095Y73037562D01*
X84031429Y73085181D02*
X84269524Y72085181D01*
X84269524Y72085181D02*
X84460000Y72799467D01*
X84460000Y72799467D02*
X84650476Y72085181D01*
X84650476Y72085181D02*
X84888572Y73085181D01*
X85793333Y72085181D02*
X85221905Y72085181D01*
X85507619Y72085181D02*
X85507619Y73085181D01*
X85507619Y73085181D02*
X85412381Y72942324D01*
X85412381Y72942324D02*
X85317143Y72847086D01*
X85317143Y72847086D02*
X85221905Y72799467D01*
X73523333Y56335181D02*
X73190000Y56811372D01*
X72951905Y56335181D02*
X72951905Y57335181D01*
X72951905Y57335181D02*
X73332857Y57335181D01*
X73332857Y57335181D02*
X73428095Y57287562D01*
X73428095Y57287562D02*
X73475714Y57239943D01*
X73475714Y57239943D02*
X73523333Y57144705D01*
X73523333Y57144705D02*
X73523333Y57001848D01*
X73523333Y57001848D02*
X73475714Y56906610D01*
X73475714Y56906610D02*
X73428095Y56858991D01*
X73428095Y56858991D02*
X73332857Y56811372D01*
X73332857Y56811372D02*
X72951905Y56811372D01*
X74428095Y57335181D02*
X73951905Y57335181D01*
X73951905Y57335181D02*
X73904286Y56858991D01*
X73904286Y56858991D02*
X73951905Y56906610D01*
X73951905Y56906610D02*
X74047143Y56954229D01*
X74047143Y56954229D02*
X74285238Y56954229D01*
X74285238Y56954229D02*
X74380476Y56906610D01*
X74380476Y56906610D02*
X74428095Y56858991D01*
X74428095Y56858991D02*
X74475714Y56763753D01*
X74475714Y56763753D02*
X74475714Y56525658D01*
X74475714Y56525658D02*
X74428095Y56430420D01*
X74428095Y56430420D02*
X74380476Y56382800D01*
X74380476Y56382800D02*
X74285238Y56335181D01*
X74285238Y56335181D02*
X74047143Y56335181D01*
X74047143Y56335181D02*
X73951905Y56382800D01*
X73951905Y56382800D02*
X73904286Y56430420D01*
X58453333Y56335181D02*
X58120000Y56811372D01*
X57881905Y56335181D02*
X57881905Y57335181D01*
X57881905Y57335181D02*
X58262857Y57335181D01*
X58262857Y57335181D02*
X58358095Y57287562D01*
X58358095Y57287562D02*
X58405714Y57239943D01*
X58405714Y57239943D02*
X58453333Y57144705D01*
X58453333Y57144705D02*
X58453333Y57001848D01*
X58453333Y57001848D02*
X58405714Y56906610D01*
X58405714Y56906610D02*
X58358095Y56858991D01*
X58358095Y56858991D02*
X58262857Y56811372D01*
X58262857Y56811372D02*
X57881905Y56811372D01*
X59310476Y57001848D02*
X59310476Y56335181D01*
X59072381Y57382800D02*
X58834286Y56668515D01*
X58834286Y56668515D02*
X59453333Y56668515D01*
X43533333Y56335181D02*
X43200000Y56811372D01*
X42961905Y56335181D02*
X42961905Y57335181D01*
X42961905Y57335181D02*
X43342857Y57335181D01*
X43342857Y57335181D02*
X43438095Y57287562D01*
X43438095Y57287562D02*
X43485714Y57239943D01*
X43485714Y57239943D02*
X43533333Y57144705D01*
X43533333Y57144705D02*
X43533333Y57001848D01*
X43533333Y57001848D02*
X43485714Y56906610D01*
X43485714Y56906610D02*
X43438095Y56858991D01*
X43438095Y56858991D02*
X43342857Y56811372D01*
X43342857Y56811372D02*
X42961905Y56811372D01*
X43866667Y57335181D02*
X44485714Y57335181D01*
X44485714Y57335181D02*
X44152381Y56954229D01*
X44152381Y56954229D02*
X44295238Y56954229D01*
X44295238Y56954229D02*
X44390476Y56906610D01*
X44390476Y56906610D02*
X44438095Y56858991D01*
X44438095Y56858991D02*
X44485714Y56763753D01*
X44485714Y56763753D02*
X44485714Y56525658D01*
X44485714Y56525658D02*
X44438095Y56430420D01*
X44438095Y56430420D02*
X44390476Y56382800D01*
X44390476Y56382800D02*
X44295238Y56335181D01*
X44295238Y56335181D02*
X44009524Y56335181D01*
X44009524Y56335181D02*
X43914286Y56382800D01*
X43914286Y56382800D02*
X43866667Y56430420D01*
X28523333Y56335181D02*
X28190000Y56811372D01*
X27951905Y56335181D02*
X27951905Y57335181D01*
X27951905Y57335181D02*
X28332857Y57335181D01*
X28332857Y57335181D02*
X28428095Y57287562D01*
X28428095Y57287562D02*
X28475714Y57239943D01*
X28475714Y57239943D02*
X28523333Y57144705D01*
X28523333Y57144705D02*
X28523333Y57001848D01*
X28523333Y57001848D02*
X28475714Y56906610D01*
X28475714Y56906610D02*
X28428095Y56858991D01*
X28428095Y56858991D02*
X28332857Y56811372D01*
X28332857Y56811372D02*
X27951905Y56811372D01*
X28904286Y57239943D02*
X28951905Y57287562D01*
X28951905Y57287562D02*
X29047143Y57335181D01*
X29047143Y57335181D02*
X29285238Y57335181D01*
X29285238Y57335181D02*
X29380476Y57287562D01*
X29380476Y57287562D02*
X29428095Y57239943D01*
X29428095Y57239943D02*
X29475714Y57144705D01*
X29475714Y57144705D02*
X29475714Y57049467D01*
X29475714Y57049467D02*
X29428095Y56906610D01*
X29428095Y56906610D02*
X28856667Y56335181D01*
X28856667Y56335181D02*
X29475714Y56335181D01*
X6973333Y14540181D02*
X6640000Y15016372D01*
X6401905Y14540181D02*
X6401905Y15540181D01*
X6401905Y15540181D02*
X6782857Y15540181D01*
X6782857Y15540181D02*
X6878095Y15492562D01*
X6878095Y15492562D02*
X6925714Y15444943D01*
X6925714Y15444943D02*
X6973333Y15349705D01*
X6973333Y15349705D02*
X6973333Y15206848D01*
X6973333Y15206848D02*
X6925714Y15111610D01*
X6925714Y15111610D02*
X6878095Y15063991D01*
X6878095Y15063991D02*
X6782857Y15016372D01*
X6782857Y15016372D02*
X6401905Y15016372D01*
X7925714Y14540181D02*
X7354286Y14540181D01*
X7640000Y14540181D02*
X7640000Y15540181D01*
X7640000Y15540181D02*
X7544762Y15397324D01*
X7544762Y15397324D02*
X7449524Y15302086D01*
X7449524Y15302086D02*
X7354286Y15254467D01*
X17993333Y46495181D02*
X17517143Y46495181D01*
X17517143Y46495181D02*
X17517143Y47495181D01*
X18850476Y46495181D02*
X18279048Y46495181D01*
X18564762Y46495181D02*
X18564762Y47495181D01*
X18564762Y47495181D02*
X18469524Y47352324D01*
X18469524Y47352324D02*
X18374286Y47257086D01*
X18374286Y47257086D02*
X18279048Y47209467D01*
X69761666Y52805181D02*
X69761666Y52090896D01*
X69761666Y52090896D02*
X69714047Y51948039D01*
X69714047Y51948039D02*
X69618809Y51852800D01*
X69618809Y51852800D02*
X69475952Y51805181D01*
X69475952Y51805181D02*
X69380714Y51805181D01*
X70142619Y52805181D02*
X70809285Y52805181D01*
X70809285Y52805181D02*
X70380714Y51805181D01*
X54671666Y52805181D02*
X54671666Y52090896D01*
X54671666Y52090896D02*
X54624047Y51948039D01*
X54624047Y51948039D02*
X54528809Y51852800D01*
X54528809Y51852800D02*
X54385952Y51805181D01*
X54385952Y51805181D02*
X54290714Y51805181D01*
X55576428Y52805181D02*
X55385952Y52805181D01*
X55385952Y52805181D02*
X55290714Y52757562D01*
X55290714Y52757562D02*
X55243095Y52709943D01*
X55243095Y52709943D02*
X55147857Y52567086D01*
X55147857Y52567086D02*
X55100238Y52376610D01*
X55100238Y52376610D02*
X55100238Y51995658D01*
X55100238Y51995658D02*
X55147857Y51900420D01*
X55147857Y51900420D02*
X55195476Y51852800D01*
X55195476Y51852800D02*
X55290714Y51805181D01*
X55290714Y51805181D02*
X55481190Y51805181D01*
X55481190Y51805181D02*
X55576428Y51852800D01*
X55576428Y51852800D02*
X55624047Y51900420D01*
X55624047Y51900420D02*
X55671666Y51995658D01*
X55671666Y51995658D02*
X55671666Y52233753D01*
X55671666Y52233753D02*
X55624047Y52328991D01*
X55624047Y52328991D02*
X55576428Y52376610D01*
X55576428Y52376610D02*
X55481190Y52424229D01*
X55481190Y52424229D02*
X55290714Y52424229D01*
X55290714Y52424229D02*
X55195476Y52376610D01*
X55195476Y52376610D02*
X55147857Y52328991D01*
X55147857Y52328991D02*
X55100238Y52233753D01*
X39751666Y52775181D02*
X39751666Y52060896D01*
X39751666Y52060896D02*
X39704047Y51918039D01*
X39704047Y51918039D02*
X39608809Y51822800D01*
X39608809Y51822800D02*
X39465952Y51775181D01*
X39465952Y51775181D02*
X39370714Y51775181D01*
X40704047Y52775181D02*
X40227857Y52775181D01*
X40227857Y52775181D02*
X40180238Y52298991D01*
X40180238Y52298991D02*
X40227857Y52346610D01*
X40227857Y52346610D02*
X40323095Y52394229D01*
X40323095Y52394229D02*
X40561190Y52394229D01*
X40561190Y52394229D02*
X40656428Y52346610D01*
X40656428Y52346610D02*
X40704047Y52298991D01*
X40704047Y52298991D02*
X40751666Y52203753D01*
X40751666Y52203753D02*
X40751666Y51965658D01*
X40751666Y51965658D02*
X40704047Y51870420D01*
X40704047Y51870420D02*
X40656428Y51822800D01*
X40656428Y51822800D02*
X40561190Y51775181D01*
X40561190Y51775181D02*
X40323095Y51775181D01*
X40323095Y51775181D02*
X40227857Y51822800D01*
X40227857Y51822800D02*
X40180238Y51870420D01*
X24711666Y52775181D02*
X24711666Y52060896D01*
X24711666Y52060896D02*
X24664047Y51918039D01*
X24664047Y51918039D02*
X24568809Y51822800D01*
X24568809Y51822800D02*
X24425952Y51775181D01*
X24425952Y51775181D02*
X24330714Y51775181D01*
X25616428Y52441848D02*
X25616428Y51775181D01*
X25378333Y52822800D02*
X25140238Y52108515D01*
X25140238Y52108515D02*
X25759285Y52108515D01*
X68346666Y82425181D02*
X68346666Y81710896D01*
X68346666Y81710896D02*
X68299047Y81568039D01*
X68299047Y81568039D02*
X68203809Y81472800D01*
X68203809Y81472800D02*
X68060952Y81425181D01*
X68060952Y81425181D02*
X67965714Y81425181D01*
X69346666Y81425181D02*
X68775238Y81425181D01*
X69060952Y81425181D02*
X69060952Y82425181D01*
X69060952Y82425181D02*
X68965714Y82282324D01*
X68965714Y82282324D02*
X68870476Y82187086D01*
X68870476Y82187086D02*
X68775238Y82139467D01*
X78826666Y31798991D02*
X78493333Y31798991D01*
X78493333Y31275181D02*
X78493333Y32275181D01*
X78493333Y32275181D02*
X78969523Y32275181D01*
X79779047Y31941848D02*
X79779047Y31275181D01*
X79540952Y32322800D02*
X79302857Y31608515D01*
X79302857Y31608515D02*
X79921904Y31608515D01*
X63766666Y31808991D02*
X63433333Y31808991D01*
X63433333Y31285181D02*
X63433333Y32285181D01*
X63433333Y32285181D02*
X63909523Y32285181D01*
X64195238Y32285181D02*
X64814285Y32285181D01*
X64814285Y32285181D02*
X64480952Y31904229D01*
X64480952Y31904229D02*
X64623809Y31904229D01*
X64623809Y31904229D02*
X64719047Y31856610D01*
X64719047Y31856610D02*
X64766666Y31808991D01*
X64766666Y31808991D02*
X64814285Y31713753D01*
X64814285Y31713753D02*
X64814285Y31475658D01*
X64814285Y31475658D02*
X64766666Y31380420D01*
X64766666Y31380420D02*
X64719047Y31332800D01*
X64719047Y31332800D02*
X64623809Y31285181D01*
X64623809Y31285181D02*
X64338095Y31285181D01*
X64338095Y31285181D02*
X64242857Y31332800D01*
X64242857Y31332800D02*
X64195238Y31380420D01*
X48686666Y31808991D02*
X48353333Y31808991D01*
X48353333Y31285181D02*
X48353333Y32285181D01*
X48353333Y32285181D02*
X48829523Y32285181D01*
X49162857Y32189943D02*
X49210476Y32237562D01*
X49210476Y32237562D02*
X49305714Y32285181D01*
X49305714Y32285181D02*
X49543809Y32285181D01*
X49543809Y32285181D02*
X49639047Y32237562D01*
X49639047Y32237562D02*
X49686666Y32189943D01*
X49686666Y32189943D02*
X49734285Y32094705D01*
X49734285Y32094705D02*
X49734285Y31999467D01*
X49734285Y31999467D02*
X49686666Y31856610D01*
X49686666Y31856610D02*
X49115238Y31285181D01*
X49115238Y31285181D02*
X49734285Y31285181D01*
X33656666Y31838991D02*
X33323333Y31838991D01*
X33323333Y31315181D02*
X33323333Y32315181D01*
X33323333Y32315181D02*
X33799523Y32315181D01*
X34704285Y31315181D02*
X34132857Y31315181D01*
X34418571Y31315181D02*
X34418571Y32315181D01*
X34418571Y32315181D02*
X34323333Y32172324D01*
X34323333Y32172324D02*
X34228095Y32077086D01*
X34228095Y32077086D02*
X34132857Y32029467D01*
X72951905Y48805181D02*
X72951905Y49805181D01*
X72951905Y49805181D02*
X73190000Y49805181D01*
X73190000Y49805181D02*
X73332857Y49757562D01*
X73332857Y49757562D02*
X73428095Y49662324D01*
X73428095Y49662324D02*
X73475714Y49567086D01*
X73475714Y49567086D02*
X73523333Y49376610D01*
X73523333Y49376610D02*
X73523333Y49233753D01*
X73523333Y49233753D02*
X73475714Y49043277D01*
X73475714Y49043277D02*
X73428095Y48948039D01*
X73428095Y48948039D02*
X73332857Y48852800D01*
X73332857Y48852800D02*
X73190000Y48805181D01*
X73190000Y48805181D02*
X72951905Y48805181D01*
X74380476Y49805181D02*
X74190000Y49805181D01*
X74190000Y49805181D02*
X74094762Y49757562D01*
X74094762Y49757562D02*
X74047143Y49709943D01*
X74047143Y49709943D02*
X73951905Y49567086D01*
X73951905Y49567086D02*
X73904286Y49376610D01*
X73904286Y49376610D02*
X73904286Y48995658D01*
X73904286Y48995658D02*
X73951905Y48900420D01*
X73951905Y48900420D02*
X73999524Y48852800D01*
X73999524Y48852800D02*
X74094762Y48805181D01*
X74094762Y48805181D02*
X74285238Y48805181D01*
X74285238Y48805181D02*
X74380476Y48852800D01*
X74380476Y48852800D02*
X74428095Y48900420D01*
X74428095Y48900420D02*
X74475714Y48995658D01*
X74475714Y48995658D02*
X74475714Y49233753D01*
X74475714Y49233753D02*
X74428095Y49328991D01*
X74428095Y49328991D02*
X74380476Y49376610D01*
X74380476Y49376610D02*
X74285238Y49424229D01*
X74285238Y49424229D02*
X74094762Y49424229D01*
X74094762Y49424229D02*
X73999524Y49376610D01*
X73999524Y49376610D02*
X73951905Y49328991D01*
X73951905Y49328991D02*
X73904286Y49233753D01*
X69918571Y46997705D02*
X69461428Y46997705D01*
X69690000Y46997705D02*
X69690000Y47797705D01*
X69690000Y47797705D02*
X69613809Y47683420D01*
X69613809Y47683420D02*
X69537619Y47607229D01*
X69537619Y47607229D02*
X69461428Y47569134D01*
X57891905Y48805181D02*
X57891905Y49805181D01*
X57891905Y49805181D02*
X58130000Y49805181D01*
X58130000Y49805181D02*
X58272857Y49757562D01*
X58272857Y49757562D02*
X58368095Y49662324D01*
X58368095Y49662324D02*
X58415714Y49567086D01*
X58415714Y49567086D02*
X58463333Y49376610D01*
X58463333Y49376610D02*
X58463333Y49233753D01*
X58463333Y49233753D02*
X58415714Y49043277D01*
X58415714Y49043277D02*
X58368095Y48948039D01*
X58368095Y48948039D02*
X58272857Y48852800D01*
X58272857Y48852800D02*
X58130000Y48805181D01*
X58130000Y48805181D02*
X57891905Y48805181D01*
X59368095Y49805181D02*
X58891905Y49805181D01*
X58891905Y49805181D02*
X58844286Y49328991D01*
X58844286Y49328991D02*
X58891905Y49376610D01*
X58891905Y49376610D02*
X58987143Y49424229D01*
X58987143Y49424229D02*
X59225238Y49424229D01*
X59225238Y49424229D02*
X59320476Y49376610D01*
X59320476Y49376610D02*
X59368095Y49328991D01*
X59368095Y49328991D02*
X59415714Y49233753D01*
X59415714Y49233753D02*
X59415714Y48995658D01*
X59415714Y48995658D02*
X59368095Y48900420D01*
X59368095Y48900420D02*
X59320476Y48852800D01*
X59320476Y48852800D02*
X59225238Y48805181D01*
X59225238Y48805181D02*
X58987143Y48805181D01*
X58987143Y48805181D02*
X58891905Y48852800D01*
X58891905Y48852800D02*
X58844286Y48900420D01*
X54858571Y46997705D02*
X54401428Y46997705D01*
X54630000Y46997705D02*
X54630000Y47797705D01*
X54630000Y47797705D02*
X54553809Y47683420D01*
X54553809Y47683420D02*
X54477619Y47607229D01*
X54477619Y47607229D02*
X54401428Y47569134D01*
X42911905Y48775181D02*
X42911905Y49775181D01*
X42911905Y49775181D02*
X43150000Y49775181D01*
X43150000Y49775181D02*
X43292857Y49727562D01*
X43292857Y49727562D02*
X43388095Y49632324D01*
X43388095Y49632324D02*
X43435714Y49537086D01*
X43435714Y49537086D02*
X43483333Y49346610D01*
X43483333Y49346610D02*
X43483333Y49203753D01*
X43483333Y49203753D02*
X43435714Y49013277D01*
X43435714Y49013277D02*
X43388095Y48918039D01*
X43388095Y48918039D02*
X43292857Y48822800D01*
X43292857Y48822800D02*
X43150000Y48775181D01*
X43150000Y48775181D02*
X42911905Y48775181D01*
X44340476Y49441848D02*
X44340476Y48775181D01*
X44102381Y49822800D02*
X43864286Y49108515D01*
X43864286Y49108515D02*
X44483333Y49108515D01*
X39878571Y46967705D02*
X39421428Y46967705D01*
X39650000Y46967705D02*
X39650000Y47767705D01*
X39650000Y47767705D02*
X39573809Y47653420D01*
X39573809Y47653420D02*
X39497619Y47577229D01*
X39497619Y47577229D02*
X39421428Y47539134D01*
X27931905Y48775181D02*
X27931905Y49775181D01*
X27931905Y49775181D02*
X28170000Y49775181D01*
X28170000Y49775181D02*
X28312857Y49727562D01*
X28312857Y49727562D02*
X28408095Y49632324D01*
X28408095Y49632324D02*
X28455714Y49537086D01*
X28455714Y49537086D02*
X28503333Y49346610D01*
X28503333Y49346610D02*
X28503333Y49203753D01*
X28503333Y49203753D02*
X28455714Y49013277D01*
X28455714Y49013277D02*
X28408095Y48918039D01*
X28408095Y48918039D02*
X28312857Y48822800D01*
X28312857Y48822800D02*
X28170000Y48775181D01*
X28170000Y48775181D02*
X27931905Y48775181D01*
X28836667Y49775181D02*
X29455714Y49775181D01*
X29455714Y49775181D02*
X29122381Y49394229D01*
X29122381Y49394229D02*
X29265238Y49394229D01*
X29265238Y49394229D02*
X29360476Y49346610D01*
X29360476Y49346610D02*
X29408095Y49298991D01*
X29408095Y49298991D02*
X29455714Y49203753D01*
X29455714Y49203753D02*
X29455714Y48965658D01*
X29455714Y48965658D02*
X29408095Y48870420D01*
X29408095Y48870420D02*
X29360476Y48822800D01*
X29360476Y48822800D02*
X29265238Y48775181D01*
X29265238Y48775181D02*
X28979524Y48775181D01*
X28979524Y48775181D02*
X28884286Y48822800D01*
X28884286Y48822800D02*
X28836667Y48870420D01*
X24898571Y46967705D02*
X24441428Y46967705D01*
X24670000Y46967705D02*
X24670000Y47767705D01*
X24670000Y47767705D02*
X24593809Y47653420D01*
X24593809Y47653420D02*
X24517619Y47577229D01*
X24517619Y47577229D02*
X24441428Y47539134D01*
X3851905Y14145181D02*
X3851905Y15145181D01*
X3851905Y15145181D02*
X4090000Y15145181D01*
X4090000Y15145181D02*
X4232857Y15097562D01*
X4232857Y15097562D02*
X4328095Y15002324D01*
X4328095Y15002324D02*
X4375714Y14907086D01*
X4375714Y14907086D02*
X4423333Y14716610D01*
X4423333Y14716610D02*
X4423333Y14573753D01*
X4423333Y14573753D02*
X4375714Y14383277D01*
X4375714Y14383277D02*
X4328095Y14288039D01*
X4328095Y14288039D02*
X4232857Y14192800D01*
X4232857Y14192800D02*
X4090000Y14145181D01*
X4090000Y14145181D02*
X3851905Y14145181D01*
X4804286Y15049943D02*
X4851905Y15097562D01*
X4851905Y15097562D02*
X4947143Y15145181D01*
X4947143Y15145181D02*
X5185238Y15145181D01*
X5185238Y15145181D02*
X5280476Y15097562D01*
X5280476Y15097562D02*
X5328095Y15049943D01*
X5328095Y15049943D02*
X5375714Y14954705D01*
X5375714Y14954705D02*
X5375714Y14859467D01*
X5375714Y14859467D02*
X5328095Y14716610D01*
X5328095Y14716610D02*
X4756667Y14145181D01*
X4756667Y14145181D02*
X5375714Y14145181D01*
X25483333Y72650420D02*
X25435714Y72602800D01*
X25435714Y72602800D02*
X25292857Y72555181D01*
X25292857Y72555181D02*
X25197619Y72555181D01*
X25197619Y72555181D02*
X25054762Y72602800D01*
X25054762Y72602800D02*
X24959524Y72698039D01*
X24959524Y72698039D02*
X24911905Y72793277D01*
X24911905Y72793277D02*
X24864286Y72983753D01*
X24864286Y72983753D02*
X24864286Y73126610D01*
X24864286Y73126610D02*
X24911905Y73317086D01*
X24911905Y73317086D02*
X24959524Y73412324D01*
X24959524Y73412324D02*
X25054762Y73507562D01*
X25054762Y73507562D02*
X25197619Y73555181D01*
X25197619Y73555181D02*
X25292857Y73555181D01*
X25292857Y73555181D02*
X25435714Y73507562D01*
X25435714Y73507562D02*
X25483333Y73459943D01*
X25864286Y73459943D02*
X25911905Y73507562D01*
X25911905Y73507562D02*
X26007143Y73555181D01*
X26007143Y73555181D02*
X26245238Y73555181D01*
X26245238Y73555181D02*
X26340476Y73507562D01*
X26340476Y73507562D02*
X26388095Y73459943D01*
X26388095Y73459943D02*
X26435714Y73364705D01*
X26435714Y73364705D02*
X26435714Y73269467D01*
X26435714Y73269467D02*
X26388095Y73126610D01*
X26388095Y73126610D02*
X25816667Y72555181D01*
X25816667Y72555181D02*
X26435714Y72555181D01*
X7543333Y39810420D02*
X7495714Y39762800D01*
X7495714Y39762800D02*
X7352857Y39715181D01*
X7352857Y39715181D02*
X7257619Y39715181D01*
X7257619Y39715181D02*
X7114762Y39762800D01*
X7114762Y39762800D02*
X7019524Y39858039D01*
X7019524Y39858039D02*
X6971905Y39953277D01*
X6971905Y39953277D02*
X6924286Y40143753D01*
X6924286Y40143753D02*
X6924286Y40286610D01*
X6924286Y40286610D02*
X6971905Y40477086D01*
X6971905Y40477086D02*
X7019524Y40572324D01*
X7019524Y40572324D02*
X7114762Y40667562D01*
X7114762Y40667562D02*
X7257619Y40715181D01*
X7257619Y40715181D02*
X7352857Y40715181D01*
X7352857Y40715181D02*
X7495714Y40667562D01*
X7495714Y40667562D02*
X7543333Y40619943D01*
X8495714Y39715181D02*
X7924286Y39715181D01*
X8210000Y39715181D02*
X8210000Y40715181D01*
X8210000Y40715181D02*
X8114762Y40572324D01*
X8114762Y40572324D02*
X8019524Y40477086D01*
X8019524Y40477086D02*
X7924286Y40429467D01*
%TO.C,J2*%
D14*
X50730000Y14670000D02*
X82730000Y14670000D01*
X82730000Y-3830000D01*
X50730000Y-3830000D01*
X50730000Y14670000D01*
%TO.C,J3*%
X10770000Y14660000D02*
X52770000Y14660000D01*
X52770000Y-3840000D01*
X10770000Y-3840000D01*
X10770000Y14660000D01*
%TO.C,U3*%
X60990000Y88260000D02*
X5990000Y88260000D01*
X5990000Y62260000D01*
X60990000Y62260000D01*
X60990000Y88260000D01*
X20790000Y84150000D02*
X-2070000Y84150000D01*
X-2070000Y66370000D01*
X20790000Y66370000D01*
X20790000Y84150000D01*
X55080000Y82880000D02*
X38570000Y82880000D01*
X38570000Y67640000D01*
X55080000Y67640000D01*
X55080000Y82880000D01*
D15*
%TO.C,C3*%
X15590000Y56060000D02*
X7350000Y56060000D01*
X7350000Y51540000D02*
X15590000Y51540000D01*
X7350000Y56060000D02*
X7350000Y51540000D01*
%TO.C,D1*%
X15170000Y43230000D02*
X11310000Y43230000D01*
X15170000Y41230000D02*
X11310000Y41230000D01*
X15170000Y41230000D02*
X15170000Y43230000D01*
%TO.C,U2*%
X8960000Y44317500D02*
X4840000Y44317500D01*
X8960000Y44412500D02*
X8960000Y44317500D01*
X8960000Y49437500D02*
X8960000Y49342500D01*
X4840000Y44317500D02*
X4840000Y44412500D01*
X4840000Y49342500D02*
X4840000Y49437500D01*
X4840000Y49437500D02*
X8960000Y49437500D01*
X9740000Y44077500D02*
X9260000Y44077500D01*
X9500000Y44407500D01*
X9740000Y44077500D01*
G36*
X9740000Y44077500D02*
G01*
X9260000Y44077500D01*
X9500000Y44407500D01*
X9740000Y44077500D01*
G37*
%TO.C,U1*%
X28425000Y73215000D02*
X28425000Y77335000D01*
X28490000Y73215000D02*
X28425000Y73215000D01*
X37295000Y73215000D02*
X37230000Y73215000D01*
X28425000Y77335000D02*
X28490000Y77335000D01*
X37230000Y77335000D02*
X37295000Y77335000D01*
X37295000Y77335000D02*
X37295000Y73215000D01*
X28490000Y72675000D02*
X28160000Y72435000D01*
X28160000Y72915000D01*
X28490000Y72675000D01*
G36*
X28490000Y72675000D02*
G01*
X28160000Y72435000D01*
X28160000Y72915000D01*
X28490000Y72675000D01*
G37*
%TO.C,SW2*%
X81370000Y76960000D02*
X81370000Y83260000D01*
X81820000Y76960000D02*
X81370000Y76960000D01*
X85820000Y76960000D02*
X83120000Y76960000D01*
X87120000Y76960000D02*
X87570000Y76960000D01*
X87570000Y76960000D02*
X87570000Y83260000D01*
X81370000Y83260000D02*
X81820000Y83260000D01*
X83120000Y83260000D02*
X85820000Y83260000D01*
X87570000Y83260000D02*
X87170000Y83260000D01*
%TO.C,SW1*%
X81370000Y63950000D02*
X81370000Y70250000D01*
X81820000Y63950000D02*
X81370000Y63950000D01*
X85820000Y63950000D02*
X83120000Y63950000D01*
X87120000Y63950000D02*
X87570000Y63950000D01*
X87570000Y63950000D02*
X87570000Y70250000D01*
X81370000Y70250000D02*
X81820000Y70250000D01*
X83120000Y70250000D02*
X85820000Y70250000D01*
X87570000Y70250000D02*
X87170000Y70250000D01*
%TO.C,R5*%
X73452742Y55882500D02*
X73927258Y55882500D01*
X73452742Y54837500D02*
X73927258Y54837500D01*
%TO.C,R4*%
X58382742Y55882500D02*
X58857258Y55882500D01*
X58382742Y54837500D02*
X58857258Y54837500D01*
%TO.C,R3*%
X43462742Y55882500D02*
X43937258Y55882500D01*
X43462742Y54837500D02*
X43937258Y54837500D01*
%TO.C,R2*%
X28452742Y55882500D02*
X28927258Y55882500D01*
X28452742Y54837500D02*
X28927258Y54837500D01*
%TO.C,R1*%
X7352500Y17742258D02*
X7352500Y17267742D01*
X6307500Y17742258D02*
X6307500Y17267742D01*
%TO.C,L1*%
X11790000Y44420000D02*
X11790000Y49520000D01*
X16990000Y44420000D02*
X16990000Y49520000D01*
%TO.C,J7*%
X71095000Y50880000D02*
X71095000Y52260000D01*
X72475000Y50880000D02*
X71095000Y50880000D01*
X73745000Y50880000D02*
X76395000Y50880000D01*
X73745000Y50880000D02*
X73745000Y53640000D01*
X76395000Y50880000D02*
X76395000Y53640000D01*
X73745000Y53640000D02*
X76395000Y53640000D01*
%TO.C,J6*%
X56005000Y50880000D02*
X56005000Y52260000D01*
X57385000Y50880000D02*
X56005000Y50880000D01*
X58655000Y50880000D02*
X61305000Y50880000D01*
X58655000Y50880000D02*
X58655000Y53640000D01*
X61305000Y50880000D02*
X61305000Y53640000D01*
X58655000Y53640000D02*
X61305000Y53640000D01*
%TO.C,J5*%
X41085000Y50850000D02*
X41085000Y52230000D01*
X42465000Y50850000D02*
X41085000Y50850000D01*
X43735000Y50850000D02*
X46385000Y50850000D01*
X43735000Y50850000D02*
X43735000Y53610000D01*
X46385000Y50850000D02*
X46385000Y53610000D01*
X43735000Y53610000D02*
X46385000Y53610000D01*
%TO.C,J4*%
X28695000Y53610000D02*
X31345000Y53610000D01*
X31345000Y50850000D02*
X31345000Y53610000D01*
X28695000Y50850000D02*
X28695000Y53610000D01*
X28695000Y50850000D02*
X31345000Y50850000D01*
X27425000Y50850000D02*
X26045000Y50850000D01*
X26045000Y50850000D02*
X26045000Y52230000D01*
%TO.C,J1*%
X67300000Y80880000D02*
X68680000Y80880000D01*
X67300000Y79500000D02*
X67300000Y80880000D01*
X67300000Y78230000D02*
X67300000Y70500000D01*
X67300000Y78230000D02*
X70060000Y78230000D01*
X67300000Y70500000D02*
X70060000Y70500000D01*
X70060000Y78230000D02*
X70060000Y70500000D01*
%TO.C,F4*%
X77080000Y41100000D02*
X70140000Y41100000D01*
X70140000Y41100000D02*
X70140000Y24900000D01*
X75610000Y34600000D02*
X75610000Y31400000D01*
X73610000Y33750000D02*
X73610000Y32250000D01*
X71610000Y31400000D02*
X71610000Y34600000D01*
X77080000Y24900000D02*
X77080000Y41100000D01*
X70140000Y24900000D02*
X77080000Y24900000D01*
%TO.C,F3*%
X62110000Y41100000D02*
X55170000Y41100000D01*
X55170000Y41100000D02*
X55170000Y24900000D01*
X60640000Y34600000D02*
X60640000Y31400000D01*
X58640000Y33750000D02*
X58640000Y32250000D01*
X56640000Y31400000D02*
X56640000Y34600000D01*
X62110000Y24900000D02*
X62110000Y41100000D01*
X55170000Y24900000D02*
X62110000Y24900000D01*
%TO.C,F2*%
X47120000Y41100000D02*
X40180000Y41100000D01*
X40180000Y41100000D02*
X40180000Y24900000D01*
X45650000Y34600000D02*
X45650000Y31400000D01*
X43650000Y33750000D02*
X43650000Y32250000D01*
X41650000Y31400000D02*
X41650000Y34600000D01*
X47120000Y24900000D02*
X47120000Y41100000D01*
X40180000Y24900000D02*
X47120000Y24900000D01*
%TO.C,F1*%
X32180000Y41100000D02*
X25240000Y41100000D01*
X25240000Y41100000D02*
X25240000Y24900000D01*
X30710000Y34600000D02*
X30710000Y31400000D01*
X28710000Y33750000D02*
X28710000Y32250000D01*
X26710000Y31400000D02*
X26710000Y34600000D01*
X32180000Y24900000D02*
X32180000Y41100000D01*
X25240000Y24900000D02*
X32180000Y24900000D01*
%TO.C,D6*%
X70190000Y48510000D02*
X70190000Y43010000D01*
X70190000Y48510000D02*
X77190000Y48510000D01*
X70190000Y43010000D02*
X76740000Y43010000D01*
X70990000Y44860000D02*
X70990000Y46660000D01*
X76390000Y44860000D02*
X76390000Y46660000D01*
X76740000Y43010000D02*
X77190000Y43460000D01*
X77190000Y43460000D02*
X77190000Y48510000D01*
%TO.C,D5*%
X55130000Y48510000D02*
X55130000Y43010000D01*
X55130000Y48510000D02*
X62130000Y48510000D01*
X55130000Y43010000D02*
X61680000Y43010000D01*
X55930000Y44860000D02*
X55930000Y46660000D01*
X61330000Y44860000D02*
X61330000Y46660000D01*
X61680000Y43010000D02*
X62130000Y43460000D01*
X62130000Y43460000D02*
X62130000Y48510000D01*
%TO.C,D4*%
X40150000Y48480000D02*
X40150000Y42980000D01*
X40150000Y48480000D02*
X47150000Y48480000D01*
X40150000Y42980000D02*
X46700000Y42980000D01*
X40950000Y44830000D02*
X40950000Y46630000D01*
X46350000Y44830000D02*
X46350000Y46630000D01*
X46700000Y42980000D02*
X47150000Y43430000D01*
X47150000Y43430000D02*
X47150000Y48480000D01*
%TO.C,D3*%
X25170000Y48480000D02*
X25170000Y42980000D01*
X25170000Y48480000D02*
X32170000Y48480000D01*
X25170000Y42980000D02*
X31720000Y42980000D01*
X25970000Y44830000D02*
X25970000Y46630000D01*
X31370000Y44830000D02*
X31370000Y46630000D01*
X31720000Y42980000D02*
X32170000Y43430000D01*
X32170000Y43430000D02*
X32170000Y48480000D01*
%TO.C,D2*%
X3630000Y15635000D02*
X5550000Y15635000D01*
X5550000Y15635000D02*
X5550000Y18320000D01*
X3630000Y18320000D02*
X3630000Y15635000D01*
%TO.C,C2*%
X26170000Y75505580D02*
X26170000Y75224420D01*
X25150000Y75505580D02*
X25150000Y75224420D01*
%TO.C,C1*%
X6928748Y43100000D02*
X8351252Y43100000D01*
X6928748Y41280000D02*
X8351252Y41280000D01*
%TD*%
M02*
