%TF.GenerationSoftware,KiCad,Pcbnew,9.0.5*%
%TF.CreationDate,2025-10-09T03:18:41-06:00*%
%TF.ProjectId,PropController,50726f70-436f-46e7-9472-6f6c6c65722e,1.0*%
%TF.SameCoordinates,PX5dc1770PY781d830*%
%TF.FileFunction,Drillmap*%
%TF.FilePolarity,Positive*%
%FSLAX45Y45*%
G04 Gerber Fmt 4.5, Leading zero omitted, Abs format (unit mm)*
G04 Created by KiCad (PCBNEW 9.0.5) date 2025-10-09 03:18:41*
%MOMM*%
%LPD*%
G01*
G04 APERTURE LIST*
%ADD10C,0.050000*%
%ADD11C,0.200000*%
G04 APERTURE END LIST*
D10*
X1000Y600000D02*
X1000Y9400000D01*
X8769000Y0D02*
X601000Y0D01*
X9369000Y9400000D02*
X9369000Y600000D01*
X601000Y10000000D02*
X8769000Y10000000D01*
X8979000Y9400000D02*
G75*
G02*
X8559000Y9400000I-210000J0D01*
G01*
X8559000Y9400000D02*
G75*
G02*
X8979000Y9400000I210000J0D01*
G01*
X8769000Y10000000D02*
G75*
G02*
X9369000Y9400000I0J-600000D01*
G01*
X811000Y9400000D02*
G75*
G02*
X391000Y9400000I-210000J0D01*
G01*
X391000Y9400000D02*
G75*
G02*
X811000Y9400000I210000J0D01*
G01*
X1000Y9400000D02*
G75*
G02*
X601000Y10000000I600000J0D01*
G01*
X811000Y600000D02*
G75*
G02*
X391000Y600000I-210000J0D01*
G01*
X391000Y600000D02*
G75*
G02*
X811000Y600000I210000J0D01*
G01*
X601000Y0D02*
G75*
G02*
X1000Y600000I0J600000D01*
G01*
X9369000Y600000D02*
G75*
G02*
X8769000Y0I-600000J0D01*
G01*
X8979000Y600000D02*
G75*
G02*
X8559000Y600000I-210000J0D01*
G01*
X8559000Y600000D02*
G75*
G02*
X8979000Y600000I210000J0D01*
G01*
D11*
X259277Y-313984D02*
X259277Y-113984D01*
X259277Y-113984D02*
X306896Y-113984D01*
X306896Y-113984D02*
X335467Y-123508D01*
X335467Y-123508D02*
X354515Y-142555D01*
X354515Y-142555D02*
X364039Y-161603D01*
X364039Y-161603D02*
X373562Y-199698D01*
X373562Y-199698D02*
X373562Y-228269D01*
X373562Y-228269D02*
X364039Y-266365D01*
X364039Y-266365D02*
X354515Y-285412D01*
X354515Y-285412D02*
X335467Y-304460D01*
X335467Y-304460D02*
X306896Y-313984D01*
X306896Y-313984D02*
X259277Y-313984D01*
X459277Y-313984D02*
X459277Y-180650D01*
X459277Y-218746D02*
X468801Y-199698D01*
X468801Y-199698D02*
X478324Y-190174D01*
X478324Y-190174D02*
X497372Y-180650D01*
X497372Y-180650D02*
X516420Y-180650D01*
X583086Y-313984D02*
X583086Y-180650D01*
X583086Y-113984D02*
X573563Y-123508D01*
X573563Y-123508D02*
X583086Y-133031D01*
X583086Y-133031D02*
X592610Y-123508D01*
X592610Y-123508D02*
X583086Y-113984D01*
X583086Y-113984D02*
X583086Y-133031D01*
X706896Y-313984D02*
X687848Y-304460D01*
X687848Y-304460D02*
X678324Y-285412D01*
X678324Y-285412D02*
X678324Y-113984D01*
X811658Y-313984D02*
X792610Y-304460D01*
X792610Y-304460D02*
X783086Y-285412D01*
X783086Y-285412D02*
X783086Y-113984D01*
X1040229Y-313984D02*
X1040229Y-113984D01*
X1040229Y-113984D02*
X1106896Y-256841D01*
X1106896Y-256841D02*
X1173563Y-113984D01*
X1173563Y-113984D02*
X1173563Y-313984D01*
X1354515Y-313984D02*
X1354515Y-209222D01*
X1354515Y-209222D02*
X1344991Y-190174D01*
X1344991Y-190174D02*
X1325944Y-180650D01*
X1325944Y-180650D02*
X1287848Y-180650D01*
X1287848Y-180650D02*
X1268801Y-190174D01*
X1354515Y-304460D02*
X1335467Y-313984D01*
X1335467Y-313984D02*
X1287848Y-313984D01*
X1287848Y-313984D02*
X1268801Y-304460D01*
X1268801Y-304460D02*
X1259277Y-285412D01*
X1259277Y-285412D02*
X1259277Y-266365D01*
X1259277Y-266365D02*
X1268801Y-247317D01*
X1268801Y-247317D02*
X1287848Y-237793D01*
X1287848Y-237793D02*
X1335467Y-237793D01*
X1335467Y-237793D02*
X1354515Y-228269D01*
X1449753Y-180650D02*
X1449753Y-380650D01*
X1449753Y-190174D02*
X1468801Y-180650D01*
X1468801Y-180650D02*
X1506896Y-180650D01*
X1506896Y-180650D02*
X1525943Y-190174D01*
X1525943Y-190174D02*
X1535467Y-199698D01*
X1535467Y-199698D02*
X1544991Y-218746D01*
X1544991Y-218746D02*
X1544991Y-275889D01*
X1544991Y-275889D02*
X1535467Y-294936D01*
X1535467Y-294936D02*
X1525943Y-304460D01*
X1525943Y-304460D02*
X1506896Y-313984D01*
X1506896Y-313984D02*
X1468801Y-313984D01*
X1468801Y-313984D02*
X1449753Y-304460D01*
X1630705Y-294936D02*
X1640229Y-304460D01*
X1640229Y-304460D02*
X1630705Y-313984D01*
X1630705Y-313984D02*
X1621182Y-304460D01*
X1621182Y-304460D02*
X1630705Y-294936D01*
X1630705Y-294936D02*
X1630705Y-313984D01*
X1630705Y-190174D02*
X1640229Y-199698D01*
X1640229Y-199698D02*
X1630705Y-209222D01*
X1630705Y-209222D02*
X1621182Y-199698D01*
X1621182Y-199698D02*
X1630705Y-190174D01*
X1630705Y-190174D02*
X1630705Y-209222D01*
M02*
