ISO-10303-21;
HEADER;
FILE_DESCRIPTION (( 'STEP AP214' ),
    '1' );
FILE_NAME ('Apache Mounting Plate.STEP',
    '2024-11-22T07:13:32',
    ( '' ),
    ( '' ),
    'SwSTEP 2.0',
    'SolidWorks 2024',
    '' );
FILE_SCHEMA (( 'AUTOMOTIVE_DESIGN' ));
ENDSEC;

DATA;
#1 = ORIENTED_EDGE ( 'NONE', *, *, #417, .F. ) ;
#2 = CARTESIAN_POINT ( 'NONE',  ( 100.4750000000000227, -71.25000000000002842, 4.000000000000000000 ) ) ;
#3 = CARTESIAN_POINT ( 'NONE',  ( 116.3599938181997118, -109.3599938182699987, 4.000000000000000000 ) ) ;
#4 = AXIS2_PLACEMENT_3D ( 'NONE', #187, #103, #434 ) ;
#5 = VECTOR ( 'NONE', #1041, 1000.000000000000000 ) ;
#6 = VECTOR ( 'NONE', #667, 1000.000000000000000 ) ;
#7 = VERTEX_POINT ( 'NONE', #220 ) ;
#8 = AXIS2_PLACEMENT_3D ( 'NONE', #649, #971, #303 ) ;
#9 = CARTESIAN_POINT ( 'NONE',  ( -68.25999381819984535, 19.65999381827022319, -3.469446951953614189E-15 ) ) ;
#10 = ORIENTED_EDGE ( 'NONE', *, *, #90, .F. ) ;
#11 = FACE_BOUND ( 'NONE', #700, .T. ) ;
#12 = EDGE_CURVE ( 'NONE', #571, #915, #1059, .T. ) ;
#13 = ORIENTED_EDGE ( 'NONE', *, *, #647, .T. ) ;
#14 = DIRECTION ( 'NONE',  ( -1.000000000000000000, 0.000000000000000000, 0.000000000000000000 ) ) ;
#15 = ADVANCED_FACE ( 'NONE', ( #805 ), #708, .F. ) ;
#16 = AXIS2_PLACEMENT_3D ( 'NONE', #660, #982, #884 ) ;
#17 = AXIS2_PLACEMENT_3D ( 'NONE', #802, #880, #573 ) ;
#18 = CIRCLE ( 'NONE', #921, 2.100000000000004530 ) ;
#19 = EDGE_CURVE ( 'NONE', #724, #958, #853, .T. ) ;
#20 = VERTEX_POINT ( 'NONE', #324 ) ;
#21 = CARTESIAN_POINT ( 'NONE',  ( 98.37500000000001421, 71.25000000000000000, 4.000000000000000000 ) ) ;
#22 = FACE_OUTER_BOUND ( 'NONE', #894, .T. ) ;
#23 = VERTEX_POINT ( 'NONE', #1052 ) ;
#24 = CARTESIAN_POINT ( 'NONE',  ( -98.37499999999998579, 71.24999999999997158, 4.000000000000000000 ) ) ;
#25 = ORIENTED_EDGE ( 'NONE', *, *, #527, .F. ) ;
#26 = CARTESIAN_POINT ( 'NONE',  ( -98.37499999999998579, 71.24999999999997158, 4.000000000000000000 ) ) ;
#27 = ORIENTED_EDGE ( 'NONE', *, *, #153, .F. ) ;
#28 = CARTESIAN_POINT ( 'NONE',  ( -96.27499999999999147, 71.24999999999997158, 4.000000000000000000 ) ) ;
#29 = VERTEX_POINT ( 'NONE', #811 ) ;
#30 = CARTESIAN_POINT ( 'NONE',  ( 33.95999381819976293, 19.65999381827000292, -3.469446951953614189E-15 ) ) ;
#31 = EDGE_CURVE ( 'NONE', #666, #1046, #255, .T. ) ;
#32 = ORIENTED_EDGE ( 'NONE', *, *, #927, .T. ) ;
#33 = CIRCLE ( 'NONE', #540, 8.999999999999994671 ) ;
#34 = CARTESIAN_POINT ( 'NONE',  ( -68.25999381819978851, 74.65999381827015213, 0.000000000000000000 ) ) ;
#35 = CIRCLE ( 'NONE', #169, 2.100000000000004530 ) ;
#36 = ORIENTED_EDGE ( 'NONE', *, *, #780, .T. ) ;
#37 = AXIS2_PLACEMENT_3D ( 'NONE', #404, #376, #1025 ) ;
#38 = EDGE_CURVE ( 'NONE', #912, #774, #565, .T. ) ;
#39 = AXIS2_PLACEMENT_3D ( 'NONE', #474, #1060, #740 ) ;
#40 = ORIENTED_EDGE ( 'NONE', *, *, #136, .T. ) ;
#41 = DIRECTION ( 'NONE',  ( -0.000000000000000000, -0.000000000000000000, -1.000000000000000000 ) ) ;
#42 = ORIENTED_EDGE ( 'NONE', *, *, #492, .T. ) ;
#43 = CARTESIAN_POINT ( 'NONE',  ( -101.3599938182000102, -34.35999381826999866, 0.000000000000000000 ) ) ;
#44 = DIRECTION ( 'NONE',  ( -0.000000000000000000, -0.000000000000000000, -1.000000000000000000 ) ) ;
#45 = EDGE_LOOP ( 'NONE', ( #278, #737, #537, #995 ) ) ;
#46 = CARTESIAN_POINT ( 'NONE',  ( 116.3599938181997118, 109.3599938182699987, 4.000000000000000000 ) ) ;
#47 = ORIENTED_EDGE ( 'NONE', *, *, #783, .T. ) ;
#48 = FACE_BOUND ( 'NONE', #222, .T. ) ;
#49 = DIRECTION ( 'NONE',  ( -0.000000000000000000, -0.000000000000000000, -1.000000000000000000 ) ) ;
#50 = ADVANCED_FACE ( 'NONE', ( #898 ), #214, .F. ) ;
#51 = DIRECTION ( 'NONE',  ( -0.000000000000000000, -0.000000000000000000, 1.000000000000000000 ) ) ;
#52 = LINE ( 'NONE', #61, #837 ) ;
#53 = ADVANCED_FACE ( 'NONE', ( #554 ), #141, .F. ) ;
#54 = AXIS2_PLACEMENT_3D ( 'NONE', #978, #576, #580 ) ;
#55 = AXIS2_PLACEMENT_3D ( 'NONE', #793, #478, #1027 ) ;
#56 = EDGE_LOOP ( 'NONE', ( #515, #174, #690, #372 ) ) ;
#57 = CARTESIAN_POINT ( 'NONE',  ( -70.35999381819979703, 74.65999381827015213, 4.000000000000003553 ) ) ;
#58 = FACE_OUTER_BOUND ( 'NONE', #854, .T. ) ;
#59 = CIRCLE ( 'NONE', #950, 2.100000000000004530 ) ;
#60 = CARTESIAN_POINT ( 'NONE',  ( -110.3599938181999960, -34.35999381826999866, 4.000000000000000000 ) ) ;
#61 = CARTESIAN_POINT ( 'NONE',  ( 116.3599938181997118, -109.3599938182699987, 4.000000000000000000 ) ) ;
#62 = CARTESIAN_POINT ( 'NONE',  ( -100.4749999999999943, -71.25000000000002842, 0.000000000000000000 ) ) ;
#63 = LINE ( 'NONE', #475, #851 ) ;
#64 = ORIENTED_EDGE ( 'NONE', *, *, #943, .T. ) ;
#65 = FACE_BOUND ( 'NONE', #941, .T. ) ;
#66 = CYLINDRICAL_SURFACE ( 'NONE', #539, 2.100000000000004530 ) ;
#67 = LINE ( 'NONE', #1058, #794 ) ;
#68 = CARTESIAN_POINT ( 'NONE',  ( -98.37499999999998579, 71.24999999999997158, 4.000000000000000000 ) ) ;
#69 = DIRECTION ( 'NONE',  ( 1.000000000000000000, 0.000000000000000000, 0.000000000000000000 ) ) ;
#70 = DIRECTION ( 'NONE',  ( 0.000000000000000000, 0.000000000000000000, 1.000000000000000000 ) ) ;
#71 = ORIENTED_EDGE ( 'NONE', *, *, #422, .F. ) ;
#72 = CARTESIAN_POINT ( 'NONE',  ( 110.3599938181999107, -34.35999381826999866, 0.000000000000000000 ) ) ;
#73 = DIRECTION ( 'NONE',  ( 1.000000000000000000, 0.000000000000000000, 0.000000000000000000 ) ) ;
#74 = CARTESIAN_POINT ( 'NONE',  ( -92.35999381820001020, -34.35999381826999866, 4.000000000000000000 ) ) ;
#75 = DIRECTION ( 'NONE',  ( -1.000000000000000000, 0.000000000000000000, 0.000000000000000000 ) ) ;
#76 = DIRECTION ( 'NONE',  ( 0.000000000000000000, 0.000000000000000000, 1.000000000000000000 ) ) ;
#77 = ORIENTED_EDGE ( 'NONE', *, *, #980, .T. ) ;
#78 = DIRECTION ( 'NONE',  ( 0.000000000000000000, 0.000000000000000000, 1.000000000000000000 ) ) ;
#79 = DIRECTION ( 'NONE',  ( 0.000000000000000000, 0.000000000000000000, 1.000000000000000000 ) ) ;
#80 = AXIS2_PLACEMENT_3D ( 'NONE', #387, #567, #1042 ) ;
#81 = AXIS2_PLACEMENT_3D ( 'NONE', #287, #616, #354 ) ;
#82 = AXIS2_PLACEMENT_3D ( 'NONE', #389, #562, #215 ) ;
#83 = VERTEX_POINT ( 'NONE', #548 ) ;
#84 = DIRECTION ( 'NONE',  ( 1.000000000000000000, 0.000000000000000000, 0.000000000000000000 ) ) ;
#85 = CARTESIAN_POINT ( 'NONE',  ( -96.27499999999999147, -71.25000000000002842, 4.000000000000000000 ) ) ;
#86 = ADVANCED_FACE ( 'NONE', ( #964 ), #642, .F. ) ;
#87 = VERTEX_POINT ( 'NONE', #878 ) ;
#88 = CARTESIAN_POINT ( 'NONE',  ( 29.75999381819975653, 19.65999381827000292, 4.000000000000000000 ) ) ;
#89 = CARTESIAN_POINT ( 'NONE',  ( 96.27500000000001990, -71.25000000000002842, 0.000000000000000000 ) ) ;
#90 = EDGE_CURVE ( 'NONE', #87, #807, #195, .T. ) ;
#91 = EDGE_LOOP ( 'NONE', ( #937, #974 ) ) ;
#92 = DIRECTION ( 'NONE',  ( 1.000000000000000000, 0.000000000000000000, 0.000000000000000000 ) ) ;
#93 = AXIS2_PLACEMENT_3D ( 'NONE', #413, #585, #985 ) ;
#94 = VECTOR ( 'NONE', #653, 1000.000000000000000 ) ;
#95 = EDGE_LOOP ( 'NONE', ( #681, #27 ) ) ;
#96 = DIRECTION ( 'NONE',  ( 0.000000000000000000, 0.000000000000000000, 1.000000000000000000 ) ) ;
#97 = ORIENTED_EDGE ( 'NONE', *, *, #38, .T. ) ;
#98 = EDGE_CURVE ( 'NONE', #460, #688, #52, .T. ) ;
#99 = LINE ( 'NONE', #182, #763 ) ;
#100 = EDGE_CURVE ( 'NONE', #1061, #83, #310, .T. ) ;
#101 = VERTEX_POINT ( 'NONE', #755 ) ;
#102 = DIRECTION ( 'NONE',  ( 1.000000000000000000, 0.000000000000000000, 0.000000000000000000 ) ) ;
#103 = DIRECTION ( 'NONE',  ( 0.000000000000000000, 0.000000000000000000, 1.000000000000000000 ) ) ;
#104 = AXIS2_PLACEMENT_3D ( 'NONE', #956, #484, #399 ) ;
#105 = AXIS2_PLACEMENT_3D ( 'NONE', #24, #41, #268 ) ;
#106 = ORIENTED_EDGE ( 'NONE', *, *, #254, .T. ) ;
#107 = CARTESIAN_POINT ( 'NONE',  ( -146.3599938181999960, -79.35999381826978549, 4.000000000000000000 ) ) ;
#108 = ORIENTED_EDGE ( 'NONE', *, *, #38, .F. ) ;
#109 = ADVANCED_FACE ( 'NONE', ( #325 ), #304, .F. ) ;
#110 = EDGE_LOOP ( 'NONE', ( #64, #503 ) ) ;
#111 = EDGE_CURVE ( 'NONE', #958, #439, #651, .T. ) ;
#112 = DIRECTION ( 'NONE',  ( 1.000000000000000000, 0.000000000000000000, 0.000000000000000000 ) ) ;
#113 = ORIENTED_EDGE ( 'NONE', *, *, #492, .F. ) ;
#114 = DIRECTION ( 'NONE',  ( 0.000000000000000000, 0.000000000000000000, 1.000000000000000000 ) ) ;
#115 = ORIENTED_EDGE ( 'NONE', *, *, #1050, .F. ) ;
#116 = PRODUCT_DEFINITION_SHAPE ( 'NONE', 'NONE',  #605 ) ;
#117 = CARTESIAN_POINT ( 'NONE',  ( -116.3599938181999960, -79.35999381826999866, 4.000000000000000000 ) ) ;
#118 = ORIENTED_EDGE ( 'NONE', *, *, #709, .F. ) ;
#119 = AXIS2_PLACEMENT_3D ( 'NONE', #211, #557, #232 ) ;
#120 = AXIS2_PLACEMENT_3D ( 'NONE', #691, #114, #685 ) ;
#121 = ORIENTED_EDGE ( 'NONE', *, *, #679, .T. ) ;
#122 = CIRCLE ( 'NONE', #1013, 2.100000000000004530 ) ;
#123 = DIRECTION ( 'NONE',  ( -0.000000000000000000, -0.000000000000000000, 1.000000000000000000 ) ) ;
#124 = CIRCLE ( 'NONE', #911, 2.100000000000004530 ) ;
#125 = ORIENTED_EDGE ( 'NONE', *, *, #932, .F. ) ;
#126 = DIRECTION ( 'NONE',  ( -0.000000000000000000, -0.000000000000000000, -1.000000000000000000 ) ) ;
#127 = CARTESIAN_POINT ( 'NONE',  ( 29.75999381819976364, 74.65999381826993897, 4.000000000000000000 ) ) ;
#128 = VERTEX_POINT ( 'NONE', #959 ) ;
#129 = VERTEX_POINT ( 'NONE', #972 ) ;
#130 = FACE_OUTER_BOUND ( 'NONE', #757, .T. ) ;
#131 = DIRECTION ( 'NONE',  ( -0.000000000000000000, -0.000000000000000000, -1.000000000000000000 ) ) ;
#132 = ADVANCED_FACE ( 'NONE', ( #1064 ), #244, .F. ) ;
#133 = LINE ( 'NONE', #60, #179 ) ;
#134 = CARTESIAN_POINT ( 'NONE',  ( 101.3599938181999249, -34.35999381826999866, 0.000000000000000000 ) ) ;
#135 = CARTESIAN_POINT ( 'NONE',  ( 96.27500000000001990, 71.25000000000000000, 4.000000000000000000 ) ) ;
#136 = EDGE_CURVE ( 'NONE', #20, #856, #419, .T. ) ;
#137 = VERTEX_POINT ( 'NONE', #569 ) ;
#138 = CYLINDRICAL_SURFACE ( 'NONE', #607, 2.100000000000004530 ) ;
#139 = CARTESIAN_POINT ( 'NONE',  ( -68.25999381819984535, 19.65999381827022319, -3.469446951953614189E-15 ) ) ;
#140 = LINE ( 'NONE', #641, #987 ) ;
#141 = PLANE ( 'NONE',  #234 ) ;
#142 = CARTESIAN_POINT ( 'NONE',  ( 31.85999381819976861, 74.65999381826993897, -3.469446951953614189E-15 ) ) ;
#143 = CIRCLE ( 'NONE', #506, 2.100000000000004530 ) ;
#144 = APPLICATION_PROTOCOL_DEFINITION ( 'draft international standard', 'automotive_design', 1998, #162 ) ;
#145 = AXIS2_PLACEMENT_3D ( 'NONE', #491, #659, #826 ) ;
#146 = ORIENTED_EDGE ( 'NONE', *, *, #111, .T. ) ;
#147 = CARTESIAN_POINT ( 'NONE',  ( -146.3599938181999960, 79.35999381826978549, 0.000000000000000000 ) ) ;
#148 = DIRECTION ( 'NONE',  ( -0.000000000000000000, -0.000000000000000000, 1.000000000000000000 ) ) ;
#149 = AXIS2_PLACEMENT_3D ( 'NONE', #346, #683, #1001 ) ;
#150 = DIRECTION ( 'NONE',  ( 0.000000000000000000, 0.000000000000000000, 1.000000000000000000 ) ) ;
#151 = ORIENTED_EDGE ( 'NONE', *, *, #801, .F. ) ;
#152 = VERTEX_POINT ( 'NONE', #62 ) ;
#153 = EDGE_CURVE ( 'NONE', #493, #184, #694, .T. ) ;
#154 = DIRECTION ( 'NONE',  ( -0.000000000000000000, -0.000000000000000000, -1.000000000000000000 ) ) ;
#155 = CARTESIAN_POINT ( 'NONE',  ( -70.35999381819985388, 19.65999381827022319, -3.469446951953614189E-15 ) ) ;
#156 = LINE ( 'NONE', #459, #337 ) ;
#157 = DIRECTION ( 'NONE',  ( -0.000000000000000000, -0.000000000000000000, 1.000000000000000000 ) ) ;
#158 =( LENGTH_UNIT ( ) NAMED_UNIT ( * ) SI_UNIT ( .MILLI., .METRE. ) );
#159 = VERTEX_POINT ( 'NONE', #221 ) ;
#160 = LINE ( 'NONE', #645, #5 ) ;
#161 = DIRECTION ( 'NONE',  ( 0.000000000000000000, 0.000000000000000000, 1.000000000000000000 ) ) ;
#162 = APPLICATION_CONTEXT ( 'automotive_design' ) ;
#163 = DIRECTION ( 'NONE',  ( 1.000000000000000000, 0.000000000000000000, 0.000000000000000000 ) ) ;
#164 = FACE_OUTER_BOUND ( 'NONE', #772, .T. ) ;
#165 = ORIENTED_EDGE ( 'NONE', *, *, #674, .F. ) ;
#166 = CARTESIAN_POINT ( 'NONE',  ( 116.3599938181997118, 109.3599938182699987, 0.000000000000000000 ) ) ;
#167 = LINE ( 'NONE', #907, #624 ) ;
#168 = AXIS2_PLACEMENT_3D ( 'NONE', #784, #797, #810 ) ;
#169 = AXIS2_PLACEMENT_3D ( 'NONE', #919, #96, #84 ) ;
#170 = VECTOR ( 'NONE', #722, 1000.000000000000000 ) ;
#171 = ORIENTED_EDGE ( 'NONE', *, *, #339, .F. ) ;
#172 = DIRECTION ( 'NONE',  ( 0.000000000000000000, 0.000000000000000000, 1.000000000000000000 ) ) ;
#173 = CARTESIAN_POINT ( 'NONE',  ( 98.37500000000001421, 71.25000000000000000, 0.000000000000000000 ) ) ;
#174 = ORIENTED_EDGE ( 'NONE', *, *, #153, .T. ) ;
#175 = DIRECTION ( 'NONE',  ( 1.000000000000000000, 0.000000000000000000, 0.000000000000000000 ) ) ;
#176 = ORIENTED_EDGE ( 'NONE', *, *, #709, .T. ) ;
#177 = PLANE ( 'NONE',  #509 ) ;
#178 = ADVANCED_FACE ( 'NONE', ( #164 ), #329, .F. ) ;
#179 = VECTOR ( 'NONE', #870, 1000.000000000000000 ) ;
#180 = VECTOR ( 'NONE', #840, 1000.000000000000000 ) ;
#181 = VERTEX_POINT ( 'NONE', #555 ) ;
#182 = CARTESIAN_POINT ( 'NONE',  ( -100.4749999999999943, -71.25000000000002842, 4.000000000000000000 ) ) ;
#183 = EDGE_CURVE ( 'NONE', #812, #29, #143, .T. ) ;
#184 = VERTEX_POINT ( 'NONE', #135 ) ;
#185 = ADVANCED_FACE ( 'NONE', ( #928 ), #601, .F. ) ;
#186 = CARTESIAN_POINT ( 'NONE',  ( 98.37500000000001421, -71.25000000000002842, 0.000000000000000000 ) ) ;
#187 = CARTESIAN_POINT ( 'NONE',  ( 116.3599938181999249, 79.35999381826999866, 0.000000000000000000 ) ) ;
#188 = ORIENTED_EDGE ( 'NONE', *, *, #673, .T. ) ;
#189 = CARTESIAN_POINT ( 'NONE',  ( -72.45999381819980556, 74.65999381827015213, 4.000000000000003553 ) ) ;
#190 = EDGE_CURVE ( 'NONE', #505, #499, #1011, .T. ) ;
#191 = AXIS2_PLACEMENT_3D ( 'NONE', #766, #365, #357 ) ;
#192 = ORIENTED_EDGE ( 'NONE', *, *, #400, .T. ) ;
#193 = DIRECTION ( 'NONE',  ( -0.000000000000000000, -0.000000000000000000, -1.000000000000000000 ) ) ;
#194 = ORIENTED_EDGE ( 'NONE', *, *, #98, .F. ) ;
#195 = CIRCLE ( 'NONE', #697, 2.100000000000004530 ) ;
#196 = DIRECTION ( 'NONE',  ( -0.000000000000000000, -0.000000000000000000, 1.000000000000000000 ) ) ;
#197 = ORIENTED_EDGE ( 'NONE', *, *, #369, .T. ) ;
#198 = LINE ( 'NONE', #944, #382 ) ;
#199 = VERTEX_POINT ( 'NONE', #352 ) ;
#200 = EDGE_LOOP ( 'NONE', ( #638, #535, #275, #658 ) ) ;
#201 = CARTESIAN_POINT ( 'NONE',  ( -68.25999381819978851, 74.65999381827015213, 0.000000000000000000 ) ) ;
#202 = EDGE_LOOP ( 'NONE', ( #1040, #619, #865, #1008 ) ) ;
#203 = EDGE_CURVE ( 'NONE', #912, #377, #844, .T. ) ;
#204 = DIRECTION ( 'NONE',  ( 0.000000000000000000, 0.000000000000000000, 1.000000000000000000 ) ) ;
#205 = AXIS2_PLACEMENT_3D ( 'NONE', #561, #238, #636 ) ;
#206 = EDGE_CURVE ( 'NONE', #695, #129, #273, .T. ) ;
#207 = DIRECTION ( 'NONE',  ( -0.000000000000000000, -0.000000000000000000, -1.000000000000000000 ) ) ;
#208 = ORIENTED_EDGE ( 'NONE', *, *, #224, .T. ) ;
#209 = CIRCLE ( 'NONE', #817, 2.100000000000004530 ) ;
#210 = ORIENTED_EDGE ( 'NONE', *, *, #235, .F. ) ;
#211 = CARTESIAN_POINT ( 'NONE',  ( -98.37499999999998579, 71.24999999999997158, 4.000000000000000000 ) ) ;
#212 = EDGE_CURVE ( 'NONE', #945, #688, #1009, .T. ) ;
#213 = CARTESIAN_POINT ( 'NONE',  ( -70.35999381819985388, 19.65999381827022319, -3.469446951953614189E-15 ) ) ;
#214 = CYLINDRICAL_SURFACE ( 'NONE', #799, 2.100000000000004530 ) ;
#215 = DIRECTION ( 'NONE',  ( -1.000000000000000000, 0.000000000000000000, 0.000000000000000000 ) ) ;
#216 = VERTEX_POINT ( 'NONE', #30 ) ;
#217 = DIRECTION ( 'NONE',  ( 1.000000000000000000, 0.000000000000000000, 0.000000000000000000 ) ) ;
#218 =( LENGTH_UNIT ( ) NAMED_UNIT ( * ) SI_UNIT ( .MILLI., .METRE. ) );
#219 = FACE_OUTER_BOUND ( 'NONE', #326, .T. ) ;
#220 = CARTESIAN_POINT ( 'NONE',  ( 33.95999381819977003, 74.65999381826993897, -3.469446951953614189E-15 ) ) ;
#221 = CARTESIAN_POINT ( 'NONE',  ( 146.3599938181999107, -79.35999381826999866, 4.000000000000000000 ) ) ;
#222 = EDGE_LOOP ( 'NONE', ( #550, #791 ) ) ;
#223 = CYLINDRICAL_SURFACE ( 'NONE', #17, 2.100000000000004530 ) ;
#224 = EDGE_CURVE ( 'NONE', #834, #621, #359, .T. ) ;
#225 = DIRECTION ( 'NONE',  ( -0.000000000000000000, -0.000000000000000000, -1.000000000000000000 ) ) ;
#226 = ORIENTED_EDGE ( 'NONE', *, *, #464, .T. ) ;
#227 = VECTOR ( 'NONE', #270, 1000.000000000000000 ) ;
#228 = DIRECTION ( 'NONE',  ( 1.000000000000000000, 0.000000000000000000, 0.000000000000000000 ) ) ;
#229 = AXIS2_PLACEMENT_3D ( 'NONE', #501, #161, #328 ) ;
#230 = ORIENTED_EDGE ( 'NONE', *, *, #331, .F. ) ;
#231 = DIRECTION ( 'NONE',  ( -0.000000000000000000, -0.000000000000000000, 1.000000000000000000 ) ) ;
#232 = DIRECTION ( 'NONE',  ( 1.000000000000000000, 0.000000000000000000, 0.000000000000000000 ) ) ;
#233 = CIRCLE ( 'NONE', #363, 2.100000000000004530 ) ;
#234 = AXIS2_PLACEMENT_3D ( 'NONE', #487, #472, #559 ) ;
#235 = EDGE_CURVE ( 'NONE', #460, #159, #815, .T. ) ;
#236 = LINE ( 'NONE', #74, #733 ) ;
#237 = ORIENTED_EDGE ( 'NONE', *, *, #980, .F. ) ;
#238 = DIRECTION ( 'NONE',  ( 0.000000000000000000, 0.000000000000000000, 1.000000000000000000 ) ) ;
#239 = CARTESIAN_POINT ( 'NONE',  ( 98.37500000000001421, 71.25000000000000000, 0.000000000000000000 ) ) ;
#240 = ORIENTED_EDGE ( 'NONE', *, *, #206, .F. ) ;
#241 = CARTESIAN_POINT ( 'NONE',  ( 146.3599938181999107, -79.35999381826978549, 4.000000000000000000 ) ) ;
#242 = CARTESIAN_POINT ( 'NONE',  ( -116.3599938181999960, 79.35999381826999866, 0.000000000000000000 ) ) ;
#243 = CARTESIAN_POINT ( 'NONE',  ( -116.3599938181997970, 109.3599938182699987, 4.000000000000000000 ) ) ;
#244 = CYLINDRICAL_SURFACE ( 'NONE', #347, 2.100000000000004530 ) ;
#245 = ORIENTED_EDGE ( 'NONE', *, *, #410, .T. ) ;
#246 = DIRECTION ( 'NONE',  ( -0.000000000000000000, 0.000000000000000000, 1.000000000000000000 ) ) ;
#247 = DIRECTION ( 'NONE',  ( -0.000000000000000000, -0.000000000000000000, -1.000000000000000000 ) ) ;
#248 = CARTESIAN_POINT ( 'NONE',  ( -70.35999381819985388, 19.65999381827022319, 4.000000000000000000 ) ) ;
#249 = ORIENTED_EDGE ( 'NONE', *, *, #932, .T. ) ;
#250 = FACE_BOUND ( 'NONE', #1000, .T. ) ;
#251 = DIRECTION ( 'NONE',  ( -0.000000000000000000, -0.000000000000000000, 1.000000000000000000 ) ) ;
#252 = AXIS2_PLACEMENT_3D ( 'NONE', #242, #79, #333 ) ;
#253 = AXIS2_PLACEMENT_3D ( 'NONE', #117, #693, #600 ) ;
#254 = EDGE_CURVE ( 'NONE', #101, #834, #360, .T. ) ;
#255 = CIRCLE ( 'NONE', #386, 8.999999999999994671 ) ;
#256 = ORIENTED_EDGE ( 'NONE', *, *, #904, .T. ) ;
#257 = LINE ( 'NONE', #742, #1056 ) ;
#258 = ORIENTED_EDGE ( 'NONE', *, *, #1032, .F. ) ;
#259 = DIRECTION ( 'NONE',  ( -0.000000000000000000, -0.000000000000000000, -1.000000000000000000 ) ) ;
#260 = ORIENTED_EDGE ( 'NONE', *, *, #12, .F. ) ;
#261 = DIRECTION ( 'NONE',  ( -0.000000000000000000, -0.000000000000000000, -1.000000000000000000 ) ) ;
#262 = VECTOR ( 'NONE', #529, 1000.000000000000000 ) ;
#263 = AXIS2_PLACEMENT_3D ( 'NONE', #213, #51, #721 ) ;
#264 = CIRCLE ( 'NONE', #80, 30.00000000000000000 ) ;
#265 = AXIS2_PLACEMENT_3D ( 'NONE', #420, #750, #341 ) ;
#266 = ADVANCED_FACE ( 'NONE', ( #22 ), #521, .F. ) ;
#267 = ORIENTED_EDGE ( 'NONE', *, *, #990, .F. ) ;
#268 = DIRECTION ( 'NONE',  ( -1.000000000000000000, 0.000000000000000000, 0.000000000000000000 ) ) ;
#269 = MANIFOLD_SOLID_BREP ( 'Cut-Extrude1', #1036 ) ;
#270 = DIRECTION ( 'NONE',  ( -1.000000000000000000, -0.000000000000000000, -0.000000000000000000 ) ) ;
#271 = VERTEX_POINT ( 'NONE', #896 ) ;
#272 = CARTESIAN_POINT ( 'NONE',  ( 96.27500000000001990, -71.25000000000002842, 4.000000000000000000 ) ) ;
#273 = LINE ( 'NONE', #931, #909 ) ;
#274 = ADVANCED_FACE ( 'NONE', ( #58 ), #809, .F. ) ;
#275 = ORIENTED_EDGE ( 'NONE', *, *, #1023, .F. ) ;
#276 = EDGE_CURVE ( 'NONE', #159, #918, #731, .T. ) ;
#277 = CARTESIAN_POINT ( 'NONE',  ( -72.45999381819980556, 74.65999381827015213, 0.000000000000000000 ) ) ;
#278 = ORIENTED_EDGE ( 'NONE', *, *, #647, .F. ) ;
#279 = DIRECTION ( 'NONE',  ( 0.000000000000000000, 0.000000000000000000, 1.000000000000000000 ) ) ;
#280 = PRESENTATION_LAYER_ASSIGNMENT (  '', '', ( #433 ) ) ;
#281 = CIRCLE ( 'NONE', #889, 8.999999999999994671 ) ;
#282 = VECTOR ( 'NONE', #1062, 1000.000000000000000 ) ;
#283 = ORIENTED_EDGE ( 'NONE', *, *, #572, .T. ) ;
#284 = DIRECTION ( 'NONE',  ( 1.000000000000000000, 0.000000000000000000, 0.000000000000000000 ) ) ;
#285 = EDGE_LOOP ( 'NONE', ( #686, #954 ) ) ;
#286 = ORIENTED_EDGE ( 'NONE', *, *, #759, .F. ) ;
#287 = CARTESIAN_POINT ( 'NONE',  ( 98.37500000000001421, 71.25000000000000000, 4.000000000000000000 ) ) ;
#288 = EDGE_CURVE ( 'NONE', #958, #724, #591, .T. ) ;
#289 = ORIENTED_EDGE ( 'NONE', *, *, #841, .T. ) ;
#290 = ADVANCED_BREP_SHAPE_REPRESENTATION ( 'Apache Mounting Plate', ( #269, #37 ), #869 ) ;
#291 = ORIENTED_EDGE ( 'NONE', *, *, #206, .T. ) ;
#292 = ADVANCED_FACE ( 'NONE', ( #295 ), #66, .F. ) ;
#293 = SHAPE_DEFINITION_REPRESENTATION ( #116, #290 ) ;
#294 = ORIENTED_EDGE ( 'NONE', *, *, #254, .F. ) ;
#295 = FACE_OUTER_BOUND ( 'NONE', #698, .T. ) ;
#296 = CIRCLE ( 'NONE', #55, 30.00000000000000000 ) ;
#297 = DIRECTION ( 'NONE',  ( -0.000000000000000000, -0.000000000000000000, -1.000000000000000000 ) ) ;
#298 = ORIENTED_EDGE ( 'NONE', *, *, #822, .T. ) ;
#299 = ORIENTED_EDGE ( 'NONE', *, *, #908, .T. ) ;
#300 = DIRECTION ( 'NONE',  ( -1.000000000000000000, 0.000000000000000000, 0.000000000000000000 ) ) ;
#301 = DIRECTION ( 'NONE',  ( -0.000000000000000000, -0.000000000000000000, 1.000000000000000000 ) ) ;
#302 = CARTESIAN_POINT ( 'NONE',  ( -101.3599938182000102, -34.35999381826999866, 4.000000000000000000 ) ) ;
#303 = DIRECTION ( 'NONE',  ( 1.000000000000000000, 0.000000000000000000, 0.000000000000000000 ) ) ;
#304 = CYLINDRICAL_SURFACE ( 'NONE', #39, 2.100000000000004530 ) ;
#305 = ORIENTED_EDGE ( 'NONE', *, *, #566, .F. ) ;
#306 = DIRECTION ( 'NONE',  ( -1.000000000000000000, 0.000000000000000000, 0.000000000000000000 ) ) ;
#307 = DIRECTION ( 'NONE',  ( -1.000000000000000000, 0.000000000000000000, 0.000000000000000000 ) ) ;
#308 = EDGE_CURVE ( 'NONE', #7, #933, #997, .T. ) ;
#309 = DIRECTION ( 'NONE',  ( -0.000000000000000000, -0.000000000000000000, 1.000000000000000000 ) ) ;
#310 = LINE ( 'NONE', #243, #368 ) ;
#311 = CARTESIAN_POINT ( 'NONE',  ( 33.95999381819977003, 74.65999381826993897, -3.469446951953614189E-15 ) ) ;
#312 = ORIENTED_EDGE ( 'NONE', *, *, #430, .F. ) ;
#313 = LINE ( 'NONE', #241, #282 ) ;
#314 = CARTESIAN_POINT ( 'NONE',  ( 29.75999381819975653, 19.65999381827000292, -3.469446951953614189E-15 ) ) ;
#315 = PLANE ( 'NONE',  #508 ) ;
#316 = ORIENTED_EDGE ( 'NONE', *, *, #673, .F. ) ;
#317 = COLOUR_RGB ( '',0.7921568627450980005, 0.8196078431372548767, 0.9333333333333333481 ) ;
#318 = VECTOR ( 'NONE', #408, 1000.000000000000000 ) ;
#319 = VERTEX_POINT ( 'NONE', #314 ) ;
#320 = CARTESIAN_POINT ( 'NONE',  ( 100.4750000000000227, -71.25000000000002842, 0.000000000000000000 ) ) ;
#321 = DIRECTION ( 'NONE',  ( 0.000000000000000000, 0.000000000000000000, 1.000000000000000000 ) ) ;
#322 = AXIS2_PLACEMENT_3D ( 'NONE', #490, #154, #306 ) ;
#323 = CYLINDRICAL_SURFACE ( 'NONE', #998, 30.00000000000000000 ) ;
#324 = CARTESIAN_POINT ( 'NONE',  ( -92.35999381820001020, -34.35999381826999866, 4.000000000000000000 ) ) ;
#325 = FACE_OUTER_BOUND ( 'NONE', #1031, .T. ) ;
#326 = EDGE_LOOP ( 'NONE', ( #370, #305, #171, #256 ) ) ;
#327 = FACE_BOUND ( 'NONE', #110, .T. ) ;
#328 = DIRECTION ( 'NONE',  ( 1.000000000000000000, 0.000000000000000000, 0.000000000000000000 ) ) ;
#329 = CYLINDRICAL_SURFACE ( 'NONE', #16, 8.999999999999994671 ) ;
#330 = ORIENTED_EDGE ( 'NONE', *, *, #609, .T. ) ;
#331 = EDGE_CURVE ( 'NONE', #807, #812, #392, .T. ) ;
#332 = CARTESIAN_POINT ( 'NONE',  ( -96.27499999999999147, -71.25000000000002842, 4.000000000000000000 ) ) ;
#333 = DIRECTION ( 'NONE',  ( -1.000000000000000000, 0.000000000000000000, 0.000000000000000000 ) ) ;
#334 = EDGE_LOOP ( 'NONE', ( #208, #885, #785, #606 ) ) ;
#335 = DIRECTION ( 'NONE',  ( 0.000000000000000000, 0.000000000000000000, 1.000000000000000000 ) ) ;
#336 = LINE ( 'NONE', #902, #318 ) ;
#337 = VECTOR ( 'NONE', #297, 1000.000000000000000 ) ;
#338 = CIRCLE ( 'NONE', #495, 2.100000000000004530 ) ;
#339 = EDGE_CURVE ( 'NONE', #83, #571, #296, .T. ) ;
#340 = EDGE_LOOP ( 'NONE', ( #1003, #330, #531, #1 ) ) ;
#341 = DIRECTION ( 'NONE',  ( -1.000000000000000000, 0.000000000000000000, 0.000000000000000000 ) ) ;
#342 = ADVANCED_FACE ( 'NONE', ( #726 ), #1048, .T. ) ;
#343 = ORIENTED_EDGE ( 'NONE', *, *, #1032, .T. ) ;
#344 = LINE ( 'NONE', #677, #6 ) ;
#345 = ORIENTED_EDGE ( 'NONE', *, *, #276, .F. ) ;
#346 = CARTESIAN_POINT ( 'NONE',  ( -70.35999381819979703, 74.65999381827015213, 0.000000000000000000 ) ) ;
#347 = AXIS2_PLACEMENT_3D ( 'NONE', #142, #1044, #657 ) ;
#348 = AXIS2_PLACEMENT_3D ( 'NONE', #739, #1063, #579 ) ;
#349 = VECTOR ( 'NONE', #193, 1000.000000000000000 ) ;
#350 = ORIENTED_EDGE ( 'NONE', *, *, #823, .F. ) ;
#351 = FACE_OUTER_BOUND ( 'NONE', #56, .T. ) ;
#352 = CARTESIAN_POINT ( 'NONE',  ( -116.3599938181997970, -109.3599938182699987, 4.000000000000000000 ) ) ;
#353 = ORIENTED_EDGE ( 'NONE', *, *, #752, .T. ) ;
#354 = DIRECTION ( 'NONE',  ( 1.000000000000000000, 0.000000000000000000, 0.000000000000000000 ) ) ;
#355 = VERTEX_POINT ( 'NONE', #866 ) ;
#356 = ORIENTED_EDGE ( 'NONE', *, *, #1010, .F. ) ;
#357 = DIRECTION ( 'NONE',  ( 1.000000000000000000, 0.000000000000000000, 0.000000000000000000 ) ) ;
#358 = ORIENTED_EDGE ( 'NONE', *, *, #527, .T. ) ;
#359 = LINE ( 'NONE', #446, #227 ) ;
#360 = CIRCLE ( 'NONE', #4, 30.00000000000000000 ) ;
#361 = CIRCLE ( 'NONE', #348, 2.100000000000004530 ) ;
#362 = EDGE_CURVE ( 'NONE', #688, #918, #436, .T. ) ;
#363 = AXIS2_PLACEMENT_3D ( 'NONE', #551, #961, #975 ) ;
#364 = VERTEX_POINT ( 'NONE', #946 ) ;
#365 = DIRECTION ( 'NONE',  ( 0.000000000000000000, 0.000000000000000000, 1.000000000000000000 ) ) ;
#366 = ADVANCED_FACE ( 'NONE', ( #875 ), #552, .F. ) ;
#367 = ORIENTED_EDGE ( 'NONE', *, *, #917, .F. ) ;
#368 = VECTOR ( 'NONE', #426, 1000.000000000000000 ) ;
#369 = EDGE_CURVE ( 'NONE', #128, #181, #33, .T. ) ;
#370 = ORIENTED_EDGE ( 'NONE', *, *, #422, .T. ) ;
#371 = DIRECTION ( 'NONE',  ( 0.000000000000000000, 0.000000000000000000, 1.000000000000000000 ) ) ;
#372 = ORIENTED_EDGE ( 'NONE', *, *, #454, .F. ) ;
#373 = CARTESIAN_POINT ( 'NONE',  ( -70.35999381819979703, 74.65999381827015213, 0.000000000000000000 ) ) ;
#374 = LINE ( 'NONE', #401, #581 ) ;
#375 = EDGE_LOOP ( 'NONE', ( #97, #617, #960, #441 ) ) ;
#376 = DIRECTION ( 'NONE',  ( 0.000000000000000000, 0.000000000000000000, 1.000000000000000000 ) ) ;
#377 = VERTEX_POINT ( 'NONE', #89 ) ;
#378 = FACE_BOUND ( 'NONE', #285, .T. ) ;
#379 = FILL_AREA_STYLE_COLOUR ( '', #317 ) ;
#380 = CARTESIAN_POINT ( 'NONE',  ( 92.35999381819992493, -34.35999381826999866, 4.000000000000000000 ) ) ;
#381 = DIRECTION ( 'NONE',  ( 0.000000000000000000, -0.000000000000000000, -1.000000000000000000 ) ) ;
#382 = VECTOR ( 'NONE', #773, 1000.000000000000000 ) ;
#383 = ORIENTED_EDGE ( 'NONE', *, *, #546, .F. ) ;
#384 = FACE_BOUND ( 'NONE', #860, .T. ) ;
#385 = SURFACE_SIDE_STYLE ('',( #646 ) ) ;
#386 = AXIS2_PLACEMENT_3D ( 'NONE', #134, #883, #952 ) ;
#387 = CARTESIAN_POINT ( 'NONE',  ( -116.3599938181999960, -79.35999381826999866, 0.000000000000000000 ) ) ;
#388 = ORIENTED_EDGE ( 'NONE', *, *, #183, .F. ) ;
#389 = CARTESIAN_POINT ( 'NONE',  ( 116.3599938181999249, -79.35999381826999866, 4.000000000000000000 ) ) ;
#390 = ORIENTED_EDGE ( 'NONE', *, *, #867, .F. ) ;
#391 = LINE ( 'NONE', #725, #625 ) ;
#392 = LINE ( 'NONE', #139, #920 ) ;
#393 = DIRECTION ( 'NONE',  ( -0.000000000000000000, 0.000000000000000000, 1.000000000000000000 ) ) ;
#394 = EDGE_LOOP ( 'NONE', ( #165, #735, #577, #443 ) ) ;
#395 = DIRECTION ( 'NONE',  ( -0.000000000000000000, -0.000000000000000000, -1.000000000000000000 ) ) ;
#396 =( NAMED_UNIT ( * ) PLANE_ANGLE_UNIT ( ) SI_UNIT ( $, .RADIAN. ) );
#397 = ORIENTED_EDGE ( 'NONE', *, *, #679, .F. ) ;
#398 = FACE_OUTER_BOUND ( 'NONE', #828, .T. ) ;
#399 = DIRECTION ( 'NONE',  ( -1.000000000000000000, 0.000000000000000000, 0.000000000000000000 ) ) ;
#400 = EDGE_CURVE ( 'NONE', #983, #993, #522, .T. ) ;
#401 = CARTESIAN_POINT ( 'NONE',  ( -146.3599938181999960, -79.35999381826978549, 4.000000000000000000 ) ) ;
#402 = EDGE_LOOP ( 'NONE', ( #741, #671, #760, #466 ) ) ;
#403 = CARTESIAN_POINT ( 'NONE',  ( -96.27499999999999147, 71.24999999999997158, 4.000000000000000000 ) ) ;
#404 = CARTESIAN_POINT ( 'NONE',  ( 0.000000000000000000, 0.000000000000000000, 0.000000000000000000 ) ) ;
#405 = AXIS2_PLACEMENT_3D ( 'NONE', #1066, #913, #14 ) ;
#406 = ORIENTED_EDGE ( 'NONE', *, *, #1023, .T. ) ;
#407 = DIRECTION ( 'NONE',  ( 1.000000000000000000, 0.000000000000000000, 0.000000000000000000 ) ) ;
#408 = DIRECTION ( 'NONE',  ( -0.000000000000000000, -0.000000000000000000, -1.000000000000000000 ) ) ;
#409 = AXIS2_PLACEMENT_3D ( 'NONE', #444, #611, #284 ) ;
#410 = EDGE_CURVE ( 'NONE', #377, #703, #934, .T. ) ;
#411 = ORIENTED_EDGE ( 'NONE', *, *, #1037, .T. ) ;
#412 = FACE_OUTER_BOUND ( 'NONE', #480, .T. ) ;
#413 = CARTESIAN_POINT ( 'NONE',  ( -70.35999381819979703, 74.65999381827015213, 0.000000000000000000 ) ) ;
#414 = ORIENTED_EDGE ( 'NONE', *, *, #362, .F. ) ;
#415 = DIRECTION ( 'NONE',  ( 1.000000000000000000, 0.000000000000000000, 0.000000000000000000 ) ) ;
#416 = CARTESIAN_POINT ( 'NONE',  ( -96.27499999999999147, 71.24999999999997158, 0.000000000000000000 ) ) ;
#417 = EDGE_CURVE ( 'NONE', #216, #778, #743, .T. ) ;
#418 = ORIENTED_EDGE ( 'NONE', *, *, #572, .F. ) ;
#419 = CIRCLE ( 'NONE', #205, 8.999999999999994671 ) ;
#420 = CARTESIAN_POINT ( 'NONE',  ( -98.37499999999998579, -71.25000000000002842, 4.000000000000000000 ) ) ;
#421 = CIRCLE ( 'NONE', #168, 2.100000000000004530 ) ;
#422 = EDGE_CURVE ( 'NONE', #621, #695, #832, .T. ) ;
#423 = CIRCLE ( 'NONE', #453, 2.100000000000004530 ) ;
#424 = VERTEX_POINT ( 'NONE', #85 ) ;
#425 = DIRECTION ( 'NONE',  ( -0.000000000000000000, 0.000000000000000000, -1.000000000000000000 ) ) ;
#426 = DIRECTION ( 'NONE',  ( -1.000000000000000000, -0.000000000000000000, -0.000000000000000000 ) ) ;
#427 = ORIENTED_EDGE ( 'NONE', *, *, #566, .T. ) ;
#428 = CYLINDRICAL_SURFACE ( 'NONE', #149, 2.100000000000004530 ) ;
#429 = CARTESIAN_POINT ( 'NONE',  ( 96.27500000000001990, -71.25000000000002842, 4.000000000000000000 ) ) ;
#430 = EDGE_CURVE ( 'NONE', #774, #703, #914, .T. ) ;
#431 = ORIENTED_EDGE ( 'NONE', *, *, #1005, .F. ) ;
#432 = LINE ( 'NONE', #201, #582 ) ;
#433 = STYLED_ITEM ( 'NONE', ( #720 ), #269 ) ;
#434 = DIRECTION ( 'NONE',  ( -1.000000000000000000, 0.000000000000000000, 0.000000000000000000 ) ) ;
#435 = EDGE_CURVE ( 'NONE', #856, #20, #1055, .T. ) ;
#436 = CIRCLE ( 'NONE', #761, 30.00000000000000000 ) ;
#437 = CIRCLE ( 'NONE', #736, 2.100000000000004530 ) ;
#438 = ADVANCED_FACE ( 'NONE', ( #814 ), #654, .F. ) ;
#439 = VERTEX_POINT ( 'NONE', #416 ) ;
#440 = CARTESIAN_POINT ( 'NONE',  ( -116.3599938181997970, -109.3599938182699987, 0.000000000000000000 ) ) ;
#441 = ORIENTED_EDGE ( 'NONE', *, *, #203, .F. ) ;
#442 = CARTESIAN_POINT ( 'NONE',  ( 116.3599938181999249, -79.35999381826999866, 4.000000000000000000 ) ) ;
#443 = ORIENTED_EDGE ( 'NONE', *, *, #190, .T. ) ;
#444 = CARTESIAN_POINT ( 'NONE',  ( -101.3599938182000102, -34.35999381826999866, 0.000000000000000000 ) ) ;
#445 = EDGE_LOOP ( 'NONE', ( #925, #635, #922, #283 ) ) ;
#446 = CARTESIAN_POINT ( 'NONE',  ( -116.3599938181997970, 109.3599938182699987, 0.000000000000000000 ) ) ;
#447 = EDGE_LOOP ( 'NONE', ( #468, #411, #525, #692 ) ) ;
#448 = DIRECTION ( 'NONE',  ( -0.000000000000000000, -0.000000000000000000, -1.000000000000000000 ) ) ;
#449 = EDGE_LOOP ( 'NONE', ( #291, #418, #260, #427 ) ) ;
#450 =( GEOMETRIC_REPRESENTATION_CONTEXT ( 3 ) GLOBAL_UNCERTAINTY_ASSIGNED_CONTEXT ( ( #678 ) ) GLOBAL_UNIT_ASSIGNED_CONTEXT ( ( #218, #803, #881 ) ) REPRESENTATION_CONTEXT ( 'NONE', 'WORKASPACE' ) );
#451 = AXIS2_PLACEMENT_3D ( 'NONE', #663, #321, #574 ) ;
#452 = AXIS2_PLACEMENT_3D ( 'NONE', #730, #1033, #813 ) ;
#453 = AXIS2_PLACEMENT_3D ( 'NONE', #1045, #872, #973 ) ;
#454 = EDGE_CURVE ( 'NONE', #364, #271, #847, .T. ) ;
#455 = EDGE_LOOP ( 'NONE', ( #1024, #711 ) ) ;
#456 = LINE ( 'NONE', #689, #349 ) ;
#457 = ORIENTED_EDGE ( 'NONE', *, *, #100, .T. ) ;
#458 = DIRECTION ( 'NONE',  ( -1.000000000000000000, 0.000000000000000000, 0.000000000000000000 ) ) ;
#459 = CARTESIAN_POINT ( 'NONE',  ( 116.3599938181997118, 109.3599938182699987, 4.000000000000000000 ) ) ;
#460 = VERTEX_POINT ( 'NONE', #3 ) ;
#461 = EDGE_LOOP ( 'NONE', ( #781, #979, #528, #744 ) ) ;
#462 = CARTESIAN_POINT ( 'NONE',  ( 116.3599938181997118, -109.3599938182699987, 0.000000000000000000 ) ) ;
#463 = DIRECTION ( 'NONE',  ( -0.000000000000000000, -0.000000000000000000, 1.000000000000000000 ) ) ;
#464 = EDGE_CURVE ( 'NONE', #199, #945, #336, .T. ) ;
#465 = CARTESIAN_POINT ( 'NONE',  ( -146.3599938181999960, 79.35999381826978549, 4.000000000000000000 ) ) ;
#466 = ORIENTED_EDGE ( 'NONE', *, *, #183, .T. ) ;
#467 = LINE ( 'NONE', #311, #669 ) ;
#468 = ORIENTED_EDGE ( 'NONE', *, *, #783, .F. ) ;
#469 = DIRECTION ( 'NONE',  ( -1.000000000000000000, 0.000000000000000000, 0.000000000000000000 ) ) ;
#470 = AXIS2_PLACEMENT_3D ( 'NONE', #627, #393, #951 ) ;
#471 = DIRECTION ( 'NONE',  ( 1.000000000000000000, 0.000000000000000000, 0.000000000000000000 ) ) ;
#472 = DIRECTION ( 'NONE',  ( 0.000000000000000000, 1.000000000000000000, 0.000000000000000000 ) ) ;
#473 = AXIS2_PLACEMENT_3D ( 'NONE', #587, #335, #175 ) ;
#474 = CARTESIAN_POINT ( 'NONE',  ( 98.37500000000001421, -71.25000000000002842, 4.000000000000000000 ) ) ;
#475 = CARTESIAN_POINT ( 'NONE',  ( -116.3599938181997970, -109.3599938182699987, 4.000000000000000000 ) ) ;
#476 = ORIENTED_EDGE ( 'NONE', *, *, #288, .T. ) ;
#477 = CARTESIAN_POINT ( 'NONE',  ( 146.3599938181999107, -79.35999381826978549, 0.000000000000000000 ) ) ;
#478 = DIRECTION ( 'NONE',  ( 0.000000000000000000, 0.000000000000000000, 1.000000000000000000 ) ) ;
#479 = LINE ( 'NONE', #465, #775 ) ;
#480 = EDGE_LOOP ( 'NONE', ( #299, #489, #989, #353, #929, #457, #1006, #630 ) ) ;
#481 = DIRECTION ( 'NONE',  ( 0.000000000000000000, 0.000000000000000000, 1.000000000000000000 ) ) ;
#482 = EDGE_LOOP ( 'NONE', ( #846, #397 ) ) ;
#483 = CARTESIAN_POINT ( 'NONE',  ( 101.3599938181999249, -34.35999381826999866, 4.000000000000000000 ) ) ;
#484 = DIRECTION ( 'NONE',  ( -0.000000000000000000, -0.000000000000000000, -1.000000000000000000 ) ) ;
#485 = EDGE_CURVE ( 'NONE', #933, #7, #361, .T. ) ;
#486 = CARTESIAN_POINT ( 'NONE',  ( -146.3599938181999960, -79.35999381826978549, 4.000000000000000000 ) ) ;
#487 = CARTESIAN_POINT ( 'NONE',  ( -116.3599938181997970, -109.3599938182699987, 4.000000000000000000 ) ) ;
#488 = EDGE_CURVE ( 'NONE', #184, #271, #167, .T. ) ;
#489 = ORIENTED_EDGE ( 'NONE', *, *, #1050, .T. ) ;
#490 = CARTESIAN_POINT ( 'NONE',  ( -98.37499999999998579, -71.25000000000002842, 4.000000000000000000 ) ) ;
#491 = CARTESIAN_POINT ( 'NONE',  ( -101.3599938182000102, -34.35999381826999866, 4.000000000000000000 ) ) ;
#492 = EDGE_CURVE ( 'NONE', #724, #1020, #821, .T. ) ;
#493 = VERTEX_POINT ( 'NONE', #547 ) ;
#494 = AXIS2_PLACEMENT_3D ( 'NONE', #738, #901, #300 ) ;
#495 = AXIS2_PLACEMENT_3D ( 'NONE', #239, #629, #965 ) ;
#496 = ORIENTED_EDGE ( 'NONE', *, *, #276, .T. ) ;
#497 = CYLINDRICAL_SURFACE ( 'NONE', #265, 2.100000000000004530 ) ;
#498 = DIRECTION ( 'NONE',  ( -0.000000000000000000, -0.000000000000000000, -1.000000000000000000 ) ) ;
#499 = VERTEX_POINT ( 'NONE', #127 ) ;
#500 = FACE_OUTER_BOUND ( 'NONE', #824, .T. ) ;
#501 = CARTESIAN_POINT ( 'NONE',  ( -101.3599938182000102, -34.35999381826999866, 4.000000000000000000 ) ) ;
#502 = EDGE_CURVE ( 'NONE', #1061, #834, #156, .T. ) ;
#503 = ORIENTED_EDGE ( 'NONE', *, *, #713, .T. ) ;
#504 = FACE_BOUND ( 'NONE', #612, .T. ) ;
#505 = VERTEX_POINT ( 'NONE', #970 ) ;
#506 = AXIS2_PLACEMENT_3D ( 'NONE', #248, #481, #69 ) ;
#507 = FACE_BOUND ( 'NONE', #862, .T. ) ;
#508 = AXIS2_PLACEMENT_3D ( 'NONE', #486, #471, #707 ) ;
#509 = AXIS2_PLACEMENT_3D ( 'NONE', #589, #425, #745 ) ;
#510 = VECTOR ( 'NONE', #395, 1000.000000000000000 ) ;
#511 = EDGE_LOOP ( 'NONE', ( #583, #32 ) ) ;
#512 = FACE_OUTER_BOUND ( 'NONE', #45, .T. ) ;
#513 = EDGE_CURVE ( 'NONE', #439, #1020, #122, .T. ) ;
#514 = UNCERTAINTY_MEASURE_WITH_UNIT (LENGTH_MEASURE( 1.000000000000000082E-05 ), #158, 'distance_accuracy_value', 'NONE');
#515 = ORIENTED_EDGE ( 'NONE', *, *, #622, .F. ) ;
#516 = PRODUCT_RELATED_PRODUCT_CATEGORY ( 'part', '', ( #827 ) ) ;
#517 = DIRECTION ( 'NONE',  ( -1.000000000000000000, 0.000000000000000000, 0.000000000000000000 ) ) ;
#518 = ADVANCED_FACE ( 'NONE', ( #734 ), #315, .F. ) ;
#519 = ORIENTED_EDGE ( 'NONE', *, *, #190, .F. ) ;
#520 = CARTESIAN_POINT ( 'NONE',  ( 101.3599938181999249, -34.35999381826999866, 0.000000000000000000 ) ) ;
#521 = CYLINDRICAL_SURFACE ( 'NONE', #948, 2.100000000000004530 ) ;
#522 = CIRCLE ( 'NONE', #93, 2.100000000000004530 ) ;
#523 = AXIS2_PLACEMENT_3D ( 'NONE', #21, #448, #517 ) ;
#524 = CIRCLE ( 'NONE', #696, 2.100000000000004530 ) ;
#525 = ORIENTED_EDGE ( 'NONE', *, *, #823, .T. ) ;
#526 = CARTESIAN_POINT ( 'NONE',  ( 146.3599938181999107, 79.35999381826978549, 4.000000000000000000 ) ) ;
#527 = EDGE_CURVE ( 'NONE', #355, #610, #281, .T. ) ;
#528 = ORIENTED_EDGE ( 'NONE', *, *, #369, .F. ) ;
#529 = DIRECTION ( 'NONE',  ( -0.000000000000000000, -0.000000000000000000, -1.000000000000000000 ) ) ;
#530 = EDGE_CURVE ( 'NONE', #856, #128, #133, .T. ) ;
#531 = ORIENTED_EDGE ( 'NONE', *, *, #836, .T. ) ;
#532 = EDGE_CURVE ( 'NONE', #29, #812, #421, .T. ) ;
#533 = CYLINDRICAL_SURFACE ( 'NONE', #523, 2.100000000000004530 ) ;
#534 = ORIENTED_EDGE ( 'NONE', *, *, #417, .T. ) ;
#535 = ORIENTED_EDGE ( 'NONE', *, *, #622, .T. ) ;
#536 = DIRECTION ( 'NONE',  ( 1.000000000000000000, 0.000000000000000000, 0.000000000000000000 ) ) ;
#537 = ORIENTED_EDGE ( 'NONE', *, *, #1010, .T. ) ;
#538 = CARTESIAN_POINT ( 'NONE',  ( 101.3599938181999249, -34.35999381826999866, 4.000000000000000000 ) ) ;
#539 = AXIS2_PLACEMENT_3D ( 'NONE', #155, #301, #73 ) ;
#540 = AXIS2_PLACEMENT_3D ( 'NONE', #43, #782, #668 ) ;
#541 = CIRCLE ( 'NONE', #191, 2.100000000000004530 ) ;
#542 = CARTESIAN_POINT ( 'NONE',  ( -116.3599938181997970, 109.3599938182699987, 0.000000000000000000 ) ) ;
#543 = ORIENTED_EDGE ( 'NONE', *, *, #796, .T. ) ;
#544 = ORIENTED_EDGE ( 'NONE', *, *, #917, .T. ) ;
#545 = CARTESIAN_POINT ( 'NONE',  ( 31.85999381819976861, 74.65999381826993897, -3.469446951953614189E-15 ) ) ;
#546 = EDGE_CURVE ( 'NONE', #20, #181, #236, .T. ) ;
#547 = CARTESIAN_POINT ( 'NONE',  ( 100.4750000000000227, 71.25000000000000000, 4.000000000000000000 ) ) ;
#548 = CARTESIAN_POINT ( 'NONE',  ( -116.3599938181997970, 109.3599938182699987, 4.000000000000000000 ) ) ;
#549 = PRODUCT_CONTEXT ( 'NONE', #706, 'mechanical' ) ;
#550 = ORIENTED_EDGE ( 'NONE', *, *, #308, .T. ) ;
#551 = CARTESIAN_POINT ( 'NONE',  ( 31.85999381819976151, 19.65999381827000292, -3.469446951953614189E-15 ) ) ;
#552 = CYLINDRICAL_SURFACE ( 'NONE', #910, 8.999999999999994671 ) ;
#553 = CARTESIAN_POINT ( 'NONE',  ( -116.3599938181999960, 79.35999381826999866, 4.000000000000000000 ) ) ;
#554 = FACE_OUTER_BOUND ( 'NONE', #701, .T. ) ;
#555 = CARTESIAN_POINT ( 'NONE',  ( -92.35999381820001020, -34.35999381826999866, 0.000000000000000000 ) ) ;
#556 = ORIENTED_EDGE ( 'NONE', *, *, #362, .T. ) ;
#557 = DIRECTION ( 'NONE',  ( 0.000000000000000000, 0.000000000000000000, 1.000000000000000000 ) ) ;
#558 = CARTESIAN_POINT ( 'NONE',  ( -100.4749999999999943, 71.24999999999997158, 4.000000000000000000 ) ) ;
#559 = DIRECTION ( 'NONE',  ( 0.000000000000000000, -0.000000000000000000, 1.000000000000000000 ) ) ;
#560 = CIRCLE ( 'NONE', #473, 2.100000000000004530 ) ;
#561 = CARTESIAN_POINT ( 'NONE',  ( -101.3599938182000102, -34.35999381826999866, 4.000000000000000000 ) ) ;
#562 = DIRECTION ( 'NONE',  ( -0.000000000000000000, -0.000000000000000000, -1.000000000000000000 ) ) ;
#563 = ORIENTED_EDGE ( 'NONE', *, *, #111, .F. ) ;
#564 = FACE_BOUND ( 'NONE', #850, .T. ) ;
#565 = CIRCLE ( 'NONE', #8, 2.100000000000004530 ) ;
#566 = EDGE_CURVE ( 'NONE', #571, #695, #479, .T. ) ;
#567 = DIRECTION ( 'NONE',  ( 0.000000000000000000, 0.000000000000000000, 1.000000000000000000 ) ) ;
#568 = CARTESIAN_POINT ( 'NONE',  ( 31.85999381819976861, 74.65999381826993897, -3.469446951953614189E-15 ) ) ;
#569 = CARTESIAN_POINT ( 'NONE',  ( -68.25999381819978851, 74.65999381827015213, 4.000000000000003553 ) ) ;
#570 = DIRECTION ( 'NONE',  ( 1.000000000000000000, 0.000000000000000000, 0.000000000000000000 ) ) ;
#571 = VERTEX_POINT ( 'NONE', #648 ) ;
#572 = EDGE_CURVE ( 'NONE', #915, #129, #374, .T. ) ;
#573 = DIRECTION ( 'NONE',  ( 1.000000000000000000, 0.000000000000000000, 0.000000000000000000 ) ) ;
#574 = DIRECTION ( 'NONE',  ( 1.000000000000000000, 0.000000000000000000, 0.000000000000000000 ) ) ;
#575 = DIRECTION ( 'NONE',  ( 0.000000000000000000, 0.000000000000000000, 1.000000000000000000 ) ) ;
#576 = DIRECTION ( 'NONE',  ( 0.000000000000000000, 0.000000000000000000, 1.000000000000000000 ) ) ;
#577 = ORIENTED_EDGE ( 'NONE', *, *, #1049, .T. ) ;
#578 = DIRECTION ( 'NONE',  ( 0.000000000000000000, 0.000000000000000000, 1.000000000000000000 ) ) ;
#579 = DIRECTION ( 'NONE',  ( 1.000000000000000000, 0.000000000000000000, 0.000000000000000000 ) ) ;
#580 = DIRECTION ( 'NONE',  ( 1.000000000000000000, 0.000000000000000000, 0.000000000000000000 ) ) ;
#581 = VECTOR ( 'NONE', #1028, 1000.000000000000000 ) ;
#582 = VECTOR ( 'NONE', #123, 1000.000000000000000 ) ;
#583 = ORIENTED_EDGE ( 'NONE', *, *, #801, .T. ) ;
#584 = CARTESIAN_POINT ( 'NONE',  ( -98.37499999999998579, -71.25000000000002842, 0.000000000000000000 ) ) ;
#585 = DIRECTION ( 'NONE',  ( -0.000000000000000000, 0.000000000000000000, 1.000000000000000000 ) ) ;
#586 = ORIENTED_EDGE ( 'NONE', *, *, #224, .F. ) ;
#587 = CARTESIAN_POINT ( 'NONE',  ( -70.35999381819985388, 19.65999381827022319, -3.469446951953614189E-15 ) ) ;
#588 = ORIENTED_EDGE ( 'NONE', *, *, #532, .T. ) ;
#589 = CARTESIAN_POINT ( 'NONE',  ( -116.3599938181999960, -79.35999381826999866, 0.000000000000000000 ) ) ;
#590 = ORIENTED_EDGE ( 'NONE', *, *, #633, .F. ) ;
#591 = CIRCLE ( 'NONE', #119, 2.100000000000004530 ) ;
#592 = FACE_BOUND ( 'NONE', #91, .T. ) ;
#593 = VECTOR ( 'NONE', #247, 1000.000000000000000 ) ;
#594 = AXIS2_PLACEMENT_3D ( 'NONE', #584, #578, #415 ) ;
#595 = EDGE_CURVE ( 'NONE', #129, #945, #264, .T. ) ;
#596 = ORIENTED_EDGE ( 'NONE', *, *, #532, .F. ) ;
#597 = PLANE ( 'NONE',  #795 ) ;
#598 = EDGE_CURVE ( 'NONE', #137, #949, #682, .T. ) ;
#599 = ORIENTED_EDGE ( 'NONE', *, *, #502, .F. ) ;
#600 = DIRECTION ( 'NONE',  ( -1.000000000000000000, 0.000000000000000000, 0.000000000000000000 ) ) ;
#601 = CYLINDRICAL_SURFACE ( 'NONE', #680, 2.100000000000004530 ) ;
#602 = ADVANCED_FACE ( 'NONE', ( #789 ), #727, .F. ) ;
#603 = ORIENTED_EDGE ( 'NONE', *, *, #705, .T. ) ;
#604 = DIRECTION ( 'NONE',  ( -0.000000000000000000, 0.000000000000000000, 1.000000000000000000 ) ) ;
#605 = PRODUCT_DEFINITION ( 'UNKNOWN', '', #1017, #876 ) ;
#606 = ORIENTED_EDGE ( 'NONE', *, *, #502, .T. ) ;
#607 = AXIS2_PLACEMENT_3D ( 'NONE', #1054, #719, #469 ) ;
#608 = AXIS2_PLACEMENT_3D ( 'NONE', #930, #926, #536 ) ;
#609 = EDGE_CURVE ( 'NONE', #319, #787, #67, .T. ) ;
#610 = VERTEX_POINT ( 'NONE', #380 ) ;
#611 = DIRECTION ( 'NONE',  ( 0.000000000000000000, 0.000000000000000000, 1.000000000000000000 ) ) ;
#612 = EDGE_LOOP ( 'NONE', ( #316, #25 ) ) ;
#613 = DIRECTION ( 'NONE',  ( 1.000000000000000000, 0.000000000000000000, 0.000000000000000000 ) ) ;
#614 = EDGE_LOOP ( 'NONE', ( #383, #40, #718, #367 ) ) ;
#615 = ADVANCED_FACE ( 'NONE', ( #1051 ), #1038, .F. ) ;
#616 = DIRECTION ( 'NONE',  ( 0.000000000000000000, 0.000000000000000000, 1.000000000000000000 ) ) ;
#617 = ORIENTED_EDGE ( 'NONE', *, *, #430, .T. ) ;
#618 = DIRECTION ( 'NONE',  ( 1.000000000000000000, 0.000000000000000000, 0.000000000000000000 ) ) ;
#619 = ORIENTED_EDGE ( 'NONE', *, *, #674, .T. ) ;
#620 = ADVANCED_FACE ( 'NONE', ( #219 ), #323, .T. ) ;
#621 = VERTEX_POINT ( 'NONE', #542 ) ;
#622 = EDGE_CURVE ( 'NONE', #493, #364, #140, .T. ) ;
#623 = DIRECTION ( 'NONE',  ( 1.000000000000000000, 0.000000000000000000, 0.000000000000000000 ) ) ;
#624 = VECTOR ( 'NONE', #498, 1000.000000000000000 ) ;
#625 = VECTOR ( 'NONE', #231, 1000.000000000000000 ) ;
#626 = ADVANCED_FACE ( 'NONE', ( #955 ), #223, .F. ) ;
#627 = CARTESIAN_POINT ( 'NONE',  ( -70.35999381819979703, 74.65999381827015213, 4.000000000000003553 ) ) ;
#628 = DIRECTION ( 'NONE',  ( 0.000000000000000000, -1.000000000000000000, 0.000000000000000000 ) ) ;
#629 = DIRECTION ( 'NONE',  ( 0.000000000000000000, 0.000000000000000000, 1.000000000000000000 ) ) ;
#630 = ORIENTED_EDGE ( 'NONE', *, *, #12, .T. ) ;
#631 = FACE_OUTER_BOUND ( 'NONE', #375, .T. ) ;
#632 = DIRECTION ( 'NONE',  ( 1.000000000000000000, 0.000000000000000000, 0.000000000000000000 ) ) ;
#633 = EDGE_CURVE ( 'NONE', #966, #1061, #665, .T. ) ;
#634 = DIRECTION ( 'NONE',  ( -0.000000000000000000, -0.000000000000000000, -1.000000000000000000 ) ) ;
#635 = ORIENTED_EDGE ( 'NONE', *, *, #464, .F. ) ;
#636 = DIRECTION ( 'NONE',  ( 1.000000000000000000, 0.000000000000000000, 0.000000000000000000 ) ) ;
#637 = APPLICATION_PROTOCOL_DEFINITION ( 'draft international standard', 'automotive_design', 1998, #706 ) ;
#638 = ORIENTED_EDGE ( 'NONE', *, *, #992, .T. ) ;
#639 = CYLINDRICAL_SURFACE ( 'NONE', #322, 2.100000000000004530 ) ;
#640 = ADVANCED_FACE ( 'NONE', ( #631 ), #138, .F. ) ;
#641 = CARTESIAN_POINT ( 'NONE',  ( 100.4750000000000227, 71.25000000000000000, 4.000000000000000000 ) ) ;
#642 = CYLINDRICAL_SURFACE ( 'NONE', #751, 2.100000000000004530 ) ;
#643 = DIRECTION ( 'NONE',  ( -0.000000000000000000, -0.000000000000000000, 1.000000000000000000 ) ) ;
#644 = EDGE_LOOP ( 'NONE', ( #388, #596 ) ) ;
#645 = CARTESIAN_POINT ( 'NONE',  ( -72.45999381819980556, 74.65999381827015213, 0.000000000000000000 ) ) ;
#646 = SURFACE_STYLE_FILL_AREA ( #968 ) ;
#647 = EDGE_CURVE ( 'NONE', #993, #949, #160, .T. ) ;
#648 = CARTESIAN_POINT ( 'NONE',  ( -146.3599938181999960, 79.35999381826978549, 4.000000000000000000 ) ) ;
#649 = CARTESIAN_POINT ( 'NONE',  ( 98.37500000000001421, -71.25000000000002842, 4.000000000000000000 ) ) ;
#650 = VECTOR ( 'NONE', #261, 1000.000000000000000 ) ;
#651 = LINE ( 'NONE', #403, #510 ) ;
#652 = ORIENTED_EDGE ( 'NONE', *, *, #836, .F. ) ;
#653 = DIRECTION ( 'NONE',  ( 0.000000000000000000, 1.000000000000000000, 0.000000000000000000 ) ) ;
#654 = CYLINDRICAL_SURFACE ( 'NONE', #145, 8.999999999999994671 ) ;
#655 = DIRECTION ( 'NONE',  ( -1.000000000000000000, 0.000000000000000000, 0.000000000000000000 ) ) ;
#656 = DIRECTION ( 'NONE',  ( -0.000000000000000000, -0.000000000000000000, -1.000000000000000000 ) ) ;
#657 = DIRECTION ( 'NONE',  ( 1.000000000000000000, 0.000000000000000000, 0.000000000000000000 ) ) ;
#658 = ORIENTED_EDGE ( 'NONE', *, *, #488, .F. ) ;
#659 = DIRECTION ( 'NONE',  ( -0.000000000000000000, -0.000000000000000000, -1.000000000000000000 ) ) ;
#660 = CARTESIAN_POINT ( 'NONE',  ( 101.3599938181999249, -34.35999381826999866, 4.000000000000000000 ) ) ;
#661 = ORIENTED_EDGE ( 'NONE', *, *, #943, .F. ) ;
#662 = LINE ( 'NONE', #923, #180 ) ;
#663 = CARTESIAN_POINT ( 'NONE',  ( 98.37500000000001421, -71.25000000000002842, 0.000000000000000000 ) ) ;
#664 = ADVANCED_FACE ( 'NONE', ( #792 ), #639, .F. ) ;
#665 = CIRCLE ( 'NONE', #494, 30.00000000000000000 ) ;
#666 = VERTEX_POINT ( 'NONE', #72 ) ;
#667 = DIRECTION ( 'NONE',  ( -0.000000000000000000, -0.000000000000000000, 1.000000000000000000 ) ) ;
#668 = DIRECTION ( 'NONE',  ( 1.000000000000000000, 0.000000000000000000, 0.000000000000000000 ) ) ;
#669 = VECTOR ( 'NONE', #643, 1000.000000000000000 ) ;
#670 = EDGE_LOOP ( 'NONE', ( #118, #652 ) ) ;
#671 = ORIENTED_EDGE ( 'NONE', *, *, #796, .F. ) ;
#672 = FACE_BOUND ( 'NONE', #749, .T. ) ;
#673 = EDGE_CURVE ( 'NONE', #610, #355, #988, .T. ) ;
#674 = EDGE_CURVE ( 'NONE', #933, #499, #391, .T. ) ;
#675 = ADVANCED_FACE ( 'NONE', ( #398 ), #886, .T. ) ;
#676 = ORIENTED_EDGE ( 'NONE', *, *, #595, .F. ) ;
#677 = CARTESIAN_POINT ( 'NONE',  ( -72.45999381819986240, 19.65999381827022319, -3.469446951953614189E-15 ) ) ;
#678 = UNCERTAINTY_MEASURE_WITH_UNIT (LENGTH_MEASURE( 1.000000000000000082E-05 ), #218, 'distance_accuracy_value', 'NONE');
#679 = EDGE_CURVE ( 'NONE', #949, #137, #833, .T. ) ;
#680 = AXIS2_PLACEMENT_3D ( 'NONE', #852, #196, #613 ) ;
#681 = ORIENTED_EDGE ( 'NONE', *, *, #992, .F. ) ;
#682 = CIRCLE ( 'NONE', #470, 2.100000000000004530 ) ;
#683 = DIRECTION ( 'NONE',  ( -0.000000000000000000, -0.000000000000000000, 1.000000000000000000 ) ) ;
#684 = CIRCLE ( 'NONE', #253, 30.00000000000000000 ) ;
#685 = DIRECTION ( 'NONE',  ( 1.000000000000000000, 0.000000000000000000, 0.000000000000000000 ) ) ;
#686 = ORIENTED_EDGE ( 'NONE', *, *, #867, .T. ) ;
#687 = CARTESIAN_POINT ( 'NONE',  ( 29.75999381819976364, 74.65999381826993897, -3.469446951953614189E-15 ) ) ;
#688 = VERTEX_POINT ( 'NONE', #462 ) ;
#689 = CARTESIAN_POINT ( 'NONE',  ( -116.3599938181997970, 109.3599938182699987, 4.000000000000000000 ) ) ;
#690 = ORIENTED_EDGE ( 'NONE', *, *, #488, .T. ) ;
#691 = CARTESIAN_POINT ( 'NONE',  ( 31.85999381819976861, 74.65999381826993897, 4.000000000000000000 ) ) ;
#692 = ORIENTED_EDGE ( 'NONE', *, *, #927, .F. ) ;
#693 = DIRECTION ( 'NONE',  ( 0.000000000000000000, 0.000000000000000000, 1.000000000000000000 ) ) ;
#694 = CIRCLE ( 'NONE', #54, 2.100000000000004530 ) ;
#695 = VERTEX_POINT ( 'NONE', #147 ) ;
#696 = AXIS2_PLACEMENT_3D ( 'NONE', #893, #70, #570 ) ;
#697 = AXIS2_PLACEMENT_3D ( 'NONE', #892, #575, #977 ) ;
#698 = EDGE_LOOP ( 'NONE', ( #10, #298, #588, #230 ) ) ;
#699 = CARTESIAN_POINT ( 'NONE',  ( -110.3599938181999960, -34.35999381826999866, 4.000000000000000000 ) ) ;
#700 = EDGE_LOOP ( 'NONE', ( #108, #800 ) ) ;
#701 = EDGE_LOOP ( 'NONE', ( #1012, #194, #115, #226 ) ) ;
#702 = DIRECTION ( 'NONE',  ( 1.000000000000000000, 0.000000000000000000, 0.000000000000000000 ) ) ;
#703 = VERTEX_POINT ( 'NONE', #320 ) ;
#704 = CARTESIAN_POINT ( 'NONE',  ( 116.3599938181999249, -79.35999381826999866, 0.000000000000000000 ) ) ;
#705 = EDGE_CURVE ( 'NONE', #918, #101, #895, .T. ) ;
#706 = APPLICATION_CONTEXT ( 'automotive_design' ) ;
#707 = DIRECTION ( 'NONE',  ( 0.000000000000000000, 0.000000000000000000, -1.000000000000000000 ) ) ;
#708 = PLANE ( 'NONE',  #764 ) ;
#709 = EDGE_CURVE ( 'NONE', #778, #787, #18, .T. ) ;
#710 = DIRECTION ( 'NONE',  ( -1.000000000000000000, 0.000000000000000000, 0.000000000000000000 ) ) ;
#711 = ORIENTED_EDGE ( 'NONE', *, *, #136, .F. ) ;
#712 = DIRECTION ( 'NONE',  ( 0.000000000000000000, 0.000000000000000000, 1.000000000000000000 ) ) ;
#713 = EDGE_CURVE ( 'NONE', #319, #216, #233, .T. ) ;
#714 = VECTOR ( 'NONE', #1002, 1000.000000000000000 ) ;
#715 = AXIS2_PLACEMENT_3D ( 'NONE', #483, #712, #217 ) ;
#716 = CARTESIAN_POINT ( 'NONE',  ( 101.3599938181999249, -34.35999381826999866, 4.000000000000000000 ) ) ;
#717 = ORIENTED_EDGE ( 'NONE', *, *, #454, .T. ) ;
#718 = ORIENTED_EDGE ( 'NONE', *, *, #530, .T. ) ;
#719 = DIRECTION ( 'NONE',  ( -0.000000000000000000, -0.000000000000000000, -1.000000000000000000 ) ) ;
#720 = PRESENTATION_STYLE_ASSIGNMENT (( #962 ) ) ;
#721 = DIRECTION ( 'NONE',  ( 1.000000000000000000, 0.000000000000000000, 0.000000000000000000 ) ) ;
#722 = DIRECTION ( 'NONE',  ( -0.000000000000000000, -1.000000000000000000, -0.000000000000000000 ) ) ;
#723 = CARTESIAN_POINT ( 'NONE',  ( -100.4749999999999943, 71.24999999999997158, 0.000000000000000000 ) ) ;
#724 = VERTEX_POINT ( 'NONE', #1047 ) ;
#725 = CARTESIAN_POINT ( 'NONE',  ( 29.75999381819976364, 74.65999381826993897, -3.469446951953614189E-15 ) ) ;
#726 = FACE_OUTER_BOUND ( 'NONE', #445, .T. ) ;
#727 = CYLINDRICAL_SURFACE ( 'NONE', #263, 2.100000000000004530 ) ;
#728 = CARTESIAN_POINT ( 'NONE',  ( -146.3599938181999960, -79.35999381826978549, 4.000000000000000000 ) ) ;
#729 = ORIENTED_EDGE ( 'NONE', *, *, #705, .F. ) ;
#730 = CARTESIAN_POINT ( 'NONE',  ( 116.3599938181999249, 79.35999381826999866, 4.000000000000000000 ) ) ;
#731 = LINE ( 'NONE', #1034, #845 ) ;
#732 = AXIS2_PLACEMENT_3D ( 'NONE', #373, #463, #623 ) ;
#733 = VECTOR ( 'NONE', #207, 1000.000000000000000 ) ;
#734 = FACE_OUTER_BOUND ( 'NONE', #449, .T. ) ;
#735 = ORIENTED_EDGE ( 'NONE', *, *, #308, .F. ) ;
#736 = AXIS2_PLACEMENT_3D ( 'NONE', #1021, #859, #112 ) ;
#737 = ORIENTED_EDGE ( 'NONE', *, *, #400, .F. ) ;
#738 = CARTESIAN_POINT ( 'NONE',  ( 116.3599938181999249, 79.35999381826999866, 4.000000000000000000 ) ) ;
#739 = CARTESIAN_POINT ( 'NONE',  ( 31.85999381819976861, 74.65999381826993897, -3.469446951953614189E-15 ) ) ;
#740 = DIRECTION ( 'NONE',  ( -1.000000000000000000, 0.000000000000000000, 0.000000000000000000 ) ) ;
#741 = ORIENTED_EDGE ( 'NONE', *, *, #822, .F. ) ;
#742 = CARTESIAN_POINT ( 'NONE',  ( 146.3599938181999107, 79.35999381826978549, 4.000000000000000000 ) ) ;
#743 = LINE ( 'NONE', #1067, #747 ) ;
#744 = ORIENTED_EDGE ( 'NONE', *, *, #530, .F. ) ;
#745 = DIRECTION ( 'NONE',  ( -1.000000000000000000, 0.000000000000000000, 0.000000000000000000 ) ) ;
#746 = DIRECTION ( 'NONE',  ( 1.000000000000000000, 0.000000000000000000, 0.000000000000000000 ) ) ;
#747 = VECTOR ( 'NONE', #251, 1000.000000000000000 ) ;
#748 = CIRCLE ( 'NONE', #890, 2.100000000000004530 ) ;
#749 = EDGE_LOOP ( 'NONE', ( #267, #753 ) ) ;
#750 = DIRECTION ( 'NONE',  ( -0.000000000000000000, -0.000000000000000000, -1.000000000000000000 ) ) ;
#751 = AXIS2_PLACEMENT_3D ( 'NONE', #798, #656, #75 ) ;
#752 = EDGE_CURVE ( 'NONE', #159, #966, #313, .T. ) ;
#753 = ORIENTED_EDGE ( 'NONE', *, *, #1037, .F. ) ;
#754 = FACE_BOUND ( 'NONE', #644, .T. ) ;
#755 = CARTESIAN_POINT ( 'NONE',  ( 146.3599938181999107, 79.35999381826978549, 0.000000000000000000 ) ) ;
#756 = ADVANCED_FACE ( 'NONE', ( #65, #48, #327, #874, #384, #967, #564, #130, #378, #507, #994 ), #177, .T. ) ;
#757 = EDGE_LOOP ( 'NONE', ( #676, #240, #71, #586, #294, #729, #414, #819 ) ) ;
#758 = FACE_BOUND ( 'NONE', #455, .T. ) ;
#759 = EDGE_CURVE ( 'NONE', #499, #505, #35, .T. ) ;
#760 = ORIENTED_EDGE ( 'NONE', *, *, #331, .T. ) ;
#761 = AXIS2_PLACEMENT_3D ( 'NONE', #704, #204, #618 ) ;
#762 = DIRECTION ( 'NONE',  ( 1.000000000000000000, 0.000000000000000000, 0.000000000000000000 ) ) ;
#763 = VECTOR ( 'NONE', #996, 1000.000000000000000 ) ;
#764 = AXIS2_PLACEMENT_3D ( 'NONE', #1029, #628, #381 ) ;
#765 = ORIENTED_EDGE ( 'NONE', *, *, #203, .T. ) ;
#766 = CARTESIAN_POINT ( 'NONE',  ( -98.37499999999998579, -71.25000000000002842, 4.000000000000000000 ) ) ;
#767 = ORIENTED_EDGE ( 'NONE', *, *, #777, .F. ) ;
#768 = DIRECTION ( 'NONE',  ( 1.000000000000000000, 0.000000000000000000, 0.000000000000000000 ) ) ;
#769 = EDGE_LOOP ( 'NONE', ( #603, #842, #1065, #496 ) ) ;
#770 = FACE_OUTER_BOUND ( 'NONE', #790, .T. ) ;
#771 = ORIENTED_EDGE ( 'NONE', *, *, #990, .T. ) ;
#772 = EDGE_LOOP ( 'NONE', ( #188, #1053, #390, #237 ) ) ;
#773 = DIRECTION ( 'NONE',  ( -0.000000000000000000, -0.000000000000000000, -1.000000000000000000 ) ) ;
#774 = VERTEX_POINT ( 'NONE', #2 ) ;
#775 = VECTOR ( 'NONE', #44, 1000.000000000000000 ) ;
#776 = CIRCLE ( 'NONE', #594, 2.100000000000004530 ) ;
#777 = EDGE_CURVE ( 'NONE', #355, #666, #662, .T. ) ;
#778 = VERTEX_POINT ( 'NONE', #820 ) ;
#779 = CARTESIAN_POINT ( 'NONE',  ( 146.3599938181999107, -79.35999381826978549, 4.000000000000000000 ) ) ;
#780 = EDGE_CURVE ( 'NONE', #966, #101, #257, .T. ) ;
#781 = ORIENTED_EDGE ( 'NONE', *, *, #435, .T. ) ;
#782 = DIRECTION ( 'NONE',  ( 0.000000000000000000, 0.000000000000000000, 1.000000000000000000 ) ) ;
#783 = EDGE_CURVE ( 'NONE', #424, #905, #991, .T. ) ;
#784 = CARTESIAN_POINT ( 'NONE',  ( -70.35999381819985388, 19.65999381827022319, 4.000000000000000000 ) ) ;
#785 = ORIENTED_EDGE ( 'NONE', *, *, #100, .F. ) ;
#786 = FACE_OUTER_BOUND ( 'NONE', #938, .T. ) ;
#787 = VERTEX_POINT ( 'NONE', #88 ) ;
#788 = CARTESIAN_POINT ( 'NONE',  ( 31.85999381819976151, 19.65999381827000292, 4.000000000000000000 ) ) ;
#789 = FACE_OUTER_BOUND ( 'NONE', #402, .T. ) ;
#790 = EDGE_LOOP ( 'NONE', ( #942, #146, #258, #113 ) ) ;
#791 = ORIENTED_EDGE ( 'NONE', *, *, #485, .T. ) ;
#792 = FACE_OUTER_BOUND ( 'NONE', #447, .T. ) ;
#793 = CARTESIAN_POINT ( 'NONE',  ( -116.3599938181999960, 79.35999381826999866, 4.000000000000000000 ) ) ;
#794 = VECTOR ( 'NONE', #309, 1000.000000000000000 ) ;
#795 = AXIS2_PLACEMENT_3D ( 'NONE', #779, #710, #76 ) ;
#796 = EDGE_CURVE ( 'NONE', #807, #87, #560, .T. ) ;
#797 = DIRECTION ( 'NONE',  ( 0.000000000000000000, 0.000000000000000000, 1.000000000000000000 ) ) ;
#798 = CARTESIAN_POINT ( 'NONE',  ( 98.37500000000001421, 71.25000000000000000, 4.000000000000000000 ) ) ;
#799 = AXIS2_PLACEMENT_3D ( 'NONE', #568, #157, #1039 ) ;
#800 = ORIENTED_EDGE ( 'NONE', *, *, #841, .F. ) ;
#801 = EDGE_CURVE ( 'NONE', #152, #905, #776, .T. ) ;
#802 = CARTESIAN_POINT ( 'NONE',  ( 31.85999381819976151, 19.65999381827000292, -3.469446951953614189E-15 ) ) ;
#803 =( NAMED_UNIT ( * ) PLANE_ANGLE_UNIT ( ) SI_UNIT ( $, .RADIAN. ) );
#804 = DIRECTION ( 'NONE',  ( 1.000000000000000000, 0.000000000000000000, 0.000000000000000000 ) ) ;
#805 = FACE_OUTER_BOUND ( 'NONE', #334, .T. ) ;
#806 =( NAMED_UNIT ( * ) SI_UNIT ( $, .STERADIAN. ) SOLID_ANGLE_UNIT ( ) );
#807 = VERTEX_POINT ( 'NONE', #9 ) ;
#808 = DIRECTION ( 'NONE',  ( 1.000000000000000000, 0.000000000000000000, 0.000000000000000000 ) ) ;
#809 = CYLINDRICAL_SURFACE ( 'NONE', #732, 2.100000000000004530 ) ;
#810 = DIRECTION ( 'NONE',  ( 1.000000000000000000, 0.000000000000000000, 0.000000000000000000 ) ) ;
#811 = CARTESIAN_POINT ( 'NONE',  ( -72.45999381819986240, 19.65999381827022319, 4.000000000000000000 ) ) ;
#812 = VERTEX_POINT ( 'NONE', #984 ) ;
#813 = DIRECTION ( 'NONE',  ( -1.000000000000000000, 0.000000000000000000, 0.000000000000000000 ) ) ;
#814 = FACE_OUTER_BOUND ( 'NONE', #461, .T. ) ;
#815 = CIRCLE ( 'NONE', #831, 30.00000000000000000 ) ;
#816 = ADVANCED_FACE ( 'NONE', ( #754, #250, #906, #916, #412, #758, #504, #592, #835, #11, #672 ), #829, .F. ) ;
#817 = AXIS2_PLACEMENT_3D ( 'NONE', #863, #604, #935 ) ;
#818 = DIRECTION ( 'NONE',  ( 0.000000000000000000, 0.000000000000000000, 1.000000000000000000 ) ) ;
#819 = ORIENTED_EDGE ( 'NONE', *, *, #212, .F. ) ;
#820 = CARTESIAN_POINT ( 'NONE',  ( 33.95999381819976293, 19.65999381827000292, 4.000000000000000000 ) ) ;
#821 = LINE ( 'NONE', #558, #1030 ) ;
#822 = EDGE_CURVE ( 'NONE', #87, #29, #344, .T. ) ;
#823 = EDGE_CURVE ( 'NONE', #23, #152, #99, .T. ) ;
#824 = EDGE_LOOP ( 'NONE', ( #771, #47, #151, #350 ) ) ;
#825 = CARTESIAN_POINT ( 'NONE',  ( 31.85999381819976151, 19.65999381827000292, 4.000000000000000000 ) ) ;
#826 = DIRECTION ( 'NONE',  ( -1.000000000000000000, 0.000000000000000000, 0.000000000000000000 ) ) ;
#827 = PRODUCT ( 'Apache Mounting Plate', 'Apache Mounting Plate', '', ( #549 ) ) ;
#828 = EDGE_LOOP ( 'NONE', ( #106, #599, #590, #36 ) ) ;
#829 = PLANE ( 'NONE',  #405 ) ;
#830 = ADVANCED_FACE ( 'NONE', ( #512 ), #428, .F. ) ;
#831 = AXIS2_PLACEMENT_3D ( 'NONE', #442, #279, #768 ) ;
#832 = CIRCLE ( 'NONE', #252, 30.00000000000000000 ) ;
#833 = CIRCLE ( 'NONE', #1015, 2.100000000000004530 ) ;
#834 = VERTEX_POINT ( 'NONE', #166 ) ;
#835 = FACE_BOUND ( 'NONE', #95, .T. ) ;
#836 = EDGE_CURVE ( 'NONE', #787, #778, #124, .T. ) ;
#837 = VECTOR ( 'NONE', #1043, 1000.000000000000000 ) ;
#838 = ORIENTED_EDGE ( 'NONE', *, *, #513, .F. ) ;
#839 = ADVANCED_FACE ( 'NONE', ( #500 ), #497, .F. ) ;
#840 = DIRECTION ( 'NONE',  ( -0.000000000000000000, -0.000000000000000000, -1.000000000000000000 ) ) ;
#841 = EDGE_CURVE ( 'NONE', #774, #912, #437, .T. ) ;
#842 = ORIENTED_EDGE ( 'NONE', *, *, #780, .F. ) ;
#843 = DIRECTION ( 'NONE',  ( 0.000000000000000000, 0.000000000000000000, 1.000000000000000000 ) ) ;
#844 = LINE ( 'NONE', #429, #262 ) ;
#845 = VECTOR ( 'NONE', #49, 1000.000000000000000 ) ;
#846 = ORIENTED_EDGE ( 'NONE', *, *, #598, .F. ) ;
#847 = CIRCLE ( 'NONE', #969, 2.100000000000004530 ) ;
#848 = CARTESIAN_POINT ( 'NONE',  ( -96.27499999999999147, -71.25000000000002842, 0.000000000000000000 ) ) ;
#849 = CIRCLE ( 'NONE', #409, 8.999999999999994671 ) ;
#850 = EDGE_LOOP ( 'NONE', ( #197, #544 ) ) ;
#851 = VECTOR ( 'NONE', #228, 1000.000000000000000 ) ;
#852 = CARTESIAN_POINT ( 'NONE',  ( 31.85999381819976151, 19.65999381827000292, -3.469446951953614189E-15 ) ) ;
#853 = CIRCLE ( 'NONE', #1018, 2.100000000000004530 ) ;
#854 = EDGE_LOOP ( 'NONE', ( #431, #13, #121, #356 ) ) ;
#855 = FACE_OUTER_BOUND ( 'NONE', #769, .T. ) ;
#856 = VERTEX_POINT ( 'NONE', #699 ) ;
#857 = CARTESIAN_POINT ( 'NONE',  ( -116.3599938181997970, -109.3599938182699987, 0.000000000000000000 ) ) ;
#858 = EDGE_LOOP ( 'NONE', ( #767, #358, #77, #873 ) ) ;
#859 = DIRECTION ( 'NONE',  ( 0.000000000000000000, 0.000000000000000000, 1.000000000000000000 ) ) ;
#860 = EDGE_LOOP ( 'NONE', ( #245, #249 ) ) ;
#861 = DIRECTION ( 'NONE',  ( -0.000000000000000000, -1.000000000000000000, -0.000000000000000000 ) ) ;
#862 = EDGE_LOOP ( 'NONE', ( #406, #717 ) ) ;
#863 = CARTESIAN_POINT ( 'NONE',  ( -70.35999381819979703, 74.65999381827015213, 0.000000000000000000 ) ) ;
#864 = AXIS2_PLACEMENT_3D ( 'NONE', #302, #634, #897 ) ;
#865 = ORIENTED_EDGE ( 'NONE', *, *, #759, .T. ) ;
#866 = CARTESIAN_POINT ( 'NONE',  ( 110.3599938181999107, -34.35999381826999866, 4.000000000000000000 ) ) ;
#867 = EDGE_CURVE ( 'NONE', #1046, #666, #868, .T. ) ;
#868 = CIRCLE ( 'NONE', #999, 8.999999999999994671 ) ;
#869 =( GEOMETRIC_REPRESENTATION_CONTEXT ( 3 ) GLOBAL_UNCERTAINTY_ASSIGNED_CONTEXT ( ( #514 ) ) GLOBAL_UNIT_ASSIGNED_CONTEXT ( ( #158, #396, #806 ) ) REPRESENTATION_CONTEXT ( 'NONE', 'WORKASPACE' ) );
#870 = DIRECTION ( 'NONE',  ( -0.000000000000000000, -0.000000000000000000, -1.000000000000000000 ) ) ;
#871 = EDGE_LOOP ( 'NONE', ( #900, #661, #534, #176 ) ) ;
#872 = DIRECTION ( 'NONE',  ( 0.000000000000000000, 0.000000000000000000, 1.000000000000000000 ) ) ;
#873 = ORIENTED_EDGE ( 'NONE', *, *, #31, .F. ) ;
#874 = FACE_BOUND ( 'NONE', #947, .T. ) ;
#875 = FACE_OUTER_BOUND ( 'NONE', #858, .T. ) ;
#876 = PRODUCT_DEFINITION_CONTEXT ( 'detailed design', #162, 'design' ) ;
#877 = CARTESIAN_POINT ( 'NONE',  ( -98.37499999999998579, 71.24999999999997158, 0.000000000000000000 ) ) ;
#878 = CARTESIAN_POINT ( 'NONE',  ( -72.45999381819986240, 19.65999381827022319, -3.469446951953614189E-15 ) ) ;
#879 = EDGE_LOOP ( 'NONE', ( #343, #1026 ) ) ;
#880 = DIRECTION ( 'NONE',  ( -0.000000000000000000, -0.000000000000000000, 1.000000000000000000 ) ) ;
#881 =( NAMED_UNIT ( * ) SI_UNIT ( $, .STERADIAN. ) SOLID_ANGLE_UNIT ( ) );
#882 = DIRECTION ( 'NONE',  ( -0.000000000000000000, -0.000000000000000000, -1.000000000000000000 ) ) ;
#883 = DIRECTION ( 'NONE',  ( 0.000000000000000000, 0.000000000000000000, 1.000000000000000000 ) ) ;
#884 = DIRECTION ( 'NONE',  ( -1.000000000000000000, 0.000000000000000000, 0.000000000000000000 ) ) ;
#885 = ORIENTED_EDGE ( 'NONE', *, *, #904, .F. ) ;
#886 = CYLINDRICAL_SURFACE ( 'NONE', #452, 30.00000000000000000 ) ;
#887 = DIRECTION ( 'NONE',  ( 0.000000000000000000, 0.000000000000000000, 1.000000000000000000 ) ) ;
#888 = MECHANICAL_DESIGN_GEOMETRIC_PRESENTATION_REPRESENTATION (  '', ( #433 ), #450 ) ;
#889 = AXIS2_PLACEMENT_3D ( 'NONE', #716, #891, #957 ) ;
#890 = AXIS2_PLACEMENT_3D ( 'NONE', #1014, #939, #102 ) ;
#891 = DIRECTION ( 'NONE',  ( 0.000000000000000000, 0.000000000000000000, 1.000000000000000000 ) ) ;
#892 = CARTESIAN_POINT ( 'NONE',  ( -70.35999381819985388, 19.65999381827022319, -3.469446951953614189E-15 ) ) ;
#893 = CARTESIAN_POINT ( 'NONE',  ( -98.37499999999998579, -71.25000000000002842, 4.000000000000000000 ) ) ;
#894 = EDGE_LOOP ( 'NONE', ( #563, #476, #42, #838 ) ) ;
#895 = LINE ( 'NONE', #477, #94 ) ;
#896 = CARTESIAN_POINT ( 'NONE',  ( 96.27500000000001990, 71.25000000000000000, 0.000000000000000000 ) ) ;
#897 = DIRECTION ( 'NONE',  ( -1.000000000000000000, 0.000000000000000000, 0.000000000000000000 ) ) ;
#898 = FACE_OUTER_BOUND ( 'NONE', #202, .T. ) ;
#899 = CARTESIAN_POINT ( 'NONE',  ( 92.35999381819992493, -34.35999381826999866, 0.000000000000000000 ) ) ;
#900 = ORIENTED_EDGE ( 'NONE', *, *, #609, .F. ) ;
#901 = DIRECTION ( 'NONE',  ( 0.000000000000000000, 0.000000000000000000, 1.000000000000000000 ) ) ;
#902 = CARTESIAN_POINT ( 'NONE',  ( -116.3599938181997970, -109.3599938182699987, 4.000000000000000000 ) ) ;
#903 = ORIENTED_EDGE ( 'NONE', *, *, #90, .T. ) ;
#904 = EDGE_CURVE ( 'NONE', #83, #621, #456, .T. ) ;
#905 = VERTEX_POINT ( 'NONE', #848 ) ;
#906 = FACE_BOUND ( 'NONE', #670, .T. ) ;
#907 = CARTESIAN_POINT ( 'NONE',  ( 96.27500000000001990, 71.25000000000000000, 4.000000000000000000 ) ) ;
#908 = EDGE_CURVE ( 'NONE', #915, #199, #684, .T. ) ;
#909 = VECTOR ( 'NONE', #861, 1000.000000000000000 ) ;
#910 = AXIS2_PLACEMENT_3D ( 'NONE', #538, #126, #458 ) ;
#911 = AXIS2_PLACEMENT_3D ( 'NONE', #825, #172, #92 ) ;
#912 = VERTEX_POINT ( 'NONE', #272 ) ;
#913 = DIRECTION ( 'NONE',  ( -0.000000000000000000, 0.000000000000000000, -1.000000000000000000 ) ) ;
#914 = LINE ( 'NONE', #976, #593 ) ;
#915 = VERTEX_POINT ( 'NONE', #107 ) ;
#916 = FACE_BOUND ( 'NONE', #482, .T. ) ;
#917 = EDGE_CURVE ( 'NONE', #181, #128, #849, .T. ) ;
#918 = VERTEX_POINT ( 'NONE', #1007 ) ;
#919 = CARTESIAN_POINT ( 'NONE',  ( 31.85999381819976861, 74.65999381826993897, 4.000000000000000000 ) ) ;
#920 = VECTOR ( 'NONE', #148, 1000.000000000000000 ) ;
#921 = AXIS2_PLACEMENT_3D ( 'NONE', #788, #78, #407 ) ;
#922 = ORIENTED_EDGE ( 'NONE', *, *, #908, .F. ) ;
#923 = CARTESIAN_POINT ( 'NONE',  ( 110.3599938181999107, -34.35999381826999866, 4.000000000000000000 ) ) ;
#924 = ADVANCED_FACE ( 'NONE', ( #351 ), #533, .F. ) ;
#925 = ORIENTED_EDGE ( 'NONE', *, *, #595, .T. ) ;
#926 = DIRECTION ( 'NONE',  ( 0.000000000000000000, 0.000000000000000000, 1.000000000000000000 ) ) ;
#927 = EDGE_CURVE ( 'NONE', #905, #152, #748, .T. ) ;
#928 = FACE_OUTER_BOUND ( 'NONE', #871, .T. ) ;
#929 = ORIENTED_EDGE ( 'NONE', *, *, #633, .T. ) ;
#930 = CARTESIAN_POINT ( 'NONE',  ( 31.85999381819976151, 19.65999381827000292, -3.469446951953614189E-15 ) ) ;
#931 = CARTESIAN_POINT ( 'NONE',  ( -146.3599938181999960, -79.35999381826978549, 0.000000000000000000 ) ) ;
#932 = EDGE_CURVE ( 'NONE', #703, #377, #59, .T. ) ;
#933 = VERTEX_POINT ( 'NONE', #687 ) ;
#934 = CIRCLE ( 'NONE', #451, 2.100000000000004530 ) ;
#935 = DIRECTION ( 'NONE',  ( 1.000000000000000000, 0.000000000000000000, 0.000000000000000000 ) ) ;
#936 = CIRCLE ( 'NONE', #81, 2.100000000000004530 ) ;
#937 = ORIENTED_EDGE ( 'NONE', *, *, #19, .F. ) ;
#938 = EDGE_LOOP ( 'NONE', ( #556, #345, #210, #1016 ) ) ;
#939 = DIRECTION ( 'NONE',  ( 0.000000000000000000, 0.000000000000000000, 1.000000000000000000 ) ) ;
#940 = ADVANCED_FACE ( 'NONE', ( #770 ), #1004, .F. ) ;
#941 = EDGE_LOOP ( 'NONE', ( #543, #903 ) ) ;
#942 = ORIENTED_EDGE ( 'NONE', *, *, #19, .T. ) ;
#943 = EDGE_CURVE ( 'NONE', #216, #319, #1035, .T. ) ;
#944 = CARTESIAN_POINT ( 'NONE',  ( 92.35999381819992493, -34.35999381826999866, 4.000000000000000000 ) ) ;
#945 = VERTEX_POINT ( 'NONE', #440 ) ;
#946 = CARTESIAN_POINT ( 'NONE',  ( 100.4750000000000227, 71.25000000000000000, 0.000000000000000000 ) ) ;
#947 = EDGE_LOOP ( 'NONE', ( #192, #1022 ) ) ;
#948 = AXIS2_PLACEMENT_3D ( 'NONE', #26, #131, #307 ) ;
#949 = VERTEX_POINT ( 'NONE', #189 ) ;
#950 = AXIS2_PLACEMENT_3D ( 'NONE', #186, #843, #702 ) ;
#951 = DIRECTION ( 'NONE',  ( 1.000000000000000000, 0.000000000000000000, 0.000000000000000000 ) ) ;
#952 = DIRECTION ( 'NONE',  ( 1.000000000000000000, 0.000000000000000000, 0.000000000000000000 ) ) ;
#953 = CYLINDRICAL_SURFACE ( 'NONE', #82, 30.00000000000000000 ) ;
#954 = ORIENTED_EDGE ( 'NONE', *, *, #31, .T. ) ;
#955 = FACE_OUTER_BOUND ( 'NONE', #340, .T. ) ;
#956 = CARTESIAN_POINT ( 'NONE',  ( -116.3599938181999960, -79.35999381826999866, 4.000000000000000000 ) ) ;
#957 = DIRECTION ( 'NONE',  ( 1.000000000000000000, 0.000000000000000000, 0.000000000000000000 ) ) ;
#958 = VERTEX_POINT ( 'NONE', #28 ) ;
#959 = CARTESIAN_POINT ( 'NONE',  ( -110.3599938181999960, -34.35999381826999866, 0.000000000000000000 ) ) ;
#960 = ORIENTED_EDGE ( 'NONE', *, *, #410, .F. ) ;
#961 = DIRECTION ( 'NONE',  ( 0.000000000000000000, 0.000000000000000000, 1.000000000000000000 ) ) ;
#962 = SURFACE_STYLE_USAGE ( .BOTH. , #385 ) ;
#963 = DIRECTION ( 'NONE',  ( -0.000000000000000000, -0.000000000000000000, -1.000000000000000000 ) ) ;
#964 = FACE_OUTER_BOUND ( 'NONE', #200, .T. ) ;
#965 = DIRECTION ( 'NONE',  ( 1.000000000000000000, 0.000000000000000000, 0.000000000000000000 ) ) ;
#966 = VERTEX_POINT ( 'NONE', #526 ) ;
#967 = FACE_BOUND ( 'NONE', #879, .T. ) ;
#968 = FILL_AREA_STYLE ('',( #379 ) ) ;
#969 = AXIS2_PLACEMENT_3D ( 'NONE', #173, #981, #746 ) ;
#970 = CARTESIAN_POINT ( 'NONE',  ( 33.95999381819977003, 74.65999381826993897, 4.000000000000000000 ) ) ;
#971 = DIRECTION ( 'NONE',  ( 0.000000000000000000, 0.000000000000000000, 1.000000000000000000 ) ) ;
#972 = CARTESIAN_POINT ( 'NONE',  ( -146.3599938181999960, -79.35999381826978549, 0.000000000000000000 ) ) ;
#973 = DIRECTION ( 'NONE',  ( 1.000000000000000000, 0.000000000000000000, 0.000000000000000000 ) ) ;
#974 = ORIENTED_EDGE ( 'NONE', *, *, #288, .F. ) ;
#975 = DIRECTION ( 'NONE',  ( 1.000000000000000000, 0.000000000000000000, 0.000000000000000000 ) ) ;
#976 = CARTESIAN_POINT ( 'NONE',  ( 100.4750000000000227, -71.25000000000002842, 4.000000000000000000 ) ) ;
#977 = DIRECTION ( 'NONE',  ( 1.000000000000000000, 0.000000000000000000, 0.000000000000000000 ) ) ;
#978 = CARTESIAN_POINT ( 'NONE',  ( 98.37500000000001421, 71.25000000000000000, 4.000000000000000000 ) ) ;
#979 = ORIENTED_EDGE ( 'NONE', *, *, #546, .T. ) ;
#980 = EDGE_CURVE ( 'NONE', #610, #1046, #198, .T. ) ;
#981 = DIRECTION ( 'NONE',  ( 0.000000000000000000, 0.000000000000000000, 1.000000000000000000 ) ) ;
#982 = DIRECTION ( 'NONE',  ( -0.000000000000000000, -0.000000000000000000, -1.000000000000000000 ) ) ;
#983 = VERTEX_POINT ( 'NONE', #34 ) ;
#984 = CARTESIAN_POINT ( 'NONE',  ( -68.25999381819984535, 19.65999381827022319, 4.000000000000000000 ) ) ;
#985 = DIRECTION ( 'NONE',  ( 1.000000000000000000, 0.000000000000000000, 0.000000000000000000 ) ) ;
#986 = AXIS2_PLACEMENT_3D ( 'NONE', #545, #887, #632 ) ;
#987 = VECTOR ( 'NONE', #225, 1000.000000000000000 ) ;
#988 = CIRCLE ( 'NONE', #715, 8.999999999999994671 ) ;
#989 = ORIENTED_EDGE ( 'NONE', *, *, #235, .T. ) ;
#990 = EDGE_CURVE ( 'NONE', #23, #424, #541, .T. ) ;
#991 = LINE ( 'NONE', #332, #650 ) ;
#992 = EDGE_CURVE ( 'NONE', #184, #493, #936, .T. ) ;
#993 = VERTEX_POINT ( 'NONE', #277 ) ;
#994 = FACE_BOUND ( 'NONE', #511, .T. ) ;
#995 = ORIENTED_EDGE ( 'NONE', *, *, #598, .T. ) ;
#996 = DIRECTION ( 'NONE',  ( -0.000000000000000000, -0.000000000000000000, -1.000000000000000000 ) ) ;
#997 = CIRCLE ( 'NONE', #986, 2.100000000000004530 ) ;
#998 = AXIS2_PLACEMENT_3D ( 'NONE', #553, #882, #655 ) ;
#999 = AXIS2_PLACEMENT_3D ( 'NONE', #520, #371, #762 ) ;
#1000 = EDGE_LOOP ( 'NONE', ( #519, #286 ) ) ;
#1001 = DIRECTION ( 'NONE',  ( 1.000000000000000000, 0.000000000000000000, 0.000000000000000000 ) ) ;
#1002 = DIRECTION ( 'NONE',  ( 1.000000000000000000, 0.000000000000000000, 0.000000000000000000 ) ) ;
#1003 = ORIENTED_EDGE ( 'NONE', *, *, #713, .F. ) ;
#1004 = CYLINDRICAL_SURFACE ( 'NONE', #105, 2.100000000000004530 ) ;
#1005 = EDGE_CURVE ( 'NONE', #993, #983, #209, .T. ) ;
#1006 = ORIENTED_EDGE ( 'NONE', *, *, #339, .T. ) ;
#1007 = CARTESIAN_POINT ( 'NONE',  ( 146.3599938181999107, -79.35999381826999866, 0.000000000000000000 ) ) ;
#1008 = ORIENTED_EDGE ( 'NONE', *, *, #1049, .F. ) ;
#1009 = LINE ( 'NONE', #857, #714 ) ;
#1010 = EDGE_CURVE ( 'NONE', #983, #137, #432, .T. ) ;
#1011 = CIRCLE ( 'NONE', #120, 2.100000000000004530 ) ;
#1012 = ORIENTED_EDGE ( 'NONE', *, *, #212, .T. ) ;
#1013 = AXIS2_PLACEMENT_3D ( 'NONE', #877, #150, #804 ) ;
#1014 = CARTESIAN_POINT ( 'NONE',  ( -98.37499999999998579, -71.25000000000002842, 0.000000000000000000 ) ) ;
#1015 = AXIS2_PLACEMENT_3D ( 'NONE', #57, #246, #808 ) ;
#1016 = ORIENTED_EDGE ( 'NONE', *, *, #98, .T. ) ;
#1017 = PRODUCT_DEFINITION_FORMATION_WITH_SPECIFIED_SOURCE ( 'ANY', '', #827, .NOT_KNOWN. ) ;
#1018 = AXIS2_PLACEMENT_3D ( 'NONE', #68, #818, #163 ) ;
#1019 = ADVANCED_FACE ( 'NONE', ( #855 ), #597, .F. ) ;
#1020 = VERTEX_POINT ( 'NONE', #723 ) ;
#1021 = CARTESIAN_POINT ( 'NONE',  ( 98.37500000000001421, -71.25000000000002842, 4.000000000000000000 ) ) ;
#1022 = ORIENTED_EDGE ( 'NONE', *, *, #1005, .T. ) ;
#1023 = EDGE_CURVE ( 'NONE', #271, #364, #338, .T. ) ;
#1024 = ORIENTED_EDGE ( 'NONE', *, *, #435, .F. ) ;
#1025 = DIRECTION ( 'NONE',  ( 1.000000000000000000, 0.000000000000000000, 0.000000000000000000 ) ) ;
#1026 = ORIENTED_EDGE ( 'NONE', *, *, #513, .T. ) ;
#1027 = DIRECTION ( 'NONE',  ( -1.000000000000000000, 0.000000000000000000, 0.000000000000000000 ) ) ;
#1028 = DIRECTION ( 'NONE',  ( -0.000000000000000000, -0.000000000000000000, -1.000000000000000000 ) ) ;
#1029 = CARTESIAN_POINT ( 'NONE',  ( -116.3599938181997970, 109.3599938182699987, 4.000000000000000000 ) ) ;
#1030 = VECTOR ( 'NONE', #963, 1000.000000000000000 ) ;
#1031 = EDGE_LOOP ( 'NONE', ( #312, #289, #765, #125 ) ) ;
#1032 = EDGE_CURVE ( 'NONE', #1020, #439, #423, .T. ) ;
#1033 = DIRECTION ( 'NONE',  ( -0.000000000000000000, -0.000000000000000000, -1.000000000000000000 ) ) ;
#1034 = CARTESIAN_POINT ( 'NONE',  ( 146.3599938181999107, -79.35999381826999866, 4.000000000000000000 ) ) ;
#1035 = CIRCLE ( 'NONE', #608, 2.100000000000004530 ) ;
#1036 = CLOSED_SHELL ( 'NONE', ( #292, #50, #626, #274, #839, #640, #86, #940, #178, #438, #816, #756, #342, #53, #1057, #1019, #675, #15, #620, #518, #615, #366, #266, #924, #109, #664, #830, #185, #132, #602 ) ) ;
#1037 = EDGE_CURVE ( 'NONE', #424, #23, #524, .T. ) ;
#1038 = CYLINDRICAL_SURFACE ( 'NONE', #864, 8.999999999999994671 ) ;
#1039 = DIRECTION ( 'NONE',  ( 1.000000000000000000, 0.000000000000000000, 0.000000000000000000 ) ) ;
#1040 = ORIENTED_EDGE ( 'NONE', *, *, #485, .F. ) ;
#1041 = DIRECTION ( 'NONE',  ( -0.000000000000000000, -0.000000000000000000, 1.000000000000000000 ) ) ;
#1042 = DIRECTION ( 'NONE',  ( -1.000000000000000000, 0.000000000000000000, 0.000000000000000000 ) ) ;
#1043 = DIRECTION ( 'NONE',  ( -0.000000000000000000, -0.000000000000000000, -1.000000000000000000 ) ) ;
#1044 = DIRECTION ( 'NONE',  ( -0.000000000000000000, -0.000000000000000000, 1.000000000000000000 ) ) ;
#1045 = CARTESIAN_POINT ( 'NONE',  ( -98.37499999999998579, 71.24999999999997158, 0.000000000000000000 ) ) ;
#1046 = VERTEX_POINT ( 'NONE', #899 ) ;
#1047 = CARTESIAN_POINT ( 'NONE',  ( -100.4749999999999943, 71.24999999999997158, 4.000000000000000000 ) ) ;
#1048 = CYLINDRICAL_SURFACE ( 'NONE', #104, 30.00000000000000000 ) ;
#1049 = EDGE_CURVE ( 'NONE', #7, #505, #467, .T. ) ;
#1050 = EDGE_CURVE ( 'NONE', #199, #460, #63, .T. ) ;
#1051 = FACE_OUTER_BOUND ( 'NONE', #614, .T. ) ;
#1052 = CARTESIAN_POINT ( 'NONE',  ( -100.4749999999999943, -71.25000000000002842, 4.000000000000000000 ) ) ;
#1053 = ORIENTED_EDGE ( 'NONE', *, *, #777, .T. ) ;
#1054 = CARTESIAN_POINT ( 'NONE',  ( 98.37500000000001421, -71.25000000000002842, 4.000000000000000000 ) ) ;
#1055 = CIRCLE ( 'NONE', #229, 8.999999999999994671 ) ;
#1056 = VECTOR ( 'NONE', #259, 1000.000000000000000 ) ;
#1057 = ADVANCED_FACE ( 'NONE', ( #786 ), #953, .T. ) ;
#1058 = CARTESIAN_POINT ( 'NONE',  ( 29.75999381819975653, 19.65999381827000292, -3.469446951953614189E-15 ) ) ;
#1059 = LINE ( 'NONE', #728, #170 ) ;
#1060 = DIRECTION ( 'NONE',  ( -0.000000000000000000, -0.000000000000000000, -1.000000000000000000 ) ) ;
#1061 = VERTEX_POINT ( 'NONE', #46 ) ;
#1062 = DIRECTION ( 'NONE',  ( 0.000000000000000000, 1.000000000000000000, 0.000000000000000000 ) ) ;
#1063 = DIRECTION ( 'NONE',  ( 0.000000000000000000, 0.000000000000000000, 1.000000000000000000 ) ) ;
#1064 = FACE_OUTER_BOUND ( 'NONE', #394, .T. ) ;
#1065 = ORIENTED_EDGE ( 'NONE', *, *, #752, .F. ) ;
#1066 = CARTESIAN_POINT ( 'NONE',  ( -116.3599938181999960, -79.35999381826999866, 4.000000000000000000 ) ) ;
#1067 = CARTESIAN_POINT ( 'NONE',  ( 33.95999381819976293, 19.65999381827000292, -3.469446951953614189E-15 ) ) ;
ENDSEC;
END-ISO-10303-21;
