ISO-10303-21;
HEADER;
FILE_DESCRIPTION (( 'STEP AP214' ),
    '1' );
FILE_NAME ('Brick Clip 2 Offset.STEP',
    '2024-11-19T09:07:59',
    ( '' ),
    ( '' ),
    'SwSTEP 2.0',
    'SolidWorks 2024',
    '' );
FILE_SCHEMA (( 'AUTOMOTIVE_DESIGN' ));
ENDSEC;

DATA;
#1 = ORIENTED_EDGE ( 'NONE', *, *, #840, .F. ) ;
#2 = LINE ( 'NONE', #326, #757 ) ;
#3 = DIRECTION ( 'NONE',  ( -1.000000000000000000, 0.000000000000000000, 0.000000000000000000 ) ) ;
#4 = EDGE_CURVE ( 'NONE', #163, #986, #278, .T. ) ;
#5 = EDGE_LOOP ( 'NONE', ( #398, #523, #896, #165, #149 ) ) ;
#6 = ORIENTED_EDGE ( 'NONE', *, *, #947, .F. ) ;
#7 = CARTESIAN_POINT ( 'NONE',  ( 14.99422755002524532, 47.50000166605908447, 3.999995834757350988 ) ) ;
#8 = EDGE_CURVE ( 'NONE', #554, #575, #923, .T. ) ;
#9 = ORIENTED_EDGE ( 'NONE', *, *, #21, .F. ) ;
#10 = VECTOR ( 'NONE', #731, 1000.000000000000000 ) ;
#11 = ORIENTED_EDGE ( 'NONE', *, *, #197, .F. ) ;
#12 = LINE ( 'NONE', #282, #501 ) ;
#13 = VECTOR ( 'NONE', #547, 1000.000000000000000 ) ;
#14 = CARTESIAN_POINT ( 'NONE',  ( -13.00000000000000000, 62.50000000000000000, 0.000000000000000000 ) ) ;
#15 = FACE_OUTER_BOUND ( 'NONE', #728, .T. ) ;
#16 = ADVANCED_FACE ( 'NONE', ( #126 ), #995, .F. ) ;
#17 = VERTEX_POINT ( 'NONE', #508 ) ;
#18 = FACE_OUTER_BOUND ( 'NONE', #718, .T. ) ;
#19 = PRODUCT_DEFINITION_CONTEXT ( 'detailed design', #103, 'design' ) ;
#20 = VERTEX_POINT ( 'NONE', #843 ) ;
#21 = EDGE_CURVE ( 'NONE', #817, #491, #589, .T. ) ;
#22 = LINE ( 'NONE', #361, #521 ) ;
#23 = CARTESIAN_POINT ( 'NONE',  ( -2.000000000000014211, -2.449293598294724657E-16, 10.00000000000000000 ) ) ;
#24 = CARTESIAN_POINT ( 'NONE',  ( -11.00000000000000000, 61.25000000000000000, 0.000000000000000000 ) ) ;
#25 = DIRECTION ( 'NONE',  ( 1.000000000000000000, 1.224646799147353454E-16, -0.000000000000000000 ) ) ;
#26 = VECTOR ( 'NONE', #748, 1000.000000000000000 ) ;
#27 = LINE ( 'NONE', #922, #300 ) ;
#28 = AXIS2_PLACEMENT_3D ( 'NONE', #825, #340, #98 ) ;
#29 = VECTOR ( 'NONE', #1002, 1000.000000000000000 ) ;
#30 = FACE_OUTER_BOUND ( 'NONE', #5, .T. ) ;
#31 = DIRECTION ( 'NONE',  ( -0.000000000000000000, -0.000000000000000000, -1.000000000000000000 ) ) ;
#32 = VECTOR ( 'NONE', #851, 1000.000000000000000 ) ;
#33 = LINE ( 'NONE', #269, #816 ) ;
#34 = CIRCLE ( 'NONE', #623, 3.999999999999996447 ) ;
#35 = LINE ( 'NONE', #664, #1016 ) ;
#36 = EDGE_CURVE ( 'NONE', #414, #1039, #679, .T. ) ;
#37 = FACE_OUTER_BOUND ( 'NONE', #839, .T. ) ;
#38 = CARTESIAN_POINT ( 'NONE',  ( -11.00000000000000888, 64.50000000000000000, 10.00000000000000000 ) ) ;
#39 = ORIENTED_EDGE ( 'NONE', *, *, #873, .F. ) ;
#40 = DIRECTION ( 'NONE',  ( 1.000000000000000000, -2.602085213965210642E-15, 0.000000000000000000 ) ) ;
#41 = CARTESIAN_POINT ( 'NONE',  ( -11.00000000000000888, 66.50000000000000000, 10.00000000000000000 ) ) ;
#42 = LINE ( 'NONE', #526, #84 ) ;
#43 = EDGE_LOOP ( 'NONE', ( #532, #473, #1, #484 ) ) ;
#44 = CARTESIAN_POINT ( 'NONE',  ( -4.000000000000000000, 62.50000000000000000, 0.000000000000000000 ) ) ;
#45 = CARTESIAN_POINT ( 'NONE',  ( -9.000000000000000000, 61.25000000000000000, 10.00000000000000000 ) ) ;
#46 = VECTOR ( 'NONE', #751, 1000.000000000000114 ) ;
#47 = LINE ( 'NONE', #379, #1001 ) ;
#48 = EDGE_LOOP ( 'NONE', ( #137, #573, #990, #824, #11 ) ) ;
#49 = VECTOR ( 'NONE', #583, 1000.000000000000000 ) ;
#50 = DIRECTION ( 'NONE',  ( -1.000000000000000000, 0.000000000000000000, 0.000000000000000000 ) ) ;
#51 = EDGE_CURVE ( 'NONE', #766, #17, #1010, .T. ) ;
#52 = DIRECTION ( 'NONE',  ( -0.8479983040050877996, 0.5299989400031803743, 0.000000000000000000 ) ) ;
#53 = CARTESIAN_POINT ( 'NONE',  ( -4.000000000000000000, 3.999999999999999112, 10.00000000000000000 ) ) ;
#54 = VERTEX_POINT ( 'NONE', #14 ) ;
#55 = DIRECTION ( 'NONE',  ( -1.951563910473907981E-15, -1.000000000000000000, 1.084202172485504434E-15 ) ) ;
#56 = EDGE_CURVE ( 'NONE', #877, #992, #637, .T. ) ;
#57 = CARTESIAN_POINT ( 'NONE',  ( 4.633816407548270046E-32, 2.000000000000014211, 10.00000000000000000 ) ) ;
#58 = FACE_OUTER_BOUND ( 'NONE', #458, .T. ) ;
#59 = EDGE_LOOP ( 'NONE', ( #465, #803, #792, #787, #94 ) ) ;
#60 = DIRECTION ( 'NONE',  ( -1.000000000000000000, 1.871675329343399246E-15, 2.206446526461693411E-16 ) ) ;
#61 = VERTEX_POINT ( 'NONE', #918 ) ;
#62 = CARTESIAN_POINT ( 'NONE',  ( 10.99422755002526841, 16.99999833394091198, 3.999995834757379853 ) ) ;
#63 = CYLINDRICAL_SURFACE ( 'NONE', #951, 4.000000000000000000 ) ;
#64 = EDGE_CURVE ( 'NONE', #206, #949, #592, .T. ) ;
#65 = VECTOR ( 'NONE', #438, 1000.000000000000000 ) ;
#66 = ORIENTED_EDGE ( 'NONE', *, *, #365, .T. ) ;
#67 = SHAPE_DEFINITION_REPRESENTATION ( #629, #215 ) ;
#68 = AXIS2_PLACEMENT_3D ( 'NONE', #1041, #60, #55 ) ;
#69 = ORIENTED_EDGE ( 'NONE', *, *, #131, .F. ) ;
#70 = CARTESIAN_POINT ( 'NONE',  ( 5.994227550025245321, 7.999998333940936845, 3.999995834757358093 ) ) ;
#71 = DIRECTION ( 'NONE',  ( 1.000000000000000000, 2.449293598294706907E-16, -7.228014483236698528E-16 ) ) ;
#72 = PRODUCT_RELATED_PRODUCT_CATEGORY ( 'part', '', ( #76 ) ) ;
#73 = ORIENTED_EDGE ( 'NONE', *, *, #924, .F. ) ;
#74 = DIRECTION ( 'NONE',  ( -1.000000000000000000, 1.871675329343399246E-15, 2.206446526461693411E-16 ) ) ;
#75 = DIRECTION ( 'NONE',  ( -1.000000000000000000, 0.000000000000000000, 0.000000000000000000 ) ) ;
#76 = PRODUCT ( 'Brick Clip 2 Offset', 'Brick Clip 2 Offset', '', ( #687 ) ) ;
#77 = ORIENTED_EDGE ( 'NONE', *, *, #184, .T. ) ;
#78 = ORIENTED_EDGE ( 'NONE', *, *, #51, .F. ) ;
#79 = DIRECTION ( 'NONE',  ( -0.000000000000000000, -0.000000000000000000, -1.000000000000000000 ) ) ;
#80 =( NAMED_UNIT ( * ) SI_UNIT ( $, .STERADIAN. ) SOLID_ANGLE_UNIT ( ) );
#81 = ORIENTED_EDGE ( 'NONE', *, *, #628, .F. ) ;
#82 = TOROIDAL_SURFACE ( 'NONE', #286, 4.999999999999993783, 4.000000000000000000 ) ;
#83 = ADVANCED_FACE ( 'NONE', ( #30 ), #470, .T. ) ;
#84 = VECTOR ( 'NONE', #854, 1000.000000000000000 ) ;
#85 = ORIENTED_EDGE ( 'NONE', *, *, #539, .T. ) ;
#86 = LINE ( 'NONE', #391, #467 ) ;
#87 = AXIS2_PLACEMENT_3D ( 'NONE', #957, #449, #872 ) ;
#88 = CARTESIAN_POINT ( 'NONE',  ( 5.994227550025246209, 16.99999833394092974, 3.999995834757351876 ) ) ;
#89 = VERTEX_POINT ( 'NONE', #355 ) ;
#90 = ORIENTED_EDGE ( 'NONE', *, *, #8, .T. ) ;
#91 = EDGE_CURVE ( 'NONE', #471, #20, #752, .T. ) ;
#92 = FACE_OUTER_BOUND ( 'NONE', #330, .T. ) ;
#93 = ORIENTED_EDGE ( 'NONE', *, *, #138, .F. ) ;
#94 = ORIENTED_EDGE ( 'NONE', *, *, #675, .F. ) ;
#95 = DIRECTION ( 'NONE',  ( -1.000000000000000000, 0.000000000000000000, 0.000000000000000000 ) ) ;
#96 = ADVANCED_FACE ( 'NONE', ( #37 ), #849, .F. ) ;
#97 = VERTEX_POINT ( 'NONE', #339 ) ;
#98 = DIRECTION ( 'NONE',  ( 0.000000000000000000, 0.000000000000000000, 1.000000000000000000 ) ) ;
#99 = AXIS2_PLACEMENT_3D ( 'NONE', #768, #700, #204 ) ;
#100 = ORIENTED_EDGE ( 'NONE', *, *, #429, .T. ) ;
#101 = CARTESIAN_POINT ( 'NONE',  ( 14.99422755002524354, 49.50000166605907737, 3.999995834757349211 ) ) ;
#102 = AXIS2_PLACEMENT_3D ( 'NONE', #603, #611, #308 ) ;
#103 = APPLICATION_CONTEXT ( 'automotive_design' ) ;
#104 = AXIS2_PLACEMENT_3D ( 'NONE', #605, #459, #219 ) ;
#105 = DIRECTION ( 'NONE',  ( 0.000000000000000000, 0.000000000000000000, -1.000000000000000000 ) ) ;
#106 = ADVANCED_FACE ( 'NONE', ( #668 ), #829, .F. ) ;
#107 = CARTESIAN_POINT ( 'NONE',  ( -2.000000000000014655, -4.336808689942017736E-16, 0.000000000000000000 ) ) ;
#108 = DIRECTION ( 'NONE',  ( -0.000000000000000000, -0.000000000000000000, -1.000000000000000000 ) ) ;
#109 = ORIENTED_EDGE ( 'NONE', *, *, #599, .F. ) ;
#110 = DIRECTION ( 'NONE',  ( -7.414106252077233804E-34, 1.000000000000000000, 0.000000000000000000 ) ) ;
#111 = DIRECTION ( 'NONE',  ( -3.469446951953620598E-16, 6.938893903907237252E-16, -1.000000000000000000 ) ) ;
#112 = PLANE ( 'NONE',  #368 ) ;
#113 = CARTESIAN_POINT ( 'NONE',  ( -10.99999999999998579, -1.347111479062086827E-15, 10.00000000000000000 ) ) ;
#114 = DIRECTION ( 'NONE',  ( -2.983966427161273484E-15, 1.000000000000000000, -1.369518533665901396E-15 ) ) ;
#115 = CARTESIAN_POINT ( 'NONE',  ( -4.000000000000000000, 3.999999999999999112, 10.00000000000000000 ) ) ;
#116 = CARTESIAN_POINT ( 'NONE',  ( 10.99422755002526841, 16.99999833394091198, 3.999995834757379853 ) ) ;
#117 = EDGE_CURVE ( 'NONE', #17, #988, #156, .T. ) ;
#118 = AXIS2_PLACEMENT_3D ( 'NONE', #690, #541, #616 ) ;
#119 = DIRECTION ( 'NONE',  ( 1.000000000000000000, 0.000000000000000000, -7.228014483236698528E-16 ) ) ;
#120 = AXIS2_PLACEMENT_3D ( 'NONE', #427, #111, #522 ) ;
#121 = DIRECTION ( 'NONE',  ( 1.000000000000000000, 0.000000000000000000, 0.000000000000000000 ) ) ;
#122 = AXIS2_PLACEMENT_3D ( 'NONE', #1034, #779, #614 ) ;
#123 = CARTESIAN_POINT ( 'NONE',  ( 4.633816407548270046E-32, 2.000000000000014211, 10.00000000000000000 ) ) ;
#124 = CARTESIAN_POINT ( 'NONE',  ( -11.00000000000000000, 62.50000000000000000, 10.00000000000000000 ) ) ;
#125 = ADVANCED_FACE ( 'NONE', ( #148 ), #63, .T. ) ;
#126 = FACE_OUTER_BOUND ( 'NONE', #1033, .T. ) ;
#127 = VERTEX_POINT ( 'NONE', #212 ) ;
#128 = DIRECTION ( 'NONE',  ( -2.983966427161273484E-15, 1.000000000000000000, -1.369518533665901396E-15 ) ) ;
#129 = CARTESIAN_POINT ( 'NONE',  ( 10.99422755002524887, 18.99999833394093685, 3.999995834757350988 ) ) ;
#130 = DIRECTION ( 'NONE',  ( -7.227308622447317643E-16, 0.000000000000000000, -1.000000000000000000 ) ) ;
#131 = EDGE_CURVE ( 'NONE', #250, #157, #1052, .T. ) ;
#132 = EDGE_LOOP ( 'NONE', ( #795, #218, #69, #724 ) ) ;
#133 = DIRECTION ( 'NONE',  ( -1.000000000000000000, -7.414106252077234660E-34, 0.000000000000000000 ) ) ;
#134 = CIRCLE ( 'NONE', #268, 4.000000000000000000 ) ;
#135 = DIRECTION ( 'NONE',  ( 0.000000000000000000, 0.000000000000000000, 1.000000000000000000 ) ) ;
#136 = AXIS2_PLACEMENT_3D ( 'NONE', #692, #293, #130 ) ;
#137 = ORIENTED_EDGE ( 'NONE', *, *, #254, .F. ) ;
#138 = EDGE_CURVE ( 'NONE', #575, #817, #1015, .T. ) ;
#139 = CARTESIAN_POINT ( 'NONE',  ( 5.994227550025245321, 54.50000166605907026, 3.999995834757352764 ) ) ;
#140 = CIRCLE ( 'NONE', #691, 4.000000000000000000 ) ;
#141 = DIRECTION ( 'NONE',  ( 1.000000000000000000, -2.602085213965210642E-15, 0.000000000000000000 ) ) ;
#142 = LINE ( 'NONE', #786, #519 ) ;
#143 = EDGE_LOOP ( 'NONE', ( #305, #1006, #168, #513, #180, #78, #904, #380, #481, #613, #324, #413, #6, #261, #9, #39, #208, #739, #800 ) ) ;
#144 = DIRECTION ( 'NONE',  ( -1.000000000000000000, -2.116604689172870331E-15, 2.206446526461691439E-16 ) ) ;
#145 = ADVANCED_FACE ( 'NONE', ( #782 ), #1031, .T. ) ;
#146 = ORIENTED_EDGE ( 'NONE', *, *, #424, .T. ) ;
#147 = DIRECTION ( 'NONE',  ( -3.469446951953620598E-16, 6.938893903907237252E-16, -1.000000000000000000 ) ) ;
#148 = FACE_OUTER_BOUND ( 'NONE', #341, .T. ) ;
#149 = ORIENTED_EDGE ( 'NONE', *, *, #962, .T. ) ;
#150 = FACE_OUTER_BOUND ( 'NONE', #143, .T. ) ;
#151 = FACE_OUTER_BOUND ( 'NONE', #448, .T. ) ;
#152 = EDGE_CURVE ( 'NONE', #986, #89, #607, .T. ) ;
#153 = CYLINDRICAL_SURFACE ( 'NONE', #814, 4.000000000000000000 ) ;
#154 = VECTOR ( 'NONE', #546, 1000.000000000000000 ) ;
#155 = ORIENTED_EDGE ( 'NONE', *, *, #216, .F. ) ;
#156 = CIRCLE ( 'NONE', #255, 4.000000000000000000 ) ;
#157 = VERTEX_POINT ( 'NONE', #374 ) ;
#158 = CARTESIAN_POINT ( 'NONE',  ( -11.00000000000000000, 1.999999999999998224, 10.00000000000000000 ) ) ;
#159 = CARTESIAN_POINT ( 'NONE',  ( -2.000000000000014655, -4.336808689942017736E-16, 10.00000000000000000 ) ) ;
#160 = ORIENTED_EDGE ( 'NONE', *, *, #993, .F. ) ;
#161 = VERTEX_POINT ( 'NONE', #222 ) ;
#162 = DIRECTION ( 'NONE',  ( -0.000000000000000000, -0.000000000000000000, -1.000000000000000000 ) ) ;
#163 = VERTEX_POINT ( 'NONE', #457 ) ;
#164 = EDGE_CURVE ( 'NONE', #986, #730, #142, .T. ) ;
#165 = ORIENTED_EDGE ( 'NONE', *, *, #544, .T. ) ;
#166 = CARTESIAN_POINT ( 'NONE',  ( 4.633816407548270046E-32, 2.000000000000014211, 0.000000000000000000 ) ) ;
#167 = DIRECTION ( 'NONE',  ( -1.000000000000000000, -2.116604689172870331E-15, 2.206446526461691439E-16 ) ) ;
#168 = ORIENTED_EDGE ( 'NONE', *, *, #610, .F. ) ;
#169 = AXIS2_PLACEMENT_3D ( 'NONE', #595, #133, #856 ) ;
#170 = ADVANCED_FACE ( 'NONE', ( #58 ), #876, .T. ) ;
#171 = AXIS2_PLACEMENT_3D ( 'NONE', #490, #402, #397 ) ;
#172 = ORIENTED_EDGE ( 'NONE', *, *, #469, .F. ) ;
#173 = CIRCLE ( 'NONE', #1035, 4.000000000000000000 ) ;
#174 = CYLINDRICAL_SURFACE ( 'NONE', #288, 4.000000000000000000 ) ;
#175 = ORIENTED_EDGE ( 'NONE', *, *, #323, .F. ) ;
#176 = AXIS2_PLACEMENT_3D ( 'NONE', #345, #193, #773 ) ;
#177 = ORIENTED_EDGE ( 'NONE', *, *, #873, .T. ) ;
#178 = EDGE_CURVE ( 'NONE', #163, #406, #47, .T. ) ;
#179 = LINE ( 'NONE', #101, #26 ) ;
#180 = ORIENTED_EDGE ( 'NONE', *, *, #648, .F. ) ;
#181 = CARTESIAN_POINT ( 'NONE',  ( 5.994227550025260420, 15.99999833394093862, 3.999995834757350988 ) ) ;
#182 = VERTEX_POINT ( 'NONE', #1026 ) ;
#183 = DIRECTION ( 'NONE',  ( -1.224646799147353454E-16, 1.000000000000000000, 0.000000000000000000 ) ) ;
#184 = EDGE_CURVE ( 'NONE', #730, #161, #301, .T. ) ;
#185 = LINE ( 'NONE', #758, #335 ) ;
#186 = AXIS2_PLACEMENT_3D ( 'NONE', #421, #277, #262 ) ;
#187 = CARTESIAN_POINT ( 'NONE',  ( -4.000000000000000000, 62.50000000000000000, 10.00000000000000000 ) ) ;
#188 = VERTEX_POINT ( 'NONE', #530 ) ;
#189 = AXIS2_PLACEMENT_3D ( 'NONE', #720, #167, #802 ) ;
#190 = DIRECTION ( 'NONE',  ( 1.000000000000000000, 0.000000000000000000, 0.000000000000000000 ) ) ;
#191 = DIRECTION ( 'NONE',  ( -0.000000000000000000, -0.000000000000000000, -1.000000000000000000 ) ) ;
#192 = CARTESIAN_POINT ( 'NONE',  ( 5.994227550025245321, 54.50000166605907026, 3.999995834757352764 ) ) ;
#193 = DIRECTION ( 'NONE',  ( 0.000000000000000000, 0.000000000000000000, 1.000000000000000000 ) ) ;
#194 = LINE ( 'NONE', #761, #1003 ) ;
#195 = DIRECTION ( 'NONE',  ( 0.000000000000000000, 1.000000000000000000, 0.000000000000000000 ) ) ;
#196 = DIRECTION ( 'NONE',  ( 0.5299989400031803743, 0.8479983040050877996, -0.000000000000000000 ) ) ;
#197 = EDGE_CURVE ( 'NONE', #17, #977, #857, .T. ) ;
#198 = PLANE ( 'NONE',  #226 ) ;
#199 = CARTESIAN_POINT ( 'NONE',  ( -4.000000000000000000, 62.50000000000000000, 0.000000000000000000 ) ) ;
#200 = ORIENTED_EDGE ( 'NONE', *, *, #563, .T. ) ;
#201 = ADVANCED_FACE ( 'NONE', ( #960 ), #386, .F. ) ;
#202 = LINE ( 'NONE', #433, #356 ) ;
#203 = AXIS2_PLACEMENT_3D ( 'NONE', #415, #1009, #659 ) ;
#204 = DIRECTION ( 'NONE',  ( 0.000000000000000000, 0.000000000000000000, 1.000000000000000000 ) ) ;
#205 = AXIS2_PLACEMENT_3D ( 'NONE', #363, #946, #1021 ) ;
#206 = VERTEX_POINT ( 'NONE', #709 ) ;
#207 = CARTESIAN_POINT ( 'NONE',  ( -13.00000000000000000, 62.50000000000000000, 0.000000000000000000 ) ) ;
#208 = ORIENTED_EDGE ( 'NONE', *, *, #36, .F. ) ;
#209 = LINE ( 'NONE', #440, #354 ) ;
#210 = FACE_OUTER_BOUND ( 'NONE', #649, .T. ) ;
#211 = EDGE_CURVE ( 'NONE', #805, #375, #845, .T. ) ;
#212 = CARTESIAN_POINT ( 'NONE',  ( -13.00000000000000000, 62.50000000000000000, 10.00000000000000000 ) ) ;
#213 = ORIENTED_EDGE ( 'NONE', *, *, #762, .F. ) ;
#214 = DIRECTION ( 'NONE',  ( 1.000000000000000000, 8.095376221225100103E-16, 0.000000000000000000 ) ) ;
#215 = ADVANCED_BREP_SHAPE_REPRESENTATION ( 'Brick Clip 2 Offset', ( #344, #257 ), #729 ) ;
#216 = EDGE_CURVE ( 'NONE', #556, #127, #227, .T. ) ;
#217 = DIRECTION ( 'NONE',  ( 1.000000000000000000, 0.000000000000000000, -7.228014483236698528E-16 ) ) ;
#218 = ORIENTED_EDGE ( 'NONE', *, *, #499, .F. ) ;
#219 = DIRECTION ( 'NONE',  ( 1.000000000000000000, -2.602085213965210642E-15, 0.000000000000000000 ) ) ;
#220 = DIRECTION ( 'NONE',  ( -0.000000000000000000, -0.000000000000000000, -1.000000000000000000 ) ) ;
#221 = AXIS2_PLACEMENT_3D ( 'NONE', #646, #796, #474 ) ;
#222 = CARTESIAN_POINT ( 'NONE',  ( -11.50000000000000000, 3.999999999999993339, 0.000000000000000000 ) ) ;
#223 = VECTOR ( 'NONE', #565, 1000.000000000000000 ) ;
#224 = ORIENTED_EDGE ( 'NONE', *, *, #231, .T. ) ;
#225 = DIRECTION ( 'NONE',  ( 0.5299989400031803743, 0.8479983040050877996, -0.000000000000000000 ) ) ;
#226 = AXIS2_PLACEMENT_3D ( 'NONE', #511, #594, #590 ) ;
#227 = LINE ( 'NONE', #870, #303 ) ;
#228 = DIRECTION ( 'NONE',  ( -0.000000000000000000, -0.000000000000000000, -1.000000000000000000 ) ) ;
#229 = EDGE_LOOP ( 'NONE', ( #100, #1045, #886, #958 ) ) ;
#230 = CARTESIAN_POINT ( 'NONE',  ( -10.99999999999998579, -1.347111479062086827E-15, 0.000000000000000000 ) ) ;
#231 = EDGE_CURVE ( 'NONE', #901, #61, #452, .T. ) ;
#232 = ORIENTED_EDGE ( 'NONE', *, *, #509, .F. ) ;
#233 = LINE ( 'NONE', #166, #10 ) ;
#234 = CARTESIAN_POINT ( 'NONE',  ( -13.00000000000000000, 2.000000000000012434, 10.00000000000000000 ) ) ;
#235 = ORIENTED_EDGE ( 'NONE', *, *, #884, .T. ) ;
#236 = VERTEX_POINT ( 'NONE', #443 ) ;
#237 = CARTESIAN_POINT ( 'NONE',  ( -13.00000000000000000, 2.499999999999997335, 0.000000000000000000 ) ) ;
#238 = SURFACE_STYLE_USAGE ( .BOTH. , #888 ) ;
#239 = AXIS2_PLACEMENT_3D ( 'NONE', #369, #292, #214 ) ;
#240 = VERTEX_POINT ( 'NONE', #769 ) ;
#241 = AXIS2_PLACEMENT_3D ( 'NONE', #88, #572, #632 ) ;
#242 = EDGE_LOOP ( 'NONE', ( #978, #290, #400, #736 ) ) ;
#243 = CARTESIAN_POINT ( 'NONE',  ( 5.994227550025252427, 11.99999833394093862, 3.999995834757352764 ) ) ;
#244 = EDGE_CURVE ( 'NONE', #799, #564, #42, .T. ) ;
#245 = ORIENTED_EDGE ( 'NONE', *, *, #947, .T. ) ;
#246 = ORIENTED_EDGE ( 'NONE', *, *, #323, .T. ) ;
#247 = CARTESIAN_POINT ( 'NONE',  ( 5.994227550025242657, 49.50000166605907026, 3.999995834757350988 ) ) ;
#248 = FACE_OUTER_BOUND ( 'NONE', #756, .T. ) ;
#249 = ADVANCED_FACE ( 'NONE', ( #939 ), #174, .T. ) ;
#250 = VERTEX_POINT ( 'NONE', #159 ) ;
#251 = LINE ( 'NONE', #819, #223 ) ;
#252 = ORIENTED_EDGE ( 'NONE', *, *, #937, .T. ) ;
#253 = CIRCLE ( 'NONE', #384, 2.000000000000000888 ) ;
#254 = EDGE_CURVE ( 'NONE', #988, #17, #882, .T. ) ;
#255 = AXIS2_PLACEMENT_3D ( 'NONE', #422, #749, #370 ) ;
#256 = ORIENTED_EDGE ( 'NONE', *, *, #509, .T. ) ;
#257 = AXIS2_PLACEMENT_3D ( 'NONE', #784, #622, #878 ) ;
#258 = DIRECTION ( 'NONE',  ( -0.000000000000000000, -0.000000000000000000, -1.000000000000000000 ) ) ;
#259 = EDGE_LOOP ( 'NONE', ( #955, #908, #973, #444 ) ) ;
#260 = PRODUCT_DEFINITION ( 'UNKNOWN', '', #273, #19 ) ;
#261 = ORIENTED_EDGE ( 'NONE', *, *, #889, .F. ) ;
#262 = DIRECTION ( 'NONE',  ( 1.000000000000000000, 3.469446951953614189E-15, 0.000000000000000000 ) ) ;
#263 = CARTESIAN_POINT ( 'NONE',  ( 8.673617379884035472E-16, 64.50000000000000000, 10.00000000000000000 ) ) ;
#264 = DIRECTION ( 'NONE',  ( -0.000000000000000000, -0.000000000000000000, -1.000000000000000000 ) ) ;
#265 = ORIENTED_EDGE ( 'NONE', *, *, #582, .T. ) ;
#266 = CARTESIAN_POINT ( 'NONE',  ( 10.99422755002524532, 47.50000166605907026, 3.999995834757350988 ) ) ;
#267 = DIRECTION ( 'NONE',  ( -5.204170427930416550E-15, 1.000000000000000000, 0.000000000000000000 ) ) ;
#268 = AXIS2_PLACEMENT_3D ( 'NONE', #243, #407, #631 ) ;
#269 = CARTESIAN_POINT ( 'NONE',  ( -11.00000000000000888, 66.50000000000000000, 10.00000000000000000 ) ) ;
#270 = LINE ( 'NONE', #435, #669 ) ;
#271 = PRESENTATION_LAYER_ASSIGNMENT (  '', '', ( #321 ) ) ;
#272 = EDGE_CURVE ( 'NONE', #640, #188, #671, .T. ) ;
#273 = PRODUCT_DEFINITION_FORMATION_WITH_SPECIFIED_SOURCE ( 'ANY', '', #76, .NOT_KNOWN. ) ;
#274 = DIRECTION ( 'NONE',  ( 1.000000000000000000, 5.204170427930416550E-15, -0.000000000000000000 ) ) ;
#275 = FACE_OUTER_BOUND ( 'NONE', #242, .T. ) ;
#276 = DIRECTION ( 'NONE',  ( -0.000000000000000000, -0.000000000000000000, -1.000000000000000000 ) ) ;
#277 = DIRECTION ( 'NONE',  ( -2.983966427161273484E-15, 1.000000000000000000, -1.369518533665901396E-15 ) ) ;
#278 = LINE ( 'NONE', #115, #29 ) ;
#279 = ADVANCED_FACE ( 'NONE', ( #92 ), #965, .T. ) ;
#280 = CARTESIAN_POINT ( 'NONE',  ( 10.99422755002524710, 16.99999833394090487, 7.999995834757380742 ) ) ;
#281 = DIRECTION ( 'NONE',  ( -1.000000000000000000, 0.000000000000000000, 0.000000000000000000 ) ) ;
#282 = CARTESIAN_POINT ( 'NONE',  ( -13.00000000000001066, 64.50000000000000000, 0.000000000000000000 ) ) ;
#283 = EDGE_LOOP ( 'NONE', ( #245, #620, #633, #1053 ) ) ;
#284 = ORIENTED_EDGE ( 'NONE', *, *, #231, .F. ) ;
#285 = LINE ( 'NONE', #187, #420 ) ;
#286 = AXIS2_PLACEMENT_3D ( 'NONE', #625, #322, #557 ) ;
#287 = DIRECTION ( 'NONE',  ( 0.000000000000000000, 0.000000000000000000, 1.000000000000000000 ) ) ;
#288 = AXIS2_PLACEMENT_3D ( 'NONE', #651, #71, #647 ) ;
#289 = DIRECTION ( 'NONE',  ( 1.000000000000000000, 0.000000000000000000, -7.228014483236698528E-16 ) ) ;
#290 = ORIENTED_EDGE ( 'NONE', *, *, #365, .F. ) ;
#291 = ADVANCED_FACE ( 'NONE', ( #331 ), #408, .T. ) ;
#292 = DIRECTION ( 'NONE',  ( 8.095376221225100103E-16, -1.000000000000000000, 0.000000000000000000 ) ) ;
#293 = DIRECTION ( 'NONE',  ( 1.000000000000000000, 2.449293598294706907E-16, -7.228014483236698528E-16 ) ) ;
#294 = ORIENTED_EDGE ( 'NONE', *, *, #582, .F. ) ;
#295 = LINE ( 'NONE', #57, #967 ) ;
#296 = CARTESIAN_POINT ( 'NONE',  ( -4.000000000000000000, 62.50000000000000000, 10.00000000000000000 ) ) ;
#297 = ORIENTED_EDGE ( 'NONE', *, *, #804, .T. ) ;
#298 = PLANE ( 'NONE',  #87 ) ;
#299 = LINE ( 'NONE', #456, #652 ) ;
#300 = VECTOR ( 'NONE', #95, 1000.000000000000000 ) ;
#301 = LINE ( 'NONE', #542, #536 ) ;
#302 = EDGE_CURVE ( 'NONE', #358, #236, #636, .T. ) ;
#303 = VECTOR ( 'NONE', #626, 1000.000000000000000 ) ;
#304 = EDGE_LOOP ( 'NONE', ( #865, #808, #580, #461, #371, #73, #658, #464, #820, #653 ) ) ;
#305 = ORIENTED_EDGE ( 'NONE', *, *, #56, .F. ) ;
#306 = CARTESIAN_POINT ( 'NONE',  ( -0.005772449974750122441, 54.50000166605907026, 7.999995834757356761 ) ) ;
#307 = CIRCLE ( 'NONE', #176, 2.000000000000000888 ) ;
#308 = DIRECTION ( 'NONE',  ( 0.000000000000000000, -1.000000000000000000, 8.673617379884087734E-16 ) ) ;
#309 = ORIENTED_EDGE ( 'NONE', *, *, #1040, .T. ) ;
#310 = EDGE_CURVE ( 'NONE', #694, #240, #984, .T. ) ;
#311 = EDGE_LOOP ( 'NONE', ( #788, #395 ) ) ;
#312 = FACE_OUTER_BOUND ( 'NONE', #624, .T. ) ;
#313 = CARTESIAN_POINT ( 'NONE',  ( -9.000000000000000000, 62.50000000000000000, 10.00000000000000000 ) ) ;
#314 = VERTEX_POINT ( 'NONE', #482 ) ;
#315 = ADVANCED_FACE ( 'NONE', ( #813 ), #153, .T. ) ;
#316 = VERTEX_POINT ( 'NONE', #313 ) ;
#317 = DIRECTION ( 'NONE',  ( 0.000000000000000000, 0.000000000000000000, 1.000000000000000000 ) ) ;
#318 = DIRECTION ( 'NONE',  ( 1.112291097817873449E-15, -1.000000000000000000, 8.673617379884027583E-16 ) ) ;
#319 = VECTOR ( 'NONE', #220, 1000.000000000000000 ) ;
#320 = VERTEX_POINT ( 'NONE', #7 ) ;
#321 = STYLED_ITEM ( 'NONE', ( #807 ), #344 ) ;
#322 = DIRECTION ( 'NONE',  ( 3.469446951953619119E-16, 6.938893903907238238E-16, 1.000000000000000000 ) ) ;
#323 = EDGE_CURVE ( 'NONE', #702, #414, #251, .T. ) ;
#324 = ORIENTED_EDGE ( 'NONE', *, *, #424, .F. ) ;
#325 = ORIENTED_EDGE ( 'NONE', *, *, #211, .T. ) ;
#326 = CARTESIAN_POINT ( 'NONE',  ( -0.005772449974755904274, 54.50000166605907026, -4.165242642982514010E-06 ) ) ;
#327 = DIRECTION ( 'NONE',  ( -0.000000000000000000, -1.000000000000000000, -0.000000000000000000 ) ) ;
#328 = EDGE_CURVE ( 'NONE', #805, #977, #351, .T. ) ;
#329 = ORIENTED_EDGE ( 'NONE', *, *, #987, .T. ) ;
#330 = EDGE_LOOP ( 'NONE', ( #1018, #297, #545, #172 ) ) ;
#331 = FACE_OUTER_BOUND ( 'NONE', #43, .T. ) ;
#332 = EDGE_LOOP ( 'NONE', ( #1022, #969, #871, #1027, #934 ) ) ;
#333 = ADVANCED_FACE ( 'NONE', ( #411 ), #899, .T. ) ;
#334 = CIRCLE ( 'NONE', #349, 4.000000000000000000 ) ;
#335 = VECTOR ( 'NONE', #31, 1000.000000000000000 ) ;
#336 = VECTOR ( 'NONE', #195, 1000.000000000000000 ) ;
#337 = ORIENTED_EDGE ( 'NONE', *, *, #378, .T. ) ;
#338 = CARTESIAN_POINT ( 'NONE',  ( -11.00000000000000000, 61.25000000000000000, 0.000000000000000000 ) ) ;
#339 = CARTESIAN_POINT ( 'NONE',  ( 5.994227550025236440, 58.50000166605906315, 3.999995834757357205 ) ) ;
#340 = DIRECTION ( 'NONE',  ( -1.000000000000000000, 0.000000000000000000, 0.000000000000000000 ) ) ;
#341 = EDGE_LOOP ( 'NONE', ( #294, #404, #706, #681, #309 ) ) ;
#342 = DIRECTION ( 'NONE',  ( 0.8479983040050877996, -0.5299989400031803743, 0.000000000000000000 ) ) ;
#343 = CARTESIAN_POINT ( 'NONE',  ( -11.00000000000000000, 62.50000000000000000, 10.00000000000000000 ) ) ;
#344 = MANIFOLD_SOLID_BREP ( 'Mirror1', #708 ) ;
#345 = CARTESIAN_POINT ( 'NONE',  ( -2.000000000000000000, 64.50000000000000000, 10.00000000000000000 ) ) ;
#346 = EDGE_CURVE ( 'NONE', #988, #182, #194, .T. ) ;
#347 = CARTESIAN_POINT ( 'NONE',  ( -13.00000000000000000, 62.50000000000000000, 10.00000000000000000 ) ) ;
#348 = CARTESIAN_POINT ( 'NONE',  ( 4.633816407548270046E-32, 2.000000000000014211, 0.000000000000000000 ) ) ;
#349 = AXIS2_PLACEMENT_3D ( 'NONE', #535, #609, #606 ) ;
#350 = DIRECTION ( 'NONE',  ( 0.000000000000000000, 0.000000000000000000, 1.000000000000000000 ) ) ;
#351 = CIRCLE ( 'NONE', #171, 4.000000000000000000 ) ;
#352 = CARTESIAN_POINT ( 'NONE',  ( 6.994227550025244433, 47.50000166605905605, 3.999995834757350988 ) ) ;
#353 = ADVANCED_FACE ( 'NONE', ( #248 ), #507, .F. ) ;
#354 = VECTOR ( 'NONE', #846, 1000.000000000000000 ) ;
#355 = CARTESIAN_POINT ( 'NONE',  ( -4.000000000000000000, 3.999999999999999112, 0.000000000000000000 ) ) ;
#356 = VECTOR ( 'NONE', #677, 1000.000000000000000 ) ;
#357 = CARTESIAN_POINT ( 'NONE',  ( -11.00000000000000000, 1.999999999999998224, 0.000000000000000000 ) ) ;
#358 = VERTEX_POINT ( 'NONE', #834 ) ;
#359 = EDGE_CURVE ( 'NONE', #358, #949, #431, .T. ) ;
#360 = VERTEX_POINT ( 'NONE', #827 ) ;
#361 = CARTESIAN_POINT ( 'NONE',  ( -4.000000000000000000, 3.999999999999999112, 0.000000000000000000 ) ) ;
#362 = CARTESIAN_POINT ( 'NONE',  ( -13.00000000000001066, 64.50000000000000000, 10.00000000000000000 ) ) ;
#363 = CARTESIAN_POINT ( 'NONE',  ( -2.000000000000000000, 1.999999999999999556, 10.00000000000000000 ) ) ;
#364 = ORIENTED_EDGE ( 'NONE', *, *, #1012, .F. ) ;
#365 = EDGE_CURVE ( 'NONE', #548, #567, #727, .T. ) ;
#366 = LINE ( 'NONE', #991, #619 ) ;
#367 = VECTOR ( 'NONE', #576, 1000.000000000000000 ) ;
#368 = AXIS2_PLACEMENT_3D ( 'NONE', #746, #196, #578 ) ;
#369 = CARTESIAN_POINT ( 'NONE',  ( -4.000000000000000000, 3.999999999999999112, 10.00000000000000000 ) ) ;
#370 = DIRECTION ( 'NONE',  ( -1.871731055195190174E-15, -1.000000000000000000, 1.084202172485504434E-15 ) ) ;
#371 = ORIENTED_EDGE ( 'NONE', *, *, #64, .F. ) ;
#372 = CARTESIAN_POINT ( 'NONE',  ( -11.00000000000000000, 62.50000000000000000, 0.000000000000000000 ) ) ;
#373 = DIRECTION ( 'NONE',  ( -3.469446951953620598E-16, 6.938893903907237252E-16, -1.000000000000000000 ) ) ;
#374 = CARTESIAN_POINT ( 'NONE',  ( 4.633816407548270046E-32, 2.000000000000014211, 10.00000000000000000 ) ) ;
#375 = VERTEX_POINT ( 'NONE', #514 ) ;
#376 = LINE ( 'NONE', #860, #831 ) ;
#377 = PLANE ( 'NONE',  #634 ) ;
#378 = EDGE_CURVE ( 'NONE', #992, #54, #12, .T. ) ;
#379 = CARTESIAN_POINT ( 'NONE',  ( -4.000000000000000000, 62.50000000000000000, 10.00000000000000000 ) ) ;
#380 = ORIENTED_EDGE ( 'NONE', *, *, #460, .F. ) ;
#381 = CARTESIAN_POINT ( 'NONE',  ( 5.994227550025246209, 16.99999833394092974, 3.999995834757351876 ) ) ;
#382 = VERTEX_POINT ( 'NONE', #426 ) ;
#383 = CARTESIAN_POINT ( 'NONE',  ( 10.99422755002524710, 18.99999833394092974, 7.999995834757351432 ) ) ;
#384 = AXIS2_PLACEMENT_3D ( 'NONE', #952, #287, #1020 ) ;
#385 = EDGE_CURVE ( 'NONE', #20, #877, #27, .T. ) ;
#386 = PLANE ( 'NONE',  #617 ) ;
#387 = AXIS2_PLACEMENT_3D ( 'NONE', #38, #911, #428 ) ;
#388 = AXIS2_PLACEMENT_3D ( 'NONE', #558, #318, #976 ) ;
#389 = ORIENTED_EDGE ( 'NONE', *, *, #981, .F. ) ;
#390 = ORIENTED_EDGE ( 'NONE', *, *, #797, .F. ) ;
#391 = CARTESIAN_POINT ( 'NONE',  ( -13.00000000000001066, 64.50000000000000000, 10.00000000000000000 ) ) ;
#392 = DIRECTION ( 'NONE',  ( -1.000000000000000000, 1.871675329343399246E-15, 2.206446526461693411E-16 ) ) ;
#393 = EDGE_LOOP ( 'NONE', ( #913, #940, #1050, #549 ) ) ;
#394 = EDGE_CURVE ( 'NONE', #97, #650, #794, .T. ) ;
#395 = ORIENTED_EDGE ( 'NONE', *, *, #563, .F. ) ;
#396 = FACE_OUTER_BOUND ( 'NONE', #1042, .T. ) ;
#397 = DIRECTION ( 'NONE',  ( -1.951563910473907981E-15, -1.000000000000000000, 1.084202172485504434E-15 ) ) ;
#398 = ORIENTED_EDGE ( 'NONE', *, *, #738, .F. ) ;
#399 = EDGE_CURVE ( 'NONE', #127, #702, #741, .T. ) ;
#400 = ORIENTED_EDGE ( 'NONE', *, *, #469, .T. ) ;
#401 = DIRECTION ( 'NONE',  ( 0.000000000000000000, 1.000000000000000000, 6.746146851020920861E-16 ) ) ;
#402 = DIRECTION ( 'NONE',  ( -1.000000000000000000, 1.871675329343399246E-15, 2.206446526461693411E-16 ) ) ;
#403 = AXIS2_PLACEMENT_3D ( 'NONE', #905, #989, #190 ) ;
#404 = ORIENTED_EDGE ( 'NONE', *, *, #884, .F. ) ;
#405 = VECTOR ( 'NONE', #110, 1000.000000000000000 ) ;
#406 = VERTEX_POINT ( 'NONE', #199 ) ;
#407 = DIRECTION ( 'NONE',  ( -1.000000000000000000, 1.871675329343399246E-15, 2.206446526461693411E-16 ) ) ;
#408 = CYLINDRICAL_SURFACE ( 'NONE', #971, 2.000000000000000888 ) ;
#409 = ORIENTED_EDGE ( 'NONE', *, *, #680, .T. ) ;
#410 = VERTEX_POINT ( 'NONE', #352 ) ;
#411 = FACE_OUTER_BOUND ( 'NONE', #132, .T. ) ;
#412 = EDGE_CURVE ( 'NONE', #127, #54, #270, .T. ) ;
#413 = ORIENTED_EDGE ( 'NONE', *, *, #429, .F. ) ;
#414 = VERTEX_POINT ( 'NONE', #338 ) ;
#415 = CARTESIAN_POINT ( 'NONE',  ( 5.994227550025245321, 54.50000166605907026, 3.999995834757352764 ) ) ;
#416 = ORIENTED_EDGE ( 'NONE', *, *, #569, .T. ) ;
#417 = AXIS2_PLACEMENT_3D ( 'NONE', #925, #996, #765 ) ;
#418 = VECTOR ( 'NONE', #191, 1000.000000000000000 ) ;
#419 = ORIENTED_EDGE ( 'NONE', *, *, #197, .T. ) ;
#420 = VECTOR ( 'NONE', #672, 1000.000000000000000 ) ;
#421 = CARTESIAN_POINT ( 'NONE',  ( 10.99422755002524532, 47.50000166605907026, 3.999995834757350988 ) ) ;
#422 = CARTESIAN_POINT ( 'NONE',  ( -0.005772449974746074464, 11.99999833394093862, 3.999995834757357205 ) ) ;
#423 = CARTESIAN_POINT ( 'NONE',  ( -9.000000000000000000, 61.25000000000000000, 0.000000000000000000 ) ) ;
#424 = EDGE_CURVE ( 'NONE', #161, #694, #678, .T. ) ;
#425 = CARTESIAN_POINT ( 'NONE',  ( -0.002886224987375335307, 11.99999833395857962, 7.999995800455080186 ) ) ;
#426 = CARTESIAN_POINT ( 'NONE',  ( 5.994227550025246209, 54.50000166605907026, 7.999995834757353208 ) ) ;
#427 = CARTESIAN_POINT ( 'NONE',  ( 5.994227550025242657, 49.50000166605907026, 3.999995834757350988 ) ) ;
#428 = DIRECTION ( 'NONE',  ( 1.000000000000000000, 0.000000000000000000, 0.000000000000000000 ) ) ;
#429 = EDGE_CURVE ( 'NONE', #89, #161, #35, .T. ) ;
#430 = FACE_OUTER_BOUND ( 'NONE', #311, .T. ) ;
#431 = LINE ( 'NONE', #667, #405 ) ;
#432 = DIRECTION ( 'NONE',  ( -7.414106252077233804E-34, 1.000000000000000000, 0.000000000000000000 ) ) ;
#433 = CARTESIAN_POINT ( 'NONE',  ( -11.00000000000000000, 62.50000000000000000, 0.000000000000000000 ) ) ;
#434 = VECTOR ( 'NONE', #327, 1000.000000000000000 ) ;
#435 = CARTESIAN_POINT ( 'NONE',  ( -13.00000000000000000, 62.50000000000000000, 10.00000000000000000 ) ) ;
#436 = EDGE_CURVE ( 'NONE', #815, #766, #998, .T. ) ;
#437 = DIRECTION ( 'NONE',  ( 0.000000000000000000, 0.000000000000000000, -1.000000000000000000 ) ) ;
#438 = DIRECTION ( 'NONE',  ( 0.000000000000000000, 1.000000000000000000, 0.000000000000000000 ) ) ;
#439 = ORIENTED_EDGE ( 'NONE', *, *, #91, .T. ) ;
#440 = CARTESIAN_POINT ( 'NONE',  ( -10.99999999999998579, -1.347111479062086827E-15, 10.00000000000000000 ) ) ;
#441 = DIRECTION ( 'NONE',  ( 0.000000000000000000, 1.000000000000000000, 0.000000000000000000 ) ) ;
#442 = EDGE_CURVE ( 'NONE', #320, #410, #566, .T. ) ;
#443 = CARTESIAN_POINT ( 'NONE',  ( -0.002886224987378804320, 54.50000166607671304, 7.999995800455081962 ) ) ;
#444 = ORIENTED_EDGE ( 'NONE', *, *, #981, .T. ) ;
#445 = CARTESIAN_POINT ( 'NONE',  ( 5.994227550025251539, 11.99999833394093862, -4.165242647319322700E-06 ) ) ;
#446 = DIRECTION ( 'NONE',  ( 8.673617379884027583E-16, 1.000000000000000000, 8.673617379884027583E-16 ) ) ;
#447 = DIRECTION ( 'NONE',  ( -7.227308622447317643E-16, 0.000000000000000000, -1.000000000000000000 ) ) ;
#448 = EDGE_LOOP ( 'NONE', ( #488, #961, #416, #712, #811, #160 ) ) ;
#449 = DIRECTION ( 'NONE',  ( 0.000000000000000000, 0.000000000000000000, 1.000000000000000000 ) ) ;
#450 = DIRECTION ( 'NONE',  ( 1.000000000000000000, 2.983966427161273484E-15, 0.000000000000000000 ) ) ;
#451 = AXIS2_PLACEMENT_3D ( 'NONE', #596, #515, #932 ) ;
#452 = LINE ( 'NONE', #234, #13 ) ;
#453 = ORIENTED_EDGE ( 'NONE', *, *, #956, .F. ) ;
#454 = APPLICATION_PROTOCOL_DEFINITION ( 'draft international standard', 'automotive_design', 1998, #103 ) ;
#455 = ADVANCED_FACE ( 'NONE', ( #512 ), #591, .F. ) ;
#456 = CARTESIAN_POINT ( 'NONE',  ( 10.99422755002524710, 16.99999833394094040, -4.165242650788769652E-06 ) ) ;
#457 = CARTESIAN_POINT ( 'NONE',  ( -4.000000000000000000, 62.50000000000000000, 10.00000000000000000 ) ) ;
#458 = EDGE_LOOP ( 'NONE', ( #660, #527, #419, #885, #506 ) ) ;
#459 = DIRECTION ( 'NONE',  ( -2.739037067331802793E-15, -1.000000000000000000, -1.369518533665901396E-15 ) ) ;
#460 = EDGE_CURVE ( 'NONE', #1036, #815, #588, .T. ) ;
#461 = ORIENTED_EDGE ( 'NONE', *, *, #359, .T. ) ;
#462 = CARTESIAN_POINT ( 'NONE',  ( 6.994227550025185813, 49.50000166605907026, 3.999995834757350988 ) ) ;
#463 = DIRECTION ( 'NONE',  ( 8.673617379884027583E-16, 1.000000000000000000, 8.673617379884027583E-16 ) ) ;
#464 = ORIENTED_EDGE ( 'NONE', *, *, #51, .T. ) ;
#465 = ORIENTED_EDGE ( 'NONE', *, *, #903, .F. ) ;
#466 = PLANE ( 'NONE',  #221 ) ;
#467 = VECTOR ( 'NONE', #162, 1000.000000000000000 ) ;
#468 = FILL_AREA_STYLE_COLOUR ( '', #985 ) ;
#469 = EDGE_CURVE ( 'NONE', #548, #320, #179, .T. ) ;
#470 = TOROIDAL_SURFACE ( 'NONE', #120, 4.999999999999990230, 4.000000000000000000 ) ;
#471 = VERTEX_POINT ( 'NONE', #494 ) ;
#472 = FACE_OUTER_BOUND ( 'NONE', #663, .T. ) ;
#473 = ORIENTED_EDGE ( 'NONE', *, *, #91, .F. ) ;
#474 = DIRECTION ( 'NONE',  ( 0.000000000000000000, -0.000000000000000000, -1.000000000000000000 ) ) ;
#475 = ADVANCED_FACE ( 'NONE', ( #18 ), #994, .F. ) ;
#476 = EDGE_LOOP ( 'NONE', ( #721, #783, #826, #85 ) ) ;
#477 = ORIENTED_EDGE ( 'NONE', *, *, #164, .T. ) ;
#478 = LINE ( 'NONE', #561, #897 ) ;
#479 = DIRECTION ( 'NONE',  ( 1.000000000000000000, 0.000000000000000000, -7.228014483236698528E-16 ) ) ;
#480 = ORIENTED_EDGE ( 'NONE', *, *, #394, .F. ) ;
#481 = ORIENTED_EDGE ( 'NONE', *, *, #848, .F. ) ;
#482 = CARTESIAN_POINT ( 'NONE',  ( 5.994227550025254203, 50.50000166605907026, 3.999995834757352764 ) ) ;
#483 = CIRCLE ( 'NONE', #968, 3.999999999999996447 ) ;
#484 = ORIENTED_EDGE ( 'NONE', *, *, #64, .T. ) ;
#485 = VECTOR ( 'NONE', #665, 1000.000000000000000 ) ;
#486 = AXIS2_PLACEMENT_3D ( 'NONE', #524, #128, #912 ) ;
#487 = EDGE_CURVE ( 'NONE', #382, #97, #858, .T. ) ;
#488 = ORIENTED_EDGE ( 'NONE', *, *, #662, .F. ) ;
#489 = VECTOR ( 'NONE', #926, 1000.000000000000000 ) ;
#490 = CARTESIAN_POINT ( 'NONE',  ( 5.994227550025252427, 11.99999833394093862, 3.999995834757352764 ) ) ;
#491 = VERTEX_POINT ( 'NONE', #780 ) ;
#492 = ORIENTED_EDGE ( 'NONE', *, *, #732, .T. ) ;
#493 = ADVANCED_FACE ( 'NONE', ( #789 ), #529, .F. ) ;
#494 = CARTESIAN_POINT ( 'NONE',  ( -2.000000000000000444, 66.50000000000000000, 10.00000000000000000 ) ) ;
#495 = ORIENTED_EDGE ( 'NONE', *, *, #738, .T. ) ;
#496 = APPLICATION_CONTEXT ( 'automotive_design' ) ;
#497 = ORIENTED_EDGE ( 'NONE', *, *, #987, .F. ) ;
#498 = CARTESIAN_POINT ( 'NONE',  ( -11.50000000000000000, 3.999999999999993339, 10.00000000000000000 ) ) ;
#499 = EDGE_CURVE ( 'NONE', #157, #766, #295, .T. ) ;
#500 = EDGE_LOOP ( 'NONE', ( #480, #495, #66, #717, #213 ) ) ;
#501 = VECTOR ( 'NONE', #822, 1000.000000000000000 ) ;
#502 = VECTOR ( 'NONE', #503, 1000.000000000000000 ) ;
#503 = DIRECTION ( 'NONE',  ( 1.112291097817873449E-15, -1.000000000000000000, 8.673617379884027583E-16 ) ) ;
#504 = AXIS2_PLACEMENT_3D ( 'NONE', #744, #910, #105 ) ;
#505 = LINE ( 'NONE', #832, #760 ) ;
#506 = ORIENTED_EDGE ( 'NONE', *, *, #662, .T. ) ;
#507 = PLANE ( 'NONE',  #1055 ) ;
#508 = CARTESIAN_POINT ( 'NONE',  ( -0.003022400266280327388, 11.99972599032309972, -2.185472902623964531E-06 ) ) ;
#509 = EDGE_CURVE ( 'NONE', #360, #188, #334, .T. ) ;
#510 = DIRECTION ( 'NONE',  ( -2.168404344971010840E-15, 1.000000000000000000, 1.084202172485505420E-15 ) ) ;
#511 = CARTESIAN_POINT ( 'NONE',  ( 10.99422755002524887, 18.99999833394093685, 3.999995834757350988 ) ) ;
#512 = FACE_OUTER_BOUND ( 'NONE', #638, .T. ) ;
#513 = ORIENTED_EDGE ( 'NONE', *, *, #359, .F. ) ;
#514 = CARTESIAN_POINT ( 'NONE',  ( 6.994227550025268414, 16.99999833394092263, 3.999995834757350988 ) ) ;
#515 = DIRECTION ( 'NONE',  ( 0.000000000000000000, 0.000000000000000000, 1.000000000000000000 ) ) ;
#516 = AXIS2_PLACEMENT_3D ( 'NONE', #247, #893, #401 ) ;
#517 = CARTESIAN_POINT ( 'NONE',  ( -13.00000000000000000, 2.499999999999997335, 10.00000000000000000 ) ) ;
#518 = ADVANCED_FACE ( 'NONE', ( #210 ), #377, .F. ) ;
#519 = VECTOR ( 'NONE', #942, 1000.000000000000000 ) ;
#520 = DIRECTION ( 'NONE',  ( -0.000000000000000000, -0.000000000000000000, -1.000000000000000000 ) ) ;
#521 = VECTOR ( 'NONE', #682, 1000.000000000000000 ) ;
#522 = DIRECTION ( 'NONE',  ( 6.687256751344739839E-33, 1.000000000000000000, 6.938893903907237252E-16 ) ) ;
#523 = ORIENTED_EDGE ( 'NONE', *, *, #487, .F. ) ;
#524 = CARTESIAN_POINT ( 'NONE',  ( 10.99422755002518493, 49.50000166605908447, 3.999995834757274604 ) ) ;
#525 = DIRECTION ( 'NONE',  ( 0.000000000000000000, 1.000000000000000000, 8.673617379884147885E-16 ) ) ;
#526 = CARTESIAN_POINT ( 'NONE',  ( 10.99422755002524710, 16.99999833394093329, 7.999995834757349655 ) ) ;
#527 = ORIENTED_EDGE ( 'NONE', *, *, #117, .F. ) ;
#528 = DIRECTION ( 'NONE',  ( -2.168404344971010840E-15, 1.000000000000000000, 1.084202172485505420E-15 ) ) ;
#529 = PLANE ( 'NONE',  #169 ) ;
#530 = CARTESIAN_POINT ( 'NONE',  ( 14.99422755002525420, 16.99999833394090132, 3.999995834757348323 ) ) ;
#531 = ADVANCED_FACE ( 'NONE', ( #938 ), #933, .T. ) ;
#532 = ORIENTED_EDGE ( 'NONE', *, *, #610, .T. ) ;
#533 =( NAMED_UNIT ( * ) PLANE_ANGLE_UNIT ( ) SI_UNIT ( $, .RADIAN. ) );
#534 = AXIS2_PLACEMENT_3D ( 'NONE', #158, #875, #964 ) ;
#535 = CARTESIAN_POINT ( 'NONE',  ( 10.99422755002526841, 16.99999833394091198, 3.999995834757379853 ) ) ;
#536 = VECTOR ( 'NONE', #791, 1000.000000000000000 ) ;
#537 = CARTESIAN_POINT ( 'NONE',  ( 10.99422755002524710, 16.99999833394093685, 3.999995834757349211 ) ) ;
#538 = ORIENTED_EDGE ( 'NONE', *, *, #790, .T. ) ;
#539 = EDGE_CURVE ( 'NONE', #316, #491, #852, .T. ) ;
#540 = FACE_OUTER_BOUND ( 'NONE', #1047, .T. ) ;
#541 = DIRECTION ( 'NONE',  ( -1.000000000000000000, -2.116604689172870331E-15, 2.206446526461691439E-16 ) ) ;
#542 = CARTESIAN_POINT ( 'NONE',  ( -11.50000000000000000, 3.999999999999993339, 10.00000000000000000 ) ) ;
#543 = ORIENTED_EDGE ( 'NONE', *, *, #216, .T. ) ;
#544 = EDGE_CURVE ( 'NONE', #314, #567, #776, .T. ) ;
#545 = ORIENTED_EDGE ( 'NONE', *, *, #1046, .T. ) ;
#546 = DIRECTION ( 'NONE',  ( 1.000000000000000000, 2.449293598294706907E-16, -7.228014483236698528E-16 ) ) ;
#547 = DIRECTION ( 'NONE',  ( -0.000000000000000000, -1.000000000000000000, -0.000000000000000000 ) ) ;
#548 = VERTEX_POINT ( 'NONE', #707 ) ;
#549 = ORIENTED_EDGE ( 'NONE', *, *, #138, .T. ) ;
#550 = DIRECTION ( 'NONE',  ( 0.000000000000000000, -8.673617379884035472E-16, 1.000000000000000000 ) ) ;
#551 = ADVANCED_FACE ( 'NONE', ( #941 ), #862, .F. ) ;
#552 = VECTOR ( 'NONE', #342, 1000.000000000000000 ) ;
#553 = VECTOR ( 'NONE', #676, 1000.000000000000000 ) ;
#554 = VERTEX_POINT ( 'NONE', #124 ) ;
#555 = TOROIDAL_SURFACE ( 'NONE', #657, 4.999999999999993783, 4.000000000000000000 ) ;
#556 = VERTEX_POINT ( 'NONE', #362 ) ;
#557 = DIRECTION ( 'NONE',  ( 6.687256751344767208E-33, -1.000000000000000000, 6.938893903907238238E-16 ) ) ;
#558 = CARTESIAN_POINT ( 'NONE',  ( 10.99422755002524354, 49.50000166605907026, 3.999995834757349211 ) ) ;
#559 = ORIENTED_EDGE ( 'NONE', *, *, #310, .T. ) ;
#560 = ORIENTED_EDGE ( 'NONE', *, *, #1046, .F. ) ;
#561 = CARTESIAN_POINT ( 'NONE',  ( -11.00000000000000000, 62.50000000000000000, 10.00000000000000000 ) ) ;
#562 = ORIENTED_EDGE ( 'NONE', *, *, #628, .T. ) ;
#563 = EDGE_CURVE ( 'NONE', #980, #564, #982, .T. ) ;
#564 = VERTEX_POINT ( 'NONE', #383 ) ;
#565 = DIRECTION ( 'NONE',  ( -0.000000000000000000, -0.000000000000000000, -1.000000000000000000 ) ) ;
#566 = CIRCLE ( 'NONE', #186, 4.000000000000000000 ) ;
#567 = VERTEX_POINT ( 'NONE', #462 ) ;
#568 = AXIS2_PLACEMENT_3D ( 'NONE', #1049, #258, #75 ) ;
#569 = EDGE_CURVE ( 'NONE', #188, #799, #615, .T. ) ;
#570 = CIRCLE ( 'NONE', #68, 4.000000000000000000 ) ;
#571 = ORIENTED_EDGE ( 'NONE', *, *, #460, .T. ) ;
#572 = DIRECTION ( 'NONE',  ( 3.469446951953619119E-16, 6.938893903907238238E-16, 1.000000000000000000 ) ) ;
#573 = ORIENTED_EDGE ( 'NONE', *, *, #346, .T. ) ;
#574 = LINE ( 'NONE', #907, #502 ) ;
#575 = VERTEX_POINT ( 'NONE', #45 ) ;
#576 = DIRECTION ( 'NONE',  ( 1.000000000000000000, 1.224646799147353454E-16, -0.000000000000000000 ) ) ;
#577 = CARTESIAN_POINT ( 'NONE',  ( -2.000000000000000444, 66.50000000000000000, 10.00000000000000000 ) ) ;
#578 = DIRECTION ( 'NONE',  ( -0.8479983040050877996, 0.5299989400031803743, 0.000000000000000000 ) ) ;
#579 = CARTESIAN_POINT ( 'NONE',  ( -4.000000000000000000, 3.999999999999999112, 10.00000000000000000 ) ) ;
#580 = ORIENTED_EDGE ( 'NONE', *, *, #903, .T. ) ;
#581 = DIRECTION ( 'NONE',  ( -2.983966427161273484E-15, 1.000000000000000000, -1.369518533665901396E-15 ) ) ;
#582 = EDGE_CURVE ( 'NONE', #360, #980, #299, .T. ) ;
#583 = DIRECTION ( 'NONE',  ( 0.000000000000000000, 1.000000000000000000, 0.000000000000000000 ) ) ;
#584 = AXIS2_PLACEMENT_3D ( 'NONE', #498, #999, #909 ) ;
#585 = VECTOR ( 'NONE', #863, 1000.000000000000000 ) ;
#586 = AXIS2_PLACEMENT_3D ( 'NONE', #842, #114, #755 ) ;
#587 = CARTESIAN_POINT ( 'NONE',  ( -11.00000000000000888, 66.50000000000000000, 0.000000000000000000 ) ) ;
#588 = LINE ( 'NONE', #927, #367 ) ;
#589 = LINE ( 'NONE', #835, #49 ) ;
#590 = DIRECTION ( 'NONE',  ( 1.000000000000000000, -2.739037067331802793E-15, 0.000000000000000000 ) ) ;
#591 = PLANE ( 'NONE',  #584 ) ;
#592 = LINE ( 'NONE', #263, #418 ) ;
#593 = CYLINDRICAL_SURFACE ( 'NONE', #417, 4.000000000000000000 ) ;
#594 = DIRECTION ( 'NONE',  ( -2.739037067331802793E-15, -1.000000000000000000, -1.369518533665901396E-15 ) ) ;
#595 = CARTESIAN_POINT ( 'NONE',  ( 4.633816407548270046E-32, 2.000000000000014211, 10.00000000000000000 ) ) ;
#596 = CARTESIAN_POINT ( 'NONE',  ( -11.00000000000000888, 64.50000000000000000, 0.000000000000000000 ) ) ;
#597 = ORIENTED_EDGE ( 'NONE', *, *, #1012, .T. ) ;
#598 = AXIS2_PLACEMENT_3D ( 'NONE', #266, #581, #450 ) ;
#599 = EDGE_CURVE ( 'NONE', #702, #554, #774, .T. ) ;
#600 = CARTESIAN_POINT ( 'NONE',  ( -2.000000000000014211, -2.449293598294724657E-16, 10.00000000000000000 ) ) ;
#601 = AXIS2_PLACEMENT_3D ( 'NONE', #1038, #217, #447 ) ;
#602 = FACE_OUTER_BOUND ( 'NONE', #229, .T. ) ;
#603 = CARTESIAN_POINT ( 'NONE',  ( 5.994227550025246209, 16.99999833394092974, 3.999995834757350988 ) ) ;
#604 = ORIENTED_EDGE ( 'NONE', *, *, #836, .F. ) ;
#605 = CARTESIAN_POINT ( 'NONE',  ( 10.99422755002524887, 18.99999833394093685, 3.999995834757350988 ) ) ;
#606 = DIRECTION ( 'NONE',  ( 1.000000000000000000, -2.602085213965210642E-15, 0.000000000000000000 ) ) ;
#607 = LINE ( 'NONE', #53, #585 ) ;
#608 = VERTEX_POINT ( 'NONE', #41 ) ;
#609 = DIRECTION ( 'NONE',  ( -2.739037067331802793E-15, -1.000000000000000000, -1.369518533665901396E-15 ) ) ;
#610 = EDGE_CURVE ( 'NONE', #949, #20, #253, .T. ) ;
#611 = DIRECTION ( 'NONE',  ( 3.469446951953619119E-16, 6.938893903907238238E-16, 1.000000000000000000 ) ) ;
#612 = CYLINDRICAL_SURFACE ( 'NONE', #705, 2.000000000000000000 ) ;
#613 = ORIENTED_EDGE ( 'NONE', *, *, #310, .F. ) ;
#614 = DIRECTION ( 'NONE',  ( -1.000000000000000000, 0.000000000000000000, 0.000000000000000000 ) ) ;
#615 = CIRCLE ( 'NONE', #723, 4.000000000000000000 ) ;
#616 = DIRECTION ( 'NONE',  ( -2.168404344971010840E-15, 1.000000000000000000, 1.084202172485505420E-15 ) ) ;
#617 = AXIS2_PLACEMENT_3D ( 'NONE', #296, #953, #135 ) ;
#618 = CARTESIAN_POINT ( 'NONE',  ( -0.005772449974748965380, 11.99999833394093862, -4.165242642982514010E-06 ) ) ;
#619 = VECTOR ( 'NONE', #264, 1000.000000000000000 ) ;
#620 = ORIENTED_EDGE ( 'NONE', *, *, #152, .F. ) ;
#621 = ADVANCED_FACE ( 'NONE', ( #602 ), #1037, .F. ) ;
#622 = DIRECTION ( 'NONE',  ( 0.000000000000000000, 0.000000000000000000, 1.000000000000000000 ) ) ;
#623 = AXIS2_PLACEMENT_3D ( 'NONE', #936, #1013, #1008 ) ;
#624 = EDGE_LOOP ( 'NONE', ( #966, #880, #364, #439 ) ) ;
#625 = CARTESIAN_POINT ( 'NONE',  ( 5.994227550025246209, 16.99999833394092974, 3.999995834757351876 ) ) ;
#626 = DIRECTION ( 'NONE',  ( 5.204170427930416550E-15, -1.000000000000000000, 0.000000000000000000 ) ) ;
#627 = ORIENTED_EDGE ( 'NONE', *, *, #399, .F. ) ;
#628 = EDGE_CURVE ( 'NONE', #556, #992, #86, .T. ) ;
#629 = PRODUCT_DEFINITION_SHAPE ( 'NONE', 'NONE',  #260 ) ;
#630 = ORIENTED_EDGE ( 'NONE', *, *, #412, .F. ) ;
#631 = DIRECTION ( 'NONE',  ( -1.951563910473907981E-15, -1.000000000000000000, 1.084202172485504434E-15 ) ) ;
#632 = DIRECTION ( 'NONE',  ( 0.000000000000000000, -1.000000000000000000, 6.746146851020920861E-16 ) ) ;
#633 = ORIENTED_EDGE ( 'NONE', *, *, #4, .F. ) ;
#634 = AXIS2_PLACEMENT_3D ( 'NONE', #683, #225, #52 ) ;
#635 = LINE ( 'NONE', #306, #154 ) ;
#636 = CIRCLE ( 'NONE', #189, 3.999999999999996447 ) ;
#637 = CIRCLE ( 'NONE', #451, 2.000000000000001776 ) ;
#638 = EDGE_LOOP ( 'NONE', ( #146, #497, #604, #77 ) ) ;
#639 = DIRECTION ( 'NONE',  ( 0.8479983040050877996, -0.5299989400031803743, 0.000000000000000000 ) ) ;
#640 = VERTEX_POINT ( 'NONE', #70 ) ;
#641 = DIRECTION ( 'NONE',  ( 1.000000000000000000, 2.449293598294706907E-16, -7.228014483236698528E-16 ) ) ;
#642 = DIRECTION ( 'NONE',  ( -1.871731055195190174E-15, -1.000000000000000000, 1.084202172485504434E-15 ) ) ;
#643 = ADVANCED_FACE ( 'NONE', ( #715 ), #881, .T. ) ;
#644 = ORIENTED_EDGE ( 'NONE', *, *, #745, .T. ) ;
#645 = ORIENTED_EDGE ( 'NONE', *, *, #867, .T. ) ;
#646 = CARTESIAN_POINT ( 'NONE',  ( -2.000000000000000444, 66.50000000000000000, 10.00000000000000000 ) ) ;
#647 = DIRECTION ( 'NONE',  ( -7.227308622447317643E-16, 0.000000000000000000, -1.000000000000000000 ) ) ;
#648 = EDGE_CURVE ( 'NONE', #17, #358, #233, .T. ) ;
#649 = EDGE_LOOP ( 'NONE', ( #833, #175, #627, #859 ) ) ;
#650 = VERTEX_POINT ( 'NONE', #970 ) ;
#651 = CARTESIAN_POINT ( 'NONE',  ( -0.005772449974753013358, 54.50000166605907026, 3.999995834757357205 ) ) ;
#652 = VECTOR ( 'NONE', #446, 1000.000000000000000 ) ;
#653 = ORIENTED_EDGE ( 'NONE', *, *, #254, .T. ) ;
#654 = AXIS2_PLACEMENT_3D ( 'NONE', #764, #274, #267 ) ;
#655 = DIRECTION ( 'NONE',  ( -1.000000000000000000, -2.116604689172870331E-15, 2.206446526461691439E-16 ) ) ;
#656 = EDGE_CURVE ( 'NONE', #236, #382, #635, .T. ) ;
#657 = AXIS2_PLACEMENT_3D ( 'NONE', #381, #699, #703 ) ;
#658 = ORIENTED_EDGE ( 'NONE', *, *, #499, .T. ) ;
#659 = DIRECTION ( 'NONE',  ( -2.168404344971010840E-15, 1.000000000000000000, 1.084202172485505420E-15 ) ) ;
#660 = ORIENTED_EDGE ( 'NONE', *, *, #346, .F. ) ;
#661 = FACE_OUTER_BOUND ( 'NONE', #850, .T. ) ;
#662 = EDGE_CURVE ( 'NONE', #640, #182, #134, .T. ) ;
#663 = EDGE_LOOP ( 'NONE', ( #1058, #81, #1011, #645 ) ) ;
#664 = CARTESIAN_POINT ( 'NONE',  ( -4.000000000000000000, 3.999999999999999112, 0.000000000000000000 ) ) ;
#665 = DIRECTION ( 'NONE',  ( 0.8479983040050877996, -0.5299989400031803743, 0.000000000000000000 ) ) ;
#666 = CARTESIAN_POINT ( 'NONE',  ( 8.673617379884035472E-16, 64.50000000000000000, 0.000000000000000000 ) ) ;
#667 = CARTESIAN_POINT ( 'NONE',  ( 4.633816407548270046E-32, 2.000000000000014211, 0.000000000000000000 ) ) ;
#668 = FACE_OUTER_BOUND ( 'NONE', #283, .T. ) ;
#669 = VECTOR ( 'NONE', #915, 1000.000000000000000 ) ;
#670 = CARTESIAN_POINT ( 'NONE',  ( 4.633816407548270046E-32, 2.000000000000014211, 0.000000000000000000 ) ) ;
#671 = CIRCLE ( 'NONE', #241, 8.999999999999994671 ) ;
#672 = DIRECTION ( 'NONE',  ( 1.000000000000000000, -0.000000000000000000, -0.000000000000000000 ) ) ;
#673 = CARTESIAN_POINT ( 'NONE',  ( -11.50000000000000000, 3.999999999999993339, 0.000000000000000000 ) ) ;
#674 = AXIS2_PLACEMENT_3D ( 'NONE', #357, #350, #281 ) ;
#675 = EDGE_CURVE ( 'NONE', #358, #650, #2, .T. ) ;
#676 = DIRECTION ( 'NONE',  ( -0.000000000000000000, -0.000000000000000000, -1.000000000000000000 ) ) ;
#677 = DIRECTION ( 'NONE',  ( 0.8479983040050877996, -0.5299989400031803743, 0.000000000000000000 ) ) ;
#678 = LINE ( 'NONE', #673, #46 ) ;
#679 = LINE ( 'NONE', #24, #336 ) ;
#680 = EDGE_CURVE ( 'NONE', #61, #892, #742, .T. ) ;
#681 = ORIENTED_EDGE ( 'NONE', *, *, #244, .T. ) ;
#682 = DIRECTION ( 'NONE',  ( -0.000000000000000000, -1.000000000000000000, -0.000000000000000000 ) ) ;
#683 = CARTESIAN_POINT ( 'NONE',  ( -13.00000000000000000, 62.50000000000000000, 10.00000000000000000 ) ) ;
#684 = DIRECTION ( 'NONE',  ( 0.000000000000000000, -8.673617379884035472E-16, 1.000000000000000000 ) ) ;
#685 = ORIENTED_EDGE ( 'NONE', *, *, #599, .T. ) ;
#686 = AXIS2_PLACEMENT_3D ( 'NONE', #129, #869, #141 ) ;
#687 = PRODUCT_CONTEXT ( 'NONE', #496, 'mechanical' ) ;
#688 = ADVANCED_FACE ( 'NONE', ( #151 ), #82, .T. ) ;
#689 = AXIS2_PLACEMENT_3D ( 'NONE', #1044, #392, #642 ) ;
#690 = CARTESIAN_POINT ( 'NONE',  ( 5.994227550025245321, 54.50000166605907026, 3.999995834757352764 ) ) ;
#691 = AXIS2_PLACEMENT_3D ( 'NONE', #944, #950, #866 ) ;
#692 = CARTESIAN_POINT ( 'NONE',  ( -0.005772449974753013358, 54.50000166605907026, 3.999995834757357205 ) ) ;
#693 = LINE ( 'NONE', #207, #778 ) ;
#694 = VERTEX_POINT ( 'NONE', #237 ) ;
#695 = ADVANCED_FACE ( 'NONE', ( #312 ), #466, .F. ) ;
#696 = CARTESIAN_POINT ( 'NONE',  ( 5.994227550025242657, 49.50000166605907026, 3.999995834757351876 ) ) ;
#697 = DIRECTION ( 'NONE',  ( -0.000000000000000000, -0.000000000000000000, -1.000000000000000000 ) ) ;
#698 = ORIENTED_EDGE ( 'NONE', *, *, #732, .F. ) ;
#699 = DIRECTION ( 'NONE',  ( 3.469446951953619119E-16, 6.938893903907238238E-16, 1.000000000000000000 ) ) ;
#700 = DIRECTION ( 'NONE',  ( -1.000000000000000000, 0.000000000000000000, 0.000000000000000000 ) ) ;
#701 = CARTESIAN_POINT ( 'NONE',  ( -9.000000000000000000, 61.25000000000000000, 10.00000000000000000 ) ) ;
#702 = VERTEX_POINT ( 'NONE', #801 ) ;
#703 = DIRECTION ( 'NONE',  ( 6.687256751344767208E-33, -1.000000000000000000, 6.938893903907238238E-16 ) ) ;
#704 = VECTOR ( 'NONE', #441, 1000.000000000000000 ) ;
#705 = AXIS2_PLACEMENT_3D ( 'NONE', #771, #228, #1017 ) ;
#706 = ORIENTED_EDGE ( 'NONE', *, *, #930, .F. ) ;
#707 = CARTESIAN_POINT ( 'NONE',  ( 14.99422755002518493, 49.50000166605909868, 3.999995834757274604 ) ) ;
#708 = CLOSED_SHELL ( 'NONE', ( #531, #688, #279, #249, #643, #315, #1030, #16, #518, #809, #754, #551, #201, #106, #621, #455, #96, #818, #353, #333, #493, #291, #695, #722, #1007, #125, #1000, #170, #853, #770, #83, #145, #475 ) ) ;
#709 = CARTESIAN_POINT ( 'NONE',  ( 8.673617379884035472E-16, 64.50000000000000000, 10.00000000000000000 ) ) ;
#710 = CIRCLE ( 'NONE', #104, 4.000000000000000000 ) ;
#711 = EDGE_CURVE ( 'NONE', #977, #640, #810, .T. ) ;
#712 = ORIENTED_EDGE ( 'NONE', *, *, #930, .T. ) ;
#713 =( NAMED_UNIT ( * ) SI_UNIT ( $, .STERADIAN. ) SOLID_ANGLE_UNIT ( ) );
#714 = ORIENTED_EDGE ( 'NONE', *, *, #272, .F. ) ;
#715 = FACE_OUTER_BOUND ( 'NONE', #734, .T. ) ;
#716 = SURFACE_STYLE_FILL_AREA ( #798 ) ;
#717 = ORIENTED_EDGE ( 'NONE', *, *, #544, .F. ) ;
#718 = EDGE_LOOP ( 'NONE', ( #747, #560 ) ) ;
#719 = CARTESIAN_POINT ( 'NONE',  ( 5.994227550025252427, 11.99999833394093862, 3.999995834757352764 ) ) ;
#720 = CARTESIAN_POINT ( 'NONE',  ( -0.005772449974753013358, 54.50000166605907026, 3.999995834757357205 ) ) ;
#721 = ORIENTED_EDGE ( 'NONE', *, *, #889, .T. ) ;
#722 = ADVANCED_FACE ( 'NONE', ( #396 ), #1048, .T. ) ;
#723 = AXIS2_PLACEMENT_3D ( 'NONE', #62, #1024, #1029 ) ;
#724 = ORIENTED_EDGE ( 'NONE', *, *, #797, .T. ) ;
#725 = CARTESIAN_POINT ( 'NONE',  ( -11.00000000000000888, 64.50000000000000000, 10.00000000000000000 ) ) ;
#726 = VECTOR ( 'NONE', #775, 1000.000000000000000 ) ;
#727 = CIRCLE ( 'NONE', #586, 4.000000000000000000 ) ;
#728 = EDGE_LOOP ( 'NONE', ( #983, #698, #109, #246 ) ) ;
#729 =( GEOMETRIC_REPRESENTATION_CONTEXT ( 3 ) GLOBAL_UNCERTAINTY_ASSIGNED_CONTEXT ( ( #895 ) ) GLOBAL_UNIT_ASSIGNED_CONTEXT ( ( #1023, #533, #713 ) ) REPRESENTATION_CONTEXT ( 'NONE', 'WORKASPACE' ) );
#730 = VERTEX_POINT ( 'NONE', #887 ) ;
#731 = DIRECTION ( 'NONE',  ( -7.414106252077233804E-34, 1.000000000000000000, 0.000000000000000000 ) ) ;
#732 = EDGE_CURVE ( 'NONE', #554, #1039, #478, .T. ) ;
#733 = CARTESIAN_POINT ( 'NONE',  ( -2.000000000000000000, 64.50000000000000000, 10.00000000000000000 ) ) ;
#734 = EDGE_LOOP ( 'NONE', ( #232, #265, #200, #868, #777 ) ) ;
#735 = LINE ( 'NONE', #891, #916 ) ;
#736 = ORIENTED_EDGE ( 'NONE', *, *, #442, .T. ) ;
#737 = CARTESIAN_POINT ( 'NONE',  ( -13.00000000000000000, 2.000000000000012434, 0.000000000000000000 ) ) ;
#738 = EDGE_CURVE ( 'NONE', #97, #548, #948, .T. ) ;
#739 = ORIENTED_EDGE ( 'NONE', *, *, #823, .F. ) ;
#740 = ORIENTED_EDGE ( 'NONE', *, *, #328, .F. ) ;
#741 = LINE ( 'NONE', #347, #552 ) ;
#742 = CIRCLE ( 'NONE', #534, 2.000000000000000000 ) ;
#743 = UNCERTAINTY_MEASURE_WITH_UNIT (LENGTH_MEASURE( 1.000000000000000082E-05 ), #883, 'distance_accuracy_value', 'NONE');
#744 = CARTESIAN_POINT ( 'NONE',  ( -4.000000000000000000, 3.999999999999999112, 10.00000000000000000 ) ) ;
#745 = EDGE_CURVE ( 'NONE', #575, #316, #1054, .T. ) ;
#746 = CARTESIAN_POINT ( 'NONE',  ( -11.00000000000000000, 62.50000000000000000, 10.00000000000000000 ) ) ;
#747 = ORIENTED_EDGE ( 'NONE', *, *, #442, .F. ) ;
#748 = DIRECTION ( 'NONE',  ( 1.112291097817873449E-15, -1.000000000000000000, 8.673617379884027583E-16 ) ) ;
#749 = DIRECTION ( 'NONE',  ( -1.000000000000000000, 1.871675329343399246E-15, 2.206446526461693411E-16 ) ) ;
#750 = CARTESIAN_POINT ( 'NONE',  ( -13.00000000000001066, 64.50000000000000000, 0.000000000000000000 ) ) ;
#751 = DIRECTION ( 'NONE',  ( -0.7071067811865483499, -0.7071067811865465735, 0.000000000000000000 ) ) ;
#752 = LINE ( 'NONE', #577, #553 ) ;
#753 = LINE ( 'NONE', #123, #32 ) ;
#754 = ADVANCED_FACE ( 'NONE', ( #661 ), #112, .F. ) ;
#755 = DIRECTION ( 'NONE',  ( 1.000000000000000000, 3.469446951953614189E-15, 0.000000000000000000 ) ) ;
#756 = EDGE_LOOP ( 'NONE', ( #571, #390, #453, #963 ) ) ;
#757 = VECTOR ( 'NONE', #641, 1000.000000000000000 ) ;
#758 = CARTESIAN_POINT ( 'NONE',  ( -2.000000000000014655, -4.336808689942017736E-16, 10.00000000000000000 ) ) ;
#759 = DIRECTION ( 'NONE',  ( -0.7071067811865483499, -0.7071067811865465735, 0.000000000000000000 ) ) ;
#760 = VECTOR ( 'NONE', #108, 1000.000000000000000 ) ;
#761 = CARTESIAN_POINT ( 'NONE',  ( -0.005772449974743183547, 11.99999833394093862, 7.999995834757356761 ) ) ;
#762 = EDGE_CURVE ( 'NONE', #650, #314, #483, .T. ) ;
#763 = CIRCLE ( 'NONE', #954, 4.000000000000000000 ) ;
#764 = CARTESIAN_POINT ( 'NONE',  ( -13.00000000000001066, 64.50000000000000000, 10.00000000000000000 ) ) ;
#765 = DIRECTION ( 'NONE',  ( 1.000000000000000000, 1.734723475976807094E-15, 0.000000000000000000 ) ) ;
#766 = VERTEX_POINT ( 'NONE', #670 ) ;
#767 = CARTESIAN_POINT ( 'NONE',  ( 10.99422755002526841, 16.99999833394091198, 3.999995834757379853 ) ) ;
#768 = CARTESIAN_POINT ( 'NONE',  ( -9.000000000000000000, 61.25000000000000000, 10.00000000000000000 ) ) ;
#769 = CARTESIAN_POINT ( 'NONE',  ( -13.00000000000000000, 1.999999999999998224, 0.000000000000000000 ) ) ;
#770 = ADVANCED_FACE ( 'NONE', ( #275 ), #593, .T. ) ;
#771 = CARTESIAN_POINT ( 'NONE',  ( -11.00000000000000000, 1.999999999999998224, 10.00000000000000000 ) ) ;
#772 = ORIENTED_EDGE ( 'NONE', *, *, #8, .F. ) ;
#773 = DIRECTION ( 'NONE',  ( 1.000000000000000000, 0.000000000000000000, 0.000000000000000000 ) ) ;
#774 = LINE ( 'NONE', #785, #704 ) ;
#775 = DIRECTION ( 'NONE',  ( -0.000000000000000000, -0.000000000000000000, -1.000000000000000000 ) ) ;
#776 = CIRCLE ( 'NONE', #914, 0.9999999999999870104 ) ;
#777 = ORIENTED_EDGE ( 'NONE', *, *, #569, .F. ) ;
#778 = VECTOR ( 'NONE', #639, 1000.000000000000000 ) ;
#779 = DIRECTION ( 'NONE',  ( -0.000000000000000000, -0.000000000000000000, -1.000000000000000000 ) ) ;
#780 = CARTESIAN_POINT ( 'NONE',  ( -9.000000000000000000, 62.50000000000000000, 0.000000000000000000 ) ) ;
#781 = AXIS2_PLACEMENT_3D ( 'NONE', #139, #144, #528 ) ;
#782 = FACE_OUTER_BOUND ( 'NONE', #332, .T. ) ;
#783 = ORIENTED_EDGE ( 'NONE', *, *, #178, .F. ) ;
#784 = CARTESIAN_POINT ( 'NONE',  ( 0.000000000000000000, 0.000000000000000000, 0.000000000000000000 ) ) ;
#785 = CARTESIAN_POINT ( 'NONE',  ( -11.00000000000000000, 61.25000000000000000, 10.00000000000000000 ) ) ;
#786 = CARTESIAN_POINT ( 'NONE',  ( -4.000000000000000000, 3.999999999999999112, 10.00000000000000000 ) ) ;
#787 = ORIENTED_EDGE ( 'NONE', *, *, #394, .T. ) ;
#788 = ORIENTED_EDGE ( 'NONE', *, *, #1040, .F. ) ;
#789 = FACE_OUTER_BOUND ( 'NONE', #304, .T. ) ;
#790 = EDGE_CURVE ( 'NONE', #608, #556, #1032, .T. ) ;
#791 = DIRECTION ( 'NONE',  ( -0.000000000000000000, -0.000000000000000000, -1.000000000000000000 ) ) ;
#792 = ORIENTED_EDGE ( 'NONE', *, *, #487, .T. ) ;
#793 = APPLICATION_PROTOCOL_DEFINITION ( 'draft international standard', 'automotive_design', 1998, #496 ) ;
#794 = CIRCLE ( 'NONE', #203, 3.999999999999996447 ) ;
#795 = ORIENTED_EDGE ( 'NONE', *, *, #436, .T. ) ;
#796 = DIRECTION ( 'NONE',  ( 0.000000000000000000, -1.000000000000000000, 0.000000000000000000 ) ) ;
#797 = EDGE_CURVE ( 'NONE', #250, #815, #185, .T. ) ;
#798 = FILL_AREA_STYLE ('',( #468 ) ) ;
#799 = VERTEX_POINT ( 'NONE', #280 ) ;
#800 = ORIENTED_EDGE ( 'NONE', *, *, #378, .F. ) ;
#801 = CARTESIAN_POINT ( 'NONE',  ( -11.00000000000000000, 61.25000000000000000, 10.00000000000000000 ) ) ;
#802 = DIRECTION ( 'NONE',  ( -2.116523576951684944E-15, 1.000000000000000000, 1.084202172485505420E-15 ) ) ;
#803 = ORIENTED_EDGE ( 'NONE', *, *, #656, .T. ) ;
#804 = EDGE_CURVE ( 'NONE', #567, #410, #574, .T. ) ;
#805 = VERTEX_POINT ( 'NONE', #181 ) ;
#806 = DIRECTION ( 'NONE',  ( 1.000000000000000000, 0.000000000000000000, -0.000000000000000000 ) ) ;
#807 = PRESENTATION_STYLE_ASSIGNMENT (( #238 ) ) ;
#808 = ORIENTED_EDGE ( 'NONE', *, *, #302, .T. ) ;
#809 = ADVANCED_FACE ( 'NONE', ( #15 ), #830, .F. ) ;
#810 = CIRCLE ( 'NONE', #879, 4.000000000000000000 ) ;
#811 = ORIENTED_EDGE ( 'NONE', *, *, #211, .F. ) ;
#812 = CARTESIAN_POINT ( 'NONE',  ( -9.000000000000000000, 61.25000000000000000, 10.00000000000000000 ) ) ;
#813 = FACE_OUTER_BOUND ( 'NONE', #48, .T. ) ;
#814 = AXIS2_PLACEMENT_3D ( 'NONE', #894, #479, #979 ) ;
#815 = VERTEX_POINT ( 'NONE', #107 ) ;
#816 = VECTOR ( 'NONE', #276, 1000.000000000000000 ) ;
#817 = VERTEX_POINT ( 'NONE', #423 ) ;
#818 = ADVANCED_FACE ( 'NONE', ( #864 ), #612, .T. ) ;
#819 = CARTESIAN_POINT ( 'NONE',  ( -11.00000000000000000, 61.25000000000000000, 10.00000000000000000 ) ) ;
#820 = ORIENTED_EDGE ( 'NONE', *, *, #117, .T. ) ;
#821 = ORIENTED_EDGE ( 'NONE', *, *, #131, .T. ) ;
#822 = DIRECTION ( 'NONE',  ( 5.204170427930416550E-15, -1.000000000000000000, 0.000000000000000000 ) ) ;
#823 = EDGE_CURVE ( 'NONE', #54, #414, #693, .T. ) ;
#824 = ORIENTED_EDGE ( 'NONE', *, *, #328, .T. ) ;
#825 = CARTESIAN_POINT ( 'NONE',  ( -11.00000000000000000, 61.25000000000000000, 10.00000000000000000 ) ) ;
#826 = ORIENTED_EDGE ( 'NONE', *, *, #937, .F. ) ;
#827 = CARTESIAN_POINT ( 'NONE',  ( 10.99422755002524710, 16.99999833394091908, -4.165242620431108822E-06 ) ) ;
#828 = AXIS2_PLACEMENT_3D ( 'NONE', #725, #317, #806 ) ;
#829 = PLANE ( 'NONE',  #504 ) ;
#830 = PLANE ( 'NONE',  #28 ) ;
#831 = VECTOR ( 'NONE', #50, 1000.000000000000000 ) ;
#832 = CARTESIAN_POINT ( 'NONE',  ( -13.00000000000000000, 2.499999999999997335, 10.00000000000000000 ) ) ;
#833 = ORIENTED_EDGE ( 'NONE', *, *, #823, .T. ) ;
#834 = CARTESIAN_POINT ( 'NONE',  ( -0.003022400266280367721, 54.49972932244123314, -2.185472902167225307E-06 ) ) ;
#835 = CARTESIAN_POINT ( 'NONE',  ( -9.000000000000000000, 61.25000000000000000, 0.000000000000000000 ) ) ;
#836 = EDGE_CURVE ( 'NONE', #730, #901, #735, .T. ) ;
#837 = LINE ( 'NONE', #44, #489 ) ;
#838 = DIRECTION ( 'NONE',  ( -1.000000000000000000, -1.224646799147353454E-16, 0.000000000000000000 ) ) ;
#839 = EDGE_LOOP ( 'NONE', ( #559, #389, #284, #329 ) ) ;
#840 = EDGE_CURVE ( 'NONE', #206, #471, #307, .T. ) ;
#841 = LINE ( 'NONE', #600, #1057 ) ;
#842 = CARTESIAN_POINT ( 'NONE',  ( 10.99422755002518493, 49.50000166605908447, 3.999995834757274604 ) ) ;
#843 = CARTESIAN_POINT ( 'NONE',  ( -2.000000000000000444, 66.50000000000000000, 0.000000000000000000 ) ) ;
#844 = AXIS2_PLACEMENT_3D ( 'NONE', #1014, #373, #931 ) ;
#845 = CIRCLE ( 'NONE', #102, 0.9999999999999940048 ) ;
#846 = DIRECTION ( 'NONE',  ( -0.000000000000000000, -0.000000000000000000, -1.000000000000000000 ) ) ;
#847 = CIRCLE ( 'NONE', #781, 3.999999999999996447 ) ;
#848 = EDGE_CURVE ( 'NONE', #240, #1036, #902, .T. ) ;
#849 = PLANE ( 'NONE',  #900 ) ;
#850 = EDGE_LOOP ( 'NONE', ( #177, #93, #772, #492 ) ) ;
#851 = DIRECTION ( 'NONE',  ( -7.414106252077233804E-34, 1.000000000000000000, 0.000000000000000000 ) ) ;
#852 = LINE ( 'NONE', #945, #319 ) ;
#853 = ADVANCED_FACE ( 'NONE', ( #430 ), #198, .F. ) ;
#854 = DIRECTION ( 'NONE',  ( 8.673617379884027583E-16, 1.000000000000000000, 8.673617379884027583E-16 ) ) ;
#855 = ORIENTED_EDGE ( 'NONE', *, *, #924, .T. ) ;
#856 = DIRECTION ( 'NONE',  ( 7.414106252077234660E-34, -1.000000000000000000, 0.000000000000000000 ) ) ;
#857 = LINE ( 'NONE', #618, #1019 ) ;
#858 = CIRCLE ( 'NONE', #118, 3.999999999999996447 ) ;
#859 = ORIENTED_EDGE ( 'NONE', *, *, #412, .T. ) ;
#860 = CARTESIAN_POINT ( 'NONE',  ( -4.000000000000005329, 66.50000000000000000, 10.00000000000000000 ) ) ;
#861 = MECHANICAL_DESIGN_GEOMETRIC_PRESENTATION_REPRESENTATION (  '', ( #321 ), #919 ) ;
#862 = PLANE ( 'NONE',  #99 ) ;
#863 = DIRECTION ( 'NONE',  ( -0.000000000000000000, -0.000000000000000000, -1.000000000000000000 ) ) ;
#864 = FACE_OUTER_BOUND ( 'NONE', #259, .T. ) ;
#865 = ORIENTED_EDGE ( 'NONE', *, *, #648, .T. ) ;
#866 = DIRECTION ( 'NONE',  ( 1.000000000000000000, 3.469446951953614189E-15, 0.000000000000000000 ) ) ;
#867 = EDGE_CURVE ( 'NONE', #608, #877, #33, .T. ) ;
#868 = ORIENTED_EDGE ( 'NONE', *, *, #244, .F. ) ;
#869 = DIRECTION ( 'NONE',  ( -2.739037067331802793E-15, -1.000000000000000000, -1.369518533665901396E-15 ) ) ;
#870 = CARTESIAN_POINT ( 'NONE',  ( -13.00000000000001066, 64.50000000000000000, 10.00000000000000000 ) ) ;
#871 = ORIENTED_EDGE ( 'NONE', *, *, #675, .T. ) ;
#872 = DIRECTION ( 'NONE',  ( 1.000000000000000000, 0.000000000000000000, -0.000000000000000000 ) ) ;
#873 = EDGE_CURVE ( 'NONE', #1039, #817, #202, .T. ) ;
#874 = ORIENTED_EDGE ( 'NONE', *, *, #711, .F. ) ;
#875 = DIRECTION ( 'NONE',  ( 0.000000000000000000, 0.000000000000000000, 1.000000000000000000 ) ) ;
#876 = CYLINDRICAL_SURFACE ( 'NONE', #601, 4.000000000000000000 ) ;
#877 = VERTEX_POINT ( 'NONE', #587 ) ;
#878 = DIRECTION ( 'NONE',  ( 1.000000000000000000, 0.000000000000000000, 0.000000000000000000 ) ) ;
#879 = AXIS2_PLACEMENT_3D ( 'NONE', #719, #74, #975 ) ;
#880 = ORIENTED_EDGE ( 'NONE', *, *, #867, .F. ) ;
#881 = CYLINDRICAL_SURFACE ( 'NONE', #1051, 4.000000000000000000 ) ;
#882 = CIRCLE ( 'NONE', #689, 4.000000000000000000 ) ;
#883 =( LENGTH_UNIT ( ) NAMED_UNIT ( * ) SI_UNIT ( .MILLI., .METRE. ) );
#884 = EDGE_CURVE ( 'NONE', #375, #360, #763, .T. ) ;
#885 = ORIENTED_EDGE ( 'NONE', *, *, #711, .T. ) ;
#886 = ORIENTED_EDGE ( 'NONE', *, *, #164, .F. ) ;
#887 = CARTESIAN_POINT ( 'NONE',  ( -11.50000000000000000, 3.999999999999993339, 10.00000000000000000 ) ) ;
#888 = SURFACE_SIDE_STYLE ('',( #716 ) ) ;
#889 = EDGE_CURVE ( 'NONE', #491, #406, #837, .T. ) ;
#890 = ORIENTED_EDGE ( 'NONE', *, *, #840, .T. ) ;
#891 = CARTESIAN_POINT ( 'NONE',  ( -11.50000000000000000, 3.999999999999993339, 10.00000000000000000 ) ) ;
#892 = VERTEX_POINT ( 'NONE', #113 ) ;
#893 = DIRECTION ( 'NONE',  ( -3.469446951953620598E-16, 6.938893903907237252E-16, -1.000000000000000000 ) ) ;
#894 = CARTESIAN_POINT ( 'NONE',  ( -0.005772449974746074464, 11.99999833394093862, 3.999995834757357205 ) ) ;
#895 = UNCERTAINTY_MEASURE_WITH_UNIT (LENGTH_MEASURE( 1.000000000000000082E-05 ), #1023, 'distance_accuracy_value', 'NONE');
#896 = ORIENTED_EDGE ( 'NONE', *, *, #1025, .F. ) ;
#897 = VECTOR ( 'NONE', #79, 1000.000000000000000 ) ;
#898 = ORIENTED_EDGE ( 'NONE', *, *, #836, .T. ) ;
#899 = CYLINDRICAL_SURFACE ( 'NONE', #568, 2.000000000000000000 ) ;
#900 = AXIS2_PLACEMENT_3D ( 'NONE', #928, #121, #437 ) ;
#901 = VERTEX_POINT ( 'NONE', #517 ) ;
#902 = CIRCLE ( 'NONE', #674, 2.000000000000000000 ) ;
#903 = EDGE_CURVE ( 'NONE', #236, #358, #34, .T. ) ;
#904 = ORIENTED_EDGE ( 'NONE', *, *, #436, .F. ) ;
#905 = CARTESIAN_POINT ( 'NONE',  ( -2.000000000000000000, 1.999999999999999556, 0.000000000000000000 ) ) ;
#906 = ORIENTED_EDGE ( 'NONE', *, *, #4, .T. ) ;
#907 = CARTESIAN_POINT ( 'NONE',  ( 6.994227550025242657, 49.50000166605906315, 3.999995834757350099 ) ) ;
#908 = ORIENTED_EDGE ( 'NONE', *, *, #917, .F. ) ;
#909 = DIRECTION ( 'NONE',  ( 0.7071067811865483499, 0.7071067811865465735, 0.000000000000000000 ) ) ;
#910 = DIRECTION ( 'NONE',  ( 1.000000000000000000, 0.000000000000000000, 0.000000000000000000 ) ) ;
#911 = DIRECTION ( 'NONE',  ( 0.000000000000000000, 0.000000000000000000, 1.000000000000000000 ) ) ;
#912 = DIRECTION ( 'NONE',  ( 1.000000000000000000, 3.469446951953614189E-15, 0.000000000000000000 ) ) ;
#913 = ORIENTED_EDGE ( 'NONE', *, *, #21, .T. ) ;
#914 = AXIS2_PLACEMENT_3D ( 'NONE', #696, #147, #525 ) ;
#915 = DIRECTION ( 'NONE',  ( -0.000000000000000000, -0.000000000000000000, -1.000000000000000000 ) ) ;
#916 = VECTOR ( 'NONE', #759, 1000.000000000000114 ) ;
#917 = EDGE_CURVE ( 'NONE', #892, #1036, #209, .T. ) ;
#918 = CARTESIAN_POINT ( 'NONE',  ( -13.00000000000000000, 1.999999999999998224, 10.00000000000000000 ) ) ;
#919 =( GEOMETRIC_REPRESENTATION_CONTEXT ( 3 ) GLOBAL_UNCERTAINTY_ASSIGNED_CONTEXT ( ( #743 ) ) GLOBAL_UNIT_ASSIGNED_CONTEXT ( ( #883, #972, #80 ) ) REPRESENTATION_CONTEXT ( 'NONE', 'WORKASPACE' ) );
#920 = CIRCLE ( 'NONE', #486, 4.000000000000000000 ) ;
#921 = DIRECTION ( 'NONE',  ( -2.739037067331802793E-15, -1.000000000000000000, -1.369518533665901396E-15 ) ) ;
#922 = CARTESIAN_POINT ( 'NONE',  ( -2.000000000000000444, 66.50000000000000000, 0.000000000000000000 ) ) ;
#923 = LINE ( 'NONE', #343, #485 ) ;
#924 = EDGE_CURVE ( 'NONE', #157, #206, #753, .T. ) ;
#925 = CARTESIAN_POINT ( 'NONE',  ( 10.99422755002524354, 49.50000166605907026, 3.999995834757349211 ) ) ;
#926 = DIRECTION ( 'NONE',  ( 1.000000000000000000, -0.000000000000000000, -0.000000000000000000 ) ) ;
#927 = CARTESIAN_POINT ( 'NONE',  ( -2.000000000000014211, -2.449293598294724657E-16, 0.000000000000000000 ) ) ;
#928 = CARTESIAN_POINT ( 'NONE',  ( -13.00000000000000000, 2.000000000000012434, 10.00000000000000000 ) ) ;
#929 = DIRECTION ( 'NONE',  ( 1.000000000000000000, -2.602085213965210642E-15, 0.000000000000000000 ) ) ;
#930 = EDGE_CURVE ( 'NONE', #799, #375, #173, .T. ) ;
#931 = DIRECTION ( 'NONE',  ( 6.687256751344739839E-33, 1.000000000000000000, 6.938893903907237252E-16 ) ) ;
#932 = DIRECTION ( 'NONE',  ( 1.000000000000000000, 0.000000000000000000, 0.000000000000000000 ) ) ;
#933 = TOROIDAL_SURFACE ( 'NONE', #844, 4.999999999999990230, 4.000000000000000000 ) ;
#934 = ORIENTED_EDGE ( 'NONE', *, *, #1025, .T. ) ;
#935 = VECTOR ( 'NONE', #432, 1000.000000000000000 ) ;
#936 = CARTESIAN_POINT ( 'NONE',  ( -0.005772449974753013358, 54.50000166605907026, 3.999995834757357205 ) ) ;
#937 = EDGE_CURVE ( 'NONE', #316, #163, #285, .T. ) ;
#938 = FACE_OUTER_BOUND ( 'NONE', #500, .T. ) ;
#939 = FACE_OUTER_BOUND ( 'NONE', #59, .T. ) ;
#940 = ORIENTED_EDGE ( 'NONE', *, *, #539, .F. ) ;
#941 = FACE_OUTER_BOUND ( 'NONE', #393, .T. ) ;
#942 = DIRECTION ( 'NONE',  ( -1.000000000000000000, -8.095376221225100103E-16, 0.000000000000000000 ) ) ;
#943 = ORIENTED_EDGE ( 'NONE', *, *, #399, .T. ) ;
#944 = CARTESIAN_POINT ( 'NONE',  ( 10.99422755002524532, 47.50000166605907026, 3.999995834757350988 ) ) ;
#945 = CARTESIAN_POINT ( 'NONE',  ( -9.000000000000000000, 62.50000000000000000, 10.00000000000000000 ) ) ;
#946 = DIRECTION ( 'NONE',  ( 0.000000000000000000, 0.000000000000000000, 1.000000000000000000 ) ) ;
#947 = EDGE_CURVE ( 'NONE', #406, #89, #22, .T. ) ;
#948 = CIRCLE ( 'NONE', #516, 8.999999999999994671 ) ;
#949 = VERTEX_POINT ( 'NONE', #666 ) ;
#950 = DIRECTION ( 'NONE',  ( -2.983966427161273484E-15, 1.000000000000000000, -1.369518533665901396E-15 ) ) ;
#951 = AXIS2_PLACEMENT_3D ( 'NONE', #537, #463, #684 ) ;
#952 = CARTESIAN_POINT ( 'NONE',  ( -2.000000000000000000, 64.50000000000000000, 0.000000000000000000 ) ) ;
#953 = DIRECTION ( 'NONE',  ( 0.000000000000000000, 1.000000000000000000, -0.000000000000000000 ) ) ;
#954 = AXIS2_PLACEMENT_3D ( 'NONE', #116, #921, #929 ) ;
#955 = ORIENTED_EDGE ( 'NONE', *, *, #848, .T. ) ;
#956 = EDGE_CURVE ( 'NONE', #892, #250, #841, .T. ) ;
#957 = CARTESIAN_POINT ( 'NONE',  ( -11.00000000000000888, 64.50000000000000000, 0.000000000000000000 ) ) ;
#958 = ORIENTED_EDGE ( 'NONE', *, *, #152, .T. ) ;
#959 = CARTESIAN_POINT ( 'NONE',  ( 10.99422755002524710, 16.99999833394093685, 3.999995834757349211 ) ) ;
#960 = FACE_OUTER_BOUND ( 'NONE', #476, .T. ) ;
#961 = ORIENTED_EDGE ( 'NONE', *, *, #272, .T. ) ;
#962 = EDGE_CURVE ( 'NONE', #567, #548, #920, .T. ) ;
#963 = ORIENTED_EDGE ( 'NONE', *, *, #917, .T. ) ;
#964 = DIRECTION ( 'NONE',  ( -1.000000000000000000, 0.000000000000000000, 0.000000000000000000 ) ) ;
#965 = CYLINDRICAL_SURFACE ( 'NONE', #388, 4.000000000000000000 ) ;
#966 = ORIENTED_EDGE ( 'NONE', *, *, #385, .T. ) ;
#967 = VECTOR ( 'NONE', #520, 1000.000000000000000 ) ;
#968 = AXIS2_PLACEMENT_3D ( 'NONE', #192, #655, #510 ) ;
#969 = ORIENTED_EDGE ( 'NONE', *, *, #302, .F. ) ;
#970 = CARTESIAN_POINT ( 'NONE',  ( 5.994227550025244433, 54.50000166605907026, -4.165242647319322700E-06 ) ) ;
#971 = AXIS2_PLACEMENT_3D ( 'NONE', #733, #1056, #3 ) ;
#972 =( NAMED_UNIT ( * ) PLANE_ANGLE_UNIT ( ) SI_UNIT ( $, .RADIAN. ) );
#973 = ORIENTED_EDGE ( 'NONE', *, *, #680, .F. ) ;
#974 = ORIENTED_EDGE ( 'NONE', *, *, #956, .T. ) ;
#975 = DIRECTION ( 'NONE',  ( -1.951563910473907981E-15, -1.000000000000000000, 1.084202172485504434E-15 ) ) ;
#976 = DIRECTION ( 'NONE',  ( 1.000000000000000000, 1.734723475976807094E-15, 0.000000000000000000 ) ) ;
#977 = VERTEX_POINT ( 'NONE', #445 ) ;
#978 = ORIENTED_EDGE ( 'NONE', *, *, #804, .F. ) ;
#979 = DIRECTION ( 'NONE',  ( -7.227308622447317643E-16, 0.000000000000000000, -1.000000000000000000 ) ) ;
#980 = VERTEX_POINT ( 'NONE', #1004 ) ;
#981 = EDGE_CURVE ( 'NONE', #61, #240, #366, .T. ) ;
#982 = CIRCLE ( 'NONE', #686, 4.000000000000000000 ) ;
#983 = ORIENTED_EDGE ( 'NONE', *, *, #36, .T. ) ;
#984 = LINE ( 'NONE', #737, #434 ) ;
#985 = COLOUR_RGB ( '',0.7921568627450980005, 0.8196078431372548767, 0.9333333333333333481 ) ;
#986 = VERTEX_POINT ( 'NONE', #579 ) ;
#987 = EDGE_CURVE ( 'NONE', #901, #694, #505, .T. ) ;
#988 = VERTEX_POINT ( 'NONE', #425 ) ;
#989 = DIRECTION ( 'NONE',  ( 0.000000000000000000, 0.000000000000000000, 1.000000000000000000 ) ) ;
#990 = ORIENTED_EDGE ( 'NONE', *, *, #993, .T. ) ;
#991 = CARTESIAN_POINT ( 'NONE',  ( -13.00000000000000000, 1.999999999999998224, 10.00000000000000000 ) ) ;
#992 = VERTEX_POINT ( 'NONE', #750 ) ;
#993 = EDGE_CURVE ( 'NONE', #182, #805, #570, .T. ) ;
#994 = PLANE ( 'NONE',  #598 ) ;
#995 = PLANE ( 'NONE',  #654 ) ;
#996 = DIRECTION ( 'NONE',  ( 1.112291097817873449E-15, -1.000000000000000000, 8.673617379884027583E-16 ) ) ;
#997 = DIRECTION ( 'NONE',  ( -2.739037067331802793E-15, -1.000000000000000000, -1.369518533665901396E-15 ) ) ;
#998 = CIRCLE ( 'NONE', #403, 2.000000000000000000 ) ;
#999 = DIRECTION ( 'NONE',  ( 0.7071067811865466846, -0.7071067811865484609, 0.000000000000000000 ) ) ;
#1000 = ADVANCED_FACE ( 'NONE', ( #540 ), #555, .T. ) ;
#1001 = VECTOR ( 'NONE', #697, 1000.000000000000000 ) ;
#1002 = DIRECTION ( 'NONE',  ( -0.000000000000000000, -1.000000000000000000, -0.000000000000000000 ) ) ;
#1003 = VECTOR ( 'NONE', #119, 1000.000000000000000 ) ;
#1004 = CARTESIAN_POINT ( 'NONE',  ( 10.99422755002524710, 18.99999833394094395, -4.165242649054046176E-06 ) ) ;
#1005 = DIRECTION ( 'NONE',  ( -1.000000000000000000, -8.095376221225100103E-16, 0.000000000000000000 ) ) ;
#1006 = ORIENTED_EDGE ( 'NONE', *, *, #385, .F. ) ;
#1007 = ADVANCED_FACE ( 'NONE', ( #150 ), #298, .F. ) ;
#1008 = DIRECTION ( 'NONE',  ( -2.116523576951684944E-15, 1.000000000000000000, 1.084202172485505420E-15 ) ) ;
#1009 = DIRECTION ( 'NONE',  ( -1.000000000000000000, -2.116604689172870331E-15, 2.206446526461691439E-16 ) ) ;
#1010 = LINE ( 'NONE', #348, #935 ) ;
#1011 = ORIENTED_EDGE ( 'NONE', *, *, #790, .F. ) ;
#1012 = EDGE_CURVE ( 'NONE', #471, #608, #376, .T. ) ;
#1013 = DIRECTION ( 'NONE',  ( -1.000000000000000000, -2.116604689172870331E-15, 2.206446526461691439E-16 ) ) ;
#1014 = CARTESIAN_POINT ( 'NONE',  ( 5.994227550025242657, 49.50000166605907026, 3.999995834757350988 ) ) ;
#1015 = LINE ( 'NONE', #701, #726 ) ;
#1016 = VECTOR ( 'NONE', #1005, 1000.000000000000000 ) ;
#1017 = DIRECTION ( 'NONE',  ( -1.000000000000000000, 0.000000000000000000, 0.000000000000000000 ) ) ;
#1018 = ORIENTED_EDGE ( 'NONE', *, *, #962, .F. ) ;
#1019 = VECTOR ( 'NONE', #289, 1000.000000000000000 ) ;
#1020 = DIRECTION ( 'NONE',  ( 1.000000000000000000, 0.000000000000000000, 0.000000000000000000 ) ) ;
#1021 = DIRECTION ( 'NONE',  ( 1.000000000000000000, 0.000000000000000000, 0.000000000000000000 ) ) ;
#1022 = ORIENTED_EDGE ( 'NONE', *, *, #656, .F. ) ;
#1023 =( LENGTH_UNIT ( ) NAMED_UNIT ( * ) SI_UNIT ( .MILLI., .METRE. ) );
#1024 = DIRECTION ( 'NONE',  ( -2.739037067331802793E-15, -1.000000000000000000, -1.369518533665901396E-15 ) ) ;
#1025 = EDGE_CURVE ( 'NONE', #314, #382, #847, .T. ) ;
#1026 = CARTESIAN_POINT ( 'NONE',  ( 5.994227550025253315, 11.99999833394093862, 7.999995834757353208 ) ) ;
#1027 = ORIENTED_EDGE ( 'NONE', *, *, #762, .T. ) ;
#1028 = CYLINDRICAL_SURFACE ( 'NONE', #122, 2.000000000000001776 ) ;
#1029 = DIRECTION ( 'NONE',  ( 1.000000000000000000, -2.602085213965210642E-15, 0.000000000000000000 ) ) ;
#1030 = ADVANCED_FACE ( 'NONE', ( #472 ), #1028, .T. ) ;
#1031 = CYLINDRICAL_SURFACE ( 'NONE', #136, 4.000000000000000000 ) ;
#1032 = CIRCLE ( 'NONE', #387, 2.000000000000001776 ) ;
#1033 = EDGE_LOOP ( 'NONE', ( #337, #630, #155, #562 ) ) ;
#1034 = CARTESIAN_POINT ( 'NONE',  ( -11.00000000000000888, 64.50000000000000000, 10.00000000000000000 ) ) ;
#1035 = AXIS2_PLACEMENT_3D ( 'NONE', #767, #997, #40 ) ;
#1036 = VERTEX_POINT ( 'NONE', #230 ) ;
#1037 = PLANE ( 'NONE',  #239 ) ;
#1038 = CARTESIAN_POINT ( 'NONE',  ( -0.005772449974746074464, 11.99999833394093862, 3.999995834757357205 ) ) ;
#1039 = VERTEX_POINT ( 'NONE', #372 ) ;
#1040 = EDGE_CURVE ( 'NONE', #564, #980, #710, .T. ) ;
#1041 = CARTESIAN_POINT ( 'NONE',  ( 5.994227550025252427, 11.99999833394093862, 3.999995834757352764 ) ) ;
#1042 = EDGE_LOOP ( 'NONE', ( #597, #538, #543, #943, #685, #90, #644, #252, #906, #477, #898, #224, #409, #974, #821, #855, #890 ) ) ;
#1043 = DIRECTION ( 'NONE',  ( 8.673617379884027583E-16, 1.000000000000000000, 8.673617379884027583E-16 ) ) ;
#1044 = CARTESIAN_POINT ( 'NONE',  ( -0.005772449974746074464, 11.99999833394093862, 3.999995834757357205 ) ) ;
#1045 = ORIENTED_EDGE ( 'NONE', *, *, #184, .F. ) ;
#1046 = EDGE_CURVE ( 'NONE', #410, #320, #140, .T. ) ;
#1047 = EDGE_LOOP ( 'NONE', ( #714, #874, #740, #325, #235, #256 ) ) ;
#1048 = PLANE ( 'NONE',  #828 ) ;
#1049 = CARTESIAN_POINT ( 'NONE',  ( -2.000000000000000000, 1.999999999999999556, 10.00000000000000000 ) ) ;
#1050 = ORIENTED_EDGE ( 'NONE', *, *, #745, .F. ) ;
#1051 = AXIS2_PLACEMENT_3D ( 'NONE', #959, #1043, #550 ) ;
#1052 = CIRCLE ( 'NONE', #205, 2.000000000000000000 ) ;
#1053 = ORIENTED_EDGE ( 'NONE', *, *, #178, .T. ) ;
#1054 = LINE ( 'NONE', #812, #65 ) ;
#1055 = AXIS2_PLACEMENT_3D ( 'NONE', #23, #183, #838 ) ;
#1056 = DIRECTION ( 'NONE',  ( -0.000000000000000000, -0.000000000000000000, -1.000000000000000000 ) ) ;
#1057 = VECTOR ( 'NONE', #25, 1000.000000000000000 ) ;
#1058 = ORIENTED_EDGE ( 'NONE', *, *, #56, .T. ) ;
ENDSEC;
END-ISO-10303-21;
