ISO-10303-21;
HEADER;
FILE_DESCRIPTION (( 'STEP AP214' ),
    '1' );
FILE_NAME ('Cord Clip 2.STEP',
    '2024-11-27T23:57:09',
    ( '' ),
    ( '' ),
    'SwSTEP 2.0',
    'SolidWorks 2024',
    '' );
FILE_SCHEMA (( 'AUTOMOTIVE_DESIGN' ));
ENDSEC;

DATA;
#1 = CARTESIAN_POINT ( 'NONE',  ( -3.000000000000000000, 3.673940397442059868E-16, -9.000000000000001776 ) ) ;
#2 = APPLICATION_PROTOCOL_DEFINITION ( 'draft international standard', 'automotive_design', 1998, #1146 ) ;
#3 = ORIENTED_EDGE ( 'NONE', *, *, #796, .F. ) ;
#4 = PRODUCT ( 'Cord Clip 2', 'Cord Clip 2', '', ( #1108 ) ) ;
#5 = DIRECTION ( 'NONE',  ( 1.000000000000000000, 0.000000000000000000, 0.000000000000000000 ) ) ;
#6 = DIRECTION ( 'NONE',  ( 0.000000000000000000, -1.000000000000000000, 0.000000000000000000 ) ) ;
#7 = VERTEX_POINT ( 'NONE', #155 ) ;
#8 = CARTESIAN_POINT ( 'NONE',  ( 8.000000000000000000, 0.000000000000000000, -6.000000000000000888 ) ) ;
#9 =( NAMED_UNIT ( * ) PLANE_ANGLE_UNIT ( ) SI_UNIT ( $, .RADIAN. ) );
#10 = EDGE_LOOP ( 'NONE', ( #810, #1072, #724, #555, #852, #1037 ) ) ;
#11 = LINE ( 'NONE', #1229, #694 ) ;
#12 = CARTESIAN_POINT ( 'NONE',  ( 11.16143782776614835, 1.499999999999996891, -5.133536959265120991 ) ) ;
#13 = ORIENTED_EDGE ( 'NONE', *, *, #870, .F. ) ;
#14 = ADVANCED_FACE ( 'NONE', ( #653 ), #839, .T. ) ;
#15 = LINE ( 'NONE', #1009, #362 ) ;
#16 =( GEOMETRIC_REPRESENTATION_CONTEXT ( 3 ) GLOBAL_UNCERTAINTY_ASSIGNED_CONTEXT ( ( #359 ) ) GLOBAL_UNIT_ASSIGNED_CONTEXT ( ( #436, #834, #1056 ) ) REPRESENTATION_CONTEXT ( 'NONE', 'WORKASPACE' ) );
#17 = CARTESIAN_POINT ( 'NONE',  ( 10.16143782776614835, -1.500000000000000000, -5.000000000000000888 ) ) ;
#18 = EDGE_LOOP ( 'NONE', ( #629, #538, #69, #195, #777, #516, #237, #742, #245 ) ) ;
#19 = CARTESIAN_POINT ( 'NONE',  ( 9.451429940904157334, 1.500000000000000444, -0.5786946607943135312 ) ) ;
#20 = VECTOR ( 'NONE', #135, 1000.000000000000000 ) ;
#21 = DIRECTION ( 'NONE',  ( 0.000000000000000000, 0.000000000000000000, 1.000000000000000000 ) ) ;
#22 = ORIENTED_EDGE ( 'NONE', *, *, #1107, .T. ) ;
#23 = EDGE_CURVE ( 'NONE', #1275, #1139, #837, .T. ) ;
#24 = ORIENTED_EDGE ( 'NONE', *, *, #598, .F. ) ;
#25 = DIRECTION ( 'NONE',  ( 1.000000000000000000, 0.000000000000000000, 0.000000000000000000 ) ) ;
#26 = CARTESIAN_POINT ( 'NONE',  ( 8.000000000000000000, 0.000000000000000000, 0.000000000000000000 ) ) ;
#27 = VERTEX_POINT ( 'NONE', #33 ) ;
#28 = ADVANCED_FACE ( 'NONE', ( #1049 ), #1238, .T. ) ;
#29 = ORIENTED_EDGE ( 'NONE', *, *, #217, .T. ) ;
#30 = CARTESIAN_POINT ( 'NONE',  ( 10.66143782776614657, 1.125000000000000222, -0.006130302267793284743 ) ) ;
#31 = ADVANCED_FACE ( 'NONE', ( #1232 ), #941, .T. ) ;
#32 = ORIENTED_EDGE ( 'NONE', *, *, #235, .F. ) ;
#33 = CARTESIAN_POINT ( 'NONE',  ( 12.00000000000000000, 0.000000000000000000, -6.000000000000000888 ) ) ;
#34 = CARTESIAN_POINT ( 'NONE',  ( 0.000000000000000000, -3.749999999999998224, -10.00000000000000000 ) ) ;
#35 = ADVANCED_FACE ( 'NONE', ( #454 ), #855, .T. ) ;
#36 = AXIS2_PLACEMENT_3D ( 'NONE', #521, #408, #25 ) ;
#37 = ADVANCED_FACE ( 'NONE', ( #540 ), #614, .T. ) ;
#38 = CARTESIAN_POINT ( 'NONE',  ( 0.000000000000000000, 3.750000000000001776, 0.000000000000000000 ) ) ;
#39 = VERTEX_POINT ( 'NONE', #342 ) ;
#40 = VECTOR ( 'NONE', #959, 1000.000000000000114 ) ;
#41 = CARTESIAN_POINT ( 'NONE',  ( 0.000000000000000000, -4.000000000000000000, -10.00000000000000000 ) ) ;
#42 = DIRECTION ( 'NONE',  ( 1.000000000000000000, 0.000000000000000000, 0.000000000000000000 ) ) ;
#43 = EDGE_CURVE ( 'NONE', #1023, #379, #165, .T. ) ;
#44 = ORIENTED_EDGE ( 'NONE', *, *, #557, .F. ) ;
#45 = VECTOR ( 'NONE', #809, 1000.000000000000000 ) ;
#46 = EDGE_CURVE ( 'NONE', #1228, #1183, #1059, .T. ) ;
#47 = CARTESIAN_POINT ( 'NONE',  ( 10.16143782776614835, -1.500000000000000000, -5.070596828328917560 ) ) ;
#48 = CARTESIAN_POINT ( 'NONE',  ( 12.00000000000000000, 0.000000000000000000, -10.00000000000000000 ) ) ;
#49 = CYLINDRICAL_SURFACE ( 'NONE', #500, 4.000000000000000000 ) ;
#50 = ORIENTED_EDGE ( 'NONE', *, *, #870, .T. ) ;
#51 = EDGE_CURVE ( 'NONE', #705, #220, #158, .T. ) ;
#52 = DIRECTION ( 'NONE',  ( 0.000000000000000000, -1.000000000000000000, 0.000000000000000000 ) ) ;
#53 = CARTESIAN_POINT ( 'NONE',  ( 8.000000000000000000, 0.000000000000000000, -6.000000000000000888 ) ) ;
#54 = FACE_OUTER_BOUND ( 'NONE', #130, .T. ) ;
#55 = EDGE_LOOP ( 'NONE', ( #393, #239, #825, #545 ) ) ;
#56 = ORIENTED_EDGE ( 'NONE', *, *, #367, .T. ) ;
#57 = VECTOR ( 'NONE', #737, 1000.000000000000000 ) ;
#58 = EDGE_CURVE ( 'NONE', #772, #1197, #1177, .T. ) ;
#59 = DIRECTION ( 'NONE',  ( 0.000000000000000000, 0.000000000000000000, 1.000000000000000000 ) ) ;
#60 = FACE_OUTER_BOUND ( 'NONE', #822, .T. ) ;
#61 = CARTESIAN_POINT ( 'NONE',  ( 10.00000000000000000, 0.000000000000000000, -6.000000000000000888 ) ) ;
#62 = EDGE_LOOP ( 'NONE', ( #1218, #859, #953, #467, #411 ) ) ;
#63 = TOROIDAL_SURFACE ( 'NONE', #903, 3.000000000000000000, 1.000000000000000000 ) ;
#64 = DIRECTION ( 'NONE',  ( 1.000000000000000000, 0.000000000000000000, 0.000000000000000000 ) ) ;
#65 = CARTESIAN_POINT ( 'NONE',  ( 11.03020539631509678, -2.611102306717008936, -0.2500000000000002220 ) ) ;
#66 = CARTESIAN_POINT ( 'NONE',  ( 10.32773108752722635, 1.375280055179192162, -5.044582782876387839 ) ) ;
#67 = ORIENTED_EDGE ( 'NONE', *, *, #938, .T. ) ;
#68 = CARTESIAN_POINT ( 'NONE',  ( 0.000000000000000000, -3.750000000000001776, 0.000000000000000000 ) ) ;
#69 = ORIENTED_EDGE ( 'NONE', *, *, #163, .T. ) ;
#70 = CARTESIAN_POINT ( 'NONE',  ( 11.16143782776615012, -1.500000000000000444, -5.000000000000000888 ) ) ;
#71 = DIRECTION ( 'NONE',  ( 0.000000000000000000, -0.000000000000000000, -1.000000000000000000 ) ) ;
#72 = CARTESIAN_POINT ( 'NONE',  ( 11.26491574288577979, -1.700663602128977159, -5.236965189007602994 ) ) ;
#73 = EDGE_CURVE ( 'NONE', #596, #1023, #177, .T. ) ;
#74 = ORIENTED_EDGE ( 'NONE', *, *, #743, .T. ) ;
#75 = CARTESIAN_POINT ( 'NONE',  ( 0.000000000000000000, 0.000000000000000000, -10.00000000000000000 ) ) ;
#76 = ORIENTED_EDGE ( 'NONE', *, *, #889, .T. ) ;
#77 = AXIS2_PLACEMENT_3D ( 'NONE', #464, #864, #274 ) ;
#78 = CARTESIAN_POINT ( 'NONE',  ( 9.676514343603860979, -1.500000000000000666, -5.332687669362357497 ) ) ;
#79 = B_SPLINE_CURVE_WITH_KNOTS ( 'NONE', 3,
 ( #1202, #327, #508, #232 ),
 .UNSPECIFIED., .F., .F.,
 ( 4, 4 ),
 ( 2.124593680485184732E-18, 0.0005303907072778614364 ),
 .UNSPECIFIED. ) ;
#80 = CIRCLE ( 'NONE', #1030, 2.000000000000000000 ) ;
#81 = CARTESIAN_POINT ( 'NONE',  ( 8.000000000000000000, 0.000000000000000000, -0.9999999999999991118 ) ) ;
#82 = FACE_OUTER_BOUND ( 'NONE', #62, .T. ) ;
#83 = AXIS2_PLACEMENT_3D ( 'NONE', #518, #1010, #395 ) ;
#84 = DIRECTION ( 'NONE',  ( -0.000000000000000000, 0.000000000000000000, 1.000000000000000000 ) ) ;
#85 = EDGE_LOOP ( 'NONE', ( #309, #893, #175, #306, #916, #263 ) ) ;
#86 = DIRECTION ( 'NONE',  ( -0.000000000000000000, 0.000000000000000000, 1.000000000000000000 ) ) ;
#87 = ADVANCED_FACE ( 'NONE', ( #1278 ), #981, .T. ) ;
#88 = VECTOR ( 'NONE', #553, 1000.000000000000000 ) ;
#89 = DIRECTION ( 'NONE',  ( -0.000000000000000000, 0.000000000000000000, 1.000000000000000000 ) ) ;
#90 = EDGE_CURVE ( 'NONE', #1282, #1016, #460, .T. ) ;
#91 = PLANE ( 'NONE',  #1064 ) ;
#92 = CARTESIAN_POINT ( 'NONE',  ( 0.000000000000000000, 3.749999999999998224, -10.00000000000000000 ) ) ;
#93 = EDGE_LOOP ( 'NONE', ( #945, #250, #733, #682 ) ) ;
#94 = FACE_OUTER_BOUND ( 'NONE', #543, .T. ) ;
#95 = EDGE_CURVE ( 'NONE', #1139, #642, #189, .T. ) ;
#96 = DIRECTION ( 'NONE',  ( -0.000000000000000000, -0.000000000000000000, 1.000000000000000000 ) ) ;
#97 = DIRECTION ( 'NONE',  ( 0.000000000000000000, -1.000000000000000000, 0.000000000000000000 ) ) ;
#98 = VERTEX_POINT ( 'NONE', #1066 ) ;
#99 = AXIS2_PLACEMENT_3D ( 'NONE', #364, #441, #350 ) ;
#100 = DIRECTION ( 'NONE',  ( -0.000000000000000000, 0.000000000000000000, 1.000000000000000000 ) ) ;
#101 = CARTESIAN_POINT ( 'NONE',  ( 8.000000000000000000, 0.000000000000000000, -0.9999999999999991118 ) ) ;
#102 = ORIENTED_EDGE ( 'NONE', *, *, #743, .F. ) ;
#103 = B_SPLINE_CURVE_WITH_KNOTS ( 'NONE', 3,
 ( #1266, #72, #688, #1069, #280, #964, #985, #1083 ),
 .UNSPECIFIED., .F., .F.,
 ( 4, 2, 2, 4 ),
 ( 0.000000000000000000, 0.0007327600847412858720, 0.001099140127111928157, 0.001465520169482570660 ),
 .UNSPECIFIED. ) ;
#104 = CIRCLE ( 'NONE', #230, 3.750000000000003553 ) ;
#105 = DIRECTION ( 'NONE',  ( 0.000000000000000000, -0.7071067811865451302, -0.7071067811865500152 ) ) ;
#106 = LINE ( 'NONE', #824, #57 ) ;
#107 = VERTEX_POINT ( 'NONE', #292 ) ;
#108 = CARTESIAN_POINT ( 'NONE',  ( 8.000000000000000000, 0.000000000000000000, 0.000000000000000000 ) ) ;
#109 = ADVANCED_FACE ( 'NONE', ( #381 ), #787, .F. ) ;
#110 = DIRECTION ( 'NONE',  ( 0.000000000000000000, -1.000000000000000000, 0.000000000000000000 ) ) ;
#111 = ORIENTED_EDGE ( 'NONE', *, *, #656, .F. ) ;
#112 = DIRECTION ( 'NONE',  ( -0.000000000000000000, -0.7071067811865475727, -0.7071067811865475727 ) ) ;
#113 = CARTESIAN_POINT ( 'NONE',  ( 0.000000000000000000, 4.000000000000000000, -10.00000000000000000 ) ) ;
#114 = ORIENTED_EDGE ( 'NONE', *, *, #637, .F. ) ;
#115 = FACE_OUTER_BOUND ( 'NONE', #1041, .T. ) ;
#116 = VERTEX_POINT ( 'NONE', #568 ) ;
#117 = CARTESIAN_POINT ( 'NONE',  ( 8.000000000000000000, 0.000000000000000000, -9.749999999999998224 ) ) ;
#118 = EDGE_CURVE ( 'NONE', #642, #819, #874, .T. ) ;
#119 = CARTESIAN_POINT ( 'NONE',  ( 2.000000000000000000, 0.000000000000000000, -0.9999999999999991118 ) ) ;
#120 = ORIENTED_EDGE ( 'NONE', *, *, #848, .F. ) ;
#121 = DIRECTION ( 'NONE',  ( 1.000000000000000000, 0.000000000000000000, 0.000000000000000000 ) ) ;
#122 = VECTOR ( 'NONE', #949, 1000.000000000000000 ) ;
#123 = ORIENTED_EDGE ( 'NONE', *, *, #409, .F. ) ;
#124 = TOROIDAL_SURFACE ( 'NONE', #417, 2.999999999999999556, 1.000000000000000000 ) ;
#125 = EDGE_CURVE ( 'NONE', #453, #39, #577, .T. ) ;
#126 = CARTESIAN_POINT ( 'NONE',  ( 9.755194641478396989, 1.500000000000000888, -0.2537983696949792090 ) ) ;
#127 = AXIS2_PLACEMENT_3D ( 'NONE', #644, #1051, #1251 ) ;
#128 = EDGE_CURVE ( 'NONE', #772, #149, #366, .T. ) ;
#129 = CARTESIAN_POINT ( 'NONE',  ( 11.03020539631509500, 2.611102306717008936, -6.000000000000000888 ) ) ;
#130 = EDGE_LOOP ( 'NONE', ( #815, #853, #1007, #252, #531 ) ) ;
#131 = AXIS2_PLACEMENT_3D ( 'NONE', #612, #907, #1205 ) ;
#132 = ORIENTED_EDGE ( 'NONE', *, *, #699, .F. ) ;
#133 = CARTESIAN_POINT ( 'NONE',  ( 8.000000000000000000, 0.000000000000000000, -9.749999999999998224 ) ) ;
#134 = AXIS2_PLACEMENT_3D ( 'NONE', #81, #89, #570 ) ;
#135 = DIRECTION ( 'NONE',  ( 1.000000000000000000, 0.000000000000000000, 0.000000000000000000 ) ) ;
#136 = ORIENTED_EDGE ( 'NONE', *, *, #966, .T. ) ;
#137 = EDGE_CURVE ( 'NONE', #755, #453, #1193, .T. ) ;
#138 = ORIENTED_EDGE ( 'NONE', *, *, #46, .T. ) ;
#139 = DIRECTION ( 'NONE',  ( 0.000000000000000000, 0.000000000000000000, 1.000000000000000000 ) ) ;
#140 = CARTESIAN_POINT ( 'NONE',  ( 9.322875655532293138, -1.500000000000001554, -6.000000000000000888 ) ) ;
#141 = VERTEX_POINT ( 'NONE', #867 ) ;
#142 = ORIENTED_EDGE ( 'NONE', *, *, #58, .T. ) ;
#143 = CARTESIAN_POINT ( 'NONE',  ( 8.000000000000000000, 4.000000000000000000, -0.2500000000000002220 ) ) ;
#144 = TOROIDAL_SURFACE ( 'NONE', #99, 2.999999999999999556, 1.000000000000000000 ) ;
#145 = FILL_AREA_STYLE ('',( #554 ) ) ;
#146 = EDGE_LOOP ( 'NONE', ( #721, #1046, #123, #728 ) ) ;
#147 = B_SPLINE_CURVE_WITH_KNOTS ( 'NONE', 3,
 ( #1112, #219, #333, #609 ),
 .UNSPECIFIED., .F., .F.,
 ( 4, 4 ),
 ( 2.518906325832732177E-07, 0.0006285678405679842639 ),
 .UNSPECIFIED. ) ;
#148 = EDGE_CURVE ( 'NONE', #800, #1121, #104, .T. ) ;
#149 = VERTEX_POINT ( 'NONE', #597 ) ;
#150 = CARTESIAN_POINT ( 'NONE',  ( 2.000000000000000000, 0.000000000000000000, -10.00000000000000000 ) ) ;
#151 = CARTESIAN_POINT ( 'NONE',  ( 0.000000000000000000, 0.000000000000000000, -10.00000000000000000 ) ) ;
#152 = EDGE_CURVE ( 'NONE', #710, #1028, #1191, .T. ) ;
#153 = VERTEX_POINT ( 'NONE', #975 ) ;
#154 = CIRCLE ( 'NONE', #257, 2.000000000000000000 ) ;
#155 = CARTESIAN_POINT ( 'NONE',  ( 11.03020539631509678, -2.611102306717008936, -0.2500000000000002220 ) ) ;
#156 = DIRECTION ( 'NONE',  ( 1.000000000000000000, 0.000000000000000000, 0.000000000000000000 ) ) ;
#157 = EDGE_LOOP ( 'NONE', ( #494, #565, #785, #1301 ) ) ;
#158 = LINE ( 'NONE', #562, #40 ) ;
#159 = CARTESIAN_POINT ( 'NONE',  ( 0.000000000000000000, 3.750000000000001776, 0.000000000000000000 ) ) ;
#160 = CARTESIAN_POINT ( 'NONE',  ( 10.16143782776614835, 1.500000000000000444, -5.070596828328917560 ) ) ;
#161 = CIRCLE ( 'NONE', #314, 1.000000000000000888 ) ;
#162 = ORIENTED_EDGE ( 'NONE', *, *, #533, .T. ) ;
#163 = EDGE_CURVE ( 'NONE', #1227, #1197, #731, .T. ) ;
#164 = CARTESIAN_POINT ( 'NONE',  ( 3.298117617995811823, 4.397490157327751170, -5.000000000000000888 ) ) ;
#165 = CIRCLE ( 'NONE', #1008, 3.749999999999998224 ) ;
#166 = CARTESIAN_POINT ( 'NONE',  ( 0.000000000000000000, 0.000000000000000000, -0.2500000000000002220 ) ) ;
#167 = LINE ( 'NONE', #1281, #1235 ) ;
#168 = ORIENTED_EDGE ( 'NONE', *, *, #1244, .F. ) ;
#169 = VECTOR ( 'NONE', #726, 1000.000000000000000 ) ;
#170 = LINE ( 'NONE', #68, #1095 ) ;
#171 = CARTESIAN_POINT ( 'NONE',  ( 10.66143782776614657, 1.125000000000000222, -5.006130302267794541 ) ) ;
#172 = EDGE_CURVE ( 'NONE', #705, #596, #952, .T. ) ;
#173 = FACE_OUTER_BOUND ( 'NONE', #1231, .T. ) ;
#174 = DIRECTION ( 'NONE',  ( 0.000000000000000000, 0.000000000000000000, -1.000000000000000000 ) ) ;
#175 = ORIENTED_EDGE ( 'NONE', *, *, #90, .F. ) ;
#176 = LINE ( 'NONE', #898, #459 ) ;
#177 = LINE ( 'NONE', #989, #234 ) ;
#178 = CARTESIAN_POINT ( 'NONE',  ( 11.27173532836540382, -2.103167820371810048, -0.1372046608815435109 ) ) ;
#179 = CARTESIAN_POINT ( 'NONE',  ( 11.03020539631509500, 2.611102306717008936, -6.000000000000000888 ) ) ;
#180 = CIRCLE ( 'NONE', #127, 2.000000000000000000 ) ;
#181 = CARTESIAN_POINT ( 'NONE',  ( 0.000000000000000000, 4.000000000000000000, -0.2500000000000002220 ) ) ;
#182 = EDGE_CURVE ( 'NONE', #1018, #618, #910, .T. ) ;
#183 = ORIENTED_EDGE ( 'NONE', *, *, #1161, .T. ) ;
#184 = AXIS2_PLACEMENT_3D ( 'NONE', #1165, #1187, #1090 ) ;
#185 = CARTESIAN_POINT ( 'NONE',  ( 9.451377230269741858, -1.500000000000000666, -5.578998669628635554 ) ) ;
#186 = ADVANCED_FACE ( 'NONE', ( #115 ), #495, .F. ) ;
#187 = STYLED_ITEM ( 'NONE', ( #841 ), #590 ) ;
#188 = CARTESIAN_POINT ( 'NONE',  ( 0.000000000000000000, 4.000000000000000000, -9.749999999999998224 ) ) ;
#189 = B_SPLINE_CURVE_WITH_KNOTS ( 'NONE', 3,
 ( #968, #368, #880, #1163, #78, #1073, #185, #264, #698, #474 ),
 .UNSPECIFIED., .F., .F.,
 ( 4, 2, 2, 2, 4 ),
 ( 0.000000000000000000, 0.0003299191525009980731, 0.0006598383050019961463, 0.0009897574575029942194, 0.001319676610003992293 ),
 .UNSPECIFIED. ) ;
#190 = DIRECTION ( 'NONE',  ( 1.000000000000000000, 0.000000000000000000, 0.000000000000000000 ) ) ;
#191 = DIRECTION ( 'NONE',  ( 1.000000000000000000, 0.000000000000000000, 0.000000000000000000 ) ) ;
#192 = EDGE_CURVE ( 'NONE', #642, #755, #334, .T. ) ;
#193 = CIRCLE ( 'NONE', #462, 1.000000000000000000 ) ;
#194 = B_SPLINE_CURVE_WITH_KNOTS ( 'NONE', 3,
 ( #979, #480, #879, #1283 ),
 .UNSPECIFIED., .F., .F.,
 ( 4, 4 ),
 ( 0.000000000000000000, 0.0005304687337965291591 ),
 .UNSPECIFIED. ) ;
#195 = ORIENTED_EDGE ( 'NONE', *, *, #969, .T. ) ;
#196 = DIRECTION ( 'NONE',  ( 1.000000000000000000, 0.000000000000000000, 0.000000000000000000 ) ) ;
#197 = CARTESIAN_POINT ( 'NONE',  ( 9.519097288563674653, 1.500000000000000222, -0.4902243993234307040 ) ) ;
#198 = DIRECTION ( 'NONE',  ( -0.000000000000000000, 0.000000000000000000, 1.000000000000000000 ) ) ;
#199 = EDGE_LOOP ( 'NONE', ( #13, #766, #627, #413 ) ) ;
#200 = CARTESIAN_POINT ( 'NONE',  ( 10.75247078846567383, -1.193274720524641452, -5.000000000000000888 ) ) ;
#201 = CARTESIAN_POINT ( 'NONE',  ( 8.000000000000000000, 4.000000000000000000, -0.2500000000000002220 ) ) ;
#202 = ORIENTED_EDGE ( 'NONE', *, *, #1212, .F. ) ;
#203 = CARTESIAN_POINT ( 'NONE',  ( 9.322875655532293138, -1.500000000000000888, -0.9999999999999991118 ) ) ;
#204 = PLANE ( 'NONE',  #918 ) ;
#205 = ORIENTED_EDGE ( 'NONE', *, *, #1060, .T. ) ;
#206 = CIRCLE ( 'NONE', #1277, 3.000000000000000000 ) ;
#207 = CARTESIAN_POINT ( 'NONE',  ( 0.000000000000000000, -4.000000000000000000, -9.749999999999998224 ) ) ;
#208 = CARTESIAN_POINT ( 'NONE',  ( 11.19509789707131908, 2.368413868244034326, -0.2250336496632863170 ) ) ;
#209 = ORIENTED_EDGE ( 'NONE', *, *, #125, .F. ) ;
#210 = PLANE ( 'NONE',  #544 ) ;
#211 = CARTESIAN_POINT ( 'NONE',  ( 9.322875655532293138, 1.500000000000000444, -6.000000000000000888 ) ) ;
#212 = ORIENTED_EDGE ( 'NONE', *, *, #1082, .F. ) ;
#213 = DIRECTION ( 'NONE',  ( -1.000000000000000000, 0.000000000000000000, 0.000000000000000000 ) ) ;
#214 = CARTESIAN_POINT ( 'NONE',  ( 11.12639847533723980, 2.499469458631651708, -0.2500000000000000555 ) ) ;
#215 = AXIS2_PLACEMENT_3D ( 'NONE', #1159, #976, #1081 ) ;
#216 = ORIENTED_EDGE ( 'NONE', *, *, #332, .T. ) ;
#217 = EDGE_CURVE ( 'NONE', #226, #933, #444, .T. ) ;
#218 = DIRECTION ( 'NONE',  ( 0.000000000000000000, 0.000000000000000000, 1.000000000000000000 ) ) ;
#219 = CARTESIAN_POINT ( 'NONE',  ( 10.32773112351381606, -1.375280028189249659, -0.04458277724701045081 ) ) ;
#220 = VERTEX_POINT ( 'NONE', #1106 ) ;
#221 = DIRECTION ( 'NONE',  ( -1.000000000000000000, 1.224646799147352961E-16, 0.000000000000000000 ) ) ;
#222 = VERTEX_POINT ( 'NONE', #207 ) ;
#223 = CARTESIAN_POINT ( 'NONE',  ( 10.00000000000000000, 0.000000000000000000, -9.000000000000001776 ) ) ;
#224 = FACE_OUTER_BOUND ( 'NONE', #1116, .T. ) ;
#225 = AXIS2_PLACEMENT_3D ( 'NONE', #915, #803, #121 ) ;
#226 = VERTEX_POINT ( 'NONE', #1295 ) ;
#227 = EDGE_CURVE ( 'NONE', #107, #1275, #684, .T. ) ;
#228 = ORIENTED_EDGE ( 'NONE', *, *, #912, .T. ) ;
#229 = CARTESIAN_POINT ( 'NONE',  ( 11.16143782776614835, 1.499999999999996891, -5.133536959265120991 ) ) ;
#230 = AXIS2_PLACEMENT_3D ( 'NONE', #582, #1270, #490 ) ;
#231 = AXIS2_PLACEMENT_3D ( 'NONE', #574, #798, #297 ) ;
#232 = CARTESIAN_POINT ( 'NONE',  ( 10.75247078846567383, -1.193274720524641452, -5.000000000000000888 ) ) ;
#233 = ORIENTED_EDGE ( 'NONE', *, *, #780, .T. ) ;
#234 = VECTOR ( 'NONE', #284, 1000.000000000000000 ) ;
#235 = EDGE_CURVE ( 'NONE', #1162, #473, #1175, .T. ) ;
#236 = VECTOR ( 'NONE', #399, 1000.000000000000114 ) ;
#237 = ORIENTED_EDGE ( 'NONE', *, *, #434, .F. ) ;
#238 = CYLINDRICAL_SURFACE ( 'NONE', #660, 2.000000000000000000 ) ;
#239 = ORIENTED_EDGE ( 'NONE', *, *, #637, .T. ) ;
#240 = DIRECTION ( 'NONE',  ( -1.000000000000000000, 0.000000000000000000, 0.000000000000000000 ) ) ;
#241 = EDGE_CURVE ( 'NONE', #965, #579, #569, .T. ) ;
#242 = CARTESIAN_POINT ( 'NONE',  ( 8.000000000000000000, 0.000000000000000000, -10.00000000000000000 ) ) ;
#243 = ORIENTED_EDGE ( 'NONE', *, *, #995, .T. ) ;
#244 = ADVANCED_FACE ( 'NONE', ( #94 ), #405, .T. ) ;
#245 = ORIENTED_EDGE ( 'NONE', *, *, #1297, .F. ) ;
#246 = EDGE_CURVE ( 'NONE', #426, #107, #1199, .T. ) ;
#247 = CARTESIAN_POINT ( 'NONE',  ( 0.000000000000000000, 4.000000000000000000, -0.2500000000000002220 ) ) ;
#248 = AXIS2_PLACEMENT_3D ( 'NONE', #1180, #672, #295 ) ;
#249 = SURFACE_SIDE_STYLE ('',( #1149 ) ) ;
#250 = ORIENTED_EDGE ( 'NONE', *, *, #95, .T. ) ;
#251 = TOROIDAL_SURFACE ( 'NONE', #962, 3.000000000000000888, 1.000000000000000000 ) ;
#252 = ORIENTED_EDGE ( 'NONE', *, *, #780, .F. ) ;
#253 = CARTESIAN_POINT ( 'NONE',  ( 0.000000000000000000, 0.000000000000000000, -9.749999999999998224 ) ) ;
#254 = EDGE_CURVE ( 'NONE', #748, #153, #1211, .T. ) ;
#255 = CARTESIAN_POINT ( 'NONE',  ( 8.000000000000000000, -4.000000000000000000, -9.749999999999998224 ) ) ;
#256 = ORIENTED_EDGE ( 'NONE', *, *, #576, .F. ) ;
#257 = AXIS2_PLACEMENT_3D ( 'NONE', #279, #71, #1075 ) ;
#258 = B_SPLINE_CURVE_WITH_KNOTS ( 'NONE', 3,
 ( #591, #1164, #1280, #1067, #961, #782 ),
 .UNSPECIFIED., .F., .F.,
 ( 4, 2, 4 ),
 ( 0.000000000000000000, 0.0006613462318473202527, 0.001322692463694640505 ),
 .UNSPECIFIED. ) ;
#259 = DIRECTION ( 'NONE',  ( 1.000000000000000000, 0.000000000000000000, 0.000000000000000000 ) ) ;
#260 = CARTESIAN_POINT ( 'NONE',  ( 8.000000000000000000, 4.000000000000000000, -10.00000000000000000 ) ) ;
#261 = EDGE_CURVE ( 'NONE', #222, #615, #15, .T. ) ;
#262 = CARTESIAN_POINT ( 'NONE',  ( -3.000000000000000000, 3.673940397442059868E-16, -0.9999999999999991118 ) ) ;
#263 = ORIENTED_EDGE ( 'NONE', *, *, #520, .T. ) ;
#264 = CARTESIAN_POINT ( 'NONE',  ( 9.352632469122614367, -1.500000000000000666, -5.777374324736166855 ) ) ;
#265 = CARTESIAN_POINT ( 'NONE',  ( 10.16143782776614835, 1.500000000000000444, -0.07059682832909891514 ) ) ;
#266 = AXIS2_PLACEMENT_3D ( 'NONE', #730, #917, #823 ) ;
#267 = ORIENTED_EDGE ( 'NONE', *, *, #344, .F. ) ;
#268 = CARTESIAN_POINT ( 'NONE',  ( 0.000000000000000000, -3.750000000000001776, 0.000000000000000000 ) ) ;
#269 = EDGE_CURVE ( 'NONE', #1189, #1016, #894, .T. ) ;
#270 = DIRECTION ( 'NONE',  ( 0.000000000000000000, -0.000000000000000000, -1.000000000000000000 ) ) ;
#271 = AXIS2_PLACEMENT_3D ( 'NONE', #439, #1239, #240 ) ;
#272 = PRODUCT_DEFINITION_SHAPE ( 'NONE', 'NONE',  #749 ) ;
#273 = DIRECTION ( 'NONE',  ( 1.000000000000000000, 0.000000000000000000, 0.000000000000000000 ) ) ;
#274 = DIRECTION ( 'NONE',  ( 1.000000000000000000, 0.000000000000000000, 0.000000000000000000 ) ) ;
#275 = ORIENTED_EDGE ( 'NONE', *, *, #1118, .F. ) ;
#276 = PLANE ( 'NONE',  #422 ) ;
#277 = TOROIDAL_SURFACE ( 'NONE', #884, 3.000000000000000000, 1.000000000000000000 ) ;
#278 = CARTESIAN_POINT ( 'NONE',  ( 9.322875655532293138, 1.500000000000000444, -5.000000000000000888 ) ) ;
#279 = CARTESIAN_POINT ( 'NONE',  ( 8.000000000000000000, 0.000000000000000000, -9.000000000000001776 ) ) ;
#280 = CARTESIAN_POINT ( 'NONE',  ( 11.22029478089867105, -2.291085769155171370, -5.680534474818251134 ) ) ;
#281 = CARTESIAN_POINT ( 'NONE',  ( 4.378117617995810562, -5.837490157327750673, -5.000000000000000888 ) ) ;
#282 = ORIENTED_EDGE ( 'NONE', *, *, #833, .F. ) ;
#283 = ADVANCED_FACE ( 'NONE', ( #604 ), #532, .T. ) ;
#284 = DIRECTION ( 'NONE',  ( -1.000000000000000000, 0.000000000000000000, -0.000000000000000000 ) ) ;
#285 = DIRECTION ( 'NONE',  ( -1.000000000000000000, 0.000000000000000000, 0.000000000000000000 ) ) ;
#286 = EDGE_CURVE ( 'NONE', #141, #972, #1001, .T. ) ;
#287 = FACE_OUTER_BOUND ( 'NONE', #523, .T. ) ;
#288 = AXIS2_PLACEMENT_3D ( 'NONE', #1176, #97, #1182 ) ;
#289 = CARTESIAN_POINT ( 'NONE',  ( 0.000000000000000000, 0.000000000000000000, 0.000000000000000000 ) ) ;
#290 = ORIENTED_EDGE ( 'NONE', *, *, #663, .F. ) ;
#291 = AXIS2_PLACEMENT_3D ( 'NONE', #869, #1288, #391 ) ;
#292 = CARTESIAN_POINT ( 'NONE',  ( 10.75247078846567383, -1.193274720524641452, -5.000000000000000888 ) ) ;
#293 = CIRCLE ( 'NONE', #655, 3.750000000000000000 ) ;
#294 = LINE ( 'NONE', #201, #1036 ) ;
#295 = DIRECTION ( 'NONE',  ( 0.8000000000000002665, 0.5999999999999997558, 0.000000000000000000 ) ) ;
#296 = ADVANCED_FACE ( 'NONE', ( #1122 ), #63, .T. ) ;
#297 = DIRECTION ( 'NONE',  ( 1.000000000000000000, 0.000000000000000000, 0.000000000000000000 ) ) ;
#298 = AXIS2_PLACEMENT_3D ( 'NONE', #1196, #986, #866 ) ;
#299 = ORIENTED_EDGE ( 'NONE', *, *, #593, .T. ) ;
#300 = CARTESIAN_POINT ( 'NONE',  ( 0.000000000000000000, 4.000000000000000000, -10.00000000000000000 ) ) ;
#301 = AXIS2_PLACEMENT_3D ( 'NONE', #166, #376, #775 ) ;
#302 = CARTESIAN_POINT ( 'NONE',  ( 11.27475746559836445, 1.969891235064967105, -0.07113695901268300703 ) ) ;
#303 = VERTEX_POINT ( 'NONE', #711 ) ;
#304 = ADVANCED_FACE ( 'NONE', ( #628 ), #380, .F. ) ;
#305 = CARTESIAN_POINT ( 'NONE',  ( 8.000000000000000000, -3.749999999999999112, -10.00000000000000000 ) ) ;
#306 = ORIENTED_EDGE ( 'NONE', *, *, #525, .T. ) ;
#307 = DIRECTION ( 'NONE',  ( 1.000000000000000000, 0.000000000000000000, 0.000000000000000000 ) ) ;
#308 = DIRECTION ( 'NONE',  ( 0.000000000000000000, 0.000000000000000000, -1.000000000000000000 ) ) ;
#309 = ORIENTED_EDGE ( 'NONE', *, *, #1038, .T. ) ;
#310 = FACE_OUTER_BOUND ( 'NONE', #458, .T. ) ;
#311 = CARTESIAN_POINT ( 'NONE',  ( 11.26491006491671598, 1.700652591453653883, -5.236959513764835705 ) ) ;
#312 = EDGE_LOOP ( 'NONE', ( #1135, #1210, #1129, #168 ) ) ;
#313 = ADVANCED_FACE ( 'NONE', ( #886 ), #386, .F. ) ;
#314 = AXIS2_PLACEMENT_3D ( 'NONE', #601, #326, #1299 ) ;
#315 = DIRECTION ( 'NONE',  ( -0.000000000000000000, 0.000000000000000000, 1.000000000000000000 ) ) ;
#316 = SHAPE_DEFINITION_REPRESENTATION ( #272, #882 ) ;
#317 = ORIENTED_EDGE ( 'NONE', *, *, #1145, .F. ) ;
#318 = CIRCLE ( 'NONE', #231, 2.000000000000000000 ) ;
#319 = CARTESIAN_POINT ( 'NONE',  ( 9.351977129282040835, 1.500000000000000222, -0.7788902029469781940 ) ) ;
#320 = FACE_OUTER_BOUND ( 'NONE', #479, .T. ) ;
#321 = ORIENTED_EDGE ( 'NONE', *, *, #703, .F. ) ;
#322 = CARTESIAN_POINT ( 'NONE',  ( 10.66143782776614657, -1.125000000000000222, -5.006130302267794541 ) ) ;
#323 = DIRECTION ( 'NONE',  ( -1.000000000000000000, 0.000000000000000000, 0.000000000000000000 ) ) ;
#324 = CIRCLE ( 'NONE', #134, 2.000000000000000000 ) ;
#325 = VERTEX_POINT ( 'NONE', #1276 ) ;
#326 = DIRECTION ( 'NONE',  ( -0.000000000000000000, 0.000000000000000000, 1.000000000000000000 ) ) ;
#327 = CARTESIAN_POINT ( 'NONE',  ( 11.03646860128676543, -1.406273080140461262, -5.045333397092118588 ) ) ;
#328 = ORIENTED_EDGE ( 'NONE', *, *, #756, .T. ) ;
#329 = EDGE_CURVE ( 'NONE', #710, #939, #193, .T. ) ;
#330 = ORIENTED_EDGE ( 'NONE', *, *, #600, .F. ) ;
#331 = CARTESIAN_POINT ( 'NONE',  ( 6.000000000000000000, 2.449293598294705428E-16, -0.9999999999999991118 ) ) ;
#332 = EDGE_CURVE ( 'NONE', #1261, #800, #170, .T. ) ;
#333 = CARTESIAN_POINT ( 'NONE',  ( 10.49396510188369547, -1.250604544411840768, -0.01784980692984815959 ) ) ;
#334 = CIRCLE ( 'NONE', #497, 2.000000000000000000 ) ;
#335 = ORIENTED_EDGE ( 'NONE', *, *, #269, .F. ) ;
#336 = VECTOR ( 'NONE', #1143, 1000.000000000000114 ) ;
#337 = DIRECTION ( 'NONE',  ( 0.000000000000000000, -0.000000000000000000, -1.000000000000000000 ) ) ;
#338 = CARTESIAN_POINT ( 'NONE',  ( 8.000000000000000000, 0.000000000000000000, -10.00000000000000000 ) ) ;
#339 = CARTESIAN_POINT ( 'NONE',  ( 10.27265404723632081, 1.958326730037757146, -10.00000000000000000 ) ) ;
#340 = EDGE_LOOP ( 'NONE', ( #228, #136, #581, #1174, #842, #44 ) ) ;
#341 = AXIS2_PLACEMENT_3D ( 'NONE', #659, #551, #831 ) ;
#342 = CARTESIAN_POINT ( 'NONE',  ( 9.322875655532293138, 1.500000000000000444, -0.9999999999999956701 ) ) ;
#343 = FACE_OUTER_BOUND ( 'NONE', #860, .T. ) ;
#344 = EDGE_CURVE ( 'NONE', #222, #153, #1188, .T. ) ;
#345 = EDGE_CURVE ( 'NONE', #1189, #1228, #700, .T. ) ;
#346 = CARTESIAN_POINT ( 'NONE',  ( 8.000000000000000000, 0.000000000000000000, -10.00000000000000000 ) ) ;
#347 = ORIENTED_EDGE ( 'NONE', *, *, #23, .F. ) ;
#348 = ORIENTED_EDGE ( 'NONE', *, *, #942, .F. ) ;
#349 = DIRECTION ( 'NONE',  ( 0.000000000000000000, 0.000000000000000000, -1.000000000000000000 ) ) ;
#350 = DIRECTION ( 'NONE',  ( 1.000000000000000000, 0.000000000000000000, 0.000000000000000000 ) ) ;
#351 = EDGE_LOOP ( 'NONE', ( #162, #488, #353, #1105 ) ) ;
#352 = ADVANCED_FACE ( 'NONE', ( #973, #1098 ), #276, .T. ) ;
#353 = ORIENTED_EDGE ( 'NONE', *, *, #506, .F. ) ;
#354 = CIRCLE ( 'NONE', #400, 1.000000000000000888 ) ;
#355 = DIRECTION ( 'NONE',  ( -0.000000000000000000, 0.000000000000000000, 1.000000000000000000 ) ) ;
#356 = VECTOR ( 'NONE', #105, 1000.000000000000114 ) ;
#357 = ORIENTED_EDGE ( 'NONE', *, *, #152, .F. ) ;
#358 = VECTOR ( 'NONE', #993, 1000.000000000000114 ) ;
#359 = UNCERTAINTY_MEASURE_WITH_UNIT (LENGTH_MEASURE( 1.000000000000000082E-05 ), #436, 'distance_accuracy_value', 'NONE');
#360 = EDGE_CURVE ( 'NONE', #710, #835, #80, .T. ) ;
#361 = DIRECTION ( 'NONE',  ( -4.049876034805838724E-16, -1.000000000000000000, 0.000000000000000000 ) ) ;
#362 = VECTOR ( 'NONE', #621, 1000.000000000000000 ) ;
#363 = CARTESIAN_POINT ( 'NONE',  ( -2.000000000000000000, 2.449293598294706414E-16, -0.9999999999999991118 ) ) ;
#364 = CARTESIAN_POINT ( 'NONE',  ( 8.000000000000000000, 0.000000000000000000, -6.000000000000000888 ) ) ;
#365 = VERTEX_POINT ( 'NONE', #1289 ) ;
#366 = B_SPLINE_CURVE_WITH_KNOTS ( 'NONE', 3,
 ( #171, #1080, #388, #468 ),
 .UNSPECIFIED., .F., .F.,
 ( 4, 4 ),
 ( 2.611104600503255956E-18, 0.0001139562108984544801 ),
 .UNSPECIFIED. ) ;
#367 = EDGE_CURVE ( 'NONE', #618, #668, #695, .T. ) ;
#368 = CARTESIAN_POINT ( 'NONE',  ( 10.05529302882028553, -1.500000000000000666, -5.105225151288087737 ) ) ;
#369 = CYLINDRICAL_SURFACE ( 'NONE', #826, 4.000000000000000000 ) ;
#370 = CARTESIAN_POINT ( 'NONE',  ( 11.00000000000000000, 0.000000000000000000, -10.00000000000000178 ) ) ;
#371 = B_SPLINE_CURVE_WITH_KNOTS ( 'NONE', 3,
 ( #1142, #1044, #1050, #1148 ),
 .UNSPECIFIED., .F., .F.,
 ( 4, 4 ),
 ( 2.479330550358104239E-07, 0.0001134677247251287483 ),
 .UNSPECIFIED. ) ;
#372 = EDGE_CURVE ( 'NONE', #972, #1162, #778, .T. ) ;
#373 = ORIENTED_EDGE ( 'NONE', *, *, #360, .T. ) ;
#374 = DIRECTION ( 'NONE',  ( 1.000000000000000000, 0.000000000000000000, 0.000000000000000000 ) ) ;
#375 = DIRECTION ( 'NONE',  ( 0.000000000000000000, 0.000000000000000000, 1.000000000000000000 ) ) ;
#376 = DIRECTION ( 'NONE',  ( 0.000000000000000000, 0.000000000000000000, -1.000000000000000000 ) ) ;
#377 = CARTESIAN_POINT ( 'NONE',  ( 8.000000000000000000, -4.000000000000000000, -0.2500000000000002220 ) ) ;
#378 = CIRCLE ( 'NONE', #875, 1.000000000000000000 ) ;
#379 = VERTEX_POINT ( 'NONE', #92 ) ;
#380 = PLANE ( 'NONE',  #804 ) ;
#381 = FACE_OUTER_BOUND ( 'NONE', #85, .T. ) ;
#382 = EDGE_CURVE ( 'NONE', #426, #755, #922, .T. ) ;
#383 = DIRECTION ( 'NONE',  ( -0.000000000000000000, 0.000000000000000000, 1.000000000000000000 ) ) ;
#384 = CARTESIAN_POINT ( 'NONE',  ( 0.000000000000000000, 0.000000000000000000, -0.2500000000000002220 ) ) ;
#385 = VERTEX_POINT ( 'NONE', #493 ) ;
#386 = PLANE ( 'NONE',  #967 ) ;
#387 = CIRCLE ( 'NONE', #862, 4.000000000000000000 ) ;
#388 = CARTESIAN_POINT ( 'NONE',  ( 10.72208246555941891, 1.170483478344948924, -5.000000000000000888 ) ) ;
#389 = ADVANCED_FACE ( 'NONE', ( #892 ), #1293, .F. ) ;
#390 = DIRECTION ( 'NONE',  ( 0.000000000000000000, 0.000000000000000000, 1.000000000000000000 ) ) ;
#391 = DIRECTION ( 'NONE',  ( 1.000000000000000000, 0.000000000000000000, 0.000000000000000000 ) ) ;
#392 = CARTESIAN_POINT ( 'NONE',  ( 5.000000000000000888, 3.673940397442059375E-16, -9.000000000000001776 ) ) ;
#393 = ORIENTED_EDGE ( 'NONE', *, *, #895, .F. ) ;
#394 = DIRECTION ( 'NONE',  ( 0.000000000000000000, 0.000000000000000000, -1.000000000000000000 ) ) ;
#395 = DIRECTION ( 'NONE',  ( 1.000000000000000000, 0.000000000000000000, 0.000000000000000000 ) ) ;
#396 = CARTESIAN_POINT ( 'NONE',  ( 11.75000000000000000, 0.000000000000000000, -10.00000000000000000 ) ) ;
#397 = CARTESIAN_POINT ( 'NONE',  ( 0.000000000000000000, 3.749999999999998224, -10.00000000000000000 ) ) ;
#398 = ORIENTED_EDGE ( 'NONE', *, *, #246, .F. ) ;
#399 = DIRECTION ( 'NONE',  ( 0.8000000000000001554, -0.5999999999999998668, 0.000000000000000000 ) ) ;
#400 = AXIS2_PLACEMENT_3D ( 'NONE', #559, #741, #537 ) ;
#401 = EDGE_CURVE ( 'NONE', #965, #325, #318, .T. ) ;
#402 = AXIS2_PLACEMENT_3D ( 'NONE', #164, #767, #669 ) ;
#403 = DIRECTION ( 'NONE',  ( 1.000000000000000000, 0.000000000000000000, 0.000000000000000000 ) ) ;
#404 = DIRECTION ( 'NONE',  ( -1.000000000000000000, 0.000000000000000000, 0.000000000000000000 ) ) ;
#405 = CONICAL_SURFACE ( 'NONE', #925, 4.000000000000000000, 0.7853981633974482790 ) ;
#406 = ORIENTED_EDGE ( 'NONE', *, *, #125, .T. ) ;
#407 = ORIENTED_EDGE ( 'NONE', *, *, #182, .F. ) ;
#408 = DIRECTION ( 'NONE',  ( -0.000000000000000000, 0.000000000000000000, 1.000000000000000000 ) ) ;
#409 = EDGE_CURVE ( 'NONE', #1085, #579, #1255, .T. ) ;
#410 = ADVANCED_FACE ( 'NONE', ( #602 ), #999, .F. ) ;
#411 = ORIENTED_EDGE ( 'NONE', *, *, #172, .T. ) ;
#412 = DIRECTION ( 'NONE',  ( 1.000000000000000000, 0.000000000000000000, 0.000000000000000000 ) ) ;
#413 = ORIENTED_EDGE ( 'NONE', *, *, #254, .F. ) ;
#414 = CARTESIAN_POINT ( 'NONE',  ( -3.000000000000000000, 3.673940397442059868E-16, 4.336808689942017736E-16 ) ) ;
#415 = PLANE ( 'NONE',  #524 ) ;
#416 = ORIENTED_EDGE ( 'NONE', *, *, #489, .F. ) ;
#417 = AXIS2_PLACEMENT_3D ( 'NONE', #1103, #616, #811 ) ;
#418 = CARTESIAN_POINT ( 'NONE',  ( 3.298117617995811823, 4.397490157327751170, -7.347880794884119736E-16 ) ) ;
#419 = CARTESIAN_POINT ( 'NONE',  ( 11.16143782776615012, -1.500000000000000444, -5.133536959265120991 ) ) ;
#420 = EDGE_CURVE ( 'NONE', #149, #934, #194, .T. ) ;
#421 = ORIENTED_EDGE ( 'NONE', *, *, #938, .F. ) ;
#422 = AXIS2_PLACEMENT_3D ( 'NONE', #289, #84, #374 ) ;
#423 = CARTESIAN_POINT ( 'NONE',  ( 8.000000000000000000, 3.750000000000002665, 0.000000000000000000 ) ) ;
#424 = EDGE_CURVE ( 'NONE', #934, #1183, #176, .T. ) ;
#425 = CARTESIAN_POINT ( 'NONE',  ( 0.000000000000000000, 0.000000000000000000, -9.749999999999998224 ) ) ;
#426 = VERTEX_POINT ( 'NONE', #638 ) ;
#427 = ADVANCED_FACE ( 'NONE', ( #714 ), #635, .T. ) ;
#428 = AXIS2_PLACEMENT_3D ( 'NONE', #1250, #355, #1130 ) ;
#429 = ORIENTED_EDGE ( 'NONE', *, *, #687, .F. ) ;
#430 = CARTESIAN_POINT ( 'NONE',  ( 10.27265404723632081, -1.958326730037756702, 0.000000000000000000 ) ) ;
#431 = CARTESIAN_POINT ( 'NONE',  ( 10.66143782776614657, -1.125000000000000222, -5.000000000000000888 ) ) ;
#432 = EDGE_LOOP ( 'NONE', ( #930, #1021, #1207, #1213, #56, #747 ) ) ;
#433 = ORIENTED_EDGE ( 'NONE', *, *, #792, .T. ) ;
#434 = EDGE_CURVE ( 'NONE', #365, #303, #147, .T. ) ;
#435 = LINE ( 'NONE', #188, #1225 ) ;
#436 =( LENGTH_UNIT ( ) NAMED_UNIT ( * ) SI_UNIT ( .MILLI., .METRE. ) );
#437 = ORIENTED_EDGE ( 'NONE', *, *, #995, .F. ) ;
#438 = AXIS2_PLACEMENT_3D ( 'NONE', #430, #828, #403 ) ;
#439 = CARTESIAN_POINT ( 'NONE',  ( 0.000000000000000000, 0.000000000000000000, 0.000000000000000000 ) ) ;
#440 = DIRECTION ( 'NONE',  ( 0.000000000000000000, 0.000000000000000000, 1.000000000000000000 ) ) ;
#441 = DIRECTION ( 'NONE',  ( -0.000000000000000000, 0.000000000000000000, 1.000000000000000000 ) ) ;
#442 = ORIENTED_EDGE ( 'NONE', *, *, #717, .F. ) ;
#443 = AXIS2_PLACEMENT_3D ( 'NONE', #1256, #361, #761 ) ;
#444 = CIRCLE ( 'NONE', #1302, 3.750000000000003553 ) ;
#445 = CARTESIAN_POINT ( 'NONE',  ( 10.32773108752723168, -1.375280055179187944, -5.044582782876564586 ) ) ;
#446 = DIRECTION ( 'NONE',  ( 0.000000000000000000, 0.000000000000000000, 1.000000000000000000 ) ) ;
#447 = EDGE_LOOP ( 'NONE', ( #513, #994, #407, #111 ) ) ;
#448 = AXIS2_PLACEMENT_3D ( 'NONE', #1184, #270, #1291 ) ;
#449 = ORIENTED_EDGE ( 'NONE', *, *, #286, .T. ) ;
#450 = CARTESIAN_POINT ( 'NONE',  ( 9.352033076528666555, -1.500000000000000666, -0.7788530194327240030 ) ) ;
#451 = CARTESIAN_POINT ( 'NONE',  ( -0.000000000000000000, 3.749999999999998224, -10.00000000000000000 ) ) ;
#452 = ORIENTED_EDGE ( 'NONE', *, *, #424, .T. ) ;
#453 = VERTEX_POINT ( 'NONE', #211 ) ;
#454 = FACE_OUTER_BOUND ( 'NONE', #573, .T. ) ;
#455 = AXIS2_PLACEMENT_3D ( 'NONE', #26, #1026, #404 ) ;
#456 = CARTESIAN_POINT ( 'NONE',  ( 10.16143782776614835, 1.500000000000000444, -5.000000000000000888 ) ) ;
#457 = DIRECTION ( 'NONE',  ( 1.000000000000000000, 0.000000000000000000, 0.000000000000000000 ) ) ;
#458 = EDGE_LOOP ( 'NONE', ( #348, #633, #770, #622, #1168 ) ) ;
#459 = VECTOR ( 'NONE', #1300, 1000.000000000000000 ) ;
#460 = LINE ( 'NONE', #70, #1068 ) ;
#461 = EDGE_CURVE ( 'NONE', #385, #1102, #617, .T. ) ;
#462 = AXIS2_PLACEMENT_3D ( 'NONE', #392, #675, #486 ) ;
#463 = CARTESIAN_POINT ( 'NONE',  ( 10.66143782776614657, 1.125000000000000222, -0.006130302267793284743 ) ) ;
#464 = CARTESIAN_POINT ( 'NONE',  ( 0.000000000000000000, 0.000000000000000000, 0.000000000000000000 ) ) ;
#465 = EDGE_LOOP ( 'NONE', ( #328, #1237 ) ) ;
#466 = AXIS2_PLACEMENT_3D ( 'NONE', #1002, #1221, #323 ) ;
#467 = ORIENTED_EDGE ( 'NONE', *, *, #598, .T. ) ;
#468 = CARTESIAN_POINT ( 'NONE',  ( 10.75247078846567383, 1.193274720524641452, -5.000000000000000888 ) ) ;
#469 = CARTESIAN_POINT ( 'NONE',  ( 11.12628185018330562, -2.499604803068328440, -0.2500000000000002776 ) ) ;
#470 = PLANE ( 'NONE',  #291 ) ;
#471 = EDGE_LOOP ( 'NONE', ( #282, #32, #505, #1152 ) ) ;
#472 = DIRECTION ( 'NONE',  ( 0.8000000000000002665, 0.5999999999999997558, 0.000000000000000000 ) ) ;
#473 = VERTEX_POINT ( 'NONE', #905 ) ;
#474 = CARTESIAN_POINT ( 'NONE',  ( 9.322875655532293138, -1.500000000000001554, -6.000000000000000888 ) ) ;
#475 = EDGE_CURVE ( 'NONE', #141, #222, #984, .T. ) ;
#476 = CARTESIAN_POINT ( 'NONE',  ( 11.26596113350895223, -1.842823343245072021, 0.000000000000000000 ) ) ;
#477 = PLANE ( 'NONE',  #248 ) ;
#478 = AXIS2_PLACEMENT_3D ( 'NONE', #384, #174, #971 ) ;
#479 = EDGE_LOOP ( 'NONE', ( #956, #120, #665, #1000, #611 ) ) ;
#480 = CARTESIAN_POINT ( 'NONE',  ( 10.89592599944846363, 1.300866128761734908, -5.000000000000000888 ) ) ;
#481 = EDGE_CURVE ( 'NONE', #835, #755, #106, .T. ) ;
#482 = COLOUR_RGB ( '',0.7921568627450980005, 0.8196078431372548767, 0.9333333333333333481 ) ;
#483 = CARTESIAN_POINT ( 'NONE',  ( 8.000000000000000000, 0.000000000000000000, -6.000000000000000888 ) ) ;
#484 = CARTESIAN_POINT ( 'NONE',  ( 11.28056588584256836, -1.968421426462120927, -0.07444096882808834414 ) ) ;
#485 = CARTESIAN_POINT ( 'NONE',  ( 10.66143782776614657, 1.125000000000000222, -5.006130302267794541 ) ) ;
#486 = DIRECTION ( 'NONE',  ( -1.000000000000000000, 1.224646799147353454E-16, 0.000000000000000000 ) ) ;
#487 = CIRCLE ( 'NONE', #552, 1.000000000000000000 ) ;
#488 = ORIENTED_EDGE ( 'NONE', *, *, #261, .F. ) ;
#489 = EDGE_CURVE ( 'NONE', #98, #7, #1006, .T. ) ;
#490 = DIRECTION ( 'NONE',  ( 1.000000000000000000, 0.000000000000000000, 0.000000000000000000 ) ) ;
#491 = CARTESIAN_POINT ( 'NONE',  ( 10.75247078846567206, -1.193274720524640564, -6.505213034913026604E-16 ) ) ;
#492 = DIRECTION ( 'NONE',  ( -0.5999999999999997558, -0.8000000000000002665, 0.000000000000000000 ) ) ;
#493 = CARTESIAN_POINT ( 'NONE',  ( 8.000000000000000000, 4.000000000000000000, -9.749999999999998224 ) ) ;
#494 = ORIENTED_EDGE ( 'NONE', *, *, #434, .T. ) ;
#495 = CYLINDRICAL_SURFACE ( 'NONE', #225, 2.000000000000000000 ) ;
#496 = CARTESIAN_POINT ( 'NONE',  ( 11.27326623747944367, 1.905645843444760956, -0.03723438813143208070 ) ) ;
#497 = AXIS2_PLACEMENT_3D ( 'NONE', #8, #315, #412 ) ;
#498 = CARTESIAN_POINT ( 'NONE',  ( 0.000000000000000000, -4.000000000000000000, -9.749999999999998224 ) ) ;
#499 = DIRECTION ( 'NONE',  ( 1.000000000000000000, 0.000000000000000000, 0.000000000000000000 ) ) ;
#500 = AXIS2_PLACEMENT_3D ( 'NONE', #151, #1247, #1154 ) ;
#501 = ORIENTED_EDGE ( 'NONE', *, *, #261, .T. ) ;
#502 = DIRECTION ( 'NONE',  ( -0.000000000000000000, 0.000000000000000000, 1.000000000000000000 ) ) ;
#503 =( LENGTH_UNIT ( ) NAMED_UNIT ( * ) SI_UNIT ( .MILLI., .METRE. ) );
#504 = VECTOR ( 'NONE', #781, 1000.000000000000000 ) ;
#505 = ORIENTED_EDGE ( 'NONE', *, *, #372, .F. ) ;
#506 = EDGE_CURVE ( 'NONE', #1023, #222, #632, .T. ) ;
#507 = ADVANCED_FACE ( 'NONE', ( #1217 ), #415, .T. ) ;
#508 = CARTESIAN_POINT ( 'NONE',  ( 10.89594886064858770, -1.300883274661827738, -4.999999999999820588 ) ) ;
#509 = EDGE_LOOP ( 'NONE', ( #267, #501, #1155, #1269 ) ) ;
#510 = CONICAL_SURFACE ( 'NONE', #595, 4.000000000000000000, 0.7853981633974482790 ) ;
#511 = DIRECTION ( 'NONE',  ( -0.000000000000000000, -0.000000000000000000, 1.000000000000000000 ) ) ;
#512 = CARTESIAN_POINT ( 'NONE',  ( 10.66143782776614657, -1.125000000000000222, -5.006130302267794541 ) ) ;
#513 = ORIENTED_EDGE ( 'NONE', *, *, #217, .F. ) ;
#514 = DIRECTION ( 'NONE',  ( 1.000000000000000000, 0.000000000000000000, 0.000000000000000000 ) ) ;
#515 = LINE ( 'NONE', #431, #1048 ) ;
#516 = ORIENTED_EDGE ( 'NONE', *, *, #1038, .F. ) ;
#517 = CARTESIAN_POINT ( 'NONE',  ( 8.000000000000000000, 0.000000000000000000, -9.749999999999998224 ) ) ;
#518 = CARTESIAN_POINT ( 'NONE',  ( 0.000000000000000000, 0.000000000000000000, 0.000000000000000000 ) ) ;
#519 = ORIENTED_EDGE ( 'NONE', *, *, #969, .F. ) ;
#520 = EDGE_CURVE ( 'NONE', #1275, #303, #515, .T. ) ;
#521 = CARTESIAN_POINT ( 'NONE',  ( 8.000000000000000000, 0.000000000000000000, -6.000000000000000888 ) ) ;
#522 = LINE ( 'NONE', #812, #692 ) ;
#523 = EDGE_LOOP ( 'NONE', ( #677, #988, #696, #452, #838, #519 ) ) ;
#524 = AXIS2_PLACEMENT_3D ( 'NONE', #709, #530, #1127 ) ;
#525 = EDGE_CURVE ( 'NONE', #1282, #107, #79, .T. ) ;
#526 = TOROIDAL_SURFACE ( 'NONE', #670, 3.000000000000000000, 1.000000000000000000 ) ;
#527 = EDGE_LOOP ( 'NONE', ( #923, #1181, #1113, #603, #921 ) ) ;
#528 = PRESENTATION_LAYER_ASSIGNMENT (  '', '', ( #187 ) ) ;
#529 = FACE_OUTER_BOUND ( 'NONE', #432, .T. ) ;
#530 = DIRECTION ( 'NONE',  ( 0.000000000000000000, 0.7071067811865500152, 0.7071067811865451302 ) ) ;
#531 = ORIENTED_EDGE ( 'NONE', *, *, #424, .F. ) ;
#532 = CONICAL_SURFACE ( 'NONE', #744, 3.750000000000001776, 0.7853981633974447263 ) ;
#533 = EDGE_CURVE ( 'NONE', #596, #615, #1034, .T. ) ;
#534 = AXIS2_PLACEMENT_3D ( 'NONE', #133, #536, #931 ) ;
#535 = ORIENTED_EDGE ( 'NONE', *, *, #687, .T. ) ;
#536 = DIRECTION ( 'NONE',  ( -0.000000000000000000, -0.000000000000000000, 1.000000000000000000 ) ) ;
#537 = DIRECTION ( 'NONE',  ( 0.000000000000000000, 0.000000000000000000, -1.000000000000000000 ) ) ;
#538 = ORIENTED_EDGE ( 'NONE', *, *, #796, .T. ) ;
#539 = ADVANCED_FACE ( 'NONE', ( #224 ), #204, .F. ) ;
#540 = FACE_OUTER_BOUND ( 'NONE', #471, .T. ) ;
#541 = DIRECTION ( 'NONE',  ( 0.000000000000000000, -0.000000000000000000, -1.000000000000000000 ) ) ;
#542 = DIRECTION ( 'NONE',  ( 1.000000000000000000, 0.000000000000000000, 0.000000000000000000 ) ) ;
#543 = EDGE_LOOP ( 'NONE', ( #1109, #872, #1052, #651 ) ) ;
#544 = AXIS2_PLACEMENT_3D ( 'NONE', #498, #112, #911 ) ;
#545 = ORIENTED_EDGE ( 'NONE', *, *, #1271, .F. ) ;
#546 = CARTESIAN_POINT ( 'NONE',  ( 10.72222455035035260, 1.170590041938150083, 2.417004866467887307E-14 ) ) ;
#547 = ADVANCED_FACE ( 'NONE', ( #320 ), #251, .T. ) ;
#548 = SURFACE_STYLE_USAGE ( .BOTH. , #249 ) ;
#549 = VERTEX_POINT ( 'NONE', #119 ) ;
#550 = PRODUCT_DEFINITION_FORMATION_WITH_SPECIFIED_SOURCE ( 'ANY', '', #4, .NOT_KNOWN. ) ;
#551 = DIRECTION ( 'NONE',  ( 0.000000000000000000, 0.000000000000000000, -1.000000000000000000 ) ) ;
#552 = AXIS2_PLACEMENT_3D ( 'NONE', #863, #1287, #1061 ) ;
#553 = DIRECTION ( 'NONE',  ( 0.000000000000000000, 0.000000000000000000, 1.000000000000000000 ) ) ;
#554 = FILL_AREA_STYLE_COLOUR ( '', #482 ) ;
#555 = ORIENTED_EDGE ( 'NONE', *, *, #118, .F. ) ;
#556 = ORIENTED_EDGE ( 'NONE', *, *, #889, .F. ) ;
#557 = EDGE_CURVE ( 'NONE', #615, #748, #522, .T. ) ;
#558 = DIRECTION ( 'NONE',  ( 1.000000000000000000, 0.000000000000000000, 0.000000000000000000 ) ) ;
#559 = CARTESIAN_POINT ( 'NONE',  ( 11.00000000000000000, 0.000000000000000000, -9.000000000000001776 ) ) ;
#560 = ORIENTED_EDGE ( 'NONE', *, *, #833, .T. ) ;
#561 = EDGE_CURVE ( 'NONE', #668, #934, #1058, .T. ) ;
#562 = CARTESIAN_POINT ( 'NONE',  ( 12.00000000000000000, 0.000000000000000000, -9.749999999999998224 ) ) ;
#563 = CARTESIAN_POINT ( 'NONE',  ( 8.000000000000000000, 0.000000000000000000, -9.749999999999998224 ) ) ;
#564 = CARTESIAN_POINT ( 'NONE',  ( 10.49396502364228390, 1.250604603092898781, -5.017849812405107635 ) ) ;
#565 = ORIENTED_EDGE ( 'NONE', *, *, #520, .F. ) ;
#566 = VECTOR ( 'NONE', #844, 1000.000000000000114 ) ;
#567 = UNCERTAINTY_MEASURE_WITH_UNIT (LENGTH_MEASURE( 1.000000000000000082E-05 ), #503, 'distance_accuracy_value', 'NONE');
#568 = CARTESIAN_POINT ( 'NONE',  ( -4.000000000000000000, 0.000000000000000000, -0.2500000000000002220 ) ) ;
#569 = CIRCLE ( 'NONE', #640, 1.000000000000000000 ) ;
#570 = DIRECTION ( 'NONE',  ( 1.000000000000000000, 0.000000000000000000, 0.000000000000000000 ) ) ;
#571 = ADVANCED_FACE ( 'NONE', ( #723 ), #667, .F. ) ;
#572 = DIRECTION ( 'NONE',  ( 0.000000000000000000, -0.000000000000000000, -1.000000000000000000 ) ) ;
#573 = EDGE_LOOP ( 'NONE', ( #209, #1093, #243, #3 ) ) ;
#574 = CARTESIAN_POINT ( 'NONE',  ( 0.000000000000000000, 0.000000000000000000, -9.000000000000001776 ) ) ;
#575 = ORIENTED_EDGE ( 'NONE', *, *, #360, .F. ) ;
#576 = EDGE_CURVE ( 'NONE', #379, #1102, #662, .T. ) ;
#577 = LINE ( 'NONE', #278, #673 ) ;
#578 = DIRECTION ( 'NONE',  ( 1.000000000000000000, 3.552713678800501718E-15, 0.000000000000000000 ) ) ;
#579 = VERTEX_POINT ( 'NONE', #1160 ) ;
#580 = DIRECTION ( 'NONE',  ( 1.000000000000000000, 0.000000000000000000, 0.000000000000000000 ) ) ;
#581 = ORIENTED_EDGE ( 'NONE', *, *, #942, .T. ) ;
#582 = CARTESIAN_POINT ( 'NONE',  ( 8.000000000000000000, 0.000000000000000000, 0.000000000000000000 ) ) ;
#583 = CARTESIAN_POINT ( 'NONE',  ( 11.26596113350895223, -1.842823343245072021, 0.000000000000000000 ) ) ;
#584 = DIRECTION ( 'NONE',  ( 0.000000000000000000, -0.7071067811865474617, -0.7071067811865474617 ) ) ;
#585 = CIRCLE ( 'NONE', #754, 4.000000000000000000 ) ;
#586 = DIRECTION ( 'NONE',  ( 0.000000000000000000, 0.000000000000000000, 1.000000000000000000 ) ) ;
#587 = ORIENTED_EDGE ( 'NONE', *, *, #235, .T. ) ;
#588 = VECTOR ( 'NONE', #626, 1000.000000000000114 ) ;
#589 = CARTESIAN_POINT ( 'NONE',  ( 10.66143782776614657, 1.125000000000000222, -5.000000000000000888 ) ) ;
#590 = MANIFOLD_SOLID_BREP ( 'Fillet3', #1172 ) ;
#591 = CARTESIAN_POINT ( 'NONE',  ( 9.322875655532293138, 1.500000000000000444, -6.000000000000000888 ) ) ;
#592 = DIRECTION ( 'NONE',  ( -0.000000000000000000, 0.000000000000000000, 1.000000000000000000 ) ) ;
#593 = EDGE_CURVE ( 'NONE', #325, #965, #180, .T. ) ;
#594 = CARTESIAN_POINT ( 'NONE',  ( 11.03020539631509500, 2.611102306717008936, -10.00000000000000000 ) ) ;
#595 = AXIS2_PLACEMENT_3D ( 'NONE', #253, #661, #636 ) ;
#596 = VERTEX_POINT ( 'NONE', #758 ) ;
#597 = CARTESIAN_POINT ( 'NONE',  ( 10.75247078846567383, 1.193274720524641452, -5.000000000000000888 ) ) ;
#598 = EDGE_CURVE ( 'NONE', #1102, #705, #293, .T. ) ;
#599 = FACE_OUTER_BOUND ( 'NONE', #1003, .T. ) ;
#600 = EDGE_CURVE ( 'NONE', #835, #759, #354, .T. ) ;
#601 = CARTESIAN_POINT ( 'NONE',  ( 10.27265404723632081, 1.958326730037757146, 0.000000000000000000 ) ) ;
#602 = FACE_OUTER_BOUND ( 'NONE', #685, .T. ) ;
#603 = ORIENTED_EDGE ( 'NONE', *, *, #703, .T. ) ;
#604 = FACE_OUTER_BOUND ( 'NONE', #902, .T. ) ;
#605 = EDGE_CURVE ( 'NONE', #933, #1162, #1040, .T. ) ;
#606 = CARTESIAN_POINT ( 'NONE',  ( 0.000000000000000000, -3.750000000000001776, 0.000000000000000000 ) ) ;
#607 = ORIENTED_EDGE ( 'NONE', *, *, #605, .T. ) ;
#608 = LINE ( 'NONE', #904, #356 ) ;
#609 = CARTESIAN_POINT ( 'NONE',  ( 10.66143782776614657, -1.125000000000000222, -0.006130302267792417381 ) ) ;
#610 = TOROIDAL_SURFACE ( 'NONE', #36, 3.000000000000000888, 1.000000000000000000 ) ;
#611 = ORIENTED_EDGE ( 'NONE', *, *, #699, .T. ) ;
#612 = CARTESIAN_POINT ( 'NONE',  ( 8.000000000000000000, 0.000000000000000000, -5.000000000000000888 ) ) ;
#613 = DIRECTION ( 'NONE',  ( -0.000000000000000000, 0.000000000000000000, 1.000000000000000000 ) ) ;
#614 = CONICAL_SURFACE ( 'NONE', #271, 3.750000000000001776, 0.7853981633974447263 ) ;
#615 = VERTEX_POINT ( 'NONE', #255 ) ;
#616 = DIRECTION ( 'NONE',  ( -0.000000000000000000, 0.000000000000000000, 1.000000000000000000 ) ) ;
#617 = LINE ( 'NONE', #1132, #588 ) ;
#618 = VERTEX_POINT ( 'NONE', #851 ) ;
#619 = AXIS2_PLACEMENT_3D ( 'NONE', #936, #349, #750 ) ;
#620 = ADVANCED_FACE ( 'NONE', ( #846 ), #49, .T. ) ;
#621 = DIRECTION ( 'NONE',  ( 1.000000000000000000, 0.000000000000000000, 0.000000000000000000 ) ) ;
#622 = ORIENTED_EDGE ( 'NONE', *, *, #525, .F. ) ;
#623 = DIRECTION ( 'NONE',  ( 1.000000000000000000, 0.000000000000000000, 0.000000000000000000 ) ) ;
#624 = ADVANCED_FACE ( 'NONE', ( #1236 ), #144, .T. ) ;
#625 = AXIS2_PLACEMENT_3D ( 'NONE', #678, #394, #196 ) ;
#626 = DIRECTION ( 'NONE',  ( 0.000000000000000000, -0.7071067811865474617, -0.7071067811865474617 ) ) ;
#627 = ORIENTED_EDGE ( 'NONE', *, *, #646, .F. ) ;
#628 = FACE_OUTER_BOUND ( 'NONE', #157, .T. ) ;
#629 = ORIENTED_EDGE ( 'NONE', *, *, #1161, .F. ) ;
#630 = CARTESIAN_POINT ( 'NONE',  ( 8.000000000000000000, 0.000000000000000000, -6.000000000000000888 ) ) ;
#631 = ADVANCED_FACE ( 'NONE', ( #54 ), #751, .T. ) ;
#632 = LINE ( 'NONE', #806, #857 ) ;
#633 = ORIENTED_EDGE ( 'NONE', *, *, #1203, .T. ) ;
#634 = ORIENTED_EDGE ( 'NONE', *, *, #600, .T. ) ;
#635 = CONICAL_SURFACE ( 'NONE', #455, 3.750000000000002665, 0.7853981633974447263 ) ;
#636 = DIRECTION ( 'NONE',  ( 1.000000000000000000, 0.000000000000000000, 0.000000000000000000 ) ) ;
#637 = EDGE_CURVE ( 'NONE', #830, #1123, #378, .T. ) ;
#638 = CARTESIAN_POINT ( 'NONE',  ( 11.00000000000000000, 0.000000000000000000, -5.000000000000000888 ) ) ;
#639 = ORIENTED_EDGE ( 'NONE', *, *, #756, .F. ) ;
#640 = AXIS2_PLACEMENT_3D ( 'NONE', #1, #814, #221 ) ;
#641 = VECTOR ( 'NONE', #139, 1000.000000000000000 ) ;
#642 = VERTEX_POINT ( 'NONE', #140 ) ;
#643 = CARTESIAN_POINT ( 'NONE',  ( 10.16143782776614835, -1.500000000000000000, -0.07059682832910152417 ) ) ;
#644 = CARTESIAN_POINT ( 'NONE',  ( 0.000000000000000000, 0.000000000000000000, -9.000000000000001776 ) ) ;
#645 = ORIENTED_EDGE ( 'NONE', *, *, #1042, .F. ) ;
#646 = EDGE_CURVE ( 'NONE', #153, #1261, #1241, .T. ) ;
#647 = ADVANCED_FACE ( 'NONE', ( #1045 ), #652, .T. ) ;
#648 = DIRECTION ( 'NONE',  ( 0.000000000000000000, -0.000000000000000000, -1.000000000000000000 ) ) ;
#649 = LINE ( 'NONE', #150, #88 ) ;
#650 = DIRECTION ( 'NONE',  ( 0.000000000000000000, -0.000000000000000000, -1.000000000000000000 ) ) ;
#651 = ORIENTED_EDGE ( 'NONE', *, *, #533, .F. ) ;
#652 = TOROIDAL_SURFACE ( 'NONE', #836, 2.999999999999999556, 1.000000000000000000 ) ;
#653 = FACE_OUTER_BOUND ( 'NONE', #447, .T. ) ;
#654 = LINE ( 'NONE', #48, #641 ) ;
#655 = AXIS2_PLACEMENT_3D ( 'NONE', #346, #650, #457 ) ;
#656 = EDGE_CURVE ( 'NONE', #933, #1018, #877, .T. ) ;
#657 = ORIENTED_EDGE ( 'NONE', *, *, #43, .F. ) ;
#658 = ADVANCED_FACE ( 'NONE', ( #287 ), #477, .T. ) ;
#659 = CARTESIAN_POINT ( 'NONE',  ( 8.000000000000000000, 0.000000000000000000, 0.000000000000000000 ) ) ;
#660 = AXIS2_PLACEMENT_3D ( 'NONE', #242, #440, #42 ) ;
#661 = DIRECTION ( 'NONE',  ( -0.000000000000000000, -0.000000000000000000, 1.000000000000000000 ) ) ;
#662 = LINE ( 'NONE', #451, #20 ) ;
#663 = EDGE_CURVE ( 'NONE', #1282, #98, #103, .T. ) ;
#664 = ORIENTED_EDGE ( 'NONE', *, *, #329, .F. ) ;
#665 = ORIENTED_EDGE ( 'NONE', *, *, #561, .T. ) ;
#666 = DIRECTION ( 'NONE',  ( 0.000000000000000000, 0.000000000000000000, 1.000000000000000000 ) ) ;
#667 = CYLINDRICAL_SURFACE ( 'NONE', #801, 2.000000000000000000 ) ;
#668 = VERTEX_POINT ( 'NONE', #179 ) ;
#669 = DIRECTION ( 'NONE',  ( 0.8000000000000002665, -0.5999999999999997558, 0.000000000000000000 ) ) ;
#670 = AXIS2_PLACEMENT_3D ( 'NONE', #1019, #722, #514 ) ;
#671 = CARTESIAN_POINT ( 'NONE',  ( 10.75247078846567206, 1.193274720524640564, -6.505213034913026604E-16 ) ) ;
#672 = DIRECTION ( 'NONE',  ( 0.5999999999999997558, -0.8000000000000002665, 0.000000000000000000 ) ) ;
#673 = VECTOR ( 'NONE', #1094, 1000.000000000000000 ) ;
#674 = ORIENTED_EDGE ( 'NONE', *, *, #1042, .T. ) ;
#675 = DIRECTION ( 'NONE',  ( 1.224646799147353207E-16, 1.000000000000000000, 0.000000000000000000 ) ) ;
#676 = AXIS2_PLACEMENT_3D ( 'NONE', #41, #52, #337 ) ;
#677 = ORIENTED_EDGE ( 'NONE', *, *, #58, .F. ) ;
#678 = CARTESIAN_POINT ( 'NONE',  ( 8.000000000000000000, 0.000000000000000000, -0.2500000000000002220 ) ) ;
#679 = CARTESIAN_POINT ( 'NONE',  ( 3.000000000000000000, 0.000000000000000000, -10.00000000000000178 ) ) ;
#680 = TOROIDAL_SURFACE ( 'NONE', #215, 2.999999999999999556, 1.000000000000000000 ) ;
#681 = FACE_OUTER_BOUND ( 'NONE', #927, .T. ) ;
#682 = ORIENTED_EDGE ( 'NONE', *, *, #1029, .F. ) ;
#683 = DIRECTION ( 'NONE',  ( 1.000000000000000000, 0.000000000000000000, 0.000000000000000000 ) ) ;
#684 = B_SPLINE_CURVE_WITH_KNOTS ( 'NONE', 3,
 ( #200, #901, #808, #322 ),
 .UNSPECIFIED., .F., .F.,
 ( 4, 4 ),
 ( 2.045668567712605528E-18, 0.0001139562108984568518 ),
 .UNSPECIFIED. ) ;
#685 = EDGE_LOOP ( 'NONE', ( #299, #76, #74, #645 ) ) ;
#686 = CARTESIAN_POINT ( 'NONE',  ( 9.322875655532293138, -1.500000000000000888, -5.000000000000000888 ) ) ;
#687 = EDGE_CURVE ( 'NONE', #141, #379, #167, .T. ) ;
#688 = CARTESIAN_POINT ( 'NONE',  ( 11.29028297855114005, -1.910105629264241323, -5.376702597141453488 ) ) ;
#689 = DIRECTION ( 'NONE',  ( 0.5999999999999997558, -0.8000000000000002665, 0.000000000000000000 ) ) ;
#690 = CARTESIAN_POINT ( 'NONE',  ( 1.214962810441752751E-16, -1.500000000000001554, -5.000000000000000888 ) ) ;
#691 = DIRECTION ( 'NONE',  ( -0.000000000000000000, 0.000000000000000000, 1.000000000000000000 ) ) ;
#692 = VECTOR ( 'NONE', #21, 1000.000000000000000 ) ;
#693 = FACE_OUTER_BOUND ( 'NONE', #146, .T. ) ;
#694 = VECTOR ( 'NONE', #218, 1000.000000000000000 ) ;
#695 = LINE ( 'NONE', #594, #1190 ) ;
#696 = ORIENTED_EDGE ( 'NONE', *, *, #420, .T. ) ;
#697 = MECHANICAL_DESIGN_GEOMETRIC_PRESENTATION_REPRESENTATION (  '', ( #187 ), #16 ) ;
#698 = CARTESIAN_POINT ( 'NONE',  ( 9.322875655532293138, -1.500000000000000888, -5.887598468760260495 ) ) ;
#699 = EDGE_CURVE ( 'NONE', #149, #426, #1253, .T. ) ;
#700 = CIRCLE ( 'NONE', #298, 2.999999999999999112 ) ;
#701 = LINE ( 'NONE', #1208, #1151 ) ;
#702 = CARTESIAN_POINT ( 'NONE',  ( 0.000000000000000000, 0.000000000000000000, -10.00000000000000000 ) ) ;
#703 = EDGE_CURVE ( 'NONE', #153, #116, #896, .T. ) ;
#704 = CIRCLE ( 'NONE', #1243, 2.000000000000000000 ) ;
#705 = VERTEX_POINT ( 'NONE', #396 ) ;
#706 = CARTESIAN_POINT ( 'NONE',  ( 0.000000000000000000, 0.000000000000000000, -0.9999999999999991118 ) ) ;
#707 = ORIENTED_EDGE ( 'NONE', *, *, #792, .F. ) ;
#708 = CARTESIAN_POINT ( 'NONE',  ( 10.16143782776614835, 1.500000000000000444, -0.07059682832909891514 ) ) ;
#709 = CARTESIAN_POINT ( 'NONE',  ( 0.000000000000000000, 4.000000000000000000, -0.2500000000000002220 ) ) ;
#710 = VERTEX_POINT ( 'NONE', #977 ) ;
#711 = CARTESIAN_POINT ( 'NONE',  ( 10.66143782776614657, -1.125000000000000222, -0.006130302267792417381 ) ) ;
#712 = ORIENTED_EDGE ( 'NONE', *, *, #329, .T. ) ;
#713 = CARTESIAN_POINT ( 'NONE',  ( 8.000000000000000000, -3.750000000000001776, 0.000000000000000000 ) ) ;
#714 = FACE_OUTER_BOUND ( 'NONE', #1063, .T. ) ;
#715 = CIRCLE ( 'NONE', #1157, 2.999999999999999112 ) ;
#716 = ORIENTED_EDGE ( 'NONE', *, *, #241, .F. ) ;
#717 = EDGE_CURVE ( 'NONE', #957, #772, #1125, .T. ) ;
#718 = B_SPLINE_CURVE_WITH_KNOTS ( 'NONE', 3,
 ( #795, #496, #302, #890, #1206, #208, #214, #997 ),
 .UNSPECIFIED., .F., .F.,
 ( 4, 2, 2, 4 ),
 ( 0.000000000000000000, 0.0002175688962325966151, 0.0004351377924651932301, 0.0008702755849303864602 ),
 .UNSPECIFIED. ) ;
#719 = DIRECTION ( 'NONE',  ( 1.000000000000000000, 0.000000000000000000, 0.000000000000000000 ) ) ;
#720 = DIRECTION ( 'NONE',  ( 1.000000000000000000, 0.000000000000000000, 0.000000000000000000 ) ) ;
#721 = ORIENTED_EDGE ( 'NONE', *, *, #401, .F. ) ;
#722 = DIRECTION ( 'NONE',  ( -0.000000000000000000, 0.000000000000000000, 1.000000000000000000 ) ) ;
#723 = FACE_OUTER_BOUND ( 'NONE', #10, .T. ) ;
#724 = ORIENTED_EDGE ( 'NONE', *, *, #1297, .T. ) ;
#725 = AXIS2_PLACEMENT_3D ( 'NONE', #101, #613, #1292 ) ;
#726 = DIRECTION ( 'NONE',  ( 0.000000000000000000, 0.000000000000000000, 1.000000000000000000 ) ) ;
#727 = APPLICATION_PROTOCOL_DEFINITION ( 'draft international standard', 'automotive_design', 1998, #935 ) ;
#728 = ORIENTED_EDGE ( 'NONE', *, *, #951, .F. ) ;
#729 = ADVANCED_FACE ( 'NONE', ( #82, #891, #885 ), #470, .F. ) ;
#730 = CARTESIAN_POINT ( 'NONE',  ( 8.000000000000000000, 0.000000000000000000, -10.00000000000000000 ) ) ;
#731 = B_SPLINE_CURVE_WITH_KNOTS ( 'NONE', 3,
 ( #773, #1170, #1086, #888 ),
 .UNSPECIFIED., .F., .F.,
 ( 4, 4 ),
 ( 2.518906325832745941E-07, 0.0006285678405679842639 ),
 .UNSPECIFIED. ) ;
#732 = DIRECTION ( 'NONE',  ( 0.000000000000000000, 0.000000000000000000, 1.000000000000000000 ) ) ;
#733 = ORIENTED_EDGE ( 'NONE', *, *, #118, .T. ) ;
#734 = ORIENTED_EDGE ( 'NONE', *, *, #461, .F. ) ;
#735 = ADVANCED_FACE ( 'NONE', ( #693 ), #1214, .T. ) ;
#736 = CARTESIAN_POINT ( 'NONE',  ( 9.322875655532294914, -1.500000000000000888, -0.8895955890460067739 ) ) ;
#737 = DIRECTION ( 'NONE',  ( 0.000000000000000000, 0.000000000000000000, 1.000000000000000000 ) ) ;
#738 = ORIENTED_EDGE ( 'NONE', *, *, #163, .F. ) ;
#739 = CARTESIAN_POINT ( 'NONE',  ( 3.298117617995811823, -4.397490157327751170, -7.347880794884119736E-16 ) ) ;
#740 = CARTESIAN_POINT ( 'NONE',  ( 10.16143782776614835, 1.500000000000000444, -5.070596828328917560 ) ) ;
#741 = DIRECTION ( 'NONE',  ( 0.000000000000000000, -1.000000000000000000, 0.000000000000000000 ) ) ;
#742 = ORIENTED_EDGE ( 'NONE', *, *, #1029, .T. ) ;
#743 = EDGE_CURVE ( 'NONE', #1123, #549, #982, .T. ) ;
#744 = AXIS2_PLACEMENT_3D ( 'NONE', #821, #1219, #1198 ) ;
#745 = CARTESIAN_POINT ( 'NONE',  ( 9.519143758667231836, -1.500000000000000444, -0.4901637568374901943 ) ) ;
#746 = CARTESIAN_POINT ( 'NONE',  ( 0.000000000000000000, -4.000000000000000000, -0.2500000000000002220 ) ) ;
#747 = ORIENTED_EDGE ( 'NONE', *, *, #848, .T. ) ;
#748 = VERTEX_POINT ( 'NONE', #377 ) ;
#749 = PRODUCT_DEFINITION ( 'UNKNOWN', '', #550, #958 ) ;
#750 = DIRECTION ( 'NONE',  ( 1.000000000000000000, 0.000000000000000000, 0.000000000000000000 ) ) ;
#751 = CYLINDRICAL_SURFACE ( 'NONE', #920, 1.000000000000000888 ) ;
#752 = ORIENTED_EDGE ( 'NONE', *, *, #90, .T. ) ;
#753 = ADVANCED_FACE ( 'NONE', ( #1173 ), #91, .T. ) ;
#754 = AXIS2_PLACEMENT_3D ( 'NONE', #630, #805, #924 ) ;
#755 = VERTEX_POINT ( 'NONE', #61 ) ;
#756 = EDGE_CURVE ( 'NONE', #1031, #830, #1027, .T. ) ;
#757 = CARTESIAN_POINT ( 'NONE',  ( 9.755334249940204927, -1.500000000000000666, -0.2536868031081851993 ) ) ;
#758 = CARTESIAN_POINT ( 'NONE',  ( 8.000000000000000000, -3.749999999999999112, -10.00000000000000000 ) ) ;
#759 = VERTEX_POINT ( 'NONE', #370 ) ;
#760 = ORIENTED_EDGE ( 'NONE', *, *, #1192, .F. ) ;
#761 = DIRECTION ( 'NONE',  ( 1.000000000000000000, -4.049876034805838724E-16, 0.000000000000000000 ) ) ;
#762 = CIRCLE ( 'NONE', #1200, 1.000000000000000888 ) ;
#763 = DIRECTION ( 'NONE',  ( -0.000000000000000000, 0.000000000000000000, 1.000000000000000000 ) ) ;
#764 = ADVANCED_FACE ( 'NONE', ( #681 ), #124, .T. ) ;
#765 = ORIENTED_EDGE ( 'NONE', *, *, #1185, .F. ) ;
#766 = ORIENTED_EDGE ( 'NONE', *, *, #332, .F. ) ;
#767 = DIRECTION ( 'NONE',  ( -0.5999999999999997558, -0.8000000000000002665, 0.000000000000000000 ) ) ;
#768 = DIRECTION ( 'NONE',  ( -0.000000000000000000, -0.000000000000000000, 1.000000000000000000 ) ) ;
#769 = ADVANCED_FACE ( 'NONE', ( #529 ), #897, .T. ) ;
#770 = ORIENTED_EDGE ( 'NONE', *, *, #246, .T. ) ;
#771 = DIRECTION ( 'NONE',  ( 0.000000000000000000, -0.7071067811865475727, 0.7071067811865475727 ) ) ;
#772 = VERTEX_POINT ( 'NONE', #1224 ) ;
#773 = CARTESIAN_POINT ( 'NONE',  ( 10.16143782776614835, 1.500000000000000444, -0.07059682832909891514 ) ) ;
#774 = CIRCLE ( 'NONE', #818, 3.000000000000000000 ) ;
#775 = DIRECTION ( 'NONE',  ( 1.000000000000000000, 0.000000000000000000, 0.000000000000000000 ) ) ;
#776 = CARTESIAN_POINT ( 'NONE',  ( 4.378117617995810562, 5.837490157327750673, -5.000000000000000888 ) ) ;
#777 = ORIENTED_EDGE ( 'NONE', *, *, #345, .F. ) ;
#778 = LINE ( 'NONE', #181, #358 ) ;
#779 = EDGE_LOOP ( 'NONE', ( #980, #433 ) ) ;
#780 = EDGE_CURVE ( 'NONE', #1183, #226, #161, .T. ) ;
#781 = DIRECTION ( 'NONE',  ( 0.000000000000000000, 0.000000000000000000, 1.000000000000000000 ) ) ;
#782 = CARTESIAN_POINT ( 'NONE',  ( 10.16143782776614835, 1.500000000000000444, -5.070596828328917560 ) ) ;
#783 = AXIS2_PLACEMENT_3D ( 'NONE', #1186, #691, #1088 ) ;
#784 = CARTESIAN_POINT ( 'NONE',  ( 8.000000000000000000, 0.000000000000000000, -0.9999999999999991118 ) ) ;
#785 = ORIENTED_EDGE ( 'NONE', *, *, #23, .T. ) ;
#786 = CARTESIAN_POINT ( 'NONE',  ( 0.000000000000000000, -4.000000000000000000, -10.00000000000000000 ) ) ;
#787 = PLANE ( 'NONE',  #402 ) ;
#788 = DIRECTION ( 'NONE',  ( 1.000000000000000000, 0.000000000000000000, 0.000000000000000000 ) ) ;
#789 = PRODUCT_RELATED_PRODUCT_CATEGORY ( 'part', '', ( #4 ) ) ;
#790 = CARTESIAN_POINT ( 'NONE',  ( 8.000000000000000000, 0.000000000000000000, -5.000000000000000888 ) ) ;
#791 = DIRECTION ( 'NONE',  ( 1.000000000000000000, 0.000000000000000000, 0.000000000000000000 ) ) ;
#792 = EDGE_CURVE ( 'NONE', #579, #1085, #774, .T. ) ;
#793 = ORIENTED_EDGE ( 'NONE', *, *, #871, .T. ) ;
#794 = DIRECTION ( 'NONE',  ( -1.000000000000000000, -8.099752069611675968E-17, 0.000000000000000000 ) ) ;
#795 = CARTESIAN_POINT ( 'NONE',  ( 11.26596113350895223, 1.842823343245074019, 0.000000000000000000 ) ) ;
#796 = EDGE_CURVE ( 'NONE', #39, #1227, #1279, .T. ) ;
#797 = DIRECTION ( 'NONE',  ( -0.000000000000000000, 0.000000000000000000, 1.000000000000000000 ) ) ;
#798 = DIRECTION ( 'NONE',  ( 0.000000000000000000, -0.000000000000000000, -1.000000000000000000 ) ) ;
#799 = AXIS2_PLACEMENT_3D ( 'NONE', #483, #86, #64 ) ;
#800 = VERTEX_POINT ( 'NONE', #713 ) ;
#801 = AXIS2_PLACEMENT_3D ( 'NONE', #944, #937, #542 ) ;
#802 = AXIS2_PLACEMENT_3D ( 'NONE', #1043, #1054, #954 ) ;
#803 = DIRECTION ( 'NONE',  ( 0.000000000000000000, 0.000000000000000000, 1.000000000000000000 ) ) ;
#804 = AXIS2_PLACEMENT_3D ( 'NONE', #281, #689, #472 ) ;
#805 = DIRECTION ( 'NONE',  ( 0.000000000000000000, -0.000000000000000000, -1.000000000000000000 ) ) ;
#806 = CARTESIAN_POINT ( 'NONE',  ( 0.000000000000000000, -3.749999999999998224, -10.00000000000000000 ) ) ;
#807 = EDGE_LOOP ( 'NONE', ( #813, #256, #429, #212 ) ) ;
#808 = CARTESIAN_POINT ( 'NONE',  ( 10.69165060301211767, -1.147659581434473663, -5.002053235883826332 ) ) ;
#809 = DIRECTION ( 'NONE',  ( 0.000000000000000000, 0.000000000000000000, 1.000000000000000000 ) ) ;
#810 = ORIENTED_EDGE ( 'NONE', *, *, #1118, .T. ) ;
#811 = DIRECTION ( 'NONE',  ( 1.000000000000000000, 0.000000000000000000, 0.000000000000000000 ) ) ;
#812 = CARTESIAN_POINT ( 'NONE',  ( 8.000000000000000000, -4.000000000000000000, -10.00000000000000000 ) ) ;
#813 = ORIENTED_EDGE ( 'NONE', *, *, #461, .T. ) ;
#814 = DIRECTION ( 'NONE',  ( 1.224646799147353207E-16, 1.000000000000000000, 0.000000000000000000 ) ) ;
#815 = ORIENTED_EDGE ( 'NONE', *, *, #561, .F. ) ;
#816 = CARTESIAN_POINT ( 'NONE',  ( 0.000000000000000000, 0.000000000000000000, 0.000000000000000000 ) ) ;
#817 = DIRECTION ( 'NONE',  ( 0.000000000000000000, -0.000000000000000000, -1.000000000000000000 ) ) ;
#818 = AXIS2_PLACEMENT_3D ( 'NONE', #1215, #998, #623 ) ;
#819 = VERTEX_POINT ( 'NONE', #203 ) ;
#820 = AXIS2_PLACEMENT_3D ( 'NONE', #75, #1078, #1167 ) ;
#821 = CARTESIAN_POINT ( 'NONE',  ( 0.000000000000000000, 0.000000000000000000, 0.000000000000000000 ) ) ;
#822 = EDGE_LOOP ( 'NONE', ( #398, #1035, #1150, #887, #347, #1147 ) ) ;
#823 = DIRECTION ( 'NONE',  ( 1.000000000000000000, 0.000000000000000000, 0.000000000000000000 ) ) ;
#824 = CARTESIAN_POINT ( 'NONE',  ( 10.00000000000000000, 0.000000000000000000, -10.00000000000000000 ) ) ;
#825 = ORIENTED_EDGE ( 'NONE', *, *, #1107, .F. ) ;
#826 = AXIS2_PLACEMENT_3D ( 'NONE', #1171, #390, #788 ) ;
#827 = ORIENTED_EDGE ( 'NONE', *, *, #481, .T. ) ;
#828 = DIRECTION ( 'NONE',  ( -0.000000000000000000, 0.000000000000000000, 1.000000000000000000 ) ) ;
#829 = CARTESIAN_POINT ( 'NONE',  ( 11.23407551857891917, 2.295311494923049533, -5.677549362442189995 ) ) ;
#830 = VERTEX_POINT ( 'NONE', #414 ) ;
#831 = DIRECTION ( 'NONE',  ( -1.000000000000000000, 0.000000000000000000, 0.000000000000000000 ) ) ;
#832 = DIRECTION ( 'NONE',  ( 0.000000000000000000, 0.000000000000000000, -1.000000000000000000 ) ) ;
#833 = EDGE_CURVE ( 'NONE', #473, #116, #701, .T. ) ;
#834 =( NAMED_UNIT ( * ) PLANE_ANGLE_UNIT ( ) SI_UNIT ( $, .RADIAN. ) );
#835 = VERTEX_POINT ( 'NONE', #223 ) ;
#836 = AXIS2_PLACEMENT_3D ( 'NONE', #784, #797, #190 ) ;
#837 = B_SPLINE_CURVE_WITH_KNOTS ( 'NONE', 3,
 ( #1249, #947, #445, #47 ),
 .UNSPECIFIED., .F., .F.,
 ( 4, 4 ),
 ( 4.690975831039127486E-18, 0.0006283159499665706346 ),
 .UNSPECIFIED. ) ;
#838 = ORIENTED_EDGE ( 'NONE', *, *, #46, .F. ) ;
#839 = CONICAL_SURFACE ( 'NONE', #341, 3.750000000000002665, 0.7853981633974447263 ) ;
#840 = CARTESIAN_POINT ( 'NONE',  ( 9.951208153501406528, -1.500000000000000888, -0.1391814516770050747 ) ) ;
#841 = PRESENTATION_STYLE_ASSIGNMENT (( #548 ) ) ;
#842 = ORIENTED_EDGE ( 'NONE', *, *, #1012, .T. ) ;
#843 = CIRCLE ( 'NONE', #1178, 1.000000000000000000 ) ;
#844 = DIRECTION ( 'NONE',  ( 0.8000000000000001554, 0.5999999999999998668, 0.000000000000000000 ) ) ;
#845 = LINE ( 'NONE', #456, #1263 ) ;
#846 = FACE_OUTER_BOUND ( 'NONE', #527, .T. ) ;
#847 = ORIENTED_EDGE ( 'NONE', *, *, #1222, .F. ) ;
#848 = EDGE_CURVE ( 'NONE', #668, #27, #585, .T. ) ;
#849 = ORIENTED_EDGE ( 'NONE', *, *, #1185, .T. ) ;
#850 = CARTESIAN_POINT ( 'NONE',  ( 9.322875655532293138, -1.500000000000000888, -0.9999999999999991118 ) ) ;
#851 = CARTESIAN_POINT ( 'NONE',  ( 11.03020539631509500, 2.611102306717008936, -0.2500000000000002220 ) ) ;
#852 = ORIENTED_EDGE ( 'NONE', *, *, #192, .T. ) ;
#853 = ORIENTED_EDGE ( 'NONE', *, *, #367, .F. ) ;
#854 = ADVANCED_FACE ( 'NONE', ( #1201 ), #526, .T. ) ;
#855 = PLANE ( 'NONE',  #443 ) ;
#856 = CARTESIAN_POINT ( 'NONE',  ( 11.16143782776615012, -1.500000000000000444, -7.347880794884119736E-16 ) ) ;
#857 = VECTOR ( 'NONE', #1015, 1000.000000000000114 ) ;
#858 = DIRECTION ( 'NONE',  ( -0.000000000000000000, -0.000000000000000000, -1.000000000000000000 ) ) ;
#859 = ORIENTED_EDGE ( 'NONE', *, *, #43, .T. ) ;
#860 = EDGE_LOOP ( 'NONE', ( #357, #373, #827, #1011, #406, #183 ) ) ;
#861 = DIRECTION ( 'NONE',  ( -8.099752069611675968E-17, 1.000000000000000000, 0.000000000000000000 ) ) ;
#862 = AXIS2_PLACEMENT_3D ( 'NONE', #563, #768, #868 ) ;
#863 = CARTESIAN_POINT ( 'NONE',  ( 11.00000000000000178, 0.000000000000000000, -6.000000000000000888 ) ) ;
#864 = DIRECTION ( 'NONE',  ( 0.000000000000000000, -0.000000000000000000, -1.000000000000000000 ) ) ;
#865 = ORIENTED_EDGE ( 'NONE', *, *, #128, .F. ) ;
#866 = DIRECTION ( 'NONE',  ( 1.000000000000000000, 0.000000000000000000, 0.000000000000000000 ) ) ;
#867 = CARTESIAN_POINT ( 'NONE',  ( 0.000000000000000000, 4.000000000000000000, -9.749999999999998224 ) ) ;
#868 = DIRECTION ( 'NONE',  ( 1.000000000000000000, 0.000000000000000000, 0.000000000000000000 ) ) ;
#869 = CARTESIAN_POINT ( 'NONE',  ( 0.000000000000000000, 0.000000000000000000, -10.00000000000000000 ) ) ;
#870 = EDGE_CURVE ( 'NONE', #800, #748, #608, .T. ) ;
#871 = EDGE_CURVE ( 'NONE', #1121, #1016, #1004, .T. ) ;
#872 = ORIENTED_EDGE ( 'NONE', *, *, #51, .T. ) ;
#873 = DIRECTION ( 'NONE',  ( 0.000000000000000000, -0.000000000000000000, -1.000000000000000000 ) ) ;
#874 = LINE ( 'NONE', #686, #504 ) ;
#875 = AXIS2_PLACEMENT_3D ( 'NONE', #262, #932, #1138 ) ;
#876 = CARTESIAN_POINT ( 'NONE',  ( 10.16143782776614835, -1.500000000000000000, -5.070596828328917560 ) ) ;
#877 = LINE ( 'NONE', #1076, #1047 ) ;
#878 = ORIENTED_EDGE ( 'NONE', *, *, #475, .F. ) ;
#879 = CARTESIAN_POINT ( 'NONE',  ( 11.03648963377736081, 1.406288854508406905, -5.045348241870953210 ) ) ;
#880 = CARTESIAN_POINT ( 'NONE',  ( 9.955084320779739926, -1.500000000000000888, -5.151011690189669423 ) ) ;
#881 = ADVANCED_FACE ( 'NONE', ( #310 ), #610, .T. ) ;
#882 = ADVANCED_BREP_SHAPE_REPRESENTATION ( 'Cord Clip 2', ( #590, #83 ), #1220 ) ;
#883 = LINE ( 'NONE', #260, #1053 ) ;
#884 = AXIS2_PLACEMENT_3D ( 'NONE', #970, #383, #1265 ) ;
#885 = FACE_BOUND ( 'NONE', #909, .T. ) ;
#886 = FACE_OUTER_BOUND ( 'NONE', #199, .T. ) ;
#887 = ORIENTED_EDGE ( 'NONE', *, *, #95, .F. ) ;
#888 = CARTESIAN_POINT ( 'NONE',  ( 10.66143782776614657, 1.125000000000000222, -0.006130302267793284743 ) ) ;
#889 = EDGE_CURVE ( 'NONE', #965, #1123, #11, .T. ) ;
#890 = CARTESIAN_POINT ( 'NONE',  ( 11.26456887275372765, 2.101330148836700662, -0.1319554405502030014 ) ) ;
#891 = FACE_BOUND ( 'NONE', #779, .T. ) ;
#892 = FACE_OUTER_BOUND ( 'NONE', #807, .T. ) ;
#893 = ORIENTED_EDGE ( 'NONE', *, *, #269, .T. ) ;
#894 = LINE ( 'NONE', #418, #236 ) ;
#895 = EDGE_CURVE ( 'NONE', #830, #1031, #206, .T. ) ;
#896 = CIRCLE ( 'NONE', #478, 4.000000000000000000 ) ;
#897 = CYLINDRICAL_SURFACE ( 'NONE', #266, 4.000000000000000000 ) ;
#898 = CARTESIAN_POINT ( 'NONE',  ( 11.16143782776614835, 1.499999999999996891, -5.000000000000000888 ) ) ;
#899 = ORIENTED_EDGE ( 'NONE', *, *, #382, .F. ) ;
#900 = VECTOR ( 'NONE', #59, 1000.000000000000000 ) ;
#901 = CARTESIAN_POINT ( 'NONE',  ( 10.72208246555941713, -1.170483478344950257, -5.000000000000000888 ) ) ;
#902 = EDGE_LOOP ( 'NONE', ( #202, #560, #321, #1156 ) ) ;
#903 = AXIS2_PLACEMENT_3D ( 'NONE', #706, #100, #307 ) ;
#904 = CARTESIAN_POINT ( 'NONE',  ( 8.000000000000000000, -3.750000000000001776, 0.000000000000000000 ) ) ;
#905 = CARTESIAN_POINT ( 'NONE',  ( -3.750000000000001776, 0.000000000000000000, 0.000000000000000000 ) ) ;
#906 = ORIENTED_EDGE ( 'NONE', *, *, #401, .T. ) ;
#907 = DIRECTION ( 'NONE',  ( 0.000000000000000000, -0.000000000000000000, -1.000000000000000000 ) ) ;
#908 = LINE ( 'NONE', #17, #45 ) ;
#909 = EDGE_LOOP ( 'NONE', ( #205, #67 ) ) ;
#910 = CIRCLE ( 'NONE', #625, 4.000000000000000000 ) ;
#911 = DIRECTION ( 'NONE',  ( -1.000000000000000000, 0.000000000000000000, 0.000000000000000000 ) ) ;
#912 = EDGE_CURVE ( 'NONE', #615, #220, #940, .T. ) ;
#913 = DIRECTION ( 'NONE',  ( 1.000000000000000000, 0.000000000000000000, 0.000000000000000000 ) ) ;
#914 = EDGE_LOOP ( 'NONE', ( #1144, #24, #734, #847 ) ) ;
#915 = CARTESIAN_POINT ( 'NONE',  ( 0.000000000000000000, 0.000000000000000000, -10.00000000000000000 ) ) ;
#916 = ORIENTED_EDGE ( 'NONE', *, *, #227, .T. ) ;
#917 = DIRECTION ( 'NONE',  ( 0.000000000000000000, 0.000000000000000000, 1.000000000000000000 ) ) ;
#918 = AXIS2_PLACEMENT_3D ( 'NONE', #113, #6, #817 ) ;
#919 = CARTESIAN_POINT ( 'NONE',  ( 8.000000000000000000, 0.000000000000000000, -6.000000000000000888 ) ) ;
#920 = AXIS2_PLACEMENT_3D ( 'NONE', #339, #858, #1259 ) ;
#921 = ORIENTED_EDGE ( 'NONE', *, *, #1233, .T. ) ;
#922 = CIRCLE ( 'NONE', #288, 1.000000000000000000 ) ;
#923 = ORIENTED_EDGE ( 'NONE', *, *, #286, .F. ) ;
#924 = DIRECTION ( 'NONE',  ( 1.000000000000000000, 0.000000000000000000, 0.000000000000000000 ) ) ;
#925 = AXIS2_PLACEMENT_3D ( 'NONE', #517, #511, #1022 ) ;
#926 = DIRECTION ( 'NONE',  ( 0.000000000000000000, 0.000000000000000000, 1.000000000000000000 ) ) ;
#927 = EDGE_LOOP ( 'NONE', ( #575, #712, #1223, #330 ) ) ;
#928 = CIRCLE ( 'NONE', #783, 3.750000000000001776 ) ;
#929 = ADVANCED_FACE ( 'NONE', ( #1111 ), #210, .T. ) ;
#930 = ORIENTED_EDGE ( 'NONE', *, *, #966, .F. ) ;
#931 = DIRECTION ( 'NONE',  ( 1.000000000000000000, 0.000000000000000000, 0.000000000000000000 ) ) ;
#932 = DIRECTION ( 'NONE',  ( 1.224646799147353207E-16, 1.000000000000000000, 0.000000000000000000 ) ) ;
#933 = VERTEX_POINT ( 'NONE', #423 ) ;
#934 = VERTEX_POINT ( 'NONE', #229 ) ;
#935 = APPLICATION_CONTEXT ( 'automotive_design' ) ;
#936 = CARTESIAN_POINT ( 'NONE',  ( 8.000000000000000000, 0.000000000000000000, -0.2500000000000002220 ) ) ;
#937 = DIRECTION ( 'NONE',  ( 0.000000000000000000, 0.000000000000000000, 1.000000000000000000 ) ) ;
#938 = EDGE_CURVE ( 'NONE', #939, #759, #715, .T. ) ;
#939 = VERTEX_POINT ( 'NONE', #1136 ) ;
#940 = CIRCLE ( 'NONE', #1110, 4.000000000000000000 ) ;
#941 = PLANE ( 'NONE',  #676 ) ;
#942 = EDGE_CURVE ( 'NONE', #27, #98, #1014, .T. ) ;
#943 = CARTESIAN_POINT ( 'NONE',  ( 10.75247078846567206, 1.193274720524640564, -6.505213034913026604E-16 ) ) ;
#944 = CARTESIAN_POINT ( 'NONE',  ( 8.000000000000000000, 0.000000000000000000, -10.00000000000000000 ) ) ;
#945 = ORIENTED_EDGE ( 'NONE', *, *, #1284, .F. ) ;
#946 = CIRCLE ( 'NONE', #725, 2.000000000000000000 ) ;
#947 = CARTESIAN_POINT ( 'NONE',  ( 10.49396502364228212, -1.250604603092901668, -5.017849812405107635 ) ) ;
#948 = CARTESIAN_POINT ( 'NONE',  ( 3.000000000000000000, 0.000000000000000000, 4.336808689942017736E-16 ) ) ;
#949 = DIRECTION ( 'NONE',  ( -1.000000000000000000, 0.000000000000000000, -0.000000000000000000 ) ) ;
#950 = ORIENTED_EDGE ( 'NONE', *, *, #1212, .T. ) ;
#951 = EDGE_CURVE ( 'NONE', #325, #1085, #762, .T. ) ;
#952 = CIRCLE ( 'NONE', #448, 3.750000000000000000 ) ;
#953 = ORIENTED_EDGE ( 'NONE', *, *, #576, .T. ) ;
#954 = DIRECTION ( 'NONE',  ( 1.000000000000000000, 0.000000000000000000, 0.000000000000000000 ) ) ;
#955 = DIRECTION ( 'NONE',  ( 0.000000000000000000, -1.000000000000000000, 0.000000000000000000 ) ) ;
#956 = ORIENTED_EDGE ( 'NONE', *, *, #1203, .F. ) ;
#957 = VERTEX_POINT ( 'NONE', #740 ) ;
#958 = PRODUCT_DEFINITION_CONTEXT ( 'detailed design', #1146, 'design' ) ;
#959 = DIRECTION ( 'NONE',  ( 0.7071067811865474617, 0.000000000000000000, 0.7071067811865474617 ) ) ;
#960 = B_SPLINE_CURVE_WITH_KNOTS ( 'NONE', 3,
 ( #65, #469, #1179, #178, #484, #583 ),
 .UNSPECIFIED., .F., .F.,
 ( 4, 2, 4 ),
 ( 8.741117365843378158E-19, 0.0004345965765022417621, 0.0008691931530044826569 ),
 .UNSPECIFIED. ) ;
#961 = CARTESIAN_POINT ( 'NONE',  ( 9.949238780964931195, 1.500000000000000222, -5.139823933163582659 ) ) ;
#962 = AXIS2_PLACEMENT_3D ( 'NONE', #919, #1020, #913 ) ;
#963 = AXIS2_PLACEMENT_3D ( 'NONE', #690, #861, #794 ) ;
#964 = CARTESIAN_POINT ( 'NONE',  ( 11.14213319924682644, -2.461076710077083174, -5.838292687221149357 ) ) ;
#965 = VERTEX_POINT ( 'NONE', #1039 ) ;
#966 = EDGE_CURVE ( 'NONE', #220, #27, #654, .T. ) ;
#967 = AXIS2_PLACEMENT_3D ( 'NONE', #268, #1092, #791 ) ;
#968 = CARTESIAN_POINT ( 'NONE',  ( 10.16143782776614835, -1.500000000000000000, -5.070596828328917560 ) ) ;
#969 = EDGE_CURVE ( 'NONE', #1197, #1228, #1140, .T. ) ;
#970 = CARTESIAN_POINT ( 'NONE',  ( 0.000000000000000000, 0.000000000000000000, -9.000000000000001776 ) ) ;
#971 = DIRECTION ( 'NONE',  ( 1.000000000000000000, 0.000000000000000000, 0.000000000000000000 ) ) ;
#972 = VERTEX_POINT ( 'NONE', #247 ) ;
#973 = FACE_BOUND ( 'NONE', #465, .T. ) ;
#974 = ORIENTED_EDGE ( 'NONE', *, *, #1082, .T. ) ;
#975 = CARTESIAN_POINT ( 'NONE',  ( 0.000000000000000000, -4.000000000000000000, -0.2500000000000002220 ) ) ;
#976 = DIRECTION ( 'NONE',  ( -0.000000000000000000, 0.000000000000000000, 1.000000000000000000 ) ) ;
#977 = CARTESIAN_POINT ( 'NONE',  ( 6.000000000000000000, 2.449293598294705428E-16, -9.000000000000001776 ) ) ;
#978 = ORIENTED_EDGE ( 'NONE', *, *, #871, .F. ) ;
#979 = CARTESIAN_POINT ( 'NONE',  ( 10.75247078846567383, 1.193274720524641452, -5.000000000000000888 ) ) ;
#980 = ORIENTED_EDGE ( 'NONE', *, *, #409, .T. ) ;
#981 = PLANE ( 'NONE',  #963 ) ;
#982 = CIRCLE ( 'NONE', #1169, 2.000000000000000000 ) ;
#983 = CARTESIAN_POINT ( 'NONE',  ( 8.000000000000000000, 3.749999999999999112, -10.00000000000000000 ) ) ;
#984 = CIRCLE ( 'NONE', #1025, 4.000000000000000000 ) ;
#985 = CARTESIAN_POINT ( 'NONE',  ( 11.09046913368703180, -2.541165750911897003, -5.920049069940016118 ) ) ;
#986 = DIRECTION ( 'NONE',  ( 0.000000000000000000, -0.000000000000000000, -1.000000000000000000 ) ) ;
#987 = ADVANCED_FACE ( 'NONE', ( #343 ), #238, .F. ) ;
#988 = ORIENTED_EDGE ( 'NONE', *, *, #128, .T. ) ;
#989 = CARTESIAN_POINT ( 'NONE',  ( 0.000000000000000000, -3.749999999999998224, -10.00000000000000000 ) ) ;
#990 = CARTESIAN_POINT ( 'NONE',  ( 11.16143782776614835, 1.499999999999996891, -7.347880794884119736E-16 ) ) ;
#991 = AXIS2_PLACEMENT_3D ( 'NONE', #53, #541, #558 ) ;
#992 = DIRECTION ( 'NONE',  ( 1.000000000000000000, 0.000000000000000000, 0.000000000000000000 ) ) ;
#993 = DIRECTION ( 'NONE',  ( 0.000000000000000000, -0.7071067811865451302, 0.7071067811865500152 ) ) ;
#994 = ORIENTED_EDGE ( 'NONE', *, *, #1273, .T. ) ;
#995 = EDGE_CURVE ( 'NONE', #957, #1227, #845, .T. ) ;
#996 = DIRECTION ( 'NONE',  ( 1.000000000000000000, 0.000000000000000000, 0.000000000000000000 ) ) ;
#997 = CARTESIAN_POINT ( 'NONE',  ( 11.03020539631509500, 2.611102306717008936, -0.2500000000000002220 ) ) ;
#998 = DIRECTION ( 'NONE',  ( -0.000000000000000000, 0.000000000000000000, 1.000000000000000000 ) ) ;
#999 = CYLINDRICAL_SURFACE ( 'NONE', #820, 2.000000000000000000 ) ;
#1000 = ORIENTED_EDGE ( 'NONE', *, *, #420, .F. ) ;
#1001 = LINE ( 'NONE', #300, #169 ) ;
#1002 = CARTESIAN_POINT ( 'NONE',  ( 10.27265404723632081, -1.958326730037756702, -5.000000000000000888 ) ) ;
#1003 = EDGE_LOOP ( 'NONE', ( #290, #752, #978, #765, #416 ) ) ;
#1004 = CIRCLE ( 'NONE', #438, 1.000000000000000888 ) ;
#1005 = CARTESIAN_POINT ( 'NONE',  ( 9.322875655532298467, 1.500000000000000444, -0.8896385810635876190 ) ) ;
#1006 = LINE ( 'NONE', #1226, #1134 ) ;
#1007 = ORIENTED_EDGE ( 'NONE', *, *, #1273, .F. ) ;
#1008 = AXIS2_PLACEMENT_3D ( 'NONE', #1158, #648, #259 ) ;
#1009 = CARTESIAN_POINT ( 'NONE',  ( 8.000000000000000000, -4.000000000000000000, -9.749999999999998224 ) ) ;
#1010 = DIRECTION ( 'NONE',  ( 0.000000000000000000, 0.000000000000000000, 1.000000000000000000 ) ) ;
#1011 = ORIENTED_EDGE ( 'NONE', *, *, #137, .T. ) ;
#1012 = EDGE_CURVE ( 'NONE', #7, #748, #1074, .T. ) ;
#1013 = DIRECTION ( 'NONE',  ( 1.000000000000000000, 0.000000000000000000, 0.000000000000000000 ) ) ;
#1014 = CIRCLE ( 'NONE', #991, 4.000000000000000000 ) ;
#1015 = DIRECTION ( 'NONE',  ( 0.000000000000000000, -0.7071067811865474617, 0.7071067811865474617 ) ) ;
#1016 = VERTEX_POINT ( 'NONE', #856 ) ;
#1017 = DIRECTION ( 'NONE',  ( -0.000000000000000000, 0.000000000000000000, 1.000000000000000000 ) ) ;
#1018 = VERTEX_POINT ( 'NONE', #143 ) ;
#1019 = CARTESIAN_POINT ( 'NONE',  ( 0.000000000000000000, 0.000000000000000000, -0.9999999999999991118 ) ) ;
#1020 = DIRECTION ( 'NONE',  ( -0.000000000000000000, 0.000000000000000000, 1.000000000000000000 ) ) ;
#1021 = ORIENTED_EDGE ( 'NONE', *, *, #1222, .T. ) ;
#1022 = DIRECTION ( 'NONE',  ( 1.000000000000000000, 0.000000000000000000, 0.000000000000000000 ) ) ;
#1023 = VERTEX_POINT ( 'NONE', #34 ) ;
#1024 = CARTESIAN_POINT ( 'NONE',  ( 9.951659224452562569, 1.500000000000000444, -0.1390342958037920351 ) ) ;
#1025 = AXIS2_PLACEMENT_3D ( 'NONE', #425, #1120, #499 ) ;
#1026 = DIRECTION ( 'NONE',  ( 0.000000000000000000, 0.000000000000000000, -1.000000000000000000 ) ) ;
#1027 = CIRCLE ( 'NONE', #77, 3.000000000000000000 ) ;
#1028 = VERTEX_POINT ( 'NONE', #331 ) ;
#1029 = EDGE_CURVE ( 'NONE', #365, #819, #1260, .T. ) ;
#1030 = AXIS2_PLACEMENT_3D ( 'NONE', #1084, #873, #580 ) ;
#1031 = VERTEX_POINT ( 'NONE', #948 ) ;
#1032 = FACE_OUTER_BOUND ( 'NONE', #914, .T. ) ;
#1033 = AXIS2_PLACEMENT_3D ( 'NONE', #1100, #502, #996 ) ;
#1034 = LINE ( 'NONE', #305, #1194 ) ;
#1035 = ORIENTED_EDGE ( 'NONE', *, *, #382, .T. ) ;
#1036 = VECTOR ( 'NONE', #720, 1000.000000000000000 ) ;
#1037 = ORIENTED_EDGE ( 'NONE', *, *, #481, .F. ) ;
#1038 = EDGE_CURVE ( 'NONE', #303, #1189, #371, .T. ) ;
#1039 = CARTESIAN_POINT ( 'NONE',  ( -2.000000000000000000, 2.449293598294706414E-16, -9.000000000000001776 ) ) ;
#1040 = LINE ( 'NONE', #38, #122 ) ;
#1041 = EDGE_LOOP ( 'NONE', ( #556, #906, #674, #22 ) ) ;
#1042 = EDGE_CURVE ( 'NONE', #325, #549, #649, .T. ) ;
#1043 = CARTESIAN_POINT ( 'NONE',  ( 8.000000000000000000, 0.000000000000000000, -9.000000000000001776 ) ) ;
#1044 = CARTESIAN_POINT ( 'NONE',  ( 10.69188125361089092, -1.147832569383553381, -0.002022110712600456214 ) ) ;
#1045 = FACE_OUTER_BOUND ( 'NONE', #18, .T. ) ;
#1046 = ORIENTED_EDGE ( 'NONE', *, *, #241, .T. ) ;
#1047 = VECTOR ( 'NONE', #1195, 1000.000000000000114 ) ;
#1048 = VECTOR ( 'NONE', #926, 1000.000000000000000 ) ;
#1049 = FACE_OUTER_BOUND ( 'NONE', #1141, .T. ) ;
#1050 = CARTESIAN_POINT ( 'NONE',  ( 10.72222455035035438, -1.170590041938151193, 2.428749781306730964E-14 ) ) ;
#1051 = DIRECTION ( 'NONE',  ( 0.000000000000000000, -0.000000000000000000, -1.000000000000000000 ) ) ;
#1052 = ORIENTED_EDGE ( 'NONE', *, *, #912, .F. ) ;
#1053 = VECTOR ( 'NONE', #666, 1000.000000000000000 ) ;
#1054 = DIRECTION ( 'NONE',  ( -0.000000000000000000, 0.000000000000000000, 1.000000000000000000 ) ) ;
#1055 = CARTESIAN_POINT ( 'NONE',  ( 9.451145586305901958, -1.500000000000000666, -0.5791917950761396039 ) ) ;
#1056 =( NAMED_UNIT ( * ) SI_UNIT ( $, .STERADIAN. ) SOLID_ANGLE_UNIT ( ) );
#1057 = ORIENTED_EDGE ( 'NONE', *, *, #148, .T. ) ;
#1058 = B_SPLINE_CURVE_WITH_KNOTS ( 'NONE', 3,
 ( #129, #1209, #829, #1230, #311, #12 ),
 .UNSPECIFIED., .F., .F.,
 ( 4, 2, 4 ),
 ( -7.302983331199614317E-06, 0.0007335748895104687211, 0.001474452762352136941 ),
 .UNSPECIFIED. ) ;
#1059 = LINE ( 'NONE', #739, #566 ) ;
#1060 = EDGE_CURVE ( 'NONE', #759, #939, #1096, .T. ) ;
#1061 = DIRECTION ( 'NONE',  ( 0.000000000000000000, 0.000000000000000000, -1.000000000000000000 ) ) ;
#1062 = DIRECTION ( 'NONE',  ( 0.8000000000000002665, -0.5999999999999997558, 0.000000000000000000 ) ) ;
#1063 = EDGE_LOOP ( 'NONE', ( #1267, #849, #1290, #50 ) ) ;
#1064 = AXIS2_PLACEMENT_3D ( 'NONE', #776, #492, #1062 ) ;
#1065 = ADVANCED_FACE ( 'NONE', ( #1153 ), #510, .T. ) ;
#1066 = CARTESIAN_POINT ( 'NONE',  ( 11.03020539631509500, -2.611102306717008936, -6.000000000000000888 ) ) ;
#1067 = CARTESIAN_POINT ( 'NONE',  ( 9.753611786366308323, 1.500000000000000222, -5.255296918503002068 ) ) ;
#1068 = VECTOR ( 'NONE', #1264, 1000.000000000000000 ) ;
#1069 = CARTESIAN_POINT ( 'NONE',  ( 11.24811818855931911, -2.199040643418795238, -5.602363647021894266 ) ) ;
#1070 = ORIENTED_EDGE ( 'NONE', *, *, #951, .T. ) ;
#1071 = DIRECTION ( 'NONE',  ( 1.000000000000000000, 0.000000000000000000, 0.000000000000000000 ) ) ;
#1072 = ORIENTED_EDGE ( 'NONE', *, *, #152, .T. ) ;
#1073 = CARTESIAN_POINT ( 'NONE',  ( 9.520176205586123430, -1.500000000000000666, -5.489045207505166779 ) ) ;
#1074 = CIRCLE ( 'NONE', #619, 4.000000000000000000 ) ;
#1075 = DIRECTION ( 'NONE',  ( 1.000000000000000000, 0.000000000000000000, 0.000000000000000000 ) ) ;
#1076 = CARTESIAN_POINT ( 'NONE',  ( 8.000000000000000000, 3.750000000000002665, 0.000000000000000000 ) ) ;
#1077 = ORIENTED_EDGE ( 'NONE', *, *, #717, .T. ) ;
#1078 = DIRECTION ( 'NONE',  ( 0.000000000000000000, 0.000000000000000000, 1.000000000000000000 ) ) ;
#1079 = ADVANCED_FACE ( 'NONE', ( #1032 ), #1286, .T. ) ;
#1080 = CARTESIAN_POINT ( 'NONE',  ( 10.69165060301211767, 1.147659581434473219, -5.002053235883827220 ) ) ;
#1081 = DIRECTION ( 'NONE',  ( 1.000000000000000000, 0.000000000000000000, 0.000000000000000000 ) ) ;
#1082 = EDGE_CURVE ( 'NONE', #385, #141, #435, .T. ) ;
#1083 = CARTESIAN_POINT ( 'NONE',  ( 11.03020539631509500, -2.611102306717008936, -6.000000000000000888 ) ) ;
#1084 = CARTESIAN_POINT ( 'NONE',  ( 8.000000000000000000, 0.000000000000000000, -9.000000000000001776 ) ) ;
#1085 = VERTEX_POINT ( 'NONE', #679 ) ;
#1086 = CARTESIAN_POINT ( 'NONE',  ( 10.49396510188369547, 1.250604544411840990, -0.01784980692984790285 ) ) ;
#1087 = AXIS2_PLACEMENT_3D ( 'NONE', #790, #572, #578 ) ;
#1088 = DIRECTION ( 'NONE',  ( 1.000000000000000000, 0.000000000000000000, 0.000000000000000000 ) ) ;
#1089 = AXIS2_PLACEMENT_3D ( 'NONE', #397, #771, #1071 ) ;
#1090 = DIRECTION ( 'NONE',  ( 1.000000000000000000, 0.000000000000000000, 0.000000000000000000 ) ) ;
#1091 = ADVANCED_FACE ( 'NONE', ( #1272 ), #369, .T. ) ;
#1092 = DIRECTION ( 'NONE',  ( 0.000000000000000000, 0.7071067811865500152, -0.7071067811865451302 ) ) ;
#1093 = ORIENTED_EDGE ( 'NONE', *, *, #1145, .T. ) ;
#1094 = DIRECTION ( 'NONE',  ( 0.000000000000000000, 0.000000000000000000, 1.000000000000000000 ) ) ;
#1095 = VECTOR ( 'NONE', #191, 1000.000000000000000 ) ;
#1096 = CIRCLE ( 'NONE', #428, 2.999999999999999112 ) ;
#1097 = DIRECTION ( 'NONE',  ( 0.000000000000000000, -0.000000000000000000, -1.000000000000000000 ) ) ;
#1098 = FACE_OUTER_BOUND ( 'NONE', #1242, .T. ) ;
#1099 = ORIENTED_EDGE ( 'NONE', *, *, #137, .F. ) ;
#1100 = CARTESIAN_POINT ( 'NONE',  ( 0.000000000000000000, 0.000000000000000000, 0.000000000000000000 ) ) ;
#1101 = CYLINDRICAL_SURFACE ( 'NONE', #466, 1.000000000000000888 ) ;
#1102 = VERTEX_POINT ( 'NONE', #983 ) ;
#1103 = CARTESIAN_POINT ( 'NONE',  ( 8.000000000000000000, 0.000000000000000000, -9.000000000000001776 ) ) ;
#1104 = DIRECTION ( 'NONE',  ( 0.000000000000000000, -0.7071067811865474617, 0.7071067811865474617 ) ) ;
#1105 = ORIENTED_EDGE ( 'NONE', *, *, #73, .F. ) ;
#1106 = CARTESIAN_POINT ( 'NONE',  ( 12.00000000000000000, 0.000000000000000000, -9.749999999999998224 ) ) ;
#1107 = EDGE_CURVE ( 'NONE', #549, #1123, #704, .T. ) ;
#1108 = PRODUCT_CONTEXT ( 'NONE', #935, 'mechanical' ) ;
#1109 = ORIENTED_EDGE ( 'NONE', *, *, #172, .F. ) ;
#1110 = AXIS2_PLACEMENT_3D ( 'NONE', #117, #96, #5 ) ;
#1111 = FACE_OUTER_BOUND ( 'NONE', #351, .T. ) ;
#1112 = CARTESIAN_POINT ( 'NONE',  ( 10.16143782776614835, -1.500000000000000000, -0.07059682832910152417 ) ) ;
#1113 = ORIENTED_EDGE ( 'NONE', *, *, #344, .T. ) ;
#1114 = CARTESIAN_POINT ( 'NONE',  ( 0.000000000000000000, -4.000000000000000000, -0.2500000000000002220 ) ) ;
#1115 = CARTESIAN_POINT ( 'NONE',  ( 3.000000000000000000, 0.000000000000000000, -0.9999999999999991118 ) ) ;
#1116 = EDGE_LOOP ( 'NONE', ( #760, #974, #449, #1166 ) ) ;
#1117 = CARTESIAN_POINT ( 'NONE',  ( 9.322875655532293138, 1.500000000000000444, -0.9999999999999956701 ) ) ;
#1118 = EDGE_CURVE ( 'NONE', #835, #710, #154, .T. ) ;
#1119 = CIRCLE ( 'NONE', #301, 4.000000000000000000 ) ;
#1120 = DIRECTION ( 'NONE',  ( -0.000000000000000000, -0.000000000000000000, 1.000000000000000000 ) ) ;
#1121 = VERTEX_POINT ( 'NONE', #476 ) ;
#1122 = FACE_OUTER_BOUND ( 'NONE', #1294, .T. ) ;
#1123 = VERTEX_POINT ( 'NONE', #363 ) ;
#1124 = DIRECTION ( 'NONE',  ( -0.7071067811865451302, 0.000000000000000000, -0.7071067811865500152 ) ) ;
#1125 = B_SPLINE_CURVE_WITH_KNOTS ( 'NONE', 3,
 ( #160, #66, #564, #485 ),
 .UNSPECIFIED., .F., .F.,
 ( 4, 4 ),
 ( 2.045668567712605528E-18, 0.0006283159499665649968 ),
 .UNSPECIFIED. ) ;
#1126 = ADVANCED_FACE ( 'NONE', ( #173 ), #277, .T. ) ;
#1127 = DIRECTION ( 'NONE',  ( -1.000000000000000000, 0.000000000000000000, 0.000000000000000000 ) ) ;
#1128 = ORIENTED_EDGE ( 'NONE', *, *, #1271, .T. ) ;
#1129 = ORIENTED_EDGE ( 'NONE', *, *, #656, .T. ) ;
#1130 = DIRECTION ( 'NONE',  ( 1.000000000000000000, 0.000000000000000000, 0.000000000000000000 ) ) ;
#1131 = ADVANCED_FACE ( 'NONE', ( #60 ), #680, .T. ) ;
#1132 = CARTESIAN_POINT ( 'NONE',  ( 8.000000000000000000, 4.000000000000000888, -9.749999999999998224 ) ) ;
#1133 = EDGE_LOOP ( 'NONE', ( #899, #132, #865, #442, #317, #1099 ) ) ;
#1134 = VECTOR ( 'NONE', #732, 1000.000000000000000 ) ;
#1135 = ORIENTED_EDGE ( 'NONE', *, *, #372, .T. ) ;
#1136 = CARTESIAN_POINT ( 'NONE',  ( 5.000000000000000888, 3.673940397442060361E-16, -10.00000000000000178 ) ) ;
#1137 = VECTOR ( 'NONE', #213, 1000.000000000000000 ) ;
#1138 = DIRECTION ( 'NONE',  ( -1.000000000000000000, 1.224646799147352961E-16, 0.000000000000000000 ) ) ;
#1139 = VERTEX_POINT ( 'NONE', #876 ) ;
#1140 = B_SPLINE_CURVE_WITH_KNOTS ( 'NONE', 3,
 ( #30, #1246, #546, #943 ),
 .UNSPECIFIED., .F., .F.,
 ( 4, 4 ),
 ( 2.479330550358096298E-07, 0.0001134677247251272305 ),
 .UNSPECIFIED. ) ;
#1141 = EDGE_LOOP ( 'NONE', ( #664, #275, #634, #421 ) ) ;
#1142 = CARTESIAN_POINT ( 'NONE',  ( 10.66143782776614657, -1.125000000000000222, -0.006130302267792417381 ) ) ;
#1143 = DIRECTION ( 'NONE',  ( 0.000000000000000000, 0.7071067811865451302, 0.7071067811865500152 ) ) ;
#1144 = ORIENTED_EDGE ( 'NONE', *, *, #51, .F. ) ;
#1145 = EDGE_CURVE ( 'NONE', #453, #957, #258, .T. ) ;
#1146 = APPLICATION_CONTEXT ( 'automotive_design' ) ;
#1147 = ORIENTED_EDGE ( 'NONE', *, *, #227, .F. ) ;
#1148 = CARTESIAN_POINT ( 'NONE',  ( 10.75247078846567206, -1.193274720524640564, -6.505213034913026604E-16 ) ) ;
#1149 = SURFACE_STYLE_FILL_AREA ( #145 ) ;
#1150 = ORIENTED_EDGE ( 'NONE', *, *, #192, .F. ) ;
#1151 = VECTOR ( 'NONE', #1124, 1000.000000000000114 ) ;
#1152 = ORIENTED_EDGE ( 'NONE', *, *, #1233, .F. ) ;
#1153 = FACE_OUTER_BOUND ( 'NONE', #1254, .T. ) ;
#1154 = DIRECTION ( 'NONE',  ( 1.000000000000000000, 0.000000000000000000, 0.000000000000000000 ) ) ;
#1155 = ORIENTED_EDGE ( 'NONE', *, *, #557, .T. ) ;
#1156 = ORIENTED_EDGE ( 'NONE', *, *, #646, .T. ) ;
#1157 = AXIS2_PLACEMENT_3D ( 'NONE', #338, #1240, #156 ) ;
#1158 = CARTESIAN_POINT ( 'NONE',  ( 0.000000000000000000, 0.000000000000000000, -10.00000000000000000 ) ) ;
#1159 = CARTESIAN_POINT ( 'NONE',  ( 8.000000000000000000, 0.000000000000000000, -6.000000000000000888 ) ) ;
#1160 = CARTESIAN_POINT ( 'NONE',  ( -3.000000000000000000, 3.673940397442059868E-16, -10.00000000000000178 ) ) ;
#1161 = EDGE_CURVE ( 'NONE', #39, #1028, #324, .T. ) ;
#1162 = VERTEX_POINT ( 'NONE', #159 ) ;
#1163 = CARTESIAN_POINT ( 'NONE',  ( 9.766182794468361905, -1.500000000000000444, -5.264231468973239458 ) ) ;
#1164 = CARTESIAN_POINT ( 'NONE',  ( 9.322875655532294914, 1.500000000000001332, -5.775191214973541598 ) ) ;
#1165 = CARTESIAN_POINT ( 'NONE',  ( 0.000000000000000000, 0.000000000000000000, -9.000000000000001776 ) ) ;
#1166 = ORIENTED_EDGE ( 'NONE', *, *, #1244, .T. ) ;
#1167 = DIRECTION ( 'NONE',  ( 1.000000000000000000, 0.000000000000000000, 0.000000000000000000 ) ) ;
#1168 = ORIENTED_EDGE ( 'NONE', *, *, #663, .T. ) ;
#1169 = AXIS2_PLACEMENT_3D ( 'NONE', #1274, #592, #992 ) ;
#1170 = CARTESIAN_POINT ( 'NONE',  ( 10.32773112351381606, 1.375280028189249881, -0.04458277724701038142 ) ) ;
#1171 = CARTESIAN_POINT ( 'NONE',  ( 8.000000000000000000, 0.000000000000000000, -10.00000000000000000 ) ) ;
#1172 = CLOSED_SHELL ( 'NONE', ( #881, #1131, #283, #244, #764, #735, #854, #410, #571, #1091, #769, #987, #352, #647, #14, #427, #31, #620, #539, #186, #729, #296, #1126, #28, #1079, #389, #929, #1065, #313, #37, #507, #304, #87, #35, #753, #658, #109, #624, #547, #1257, #631 ) ) ;
#1173 = FACE_OUTER_BOUND ( 'NONE', #1245, .T. ) ;
#1174 = ORIENTED_EDGE ( 'NONE', *, *, #489, .T. ) ;
#1175 = CIRCLE ( 'NONE', #1033, 3.750000000000001776 ) ;
#1176 = CARTESIAN_POINT ( 'NONE',  ( 11.00000000000000000, 0.000000000000000000, -6.000000000000000888 ) ) ;
#1177 = LINE ( 'NONE', #589, #900 ) ;
#1178 = AXIS2_PLACEMENT_3D ( 'NONE', #1115, #110, #308 ) ;
#1179 = CARTESIAN_POINT ( 'NONE',  ( 11.19487780795331844, -2.368991657832523856, -0.2251929284866307779 ) ) ;
#1180 = CARTESIAN_POINT ( 'NONE',  ( 3.298117617995811823, -4.397490157327751170, -5.000000000000000888 ) ) ;
#1181 = ORIENTED_EDGE ( 'NONE', *, *, #475, .T. ) ;
#1182 = DIRECTION ( 'NONE',  ( 0.000000000000000000, 0.000000000000000000, -1.000000000000000000 ) ) ;
#1183 = VERTEX_POINT ( 'NONE', #990 ) ;
#1184 = CARTESIAN_POINT ( 'NONE',  ( 8.000000000000000000, 0.000000000000000000, -10.00000000000000000 ) ) ;
#1185 = EDGE_CURVE ( 'NONE', #7, #1121, #960, .T. ) ;
#1186 = CARTESIAN_POINT ( 'NONE',  ( 0.000000000000000000, 0.000000000000000000, 0.000000000000000000 ) ) ;
#1187 = DIRECTION ( 'NONE',  ( -0.000000000000000000, 0.000000000000000000, 1.000000000000000000 ) ) ;
#1188 = LINE ( 'NONE', #786, #1262 ) ;
#1189 = VERTEX_POINT ( 'NONE', #491 ) ;
#1190 = VECTOR ( 'NONE', #1268, 1000.000000000000000 ) ;
#1191 = LINE ( 'NONE', #1285, #1298 ) ;
#1192 = EDGE_CURVE ( 'NONE', #385, #1018, #883, .T. ) ;
#1193 = CIRCLE ( 'NONE', #799, 2.000000000000000000 ) ;
#1194 = VECTOR ( 'NONE', #1104, 1000.000000000000114 ) ;
#1195 = DIRECTION ( 'NONE',  ( 0.000000000000000000, 0.7071067811865451302, -0.7071067811865500152 ) ) ;
#1196 = CARTESIAN_POINT ( 'NONE',  ( 8.000000000000000000, 0.000000000000000000, 0.000000000000000000 ) ) ;
#1197 = VERTEX_POINT ( 'NONE', #463 ) ;
#1198 = DIRECTION ( 'NONE',  ( -1.000000000000000000, 0.000000000000000000, 0.000000000000000000 ) ) ;
#1199 = CIRCLE ( 'NONE', #131, 2.999999999999999112 ) ;
#1200 = AXIS2_PLACEMENT_3D ( 'NONE', #1234, #955, #832 ) ;
#1201 = FACE_OUTER_BOUND ( 'NONE', #55, .T. ) ;
#1202 = CARTESIAN_POINT ( 'NONE',  ( 11.16143782776615012, -1.500000000000000444, -5.133536959265120991 ) ) ;
#1203 = EDGE_CURVE ( 'NONE', #27, #426, #487, .T. ) ;
#1204 = ORIENTED_EDGE ( 'NONE', *, *, #593, .F. ) ;
#1205 = DIRECTION ( 'NONE',  ( 1.000000000000000000, 0.000000000000000000, 0.000000000000000000 ) ) ;
#1206 = CARTESIAN_POINT ( 'NONE',  ( 11.25256469958329042, 2.169380378839031565, -0.1591051119490046184 ) ) ;
#1207 = ORIENTED_EDGE ( 'NONE', *, *, #1192, .T. ) ;
#1208 = CARTESIAN_POINT ( 'NONE',  ( -3.750000000000001776, 0.000000000000000000, 0.000000000000000000 ) ) ;
#1209 = CARTESIAN_POINT ( 'NONE',  ( 11.15206811914582197, 2.469679628876544353, -5.838326687746486776 ) ) ;
#1210 = ORIENTED_EDGE ( 'NONE', *, *, #605, .F. ) ;
#1211 = LINE ( 'NONE', #1114, #1137 ) ;
#1212 = EDGE_CURVE ( 'NONE', #473, #1261, #928, .T. ) ;
#1213 = ORIENTED_EDGE ( 'NONE', *, *, #182, .T. ) ;
#1214 = TOROIDAL_SURFACE ( 'NONE', #184, 3.000000000000000000, 1.000000000000000000 ) ;
#1215 = CARTESIAN_POINT ( 'NONE',  ( 0.000000000000000000, 0.000000000000000000, -10.00000000000000000 ) ) ;
#1216 = AXIS2_PLACEMENT_3D ( 'NONE', #702, #198, #683 ) ;
#1217 = FACE_OUTER_BOUND ( 'NONE', #312, .T. ) ;
#1218 = ORIENTED_EDGE ( 'NONE', *, *, #73, .T. ) ;
#1219 = DIRECTION ( 'NONE',  ( 0.000000000000000000, 0.000000000000000000, -1.000000000000000000 ) ) ;
#1220 =( GEOMETRIC_REPRESENTATION_CONTEXT ( 3 ) GLOBAL_UNCERTAINTY_ASSIGNED_CONTEXT ( ( #567 ) ) GLOBAL_UNIT_ASSIGNED_CONTEXT ( ( #503, #9, #1296 ) ) REPRESENTATION_CONTEXT ( 'NONE', 'WORKASPACE' ) );
#1221 = DIRECTION ( 'NONE',  ( -0.000000000000000000, -0.000000000000000000, -1.000000000000000000 ) ) ;
#1222 = EDGE_CURVE ( 'NONE', #220, #385, #387, .T. ) ;
#1223 = ORIENTED_EDGE ( 'NONE', *, *, #1060, .F. ) ;
#1224 = CARTESIAN_POINT ( 'NONE',  ( 10.66143782776614657, 1.125000000000000222, -5.006130302267794541 ) ) ;
#1225 = VECTOR ( 'NONE', #285, 1000.000000000000000 ) ;
#1226 = CARTESIAN_POINT ( 'NONE',  ( 11.03020539631509500, -2.611102306717008936, -10.00000000000000000 ) ) ;
#1227 = VERTEX_POINT ( 'NONE', #265 ) ;
#1228 = VERTEX_POINT ( 'NONE', #671 ) ;
#1229 = CARTESIAN_POINT ( 'NONE',  ( -2.000000000000000000, 2.449293598294706414E-16, -10.00000000000000000 ) ) ;
#1230 = CARTESIAN_POINT ( 'NONE',  ( 11.29027997208113909, 1.910083031930386976, -5.376687702674798786 ) ) ;
#1231 = EDGE_LOOP ( 'NONE', ( #716, #1204, #1070, #707 ) ) ;
#1232 = FACE_OUTER_BOUND ( 'NONE', #509, .T. ) ;
#1233 = EDGE_CURVE ( 'NONE', #116, #972, #1119, .T. ) ;
#1234 = CARTESIAN_POINT ( 'NONE',  ( 3.000000000000000000, 0.000000000000000000, -9.000000000000001776 ) ) ;
#1235 = VECTOR ( 'NONE', #584, 1000.000000000000114 ) ;
#1236 = FACE_OUTER_BOUND ( 'NONE', #1133, .T. ) ;
#1237 = ORIENTED_EDGE ( 'NONE', *, *, #895, .T. ) ;
#1238 = TOROIDAL_SURFACE ( 'NONE', #802, 2.999999999999999556, 1.000000000000000000 ) ;
#1239 = DIRECTION ( 'NONE',  ( 0.000000000000000000, 0.000000000000000000, -1.000000000000000000 ) ) ;
#1240 = DIRECTION ( 'NONE',  ( -0.000000000000000000, 0.000000000000000000, 1.000000000000000000 ) ) ;
#1241 = LINE ( 'NONE', #746, #336 ) ;
#1242 = EDGE_LOOP ( 'NONE', ( #1057, #793, #335, #1248, #138, #233, #29, #607, #587, #950, #216 ) ) ;
#1243 = AXIS2_PLACEMENT_3D ( 'NONE', #1258, #763, #273 ) ;
#1244 = EDGE_CURVE ( 'NONE', #972, #1018, #294, .T. ) ;
#1245 = EDGE_LOOP ( 'NONE', ( #437, #1077, #142, #738 ) ) ;
#1246 = CARTESIAN_POINT ( 'NONE',  ( 10.69188125361089092, 1.147832569383553825, -0.002022110712600504352 ) ) ;
#1247 = DIRECTION ( 'NONE',  ( 0.000000000000000000, 0.000000000000000000, 1.000000000000000000 ) ) ;
#1248 = ORIENTED_EDGE ( 'NONE', *, *, #345, .T. ) ;
#1249 = CARTESIAN_POINT ( 'NONE',  ( 10.66143782776614657, -1.125000000000000222, -5.006130302267794541 ) ) ;
#1250 = CARTESIAN_POINT ( 'NONE',  ( 8.000000000000000000, 0.000000000000000000, -10.00000000000000000 ) ) ;
#1251 = DIRECTION ( 'NONE',  ( 1.000000000000000000, 0.000000000000000000, 0.000000000000000000 ) ) ;
#1252 = ORIENTED_EDGE ( 'NONE', *, *, #506, .T. ) ;
#1253 = CIRCLE ( 'NONE', #1087, 2.999999999999999112 ) ;
#1254 = EDGE_LOOP ( 'NONE', ( #535, #657, #1252, #878 ) ) ;
#1255 = CIRCLE ( 'NONE', #1216, 3.000000000000000000 ) ;
#1256 = CARTESIAN_POINT ( 'NONE',  ( 6.074814052208775095E-16, 1.500000000000004219, -5.000000000000000888 ) ) ;
#1257 = ADVANCED_FACE ( 'NONE', ( #599 ), #1101, .T. ) ;
#1258 = CARTESIAN_POINT ( 'NONE',  ( 0.000000000000000000, 0.000000000000000000, -0.9999999999999991118 ) ) ;
#1259 = DIRECTION ( 'NONE',  ( -1.000000000000000000, 0.000000000000000000, 0.000000000000000000 ) ) ;
#1260 = B_SPLINE_CURVE_WITH_KNOTS ( 'NONE', 3,
 ( #643, #840, #757, #745, #1055, #450, #736, #850 ),
 .UNSPECIFIED., .F., .F.,
 ( 4, 2, 2, 4 ),
 ( 0.001410291024317003421, 0.002072144406664664772, 0.002403071097838495665, 0.002733997789012326124 ),
 .UNSPECIFIED. ) ;
#1261 = VERTEX_POINT ( 'NONE', #606 ) ;
#1262 = VECTOR ( 'NONE', #586, 1000.000000000000000 ) ;
#1263 = VECTOR ( 'NONE', #446, 1000.000000000000000 ) ;
#1264 = DIRECTION ( 'NONE',  ( 0.000000000000000000, 0.000000000000000000, 1.000000000000000000 ) ) ;
#1265 = DIRECTION ( 'NONE',  ( 1.000000000000000000, 0.000000000000000000, 0.000000000000000000 ) ) ;
#1266 = CARTESIAN_POINT ( 'NONE',  ( 11.16143782776615012, -1.500000000000000444, -5.133536959265120991 ) ) ;
#1267 = ORIENTED_EDGE ( 'NONE', *, *, #1012, .F. ) ;
#1268 = DIRECTION ( 'NONE',  ( -0.000000000000000000, -0.000000000000000000, -1.000000000000000000 ) ) ;
#1269 = ORIENTED_EDGE ( 'NONE', *, *, #254, .T. ) ;
#1270 = DIRECTION ( 'NONE',  ( -0.000000000000000000, 0.000000000000000000, 1.000000000000000000 ) ) ;
#1271 = EDGE_CURVE ( 'NONE', #1031, #549, #843, .T. ) ;
#1272 = FACE_OUTER_BOUND ( 'NONE', #340, .T. ) ;
#1273 = EDGE_CURVE ( 'NONE', #226, #618, #718, .T. ) ;
#1274 = CARTESIAN_POINT ( 'NONE',  ( 0.000000000000000000, 0.000000000000000000, -0.9999999999999991118 ) ) ;
#1275 = VERTEX_POINT ( 'NONE', #512 ) ;
#1276 = CARTESIAN_POINT ( 'NONE',  ( 2.000000000000000000, 0.000000000000000000, -9.000000000000001776 ) ) ;
#1277 = AXIS2_PLACEMENT_3D ( 'NONE', #816, #1097, #1013 ) ;
#1278 = FACE_OUTER_BOUND ( 'NONE', #93, .T. ) ;
#1279 = B_SPLINE_CURVE_WITH_KNOTS ( 'NONE', 3,
 ( #1117, #1005, #319, #19, #197, #126, #1024, #708 ),
 .UNSPECIFIED., .F., .F.,
 ( 4, 2, 2, 4 ),
 ( 0.002733997789012327859, 0.003064795615714139762, 0.003395593442415951665, 0.004057189095819572003 ),
 .UNSPECIFIED. ) ;
#1280 = CARTESIAN_POINT ( 'NONE',  ( 9.441501628448445871, 1.500000000000000444, -5.568014724983600061 ) ) ;
#1281 = CARTESIAN_POINT ( 'NONE',  ( 0.000000000000000000, 4.000000000000000000, -9.749999999999998224 ) ) ;
#1282 = VERTEX_POINT ( 'NONE', #419 ) ;
#1283 = CARTESIAN_POINT ( 'NONE',  ( 11.16143782776614835, 1.499999999999996891, -5.133536959265120991 ) ) ;
#1284 = EDGE_CURVE ( 'NONE', #1139, #365, #908, .T. ) ;
#1285 = CARTESIAN_POINT ( 'NONE',  ( 6.000000000000000000, 2.449293598294705921E-16, -10.00000000000000000 ) ) ;
#1286 = CONICAL_SURFACE ( 'NONE', #534, 4.000000000000000000, 0.7853981633974482790 ) ;
#1287 = DIRECTION ( 'NONE',  ( 0.000000000000000000, -1.000000000000000000, 0.000000000000000000 ) ) ;
#1288 = DIRECTION ( 'NONE',  ( -0.000000000000000000, 0.000000000000000000, 1.000000000000000000 ) ) ;
#1289 = CARTESIAN_POINT ( 'NONE',  ( 10.16143782776614835, -1.500000000000000000, -0.07059682832910152417 ) ) ;
#1290 = ORIENTED_EDGE ( 'NONE', *, *, #148, .F. ) ;
#1291 = DIRECTION ( 'NONE',  ( 1.000000000000000000, 0.000000000000000000, 0.000000000000000000 ) ) ;
#1292 = DIRECTION ( 'NONE',  ( 1.000000000000000000, 0.000000000000000000, 0.000000000000000000 ) ) ;
#1293 = PLANE ( 'NONE',  #1089 ) ;
#1294 = EDGE_LOOP ( 'NONE', ( #114, #639, #1128, #102 ) ) ;
#1295 = CARTESIAN_POINT ( 'NONE',  ( 11.26596113350895223, 1.842823343245074019, 0.000000000000000000 ) ) ;
#1296 =( NAMED_UNIT ( * ) SI_UNIT ( $, .STERADIAN. ) SOLID_ANGLE_UNIT ( ) );
#1297 = EDGE_CURVE ( 'NONE', #1028, #819, #946, .T. ) ;
#1298 = VECTOR ( 'NONE', #375, 1000.000000000000000 ) ;
#1299 = DIRECTION ( 'NONE',  ( 1.000000000000000000, 0.000000000000000000, 0.000000000000000000 ) ) ;
#1300 = DIRECTION ( 'NONE',  ( 0.000000000000000000, 0.000000000000000000, 1.000000000000000000 ) ) ;
#1301 = ORIENTED_EDGE ( 'NONE', *, *, #1284, .T. ) ;
#1302 = AXIS2_PLACEMENT_3D ( 'NONE', #108, #1017, #719 ) ;
ENDSEC;
END-ISO-10303-21;
