ISO-10303-21;
HEADER;
FILE_DESCRIPTION (( 'STEP AP214' ),
    '1' );
FILE_NAME ('HP PSU Mount Clip.STEP',
    '2024-11-22T06:36:09',
    ( '' ),
    ( '' ),
    'SwSTEP 2.0',
    'SolidWorks 2024',
    '' );
FILE_SCHEMA (( 'AUTOMOTIVE_DESIGN' ));
ENDSEC;

DATA;
#1 = ORIENTED_EDGE ( 'NONE', *, *, #919, .T. ) ;
#2 = CARTESIAN_POINT ( 'NONE',  ( 88.00000000000001421, 0.000000000000000000, 25.00000000000000000 ) ) ;
#3 = AXIS2_PLACEMENT_3D ( 'NONE', #180, #383, #1234 ) ;
#4 = CARTESIAN_POINT ( 'NONE',  ( 90.25721864729177923, 43.40288745891675148, 25.00000000000000000 ) ) ;
#5 = EDGE_CURVE ( 'NONE', #32, #338, #1067, .T. ) ;
#6 = ORIENTED_EDGE ( 'NONE', *, *, #540, .F. ) ;
#7 = CARTESIAN_POINT ( 'NONE',  ( 82.99999999999998579, 39.14593407714624362, 24.64593407714618678 ) ) ;
#8 = VERTEX_POINT ( 'NONE', #215 ) ;
#9 = FACE_OUTER_BOUND ( 'NONE', #274, .T. ) ;
#10 = CARTESIAN_POINT ( 'NONE',  ( -6.852157730108390547E-14, 39.50000000000000711, 25.00000000000000000 ) ) ;
#11 = CARTESIAN_POINT ( 'NONE',  ( 83.03159015388722253, 39.50000000000005684, 0.000000000000000000 ) ) ;
#12 = CARTESIAN_POINT ( 'NONE',  ( 92.00000000000002842, -9.999999999999944933, 24.00000000000004263 ) ) ;
#13 = EDGE_CURVE ( 'NONE', #1085, #164, #1071, .T. ) ;
#14 = EDGE_LOOP ( 'NONE', ( #134, #655 ) ) ;
#15 = DIRECTION ( 'NONE',  ( -1.000000000000000000, 0.000000000000000000, 0.000000000000000000 ) ) ;
#16 = AXIS2_PLACEMENT_3D ( 'NONE', #594, #500, #198 ) ;
#17 = DIRECTION ( 'NONE',  ( -1.000000000000000000, 0.000000000000000000, 0.000000000000000000 ) ) ;
#18 = ORIENTED_EDGE ( 'NONE', *, *, #912, .T. ) ;
#19 = LINE ( 'NONE', #216, #127 ) ;
#20 = ORIENTED_EDGE ( 'NONE', *, *, #1235, .F. ) ;
#21 = EDGE_CURVE ( 'NONE', #141, #939, #107, .T. ) ;
#22 = CARTESIAN_POINT ( 'NONE',  ( 82.99999999999998579, 38.50000000000004263, 23.99999999999998579 ) ) ;
#23 = VECTOR ( 'NONE', #27, 1000.000000000000000 ) ;
#24 = FACE_OUTER_BOUND ( 'NONE', #952, .T. ) ;
#25 = DIRECTION ( 'NONE',  ( 6.380592095546878245E-16, -1.000000000000000000, -4.930380657631323784E-32 ) ) ;
#26 = VERTEX_POINT ( 'NONE', #11 ) ;
#27 = DIRECTION ( 'NONE',  ( -6.380592095546877258E-16, 1.000000000000000000, -0.000000000000000000 ) ) ;
#28 = CIRCLE ( 'NONE', #810, 3.999999999999989786 ) ;
#29 = CARTESIAN_POINT ( 'NONE',  ( 82.99999999999998579, 39.14593407714624362, 0.3540659228538113323 ) ) ;
#30 = CARTESIAN_POINT ( 'NONE',  ( 0.000000000000000000, -8.999999999999985789, 25.00000000000000000 ) ) ;
#31 = ADVANCED_FACE ( 'NONE', ( #797 ), #1171, .T. ) ;
#32 = VERTEX_POINT ( 'NONE', #1105 ) ;
#33 = DIRECTION ( 'NONE',  ( -6.380592095546878245E-16, 1.000000000000000000, 4.930380657631323784E-32 ) ) ;
#34 = FACE_OUTER_BOUND ( 'NONE', #752, .T. ) ;
#35 = AXIS2_PLACEMENT_3D ( 'NONE', #10, #1186, #219 ) ;
#36 = CARTESIAN_POINT ( 'NONE',  ( 88.00000000000001421, 39.50000000000004974, 0.000000000000000000 ) ) ;
#37 = ORIENTED_EDGE ( 'NONE', *, *, #882, .T. ) ;
#38 = DIRECTION ( 'NONE',  ( -6.380592095546877258E-16, 1.000000000000000000, -0.000000000000000000 ) ) ;
#39 = CARTESIAN_POINT ( 'NONE',  ( -5.999999999999999112, 38.50000000000000000, 25.00000000000000000 ) ) ;
#40 = CARTESIAN_POINT ( 'NONE',  ( 87.00000000000000000, 38.50000000000003553, 1.000000000000014655 ) ) ;
#41 = STYLED_ITEM ( 'NONE', ( #554 ), #985 ) ;
#42 = ORIENTED_EDGE ( 'NONE', *, *, #471, .F. ) ;
#43 = VERTEX_POINT ( 'NONE', #907 ) ;
#44 = DIRECTION ( 'NONE',  ( -6.380592095546877258E-16, 1.000000000000000000, -0.000000000000000000 ) ) ;
#45 = ADVANCED_FACE ( 'NONE', ( #1089 ), #616, .F. ) ;
#46 = DIRECTION ( 'NONE',  ( -6.380592095546878245E-16, 1.000000000000000000, 4.930380657631323784E-32 ) ) ;
#47 = DIRECTION ( 'NONE',  ( 6.380592095546878245E-16, -1.000000000000000000, -4.930380657631323784E-32 ) ) ;
#48 = ORIENTED_EDGE ( 'NONE', *, *, #676, .T. ) ;
#49 = ADVANCED_FACE ( 'NONE', ( #631 ), #1022, .F. ) ;
#50 = CARTESIAN_POINT ( 'NONE',  ( 70.99999999999997158, -10.00000000000001421, 12.50000000000001066 ) ) ;
#51 = FACE_OUTER_BOUND ( 'NONE', #1212, .T. ) ;
#52 = AXIS2_PLACEMENT_3D ( 'NONE', #1203, #46, #519 ) ;
#53 = LINE ( 'NONE', #768, #1061 ) ;
#54 = ORIENTED_EDGE ( 'NONE', *, *, #233, .F. ) ;
#55 = EDGE_CURVE ( 'NONE', #489, #200, #426, .T. ) ;
#56 = DIRECTION ( 'NONE',  ( -0.000000000000000000, 0.7071067811865481278, 0.7071067811865469066 ) ) ;
#57 = ADVANCED_FACE ( 'NONE', ( #1010 ), #337, .T. ) ;
#58 = FACE_OUTER_BOUND ( 'NONE', #410, .T. ) ;
#59 = FACE_BOUND ( 'NONE', #302, .T. ) ;
#60 = ORIENTED_EDGE ( 'NONE', *, *, #715, .F. ) ;
#61 = VECTOR ( 'NONE', #359, 1000.000000000000000 ) ;
#62 = VERTEX_POINT ( 'NONE', #36 ) ;
#63 = EDGE_CURVE ( 'NONE', #69, #320, #641, .T. ) ;
#64 = DIRECTION ( 'NONE',  ( -0.000000000000000000, -0.000000000000000000, 1.000000000000000000 ) ) ;
#65 = EDGE_CURVE ( 'NONE', #733, #806, #444, .T. ) ;
#66 = APPLICATION_PROTOCOL_DEFINITION ( 'draft international standard', 'automotive_design', 1998, #1123 ) ;
#67 = CARTESIAN_POINT ( 'NONE',  ( -5.999999999999999112, -10.00000000000000000, 0.000000000000000000 ) ) ;
#68 = EDGE_CURVE ( 'NONE', #753, #535, #433, .T. ) ;
#69 = VERTEX_POINT ( 'NONE', #1016 ) ;
#70 = ORIENTED_EDGE ( 'NONE', *, *, #256, .F. ) ;
#71 = DIRECTION ( 'NONE',  ( -0.000000000000000000, -0.000000000000000000, -1.000000000000000000 ) ) ;
#72 = CARTESIAN_POINT ( 'NONE',  ( 3.190296047773438629E-15, -5.000000000000000000, -1.215432671457253722E-61 ) ) ;
#73 = VERTEX_POINT ( 'NONE', #1100 ) ;
#74 = CIRCLE ( 'NONE', #536, 4.000000000000000000 ) ;
#75 = ORIENTED_EDGE ( 'NONE', *, *, #1060, .F. ) ;
#76 = CARTESIAN_POINT ( 'NONE',  ( 1.435455849203326824E-15, 38.49999999999999289, 23.99999999999998579 ) ) ;
#77 = LINE ( 'NONE', #761, #96 ) ;
#78 = AXIS2_PLACEMENT_3D ( 'NONE', #955, #949, #257 ) ;
#79 = ORIENTED_EDGE ( 'NONE', *, *, #904, .F. ) ;
#80 = DIRECTION ( 'NONE',  ( -1.000000000000000000, -8.260587980841921030E-16, 0.000000000000000000 ) ) ;
#81 = EDGE_LOOP ( 'NONE', ( #858, #266 ) ) ;
#82 = AXIS2_PLACEMENT_3D ( 'NONE', #1072, #1068, #591 ) ;
#83 = DIRECTION ( 'NONE',  ( 0.000000000000000000, 0.000000000000000000, 1.000000000000000000 ) ) ;
#84 = AXIS2_PLACEMENT_3D ( 'NONE', #1236, #272, #951 ) ;
#85 = DIRECTION ( 'NONE',  ( 1.000000000000000000, 0.000000000000000000, 0.000000000000000000 ) ) ;
#86 = FACE_OUTER_BOUND ( 'NONE', #642, .T. ) ;
#87 = ORIENTED_EDGE ( 'NONE', *, *, #273, .T. ) ;
#88 = DIRECTION ( 'NONE',  ( 1.000000000000000000, 0.000000000000000000, 0.000000000000000000 ) ) ;
#89 = EDGE_CURVE ( 'NONE', #392, #43, #226, .T. ) ;
#90 = ORIENTED_EDGE ( 'NONE', *, *, #1118, .F. ) ;
#91 = DIRECTION ( 'NONE',  ( -6.380592095546877258E-16, 1.000000000000000000, -0.000000000000000000 ) ) ;
#92 = CARTESIAN_POINT ( 'NONE',  ( 4.000000000000001776, 39.26473824514334865, 24.76473824514333799 ) ) ;
#93 = ORIENTED_EDGE ( 'NONE', *, *, #242, .T. ) ;
#94 = CARTESIAN_POINT ( 'NONE',  ( -5.000000000000046185, -9.999999999999944933, 24.00000000000004263 ) ) ;
#95 = ORIENTED_EDGE ( 'NONE', *, *, #382, .F. ) ;
#96 = VECTOR ( 'NONE', #757, 1000.000000000000000 ) ;
#97 = EDGE_CURVE ( 'NONE', #1251, #1200, #121, .T. ) ;
#98 = PLANE ( 'NONE',  #689 ) ;
#99 = DIRECTION ( 'NONE',  ( 0.000000000000000000, 0.000000000000000000, -1.000000000000000000 ) ) ;
#100 = EDGE_LOOP ( 'NONE', ( #148, #578, #653, #893 ) ) ;
#101 = DIRECTION ( 'NONE',  ( -0.5773502691896263972, -0.5773502691896253980, -0.5773502691896255090 ) ) ;
#102 = ORIENTED_EDGE ( 'NONE', *, *, #1104, .T. ) ;
#103 = DIRECTION ( 'NONE',  ( 0.3713906763541036105, -0.9284766908852594147, 0.000000000000000000 ) ) ;
#104 = VECTOR ( 'NONE', #694, 1000.000000000000000 ) ;
#105 = EDGE_CURVE ( 'NONE', #338, #1237, #825, .T. ) ;
#106 = FACE_OUTER_BOUND ( 'NONE', #167, .T. ) ;
#107 = LINE ( 'NONE', #508, #214 ) ;
#108 = DIRECTION ( 'NONE',  ( 0.000000000000000000, 0.000000000000000000, -1.000000000000000000 ) ) ;
#109 = EDGE_CURVE ( 'NONE', #1237, #338, #505, .T. ) ;
#110 = ORIENTED_EDGE ( 'NONE', *, *, #205, .F. ) ;
#111 = LINE ( 'NONE', #1008, #889 ) ;
#112 = CARTESIAN_POINT ( 'NONE',  ( 2.742781352708205223, 41.00288745891671738, 25.00000000000000000 ) ) ;
#113 = EDGE_CURVE ( 'NONE', #636, #693, #738, .T. ) ;
#114 = EDGE_LOOP ( 'NONE', ( #612, #1043, #1095, #20 ) ) ;
#115 = LINE ( 'NONE', #1166, #212 ) ;
#116 = AXIS2_PLACEMENT_3D ( 'NONE', #276, #206, #1074 ) ;
#117 = ORIENTED_EDGE ( 'NONE', *, *, #531, .T. ) ;
#118 = LINE ( 'NONE', #894, #605 ) ;
#119 = PRODUCT ( 'HP PSU Mount Clip', 'HP PSU Mount Clip', '', ( #1157 ) ) ;
#120 = CARTESIAN_POINT ( 'NONE',  ( 84.25721864729177923, 41.00288745891676001, 25.00000000000000000 ) ) ;
#121 = LINE ( 'NONE', #241, #963 ) ;
#122 = ADVANCED_FACE ( 'NONE', ( #712 ), #138, .F. ) ;
#123 = ORIENTED_EDGE ( 'NONE', *, *, #1104, .F. ) ;
#124 = PLANE ( 'NONE',  #725 ) ;
#125 = AXIS2_PLACEMENT_3D ( 'NONE', #374, #944, #85 ) ;
#126 = CARTESIAN_POINT ( 'NONE',  ( 2.742781352708208775, 41.00288745891671738, 25.00000000000000000 ) ) ;
#127 = VECTOR ( 'NONE', #101, 999.9999999999998863 ) ;
#128 = CARTESIAN_POINT ( 'NONE',  ( 87.00000000000000000, 5.551115123125782702E-14, 1.000000000000014655 ) ) ;
#129 = ORIENTED_EDGE ( 'NONE', *, *, #1220, .T. ) ;
#130 = FACE_OUTER_BOUND ( 'NONE', #960, .T. ) ;
#131 = CIRCLE ( 'NONE', #850, 3.999999999999989786 ) ;
#132 = CARTESIAN_POINT ( 'NONE',  ( 84.99999999999998579, 39.14593407714624362, 25.00000000000000000 ) ) ;
#133 = DIRECTION ( 'NONE',  ( -0.000000000000000000, -0.000000000000000000, 1.000000000000000000 ) ) ;
#134 = ORIENTED_EDGE ( 'NONE', *, *, #193, .F. ) ;
#135 = DIRECTION ( 'NONE',  ( 1.000000000000000000, -1.734723475976805517E-15, 0.000000000000000000 ) ) ;
#136 = EDGE_CURVE ( 'NONE', #294, #964, #539, .T. ) ;
#137 = DIRECTION ( 'NONE',  ( 3.728456751177473127E-17, 1.000000000000000000, 0.000000000000000000 ) ) ;
#138 = CYLINDRICAL_SURFACE ( 'NONE', #586, 3.999999999999989786 ) ;
#139 = EDGE_CURVE ( 'NONE', #73, #445, #1137, .T. ) ;
#140 = ORIENTED_EDGE ( 'NONE', *, *, #782, .F. ) ;
#141 = VERTEX_POINT ( 'NONE', #230 ) ;
#142 = CARTESIAN_POINT ( 'NONE',  ( 92.99999999999998579, 41.54593407714623510, 25.00000000000000000 ) ) ;
#143 =( GEOMETRIC_REPRESENTATION_CONTEXT ( 3 ) GLOBAL_UNCERTAINTY_ASSIGNED_CONTEXT ( ( #397 ) ) GLOBAL_UNIT_ASSIGNED_CONTEXT ( ( #775, #581, #283 ) ) REPRESENTATION_CONTEXT ( 'NONE', 'WORKASPACE' ) );
#144 = DIRECTION ( 'NONE',  ( -0.000000000000000000, -0.000000000000000000, -1.000000000000000000 ) ) ;
#145 = EDGE_CURVE ( 'NONE', #602, #446, #921, .T. ) ;
#146 = DIRECTION ( 'NONE',  ( -1.000000000000000000, -8.260587980841921030E-16, 0.000000000000000000 ) ) ;
#147 = CIRCLE ( 'NONE', #1094, 2.000000000000001776 ) ;
#148 = ORIENTED_EDGE ( 'NONE', *, *, #600, .F. ) ;
#149 =( NAMED_UNIT ( * ) PLANE_ANGLE_UNIT ( ) SI_UNIT ( $, .RADIAN. ) );
#150 = LINE ( 'NONE', #851, #920 ) ;
#151 = DIRECTION ( 'NONE',  ( -1.000000000000000000, -6.380592095546877258E-16, 0.000000000000000000 ) ) ;
#152 = EDGE_CURVE ( 'NONE', #164, #1101, #827, .T. ) ;
#153 = ORIENTED_EDGE ( 'NONE', *, *, #109, .T. ) ;
#154 = SURFACE_SIDE_STYLE ('',( #377 ) ) ;
#155 = CARTESIAN_POINT ( 'NONE',  ( 0.000000000000000000, 0.000000000000000000, 1.000000000000014655 ) ) ;
#156 = DIRECTION ( 'NONE',  ( 0.5773502691896233996, -0.5773502691896269523, -0.5773502691896269523 ) ) ;
#157 = ORIENTED_EDGE ( 'NONE', *, *, #332, .F. ) ;
#158 = ADVANCED_FACE ( 'NONE', ( #450 ), #847, .F. ) ;
#159 = EDGE_LOOP ( 'NONE', ( #401, #664, #1037, #665 ) ) ;
#160 = CARTESIAN_POINT ( 'NONE',  ( 0.000000000000000000, 0.000000000000000000, 23.99999999999998579 ) ) ;
#161 = EDGE_CURVE ( 'NONE', #69, #823, #1222, .T. ) ;
#162 = CARTESIAN_POINT ( 'NONE',  ( -3.257218647291795666, 43.40288745891671596, 25.00000000000000000 ) ) ;
#163 = DIRECTION ( 'NONE',  ( 0.000000000000000000, 0.000000000000000000, 1.000000000000000000 ) ) ;
#164 = VERTEX_POINT ( 'NONE', #862 ) ;
#165 = EDGE_CURVE ( 'NONE', #200, #1133, #570, .T. ) ;
#166 = VECTOR ( 'NONE', #15, 1000.000000000000000 ) ;
#167 = EDGE_LOOP ( 'NONE', ( #714, #170, #793, #678, #385 ) ) ;
#168 = CARTESIAN_POINT ( 'NONE',  ( 1.435455849203326824E-15, 38.49999999999999289, 1.000000000000014655 ) ) ;
#169 = CARTESIAN_POINT ( 'NONE',  ( 93.00000000000000000, -9.999999999999944933, 25.00000000000000000 ) ) ;
#170 = ORIENTED_EDGE ( 'NONE', *, *, #639, .F. ) ;
#171 = EDGE_LOOP ( 'NONE', ( #1107, #559, #54, #671 ) ) ;
#172 = DIRECTION ( 'NONE',  ( 1.226634733346699705E-15, -0.7071067811865475727, -0.7071067811865475727 ) ) ;
#173 = AXIS2_PLACEMENT_3D ( 'NONE', #155, #556, #936 ) ;
#174 = CARTESIAN_POINT ( 'NONE',  ( 92.99999999999998579, 41.54593407714623510, 0.000000000000000000 ) ) ;
#175 = DIRECTION ( 'NONE',  ( -1.000000000000000000, -6.505213034913043367E-16, 0.000000000000000000 ) ) ;
#176 = ORIENTED_EDGE ( 'NONE', *, *, #987, .T. ) ;
#177 = PLANE ( 'NONE',  #289 ) ;
#178 = ORIENTED_EDGE ( 'NONE', *, *, #872, .F. ) ;
#179 = CARTESIAN_POINT ( 'NONE',  ( 92.99999999999998579, 38.50000000000004263, 25.00000000000000000 ) ) ;
#180 = CARTESIAN_POINT ( 'NONE',  ( 16.00000000000003197, -10.00000000000004796, 12.50000000000001066 ) ) ;
#181 = AXIS2_PLACEMENT_3D ( 'NONE', #491, #666, #888 ) ;
#182 = PLANE ( 'NONE',  #16 ) ;
#183 = ADVANCED_FACE ( 'NONE', ( #1030, #945 ), #551, .T. ) ;
#184 = ORIENTED_EDGE ( 'NONE', *, *, #782, .T. ) ;
#185 = CARTESIAN_POINT ( 'NONE',  ( 82.99999999999998579, 38.50000000000003553, 1.000000000000018208 ) ) ;
#186 = ORIENTED_EDGE ( 'NONE', *, *, #831, .F. ) ;
#187 = DIRECTION ( 'NONE',  ( 0.000000000000000000, 0.000000000000000000, -1.000000000000000000 ) ) ;
#188 = VECTOR ( 'NONE', #1165, 1000.000000000000000 ) ;
#189 = CARTESIAN_POINT ( 'NONE',  ( 83.01055790019682945, 39.38307235297764208, 0.1169276470224128450 ) ) ;
#190 = CARTESIAN_POINT ( 'NONE',  ( -5.000000000000046185, -9.999999999999944933, 25.00000000000000000 ) ) ;
#191 = ORIENTED_EDGE ( 'NONE', *, *, #904, .T. ) ;
#192 = CARTESIAN_POINT ( 'NONE',  ( 83.01055790019682945, 39.38307235297764208, 24.88307235297759235 ) ) ;
#193 = EDGE_CURVE ( 'NONE', #903, #777, #484, .T. ) ;
#194 = VECTOR ( 'NONE', #1197, 999.9999999999998863 ) ;
#195 = ORIENTED_EDGE ( 'NONE', *, *, #611, .F. ) ;
#196 = CYLINDRICAL_SURFACE ( 'NONE', #116, 4.000000000000000000 ) ;
#197 = APPLICATION_CONTEXT ( 'automotive_design' ) ;
#198 = DIRECTION ( 'NONE',  ( -3.728456751177473127E-17, -1.000000000000000000, 0.000000000000000000 ) ) ;
#199 = CIRCLE ( 'NONE', #513, 2.000000000000000000 ) ;
#200 = VERTEX_POINT ( 'NONE', #640 ) ;
#201 = DIRECTION ( 'NONE',  ( -0.5773502691896259531, 0.5773502691896256200, -0.5773502691896258421 ) ) ;
#202 = ORIENTED_EDGE ( 'NONE', *, *, #55, .F. ) ;
#203 = VECTOR ( 'NONE', #614, 1000.000000000000000 ) ;
#204 =( BOUNDED_CURVE ( )  B_SPLINE_CURVE ( 3, ( #781, #1255, #92, #1158 ),
 .UNSPECIFIED., .F., .F. ) 
 B_SPLINE_CURVE_WITH_KNOTS ( ( 4, 4 ),
 ( 4.534418006799838530, 4.712388980384691450 ),
 .UNSPECIFIED. ) 
 CURVE ( )  GEOMETRIC_REPRESENTATION_ITEM ( )  RATIONAL_B_SPLINE_CURVE ( ( 1.000000000000000000, 0.9973622689572733124, 0.9973622689572733124, 1.000000000000000000 ) ) 
 REPRESENTATION_ITEM ( '' )  );
#205 = EDGE_CURVE ( 'NONE', #787, #1168, #53, .T. ) ;
#206 = DIRECTION ( 'NONE',  ( -6.380592095546877258E-16, 1.000000000000000000, -0.000000000000000000 ) ) ;
#207 = DIRECTION ( 'NONE',  ( -0.000000000000000000, -0.000000000000000000, 1.000000000000000000 ) ) ;
#208 = ORIENTED_EDGE ( 'NONE', *, *, #882, .F. ) ;
#209 = DIRECTION ( 'NONE',  ( 3.728456751177473127E-17, 1.000000000000000000, 0.000000000000000000 ) ) ;
#210 = ORIENTED_EDGE ( 'NONE', *, *, #432, .F. ) ;
#211 = LINE ( 'NONE', #1253, #1109 ) ;
#212 = VECTOR ( 'NONE', #980, 1000.000000000000000 ) ;
#213 = DIRECTION ( 'NONE',  ( 0.000000000000000000, 0.000000000000000000, -1.000000000000000000 ) ) ;
#214 = VECTOR ( 'NONE', #891, 1000.000000000000000 ) ;
#215 = CARTESIAN_POINT ( 'NONE',  ( 4.000000000000000888, 39.14593407714620099, 0.3540659228538148295 ) ) ;
#216 = CARTESIAN_POINT ( 'NONE',  ( 61.99999999999992184, -40.00000000000000000, -6.000000000000015987 ) ) ;
#217 = ORIENTED_EDGE ( 'NONE', *, *, #97, .F. ) ;
#218 = PLANE ( 'NONE',  #832 ) ;
#219 = DIRECTION ( 'NONE',  ( 1.000000000000000000, 1.734723475976807489E-15, 0.000000000000000000 ) ) ;
#220 = ORIENTED_EDGE ( 'NONE', *, *, #1167, .T. ) ;
#221 = ORIENTED_EDGE ( 'NONE', *, *, #1150, .T. ) ;
#222 = EDGE_CURVE ( 'NONE', #806, #62, #557, .T. ) ;
#223 = VECTOR ( 'NONE', #857, 1000.000000000000000 ) ;
#224 = CARTESIAN_POINT ( 'NONE',  ( 4.000000000000000888, 38.50000000000000000, 23.99999999999998579 ) ) ;
#225 = LINE ( 'NONE', #317, #194 ) ;
#226 = LINE ( 'NONE', #1093, #925 ) ;
#227 = ORIENTED_EDGE ( 'NONE', *, *, #1007, .F. ) ;
#228 = LINE ( 'NONE', #418, #923 ) ;
#229 = DIRECTION ( 'NONE',  ( -0.7071067811865469066, 0.7071067811865481278, 0.000000000000000000 ) ) ;
#230 = CARTESIAN_POINT ( 'NONE',  ( 87.00000000000000000, 38.50000000000003553, 23.99999999999998579 ) ) ;
#231 = VECTOR ( 'NONE', #937, 1000.000000000000000 ) ;
#232 = ORIENTED_EDGE ( 'NONE', *, *, #1195, .F. ) ;
#233 = EDGE_CURVE ( 'NONE', #339, #1200, #840, .T. ) ;
#234 = CARTESIAN_POINT ( 'NONE',  ( 83.03159015388722253, 39.50000000000005684, 25.00000000000000000 ) ) ;
#235 = FACE_OUTER_BOUND ( 'NONE', #1256, .T. ) ;
#236 = DIRECTION ( 'NONE',  ( -0.000000000000000000, -0.000000000000000000, -1.000000000000000000 ) ) ;
#237 = EDGE_LOOP ( 'NONE', ( #227, #799, #378, #441, #1056 ) ) ;
#238 = LINE ( 'NONE', #1081, #1112 ) ;
#239 = EDGE_CURVE ( 'NONE', #946, #771, #1119, .T. ) ;
#240 = LINE ( 'NONE', #717, #684 ) ;
#241 = CARTESIAN_POINT ( 'NONE',  ( -3.257218647291793889, 43.40288745891671596, 25.00000000000000000 ) ) ;
#242 = EDGE_CURVE ( 'NONE', #62, #446, #1228, .T. ) ;
#243 = ORIENTED_EDGE ( 'NONE', *, *, #1082, .F. ) ;
#244 = LINE ( 'NONE', #550, #366 ) ;
#245 = EDGE_CURVE ( 'NONE', #558, #1133, #77, .T. ) ;
#246 = CARTESIAN_POINT ( 'NONE',  ( 66.99999999999997158, -4.999999999999957367, 12.50000000000001066 ) ) ;
#247 = EDGE_LOOP ( 'NONE', ( #210, #90, #1249, #740 ) ) ;
#248 = AXIS2_PLACEMENT_3D ( 'NONE', #1005, #25, #821 ) ;
#249 = DIRECTION ( 'NONE',  ( -1.000000000000000000, 1.734723475976805517E-15, 0.000000000000000000 ) ) ;
#250 = CARTESIAN_POINT ( 'NONE',  ( -5.000000000000046185, -9.999999999999944933, 0.9999999999999592548 ) ) ;
#251 = ADVANCED_FACE ( 'NONE', ( #59, #576, #1243 ), #454, .F. ) ;
#252 = DIRECTION ( 'NONE',  ( 4.511759938746481073E-16, -0.7071067811865475727, -0.7071067811865475727 ) ) ;
#253 = ORIENTED_EDGE ( 'NONE', *, *, #460, .F. ) ;
#254 = EDGE_LOOP ( 'NONE', ( #350, #312, #314, #585 ) ) ;
#255 =( NAMED_UNIT ( * ) SI_UNIT ( $, .STERADIAN. ) SOLID_ANGLE_UNIT ( ) );
#256 = EDGE_CURVE ( 'NONE', #695, #604, #74, .T. ) ;
#257 = DIRECTION ( 'NONE',  ( -1.000000000000000000, -1.734723475976807489E-15, 0.000000000000000000 ) ) ;
#258 = ADVANCED_FACE ( 'NONE', ( #652 ), #1035, .F. ) ;
#259 = AXIS2_PLACEMENT_3D ( 'NONE', #507, #99, #1151 ) ;
#260 = DIRECTION ( 'NONE',  ( 1.000000000000000000, 6.380592095546877258E-16, 0.000000000000000000 ) ) ;
#261 = EDGE_LOOP ( 'NONE', ( #1206, #929, #232, #1054 ) ) ;
#262 = ORIENTED_EDGE ( 'NONE', *, *, #55, .T. ) ;
#263 = DIRECTION ( 'NONE',  ( 0.000000000000000000, 0.000000000000000000, -1.000000000000000000 ) ) ;
#264 = AXIS2_PLACEMENT_3D ( 'NONE', #168, #172, #1110 ) ;
#265 = CARTESIAN_POINT ( 'NONE',  ( 4.000000000000000888, 40.50000000000000000, 25.00000000000000000 ) ) ;
#266 = ORIENTED_EDGE ( 'NONE', *, *, #919, .F. ) ;
#267 = VECTOR ( 'NONE', #287, 1000.000000000000000 ) ;
#268 = ORIENTED_EDGE ( 'NONE', *, *, #704, .F. ) ;
#269 = VECTOR ( 'NONE', #330, 1000.000000000000000 ) ;
#270 = DIRECTION ( 'NONE',  ( -0.000000000000000000, -0.000000000000000000, -1.000000000000000000 ) ) ;
#271 = CARTESIAN_POINT ( 'NONE',  ( 70.99999999999997158, -10.00000000000001421, 12.50000000000001066 ) ) ;
#272 = DIRECTION ( 'NONE',  ( -6.380592095546878245E-16, 1.000000000000000000, 4.930380657631323784E-32 ) ) ;
#273 = EDGE_CURVE ( 'NONE', #368, #1032, #1041, .T. ) ;
#274 = EDGE_LOOP ( 'NONE', ( #472, #331, #1084, #195 ) ) ;
#275 = ORIENTED_EDGE ( 'NONE', *, *, #68, .F. ) ;
#276 = CARTESIAN_POINT ( 'NONE',  ( 16.00000000000002842, -4.999999999999989342, 12.50000000000001066 ) ) ;
#277 = ADVANCED_FACE ( 'NONE', ( #367 ), #1138, .F. ) ;
#278 = DIRECTION ( 'NONE',  ( 0.000000000000000000, 0.000000000000000000, -1.000000000000000000 ) ) ;
#279 = EDGE_LOOP ( 'NONE', ( #457, #991, #1069, #427 ) ) ;
#280 = CARTESIAN_POINT ( 'NONE',  ( 0.000000000000000000, 0.000000000000000000, 1.000000000000014655 ) ) ;
#281 = EDGE_LOOP ( 'NONE', ( #1048, #1006, #649, #1080 ) ) ;
#282 = DIRECTION ( 'NONE',  ( 0.7071067811865496822, 0.7071067811865453523, 0.000000000000000000 ) ) ;
#283 =( NAMED_UNIT ( * ) SI_UNIT ( $, .STERADIAN. ) SOLID_ANGLE_UNIT ( ) );
#284 = CARTESIAN_POINT ( 'NONE',  ( 93.00000000000000000, -8.999999999999985789, 25.00000000000000000 ) ) ;
#285 = EDGE_CURVE ( 'NONE', #753, #1101, #1163, .T. ) ;
#286 = EDGE_LOOP ( 'NONE', ( #734, #841 ) ) ;
#287 = DIRECTION ( 'NONE',  ( 3.728456751177473127E-17, 1.000000000000000000, 0.000000000000000000 ) ) ;
#288 = EDGE_LOOP ( 'NONE', ( #701, #357, #93, #1173, #996 ) ) ;
#289 = AXIS2_PLACEMENT_3D ( 'NONE', #1208, #584, #838 ) ;
#290 = DIRECTION ( 'NONE',  ( -0.000000000000000000, -0.000000000000000000, 1.000000000000000000 ) ) ;
#291 = CYLINDRICAL_SURFACE ( 'NONE', #3, 2.100000000000000977 ) ;
#292 = LINE ( 'NONE', #683, #411 ) ;
#293 = EDGE_CURVE ( 'NONE', #1179, #1251, #795, .T. ) ;
#294 = VERTEX_POINT ( 'NONE', #4 ) ;
#295 = PLANE ( 'NONE',  #623 ) ;
#296 = ADVANCED_FACE ( 'NONE', ( #86 ), #978, .T. ) ;
#297 = ORIENTED_EDGE ( 'NONE', *, *, #1014, .T. ) ;
#298 = CARTESIAN_POINT ( 'NONE',  ( -5.999999999999999112, 44.50000000000000000, 25.00000000000000000 ) ) ;
#299 = DIRECTION ( 'NONE',  ( 1.000000000000000000, 0.000000000000000000, 0.000000000000000000 ) ) ;
#300 = CARTESIAN_POINT ( 'NONE',  ( -2.992676267735063026E-16, 39.50000000000000711, 0.000000000000000000 ) ) ;
#301 = DIRECTION ( 'NONE',  ( 6.380592095546878245E-16, -1.000000000000000000, -4.930380657631323784E-32 ) ) ;
#302 = EDGE_LOOP ( 'NONE', ( #816, #140 ) ) ;
#303 = DIRECTION ( 'NONE',  ( -6.380592095546878245E-16, 1.000000000000000000, 4.930380657631323784E-32 ) ) ;
#304 = CARTESIAN_POINT ( 'NONE',  ( 74.99999999999995737, -4.999999999999952038, 12.50000000000001066 ) ) ;
#305 = CARTESIAN_POINT ( 'NONE',  ( 87.00000000000001421, -9.999999999999944933, 0.9999999999999592548 ) ) ;
#306 = CARTESIAN_POINT ( 'NONE',  ( 92.00000000000002842, -9.999999999999944933, 25.00000000000000000 ) ) ;
#307 = ORIENTED_EDGE ( 'NONE', *, *, #113, .F. ) ;
#308 = CARTESIAN_POINT ( 'NONE',  ( 87.00000000000000000, 38.50000000000003553, 25.00000000000000000 ) ) ;
#309 = AXIS2_PLACEMENT_3D ( 'NONE', #542, #352, #1033 ) ;
#310 = CARTESIAN_POINT ( 'NONE',  ( 87.00000000000000000, 5.551115123125782702E-14, 25.00000000000000000 ) ) ;
#311 = AXIS2_PLACEMENT_3D ( 'NONE', #72, #646, #932 ) ;
#312 = ORIENTED_EDGE ( 'NONE', *, *, #68, .T. ) ;
#313 = CARTESIAN_POINT ( 'NONE',  ( 82.99999999999998579, 39.26473824514339128, 24.76473824514333799 ) ) ;
#314 = ORIENTED_EDGE ( 'NONE', *, *, #704, .T. ) ;
#315 = DIRECTION ( 'NONE',  ( -0.5773502691896257311, -0.5773502691896258421, -0.5773502691896258421 ) ) ;
#316 = EDGE_CURVE ( 'NONE', #1101, #848, #292, .T. ) ;
#317 = CARTESIAN_POINT ( 'NONE',  ( 0.000000000000000000, 0.000000000000000000, 1.000000000000014655 ) ) ;
#318 = CIRCLE ( 'NONE', #971, 4.000000000000000000 ) ;
#319 = CARTESIAN_POINT ( 'NONE',  ( 0.000000000000000000, 0.000000000000000000, 23.99999999999998579 ) ) ;
#320 = VERTEX_POINT ( 'NONE', #304 ) ;
#321 = DIRECTION ( 'NONE',  ( -0.5773502691896259531, 0.5773502691896256200, 0.5773502691896258421 ) ) ;
#322 = PRODUCT_DEFINITION_SHAPE ( 'NONE', 'NONE',  #617 ) ;
#323 = CARTESIAN_POINT ( 'NONE',  ( -5.999999999999999112, 41.54593407714619957, 25.00000000000000000 ) ) ;
#324 = EDGE_CURVE ( 'NONE', #771, #339, #448, .T. ) ;
#325 = CARTESIAN_POINT ( 'NONE',  ( 6.380592095546971922E-16, -1.000000000000014655, 25.00000000000000000 ) ) ;
#326 = ORIENTED_EDGE ( 'NONE', *, *, #161, .F. ) ;
#327 = DIRECTION ( 'NONE',  ( 0.5773502691896253980, 0.5773502691896261751, -0.5773502691896257311 ) ) ;
#328 = PLANE ( 'NONE',  #1121 ) ;
#329 = COLOUR_RGB ( '',0.7921568627450980005, 0.8196078431372548767, 0.9333333333333333481 ) ;
#330 = DIRECTION ( 'NONE',  ( -3.728456751177473127E-17, -1.000000000000000000, 0.000000000000000000 ) ) ;
#331 = ORIENTED_EDGE ( 'NONE', *, *, #615, .F. ) ;
#332 = EDGE_CURVE ( 'NONE', #368, #1147, #1144, .T. ) ;
#333 = DIRECTION ( 'NONE',  ( 1.734723475976805517E-15, 1.000000000000000000, -0.000000000000000000 ) ) ;
#334 = EDGE_CURVE ( 'NONE', #1188, #1032, #776, .T. ) ;
#335 = DIRECTION ( 'NONE',  ( -0.000000000000000000, -0.000000000000000000, 1.000000000000000000 ) ) ;
#336 = VECTOR ( 'NONE', #315, 1000.000000000000000 ) ;
#337 = PLANE ( 'NONE',  #1241 ) ;
#338 = VERTEX_POINT ( 'NONE', #608 ) ;
#339 = VERTEX_POINT ( 'NONE', #112 ) ;
#340 = EDGE_CURVE ( 'NONE', #771, #1027, #204, .T. ) ;
#341 = CARTESIAN_POINT ( 'NONE',  ( 82.99999999999998579, 39.14593407714624362, 25.00000000000000000 ) ) ;
#342 = PRODUCT_RELATED_PRODUCT_CATEGORY ( 'part', '', ( #119 ) ) ;
#343 = CARTESIAN_POINT ( 'NONE',  ( 88.00000000000001421, -0.9999999999999585887, 25.00000000000000000 ) ) ;
#344 = CARTESIAN_POINT ( 'NONE',  ( 70.99999999999997158, -4.999999999999954703, 12.50000000000001066 ) ) ;
#345 = EDGE_LOOP ( 'NONE', ( #514, #60, #473, #1225 ) ) ;
#346 = LINE ( 'NONE', #778, #1239 ) ;
#347 = CARTESIAN_POINT ( 'NONE',  ( 12.00000000000002842, -4.999999999999992006, 12.50000000000001066 ) ) ;
#348 = CARTESIAN_POINT ( 'NONE',  ( 16.00000000000002842, -4.999999999999989342, 12.50000000000001066 ) ) ;
#349 = ADVANCED_FACE ( 'NONE', ( #1248 ), #1059, .F. ) ;
#350 = ORIENTED_EDGE ( 'NONE', *, *, #285, .F. ) ;
#351 = VECTOR ( 'NONE', #355, 1000.000000000000000 ) ;
#352 = DIRECTION ( 'NONE',  ( 0.000000000000000000, 0.000000000000000000, -1.000000000000000000 ) ) ;
#353 = FACE_OUTER_BOUND ( 'NONE', #896, .T. ) ;
#354 = AXIS2_PLACEMENT_3D ( 'NONE', #443, #743, #1034 ) ;
#355 = DIRECTION ( 'NONE',  ( -0.000000000000000000, -1.000000000000000000, -0.000000000000000000 ) ) ;
#356 = ORIENTED_EDGE ( 'NONE', *, *, #334, .T. ) ;
#357 = ORIENTED_EDGE ( 'NONE', *, *, #987, .F. ) ;
#358 = CARTESIAN_POINT ( 'NONE',  ( 70.99999999999997158, 4.530271015094899933E-14, 12.50000000000001066 ) ) ;
#359 = DIRECTION ( 'NONE',  ( 0.000000000000000000, 0.000000000000000000, 1.000000000000000000 ) ) ;
#360 = CIRCLE ( 'NONE', #755, 2.000000000000001776 ) ;
#361 = DIRECTION ( 'NONE',  ( -0.5773502691896257311, -0.5773502691896258421, 0.5773502691896258421 ) ) ;
#362 = ADVANCED_FACE ( 'NONE', ( #413 ), #182, .F. ) ;
#363 = ORIENTED_EDGE ( 'NONE', *, *, #5, .F. ) ;
#364 = EDGE_LOOP ( 'NONE', ( #779, #597, #609, #1152 ) ) ;
#365 = FACE_OUTER_BOUND ( 'NONE', #648, .T. ) ;
#366 = VECTOR ( 'NONE', #931, 1000.000000000000000 ) ;
#367 = FACE_OUTER_BOUND ( 'NONE', #878, .T. ) ;
#368 = VERTEX_POINT ( 'NONE', #284 ) ;
#369 = CIRCLE ( 'NONE', #1076, 2.000000000000001776 ) ;
#370 = EDGE_CURVE ( 'NONE', #1179, #1085, #469, .T. ) ;
#371 = EDGE_LOOP ( 'NONE', ( #75, #220, #1114, #253, #541, #1230 ) ) ;
#372 = VECTOR ( 'NONE', #477, 1000.000000000000114 ) ;
#373 = DIRECTION ( 'NONE',  ( 0.000000000000000000, 0.000000000000000000, -1.000000000000000000 ) ) ;
#374 = CARTESIAN_POINT ( 'NONE',  ( 0.000000000000000000, 0.000000000000000000, 0.000000000000000000 ) ) ;
#375 = DIRECTION ( 'NONE',  ( -6.380592095546877258E-16, 1.000000000000000000, -0.000000000000000000 ) ) ;
#376 = ORIENTED_EDGE ( 'NONE', *, *, #1126, .T. ) ;
#377 = SURFACE_STYLE_FILL_AREA ( #1018 ) ;
#378 = ORIENTED_EDGE ( 'NONE', *, *, #820, .F. ) ;
#379 = PRODUCT_DEFINITION_CONTEXT ( 'detailed design', #1123, 'design' ) ;
#380 = ADVANCED_FACE ( 'NONE', ( #877 ), #400, .T. ) ;
#381 = DIRECTION ( 'NONE',  ( 0.9284766908852594147, 0.3713906763541036105, 0.000000000000000000 ) ) ;
#382 = EDGE_CURVE ( 'NONE', #1168, #558, #1052, .T. ) ;
#383 = DIRECTION ( 'NONE',  ( -6.380592095546877258E-16, 1.000000000000000000, -0.000000000000000000 ) ) ;
#384 = CARTESIAN_POINT ( 'NONE',  ( 92.99999999999998579, -8.999999999999987566, 25.00000000000000000 ) ) ;
#385 = ORIENTED_EDGE ( 'NONE', *, *, #239, .F. ) ;
#386 = CARTESIAN_POINT ( 'NONE',  ( 90.99999999999998579, 41.54593407714623510, 0.000000000000000000 ) ) ;
#387 = ORIENTED_EDGE ( 'NONE', *, *, #431, .F. ) ;
#388 = LINE ( 'NONE', #766, #834 ) ;
#389 = EDGE_CURVE ( 'NONE', #535, #392, #789, .T. ) ;
#390 = DIRECTION ( 'NONE',  ( -6.380592095546877258E-16, 1.000000000000000000, -0.000000000000000000 ) ) ;
#391 = CARTESIAN_POINT ( 'NONE',  ( 87.00000000000000000, 5.551115123125782702E-14, 23.99999999999998579 ) ) ;
#392 = VERTEX_POINT ( 'NONE', #391 ) ;
#393 = CARTESIAN_POINT ( 'NONE',  ( 84.25721864729177923, 41.00288745891676001, 0.000000000000000000 ) ) ;
#394 = EDGE_CURVE ( 'NONE', #1032, #294, #360, .T. ) ;
#395 = ORIENTED_EDGE ( 'NONE', *, *, #432, .T. ) ;
#396 = PRESENTATION_LAYER_ASSIGNMENT (  '', '', ( #41 ) ) ;
#397 = UNCERTAINTY_MEASURE_WITH_UNIT (LENGTH_MEASURE( 1.000000000000000082E-05 ), #775, 'distance_accuracy_value', 'NONE');
#398 = VECTOR ( 'NONE', #732, 1000.000000000000000 ) ;
#399 = CARTESIAN_POINT ( 'NONE',  ( 68.89999999999996305, -10.00000000000001599, 12.50000000000001066 ) ) ;
#400 = CYLINDRICAL_SURFACE ( 'NONE', #259, 2.000000000000000000 ) ;
#401 = ORIENTED_EDGE ( 'NONE', *, *, #424, .F. ) ;
#402 = DIRECTION ( 'NONE',  ( 0.000000000000000000, 0.7071067811865474617, -0.7071067811865474617 ) ) ;
#403 = EDGE_LOOP ( 'NONE', ( #759, #217, #953, #202 ) ) ;
#404 =( BOUNDED_CURVE ( )  B_SPLINE_CURVE ( 3, ( #876, #189, #662, #461 ),
 .UNSPECIFIED., .F., .F. ) 
 B_SPLINE_CURVE_WITH_KNOTS ( ( 4, 4 ),
 ( 1.392825353210045636, 1.570796326794898112 ),
 .UNSPECIFIED. ) 
 CURVE ( )  GEOMETRIC_REPRESENTATION_ITEM ( )  RATIONAL_B_SPLINE_CURVE ( ( 1.000000000000000000, 0.9973622689572733124, 0.9973622689572733124, 1.000000000000000000 ) ) 
 REPRESENTATION_ITEM ( '' )  );
#405 = DIRECTION ( 'NONE',  ( 0.000000000000000000, -1.000000000000000000, 0.000000000000000000 ) ) ;
#406 = DIRECTION ( 'NONE',  ( 1.000000000000000000, 1.734723475976807489E-15, 0.000000000000000000 ) ) ;
#407 = ORIENTED_EDGE ( 'NONE', *, *, #1150, .F. ) ;
#408 = CARTESIAN_POINT ( 'NONE',  ( 1.435455849203326824E-15, 38.49999999999999289, 1.000000000000014655 ) ) ;
#409 = ADVANCED_FACE ( 'NONE', ( #106 ), #890, .F. ) ;
#410 = EDGE_LOOP ( 'NONE', ( #1120, #974, #496, #1023, #414 ) ) ;
#411 = VECTOR ( 'NONE', #406, 1000.000000000000000 ) ;
#412 = LINE ( 'NONE', #997, #336 ) ;
#413 = FACE_OUTER_BOUND ( 'NONE', #254, .T. ) ;
#414 = ORIENTED_EDGE ( 'NONE', *, *, #912, .F. ) ;
#415 = DIRECTION ( 'NONE',  ( 0.000000000000000000, 0.000000000000000000, -1.000000000000000000 ) ) ;
#416 = ORIENTED_EDGE ( 'NONE', *, *, #139, .T. ) ;
#417 = ADVANCED_FACE ( 'NONE', ( #634, #1087 ), #1020, .T. ) ;
#418 = CARTESIAN_POINT ( 'NONE',  ( 4.000000000000000888, 39.50000000000001421, 24.99999999999999645 ) ) ;
#419 = CARTESIAN_POINT ( 'NONE',  ( 87.00000000000001421, -9.999999999999944933, 25.00000000000000000 ) ) ;
#420 = AXIS2_PLACEMENT_3D ( 'NONE', #30, #1198, #545 ) ;
#421 = CARTESIAN_POINT ( 'NONE',  ( 92.99999999999998579, 44.50000000000004263, 25.00000000000000000 ) ) ;
#422 = ORIENTED_EDGE ( 'NONE', *, *, #744, .T. ) ;
#423 = CARTESIAN_POINT ( 'NONE',  ( -1.000000000000012657, 39.50000000000000711, 25.00000000000000000 ) ) ;
#424 = EDGE_CURVE ( 'NONE', #909, #848, #731, .T. ) ;
#425 = CARTESIAN_POINT ( 'NONE',  ( 20.00000000000002487, 1.276067791852757859E-14, 12.50000000000001066 ) ) ;
#426 = LINE ( 'NONE', #999, #1040 ) ;
#427 = ORIENTED_EDGE ( 'NONE', *, *, #783, .F. ) ;
#428 = VECTOR ( 'NONE', #335, 1000.000000000000000 ) ;
#429 = DIRECTION ( 'NONE',  ( -1.000000000000000000, -8.260587980841934835E-16, 0.000000000000000000 ) ) ;
#430 = DIRECTION ( 'NONE',  ( -1.000000000000000000, 0.000000000000000000, 0.000000000000000000 ) ) ;
#431 = EDGE_CURVE ( 'NONE', #339, #1179, #998, .T. ) ;
#432 = EDGE_CURVE ( 'NONE', #695, #503, #906, .T. ) ;
#433 = LINE ( 'NONE', #319, #269 ) ;
#434 = ORIENTED_EDGE ( 'NONE', *, *, #1047, .T. ) ;
#435 = ORIENTED_EDGE ( 'NONE', *, *, #370, .T. ) ;
#436 = CARTESIAN_POINT ( 'NONE',  ( 3.989442099803161668, 39.38307235297760656, 0.1169276470224149406 ) ) ;
#437 = FACE_OUTER_BOUND ( 'NONE', #1154, .T. ) ;
#438 = VECTOR ( 'NONE', #402, 1000.000000000000114 ) ;
#439 = DIRECTION ( 'NONE',  ( 1.000000000000000000, -1.734723475976805517E-15, 0.000000000000000000 ) ) ;
#440 = ORIENTED_EDGE ( 'NONE', *, *, #324, .T. ) ;
#441 = ORIENTED_EDGE ( 'NONE', *, *, #865, .F. ) ;
#442 = LINE ( 'NONE', #341, #104 ) ;
#443 = CARTESIAN_POINT ( 'NONE',  ( 16.00000000000003197, -10.00000000000004796, 12.50000000000001066 ) ) ;
#444 = LINE ( 'NONE', #526, #398 ) ;
#445 = VERTEX_POINT ( 'NONE', #625 ) ;
#446 = VERTEX_POINT ( 'NONE', #1177 ) ;
#447 = FACE_OUTER_BOUND ( 'NONE', #288, .T. ) ;
#448 = CIRCLE ( 'NONE', #1106, 2.000000000000000000 ) ;
#449 = PLANE ( 'NONE',  #173 ) ;
#450 = FACE_OUTER_BOUND ( 'NONE', #880, .T. ) ;
#451 = ORIENTED_EDGE ( 'NONE', *, *, #370, .F. ) ;
#452 = CARTESIAN_POINT ( 'NONE',  ( 92.99999999999998579, 44.50000000000004263, 0.000000000000000000 ) ) ;
#453 = CARTESIAN_POINT ( 'NONE',  ( 74.99999999999995737, 4.785494698916774550E-14, 12.50000000000001066 ) ) ;
#454 = PLANE ( 'NONE',  #954 ) ;
#455 = VECTOR ( 'NONE', #843, 1000.000000000000114 ) ;
#456 = VERTEX_POINT ( 'NONE', #723 ) ;
#457 = ORIENTED_EDGE ( 'NONE', *, *, #394, .F. ) ;
#458 = VECTOR ( 'NONE', #327, 999.9999999999998863 ) ;
#459 = DIRECTION ( 'NONE',  ( -1.000000000000000000, -6.505213034913026604E-16, 0.000000000000000000 ) ) ;
#460 = EDGE_CURVE ( 'NONE', #1129, #964, #1099, .T. ) ;
#461 = CARTESIAN_POINT ( 'NONE',  ( 82.99999999999998579, 39.14593407714624362, 0.3540659228538113323 ) ) ;
#462 = AXIS2_PLACEMENT_3D ( 'NONE', #826, #913, #813 ) ;
#463 = CARTESIAN_POINT ( 'NONE',  ( 88.00000000000001421, 38.50000000000003553, 0.000000000000000000 ) ) ;
#464 = EDGE_LOOP ( 'NONE', ( #746, #466, #1145, #790 ) ) ;
#465 =( BOUNDED_CURVE ( )  B_SPLINE_CURVE ( 3, ( #613, #619, #436, #624 ),
 .UNSPECIFIED., .F., .F. ) 
 B_SPLINE_CURVE_WITH_KNOTS ( ( 4, 4 ),
 ( 4.712388980384687898, 4.890359953969541706 ),
 .UNSPECIFIED. ) 
 CURVE ( )  GEOMETRIC_REPRESENTATION_ITEM ( )  RATIONAL_B_SPLINE_CURVE ( ( 1.000000000000000000, 0.9973622689572733124, 0.9973622689572733124, 1.000000000000000000 ) ) 
 REPRESENTATION_ITEM ( '' )  );
#466 = ORIENTED_EDGE ( 'NONE', *, *, #950, .T. ) ;
#467 = LINE ( 'NONE', #651, #819 ) ;
#468 = CARTESIAN_POINT ( 'NONE',  ( 0.000000000000000000, -8.999999999999985789, 25.00000000000000000 ) ) ;
#469 = CIRCLE ( 'NONE', #915, 2.000000000000000000 ) ;
#470 = CARTESIAN_POINT ( 'NONE',  ( 0.000000000000000000, 0.000000000000000000, 25.00000000000000000 ) ) ;
#471 = EDGE_CURVE ( 'NONE', #489, #787, #1083, .T. ) ;
#472 = ORIENTED_EDGE ( 'NONE', *, *, #820, .T. ) ;
#473 = ORIENTED_EDGE ( 'NONE', *, *, #242, .F. ) ;
#474 = CARTESIAN_POINT ( 'NONE',  ( 20.00000000000002842, -4.999999999999986677, 12.50000000000001066 ) ) ;
#475 = VECTOR ( 'NONE', #588, 1000.000000000000000 ) ;
#476 = CARTESIAN_POINT ( 'NONE',  ( 12.00000000000002487, 7.656204242090076783E-15, 12.50000000000001066 ) ) ;
#477 = DIRECTION ( 'NONE',  ( 0.5773502691896258421, -0.5773502691896251759, 0.5773502691896261751 ) ) ;
#478 = ORIENTED_EDGE ( 'NONE', *, *, #324, .F. ) ;
#479 = DIRECTION ( 'NONE',  ( 6.380592095546878245E-16, -1.000000000000000000, -4.930380657631323784E-32 ) ) ;
#480 = ADVANCED_FACE ( 'NONE', ( #34 ), #1103, .F. ) ;
#481 = AXIS2_PLACEMENT_3D ( 'NONE', #50, #479, #924 ) ;
#482 = ADVANCED_FACE ( 'NONE', ( #24, #1190, #1009 ), #803, .F. ) ;
#483 = ORIENTED_EDGE ( 'NONE', *, *, #600, .T. ) ;
#484 = CIRCLE ( 'NONE', #84, 2.100000000000000977 ) ;
#485 = FACE_OUTER_BOUND ( 'NONE', #487, .T. ) ;
#486 = CARTESIAN_POINT ( 'NONE',  ( 2.000000000000001776, 39.14593407714620099, 25.00000000000000000 ) ) ;
#487 = EDGE_LOOP ( 'NONE', ( #765, #95, #110, #572 ) ) ;
#488 = SURFACE_STYLE_USAGE ( .BOTH. , #154 ) ;
#489 = VERTEX_POINT ( 'NONE', #323 ) ;
#490 = EDGE_CURVE ( 'NONE', #733, #456, #225, .T. ) ;
#491 = CARTESIAN_POINT ( 'NONE',  ( 16.00000000000002487, 1.020844108030882769E-14, 12.50000000000001066 ) ) ;
#492 = DIRECTION ( 'NONE',  ( -1.000000000000000000, -8.260587980841934835E-16, 0.000000000000000000 ) ) ;
#493 = CARTESIAN_POINT ( 'NONE',  ( 92.99999999999998579, 41.54593407714623510, 25.00000000000000000 ) ) ;
#494 = EDGE_CURVE ( 'NONE', #964, #811, #644, .T. ) ;
#495 = VECTOR ( 'NONE', #361, 1000.000000000000000 ) ;
#496 = ORIENTED_EDGE ( 'NONE', *, *, #152, .F. ) ;
#497 = FACE_OUTER_BOUND ( 'NONE', #1216, .T. ) ;
#498 = ORIENTED_EDGE ( 'NONE', *, *, #273, .F. ) ;
#499 = CARTESIAN_POINT ( 'NONE',  ( 16.00000000000002487, 1.020844108030882769E-14, 12.50000000000001066 ) ) ;
#500 = DIRECTION ( 'NONE',  ( -1.000000000000000000, 3.728456751177473127E-17, 0.000000000000000000 ) ) ;
#501 = VERTEX_POINT ( 'NONE', #29 ) ;
#502 = LINE ( 'NONE', #886, #845 ) ;
#503 = VERTEX_POINT ( 'NONE', #425 ) ;
#504 = VECTOR ( 'NONE', #249, 1000.000000000000000 ) ;
#505 = CIRCLE ( 'NONE', #722, 2.100000000000004530 ) ;
#506 = CARTESIAN_POINT ( 'NONE',  ( 87.00000000000000000, 5.551115123125782702E-14, 1.000000000000014655 ) ) ;
#507 = CARTESIAN_POINT ( 'NONE',  ( -4.000000000000000000, 41.54593407714619957, 25.00000000000000000 ) ) ;
#508 = CARTESIAN_POINT ( 'NONE',  ( 87.00000000000000000, 38.50000000000003553, 23.99999999999998579 ) ) ;
#509 = CARTESIAN_POINT ( 'NONE',  ( 92.99999999999998579, -8.999999999999987566, 0.000000000000000000 ) ) ;
#510 = EDGE_LOOP ( 'NONE', ( #416, #129 ) ) ;
#511 = LINE ( 'NONE', #899, #23 ) ;
#512 = CARTESIAN_POINT ( 'NONE',  ( -5.999999999999999112, 44.50000000000000000, 0.000000000000000000 ) ) ;
#513 = AXIS2_PLACEMENT_3D ( 'NONE', #846, #64, #1226 ) ;
#514 = ORIENTED_EDGE ( 'NONE', *, *, #844, .T. ) ;
#515 = CARTESIAN_POINT ( 'NONE',  ( 84.99999999999998579, 39.14593407714624362, 0.000000000000000000 ) ) ;
#516 = ADVANCED_FACE ( 'NONE', ( #437 ), #328, .F. ) ;
#517 = EDGE_LOOP ( 'NONE', ( #434, #590, #849, #948 ) ) ;
#518 = DIRECTION ( 'NONE',  ( 6.380592095546878245E-16, -1.000000000000000000, -4.930380657631323784E-32 ) ) ;
#519 = DIRECTION ( 'NONE',  ( -1.000000000000000000, -6.380592095546878245E-16, 0.000000000000000000 ) ) ;
#520 = DIRECTION ( 'NONE',  ( -1.000000000000000000, -6.505213034913043367E-16, 0.000000000000000000 ) ) ;
#521 = CIRCLE ( 'NONE', #741, 2.100000000000000977 ) ;
#522 = ORIENTED_EDGE ( 'NONE', *, *, #1038, .T. ) ;
#523 = ADVANCED_FACE ( 'NONE', ( #235 ), #926, .F. ) ;
#524 = LINE ( 'NONE', #537, #682 ) ;
#525 = CYLINDRICAL_SURFACE ( 'NONE', #462, 2.000000000000001776 ) ;
#526 = CARTESIAN_POINT ( 'NONE',  ( 87.00000000000000000, -0.9999999999999592548, 0.000000000000000000 ) ) ;
#527 = ORIENTED_EDGE ( 'NONE', *, *, #490, .F. ) ;
#528 = AXIS2_PLACEMENT_3D ( 'NONE', #310, #705, #532 ) ;
#529 = ADVANCED_FACE ( 'NONE', ( #918 ), #525, .T. ) ;
#530 = CARTESIAN_POINT ( 'NONE',  ( 82.99999999999998579, 39.14593407714624362, 24.64593407714618678 ) ) ;
#531 = EDGE_CURVE ( 'NONE', #1182, #1168, #240, .T. ) ;
#532 = DIRECTION ( 'NONE',  ( 0.000000000000000000, 0.000000000000000000, -1.000000000000000000 ) ) ;
#533 = AXIS2_PLACEMENT_3D ( 'NONE', #179, #961, #83 ) ;
#534 = DIRECTION ( 'NONE',  ( -6.380592095546877258E-16, 1.000000000000000000, -0.000000000000000000 ) ) ;
#535 = VERTEX_POINT ( 'NONE', #160 ) ;
#536 = AXIS2_PLACEMENT_3D ( 'NONE', #348, #745, #750 ) ;
#537 = CARTESIAN_POINT ( 'NONE',  ( 6.852157730108415791E-14, 39.50000000000019895, 25.00000000000000000 ) ) ;
#538 = CARTESIAN_POINT ( 'NONE',  ( 92.99999999999998579, -8.999999999999987566, 25.00000000000000000 ) ) ;
#539 = LINE ( 'NONE', #421, #658 ) ;
#540 = EDGE_CURVE ( 'NONE', #622, #823, #131, .T. ) ;
#541 = ORIENTED_EDGE ( 'NONE', *, *, #1134, .F. ) ;
#542 = CARTESIAN_POINT ( 'NONE',  ( -4.000000000000000000, 41.54593407714619957, 0.000000000000000000 ) ) ;
#543 = DIRECTION ( 'NONE',  ( 0.000000000000000000, 1.000000000000000000, 0.000000000000000000 ) ) ;
#544 = VECTOR ( 'NONE', #88, 1000.000000000000000 ) ;
#545 = DIRECTION ( 'NONE',  ( 1.000000000000000000, -0.000000000000000000, 0.000000000000000000 ) ) ;
#546 = VECTOR ( 'NONE', #375, 1000.000000000000000 ) ;
#547 = ORIENTED_EDGE ( 'NONE', *, *, #256, .T. ) ;
#548 = ORIENTED_EDGE ( 'NONE', *, *, #152, .T. ) ;
#549 = DIRECTION ( 'NONE',  ( 6.380592095546878245E-16, -1.000000000000000000, -4.930380657631323784E-32 ) ) ;
#550 = CARTESIAN_POINT ( 'NONE',  ( -5.999999999999999112, -8.999999999999985789, 25.00000000000000000 ) ) ;
#551 = PLANE ( 'NONE',  #311 ) ;
#552 = EDGE_LOOP ( 'NONE', ( #268, #916, #854, #37 ) ) ;
#553 = EDGE_CURVE ( 'NONE', #939, #602, #1233, .T. ) ;
#554 = PRESENTATION_STYLE_ASSIGNMENT (( #488 ) ) ;
#555 = AXIS2_PLACEMENT_3D ( 'NONE', #663, #1046, #175 ) ;
#556 = DIRECTION ( 'NONE',  ( -4.511759938746481073E-16, 0.7071067811865475727, -0.7071067811865475727 ) ) ;
#557 = LINE ( 'NONE', #463, #231 ) ;
#558 = VERTEX_POINT ( 'NONE', #250 ) ;
#559 = ORIENTED_EDGE ( 'NONE', *, *, #97, .T. ) ;
#560 = ADVANCED_FACE ( 'NONE', ( #760 ), #568, .T. ) ;
#561 = CYLINDRICAL_SURFACE ( 'NONE', #1021, 4.000000000000000000 ) ;
#562 = CARTESIAN_POINT ( 'NONE',  ( -3.257218647291795666, 43.40288745891671596, 0.000000000000000000 ) ) ;
#563 = CARTESIAN_POINT ( 'NONE',  ( 6.380592095546971922E-16, -1.000000000000014655, 25.00000000000000000 ) ) ;
#564 = CIRCLE ( 'NONE', #638, 3.999999999999989786 ) ;
#565 = AXIS2_PLACEMENT_3D ( 'NONE', #1211, #914, #146 ) ;
#566 = ORIENTED_EDGE ( 'NONE', *, *, #715, .T. ) ;
#567 = ORIENTED_EDGE ( 'NONE', *, *, #63, .T. ) ;
#568 = PLANE ( 'NONE',  #1185 ) ;
#569 = ADVANCED_FACE ( 'NONE', ( #365 ), #1219, .F. ) ;
#570 = LINE ( 'NONE', #67, #351 ) ;
#571 = EDGE_LOOP ( 'NONE', ( #102, #669 ) ) ;
#572 = ORIENTED_EDGE ( 'NONE', *, *, #647, .F. ) ;
#573 = LINE ( 'NONE', #1210, #983 ) ;
#574 = CARTESIAN_POINT ( 'NONE',  ( 16.00000000000003197, -10.00000000000004796, 12.50000000000001066 ) ) ;
#575 = VECTOR ( 'NONE', #986, 1000.000000000000114 ) ;
#576 = FACE_OUTER_BOUND ( 'NONE', #552, .T. ) ;
#577 = ADVANCED_FACE ( 'NONE', ( #353 ), #561, .F. ) ;
#578 = ORIENTED_EDGE ( 'NONE', *, *, #21, .T. ) ;
#579 = ORIENTED_EDGE ( 'NONE', *, *, #736, .F. ) ;
#580 = FACE_OUTER_BOUND ( 'NONE', #247, .T. ) ;
#581 =( NAMED_UNIT ( * ) PLANE_ANGLE_UNIT ( ) SI_UNIT ( $, .RADIAN. ) );
#582 = DIRECTION ( 'NONE',  ( -0.000000000000000000, -0.000000000000000000, 1.000000000000000000 ) ) ;
#583 = EDGE_LOOP ( 'NONE', ( #79, #1, #726, #6 ) ) ;
#584 = DIRECTION ( 'NONE',  ( -1.226634733346697141E-15, -0.7071067811865469066, -0.7071067811865481278 ) ) ;
#585 = ORIENTED_EDGE ( 'NONE', *, *, #1113, .T. ) ;
#586 = AXIS2_PLACEMENT_3D ( 'NONE', #626, #534, #520 ) ;
#587 = FACE_OUTER_BOUND ( 'NONE', #100, .T. ) ;
#588 = DIRECTION ( 'NONE',  ( 1.000000000000000000, 0.000000000000000000, 0.000000000000000000 ) ) ;
#589 = DIRECTION ( 'NONE',  ( 0.000000000000000000, 0.000000000000000000, -1.000000000000000000 ) ) ;
#590 = ORIENTED_EDGE ( 'NONE', *, *, #5, .T. ) ;
#591 = DIRECTION ( 'NONE',  ( -1.000000000000000000, -6.505213034913026604E-16, 0.000000000000000000 ) ) ;
#592 = VERTEX_POINT ( 'NONE', #1039 ) ;
#593 = CARTESIAN_POINT ( 'NONE',  ( -1.000000000000014211, -1.000000000000015321, 25.00000000000000000 ) ) ;
#594 = CARTESIAN_POINT ( 'NONE',  ( 0.000000000000000000, 0.000000000000000000, 25.00000000000000000 ) ) ;
#595 = VERTEX_POINT ( 'NONE', #1130 ) ;
#596 = DIRECTION ( 'NONE',  ( 0.000000000000000000, 0.000000000000000000, -1.000000000000000000 ) ) ;
#597 = ORIENTED_EDGE ( 'NONE', *, *, #139, .F. ) ;
#598 = ADVANCED_FACE ( 'NONE', ( #58 ), #1124, .T. ) ;
#599 = CARTESIAN_POINT ( 'NONE',  ( -1.000000000000014211, -1.000000000000015321, 0.000000000000000000 ) ) ;
#600 = EDGE_CURVE ( 'NONE', #141, #446, #1044, .T. ) ;
#601 = DIRECTION ( 'NONE',  ( -1.000000000000000000, 0.000000000000000000, 0.000000000000000000 ) ) ;
#602 = VERTEX_POINT ( 'NONE', #661 ) ;
#603 = CARTESIAN_POINT ( 'NONE',  ( 1.435455849203326824E-15, 38.49999999999999289, 1.000000000000014655 ) ) ;
#604 = VERTEX_POINT ( 'NONE', #347 ) ;
#605 = VECTOR ( 'NONE', #1091, 1000.000000000000114 ) ;
#606 = DIRECTION ( 'NONE',  ( 0.000000000000000000, -1.000000000000000000, 0.000000000000000000 ) ) ;
#607 = ADVANCED_FACE ( 'NONE', ( #833 ), #656, .F. ) ;
#608 = CARTESIAN_POINT ( 'NONE',  ( 73.09999999999996589, -4.999999999999952927, 12.50000000000001066 ) ) ;
#609 = ORIENTED_EDGE ( 'NONE', *, *, #687, .T. ) ;
#610 = DIRECTION ( 'NONE',  ( -1.000000000000000000, 0.000000000000000000, 0.000000000000000000 ) ) ;
#611 = EDGE_CURVE ( 'NONE', #595, #636, #467, .T. ) ;
#612 = ORIENTED_EDGE ( 'NONE', *, *, #205, .T. ) ;
#613 = CARTESIAN_POINT ( 'NONE',  ( 4.000000000000000888, 39.14593407714620099, 0.3540659228538148295 ) ) ;
#614 = DIRECTION ( 'NONE',  ( -0.000000000000000000, -1.000000000000000000, -0.000000000000000000 ) ) ;
#615 = EDGE_CURVE ( 'NONE', #392, #141, #573, .T. ) ;
#616 = PLANE ( 'NONE',  #420 ) ;
#617 = PRODUCT_DEFINITION ( 'UNKNOWN', '', #842, #379 ) ;
#618 = ORIENTED_EDGE ( 'NONE', *, *, #165, .T. ) ;
#619 = CARTESIAN_POINT ( 'NONE',  ( 4.000000000000001776, 39.26473824514334865, 0.2352617548566682815 ) ) ;
#620 = DIRECTION ( 'NONE',  ( -0.000000000000000000, -0.000000000000000000, 1.000000000000000000 ) ) ;
#621 = DIRECTION ( 'NONE',  ( -1.000000000000000000, -8.260587980841934835E-16, 0.000000000000000000 ) ) ;
#622 = VERTEX_POINT ( 'NONE', #453 ) ;
#623 = AXIS2_PLACEMENT_3D ( 'NONE', #791, #108, #679 ) ;
#624 = CARTESIAN_POINT ( 'NONE',  ( 3.968409846112765926, 39.50000000000001421, 0.000000000000000000 ) ) ;
#625 = CARTESIAN_POINT ( 'NONE',  ( 18.10000000000003340, -10.00000000000004619, 12.50000000000001066 ) ) ;
#626 = CARTESIAN_POINT ( 'NONE',  ( 70.99999999999997158, -4.999999999999954703, 12.50000000000001066 ) ) ;
#627 = ORIENTED_EDGE ( 'NONE', *, *, #687, .F. ) ;
#628 = DIRECTION ( 'NONE',  ( 1.226634733346697141E-15, 0.7071067811865469066, -0.7071067811865481278 ) ) ;
#629 = DIRECTION ( 'NONE',  ( 0.000000000000000000, 0.000000000000000000, -1.000000000000000000 ) ) ;
#630 = AXIS2_PLACEMENT_3D ( 'NONE', #1149, #103, #381 ) ;
#631 = FACE_OUTER_BOUND ( 'NONE', #281, .T. ) ;
#632 = ORIENTED_EDGE ( 'NONE', *, *, #382, .T. ) ;
#633 = CARTESIAN_POINT ( 'NONE',  ( 4.000000000000000888, 39.14593407714620099, 24.64593407714618678 ) ) ;
#634 = FACE_OUTER_BOUND ( 'NONE', #81, .T. ) ;
#635 = DIRECTION ( 'NONE',  ( 1.000000000000000000, 0.000000000000000000, -0.000000000000000000 ) ) ;
#636 = VERTEX_POINT ( 'NONE', #343 ) ;
#637 = DIRECTION ( 'NONE',  ( -1.000000000000000000, 0.000000000000000000, 0.000000000000000000 ) ) ;
#638 = AXIS2_PLACEMENT_3D ( 'NONE', #1078, #301, #798 ) ;
#639 = EDGE_CURVE ( 'NONE', #909, #753, #150, .T. ) ;
#640 = CARTESIAN_POINT ( 'NONE',  ( -5.999999999999999112, 41.54593407714618536, 0.000000000000000000 ) ) ;
#641 = CIRCLE ( 'NONE', #248, 3.999999999999989786 ) ;
#642 = EDGE_LOOP ( 'NONE', ( #478, #1159, #1205, #18, #451, #387 ) ) ;
#643 = CARTESIAN_POINT ( 'NONE',  ( 82.99999999999998579, 39.50000000000005684, 0.000000000000000000 ) ) ;
#644 = CIRCLE ( 'NONE', #908, 2.000000000000001776 ) ;
#645 = DIRECTION ( 'NONE',  ( -1.000000000000000000, -1.734723475976807489E-15, 0.000000000000000000 ) ) ;
#646 = DIRECTION ( 'NONE',  ( -6.380592095546878245E-16, 1.000000000000000000, 4.930380657631323784E-32 ) ) ;
#647 = EDGE_CURVE ( 'NONE', #1133, #787, #244, .T. ) ;
#648 = EDGE_LOOP ( 'NONE', ( #1161, #706, #728, #627 ) ) ;
#649 = ORIENTED_EDGE ( 'NONE', *, *, #1060, .T. ) ;
#650 = DIRECTION ( 'NONE',  ( 0.000000000000000000, 0.000000000000000000, -1.000000000000000000 ) ) ;
#651 = CARTESIAN_POINT ( 'NONE',  ( 88.00000000000001421, 0.000000000000000000, 25.00000000000000000 ) ) ;
#652 = FACE_OUTER_BOUND ( 'NONE', #464, .T. ) ;
#653 = ORIENTED_EDGE ( 'NONE', *, *, #553, .T. ) ;
#654 = ADVANCED_FACE ( 'NONE', ( #51 ), #449, .T. ) ;
#655 = ORIENTED_EDGE ( 'NONE', *, *, #829, .F. ) ;
#656 = PLANE ( 'NONE',  #78 ) ;
#657 = DIRECTION ( 'NONE',  ( -1.000000000000000000, 0.000000000000000000, 0.000000000000000000 ) ) ;
#658 = VECTOR ( 'NONE', #809, 1000.000000000000114 ) ;
#659 = ORIENTED_EDGE ( 'NONE', *, *, #490, .T. ) ;
#660 = ORIENTED_EDGE ( 'NONE', *, *, #1184, .F. ) ;
#661 = CARTESIAN_POINT ( 'NONE',  ( 82.99999999999998579, 38.50000000000004263, 1.000000000000014655 ) ) ;
#662 = CARTESIAN_POINT ( 'NONE',  ( 82.99999999999998579, 39.26473824514339128, 0.2352617548566650341 ) ) ;
#663 = CARTESIAN_POINT ( 'NONE',  ( 70.99999999999997158, -4.999999999999954703, 12.50000000000001066 ) ) ;
#664 = ORIENTED_EDGE ( 'NONE', *, *, #639, .T. ) ;
#665 = ORIENTED_EDGE ( 'NONE', *, *, #316, .T. ) ;
#666 = DIRECTION ( 'NONE',  ( -6.380592095546878245E-16, 1.000000000000000000, 4.930380657631323784E-32 ) ) ;
#667 = LINE ( 'NONE', #868, #1199 ) ;
#668 = DIRECTION ( 'NONE',  ( -0.000000000000000000, -0.000000000000000000, -1.000000000000000000 ) ) ;
#669 = ORIENTED_EDGE ( 'NONE', *, *, #540, .T. ) ;
#670 = DIRECTION ( 'NONE',  ( 0.7071067811865477948, -2.636417052118356234E-17, -0.7071067811865472397 ) ) ;
#671 = ORIENTED_EDGE ( 'NONE', *, *, #431, .T. ) ;
#672 = VECTOR ( 'NONE', #91, 1000.000000000000000 ) ;
#673 = DIRECTION ( 'NONE',  ( 0.7071067811865475727, 0.000000000000000000, -0.7071067811865475727 ) ) ;
#674 = DIRECTION ( 'NONE',  ( 0.5773502691896263972, 0.5773502691896253980, -0.5773502691896255090 ) ) ;
#675 = CARTESIAN_POINT ( 'NONE',  ( 2.000000000000001776, 39.14593407714620099, 0.000000000000000000 ) ) ;
#676 = EDGE_CURVE ( 'NONE', #1200, #489, #199, .T. ) ;
#677 = CIRCLE ( 'NONE', #481, 2.100000000000004530 ) ;
#678 = ORIENTED_EDGE ( 'NONE', *, *, #340, .F. ) ;
#679 = DIRECTION ( 'NONE',  ( -1.000000000000000000, 0.000000000000000000, -0.000000000000000000 ) ) ;
#680 = ORIENTED_EDGE ( 'NONE', *, *, #1045, .T. ) ;
#681 = CARTESIAN_POINT ( 'NONE',  ( 3.968409846112765926, 39.50000000000001421, 25.00000000000000000 ) ) ;
#682 = VECTOR ( 'NONE', #807, 1000.000000000000000 ) ;
#683 = CARTESIAN_POINT ( 'NONE',  ( 4.000000000000000888, 38.50000000000000000, 1.000000000000014655 ) ) ;
#684 = VECTOR ( 'NONE', #637, 1000.000000000000000 ) ;
#685 = ORIENTED_EDGE ( 'NONE', *, *, #136, .T. ) ;
#686 = FACE_OUTER_BOUND ( 'NONE', #279, .T. ) ;
#687 = EDGE_CURVE ( 'NONE', #73, #903, #756, .T. ) ;
#688 = EDGE_LOOP ( 'NONE', ( #994, #1194, #522, #930 ) ) ;
#689 = AXIS2_PLACEMENT_3D ( 'NONE', #298, #860, #976 ) ;
#690 = PLANE ( 'NONE',  #1207 ) ;
#691 = CARTESIAN_POINT ( 'NONE',  ( 90.99999999999998579, 41.54593407714623510, 25.00000000000000000 ) ) ;
#692 = VECTOR ( 'NONE', #956, 1000.000000000000114 ) ;
#693 = VERTEX_POINT ( 'NONE', #593 ) ;
#694 = DIRECTION ( 'NONE',  ( 0.000000000000000000, 0.000000000000000000, -1.000000000000000000 ) ) ;
#695 = VERTEX_POINT ( 'NONE', #474 ) ;
#696 = ADVANCED_FACE ( 'NONE', ( #580 ), #196, .F. ) ;
#697 = CARTESIAN_POINT ( 'NONE',  ( 90.25721864729177923, 43.40288745891675148, 25.00000000000000000 ) ) ;
#698 = DIRECTION ( 'NONE',  ( -0.000000000000000000, -0.000000000000000000, 1.000000000000000000 ) ) ;
#699 = DIRECTION ( 'NONE',  ( -0.000000000000000000, -0.7071067811865475727, -0.7071067811865475727 ) ) ;
#700 = CYLINDRICAL_SURFACE ( 'NONE', #988, 2.000000000000001776 ) ;
#701 = ORIENTED_EDGE ( 'NONE', *, *, #1229, .F. ) ;
#702 = CIRCLE ( 'NONE', #309, 2.000000000000000000 ) ;
#703 = CARTESIAN_POINT ( 'NONE',  ( 12.00000000000002842, -4.999999999999992006, 12.50000000000001066 ) ) ;
#704 = EDGE_CURVE ( 'NONE', #535, #456, #388, .T. ) ;
#705 = DIRECTION ( 'NONE',  ( 1.000000000000000000, 0.000000000000000000, 0.000000000000000000 ) ) ;
#706 = ORIENTED_EDGE ( 'NONE', *, *, #874, .T. ) ;
#707 = CARTESIAN_POINT ( 'NONE',  ( 3.968409846112765926, 39.50000000000001421, 0.000000000000000000 ) ) ;
#708 = ORIENTED_EDGE ( 'NONE', *, *, #13, .T. ) ;
#709 = CARTESIAN_POINT ( 'NONE',  ( -0.6666666666666756225, -0.6666666666666763996, 24.66666666666666430 ) ) ;
#710 = DIRECTION ( 'NONE',  ( -6.380592095546877258E-16, 1.000000000000000000, -0.000000000000000000 ) ) ;
#711 = ADVANCED_FACE ( 'NONE', ( #780 ), #98, .F. ) ;
#712 = FACE_OUTER_BOUND ( 'NONE', #583, .T. ) ;
#713 = VECTOR ( 'NONE', #213, 1000.000000000000000 ) ;
#714 = ORIENTED_EDGE ( 'NONE', *, *, #928, .T. ) ;
#715 = EDGE_CURVE ( 'NONE', #446, #43, #969, .T. ) ;
#716 = DIRECTION ( 'NONE',  ( -6.380592095546877258E-16, 1.000000000000000000, -0.000000000000000000 ) ) ;
#717 = CARTESIAN_POINT ( 'NONE',  ( 87.00000000000001421, -9.999999999999944933, 24.00000000000004263 ) ) ;
#718 = DIRECTION ( 'NONE',  ( -6.380592095546878245E-16, 1.000000000000000000, 4.930380657631323784E-32 ) ) ;
#719 = ORIENTED_EDGE ( 'NONE', *, *, #1134, .T. ) ;
#720 = CIRCLE ( 'NONE', #82, 4.000000000000000000 ) ;
#721 = DIRECTION ( 'NONE',  ( -1.000000000000000000, -6.380592095546877258E-16, 0.000000000000000000 ) ) ;
#722 = AXIS2_PLACEMENT_3D ( 'NONE', #344, #47, #814 ) ;
#723 = CARTESIAN_POINT ( 'NONE',  ( 0.000000000000000000, 0.000000000000000000, 1.000000000000014655 ) ) ;
#724 = DIRECTION ( 'NONE',  ( -0.000000000000000000, 0.000000000000000000, -1.000000000000000000 ) ) ;
#725 = AXIS2_PLACEMENT_3D ( 'NONE', #992, #628, #135 ) ;
#726 = ORIENTED_EDGE ( 'NONE', *, *, #161, .T. ) ;
#727 = EDGE_CURVE ( 'NONE', #8, #1027, #211, .T. ) ;
#728 = ORIENTED_EDGE ( 'NONE', *, *, #829, .T. ) ;
#729 = CARTESIAN_POINT ( 'NONE',  ( 88.00000000000001421, -0.9999999999999585887, 0.000000000000000000 ) ) ;
#730 = AXIS2_PLACEMENT_3D ( 'NONE', #1247, #282, #187 ) ;
#731 = LINE ( 'NONE', #1015, #934 ) ;
#732 = DIRECTION ( 'NONE',  ( 1.000000000000000000, 6.380592095546877258E-16, 0.000000000000000000 ) ) ;
#733 = VERTEX_POINT ( 'NONE', #599 ) ;
#734 = ORIENTED_EDGE ( 'NONE', *, *, #1047, .F. ) ;
#735 = CARTESIAN_POINT ( 'NONE',  ( 84.25721864729177923, 41.00288745891676001, 25.00000000000000000 ) ) ;
#736 = EDGE_CURVE ( 'NONE', #1147, #1188, #1162, .T. ) ;
#737 = DIRECTION ( 'NONE',  ( 0.000000000000000000, -1.000000000000000000, 0.000000000000000000 ) ) ;
#738 = LINE ( 'NONE', #325, #1201 ) ;
#739 = VECTOR ( 'NONE', #984, 1000.000000000000000 ) ;
#740 = ORIENTED_EDGE ( 'NONE', *, *, #751, .T. ) ;
#741 = AXIS2_PLACEMENT_3D ( 'NONE', #574, #1058, #492 ) ;
#742 = LINE ( 'NONE', #452, #455 ) ;
#743 = DIRECTION ( 'NONE',  ( -6.380592095546877258E-16, 1.000000000000000000, -0.000000000000000000 ) ) ;
#744 = EDGE_CURVE ( 'NONE', #1122, #1237, #873, .T. ) ;
#745 = DIRECTION ( 'NONE',  ( -6.380592095546878245E-16, 1.000000000000000000, 4.930380657631323784E-32 ) ) ;
#746 = ORIENTED_EDGE ( 'NONE', *, *, #727, .T. ) ;
#747 = CARTESIAN_POINT ( 'NONE',  ( 70.99999999999997158, -10.00000000000001421, 12.50000000000001066 ) ) ;
#748 = AXIS2_PLACEMENT_3D ( 'NONE', #419, #543, #808 ) ;
#749 = CARTESIAN_POINT ( 'NONE',  ( 0.000000000000000000, 0.000000000000000000, 0.000000000000000000 ) ) ;
#750 = DIRECTION ( 'NONE',  ( -1.000000000000000000, -6.505213034913026604E-16, 0.000000000000000000 ) ) ;
#751 = EDGE_CURVE ( 'NONE', #1244, #503, #1019, .T. ) ;
#752 = EDGE_LOOP ( 'NONE', ( #758, #275, #1031, #407 ) ) ;
#753 = VERTEX_POINT ( 'NONE', #76 ) ;
#754 = ADVANCED_FACE ( 'NONE', ( #9 ), #690, .F. ) ;
#755 = AXIS2_PLACEMENT_3D ( 'NONE', #691, #207, #601 ) ;
#756 = LINE ( 'NONE', #788, #1209 ) ;
#757 = DIRECTION ( 'NONE',  ( -0.5773502691896233996, 0.5773502691896269523, -0.5773502691896269523 ) ) ;
#758 = ORIENTED_EDGE ( 'NONE', *, *, #872, .T. ) ;
#759 = ORIENTED_EDGE ( 'NONE', *, *, #676, .F. ) ;
#760 = FACE_OUTER_BOUND ( 'NONE', #887, .T. ) ;
#761 = CARTESIAN_POINT ( 'NONE',  ( 2.999999999999950706, -17.99999999999999289, 9.000000000000007105 ) ) ;
#762 = MECHANICAL_DESIGN_GEOMETRIC_PRESENTATION_REPRESENTATION (  '', ( #41 ), #942 ) ;
#763 = VECTOR ( 'NONE', #439, 1000.000000000000000 ) ;
#764 = ORIENTED_EDGE ( 'NONE', *, *, #494, .T. ) ;
#765 = ORIENTED_EDGE ( 'NONE', *, *, #245, .F. ) ;
#766 = CARTESIAN_POINT ( 'NONE',  ( 0.000000000000000000, 0.000000000000000000, 25.00000000000000000 ) ) ;
#767 = CARTESIAN_POINT ( 'NONE',  ( 68.89999999999996305, -4.999999999999956479, 12.50000000000001066 ) ) ;
#768 = CARTESIAN_POINT ( 'NONE',  ( -4.000000000000016875, -10.99999999999998224, 23.00000000000000711 ) ) ;
#769 = ORIENTED_EDGE ( 'NONE', *, *, #1184, .T. ) ;
#770 = DIRECTION ( 'NONE',  ( -3.728456751177473127E-17, -1.000000000000000000, 0.000000000000000000 ) ) ;
#771 = VERTEX_POINT ( 'NONE', #681 ) ;
#772 = CARTESIAN_POINT ( 'NONE',  ( -5.999999999999999112, -8.999999999999987566, 25.00000000000000000 ) ) ;
#773 = ADVANCED_FACE ( 'NONE', ( #1057 ), #1070, .F. ) ;
#774 = VECTOR ( 'NONE', #629, 1000.000000000000000 ) ;
#775 =( LENGTH_UNIT ( ) NAMED_UNIT ( * ) SI_UNIT ( .MILLI., .METRE. ) );
#776 = LINE ( 'NONE', #493, #1128 ) ;
#777 = VERTEX_POINT ( 'NONE', #794 ) ;
#778 = CARTESIAN_POINT ( 'NONE',  ( 82.99999999999998579, 39.50000000000013500, 25.00000000000007461 ) ) ;
#779 = ORIENTED_EDGE ( 'NONE', *, *, #874, .F. ) ;
#780 = FACE_OUTER_BOUND ( 'NONE', #171, .T. ) ;
#781 = CARTESIAN_POINT ( 'NONE',  ( 3.968409846112765926, 39.50000000000001421, 25.00000000000000000 ) ) ;
#782 = EDGE_CURVE ( 'NONE', #503, #1244, #318, .T. ) ;
#783 = EDGE_CURVE ( 'NONE', #294, #592, #1065, .T. ) ;
#784 = AXIS2_PLACEMENT_3D ( 'NONE', #280, #670, #770 ) ;
#785 = ORIENTED_EDGE ( 'NONE', *, *, #1118, .T. ) ;
#786 = LINE ( 'NONE', #1180, #1217 ) ;
#787 = VERTEX_POINT ( 'NONE', #772 ) ;
#788 = CARTESIAN_POINT ( 'NONE',  ( 13.90000000000003055, -10.00000000000004974, 12.50000000000001066 ) ) ;
#789 = LINE ( 'NONE', #962, #1148 ) ;
#790 = ORIENTED_EDGE ( 'NONE', *, *, #1174, .T. ) ;
#791 = CARTESIAN_POINT ( 'NONE',  ( 0.000000000000000000, 0.000000000000000000, 25.00000000000000000 ) ) ;
#792 = ADVANCED_FACE ( 'NONE', ( #1142 ), #1050, .F. ) ;
#793 = ORIENTED_EDGE ( 'NONE', *, *, #950, .F. ) ;
#794 = CARTESIAN_POINT ( 'NONE',  ( 18.10000000000002984, -4.999999999999987566, 12.50000000000001066 ) ) ;
#795 = LINE ( 'NONE', #512, #575 ) ;
#796 = AXIS2_PLACEMENT_3D ( 'NONE', #265, #657, #163 ) ;
#797 = FACE_OUTER_BOUND ( 'NONE', #261, .T. ) ;
#798 = DIRECTION ( 'NONE',  ( -1.000000000000000000, -6.380592095546886133E-16, 0.000000000000000000 ) ) ;
#799 = ORIENTED_EDGE ( 'NONE', *, *, #21, .F. ) ;
#800 = ADVANCED_FACE ( 'NONE', ( #485 ), #867, .F. ) ;
#801 = ADVANCED_FACE ( 'NONE', ( #587 ), #218, .F. ) ;
#802 = CARTESIAN_POINT ( 'NONE',  ( 66.99999999999997158, 4.275047331273025316E-14, 12.50000000000001066 ) ) ;
#803 = PLANE ( 'NONE',  #748 ) ;
#804 = ORIENTED_EDGE ( 'NONE', *, *, #233, .T. ) ;
#805 = LINE ( 'NONE', #408, #267 ) ;
#806 = VERTEX_POINT ( 'NONE', #729 ) ;
#807 = DIRECTION ( 'NONE',  ( 1.000000000000000000, -1.734723475976805517E-15, 0.000000000000000000 ) ) ;
#808 = DIRECTION ( 'NONE',  ( 0.000000000000000000, -0.000000000000000000, 1.000000000000000000 ) ) ;
#809 = DIRECTION ( 'NONE',  ( -0.9284766908852594147, -0.3713906763541036105, 0.000000000000000000 ) ) ;
#810 = AXIS2_PLACEMENT_3D ( 'NONE', #1098, #518, #1202 ) ;
#811 = VERTEX_POINT ( 'NONE', #234 ) ;
#812 = LINE ( 'NONE', #703, #947 ) ;
#813 = DIRECTION ( 'NONE',  ( -1.000000000000000000, 0.000000000000000000, 0.000000000000000000 ) ) ;
#814 = DIRECTION ( 'NONE',  ( -1.000000000000000000, -8.260587980841921030E-16, 0.000000000000000000 ) ) ;
#815 = VECTOR ( 'NONE', #589, 1000.000000000000000 ) ;
#816 = ORIENTED_EDGE ( 'NONE', *, *, #751, .F. ) ;
#817 = CARTESIAN_POINT ( 'NONE',  ( 4.000000000000000888, 38.50000000000000000, 1.000000000000014655 ) ) ;
#818 = DIRECTION ( 'NONE',  ( -0.7071067811865477948, 2.636417052118356234E-17, -0.7071067811865472397 ) ) ;
#819 = VECTOR ( 'NONE', #737, 1000.000000000000000 ) ;
#820 = EDGE_CURVE ( 'NONE', #595, #141, #412, .T. ) ;
#821 = DIRECTION ( 'NONE',  ( -1.000000000000000000, -6.505213034913043367E-16, 0.000000000000000000 ) ) ;
#822 = ORIENTED_EDGE ( 'NONE', *, *, #105, .T. ) ;
#823 = VERTEX_POINT ( 'NONE', #802 ) ;
#824 = LINE ( 'NONE', #917, #901 ) ;
#825 = CIRCLE ( 'NONE', #565, 2.100000000000004530 ) ;
#826 = CARTESIAN_POINT ( 'NONE',  ( 84.99999999999998579, 39.14593407714624362, 25.00000000000000000 ) ) ;
#827 = LINE ( 'NONE', #1204, #372 ) ;
#828 = EDGE_LOOP ( 'NONE', ( #785, #547 ) ) ;
#829 = EDGE_CURVE ( 'NONE', #777, #903, #995, .T. ) ;
#830 = CYLINDRICAL_SURFACE ( 'NONE', #1178, 2.100000000000004530 ) ;
#831 = EDGE_CURVE ( 'NONE', #604, #1244, #812, .T. ) ;
#832 = AXIS2_PLACEMENT_3D ( 'NONE', #308, #333, #1102 ) ;
#833 = FACE_OUTER_BOUND ( 'NONE', #159, .T. ) ;
#834 = VECTOR ( 'NONE', #1240, 1000.000000000000000 ) ;
#835 = DIRECTION ( 'NONE',  ( -0.7071067811865475727, 0.000000000000000000, -0.7071067811865475727 ) ) ;
#836 = ORIENTED_EDGE ( 'NONE', *, *, #1235, .T. ) ;
#837 = ADVANCED_FACE ( 'NONE', ( #1196 ), #124, .F. ) ;
#838 = DIRECTION ( 'NONE',  ( -1.000000000000000000, 1.734723475976805517E-15, 0.000000000000000000 ) ) ;
#839 = DIRECTION ( 'NONE',  ( -1.000000000000000000, 0.000000000000000000, -0.000000000000000000 ) ) ;
#840 = LINE ( 'NONE', #1125, #692 ) ;
#841 = ORIENTED_EDGE ( 'NONE', *, *, #1014, .F. ) ;
#842 = PRODUCT_DEFINITION_FORMATION_WITH_SPECIFIED_SOURCE ( 'ANY', '', #119, .NOT_KNOWN. ) ;
#843 = DIRECTION ( 'NONE',  ( -0.9284766908852594147, -0.3713906763541036105, 0.000000000000000000 ) ) ;
#844 = EDGE_CURVE ( 'NONE', #806, #43, #111, .T. ) ;
#845 = VECTOR ( 'NONE', #209, 1000.000000000000000 ) ;
#846 = CARTESIAN_POINT ( 'NONE',  ( -4.000000000000000000, 41.54593407714619957, 25.00000000000000000 ) ) ;
#847 = PLANE ( 'NONE',  #1079 ) ;
#848 = VERTEX_POINT ( 'NONE', #817 ) ;
#849 = ORIENTED_EDGE ( 'NONE', *, *, #109, .F. ) ;
#850 = AXIS2_PLACEMENT_3D ( 'NONE', #358, #1029, #856 ) ;
#851 = CARTESIAN_POINT ( 'NONE',  ( 1.435455849203326824E-15, 38.49999999999999289, 23.99999999999998579 ) ) ;
#852 = CARTESIAN_POINT ( 'NONE',  ( -6.852157730108390547E-14, 39.50000000000000711, 25.00000000000000000 ) ) ;
#853 = VERTEX_POINT ( 'NONE', #530 ) ;
#854 = ORIENTED_EDGE ( 'NONE', *, *, #89, .T. ) ;
#855 =( BOUNDED_CURVE ( )  B_SPLINE_CURVE ( 3, ( #7, #313, #192, #973 ),
 .UNSPECIFIED., .F., .T. ) 
 B_SPLINE_CURVE_WITH_KNOTS ( ( 4, 4 ),
 ( 1.570796326794894782, 1.748767300379747702 ),
 .UNSPECIFIED. ) 
 CURVE ( )  GEOMETRIC_REPRESENTATION_ITEM ( )  RATIONAL_B_SPLINE_CURVE ( ( 1.000000000000000000, 0.9973622689572733124, 0.9973622689572733124, 1.000000000000000000 ) ) 
 REPRESENTATION_ITEM ( '' )  );
#856 = DIRECTION ( 'NONE',  ( -1.000000000000000000, -6.380592095546886133E-16, 0.000000000000000000 ) ) ;
#857 = DIRECTION ( 'NONE',  ( -2.861399548002981455E-16, 1.000000000000000000, 0.000000000000000000 ) ) ;
#858 = ORIENTED_EDGE ( 'NONE', *, *, #63, .F. ) ;
#859 = ORIENTED_EDGE ( 'NONE', *, *, #89, .F. ) ;
#860 = DIRECTION ( 'NONE',  ( -0.3713906763541034994, -0.9284766908852594147, 0.000000000000000000 ) ) ;
#861 = FACE_OUTER_BOUND ( 'NONE', #364, .T. ) ;
#862 = CARTESIAN_POINT ( 'NONE',  ( -1.000000000000012657, 39.50000000000000711, 0.000000000000000000 ) ) ;
#863 = VECTOR ( 'NONE', #989, 1000.000000000000000 ) ;
#864 = ORIENTED_EDGE ( 'NONE', *, *, #736, .T. ) ;
#865 = EDGE_CURVE ( 'NONE', #811, #595, #524, .T. ) ;
#866 = ORIENTED_EDGE ( 'NONE', *, *, #332, .T. ) ;
#867 = PLANE ( 'NONE',  #730 ) ;
#868 = CARTESIAN_POINT ( 'NONE',  ( 90.33333333333334281, -11.66666666666661811, 2.666666666666633212 ) ) ;
#869 = DIRECTION ( 'NONE',  ( -1.000000000000000000, 0.000000000000000000, 0.000000000000000000 ) ) ;
#870 = ORIENTED_EDGE ( 'NONE', *, *, #647, .T. ) ;
#871 = EDGE_LOOP ( 'NONE', ( #498, #866, #864, #356 ) ) ;
#872 = EDGE_CURVE ( 'NONE', #693, #535, #1176, .T. ) ;
#873 = LINE ( 'NONE', #399, #672 ) ;
#874 = EDGE_CURVE ( 'NONE', #445, #777, #824, .T. ) ;
#875 = AXIS2_PLACEMENT_3D ( 'NONE', #1066, #299, #278 ) ;
#876 = CARTESIAN_POINT ( 'NONE',  ( 83.03159015388722253, 39.50000000000005684, 0.000000000000000000 ) ) ;
#877 = FACE_OUTER_BOUND ( 'NONE', #403, .T. ) ;
#878 = EDGE_LOOP ( 'NONE', ( #567, #191, #123, #326 ) ) ;
#879 = LINE ( 'NONE', #1257, #438 ) ;
#880 = EDGE_LOOP ( 'NONE', ( #376, #1036, #178, #307 ) ) ;
#881 = DIRECTION ( 'NONE',  ( -1.000000000000000000, -6.380592095546876272E-16, 0.000000000000000000 ) ) ;
#882 = EDGE_CURVE ( 'NONE', #43, #456, #238, .T. ) ;
#883 = DIRECTION ( 'NONE',  ( 0.000000000000000000, 0.000000000000000000, -1.000000000000000000 ) ) ;
#884 = VECTOR ( 'NONE', #1245, 1000.000000000000114 ) ;
#885 = CARTESIAN_POINT ( 'NONE',  ( 73.09999999999996589, -10.00000000000001243, 12.50000000000001066 ) ) ;
#886 = CARTESIAN_POINT ( 'NONE',  ( -1.000000000000014211, 3.728456751177526129E-17, 25.00000000000000000 ) ) ;
#887 = EDGE_LOOP ( 'NONE', ( #1139, #176, #719, #1127, #981, #579, #922, #1017, #680, #1135, #435, #708, #958, #1064 ) ) ;
#888 = DIRECTION ( 'NONE',  ( -1.000000000000000000, -6.380592095546876272E-16, 0.000000000000000000 ) ) ;
#889 = VECTOR ( 'NONE', #321, 1000.000000000000000 ) ;
#890 = PLANE ( 'NONE',  #35 ) ;
#891 = DIRECTION ( 'NONE',  ( -1.000000000000000000, 1.734723475976805517E-15, 0.000000000000000000 ) ) ;
#892 = CARTESIAN_POINT ( 'NONE',  ( -5.999999999999999112, -8.999999999999985789, 0.000000000000000000 ) ) ;
#893 = ORIENTED_EDGE ( 'NONE', *, *, #145, .T. ) ;
#894 = CARTESIAN_POINT ( 'NONE',  ( -0.6666666666666984931, 39.16666666666669272, 24.66666666666668917 ) ) ;
#895 = DIRECTION ( 'NONE',  ( 0.000000000000000000, 0.000000000000000000, -1.000000000000000000 ) ) ;
#896 = EDGE_LOOP ( 'NONE', ( #70, #395, #184, #186 ) ) ;
#897 = DIRECTION ( 'NONE',  ( -1.000000000000000000, 0.000000000000000000, 0.000000000000000000 ) ) ;
#898 = ORIENTED_EDGE ( 'NONE', *, *, #105, .F. ) ;
#899 = CARTESIAN_POINT ( 'NONE',  ( 74.99999999999995737, -4.999999999999952038, 12.50000000000001066 ) ) ;
#900 = CARTESIAN_POINT ( 'NONE',  ( -1.000000000000014211, 3.728456751177526129E-17, 25.00000000000000000 ) ) ;
#901 = VECTOR ( 'NONE', #38, 1000.000000000000000 ) ;
#902 = CARTESIAN_POINT ( 'NONE',  ( 82.99999999999998579, 40.50000000000004263, 25.00000000000000000 ) ) ;
#903 = VERTEX_POINT ( 'NONE', #1086 ) ;
#904 = EDGE_CURVE ( 'NONE', #320, #622, #511, .T. ) ;
#905 = AXIS2_PLACEMENT_3D ( 'NONE', #1187, #718, #621 ) ;
#906 = LINE ( 'NONE', #1092, #977 ) ;
#907 = CARTESIAN_POINT ( 'NONE',  ( 87.00000000000000000, 5.551115123125782702E-14, 1.000000000000014655 ) ) ;
#908 = AXIS2_PLACEMENT_3D ( 'NONE', #132, #620, #430 ) ;
#909 = VERTEX_POINT ( 'NONE', #224 ) ;
#910 = VECTOR ( 'NONE', #373, 1000.000000000000000 ) ;
#911 = PLANE ( 'NONE',  #784 ) ;
#912 = EDGE_CURVE ( 'NONE', #8, #1085, #465, .T. ) ;
#913 = DIRECTION ( 'NONE',  ( 0.000000000000000000, 0.000000000000000000, -1.000000000000000000 ) ) ;
#914 = DIRECTION ( 'NONE',  ( 6.380592095546878245E-16, -1.000000000000000000, -4.930380657631323784E-32 ) ) ;
#915 = AXIS2_PLACEMENT_3D ( 'NONE', #675, #895, #17 ) ;
#916 = ORIENTED_EDGE ( 'NONE', *, *, #389, .T. ) ;
#917 = CARTESIAN_POINT ( 'NONE',  ( 18.10000000000003340, -10.00000000000004619, 12.50000000000001066 ) ) ;
#918 = FACE_OUTER_BOUND ( 'NONE', #371, .T. ) ;
#919 = EDGE_CURVE ( 'NONE', #320, #69, #28, .T. ) ;
#920 = VECTOR ( 'NONE', #645, 1000.000000000000000 ) ;
#921 = LINE ( 'NONE', #40, #763 ) ;
#922 = ORIENTED_EDGE ( 'NONE', *, *, #938, .T. ) ;
#923 = VECTOR ( 'NONE', #1183, 1000.000000000000114 ) ;
#924 = DIRECTION ( 'NONE',  ( -1.000000000000000000, -8.260587980841921030E-16, 0.000000000000000000 ) ) ;
#925 = VECTOR ( 'NONE', #236, 1000.000000000000000 ) ;
#926 = PLANE ( 'NONE',  #528 ) ;
#927 = DIRECTION ( 'NONE',  ( -0.000000000000000000, 1.000000000000000000, 0.000000000000000000 ) ) ;
#928 = EDGE_CURVE ( 'NONE', #946, #753, #118, .T. ) ;
#929 = ORIENTED_EDGE ( 'NONE', *, *, #938, .F. ) ;
#930 = ORIENTED_EDGE ( 'NONE', *, *, #460, .T. ) ;
#931 = DIRECTION ( 'NONE',  ( 0.000000000000000000, 0.000000000000000000, 1.000000000000000000 ) ) ;
#932 = DIRECTION ( 'NONE',  ( -1.000000000000000000, -6.380592095546878245E-16, 0.000000000000000000 ) ) ;
#933 = ORIENTED_EDGE ( 'NONE', *, *, #844, .F. ) ;
#934 = VECTOR ( 'NONE', #144, 1000.000000000000000 ) ;
#935 = CARTESIAN_POINT ( 'NONE',  ( 92.00000000000002842, -9.999999999999944933, 0.9999999999999592548 ) ) ;
#936 = DIRECTION ( 'NONE',  ( 1.000000000000000000, 6.380592095546877258E-16, 0.000000000000000000 ) ) ;
#937 = DIRECTION ( 'NONE',  ( -0.000000000000000000, 1.000000000000000000, 0.000000000000000000 ) ) ;
#938 = EDGE_CURVE ( 'NONE', #1147, #1133, #1002, .T. ) ;
#939 = VERTEX_POINT ( 'NONE', #22 ) ;
#940 = AXIS2_PLACEMENT_3D ( 'NONE', #271, #390, #1143 ) ;
#941 = EDGE_LOOP ( 'NONE', ( #618, #870, #42, #262 ) ) ;
#942 =( GEOMETRIC_REPRESENTATION_CONTEXT ( 3 ) GLOBAL_UNCERTAINTY_ASSIGNED_CONTEXT ( ( #982 ) ) GLOBAL_UNIT_ASSIGNED_CONTEXT ( ( #1218, #149, #255 ) ) REPRESENTATION_CONTEXT ( 'NONE', 'WORKASPACE' ) );
#943 = DIRECTION ( 'NONE',  ( 0.000000000000000000, 1.000000000000000000, 0.000000000000000000 ) ) ;
#944 = DIRECTION ( 'NONE',  ( 0.000000000000000000, 0.000000000000000000, 1.000000000000000000 ) ) ;
#945 = FACE_OUTER_BOUND ( 'NONE', #828, .T. ) ;
#946 = VERTEX_POINT ( 'NONE', #423 ) ;
#947 = VECTOR ( 'NONE', #716, 1000.000000000000000 ) ;
#948 = ORIENTED_EDGE ( 'NONE', *, *, #744, .F. ) ;
#949 = DIRECTION ( 'NONE',  ( -1.734723475976807489E-15, 1.000000000000000000, 0.000000000000000000 ) ) ;
#950 = EDGE_CURVE ( 'NONE', #1027, #909, #228, .T. ) ;
#951 = DIRECTION ( 'NONE',  ( -1.000000000000000000, -8.260587980841934835E-16, 0.000000000000000000 ) ) ;
#952 = EDGE_LOOP ( 'NONE', ( #1140, #769, #117, #632 ) ) ;
#953 = ORIENTED_EDGE ( 'NONE', *, *, #1045, .F. ) ;
#954 = AXIS2_PLACEMENT_3D ( 'NONE', #470, #1132, #260 ) ;
#955 = CARTESIAN_POINT ( 'NONE',  ( 1.435455849203326824E-15, 38.49999999999999289, 25.00000000000000000 ) ) ;
#956 = DIRECTION ( 'NONE',  ( -0.9284766908852594147, 0.3713906763541034439, -0.000000000000000000 ) ) ;
#957 = ADVANCED_FACE ( 'NONE', ( #130 ), #911, .T. ) ;
#958 = ORIENTED_EDGE ( 'NONE', *, *, #1082, .T. ) ;
#959 = CARTESIAN_POINT ( 'NONE',  ( 70.99999999999997158, -10.00000000000001421, 12.50000000000001066 ) ) ;
#960 = EDGE_LOOP ( 'NONE', ( #548, #1042, #527, #243 ) ) ;
#961 = DIRECTION ( 'NONE',  ( -1.000000000000000000, 0.000000000000000000, 0.000000000000000000 ) ) ;
#962 = CARTESIAN_POINT ( 'NONE',  ( 0.000000000000000000, 0.000000000000000000, 23.99999999999998579 ) ) ;
#963 = VECTOR ( 'NONE', #133, 1000.000000000000000 ) ;
#964 = VERTEX_POINT ( 'NONE', #735 ) ;
#965 = CARTESIAN_POINT ( 'NONE',  ( 93.00000000000000000, -9.999999999999944933, 0.9999999999999592548 ) ) ;
#966 = ADVANCED_FACE ( 'NONE', ( #447 ), #177, .T. ) ;
#967 = EDGE_CURVE ( 'NONE', #501, #602, #1146, .T. ) ;
#968 = VERTEX_POINT ( 'NONE', #935 ) ;
#969 = LINE ( 'NONE', #506, #1003 ) ;
#970 = DIRECTION ( 'NONE',  ( 1.000000000000000000, 6.380592095546877258E-16, 0.000000000000000000 ) ) ;
#971 = AXIS2_PLACEMENT_3D ( 'NONE', #499, #303, #881 ) ;
#972 = ORIENTED_EDGE ( 'NONE', *, *, #865, .T. ) ;
#973 = CARTESIAN_POINT ( 'NONE',  ( 83.03159015388722253, 39.50000000000005684, 25.00000000000000000 ) ) ;
#974 = ORIENTED_EDGE ( 'NONE', *, *, #316, .F. ) ;
#975 = EDGE_CURVE ( 'NONE', #558, #968, #1055, .T. ) ;
#976 = DIRECTION ( 'NONE',  ( 0.9284766908852594147, -0.3713906763541034994, 0.000000000000000000 ) ) ;
#977 = VECTOR ( 'NONE', #710, 1000.000000000000000 ) ;
#978 = CYLINDRICAL_SURFACE ( 'NONE', #1252, 2.000000000000000000 ) ;
#979 = ORIENTED_EDGE ( 'NONE', *, *, #113, .T. ) ;
#980 = DIRECTION ( 'NONE',  ( -3.728456751177473127E-17, -1.000000000000000000, 0.000000000000000000 ) ) ;
#981 = ORIENTED_EDGE ( 'NONE', *, *, #1000, .T. ) ;
#982 = UNCERTAINTY_MEASURE_WITH_UNIT (LENGTH_MEASURE( 1.000000000000000082E-05 ), #1218, 'distance_accuracy_value', 'NONE');
#983 = VECTOR ( 'NONE', #943, 1000.000000000000000 ) ;
#984 = DIRECTION ( 'NONE',  ( 0.000000000000000000, 1.000000000000000000, 0.000000000000000000 ) ) ;
#985 = MANIFOLD_SOLID_BREP ( 'Chamfer1', #1116 ) ;
#986 = DIRECTION ( 'NONE',  ( -0.9284766908852594147, 0.3713906763541034439, -0.000000000000000000 ) ) ;
#987 = EDGE_CURVE ( 'NONE', #62, #26, #1250, .T. ) ;
#988 = AXIS2_PLACEMENT_3D ( 'NONE', #1160, #415, #897 ) ;
#989 = DIRECTION ( 'NONE',  ( -1.000000000000000000, -1.734723475976807489E-15, 0.000000000000000000 ) ) ;
#990 = CARTESIAN_POINT ( 'NONE',  ( 2.742781352708205223, 41.00288745891671738, 0.000000000000000000 ) ) ;
#991 = ORIENTED_EDGE ( 'NONE', *, *, #334, .F. ) ;
#992 = CARTESIAN_POINT ( 'NONE',  ( 6.852157730108415791E-14, 39.50000000000019895, 25.00000000000000000 ) ) ;
#993 = DIRECTION ( 'NONE',  ( -1.000000000000000000, 0.000000000000000000, 0.000000000000000000 ) ) ;
#994 = ORIENTED_EDGE ( 'NONE', *, *, #136, .F. ) ;
#995 = CIRCLE ( 'NONE', #1164, 2.100000000000000977 ) ;
#996 = ORIENTED_EDGE ( 'NONE', *, *, #967, .F. ) ;
#997 = CARTESIAN_POINT ( 'NONE',  ( 58.66666666666675667, 10.16666666666678509, -4.333333333333258430 ) ) ;
#998 = LINE ( 'NONE', #126, #774 ) ;
#999 = CARTESIAN_POINT ( 'NONE',  ( -5.999999999999999112, 41.54593407714619957, 25.00000000000000000 ) ) ;
#1000 = EDGE_CURVE ( 'NONE', #592, #1188, #147, .T. ) ;
#1001 = ORIENTED_EDGE ( 'NONE', *, *, #615, .T. ) ;
#1002 = LINE ( 'NONE', #1189, #166 ) ;
#1003 = VECTOR ( 'NONE', #606, 1000.000000000000000 ) ;
#1004 = DIRECTION ( 'NONE',  ( 0.000000000000000000, 0.000000000000000000, -1.000000000000000000 ) ) ;
#1005 = CARTESIAN_POINT ( 'NONE',  ( 70.99999999999997158, -4.999999999999954703, 12.50000000000001066 ) ) ;
#1006 = ORIENTED_EDGE ( 'NONE', *, *, #1007, .T. ) ;
#1007 = EDGE_CURVE ( 'NONE', #939, #853, #346, .T. ) ;
#1008 = CARTESIAN_POINT ( 'NONE',  ( 87.00000000000000000, 5.551115123125782702E-14, 1.000000000000014655 ) ) ;
#1009 = FACE_BOUND ( 'NONE', #510, .T. ) ;
#1010 = FACE_OUTER_BOUND ( 'NONE', #345, .T. ) ;
#1011 = VECTOR ( 'NONE', #270, 1000.000000000000000 ) ;
#1012 = ORIENTED_EDGE ( 'NONE', *, *, #1195, .T. ) ;
#1013 = CARTESIAN_POINT ( 'NONE',  ( 16.00000000000002842, -4.999999999999989342, 12.50000000000001066 ) ) ;
#1014 = EDGE_CURVE ( 'NONE', #32, #1122, #1156, .T. ) ;
#1015 = CARTESIAN_POINT ( 'NONE',  ( 4.000000000000000888, 38.50000000000000000, 25.00000000000000000 ) ) ;
#1016 = CARTESIAN_POINT ( 'NONE',  ( 66.99999999999997158, -4.999999999999957367, 12.50000000000001066 ) ) ;
#1017 = ORIENTED_EDGE ( 'NONE', *, *, #165, .F. ) ;
#1018 = FILL_AREA_STYLE ('',( #1108 ) ) ;
#1019 = CIRCLE ( 'NONE', #181, 4.000000000000000000 ) ;
#1020 = PLANE ( 'NONE',  #52 ) ;
#1021 = AXIS2_PLACEMENT_3D ( 'NONE', #1136, #1025, #459 ) ;
#1022 = PLANE ( 'NONE',  #1181 ) ;
#1023 = ORIENTED_EDGE ( 'NONE', *, *, #13, .F. ) ;
#1024 = AXIS2_PLACEMENT_3D ( 'NONE', #747, #549, #1153 ) ;
#1025 = DIRECTION ( 'NONE',  ( -6.380592095546877258E-16, 1.000000000000000000, -0.000000000000000000 ) ) ;
#1026 = DIRECTION ( 'NONE',  ( 1.000000000000000000, 1.734723475976807489E-15, 0.000000000000000000 ) ) ;
#1027 = VERTEX_POINT ( 'NONE', #633 ) ;
#1028 = DIRECTION ( 'NONE',  ( -1.000000000000000000, 0.000000000000000000, 0.000000000000000000 ) ) ;
#1029 = DIRECTION ( 'NONE',  ( 6.380592095546878245E-16, -1.000000000000000000, -4.930380657631323784E-32 ) ) ;
#1030 = FACE_BOUND ( 'NONE', #14, .T. ) ;
#1031 = ORIENTED_EDGE ( 'NONE', *, *, #928, .F. ) ;
#1032 = VERTEX_POINT ( 'NONE', #142 ) ;
#1033 = DIRECTION ( 'NONE',  ( -1.000000000000000000, 0.000000000000000000, 0.000000000000000000 ) ) ;
#1034 = DIRECTION ( 'NONE',  ( -1.000000000000000000, -8.260587980841934835E-16, 0.000000000000000000 ) ) ;
#1035 = PLANE ( 'NONE',  #796 ) ;
#1036 = ORIENTED_EDGE ( 'NONE', *, *, #389, .F. ) ;
#1037 = ORIENTED_EDGE ( 'NONE', *, *, #285, .T. ) ;
#1038 = EDGE_CURVE ( 'NONE', #592, #1129, #742, .T. ) ;
#1039 = CARTESIAN_POINT ( 'NONE',  ( 90.25721864729177923, 43.40288745891675148, 0.000000000000000000 ) ) ;
#1040 = VECTOR ( 'NONE', #1193, 1000.000000000000000 ) ;
#1041 = LINE ( 'NONE', #169, #223 ) ;
#1042 = ORIENTED_EDGE ( 'NONE', *, *, #1113, .F. ) ;
#1043 = ORIENTED_EDGE ( 'NONE', *, *, #531, .F. ) ;
#1044 = LINE ( 'NONE', #1214, #1175 ) ;
#1045 = EDGE_CURVE ( 'NONE', #200, #1251, #702, .T. ) ;
#1046 = DIRECTION ( 'NONE',  ( -6.380592095546877258E-16, 1.000000000000000000, -0.000000000000000000 ) ) ;
#1047 = EDGE_CURVE ( 'NONE', #1122, #32, #677, .T. ) ;
#1048 = ORIENTED_EDGE ( 'NONE', *, *, #553, .F. ) ;
#1049 = EDGE_LOOP ( 'NONE', ( #153, #822 ) ) ;
#1050 = PLANE ( 'NONE',  #533 ) ;
#1051 = FACE_OUTER_BOUND ( 'NONE', #1073, .T. ) ;
#1052 = LINE ( 'NONE', #190, #815 ) ;
#1053 = ADVANCED_FACE ( 'NONE', ( #1115 ), #830, .F. ) ;
#1054 = ORIENTED_EDGE ( 'NONE', *, *, #975, .F. ) ;
#1055 = LINE ( 'NONE', #965, #544 ) ;
#1056 = ORIENTED_EDGE ( 'NONE', *, *, #1167, .F. ) ;
#1057 = FACE_OUTER_BOUND ( 'NONE', #688, .T. ) ;
#1058 = DIRECTION ( 'NONE',  ( -6.380592095546878245E-16, 1.000000000000000000, 4.930380657631323784E-32 ) ) ;
#1059 = PLANE ( 'NONE',  #875 ) ;
#1060 = EDGE_CURVE ( 'NONE', #853, #501, #442, .T. ) ;
#1061 = VECTOR ( 'NONE', #156, 1000.000000000000000 ) ;
#1062 = ORIENTED_EDGE ( 'NONE', *, *, #239, .T. ) ;
#1063 = CARTESIAN_POINT ( 'NONE',  ( 68.89999999999996305, -10.00000000000001599, 12.50000000000001066 ) ) ;
#1064 = ORIENTED_EDGE ( 'NONE', *, *, #65, .T. ) ;
#1065 = LINE ( 'NONE', #697, #910 ) ;
#1066 = CARTESIAN_POINT ( 'NONE',  ( -5.999999999999999112, -10.00000000000000000, 25.00000000000000000 ) ) ;
#1067 = LINE ( 'NONE', #885, #188 ) ;
#1068 = DIRECTION ( 'NONE',  ( -6.380592095546878245E-16, 1.000000000000000000, 4.930380657631323784E-32 ) ) ;
#1069 = ORIENTED_EDGE ( 'NONE', *, *, #1000, .F. ) ;
#1070 = PLANE ( 'NONE',  #630 ) ;
#1071 = LINE ( 'NONE', #300, #863 ) ;
#1072 = CARTESIAN_POINT ( 'NONE',  ( 16.00000000000002842, -4.999999999999989342, 12.50000000000001066 ) ) ;
#1073 = EDGE_LOOP ( 'NONE', ( #363, #297, #422, #898 ) ) ;
#1074 = DIRECTION ( 'NONE',  ( -1.000000000000000000, -6.505213034913026604E-16, 0.000000000000000000 ) ) ;
#1075 = CARTESIAN_POINT ( 'NONE',  ( 1.435455849203326824E-15, 38.49999999999999289, 25.00000000000000000 ) ) ;
#1076 = AXIS2_PLACEMENT_3D ( 'NONE', #515, #596, #610 ) ;
#1077 = DIRECTION ( 'NONE',  ( -1.000000000000000000, 0.000000000000000000, 0.000000000000000000 ) ) ;
#1078 = CARTESIAN_POINT ( 'NONE',  ( 70.99999999999997158, 4.530271015094899933E-14, 12.50000000000001066 ) ) ;
#1079 = AXIS2_PLACEMENT_3D ( 'NONE', #563, #252, #151 ) ;
#1080 = ORIENTED_EDGE ( 'NONE', *, *, #967, .T. ) ;
#1081 = CARTESIAN_POINT ( 'NONE',  ( 0.000000000000000000, 0.000000000000000000, 1.000000000000014655 ) ) ;
#1082 = EDGE_CURVE ( 'NONE', #164, #733, #115, .T. ) ;
#1083 = LINE ( 'NONE', #39, #203 ) ;
#1084 = ORIENTED_EDGE ( 'NONE', *, *, #1126, .F. ) ;
#1085 = VERTEX_POINT ( 'NONE', #707 ) ;
#1086 = CARTESIAN_POINT ( 'NONE',  ( 13.90000000000002700, -4.999999999999991118, 12.50000000000001066 ) ) ;
#1087 = FACE_BOUND ( 'NONE', #1049, .T. ) ;
#1088 = ADVANCED_FACE ( 'NONE', ( #497 ), #295, .F. ) ;
#1089 = FACE_OUTER_BOUND ( 'NONE', #114, .T. ) ;
#1090 = ORIENTED_EDGE ( 'NONE', *, *, #1141, .T. ) ;
#1091 = DIRECTION ( 'NONE',  ( 0.5773502691896258421, -0.5773502691896251759, -0.5773502691896261751 ) ) ;
#1092 = CARTESIAN_POINT ( 'NONE',  ( 20.00000000000002842, -4.999999999999986677, 12.50000000000001066 ) ) ;
#1093 = CARTESIAN_POINT ( 'NONE',  ( 87.00000000000000000, 5.551115123125782702E-14, 25.00000000000000000 ) ) ;
#1094 = AXIS2_PLACEMENT_3D ( 'NONE', #386, #650, #1028 ) ;
#1095 = ORIENTED_EDGE ( 'NONE', *, *, #1141, .F. ) ;
#1096 = ADVANCED_FACE ( 'NONE', ( #686 ), #700, .T. ) ;
#1097 = AXIS2_PLACEMENT_3D ( 'NONE', #305, #699, #1077 ) ;
#1098 = CARTESIAN_POINT ( 'NONE',  ( 70.99999999999997158, -4.999999999999954703, 12.50000000000001066 ) ) ;
#1099 = LINE ( 'NONE', #120, #428 ) ;
#1100 = CARTESIAN_POINT ( 'NONE',  ( 13.90000000000003055, -10.00000000000004974, 12.50000000000001066 ) ) ;
#1101 = VERTEX_POINT ( 'NONE', #603 ) ;
#1102 = DIRECTION ( 'NONE',  ( -1.000000000000000000, 1.734723475976805517E-15, 0.000000000000000000 ) ) ;
#1103 = PLANE ( 'NONE',  #1224 ) ;
#1104 = EDGE_CURVE ( 'NONE', #823, #622, #564, .T. ) ;
#1105 = CARTESIAN_POINT ( 'NONE',  ( 73.09999999999996589, -10.00000000000001243, 12.50000000000001066 ) ) ;
#1106 = AXIS2_PLACEMENT_3D ( 'NONE', #486, #698, #993 ) ;
#1107 = ORIENTED_EDGE ( 'NONE', *, *, #293, .T. ) ;
#1108 = FILL_AREA_STYLE_COLOUR ( '', #329 ) ;
#1109 = VECTOR ( 'NONE', #290, 1000.000000000000000 ) ;
#1110 = DIRECTION ( 'NONE',  ( -1.000000000000000000, -1.734723475976807489E-15, 0.000000000000000000 ) ) ;
#1111 = DIRECTION ( 'NONE',  ( -1.000000000000000000, -6.380592095546877258E-16, 0.000000000000000000 ) ) ;
#1112 = VECTOR ( 'NONE', #721, 1000.000000000000000 ) ;
#1113 = EDGE_CURVE ( 'NONE', #456, #1101, #805, .T. ) ;
#1114 = ORIENTED_EDGE ( 'NONE', *, *, #494, .F. ) ;
#1115 = FACE_OUTER_BOUND ( 'NONE', #517, .T. ) ;
#1116 = CLOSED_SHELL ( 'NONE', ( #277, #577, #569, #1053, #251, #1213, #1192, #482, #362, #607, #258, #711, #349, #792, #773, #49, #801, #523, #1088, #560, #696, #183, #122, #417, #380, #1096, #529, #296, #837, #754, #158, #480, #409, #598, #957, #654, #57, #966, #800, #45, #31, #516 ) ) ;
#1117 = CARTESIAN_POINT ( 'NONE',  ( 82.99999999999998579, 38.50000000000004263, 25.00000000000000000 ) ) ;
#1118 = EDGE_CURVE ( 'NONE', #604, #695, #720, .T. ) ;
#1119 = LINE ( 'NONE', #852, #1231 ) ;
#1120 = ORIENTED_EDGE ( 'NONE', *, *, #1174, .F. ) ;
#1121 = AXIS2_PLACEMENT_3D ( 'NONE', #538, #229, #1004 ) ;
#1122 = VERTEX_POINT ( 'NONE', #1063 ) ;
#1123 = APPLICATION_CONTEXT ( 'automotive_design' ) ;
#1124 = PLANE ( 'NONE',  #264 ) ;
#1125 = CARTESIAN_POINT ( 'NONE',  ( -5.999999999999999112, 44.50000000000000000, 25.00000000000000000 ) ) ;
#1126 = EDGE_CURVE ( 'NONE', #636, #392, #786, .T. ) ;
#1127 = ORIENTED_EDGE ( 'NONE', *, *, #1038, .F. ) ;
#1128 = VECTOR ( 'NONE', #582, 1000.000000000000000 ) ;
#1129 = VERTEX_POINT ( 'NONE', #393 ) ;
#1130 = CARTESIAN_POINT ( 'NONE',  ( 88.00000000000001421, 39.50000000000004974, 25.00000000000000000 ) ) ;
#1131 = SHAPE_DEFINITION_REPRESENTATION ( #322, #1221 ) ;
#1132 = DIRECTION ( 'NONE',  ( 6.380592095546877258E-16, -1.000000000000000000, 0.000000000000000000 ) ) ;
#1133 = VERTEX_POINT ( 'NONE', #892 ) ;
#1134 = EDGE_CURVE ( 'NONE', #26, #1129, #369, .T. ) ;
#1135 = ORIENTED_EDGE ( 'NONE', *, *, #293, .F. ) ;
#1136 = CARTESIAN_POINT ( 'NONE',  ( 16.00000000000002842, -4.999999999999989342, 12.50000000000001066 ) ) ;
#1137 = CIRCLE ( 'NONE', #905, 2.100000000000000977 ) ;
#1138 = CYLINDRICAL_SURFACE ( 'NONE', #555, 3.999999999999989786 ) ;
#1139 = ORIENTED_EDGE ( 'NONE', *, *, #222, .T. ) ;
#1140 = ORIENTED_EDGE ( 'NONE', *, *, #975, .T. ) ;
#1141 = EDGE_CURVE ( 'NONE', #368, #1182, #19, .T. ) ;
#1142 = FACE_OUTER_BOUND ( 'NONE', #871, .T. ) ;
#1143 = DIRECTION ( 'NONE',  ( -1.000000000000000000, -8.260587980841921030E-16, 0.000000000000000000 ) ) ;
#1144 = LINE ( 'NONE', #384, #713 ) ;
#1145 = ORIENTED_EDGE ( 'NONE', *, *, #424, .T. ) ;
#1146 = LINE ( 'NONE', #185, #884 ) ;
#1147 = VERTEX_POINT ( 'NONE', #509 ) ;
#1148 = VECTOR ( 'NONE', #970, 1000.000000000000000 ) ;
#1149 = CARTESIAN_POINT ( 'NONE',  ( 92.99999999999998579, 44.50000000000004263, 25.00000000000000000 ) ) ;
#1150 = EDGE_CURVE ( 'NONE', #693, #946, #502, .T. ) ;
#1151 = DIRECTION ( 'NONE',  ( -1.000000000000000000, 0.000000000000000000, 0.000000000000000000 ) ) ;
#1152 = ORIENTED_EDGE ( 'NONE', *, *, #193, .T. ) ;
#1153 = DIRECTION ( 'NONE',  ( -1.000000000000000000, -8.260587980841921030E-16, 0.000000000000000000 ) ) ;
#1154 = EDGE_LOOP ( 'NONE', ( #1090, #660, #1012, #157 ) ) ;
#1155 = DIRECTION ( 'NONE',  ( -6.380592095546877258E-16, 1.000000000000000000, -0.000000000000000000 ) ) ;
#1156 = CIRCLE ( 'NONE', #1024, 2.100000000000004530 ) ;
#1157 = PRODUCT_CONTEXT ( 'NONE', #197, 'mechanical' ) ;
#1158 = CARTESIAN_POINT ( 'NONE',  ( 4.000000000000000888, 39.14593407714620099, 24.64593407714618678 ) ) ;
#1159 = ORIENTED_EDGE ( 'NONE', *, *, #340, .T. ) ;
#1160 = CARTESIAN_POINT ( 'NONE',  ( 90.99999999999998579, 41.54593407714623510, 25.00000000000000000 ) ) ;
#1161 = ORIENTED_EDGE ( 'NONE', *, *, #1220, .F. ) ;
#1162 = LINE ( 'NONE', #1169, #739 ) ;
#1163 = LINE ( 'NONE', #1075, #1191 ) ;
#1164 = AXIS2_PLACEMENT_3D ( 'NONE', #1013, #33, #429 ) ;
#1165 = DIRECTION ( 'NONE',  ( -6.380592095546877258E-16, 1.000000000000000000, -0.000000000000000000 ) ) ;
#1166 = CARTESIAN_POINT ( 'NONE',  ( -1.000000000000014211, 3.728456751177526129E-17, 0.000000000000000000 ) ) ;
#1167 = EDGE_CURVE ( 'NONE', #853, #811, #855, .T. ) ;
#1168 = VERTEX_POINT ( 'NONE', #94 ) ;
#1169 = CARTESIAN_POINT ( 'NONE',  ( 92.99999999999998579, 38.50000000000004263, 0.000000000000000000 ) ) ;
#1170 = CARTESIAN_POINT ( 'NONE',  ( 2.000000000000001776, 39.14593407714620099, 25.00000000000000000 ) ) ;
#1171 = PLANE ( 'NONE',  #1097 ) ;
#1172 = LINE ( 'NONE', #306, #61 ) ;
#1173 = ORIENTED_EDGE ( 'NONE', *, *, #145, .F. ) ;
#1174 = EDGE_CURVE ( 'NONE', #848, #8, #879, .T. ) ;
#1175 = VECTOR ( 'NONE', #71, 1000.000000000000000 ) ;
#1176 = LINE ( 'NONE', #709, #458 ) ;
#1177 = CARTESIAN_POINT ( 'NONE',  ( 87.00000000000000000, 38.50000000000003553, 1.000000000000014655 ) ) ;
#1178 = AXIS2_PLACEMENT_3D ( 'NONE', #959, #44, #80 ) ;
#1179 = VERTEX_POINT ( 'NONE', #990 ) ;
#1180 = CARTESIAN_POINT ( 'NONE',  ( 87.66666666666668561, -0.6666666666666393182, 24.66666666666668206 ) ) ;
#1181 = AXIS2_PLACEMENT_3D ( 'NONE', #902, #635, #724 ) ;
#1182 = VERTEX_POINT ( 'NONE', #12 ) ;
#1183 = DIRECTION ( 'NONE',  ( -0.000000000000000000, -0.7071067811865474617, -0.7071067811865474617 ) ) ;
#1184 = EDGE_CURVE ( 'NONE', #968, #1182, #1172, .T. ) ;
#1185 = AXIS2_PLACEMENT_3D ( 'NONE', #749, #263, #839 ) ;
#1186 = DIRECTION ( 'NONE',  ( -1.226634733346699705E-15, 0.7071067811865475727, -0.7071067811865475727 ) ) ;
#1187 = CARTESIAN_POINT ( 'NONE',  ( 16.00000000000003197, -10.00000000000004796, 12.50000000000001066 ) ) ;
#1188 = VERTEX_POINT ( 'NONE', #174 ) ;
#1189 = CARTESIAN_POINT ( 'NONE',  ( -5.999999999999999112, -8.999999999999985789, 0.000000000000000000 ) ) ;
#1190 = FACE_BOUND ( 'NONE', #286, .T. ) ;
#1191 = VECTOR ( 'NONE', #668, 1000.000000000000000 ) ;
#1192 = ADVANCED_FACE ( 'NONE', ( #861 ), #291, .F. ) ;
#1193 = DIRECTION ( 'NONE',  ( 0.000000000000000000, 0.000000000000000000, -1.000000000000000000 ) ) ;
#1194 = ORIENTED_EDGE ( 'NONE', *, *, #783, .T. ) ;
#1195 = EDGE_CURVE ( 'NONE', #968, #1147, #667, .T. ) ;
#1196 = FACE_OUTER_BOUND ( 'NONE', #237, .T. ) ;
#1197 = DIRECTION ( 'NONE',  ( 0.5773502691896253980, 0.5773502691896261751, 0.5773502691896257311 ) ) ;
#1198 = DIRECTION ( 'NONE',  ( 0.000000000000000000, 0.7071067811865475727, -0.7071067811865475727 ) ) ;
#1199 = VECTOR ( 'NONE', #674, 999.9999999999998863 ) ;
#1200 = VERTEX_POINT ( 'NONE', #162 ) ;
#1201 = VECTOR ( 'NONE', #1111, 1000.000000000000000 ) ;
#1202 = DIRECTION ( 'NONE',  ( -1.000000000000000000, -6.505213034913043367E-16, 0.000000000000000000 ) ) ;
#1203 = CARTESIAN_POINT ( 'NONE',  ( 3.190296047773438629E-15, -5.000000000000000000, -1.215432671457253722E-61 ) ) ;
#1204 = CARTESIAN_POINT ( 'NONE',  ( 1.435455849203326824E-15, 38.49999999999999289, 1.000000000000014655 ) ) ;
#1205 = ORIENTED_EDGE ( 'NONE', *, *, #727, .F. ) ;
#1206 = ORIENTED_EDGE ( 'NONE', *, *, #245, .T. ) ;
#1207 = AXIS2_PLACEMENT_3D ( 'NONE', #2, #673, #405 ) ;
#1208 = CARTESIAN_POINT ( 'NONE',  ( 87.00000000000000000, 38.50000000000003553, 1.000000000000014655 ) ) ;
#1209 = VECTOR ( 'NONE', #1155, 1000.000000000000000 ) ;
#1210 = CARTESIAN_POINT ( 'NONE',  ( 87.00000000000000000, 5.551115123125782702E-14, 23.99999999999998579 ) ) ;
#1211 = CARTESIAN_POINT ( 'NONE',  ( 70.99999999999997158, -4.999999999999954703, 12.50000000000001066 ) ) ;
#1212 = EDGE_LOOP ( 'NONE', ( #659, #208, #933, #1238 ) ) ;
#1213 = ADVANCED_FACE ( 'NONE', ( #1051 ), #1242, .F. ) ;
#1214 = CARTESIAN_POINT ( 'NONE',  ( 87.00000000000000000, 38.50000000000003553, 25.00000000000000000 ) ) ;
#1215 = CARTESIAN_POINT ( 'NONE',  ( 87.00000000000000000, 38.50000000000003553, 1.000000000000014655 ) ) ;
#1216 = EDGE_LOOP ( 'NONE', ( #221, #1062, #440, #804, #48, #1223, #836, #87, #1232, #685, #764, #972, #1246, #979 ) ) ;
#1217 = VECTOR ( 'NONE', #201, 1000.000000000000000 ) ;
#1218 =( LENGTH_UNIT ( ) NAMED_UNIT ( * ) SI_UNIT ( .MILLI., .METRE. ) );
#1219 = CYLINDRICAL_SURFACE ( 'NONE', #354, 2.100000000000000977 ) ;
#1220 = EDGE_CURVE ( 'NONE', #445, #73, #521, .T. ) ;
#1221 = ADVANCED_BREP_SHAPE_REPRESENTATION ( 'HP PSU Mount Clip', ( #985, #125 ), #143 ) ;
#1222 = LINE ( 'NONE', #246, #546 ) ;
#1223 = ORIENTED_EDGE ( 'NONE', *, *, #471, .T. ) ;
#1224 = AXIS2_PLACEMENT_3D ( 'NONE', #900, #818, #137 ) ;
#1225 = ORIENTED_EDGE ( 'NONE', *, *, #222, .F. ) ;
#1226 = DIRECTION ( 'NONE',  ( -1.000000000000000000, 0.000000000000000000, 0.000000000000000000 ) ) ;
#1227 = LINE ( 'NONE', #468, #475 ) ;
#1228 = LINE ( 'NONE', #1215, #495 ) ;
#1229 = EDGE_CURVE ( 'NONE', #26, #501, #404, .T. ) ;
#1230 = ORIENTED_EDGE ( 'NONE', *, *, #1229, .T. ) ;
#1231 = VECTOR ( 'NONE', #1026, 1000.000000000000000 ) ;
#1232 = ORIENTED_EDGE ( 'NONE', *, *, #394, .T. ) ;
#1233 = LINE ( 'NONE', #1117, #1011 ) ;
#1234 = DIRECTION ( 'NONE',  ( -1.000000000000000000, -8.260587980841934835E-16, 0.000000000000000000 ) ) ;
#1235 = EDGE_CURVE ( 'NONE', #787, #368, #1227, .T. ) ;
#1236 = CARTESIAN_POINT ( 'NONE',  ( 16.00000000000002842, -4.999999999999989342, 12.50000000000001066 ) ) ;
#1237 = VERTEX_POINT ( 'NONE', #767 ) ;
#1238 = ORIENTED_EDGE ( 'NONE', *, *, #65, .F. ) ;
#1239 = VECTOR ( 'NONE', #56, 1000.000000000000114 ) ;
#1240 = DIRECTION ( 'NONE',  ( -0.000000000000000000, -0.000000000000000000, -1.000000000000000000 ) ) ;
#1241 = AXIS2_PLACEMENT_3D ( 'NONE', #128, #835, #927 ) ;
#1242 = CYLINDRICAL_SURFACE ( 'NONE', #940, 2.100000000000004530 ) ;
#1243 = FACE_BOUND ( 'NONE', #571, .T. ) ;
#1244 = VERTEX_POINT ( 'NONE', #476 ) ;
#1245 = DIRECTION ( 'NONE',  ( 0.000000000000000000, -0.7071067811865481278, 0.7071067811865469066 ) ) ;
#1246 = ORIENTED_EDGE ( 'NONE', *, *, #611, .T. ) ;
#1247 = CARTESIAN_POINT ( 'NONE',  ( -5.000000000000046185, -9.999999999999944933, 25.00000000000000000 ) ) ;
#1248 = FACE_OUTER_BOUND ( 'NONE', #941, .T. ) ;
#1249 = ORIENTED_EDGE ( 'NONE', *, *, #831, .T. ) ;
#1250 = LINE ( 'NONE', #643, #504 ) ;
#1251 = VERTEX_POINT ( 'NONE', #562 ) ;
#1252 = AXIS2_PLACEMENT_3D ( 'NONE', #1170, #883, #869 ) ;
#1253 = CARTESIAN_POINT ( 'NONE',  ( 4.000000000000000888, 39.14593407714620099, 25.00000000000000000 ) ) ;
#1254 = APPLICATION_PROTOCOL_DEFINITION ( 'draft international standard', 'automotive_design', 1998, #197 ) ;
#1255 = CARTESIAN_POINT ( 'NONE',  ( 3.989442099803160779, 39.38307235297760656, 24.88307235297759235 ) ) ;
#1256 = EDGE_LOOP ( 'NONE', ( #859, #1001, #483, #566 ) ) ;
#1257 = CARTESIAN_POINT ( 'NONE',  ( 4.000000000000000888, 38.49999999999999289, 1.000000000000018208 ) ) ;
ENDSEC;
END-ISO-10303-21;
