ISO-10303-21;
HEADER;
FILE_DESCRIPTION (( 'STEP AP214' ),
    '1' );
FILE_NAME ('PEX Connector.STEP',
    '2025-10-30T10:25:02',
    ( '' ),
    ( '' ),
    'SwSTEP 2.0',
    'SolidWorks 2025',
    '' );
FILE_SCHEMA (( 'AUTOMOTIVE_DESIGN' ));
ENDSEC;

DATA;
#1 = DIRECTION ( 'NONE',  ( 1.000000000000000000, 0.000000000000000000, 0.000000000000000000 ) ) ;
#2 = DIRECTION ( 'NONE',  ( 1.000000000000000000, 0.000000000000000000, 0.000000000000000000 ) ) ;
#3 = ADVANCED_FACE ( 'NONE', ( #141 ), #213, .F. ) ;
#4 = VERTEX_POINT ( 'NONE', #259 ) ;
#5 = DIRECTION ( 'NONE',  ( 1.000000000000000000, 0.000000000000000000, 0.000000000000000000 ) ) ;
#6 = CARTESIAN_POINT ( 'NONE',  ( -0.5449999999999999289, 0.000000000000000000, 1.100000000000001865 ) ) ;
#7 = AXIS2_PLACEMENT_3D ( 'NONE', #468, #120, #80 ) ;
#8 = EDGE_LOOP ( 'NONE', ( #291, #286, #380, #425 ) ) ;
#9 = FACE_OUTER_BOUND ( 'NONE', #321, .T. ) ;
#10 = VERTEX_POINT ( 'NONE', #255 ) ;
#11 = EDGE_CURVE ( 'NONE', #434, #406, #309, .T. ) ;
#12 = DIRECTION ( 'NONE',  ( 1.000000000000000000, 0.000000000000000000, 0.000000000000000000 ) ) ;
#13 = ORIENTED_EDGE ( 'NONE', *, *, #432, .T. ) ;
#14 = AXIS2_PLACEMENT_3D ( 'NONE', #119, #113, #1 ) ;
#15 = VECTOR ( 'NONE', #275, 39.37007874015748143 ) ;
#16 = CARTESIAN_POINT ( 'NONE',  ( 0.000000000000000000, 0.000000000000000000, 1.100000000000001865 ) ) ;
#17 = EDGE_LOOP ( 'NONE', ( #365, #382, #86, #444 ) ) ;
#18 = DIRECTION ( 'NONE',  ( -1.000000000000000000, 0.000000000000000000, 0.000000000000000000 ) ) ;
#19 = ORIENTED_EDGE ( 'NONE', *, *, #500, .T. ) ;
#20 = ADVANCED_FACE ( 'NONE', ( #302 ), #458, .T. ) ;
#21 = DIRECTION ( 'NONE',  ( 1.000000000000000000, 0.000000000000000000, 0.000000000000000000 ) ) ;
#22 = ORIENTED_EDGE ( 'NONE', *, *, #299, .F. ) ;
#23 = DIRECTION ( 'NONE',  ( -0.000000000000000000, -0.000000000000000000, -1.000000000000000000 ) ) ;
#24 = DIRECTION ( 'NONE',  ( -0.000000000000000000, -0.000000000000000000, -1.000000000000000000 ) ) ;
#25 = CARTESIAN_POINT ( 'NONE',  ( -0.6050000000000002043, 0.000000000000000000, 0.000000000000000000 ) ) ;
#26 = VERTEX_POINT ( 'NONE', #111 ) ;
#27 = CARTESIAN_POINT ( 'NONE',  ( 0.5449999999999999289, 6.674325055353073759E-17, 1.100000000000001865 ) ) ;
#28 = ADVANCED_FACE ( 'NONE', ( #343 ), #252, .F. ) ;
#29 = VERTEX_POINT ( 'NONE', #385 ) ;
#30 = AXIS2_PLACEMENT_3D ( 'NONE', #331, #146, #292 ) ;
#31 = PRODUCT ( 'PEX Connector', 'PEX Connector', '', ( #82 ) ) ;
#32 = DIRECTION ( 'NONE',  ( -0.000000000000000000, -0.000000000000000000, -1.000000000000000000 ) ) ;
#33 = CARTESIAN_POINT ( 'NONE',  ( 0.000000000000000000, 0.000000000000000000, 1.070000000000001394 ) ) ;
#34 = MECHANICAL_DESIGN_GEOMETRIC_PRESENTATION_REPRESENTATION (  '', ( #474 ), #386 ) ;
#35 = FILL_AREA_STYLE_COLOUR ( '', #410 ) ;
#36 = EDGE_CURVE ( 'NONE', #26, #10, #125, .T. ) ;
#37 = DIRECTION ( 'NONE',  ( 0.000000000000000000, 0.000000000000000000, -1.000000000000000000 ) ) ;
#38 = VECTOR ( 'NONE', #411, 39.37007874015748854 ) ;
#39 = SURFACE_SIDE_STYLE ('',( #83 ) ) ;
#40 = ADVANCED_FACE ( 'NONE', ( #502 ), #150, .F. ) ;
#41 = DIRECTION ( 'NONE',  ( 1.000000000000000000, 0.000000000000000000, 0.000000000000000000 ) ) ;
#42 = ORIENTED_EDGE ( 'NONE', *, *, #289, .T. ) ;
#43 = DIRECTION ( 'NONE',  ( -0.000000000000000000, -0.000000000000000000, -1.000000000000000000 ) ) ;
#44 = DIRECTION ( 'NONE',  ( 0.000000000000000000, 0.000000000000000000, -1.000000000000000000 ) ) ;
#45 = DIRECTION ( 'NONE',  ( -1.000000000000000000, 0.000000000000000000, 0.000000000000000000 ) ) ;
#46 = ORIENTED_EDGE ( 'NONE', *, *, #415, .F. ) ;
#47 = EDGE_CURVE ( 'NONE', #137, #79, #103, .T. ) ;
#48 = CYLINDRICAL_SURFACE ( 'NONE', #90, 0.5750000000000000666 ) ;
#49 = ORIENTED_EDGE ( 'NONE', *, *, #192, .T. ) ;
#50 = CIRCLE ( 'NONE', #443, 0.6050000000000002043 ) ;
#51 = DIRECTION ( 'NONE',  ( -0.000000000000000000, -0.000000000000000000, -1.000000000000000000 ) ) ;
#52 = VERTEX_POINT ( 'NONE', #452 ) ;
#53 = VECTOR ( 'NONE', #209, 39.37007874015748143 ) ;
#54 = DIRECTION ( 'NONE',  ( -1.000000000000000000, 0.000000000000000000, 0.000000000000000000 ) ) ;
#55 = PRODUCT_DEFINITION ( 'UNKNOWN', '', #469, #300 ) ;
#56 = ORIENTED_EDGE ( 'NONE', *, *, #211, .T. ) ;
#57 = DIRECTION ( 'NONE',  ( -0.000000000000000000, -0.000000000000000000, 1.000000000000000000 ) ) ;
#58 = EDGE_LOOP ( 'NONE', ( #220, #145, #134, #46 ) ) ;
#59 = LINE ( 'NONE', #247, #38 ) ;
#60 = ORIENTED_EDGE ( 'NONE', *, *, #227, .T. ) ;
#61 = VECTOR ( 'NONE', #294, 39.37007874015748143 ) ;
#62 = AXIS2_PLACEMENT_3D ( 'NONE', #93, #358, #12 ) ;
#63 = CARTESIAN_POINT ( 'NONE',  ( 0.000000000000000000, 0.000000000000000000, 2.899999999999999023 ) ) ;
#64 = DIRECTION ( 'NONE',  ( -0.000000000000000000, -0.000000000000000000, -1.000000000000000000 ) ) ;
#65 = VECTOR ( 'NONE', #76, 39.37007874015748854 ) ;
#66 = EDGE_CURVE ( 'NONE', #274, #26, #107, .T. ) ;
#67 = UNCERTAINTY_MEASURE_WITH_UNIT (LENGTH_MEASURE( 1.000000000000000082E-05 ), #347, 'distance_accuracy_value', 'NONE');
#68 = CARTESIAN_POINT ( 'NONE',  ( 0.6050000000000002043, 7.409113134841487754E-17, 0.000000000000000000 ) ) ;
#69 = ORIENTED_EDGE ( 'NONE', *, *, #84, .T. ) ;
#70 = CARTESIAN_POINT ( 'NONE',  ( 0.000000000000000000, 0.000000000000000000, 0.000000000000000000 ) ) ;
#71 = DIRECTION ( 'NONE',  ( -1.000000000000000000, 0.000000000000000000, 0.000000000000000000 ) ) ;
#72 = CIRCLE ( 'NONE', #14, 0.6049999999999990941 ) ;
#73 = MANIFOLD_SOLID_BREP ( 'Chamfer3', #153 ) ;
#74 = FACE_OUTER_BOUND ( 'NONE', #499, .T. ) ;
#75 = EDGE_CURVE ( 'NONE', #406, #434, #447, .T. ) ;
#76 = DIRECTION ( 'NONE',  ( -0.7071067811865431318, 0.000000000000000000, -0.7071067811865517916 ) ) ;
#77 = VECTOR ( 'NONE', #268, 39.37007874015748143 ) ;
#78 = LINE ( 'NONE', #122, #492 ) ;
#79 = VERTEX_POINT ( 'NONE', #346 ) ;
#80 = DIRECTION ( 'NONE',  ( 1.000000000000000000, 0.000000000000000000, 0.000000000000000000 ) ) ;
#81 = CIRCLE ( 'NONE', #182, 0.5449999999999999289 ) ;
#82 = PRODUCT_CONTEXT ( 'NONE', #303, 'mechanical' ) ;
#83 = SURFACE_STYLE_FILL_AREA ( #190 ) ;
#84 = EDGE_CURVE ( 'NONE', #52, #274, #504, .T. ) ;
#85 = DIRECTION ( 'NONE',  ( 0.000000000000000000, 0.000000000000000000, -1.000000000000000000 ) ) ;
#86 = ORIENTED_EDGE ( 'NONE', *, *, #500, .F. ) ;
#87 = DIRECTION ( 'NONE',  ( -1.000000000000000000, 0.000000000000000000, 0.000000000000000000 ) ) ;
#88 = CARTESIAN_POINT ( 'NONE',  ( 0.5750000000000000666, 0.000000000000000000, 3.970000000000000195 ) ) ;
#89 = CIRCLE ( 'NONE', #279, 0.5750000000000000666 ) ;
#90 = AXIS2_PLACEMENT_3D ( 'NONE', #244, #408, #54 ) ;
#91 = EDGE_CURVE ( 'NONE', #181, #161, #78, .T. ) ;
#92 = EDGE_LOOP ( 'NONE', ( #121, #494, #359, #412 ) ) ;
#93 = CARTESIAN_POINT ( 'NONE',  ( 0.000000000000000000, 0.000000000000000000, 0.000000000000000000 ) ) ;
#94 = ORIENTED_EDGE ( 'NONE', *, *, #397, .F. ) ;
#95 = DIRECTION ( 'NONE',  ( 0.000000000000000000, 0.000000000000000000, 1.000000000000000000 ) ) ;
#96 = ORIENTED_EDGE ( 'NONE', *, *, #97, .T. ) ;
#97 = EDGE_CURVE ( 'NONE', #421, #161, #471, .T. ) ;
#98 = CARTESIAN_POINT ( 'NONE',  ( 0.000000000000000000, 0.000000000000000000, 0.03000000000000049849 ) ) ;
#99 = ORIENTED_EDGE ( 'NONE', *, *, #123, .T. ) ;
#100 = CONICAL_SURFACE ( 'NONE', #393, 0.5449999999999999289, 0.7853981633974421728 ) ;
#101 = CARTESIAN_POINT ( 'NONE',  ( 0.6749999999999999334, 8.266365894244633101E-17, 4.000000000000000000 ) ) ;
#102 = ORIENTED_EDGE ( 'NONE', *, *, #353, .F. ) ;
#103 = CIRCLE ( 'NONE', #378, 0.5750000000000000666 ) ;
#104 = CARTESIAN_POINT ( 'NONE',  ( -0.6050000000000002043, 0.000000000000000000, 0.000000000000000000 ) ) ;
#105 = CARTESIAN_POINT ( 'NONE',  ( 0.000000000000000000, 0.000000000000000000, 0.03000000000000049849 ) ) ;
#106 = CARTESIAN_POINT ( 'NONE',  ( 0.6749999999999999334, 8.266365894244633101E-17, 0.000000000000000000 ) ) ;
#107 = LINE ( 'NONE', #427, #65 ) ;
#108 = FACE_OUTER_BOUND ( 'NONE', #414, .T. ) ;
#109 = ORIENTED_EDGE ( 'NONE', *, *, #336, .F. ) ;
#110 = CARTESIAN_POINT ( 'NONE',  ( 0.000000000000000000, 0.000000000000000000, 1.070000000000001394 ) ) ;
#111 = CARTESIAN_POINT ( 'NONE',  ( -0.5750000000000000666, 0.000000000000000000, 1.070000000000001394 ) ) ;
#112 = EDGE_CURVE ( 'NONE', #274, #464, #118, .T. ) ;
#113 = DIRECTION ( 'NONE',  ( 0.000000000000000000, -0.000000000000000000, -1.000000000000000000 ) ) ;
#114 = ORIENTED_EDGE ( 'NONE', *, *, #482, .T. ) ;
#115 = APPLICATION_CONTEXT ( 'automotive_design' ) ;
#116 = VECTOR ( 'NONE', #301, 39.37007874015748143 ) ;
#117 = AXIS2_PLACEMENT_3D ( 'NONE', #285, #481, #45 ) ;
#118 = CIRCLE ( 'NONE', #402, 0.5449999999999999289 ) ;
#119 = CARTESIAN_POINT ( 'NONE',  ( 0.000000000000000000, 0.000000000000000000, 4.000000000000000000 ) ) ;
#120 = DIRECTION ( 'NONE',  ( -0.000000000000000000, 0.000000000000000000, 1.000000000000000000 ) ) ;
#121 = ORIENTED_EDGE ( 'NONE', *, *, #256, .F. ) ;
#122 = CARTESIAN_POINT ( 'NONE',  ( 0.6450000000000016831, 0.000000000000000000, 2.999999999999999556 ) ) ;
#123 = EDGE_CURVE ( 'NONE', #10, #137, #426, .T. ) ;
#124 = VECTOR ( 'NONE', #152, 39.37007874015748143 ) ;
#125 = CIRCLE ( 'NONE', #284, 0.5750000000000000666 ) ;
#126 = PLANE ( 'NONE',  #230 ) ;
#127 = ADVANCED_FACE ( 'NONE', ( #270 ), #157, .F. ) ;
#128 = LINE ( 'NONE', #88, #314 ) ;
#129 = ORIENTED_EDGE ( 'NONE', *, *, #123, .F. ) ;
#130 =( GEOMETRIC_REPRESENTATION_CONTEXT ( 3 ) GLOBAL_UNCERTAINTY_ASSIGNED_CONTEXT ( ( #67 ) ) GLOBAL_UNIT_ASSIGNED_CONTEXT ( ( #347, #194, #459 ) ) REPRESENTATION_CONTEXT ( 'NONE', 'WORKASPACE' ) );
#131 = CARTESIAN_POINT ( 'NONE',  ( 0.000000000000000000, 0.000000000000000000, 3.970000000000000195 ) ) ;
#132 = ORIENTED_EDGE ( 'NONE', *, *, #336, .T. ) ;
#133 = CYLINDRICAL_SURFACE ( 'NONE', #117, 0.6749999999999999334 ) ;
#134 = ORIENTED_EDGE ( 'NONE', *, *, #66, .T. ) ;
#135 = EDGE_CURVE ( 'NONE', #181, #464, #158, .T. ) ;
#136 = DIRECTION ( 'NONE',  ( -1.000000000000000000, 0.000000000000000000, 0.000000000000000000 ) ) ;
#137 = VERTEX_POINT ( 'NONE', #193 ) ;
#138 = FACE_OUTER_BOUND ( 'NONE', #17, .T. ) ;
#139 = ORIENTED_EDGE ( 'NONE', *, *, #353, .T. ) ;
#140 = DIRECTION ( 'NONE',  ( -0.000000000000000000, 0.000000000000000000, 1.000000000000000000 ) ) ;
#141 = FACE_OUTER_BOUND ( 'NONE', #288, .T. ) ;
#142 = AXIS2_PLACEMENT_3D ( 'NONE', #258, #424, #223 ) ;
#143 = DIRECTION ( 'NONE',  ( 1.000000000000000000, 0.000000000000000000, 0.000000000000000000 ) ) ;
#144 = EDGE_CURVE ( 'NONE', #161, #485, #322, .T. ) ;
#145 = ORIENTED_EDGE ( 'NONE', *, *, #112, .F. ) ;
#146 = DIRECTION ( 'NONE',  ( -0.000000000000000000, 0.000000000000000000, 1.000000000000000000 ) ) ;
#147 = EDGE_LOOP ( 'NONE', ( #269, #326, #139, #94 ) ) ;
#148 = CARTESIAN_POINT ( 'NONE',  ( -0.5750000000000000666, 0.000000000000000000, 4.000000000000000000 ) ) ;
#149 = DIRECTION ( 'NONE',  ( -1.000000000000000000, 0.000000000000000000, 0.000000000000000000 ) ) ;
#150 = CYLINDRICAL_SURFACE ( 'NONE', #189, 0.5750000000000000666 ) ;
#151 = CARTESIAN_POINT ( 'NONE',  ( 0.5750000000000000666, 7.041719095097281373E-17, 4.000000000000000000 ) ) ;
#152 = DIRECTION ( 'NONE',  ( -0.000000000000000000, -0.000000000000000000, -1.000000000000000000 ) ) ;
#153 = CLOSED_SHELL ( 'NONE', ( #505, #384, #28, #305, #175, #169, #3, #318, #40, #282, #20, #159, #465, #184, #422, #263, #127, #232 ) ) ;
#154 = EDGE_CURVE ( 'NONE', #317, #485, #233, .T. ) ;
#155 = CARTESIAN_POINT ( 'NONE',  ( 0.5750000000000000666, 7.041719095097281373E-17, 2.929999999999999272 ) ) ;
#156 = CIRCLE ( 'NONE', #453, 0.5750000000000000666 ) ;
#157 = CONICAL_SURFACE ( 'NONE', #298, 0.6450000000000016831, 0.7853981633974544962 ) ;
#158 = LINE ( 'NONE', #226, #15 ) ;
#159 = ADVANCED_FACE ( 'NONE', ( #473, #308 ), #126, .T. ) ;
#160 = DIRECTION ( 'NONE',  ( 0.000000000000000000, -0.000000000000000000, -1.000000000000000000 ) ) ;
#161 = VERTEX_POINT ( 'NONE', #155 ) ;
#162 = DIRECTION ( 'NONE',  ( -1.000000000000000000, 0.000000000000000000, 0.000000000000000000 ) ) ;
#163 = ORIENTED_EDGE ( 'NONE', *, *, #47, .T. ) ;
#164 = VECTOR ( 'NONE', #23, 39.37007874015748143 ) ;
#165 = LINE ( 'NONE', #323, #340 ) ;
#166 = CIRCLE ( 'NONE', #191, 0.6049999999999990941 ) ;
#167 = EDGE_LOOP ( 'NONE', ( #240, #476, #324, #404 ) ) ;
#168 = DIRECTION ( 'NONE',  ( 0.000000000000000000, 0.000000000000000000, -1.000000000000000000 ) ) ;
#169 = ADVANCED_FACE ( 'NONE', ( #204 ), #133, .T. ) ;
#170 = ORIENTED_EDGE ( 'NONE', *, *, #192, .F. ) ;
#171 = CARTESIAN_POINT ( 'NONE',  ( 0.6049999999999990941, 0.000000000000000000, 4.000000000000000000 ) ) ;
#172 = ORIENTED_EDGE ( 'NONE', *, *, #84, .F. ) ;
#173 = CARTESIAN_POINT ( 'NONE',  ( -0.6749999999999999334, 0.000000000000000000, 0.000000000000000000 ) ) ;
#174 = CARTESIAN_POINT ( 'NONE',  ( 0.000000000000000000, 0.000000000000000000, 4.000000000000000000 ) ) ;
#175 = ADVANCED_FACE ( 'NONE', ( #242 ), #245, .F. ) ;
#176 = CARTESIAN_POINT ( 'NONE',  ( 0.5750000000000000666, 7.041719095097281373E-17, 3.970000000000000195 ) ) ;
#177 = CARTESIAN_POINT ( 'NONE',  ( 0.000000000000000000, 0.000000000000000000, 4.000000000000000000 ) ) ;
#178 = VECTOR ( 'NONE', #395, 39.37007874015748143 ) ;
#179 = DIMENSIONAL_EXPONENTS ( 1.000000000000000000, 0.000000000000000000, 0.000000000000000000, 0.000000000000000000, 0.000000000000000000, 0.000000000000000000, 0.000000000000000000 ) ;
#180 = DIRECTION ( 'NONE',  ( 0.000000000000000000, 0.000000000000000000, 1.000000000000000000 ) ) ;
#181 = VERTEX_POINT ( 'NONE', #477 ) ;
#182 = AXIS2_PLACEMENT_3D ( 'NONE', #490, #423, #296 ) ;
#183 = LINE ( 'NONE', #212, #313 ) ;
#184 = ADVANCED_FACE ( 'NONE', ( #437 ), #472, .F. ) ;
#185 = ORIENTED_EDGE ( 'NONE', *, *, #272, .T. ) ;
#186 = AXIS2_PLACEMENT_3D ( 'NONE', #131, #433, #396 ) ;
#187 = CARTESIAN_POINT ( 'NONE',  ( -0.5750000000000000666, 0.000000000000000000, 2.929999999999999272 ) ) ;
#188 = DIRECTION ( 'NONE',  ( -1.000000000000000000, 0.000000000000000000, 0.000000000000000000 ) ) ;
#189 = AXIS2_PLACEMENT_3D ( 'NONE', #177, #334, #304 ) ;
#190 = FILL_AREA_STYLE ('',( #35 ) ) ;
#191 = AXIS2_PLACEMENT_3D ( 'NONE', #486, #160, #316 ) ;
#192 = EDGE_CURVE ( 'NONE', #29, #372, #253, .T. ) ;
#193 = CARTESIAN_POINT ( 'NONE',  ( 0.5750000000000000666, 7.041719095097281373E-17, 0.03000000000000049849 ) ) ;
#194 =( NAMED_UNIT ( * ) PLANE_ANGLE_UNIT ( ) SI_UNIT ( $, .RADIAN. ) );
#195 =( NAMED_UNIT ( * ) PLANE_ANGLE_UNIT ( ) SI_UNIT ( $, .RADIAN. ) );
#196 = PRODUCT_RELATED_PRODUCT_CATEGORY ( 'part', '', ( #31 ) ) ;
#197 = CONICAL_SURFACE ( 'NONE', #461, 0.5750000000000000666, 0.7853981633974346233 ) ;
#198 = DIRECTION ( 'NONE',  ( -0.000000000000000000, -0.000000000000000000, -1.000000000000000000 ) ) ;
#199 = DIRECTION ( 'NONE',  ( -0.000000000000000000, 0.000000000000000000, 1.000000000000000000 ) ) ;
#200 = ORIENTED_EDGE ( 'NONE', *, *, #432, .F. ) ;
#201 = DIRECTION ( 'NONE',  ( -1.000000000000000000, 0.000000000000000000, 0.000000000000000000 ) ) ;
#202 = ORIENTED_EDGE ( 'NONE', *, *, #344, .F. ) ;
#203 = AXIS2_PLACEMENT_3D ( 'NONE', #356, #345, #467 ) ;
#204 = FACE_OUTER_BOUND ( 'NONE', #147, .T. ) ;
#205 = AXIS2_PLACEMENT_3D ( 'NONE', #98, #198, #234 ) ;
#206 = ORIENTED_EDGE ( 'NONE', *, *, #227, .F. ) ;
#207 = DIRECTION ( 'NONE',  ( 1.000000000000000000, 0.000000000000000000, 0.000000000000000000 ) ) ;
#208 = EDGE_LOOP ( 'NONE', ( #297, #114, #69, #390 ) ) ;
#209 = DIRECTION ( 'NONE',  ( 0.7071067811865435759, 8.659560562354882322E-17, -0.7071067811865514585 ) ) ;
#210 = ORIENTED_EDGE ( 'NONE', *, *, #456, .T. ) ;
#211 = EDGE_CURVE ( 'NONE', #317, #421, #498, .T. ) ;
#212 = CARTESIAN_POINT ( 'NONE',  ( 0.6749999999999999334, 8.266365894244633101E-17, 4.000000000000000000 ) ) ;
#213 = CYLINDRICAL_SURFACE ( 'NONE', #439, 0.5750000000000000666 ) ;
#214 = AXIS2_PLACEMENT_3D ( 'NONE', #379, #333, #493 ) ;
#215 = AXIS2_PLACEMENT_3D ( 'NONE', #389, #85, #5 ) ;
#216 = DIMENSIONAL_EXPONENTS ( 1.000000000000000000, 0.000000000000000000, 0.000000000000000000, 0.000000000000000000, 0.000000000000000000, 0.000000000000000000, 0.000000000000000000 ) ;
#217 = DIRECTION ( 'NONE',  ( 1.000000000000000000, 0.000000000000000000, 0.000000000000000000 ) ) ;
#218 = EDGE_LOOP ( 'NONE', ( #56, #96, #243, #310 ) ) ;
#219 = LINE ( 'NONE', #68, #53 ) ;
#220 = ORIENTED_EDGE ( 'NONE', *, *, #394, .F. ) ;
#221 = UNCERTAINTY_MEASURE_WITH_UNIT (LENGTH_MEASURE( 1.000000000000000082E-05 ), #463, 'distance_accuracy_value', 'NONE');
#222 = DIRECTION ( 'NONE',  ( -1.000000000000000000, 0.000000000000000000, 0.000000000000000000 ) ) ;
#223 = DIRECTION ( 'NONE',  ( -1.000000000000000000, 0.000000000000000000, 0.000000000000000000 ) ) ;
#224 = LENGTH_MEASURE_WITH_UNIT ( LENGTH_MEASURE( 0.02539999999999999897 ), #273 );
#225 = DIRECTION ( 'NONE',  ( -1.000000000000000000, 0.000000000000000000, 0.000000000000000000 ) ) ;
#226 = CARTESIAN_POINT ( 'NONE',  ( 0.5449999999999999289, 6.674325055353073759E-17, 2.999999999999999556 ) ) ;
#227 = EDGE_CURVE ( 'NONE', #464, #274, #462, .T. ) ;
#228 = LENGTH_MEASURE_WITH_UNIT ( LENGTH_MEASURE( 0.02539999999999999897 ), #267 );
#229 = CARTESIAN_POINT ( 'NONE',  ( 0.000000000000000000, 0.000000000000000000, 4.000000000000000000 ) ) ;
#230 = AXIS2_PLACEMENT_3D ( 'NONE', #229, #392, #2 ) ;
#231 = CARTESIAN_POINT ( 'NONE',  ( 0.000000000000000000, 0.000000000000000000, 1.100000000000001865 ) ) ;
#232 = ADVANCED_FACE ( 'NONE', ( #277 ), #100, .F. ) ;
#233 = LINE ( 'NONE', #315, #124 ) ;
#234 = DIRECTION ( 'NONE',  ( 1.000000000000000000, 0.000000000000000000, 0.000000000000000000 ) ) ;
#235 = ORIENTED_EDGE ( 'NONE', *, *, #272, .F. ) ;
#236 = AXIS2_PLACEMENT_3D ( 'NONE', #369, #51, #162 ) ;
#237 = CARTESIAN_POINT ( 'NONE',  ( 0.000000000000000000, 0.000000000000000000, 4.000000000000000000 ) ) ;
#238 = EDGE_LOOP ( 'NONE', ( #460, #441 ) ) ;
#239 = CARTESIAN_POINT ( 'NONE',  ( -0.5750000000000000666, 0.000000000000000000, 3.970000000000000195 ) ) ;
#240 = ORIENTED_EDGE ( 'NONE', *, *, #361, .F. ) ;
#241 = EDGE_CURVE ( 'NONE', #431, #436, #375, .T. ) ;
#242 = FACE_OUTER_BOUND ( 'NONE', #355, .T. ) ;
#243 = ORIENTED_EDGE ( 'NONE', *, *, #144, .T. ) ;
#244 = CARTESIAN_POINT ( 'NONE',  ( 0.000000000000000000, 0.000000000000000000, 4.000000000000000000 ) ) ;
#245 = CONICAL_SURFACE ( 'NONE', #399, 0.6050000000000002043, 0.7853981633974426169 ) ;
#246 = EDGE_LOOP ( 'NONE', ( #409, #488, #60, #172 ) ) ;
#247 = CARTESIAN_POINT ( 'NONE',  ( -0.5750000000000000666, 7.041719095097281373E-17, 3.970000000000000195 ) ) ;
#248 = ORIENTED_EDGE ( 'NONE', *, *, #66, .F. ) ;
#249 = FACE_BOUND ( 'NONE', #266, .T. ) ;
#250 = ORIENTED_EDGE ( 'NONE', *, *, #489, .F. ) ;
#251 = CARTESIAN_POINT ( 'NONE',  ( -0.6749999999999999334, 0.000000000000000000, 4.000000000000000000 ) ) ;
#252 = CYLINDRICAL_SURFACE ( 'NONE', #142, 0.5449999999999999289 ) ;
#253 = CIRCLE ( 'NONE', #307, 0.6050000000000002043 ) ;
#254 = DIRECTION ( 'NONE',  ( -0.000000000000000000, 0.000000000000000000, 1.000000000000000000 ) ) ;
#255 = CARTESIAN_POINT ( 'NONE',  ( 0.5750000000000000666, 7.041719095097281373E-17, 1.070000000000001394 ) ) ;
#256 = EDGE_CURVE ( 'NONE', #52, #485, #165, .T. ) ;
#257 = CARTESIAN_POINT ( 'NONE',  ( -0.6749999999999999334, 0.000000000000000000, 4.000000000000000000 ) ) ;
#258 = CARTESIAN_POINT ( 'NONE',  ( 0.000000000000000000, 0.000000000000000000, 2.999999999999999556 ) ) ;
#259 = CARTESIAN_POINT ( 'NONE',  ( -0.6049999999999990941, 7.409113134841476661E-17, 4.000000000000000000 ) ) ;
#260 = AXIS2_PLACEMENT_3D ( 'NONE', #63, #495, #222 ) ;
#261 = APPLICATION_PROTOCOL_DEFINITION ( 'draft international standard', 'automotive_design', 1998, #115 ) ;
#262 = ADVANCED_BREP_SHAPE_REPRESENTATION ( 'PEX Connector', ( #73, #203 ), #130 ) ;
#263 = ADVANCED_FACE ( 'NONE', ( #435 ), #484, .F. ) ;
#264 = PRESENTATION_STYLE_ASSIGNMENT (( #387 ) ) ;
#265 = VECTOR ( 'NONE', #43, 39.37007874015748143 ) ;
#266 = EDGE_LOOP ( 'NONE', ( #132, #49 ) ) ;
#267 =( LENGTH_UNIT ( ) NAMED_UNIT ( * ) SI_UNIT ( $, .METRE. ) );
#268 = DIRECTION ( 'NONE',  ( 0.000000000000000000, 0.000000000000000000, -1.000000000000000000 ) ) ;
#269 = ORIENTED_EDGE ( 'NONE', *, *, #75, .F. ) ;
#270 = FACE_OUTER_BOUND ( 'NONE', #92, .T. ) ;
#271 = CONICAL_SURFACE ( 'NONE', #479, 0.5449999999999999289, 0.7853981633974421728 ) ;
#272 = EDGE_CURVE ( 'NONE', #79, #137, #350, .T. ) ;
#273 =( LENGTH_UNIT ( ) NAMED_UNIT ( * ) SI_UNIT ( $, .METRE. ) );
#274 = VERTEX_POINT ( 'NONE', #6 ) ;
#275 = DIRECTION ( 'NONE',  ( 0.000000000000000000, 0.000000000000000000, -1.000000000000000000 ) ) ;
#276 = ORIENTED_EDGE ( 'NONE', *, *, #97, .F. ) ;
#277 = FACE_OUTER_BOUND ( 'NONE', #58, .T. ) ;
#278 = ORIENTED_EDGE ( 'NONE', *, *, #36, .F. ) ;
#279 = AXIS2_PLACEMENT_3D ( 'NONE', #448, #451, #143 ) ;
#280 = AXIS2_PLACEMENT_3D ( 'NONE', #440, #95, #367 ) ;
#281 = CYLINDRICAL_SURFACE ( 'NONE', #480, 0.5750000000000000666 ) ;
#282 = ADVANCED_FACE ( 'NONE', ( #9 ), #48, .F. ) ;
#283 = VERTEX_POINT ( 'NONE', #171 ) ;
#284 = AXIS2_PLACEMENT_3D ( 'NONE', #33, #293, #188 ) ;
#285 = CARTESIAN_POINT ( 'NONE',  ( 0.000000000000000000, 0.000000000000000000, 4.000000000000000000 ) ) ;
#286 = ORIENTED_EDGE ( 'NONE', *, *, #256, .T. ) ;
#287 = DIRECTION ( 'NONE',  ( 0.000000000000000000, 0.000000000000000000, -1.000000000000000000 ) ) ;
#288 = EDGE_LOOP ( 'NONE', ( #401, #99, #163, #250 ) ) ;
#289 = EDGE_CURVE ( 'NONE', #421, #283, #128, .T. ) ;
#290 = DIRECTION ( 'NONE',  ( -0.000000000000000000, -0.000000000000000000, 1.000000000000000000 ) ) ;
#291 = ORIENTED_EDGE ( 'NONE', *, *, #377, .F. ) ;
#292 = DIRECTION ( 'NONE',  ( 1.000000000000000000, 0.000000000000000000, 0.000000000000000000 ) ) ;
#293 = DIRECTION ( 'NONE',  ( -0.000000000000000000, -0.000000000000000000, 1.000000000000000000 ) ) ;
#294 = DIRECTION ( 'NONE',  ( -0.7071067811865435759, 0.000000000000000000, -0.7071067811865514585 ) ) ;
#295 = DIRECTION ( 'NONE',  ( 1.000000000000000000, 0.000000000000000000, 0.000000000000000000 ) ) ;
#296 = DIRECTION ( 'NONE',  ( -1.000000000000000000, 0.000000000000000000, 0.000000000000000000 ) ) ;
#297 = ORIENTED_EDGE ( 'NONE', *, *, #135, .F. ) ;
#298 = AXIS2_PLACEMENT_3D ( 'NONE', #351, #306, #41 ) ;
#299 = EDGE_CURVE ( 'NONE', #4, #283, #166, .T. ) ;
#300 = PRODUCT_DEFINITION_CONTEXT ( 'detailed design', #115, 'design' ) ;
#301 = DIRECTION ( 'NONE',  ( -0.000000000000000000, -0.000000000000000000, -1.000000000000000000 ) ) ;
#302 = FACE_OUTER_BOUND ( 'NONE', #167, .T. ) ;
#303 = APPLICATION_CONTEXT ( 'automotive_design' ) ;
#304 = DIRECTION ( 'NONE',  ( -1.000000000000000000, 0.000000000000000000, 0.000000000000000000 ) ) ;
#305 = ADVANCED_FACE ( 'NONE', ( #138 ), #407, .F. ) ;
#306 = DIRECTION ( 'NONE',  ( -0.000000000000000000, -0.000000000000000000, 1.000000000000000000 ) ) ;
#307 = AXIS2_PLACEMENT_3D ( 'NONE', #400, #199, #207 ) ;
#308 = FACE_OUTER_BOUND ( 'NONE', #238, .T. ) ;
#309 = CIRCLE ( 'NONE', #419, 0.6749999999999999334 ) ;
#310 = ORIENTED_EDGE ( 'NONE', *, *, #154, .F. ) ;
#311 = CARTESIAN_POINT ( 'NONE',  ( -0.5449999999999999289, 0.000000000000000000, 2.999999999999999556 ) ) ;
#312 = ORIENTED_EDGE ( 'NONE', *, *, #456, .F. ) ;
#313 = VECTOR ( 'NONE', #32, 39.37007874015748143 ) ;
#314 = VECTOR ( 'NONE', #328, 39.37007874015748854 ) ;
#315 = CARTESIAN_POINT ( 'NONE',  ( -0.5750000000000000666, 0.000000000000000000, 4.000000000000000000 ) ) ;
#316 = DIRECTION ( 'NONE',  ( 1.000000000000000000, 0.000000000000000000, 0.000000000000000000 ) ) ;
#317 = VERTEX_POINT ( 'NONE', #239 ) ;
#318 = ADVANCED_FACE ( 'NONE', ( #475 ), #281, .F. ) ;
#319 = CARTESIAN_POINT ( 'NONE',  ( 0.000000000000000000, 0.000000000000000000, 2.999999999999999556 ) ) ;
#320 = AXIS2_PLACEMENT_3D ( 'NONE', #374, #290, #217 ) ;
#321 = EDGE_LOOP ( 'NONE', ( #129, #478, #363, #185 ) ) ;
#322 = CIRCLE ( 'NONE', #215, 0.5750000000000000666 ) ;
#323 = CARTESIAN_POINT ( 'NONE',  ( -0.6450000000000016831, 7.898971854500448906E-17, 2.999999999999999556 ) ) ;
#324 = ORIENTED_EDGE ( 'NONE', *, *, #397, .T. ) ;
#325 = DIRECTION ( 'NONE',  ( -0.7071067811865517916, 8.659560562354985860E-17, 0.7071067811865430208 ) ) ;
#326 = ORIENTED_EDGE ( 'NONE', *, *, #361, .T. ) ;
#327 = EDGE_CURVE ( 'NONE', #137, #29, #219, .T. ) ;
#328 = DIRECTION ( 'NONE',  ( 0.7071067811865378028, 0.000000000000000000, 0.7071067811865571207 ) ) ;
#329 = ORIENTED_EDGE ( 'NONE', *, *, #241, .F. ) ;
#330 = CIRCLE ( 'NONE', #260, 0.5449999999999999289 ) ;
#331 = CARTESIAN_POINT ( 'NONE',  ( 0.000000000000000000, 0.000000000000000000, 0.000000000000000000 ) ) ;
#332 = DIRECTION ( 'NONE',  ( -0.000000000000000000, 0.000000000000000000, 1.000000000000000000 ) ) ;
#333 = DIRECTION ( 'NONE',  ( 0.000000000000000000, 0.000000000000000000, -1.000000000000000000 ) ) ;
#334 = DIRECTION ( 'NONE',  ( -0.000000000000000000, -0.000000000000000000, -1.000000000000000000 ) ) ;
#335 = DIRECTION ( 'NONE',  ( 1.000000000000000000, 0.000000000000000000, 0.000000000000000000 ) ) ;
#336 = EDGE_CURVE ( 'NONE', #372, #29, #50, .T. ) ;
#337 = ORIENTED_EDGE ( 'NONE', *, *, #154, .T. ) ;
#338 = LINE ( 'NONE', #27, #391 ) ;
#339 = DIRECTION ( 'NONE',  ( -0.000000000000000000, -0.000000000000000000, -1.000000000000000000 ) ) ;
#340 = VECTOR ( 'NONE', #325, 39.37007874015748854 ) ;
#341 = FACE_OUTER_BOUND ( 'NONE', #8, .T. ) ;
#342 = AXIS2_PLACEMENT_3D ( 'NONE', #376, #24, #71 ) ;
#343 = FACE_OUTER_BOUND ( 'NONE', #246, .T. ) ;
#344 = EDGE_CURVE ( 'NONE', #317, #4, #59, .T. ) ;
#345 = DIRECTION ( 'NONE',  ( 0.000000000000000000, 0.000000000000000000, 1.000000000000000000 ) ) ;
#346 = CARTESIAN_POINT ( 'NONE',  ( -0.5750000000000000666, 0.000000000000000000, 0.03000000000000049849 ) ) ;
#347 =( CONVERSION_BASED_UNIT ( 'INCH', #228 ) LENGTH_UNIT ( ) NAMED_UNIT ( #216 ) );
#348 = DIRECTION ( 'NONE',  ( -1.000000000000000000, 0.000000000000000000, 0.000000000000000000 ) ) ;
#349 = AXIS2_PLACEMENT_3D ( 'NONE', #70, #254, #335 ) ;
#350 = CIRCLE ( 'NONE', #205, 0.5750000000000000666 ) ;
#351 = CARTESIAN_POINT ( 'NONE',  ( 0.000000000000000000, 0.000000000000000000, 2.999999999999999556 ) ) ;
#352 = ORIENTED_EDGE ( 'NONE', *, *, #327, .F. ) ;
#353 = EDGE_CURVE ( 'NONE', #436, #431, #487, .T. ) ;
#354 = CARTESIAN_POINT ( 'NONE',  ( 0.5750000000000000666, 7.041719095097281373E-17, 4.000000000000000000 ) ) ;
#355 = EDGE_LOOP ( 'NONE', ( #370, #450, #109, #312 ) ) ;
#356 = CARTESIAN_POINT ( 'NONE',  ( 0.000000000000000000, 0.000000000000000000, 0.000000000000000000 ) ) ;
#357 =( NAMED_UNIT ( * ) SI_UNIT ( $, .STERADIAN. ) SOLID_ANGLE_UNIT ( ) );
#358 = DIRECTION ( 'NONE',  ( -0.000000000000000000, 0.000000000000000000, 1.000000000000000000 ) ) ;
#359 = ORIENTED_EDGE ( 'NONE', *, *, #91, .T. ) ;
#360 = PRESENTATION_LAYER_ASSIGNMENT (  '', '', ( #474 ) ) ;
#361 = EDGE_CURVE ( 'NONE', #406, #436, #183, .T. ) ;
#362 = CARTESIAN_POINT ( 'NONE',  ( 0.000000000000000000, 0.000000000000000000, 0.000000000000000000 ) ) ;
#363 = ORIENTED_EDGE ( 'NONE', *, *, #489, .T. ) ;
#364 = CARTESIAN_POINT ( 'NONE',  ( 0.000000000000000000, 0.000000000000000000, 1.100000000000001865 ) ) ;
#365 = ORIENTED_EDGE ( 'NONE', *, *, #211, .F. ) ;
#366 = AXIS2_PLACEMENT_3D ( 'NONE', #319, #287, #442 ) ;
#367 = DIRECTION ( 'NONE',  ( 1.000000000000000000, 0.000000000000000000, 0.000000000000000000 ) ) ;
#368 = ORIENTED_EDGE ( 'NONE', *, *, #394, .T. ) ;
#369 = CARTESIAN_POINT ( 'NONE',  ( 0.000000000000000000, 0.000000000000000000, 0.000000000000000000 ) ) ;
#370 = ORIENTED_EDGE ( 'NONE', *, *, #47, .F. ) ;
#371 = DIRECTION ( 'NONE',  ( -1.000000000000000000, 0.000000000000000000, 0.000000000000000000 ) ) ;
#372 = VERTEX_POINT ( 'NONE', #25 ) ;
#373 = CIRCLE ( 'NONE', #214, 0.5750000000000000666 ) ;
#374 = CARTESIAN_POINT ( 'NONE',  ( 0.000000000000000000, 0.000000000000000000, 2.999999999999999556 ) ) ;
#375 = CIRCLE ( 'NONE', #62, 0.6749999999999999334 ) ;
#376 = CARTESIAN_POINT ( 'NONE',  ( 0.000000000000000000, 0.000000000000000000, 4.000000000000000000 ) ) ;
#377 = EDGE_CURVE ( 'NONE', #52, #181, #81, .T. ) ;
#378 = AXIS2_PLACEMENT_3D ( 'NONE', #105, #64, #295 ) ;
#379 = CARTESIAN_POINT ( 'NONE',  ( 0.000000000000000000, 0.000000000000000000, 2.929999999999999272 ) ) ;
#380 = ORIENTED_EDGE ( 'NONE', *, *, #144, .F. ) ;
#381 = CARTESIAN_POINT ( 'NONE',  ( 0.5449999999999999289, 6.674325055353073759E-17, 1.100000000000001865 ) ) ;
#382 = ORIENTED_EDGE ( 'NONE', *, *, #344, .T. ) ;
#383 = CARTESIAN_POINT ( 'NONE',  ( 0.000000000000000000, 0.000000000000000000, 0.000000000000000000 ) ) ;
#384 = ADVANCED_FACE ( 'NONE', ( #341 ), #470, .F. ) ;
#385 = CARTESIAN_POINT ( 'NONE',  ( 0.6050000000000002043, 7.409113134841487754E-17, 0.000000000000000000 ) ) ;
#386 =( GEOMETRIC_REPRESENTATION_CONTEXT ( 3 ) GLOBAL_UNCERTAINTY_ASSIGNED_CONTEXT ( ( #221 ) ) GLOBAL_UNIT_ASSIGNED_CONTEXT ( ( #463, #195, #357 ) ) REPRESENTATION_CONTEXT ( 'NONE', 'WORKASPACE' ) );
#387 = SURFACE_STYLE_USAGE ( .BOTH. , #39 ) ;
#388 = APPLICATION_PROTOCOL_DEFINITION ( 'draft international standard', 'automotive_design', 1998, #303 ) ;
#389 = CARTESIAN_POINT ( 'NONE',  ( 0.000000000000000000, 0.000000000000000000, 2.929999999999999272 ) ) ;
#390 = ORIENTED_EDGE ( 'NONE', *, *, #112, .T. ) ;
#391 = VECTOR ( 'NONE', #445, 39.37007874015748854 ) ;
#392 = DIRECTION ( 'NONE',  ( -0.000000000000000000, 0.000000000000000000, 1.000000000000000000 ) ) ;
#393 = AXIS2_PLACEMENT_3D ( 'NONE', #364, #168, #136 ) ;
#394 = EDGE_CURVE ( 'NONE', #464, #10, #338, .T. ) ;
#395 = DIRECTION ( 'NONE',  ( -0.000000000000000000, -0.000000000000000000, -1.000000000000000000 ) ) ;
#396 = DIRECTION ( 'NONE',  ( 1.000000000000000000, 0.000000000000000000, 0.000000000000000000 ) ) ;
#397 = EDGE_CURVE ( 'NONE', #434, #431, #454, .T. ) ;
#398 = EDGE_LOOP ( 'NONE', ( #352, #235, #210, #170 ) ) ;
#399 = AXIS2_PLACEMENT_3D ( 'NONE', #362, #405, #18 ) ;
#400 = CARTESIAN_POINT ( 'NONE',  ( 0.000000000000000000, 0.000000000000000000, 0.000000000000000000 ) ) ;
#401 = ORIENTED_EDGE ( 'NONE', *, *, #36, .T. ) ;
#402 = AXIS2_PLACEMENT_3D ( 'NONE', #466, #37, #348 ) ;
#403 = DIRECTION ( 'NONE',  ( -0.000000000000000000, -0.000000000000000000, -1.000000000000000000 ) ) ;
#404 = ORIENTED_EDGE ( 'NONE', *, *, #241, .T. ) ;
#405 = DIRECTION ( 'NONE',  ( -0.000000000000000000, -0.000000000000000000, -1.000000000000000000 ) ) ;
#406 = VERTEX_POINT ( 'NONE', #101 ) ;
#407 = CONICAL_SURFACE ( 'NONE', #186, 0.5750000000000000666, 0.7853981633974346233 ) ;
#408 = DIRECTION ( 'NONE',  ( -0.000000000000000000, -0.000000000000000000, -1.000000000000000000 ) ) ;
#409 = ORIENTED_EDGE ( 'NONE', *, *, #377, .T. ) ;
#410 = COLOUR_RGB ( '',0.7921568627450980005, 0.8196078431372548767, 0.9333333333333333481 ) ;
#411 = DIRECTION ( 'NONE',  ( -0.7071067811865378028, 8.659560562354814529E-17, 0.7071067811865571207 ) ) ;
#412 = ORIENTED_EDGE ( 'NONE', *, *, #449, .F. ) ;
#413 = PLANE ( 'NONE',  #349 ) ;
#414 = EDGE_LOOP ( 'NONE', ( #202, #200, #42, #22 ) ) ;
#415 = EDGE_CURVE ( 'NONE', #10, #26, #156, .T. ) ;
#416 = PRODUCT_DEFINITION_SHAPE ( 'NONE', 'NONE',  #55 ) ;
#417 = LINE ( 'NONE', #104, #61 ) ;
#418 = DIRECTION ( 'NONE',  ( 1.000000000000000000, 0.000000000000000000, 0.000000000000000000 ) ) ;
#419 = AXIS2_PLACEMENT_3D ( 'NONE', #174, #332, #418 ) ;
#420 = LINE ( 'NONE', #148, #116 ) ;
#421 = VERTEX_POINT ( 'NONE', #176 ) ;
#422 = ADVANCED_FACE ( 'NONE', ( #108 ), #197, .F. ) ;
#423 = DIRECTION ( 'NONE',  ( -0.000000000000000000, -0.000000000000000000, 1.000000000000000000 ) ) ;
#424 = DIRECTION ( 'NONE',  ( 0.000000000000000000, 0.000000000000000000, -1.000000000000000000 ) ) ;
#425 = ORIENTED_EDGE ( 'NONE', *, *, #91, .F. ) ;
#426 = LINE ( 'NONE', #354, #178 ) ;
#427 = CARTESIAN_POINT ( 'NONE',  ( -0.5449999999999999289, 0.000000000000000000, 1.100000000000001865 ) ) ;
#428 = AXIS2_PLACEMENT_3D ( 'NONE', #16, #44, #87 ) ;
#429 = DIRECTION ( 'NONE',  ( 0.000000000000000000, 0.000000000000000000, -1.000000000000000000 ) ) ;
#430 = DIRECTION ( 'NONE',  ( 0.7071067811865517916, 0.000000000000000000, 0.7071067811865430208 ) ) ;
#431 = VERTEX_POINT ( 'NONE', #173 ) ;
#432 = EDGE_CURVE ( 'NONE', #421, #317, #89, .T. ) ;
#433 = DIRECTION ( 'NONE',  ( 0.000000000000000000, 0.000000000000000000, 1.000000000000000000 ) ) ;
#434 = VERTEX_POINT ( 'NONE', #257 ) ;
#435 = FACE_OUTER_BOUND ( 'NONE', #208, .T. ) ;
#436 = VERTEX_POINT ( 'NONE', #106 ) ;
#437 = FACE_OUTER_BOUND ( 'NONE', #398, .T. ) ;
#438 = EDGE_LOOP ( 'NONE', ( #19, #483 ) ) ;
#439 = AXIS2_PLACEMENT_3D ( 'NONE', #455, #339, #149 ) ;
#440 = CARTESIAN_POINT ( 'NONE',  ( 0.000000000000000000, 0.000000000000000000, 3.970000000000000195 ) ) ;
#441 = ORIENTED_EDGE ( 'NONE', *, *, #75, .T. ) ;
#442 = DIRECTION ( 'NONE',  ( -1.000000000000000000, 0.000000000000000000, 0.000000000000000000 ) ) ;
#443 = AXIS2_PLACEMENT_3D ( 'NONE', #383, #140, #501 ) ;
#444 = ORIENTED_EDGE ( 'NONE', *, *, #289, .F. ) ;
#445 = DIRECTION ( 'NONE',  ( 0.7071067811865431318, 8.659560562354879857E-17, -0.7071067811865517916 ) ) ;
#446 = ORIENTED_EDGE ( 'NONE', *, *, #449, .T. ) ;
#447 = CIRCLE ( 'NONE', #7, 0.6749999999999999334 ) ;
#448 = CARTESIAN_POINT ( 'NONE',  ( 0.000000000000000000, 0.000000000000000000, 3.970000000000000195 ) ) ;
#449 = EDGE_CURVE ( 'NONE', #485, #161, #373, .T. ) ;
#450 = ORIENTED_EDGE ( 'NONE', *, *, #327, .T. ) ;
#451 = DIRECTION ( 'NONE',  ( 0.000000000000000000, 0.000000000000000000, 1.000000000000000000 ) ) ;
#452 = CARTESIAN_POINT ( 'NONE',  ( -0.5449999999999999289, 0.000000000000000000, 2.899999999999999023 ) ) ;
#453 = AXIS2_PLACEMENT_3D ( 'NONE', #110, #57, #371 ) ;
#454 = LINE ( 'NONE', #251, #164 ) ;
#455 = CARTESIAN_POINT ( 'NONE',  ( 0.000000000000000000, 0.000000000000000000, 4.000000000000000000 ) ) ;
#456 = EDGE_CURVE ( 'NONE', #79, #372, #417, .T. ) ;
#457 = CARTESIAN_POINT ( 'NONE',  ( 0.000000000000000000, 0.000000000000000000, 3.970000000000000195 ) ) ;
#458 = CYLINDRICAL_SURFACE ( 'NONE', #342, 0.6749999999999999334 ) ;
#459 =( NAMED_UNIT ( * ) SI_UNIT ( $, .STERADIAN. ) SOLID_ANGLE_UNIT ( ) );
#460 = ORIENTED_EDGE ( 'NONE', *, *, #11, .T. ) ;
#461 = AXIS2_PLACEMENT_3D ( 'NONE', #457, #180, #21 ) ;
#462 = CIRCLE ( 'NONE', #428, 0.5449999999999999289 ) ;
#463 =( CONVERSION_BASED_UNIT ( 'INCH', #224 ) LENGTH_UNIT ( ) NAMED_UNIT ( #179 ) );
#464 = VERTEX_POINT ( 'NONE', #381 ) ;
#465 = ADVANCED_FACE ( 'NONE', ( #249, #497 ), #413, .F. ) ;
#466 = CARTESIAN_POINT ( 'NONE',  ( 0.000000000000000000, 0.000000000000000000, 1.100000000000001865 ) ) ;
#467 = DIRECTION ( 'NONE',  ( 1.000000000000000000, 0.000000000000000000, 0.000000000000000000 ) ) ;
#468 = CARTESIAN_POINT ( 'NONE',  ( 0.000000000000000000, 0.000000000000000000, 4.000000000000000000 ) ) ;
#469 = PRODUCT_DEFINITION_FORMATION_WITH_SPECIFIED_SOURCE ( 'ANY', '', #31, .NOT_KNOWN. ) ;
#470 = CONICAL_SURFACE ( 'NONE', #320, 0.6450000000000016831, 0.7853981633974544962 ) ;
#471 = LINE ( 'NONE', #151, #265 ) ;
#472 = CONICAL_SURFACE ( 'NONE', #236, 0.6050000000000002043, 0.7853981633974426169 ) ;
#473 = FACE_BOUND ( 'NONE', #438, .T. ) ;
#474 = STYLED_ITEM ( 'NONE', ( #264 ), #73 ) ;
#475 = FACE_OUTER_BOUND ( 'NONE', #218, .T. ) ;
#476 = ORIENTED_EDGE ( 'NONE', *, *, #11, .F. ) ;
#477 = CARTESIAN_POINT ( 'NONE',  ( 0.5449999999999999289, 6.674325055353073759E-17, 2.899999999999999023 ) ) ;
#478 = ORIENTED_EDGE ( 'NONE', *, *, #415, .T. ) ;
#479 = AXIS2_PLACEMENT_3D ( 'NONE', #231, #429, #225 ) ;
#480 = AXIS2_PLACEMENT_3D ( 'NONE', #237, #403, #201 ) ;
#481 = DIRECTION ( 'NONE',  ( -0.000000000000000000, -0.000000000000000000, -1.000000000000000000 ) ) ;
#482 = EDGE_CURVE ( 'NONE', #181, #52, #330, .T. ) ;
#483 = ORIENTED_EDGE ( 'NONE', *, *, #299, .T. ) ;
#484 = CYLINDRICAL_SURFACE ( 'NONE', #366, 0.5449999999999999289 ) ;
#485 = VERTEX_POINT ( 'NONE', #187 ) ;
#486 = CARTESIAN_POINT ( 'NONE',  ( 0.000000000000000000, 0.000000000000000000, 4.000000000000000000 ) ) ;
#487 = CIRCLE ( 'NONE', #30, 0.6749999999999999334 ) ;
#488 = ORIENTED_EDGE ( 'NONE', *, *, #135, .T. ) ;
#489 = EDGE_CURVE ( 'NONE', #26, #79, #420, .T. ) ;
#490 = CARTESIAN_POINT ( 'NONE',  ( 0.000000000000000000, 0.000000000000000000, 2.899999999999999023 ) ) ;
#491 = EDGE_LOOP ( 'NONE', ( #276, #13, #337, #446 ) ) ;
#492 = VECTOR ( 'NONE', #430, 39.37007874015748854 ) ;
#493 = DIRECTION ( 'NONE',  ( 1.000000000000000000, 0.000000000000000000, 0.000000000000000000 ) ) ;
#494 = ORIENTED_EDGE ( 'NONE', *, *, #482, .F. ) ;
#495 = DIRECTION ( 'NONE',  ( -0.000000000000000000, -0.000000000000000000, 1.000000000000000000 ) ) ;
#496 = EDGE_LOOP ( 'NONE', ( #329, #102 ) ) ;
#497 = FACE_OUTER_BOUND ( 'NONE', #496, .T. ) ;
#498 = CIRCLE ( 'NONE', #280, 0.5750000000000000666 ) ;
#499 = EDGE_LOOP ( 'NONE', ( #206, #368, #278, #248 ) ) ;
#500 = EDGE_CURVE ( 'NONE', #283, #4, #72, .T. ) ;
#501 = DIRECTION ( 'NONE',  ( 1.000000000000000000, 0.000000000000000000, 0.000000000000000000 ) ) ;
#502 = FACE_OUTER_BOUND ( 'NONE', #491, .T. ) ;
#503 = SHAPE_DEFINITION_REPRESENTATION ( #416, #262 ) ;
#504 = LINE ( 'NONE', #311, #77 ) ;
#505 = ADVANCED_FACE ( 'NONE', ( #74 ), #271, .F. ) ;
ENDSEC;
END-ISO-10303-21;
