  0
SECTION
  2
HEADER
  9
$ACADVER
  1
AC1032
  9
$ACADMAINTVER
 90
      329
  9
$DWGCODEPAGE
  3
ANSI_1252
  9
$REQUIREDVERSIONS
160
                 0
  9
$INSBASE
 10
0.0
 20
0.0
 30
0.0
  9
$EXTMIN
 10
1.000000000000000E+20
 20
1.000000000000000E+20
 30
1.000000000000000E+20
  9
$EXTMAX
 10
-1.000000000000000E+20
 20
-1.000000000000000E+20
 30
-1.000000000000000E+20
  9
$LIMMIN
 10
0.0
 20
0.0
  9
$LIMMAX
 10
12.0
 20
9.0
  9
$ORTHOMODE
 70
     0
  9
$REGENMODE
 70
     1
  9
$FILLMODE
 70
     1
  9
$QTEXTMODE
 70
     0
  9
$MIRRTEXT
 70
     0
  9
$LTSCALE
 40
1.0
  9
$ATTMODE
 70
     1
  9
$TEXTSIZE
 40
0.2
  9
$TRACEWID
 40
0.05
  9
$TEXTSTYLE
  7
Standard
  9
$CLAYER
  8
0
  9
$CELTYPE
  6
ByLayer
  9
$CECOLOR
 62
   256
  9
$CELTSCALE
 40
1.0
  9
$DISPSILH
 70
     0
  9
$DIMSCALE
 40
1.0
  9
$DIMASZ
 40
0.18
  9
$DIMEXO
 40
0.0625
  9
$DIMDLI
 40
0.38
  9
$DIMRND
 40
0.0
  9
$DIMDLE
 40
0.0
  9
$DIMEXE
 40
0.18
  9
$DIMTP
 40
0.0
  9
$DIMTM
 40
0.0
  9
$DIMTXT
 40
0.18
  9
$DIMCEN
 40
0.09
  9
$DIMTSZ
 40
0.0
  9
$DIMTOL
 70
     0
  9
$DIMLIM
 70
     0
  9
$DIMTIH
 70
     1
  9
$DIMTOH
 70
     1
  9
$DIMSE1
 70
     0
  9
$DIMSE2
 70
     0
  9
$DIMTAD
 70
     0
  9
$DIMZIN
 70
     0
  9
$DIMBLK
  1

  9
$DIMASO
 70
     1
  9
$DIMSHO
 70
     1
  9
$DIMPOST
  1

  9
$DIMAPOST
  1

  9
$DIMALT
 70
     0
  9
$DIMALTD
 70
     2
  9
$DIMALTF
 40
25.4
  9
$DIMLFAC
 40
1.0
  9
$DIMTOFL
 70
     0
  9
$DIMTVP
 40
0.0
  9
$DIMTIX
 70
     0
  9
$DIMSOXD
 70
     0
  9
$DIMSAH
 70
     0
  9
$DIMBLK1
  1

  9
$DIMBLK2
  1

  9
$DIMSTYLE
  2
Standard
  9
$DIMCLRD
 70
     0
  9
$DIMCLRE
 70
     0
  9
$DIMCLRT
 70
     0
  9
$DIMTFAC
 40
1.0
  9
$DIMGAP
 40
0.09
  9
$DIMJUST
 70
     0
  9
$DIMSD1
 70
     0
  9
$DIMSD2
 70
     0
  9
$DIMTOLJ
 70
     1
  9
$DIMTZIN
 70
     0
  9
$DIMALTZ
 70
     0
  9
$DIMALTTZ
 70
     0
  9
$DIMUPT
 70
     0
  9
$DIMDEC
 70
     4
  9
$DIMTDEC
 70
     4
  9
$DIMALTU
 70
     2
  9
$DIMALTTD
 70
     2
  9
$DIMTXSTY
  7
Standard
  9
$DIMAUNIT
 70
     0
  9
$DIMADEC
 70
     0
  9
$DIMALTRND
 40
0.0
  9
$DIMAZIN
 70
     0
  9
$DIMDSEP
 70
    46
  9
$DIMATFIT
 70
     3
  9
$DIMFRAC
 70
     0
  9
$DIMLDRBLK
  1

  9
$DIMLUNIT
 70
     2
  9
$DIMLWD
 70
    -2
  9
$DIMLWE
 70
    -2
  9
$DIMTMOVE
 70
     0
  9
$DIMFXL
 40
1.0
  9
$DIMFXLON
 70
     0
  9
$DIMJOGANG
 40
0.7853981633974483
  9
$DIMTFILL
 70
     0
  9
$DIMTFILLCLR
 70
     0
  9
$DIMARCSYM
 70
     0
  9
$DIMLTYPE
  6

  9
$DIMLTEX1
  6

  9
$DIMLTEX2
  6

  9
$DIMTXTDIRECTION
 70
     0
  9
$LUNITS
 70
     2
  9
$LUPREC
 70
     4
  9
$SKETCHINC
 40
0.1
  9
$FILLETRAD
 40
0.0
  9
$AUNITS
 70
     0
  9
$AUPREC
 70
     0
  9
$MENU
  1
.
  9
$ELEVATION
 40
0.0
  9
$PELEVATION
 40
0.0
  9
$THICKNESS
 40
0.0
  9
$LIMCHECK
 70
     0
  9
$CHAMFERA
 40
0.0
  9
$CHAMFERB
 40
0.0
  9
$CHAMFERC
 40
0.0
  9
$CHAMFERD
 40
0.0
  9
$SKPOLY
 70
     0
  9
$TDCREATE
 40
2460999.915717593
  9
$TDUCREATE
 40
2461000.207384260
  9
$TDUPDATE
 40
2460999.915717593
  9
$TDUUPDATE
 40
2461000.207384260
  9
$TDINDWG
 40
0.0000000000
  9
$TDUSRTIMER
 40
0.0000000000
  9
$USRTIMER
 70
     1
  9
$ANGBASE
 50
0.0
  9
$ANGDIR
 70
     0
  9
$PDMODE
 70
     0
  9
$PDSIZE
 40
0.0
  9
$PLINEWID
 40
0.0
  9
$SPLFRAME
 70
     0
  9
$SPLINETYPE
 70
     6
  9
$SPLINESEGS
 70
     8
  9
$HANDSEED
  5
AC
  9
$SURFTAB1
 70
     6
  9
$SURFTAB2
 70
     6
  9
$SURFTYPE
 70
     6
  9
$SURFU
 70
     6
  9
$SURFV
 70
     6
  9
$UCSBASE
  2

  9
$UCSNAME
  2

  9
$UCSORG
 10
0.0
 20
0.0
 30
0.0
  9
$UCSXDIR
 10
1.0
 20
0.0
 30
0.0
  9
$UCSYDIR
 10
0.0
 20
1.0
 30
0.0
  9
$UCSORTHOREF
  2

  9
$UCSORTHOVIEW
 70
     0
  9
$UCSORGTOP
 10
0.0
 20
0.0
 30
0.0
  9
$UCSORGBOTTOM
 10
0.0
 20
0.0
 30
0.0
  9
$UCSORGLEFT
 10
0.0
 20
0.0
 30
0.0
  9
$UCSORGRIGHT
 10
0.0
 20
0.0
 30
0.0
  9
$UCSORGFRONT
 10
0.0
 20
0.0
 30
0.0
  9
$UCSORGBACK
 10
0.0
 20
0.0
 30
0.0
  9
$PUCSBASE
  2

  9
$PUCSNAME
  2

  9
$PUCSORG
 10
0.0
 20
0.0
 30
0.0
  9
$PUCSXDIR
 10
1.0
 20
0.0
 30
0.0
  9
$PUCSYDIR
 10
0.0
 20
1.0
 30
0.0
  9
$PUCSORTHOREF
  2

  9
$PUCSORTHOVIEW
 70
     0
  9
$PUCSORGTOP
 10
0.0
 20
0.0
 30
0.0
  9
$PUCSORGBOTTOM
 10
0.0
 20
0.0
 30
0.0
  9
$PUCSORGLEFT
 10
0.0
 20
0.0
 30
0.0
  9
$PUCSORGRIGHT
 10
0.0
 20
0.0
 30
0.0
  9
$PUCSORGFRONT
 10
0.0
 20
0.0
 30
0.0
  9
$PUCSORGBACK
 10
0.0
 20
0.0
 30
0.0
  9
$USERI1
 70
     0
  9
$USERI2
 70
     0
  9
$USERI3
 70
     0
  9
$USERI4
 70
     0
  9
$USERI5
 70
     0
  9
$USERR1
 40
0.0
  9
$USERR2
 40
0.0
  9
$USERR3
 40
0.0
  9
$USERR4
 40
0.0
  9
$USERR5
 40
0.0
  9
$WORLDVIEW
 70
     1
  9
$SHADEDGE
 70
     3
  9
$SHADEDIF
 70
    70
  9
$TILEMODE
 70
     1
  9
$MAXACTVP
 70
    64
  9
$PINSBASE
 10
0.0
 20
0.0
 30
0.0
  9
$PLIMCHECK
 70
     0
  9
$PEXTMIN
 10
1.000000000000000E+20
 20
1.000000000000000E+20
 30
1.000000000000000E+20
  9
$PEXTMAX
 10
-1.000000000000000E+20
 20
-1.000000000000000E+20
 30
-1.000000000000000E+20
  9
$PLIMMIN
 10
0.0
 20
0.0
  9
$PLIMMAX
 10
12.0
 20
9.0
  9
$UNITMODE
 70
     0
  9
$VISRETAIN
 70
     1
  9
$PLINEGEN
 70
     0
  9
$PSLTSCALE
 70
     1
  9
$TREEDEPTH
 70
  3020
  9
$CMLSTYLE
  2
Standard
  9
$CMLJUST
 70
     0
  9
$CMLSCALE
 40
1.0
  9
$PROXYGRAPHICS
 70
     1
  9
$MEASUREMENT
 70
     0
  9
$CELWEIGHT
370
    -1
  9
$ENDCAPS
280
     0
  9
$JOINSTYLE
280
     0
  9
$LWDISPLAY
290
     1
  9
$INSUNITS
 70
     4
  9
$HYPERLINKBASE
  1

  9
$STYLESHEET
  1

  9
$XEDIT
290
     1
  9
$CEPSNTYPE
380
     0
  9
$PSTYLEMODE
290
     1
  9
$FINGERPRINTGUID
  2
{4B95FC52-C33A-4F44-BB61-F54959BCC1B0}
  9
$VERSIONGUID
  2
{8BB5CEE2-D592-5049-9C76-465145CCF540}
  9
$EXTNAMES
290
     1
  9
$PSVPSCALE
 40
0.0
  9
$OLESTARTUP
290
     0
  9
$SORTENTS
280
   127
  9
$INDEXCTL
280
     0
  9
$HIDETEXT
280
     1
  9
$XCLIPFRAME
280
     2
  9
$HALOGAP
280
     0
  9
$OBSCOLOR
 70
   257
  9
$OBSLTYPE
280
     0
  9
$INTERSECTIONDISPLAY
280
     0
  9
$INTERSECTIONCOLOR
 70
   257
  9
$DIMASSOC
280
     2
  9
$PROJECTNAME
  1

  9
$CAMERADISPLAY
290
     0
  9
$LENSLENGTH
 40
50.0
  9
$CAMERAHEIGHT
 40
0.0
  9
$STEPSPERSEC
 40
2.0
  9
$STEPSIZE
 40
6.0
  9
$3DDWFPREC
 40
2.0
  9
$PSOLWIDTH
 40
0.25
  9
$PSOLHEIGHT
 40
4.0
  9
$LOFTANG1
 40
1.570796326794896
  9
$LOFTANG2
 40
1.570796326794896
  9
$LOFTMAG1
 40
0.0
  9
$LOFTMAG2
 40
0.0
  9
$LOFTPARAM
 70
     7
  9
$LOFTNORMALS
280
     1
  9
$LATITUDE
 40
37.795
  9
$LONGITUDE
 40
-122.394
  9
$NORTHDIRECTION
 40
0.0
  9
$TIMEZONE
 70
 -8000
  9
$LIGHTGLYPHDISPLAY
280
     1
  9
$TILEMODELIGHTSYNCH
280
     1
  9
$CMATERIAL
347
11
  9
$SOLIDHIST
280
     0
  9
$SHOWHIST
280
     1
  9
$DWFFRAME
280
     2
  9
$DGNFRAME
280
     0
  9
$REALWORLDSCALE
290
     1
  9
$INTERFERECOLOR
 62
     1
  9
$INTERFEREOBJVS
345
33
  9
$INTERFEREVPVS
346
30
  9
$CSHADOW
280
     0
  9
$SHADOWPLANELOCATION
 40
0.0
  0
ENDSEC
  0
SECTION
  2
CLASSES
  0
CLASS
  1
ACDBDICTIONARYWDFLT
  2
AcDbDictionaryWithDefault
  3
ObjectDBX Classes
 90
        0
 91
        1
280
     0
281
     0
  0
CLASS
  1
MATERIAL
  2
AcDbMaterial
  3
ObjectDBX Classes
 90
     1153
 91
        3
280
     0
281
     0
  0
CLASS
  1
VISUALSTYLE
  2
AcDbVisualStyle
  3
ObjectDBX Classes
 90
     4095
 91
       24
280
     0
281
     0
  0
CLASS
  1
SCALE
  2
AcDbScale
  3
ObjectDBX Classes
 90
     1153
 91
       17
280
     0
281
     0
  0
CLASS
  1
TABLESTYLE
  2
AcDbTableStyle
  3
ObjectDBX Classes
 90
     4095
 91
        1
280
     0
281
     0
  0
CLASS
  1
MLEADERSTYLE
  2
AcDbMLeaderStyle
  3
ACDB_MLEADERSTYLE_CLASS
 90
     4095
 91
        1
280
     0
281
     0
  0
CLASS
  1
ACDBSECTIONVIEWSTYLE
  2
AcDbSectionViewStyle
  3
ObjectDBX Classes
 90
     1025
 91
        1
280
     0
281
     0
  0
CLASS
  1
ACDBDETAILVIEWSTYLE
  2
AcDbDetailViewStyle
  3
ObjectDBX Classes
 90
     1025
 91
        1
280
     0
281
     0
  0
CLASS
  1
DICTIONARYVAR
  2
AcDbDictionaryVar
  3
ObjectDBX Classes
 90
        0
 91
        5
280
     0
281
     0
  0
CLASS
  1
CELLSTYLEMAP
  2
AcDbCellStyleMap
  3
ObjectDBX Classes
 90
     1152
 91
        1
280
     0
281
     0
  0
ENDSEC
  0
SECTION
  2
TABLES
  0
TABLE
  2
VPORT
  5
8
330
0
100
AcDbSymbolTable
 70
     1
  0
VPORT
  5
57
330
8
100
AcDbSymbolTableRecord
100
AcDbViewportTableRecord
  2
*Active
 70
     0
 10
0.0
 20
0.0
 11
1.0
 21
1.0
 12
0.0
 22
0.0
 13
0.0
 23
0.0
 14
1.0
 24
1.0
 15
0.0
 25
0.0
 16
0.0
 26
0.0
 36
1.0
 17
39.99999998999989
 27
-39.99999998999989
 37
0.0
 40
81.59999997959978
 41
1.0
 42
50.0
 43
0.0
 44
0.0
 50
0.0
 51
0.0
 71
     0
 72
   100
 73
     1
 74
     1
 75
     0
 76
     0
 77
     0
 78
     0
281
     0
 65
     1
110
0.0
120
0.0
130
0.0
111
1.0
121
0.0
131
0.0
112
0.0
122
1.0
132
0.0
 79
     0
146
0.0
 60
     3
 61
     5
292
     1
282
     1
141
0.0
142
0.0
 63
   250
421
  3355443
  0
ENDTAB
  0
TABLE
  2
LTYPE
  5
5
330
0
100
AcDbSymbolTable
 70
     1
  0
LTYPE
  5
5B
330
5
100
AcDbSymbolTableRecord
100
AcDbLinetypeTableRecord
  2
ByBlock
 70
     0
  3

 72
    65
 73
     0
 40
0.0
  0
LTYPE
  5
5C
330
5
100
AcDbSymbolTableRecord
100
AcDbLinetypeTableRecord
  2
ByLayer
 70
     0
  3

 72
    65
 73
     0
 40
0.0
  0
LTYPE
  5
5D
330
5
100
AcDbSymbolTableRecord
100
AcDbLinetypeTableRecord
  2
Continuous
 70
     0
  3
Solid line
 72
    65
 73
     0
 40
0.0
  0
ENDTAB
  0
TABLE
  2
LAYER
  5
2
330
0
100
AcDbSymbolTable
 70
     2
  0
LAYER
  5
54
330
2
100
AcDbSymbolTableRecord
100
AcDbLayerTableRecord
  2
0
 70
     0
 62
     7
  6
Continuous
370
    -3
390
F
347
21
348
0
  0
LAYER
  5
78
330
2
100
AcDbSymbolTableRecord
100
AcDbLayerTableRecord
  2
Layer 1
 70
     0
 62
     7
  6
Continuous
370
     0
390
F
347
21
348
0
  0
ENDTAB
  0
TABLE
  2
STYLE
  5
3
330
0
100
AcDbSymbolTable
 70
     2
  0
STYLE
  5
55
330
3
100
AcDbSymbolTableRecord
100
AcDbTextStyleTableRecord
  2
Standard
 70
     0
 40
0.0
 41
1.0
 50
0.0
 71
     0
 42
0.2
  3
txt
  4

  0
STYLE
  5
5A
330
3
100
AcDbSymbolTableRecord
100
AcDbTextStyleTableRecord
  2
Annotative
 70
     0
 40
0.0
 41
1.0
 50
0.0
 71
     0
 42
0.2
  3
txt
  4

1001
AcadAnnotative
1000
AnnotativeData
1002
{
1070
     1
1070
     1
1002
}
  0
ENDTAB
  0
TABLE
  2
VIEW
  5
6
330
0
100
AcDbSymbolTable
 70
     0
  0
ENDTAB
  0
TABLE
  2
UCS
  5
7
330
0
100
AcDbSymbolTable
 70
     0
  0
ENDTAB
  0
TABLE
  2
APPID
  5
9
330
0
100
AcDbSymbolTable
 70
     2
  0
APPID
  5
56
330
9
100
AcDbSymbolTableRecord
100
AcDbRegAppTableRecord
  2
ACAD
 70
     0
  0
APPID
  5
5E
330
9
100
AcDbSymbolTableRecord
100
AcDbRegAppTableRecord
  2
AcadAnnotative
 70
     0
  0
ENDTAB
  0
TABLE
  2
DIMSTYLE
  5
A
330
0
100
AcDbSymbolTable
 70
     2
100
AcDbDimStyleTable
 71
     0
  0
DIMSTYLE
105
58
330
A
100
AcDbSymbolTableRecord
100
AcDbDimStyleTableRecord
  2
Standard
 70
     0
340
55
  0
DIMSTYLE
105
59
330
A
100
AcDbSymbolTableRecord
100
AcDbDimStyleTableRecord
  2
Annotative
 70
     0
340
55
1001
AcadAnnotative
1000
AnnotativeData
1002
{
1070
     1
1070
     1
1002
}
  0
ENDTAB
  0
TABLE
  2
BLOCK_RECORD
  5
1
330
0
100
AcDbSymbolTable
 70
     2
  0
BLOCK_RECORD
  5
70
330
1
100
AcDbSymbolTableRecord
100
AcDbBlockTableRecord
  2
*Model_Space
340
73
 70
     0
280
     1
281
     0
  0
BLOCK_RECORD
  5
6C
330
1
100
AcDbSymbolTableRecord
100
AcDbBlockTableRecord
  2
*Paper_Space
340
6F
 70
     0
280
     1
281
     0
  0
BLOCK_RECORD
  5
74
330
1
100
AcDbSymbolTableRecord
100
AcDbBlockTableRecord
  2
*Paper_Space0
340
77
 70
     0
280
     1
281
     0
  0
BLOCK_RECORD
  5
7A
330
1
100
AcDbSymbolTableRecord
100
AcDbBlockTableRecord
  2
Block_0
340
0
102
{BLKREFS
331
7B
102
}
 70
     0
280
     1
281
     0
  0
ENDTAB
  0
ENDSEC
  0
SECTION
  2
BLOCKS
  0
BLOCK
  5
71
330
70
100
AcDbEntity
  8
0
100
AcDbBlockBegin
  2
*Model_Space
 70
     0
 10
0.0
 20
0.0
 30
0.0
  3
*Model_Space
  1

  0
ENDBLK
  5
72
330
70
100
AcDbEntity
  8
0
100
AcDbBlockEnd
  0
BLOCK
  5
6D
330
6C
100
AcDbEntity
 67
     1
  8
0
100
AcDbBlockBegin
  2
*Paper_Space
 70
     0
 10
0.0
 20
0.0
 30
0.0
  3
*Paper_Space
  1

  0
ENDBLK
  5
6E
330
6C
100
AcDbEntity
 67
     1
  8
0
100
AcDbBlockEnd
  0
BLOCK
  5
75
330
74
100
AcDbEntity
 67
     1
  8
0
100
AcDbBlockBegin
  2
*Paper_Space0
 70
     0
 10
0.0
 20
0.0
 30
0.0
  3
*Paper_Space0
  1

  0
ENDBLK
  5
76
330
74
100
AcDbEntity
 67
     1
  8
0
100
AcDbBlockEnd
  0
BLOCK
  5
7C
330
7A
100
AcDbEntity
  8
0
100
AcDbBlockBegin
  2
Block_0
 70
     0
 10
0.0
 20
0.0
 30
0.0
  3
Block_0
  1

  0
CIRCLE
  5
7E
330
7A
100
AcDbEntity
  8
Layer 1
100
AcDbCircle
 10
40.9999999149809
 20
-41.00000003468584
 30
0.0
 40
25.23612101518853
  0
SPLINE
  5
7F
330
7A
100
AcDbEntity
  8
Layer 1
100
AcDbSpline
210
0.0
220
0.0
230
1.0
 70
     9
 71
     3
 72
    47
 73
    43
 74
     0
 42
0.0000000001
 43
0.0000000001
 40
0.0
 40
0.0
 40
0.0
 40
0.0
 40
1.0
 40
1.0
 40
1.0
 40
2.0
 40
2.0
 40
2.0
 40
3.0
 40
3.0
 40
3.0
 40
4.0
 40
4.0
 40
4.0
 40
5.0
 40
5.0
 40
5.0
 40
6.0
 40
6.0
 40
6.0
 40
7.0
 40
7.0
 40
7.0
 40
8.0
 40
8.0
 40
8.0
 40
9.0
 40
9.0
 40
9.0
 40
10.0
 40
10.0
 40
10.0
 40
11.0
 40
11.0
 40
11.0
 40
12.0
 40
12.0
 40
12.0
 40
13.0
 40
13.0
 40
13.0
 40
14.0
 40
14.0
 40
14.0
 40
14.0
 10
58.89399872561337
 20
-40.90874323590403
 30
0.0
 10
59.43896875940901
 20
-41.1277936870394
 30
0.0
 10
60.04543871548156
 20
-40.96133540026082
 30
0.0
 10
60.47259749915411
 20
-40.54196889187768
 30
0.0
 10
61.36626290959184
 20
-41.68058981351881
 30
0.0
 10
63.05629572122853
 20
-42.8679741187059
 30
0.0
 10
65.16414908375144
 20
-43.71522479554445
 30
0.0
 10
67.2723967534253
 20
-44.56263396395715
 30
0.0
 10
69.30890595496612
 20
-44.87296177816159
 30
0.0
 10
70.73353821415809
 20
-44.66591284321427
 30
0.0
 10
70.75791823615317
 20
-45.26699335793753
 30
0.0
 10
71.08498063480083
 20
-45.8089027334914
 30
0.0
 10
71.63008210431025
 20
-46.02800601515041
 30
0.0
 10
72.39464366736418
 20
-46.33532117915167
 30
0.0
 10
73.287005688382
 20
-45.89374352076464
 30
0.0
 10
73.6232375190638
 20
-45.04171022923461
 30
0.0
 10
73.6232375190638
 20
-45.04171022923461
 30
0.0
 10
74.35379177520335
 20
-43.19043830700213
 30
0.0
 10
74.35379177520335
 20
-43.19043830700213
 30
0.0
 10
74.69002360588581
 20
-42.33840501547083
 30
0.0
 10
74.3427966077736
 20
-41.39857512848037
 30
0.0
 10
73.57823504471965
 20
-41.09125996448233
 30
0.0
 10
73.03313357520574
 20
-40.8721566828214
 30
0.0
 10
72.42645786708897
 20
-41.03875046147158
 30
0.0
 10
71.99929987321512
 20
-41.4583354811237
 30
0.0
 10
71.10577336606802
 20
-40.31952795402757
 30
0.0
 10
69.41549793152113
 20
-39.13187642038169
 30
0.0
 10
67.30725026185048
 20
-38.28446725196773
 30
0.0
 10
65.19939689932567
 20
-37.43721657512884
 30
0.0
 10
63.16324592386721
 20
-37.12686304343808
 30
0.0
 10
61.73866694267871
 20
-37.33366671213142
 30
0.0
 10
61.71413749823306
 20
-36.73274433093219
 30
0.0
 10
61.38712169981713
 20
-36.19104763636876
 30
0.0
 10
60.84215166602213
 20
-35.97199718523532
 30
0.0
 10
60.07759010296563
 20
-35.66468202123792
 30
0.0
 10
59.18522808194911
 20
-36.1062596796211
 30
0.0
 10
58.84899625126728
 20
-36.9582929711524
 30
0.0
 10
58.84899625126728
 20
-36.9582929711524
 30
0.0
 10
58.11844199512774
 20
-38.80956489338552
 30
0.0
 10
58.11844199512774
 20
-38.80956489338552
 30
0.0
 10
57.78221016444528
 20
-39.6615981849165
 30
0.0
 10
58.1294371625588
 20
-40.60142807190984
 30
0.0
 10
58.89399872561337
 20
-40.90874323590403
 30
0.0
  0
HATCH
  5
80
330
7A
100
AcDbEntity
  8
Layer 1
 62
    18
420
        0
440
 33554687
100
AcDbHatch
 10
0.0
 20
0.0
 30
0.0
210
0.0
220
0.0
230
1.0
  2
SOLID
 70
     1
 71
     1
 91
        1
 92
        1
 93
        1
 72
     4
 94
        3
 73
     0
 74
     0
 95
       47
 96
       43
 40
0.0
 40
0.0
 40
0.0
 40
0.0
 40
1.0
 40
1.0
 40
1.0
 40
2.0
 40
2.0
 40
2.0
 40
3.0
 40
3.0
 40
3.0
 40
4.0
 40
4.0
 40
4.0
 40
5.0
 40
5.0
 40
5.0
 40
6.0
 40
6.0
 40
6.0
 40
7.0
 40
7.0
 40
7.0
 40
8.0
 40
8.0
 40
8.0
 40
9.0
 40
9.0
 40
9.0
 40
10.0
 40
10.0
 40
10.0
 40
11.0
 40
11.0
 40
11.0
 40
12.0
 40
12.0
 40
12.0
 40
13.0
 40
13.0
 40
13.0
 40
14.0
 40
14.0
 40
14.0
 40
14.0
 10
58.89399872561337
 20
-40.90874323590403
 10
59.43896875940901
 20
-41.1277936870394
 10
60.04543871548156
 20
-40.96133540026082
 10
60.47259749915411
 20
-40.54196889187768
 10
61.36626290959184
 20
-41.68058981351881
 10
63.05629572122853
 20
-42.8679741187059
 10
65.16414908375144
 20
-43.71522479554445
 10
67.2723967534253
 20
-44.56263396395715
 10
69.30890595496612
 20
-44.87296177816159
 10
70.73353821415809
 20
-44.66591284321427
 10
70.75791823615317
 20
-45.26699335793753
 10
71.08498063480083
 20
-45.8089027334914
 10
71.63008210431025
 20
-46.02800601515041
 10
72.39464366736418
 20
-46.33532117915167
 10
73.287005688382
 20
-45.89374352076464
 10
73.6232375190638
 20
-45.04171022923461
 10
73.6232375190638
 20
-45.04171022923461
 10
74.35379177520335
 20
-43.19043830700213
 10
74.35379177520335
 20
-43.19043830700213
 10
74.69002360588581
 20
-42.33840501547083
 10
74.3427966077736
 20
-41.39857512848037
 10
73.57823504471965
 20
-41.09125996448233
 10
73.03313357520574
 20
-40.8721566828214
 10
72.42645786708897
 20
-41.03875046147158
 10
71.99929987321512
 20
-41.4583354811237
 10
71.10577336606802
 20
-40.31952795402757
 10
69.41549793152113
 20
-39.13187642038169
 10
67.30725026185048
 20
-38.28446725196773
 10
65.19939689932567
 20
-37.43721657512884
 10
63.16324592386721
 20
-37.12686304343808
 10
61.73866694267871
 20
-37.33366671213142
 10
61.71413749823306
 20
-36.73274433093219
 10
61.38712169981713
 20
-36.19104763636876
 10
60.84215166602213
 20
-35.97199718523532
 10
60.07759010296563
 20
-35.66468202123792
 10
59.18522808194911
 20
-36.1062596796211
 10
58.84899625126728
 20
-36.9582929711524
 10
58.84899625126728
 20
-36.9582929711524
 10
58.11844199512774
 20
-38.80956489338552
 10
58.11844199512774
 20
-38.80956489338552
 10
57.78221016444528
 20
-39.6615981849165
 10
58.1294371625588
 20
-40.60142807190984
 10
58.89399872561337
 20
-40.90874323590403
 97
        0
 97
        1
330
7F
 75
     2
 76
     1
 98
        1
 10
0.0
 20
0.0
450
        0
451
        0
460
0.0
461
0.0
452
        0
462
0.0
453
        0
470

  0
SPLINE
  5
81
330
7A
100
AcDbEntity
  8
Layer 1
100
AcDbSpline
210
0.0
220
0.0
230
1.0
 70
     9
 71
     3
 72
    47
 73
    43
 74
     0
 42
0.0000000001
 43
0.0000000001
 40
0.0
 40
0.0
 40
0.0
 40
0.0
 40
1.0
 40
1.0
 40
1.0
 40
2.0
 40
2.0
 40
2.0
 40
3.0
 40
3.0
 40
3.0
 40
4.0
 40
4.0
 40
4.0
 40
5.0
 40
5.0
 40
5.0
 40
6.0
 40
6.0
 40
6.0
 40
7.0
 40
7.0
 40
7.0
 40
8.0
 40
8.0
 40
8.0
 40
9.0
 40
9.0
 40
9.0
 40
10.0
 40
10.0
 40
10.0
 40
11.0
 40
11.0
 40
11.0
 40
12.0
 40
12.0
 40
12.0
 40
13.0
 40
13.0
 40
13.0
 40
14.0
 40
14.0
 40
14.0
 40
14.0
 10
57.78924058243335
 20
-34.78948651892866
 30
0.0
 10
58.37626932824993
 20
-34.8087916856771
 30
0.0
 10
58.88914319363206
 20
-34.44482112771409
 30
0.0
 10
59.14697666191621
 20
-33.90458525565637
 30
0.0
 10
60.37636644984945
 20
-34.66858539854366
 30
0.0
 10
62.37071919464034
 20
-35.20584652867814
 30
0.0
 10
64.64124865320592
 20
-35.28051569968494
 30
0.0
 10
66.91220285004209
 20
-35.35519883873505
 30
0.0
 10
68.93193435859138
 20
-34.94978828928749
 30
0.0
 10
70.19966835466132
 20
-34.26766157774045
 30
0.0
 10
70.42829641469758
 20
-34.82409790007724
 30
0.0
 10
70.92107605342071
 20
-35.22134317894106
 30
0.0
 10
71.50824637866191
 20
-35.24065300170501
 30
0.0
 10
72.33181389178593
 20
-35.26773703853539
 30
0.0
 10
73.01915452542584
 20
-34.54741512557846
 30
0.0
 10
73.04347162744467
 20
-33.63176166908563
 30
0.0
 10
73.04347162744467
 20
-33.63176166908563
 30
0.0
 10
73.09630708427518
 20
-31.64225779482078
 30
0.0
 10
73.09630708427518
 20
-31.64225779482078
 30
0.0
 10
73.12062418629209
 20
-30.72660433832442
 30
0.0
 10
72.47270904052967
 20
-29.96237088669641
 30
0.0
 10
71.64914152740628
 20
-29.93528684986732
 30
0.0
 10
71.06197120216382
 20
-29.91597702710337
 30
0.0
 10
70.54895038262197
 20
-30.28014531322816
 30
0.0
 10
70.29119244213188
 20
-30.82058623003594
 30
0.0
 10
69.06186930302512
 20
-30.05636321127926
 30
0.0
 10
67.06719712846787
 20
-29.51893402891688
 30
0.0
 10
64.79624293163104
 20
-29.4442508898642
 30
0.0
 10
62.52571347306612
 20
-29.36958171885612
 30
0.0
 10
60.50630975498125
 20
-29.77484550071379
 30
0.0
 10
59.23854187677401
 20
-30.45672352353582
 30
0.0
 10
59.00982753946898
 20
-29.90048692479168
 30
0.0
 10
58.51716447699367
 20
-29.50342553383684
 30
0.0
 10
57.93013573117709
 20
-29.48412036708936
 30
0.0
 10
57.10656821805243
 20
-29.45703633026284
 30
0.0
 10
56.41922758441252
 20
-30.17735824321719
 30
0.0
 10
56.3949104823969
 20
-31.09301169971163
 30
0.0
 10
56.3949104823969
 20
-31.09301169971163
 30
0.0
 10
56.34207502556446
 20
-33.0825155739768
 30
0.0
 10
56.34207502556446
 20
-33.0825155739768
 30
0.0
 10
56.31775792354819
 20
-33.99816903046995
 30
0.0
 10
56.96567306931318
 20
-34.76240248210245
 30
0.0
 10
57.78924058243335
 20
-34.78948651892866
 30
0.0
  0
HATCH
  5
82
330
7A
100
AcDbEntity
  8
Layer 1
 62
    18
420
        0
440
 33554687
100
AcDbHatch
 10
0.0
 20
0.0
 30
0.0
210
0.0
220
0.0
230
1.0
  2
SOLID
 70
     1
 71
     1
 91
        1
 92
        1
 93
        1
 72
     4
 94
        3
 73
     0
 74
     0
 95
       47
 96
       43
 40
0.0
 40
0.0
 40
0.0
 40
0.0
 40
1.0
 40
1.0
 40
1.0
 40
2.0
 40
2.0
 40
2.0
 40
3.0
 40
3.0
 40
3.0
 40
4.0
 40
4.0
 40
4.0
 40
5.0
 40
5.0
 40
5.0
 40
6.0
 40
6.0
 40
6.0
 40
7.0
 40
7.0
 40
7.0
 40
8.0
 40
8.0
 40
8.0
 40
9.0
 40
9.0
 40
9.0
 40
10.0
 40
10.0
 40
10.0
 40
11.0
 40
11.0
 40
11.0
 40
12.0
 40
12.0
 40
12.0
 40
13.0
 40
13.0
 40
13.0
 40
14.0
 40
14.0
 40
14.0
 40
14.0
 10
57.78924058243335
 20
-34.78948651892866
 10
58.37626932824993
 20
-34.8087916856771
 10
58.88914319363206
 20
-34.44482112771409
 10
59.14697666191621
 20
-33.90458525565637
 10
60.37636644984945
 20
-34.66858539854366
 10
62.37071919464034
 20
-35.20584652867814
 10
64.64124865320592
 20
-35.28051569968494
 10
66.91220285004209
 20
-35.35519883873505
 10
68.93193435859138
 20
-34.94978828928749
 10
70.19966835466132
 20
-34.26766157774045
 10
70.42829641469758
 20
-34.82409790007724
 10
70.92107605342071
 20
-35.22134317894106
 10
71.50824637866191
 20
-35.24065300170501
 10
72.33181389178593
 20
-35.26773703853539
 10
73.01915452542584
 20
-34.54741512557846
 10
73.04347162744467
 20
-33.63176166908563
 10
73.04347162744467
 20
-33.63176166908563
 10
73.09630708427518
 20
-31.64225779482078
 10
73.09630708427518
 20
-31.64225779482078
 10
73.12062418629209
 20
-30.72660433832442
 10
72.47270904052967
 20
-29.96237088669641
 10
71.64914152740628
 20
-29.93528684986732
 10
71.06197120216382
 20
-29.91597702710337
 10
70.54895038262197
 20
-30.28014531322816
 10
70.29119244213188
 20
-30.82058623003594
 10
69.06186930302512
 20
-30.05636321127926
 10
67.06719712846787
 20
-29.51893402891688
 10
64.79624293163104
 20
-29.4442508898642
 10
62.52571347306612
 20
-29.36958171885612
 10
60.50630975498125
 20
-29.77484550071379
 10
59.23854187677401
 20
-30.45672352353582
 10
59.00982753946898
 20
-29.90048692479168
 10
58.51716447699367
 20
-29.50342553383684
 10
57.93013573117709
 20
-29.48412036708936
 10
57.10656821805243
 20
-29.45703633026284
 10
56.41922758441252
 20
-30.17735824321719
 10
56.3949104823969
 20
-31.09301169971163
 10
56.3949104823969
 20
-31.09301169971163
 10
56.34207502556446
 20
-33.0825155739768
 10
56.34207502556446
 20
-33.0825155739768
 10
56.31775792354819
 20
-33.99816903046995
 10
56.96567306931318
 20
-34.76240248210245
 10
57.78924058243335
 20
-34.78948651892866
 97
        0
 97
        1
330
81
 75
     2
 76
     1
 98
        1
 10
0.0
 20
0.0
450
        0
451
        0
460
0.0
461
0.0
452
        0
462
0.0
453
        0
470

  0
SPLINE
  5
83
330
7A
100
AcDbEntity
  8
Layer 1
100
AcDbSpline
210
0.0
220
0.0
230
1.0
 70
     9
 71
     3
 72
    47
 73
    43
 74
     0
 42
0.0000000001
 43
0.0000000001
 40
0.0
 40
0.0
 40
0.0
 40
0.0
 40
1.0
 40
1.0
 40
1.0
 40
2.0
 40
2.0
 40
2.0
 40
3.0
 40
3.0
 40
3.0
 40
4.0
 40
4.0
 40
4.0
 40
5.0
 40
5.0
 40
5.0
 40
6.0
 40
6.0
 40
6.0
 40
7.0
 40
7.0
 40
7.0
 40
8.0
 40
8.0
 40
8.0
 40
9.0
 40
9.0
 40
9.0
 40
10.0
 40
10.0
 40
10.0
 40
11.0
 40
11.0
 40
11.0
 40
12.0
 40
12.0
 40
12.0
 40
13.0
 40
13.0
 40
13.0
 40
14.0
 40
14.0
 40
14.0
 40
14.0
 10
54.65136190504556
 20
-29.4301043381528
 30
0.0
 10
55.2095352138911
 20
-29.24729844336668
 30
0.0
 10
55.56683506026821
 20
-28.72975521943694
 30
0.0
 10
55.62416501182453
 20
-28.13389771006352
 30
0.0
 10
57.04080810249982
 20
-28.43091256264769
 30
0.0
 10
59.09858634216242
 20
-28.25303308383168
 30
0.0
 10
61.25750777446631
 20
-27.54597031685973
 30
0.0
 10
63.41683306700834
 20
-26.83877528267066
 30
0.0
 10
65.17577257297808
 20
-25.76648572542871
 30
0.0
 10
66.13342223415504
 20
-24.69161202966653
 30
0.0
 10
66.5387111004828
 20
-25.13617148067774
 30
0.0
 10
67.13770113174111
 20
-25.34073571600529
 30
0.0
 10
67.69600906066518
 20
-25.15788573214766
 30
0.0
 10
68.47909405801437
 20
-24.90141959275743
 30
0.0
 10
68.87833871996459
 20
-23.98933160092573
 30
0.0
 10
68.58775102305684
 20
-23.12067092825701
 30
0.0
 10
68.58775102305684
 20
-23.12067092825701
 30
0.0
 10
67.95637094719673
 20
-21.23327153993783
 30
0.0
 10
67.95637094719673
 20
-21.23327153993783
 30
0.0
 10
67.66578325028577
 20
-20.36461086726654
 30
0.0
 10
66.79540671931066
 20
-19.86833322418146
 30
0.0
 10
66.01232172196596
 20
-20.1247993635749
 30
0.0
 10
65.45401379303547
 20
-20.30764934743414
 30
0.0
 10
65.09664355432204
 20
-20.82542865793599
 30
0.0
 10
65.03945475626387
 20
-21.42145297104958
 30
0.0
 10
63.62279799575436
 20
-21.12420589259343
 30
0.0
 10
61.56466209814919
 20
-21.30203681505188
 30
0.0
 10
59.40533680560715
 20
-22.00923184923999
 30
0.0
 10
57.24641537330197
 20
-22.71629461621225
 30
0.0
 10
55.4877336154629
 20
-23.7883340670418
 30
0.0
 10
54.52996699083627
 20
-24.86298569607536
 30
0.0
 10
54.12466542648641
 20
-24.41864343631716
 30
0.0
 10
53.52584787519188
 20
-24.21421207479456
 30
0.0
 10
52.96767456634505
 20
-24.39701796958003
 30
0.0
 10
52.18458956899522
 20
-24.65348410897347
 30
0.0
 10
51.78534490704372
 20
-25.56557210080132
 30
0.0
 10
52.07593260395404
 20
-26.43423277347293
 30
0.0
 10
52.07593260395404
 20
-26.43423277347293
 30
0.0
 10
52.70731267981222
 20
-28.32163216179083
 30
0.0
 10
52.70731267981222
 20
-28.32163216179083
 30
0.0
 10
52.99790037672575
 20
-29.19029283446052
 30
0.0
 10
53.86827690770086
 20
-29.68657047754527
 30
0.0
 10
54.65136190504556
 20
-29.4301043381528
 30
0.0
  0
HATCH
  5
84
330
7A
100
AcDbEntity
  8
Layer 1
 62
    18
420
        0
440
 33554687
100
AcDbHatch
 10
0.0
 20
0.0
 30
0.0
210
0.0
220
0.0
230
1.0
  2
SOLID
 70
     1
 71
     1
 91
        1
 92
        1
 93
        1
 72
     4
 94
        3
 73
     0
 74
     0
 95
       47
 96
       43
 40
0.0
 40
0.0
 40
0.0
 40
0.0
 40
1.0
 40
1.0
 40
1.0
 40
2.0
 40
2.0
 40
2.0
 40
3.0
 40
3.0
 40
3.0
 40
4.0
 40
4.0
 40
4.0
 40
5.0
 40
5.0
 40
5.0
 40
6.0
 40
6.0
 40
6.0
 40
7.0
 40
7.0
 40
7.0
 40
8.0
 40
8.0
 40
8.0
 40
9.0
 40
9.0
 40
9.0
 40
10.0
 40
10.0
 40
10.0
 40
11.0
 40
11.0
 40
11.0
 40
12.0
 40
12.0
 40
12.0
 40
13.0
 40
13.0
 40
13.0
 40
14.0
 40
14.0
 40
14.0
 40
14.0
 10
54.65136190504556
 20
-29.4301043381528
 10
55.2095352138911
 20
-29.24729844336668
 10
55.56683506026821
 20
-28.72975521943694
 10
55.62416501182453
 20
-28.13389771006352
 10
57.04080810249982
 20
-28.43091256264769
 10
59.09858634216242
 20
-28.25303308383168
 10
61.25750777446631
 20
-27.54597031685973
 10
63.41683306700834
 20
-26.83877528267066
 10
65.17577257297808
 20
-25.76648572542871
 10
66.13342223415504
 20
-24.69161202966653
 10
66.5387111004828
 20
-25.13617148067774
 10
67.13770113174111
 20
-25.34073571600529
 10
67.69600906066518
 20
-25.15788573214766
 10
68.47909405801437
 20
-24.90141959275743
 10
68.87833871996459
 20
-23.98933160092573
 10
68.58775102305684
 20
-23.12067092825701
 10
68.58775102305684
 20
-23.12067092825701
 10
67.95637094719673
 20
-21.23327153993783
 10
67.95637094719673
 20
-21.23327153993783
 10
67.66578325028577
 20
-20.36461086726654
 10
66.79540671931066
 20
-19.86833322418146
 10
66.01232172196596
 20
-20.1247993635749
 10
65.45401379303547
 20
-20.30764934743414
 10
65.09664355432204
 20
-20.82542865793599
 10
65.03945475626387
 20
-21.42145297104958
 10
63.62279799575436
 20
-21.12420589259343
 10
61.56466209814919
 20
-21.30203681505188
 10
59.40533680560715
 20
-22.00923184923999
 10
57.24641537330197
 20
-22.71629461621225
 10
55.4877336154629
 20
-23.7883340670418
 10
54.52996699083627
 20
-24.86298569607536
 10
54.12466542648641
 20
-24.41864343631716
 10
53.52584787519188
 20
-24.21421207479456
 10
52.96767456634505
 20
-24.39701796958003
 10
52.18458956899522
 20
-24.65348410897347
 10
51.78534490704372
 20
-25.56557210080132
 10
52.07593260395404
 20
-26.43423277347293
 10
52.07593260395404
 20
-26.43423277347293
 10
52.70731267981222
 20
-28.32163216179083
 10
52.70731267981222
 20
-28.32163216179083
 10
52.99790037672575
 20
-29.19029283446052
 10
53.86827690770086
 20
-29.68657047754527
 10
54.65136190504556
 20
-29.4301043381528
 97
        0
 97
        1
330
83
 75
     2
 76
     1
 98
        1
 10
0.0
 20
0.0
450
        0
451
        0
460
0.0
461
0.0
452
        0
462
0.0
453
        0
470

  0
SPLINE
  5
85
330
7A
100
AcDbEntity
  8
Layer 1
100
AcDbSpline
210
0.0
220
0.0
230
1.0
 70
     9
 71
     3
 72
    47
 73
    43
 74
     0
 42
0.0000000001
 43
0.0000000001
 40
0.0
 40
0.0
 40
0.0
 40
0.0
 40
1.0
 40
1.0
 40
1.0
 40
2.0
 40
2.0
 40
2.0
 40
3.0
 40
3.0
 40
3.0
 40
4.0
 40
4.0
 40
4.0
 40
5.0
 40
5.0
 40
5.0
 40
6.0
 40
6.0
 40
6.0
 40
7.0
 40
7.0
 40
7.0
 40
8.0
 40
8.0
 40
8.0
 40
9.0
 40
9.0
 40
9.0
 40
10.0
 40
10.0
 40
10.0
 40
11.0
 40
11.0
 40
11.0
 40
12.0
 40
12.0
 40
12.0
 40
13.0
 40
13.0
 40
13.0
 40
14.0
 40
14.0
 40
14.0
 40
14.0
 10
49.8660186274872
 20
-25.45161971604277
 30
0.0
 10
50.32859039416244
 20
-25.08967662859365
 30
0.0
 10
50.48831241863711
 20
-24.48139787361787
 30
0.0
 10
50.3393235550755
 20
-23.90162618290034
 30
0.0
 10
51.77244676452462
 20
-23.69851701138788
 30
0.0
 10
53.64668818645198
 20
-22.83058182662822
 30
0.0
 10
55.43583876966197
 20
-21.43064622171457
 30
0.0
 10
57.22532404165111
 20
-20.0304487368125
 30
0.0
 10
58.51403281977129
 20
-18.42330755899856
 30
0.0
 10
59.04845497407842
 20
-17.08658047526751
 30
0.0
 10
59.58089981757043
 20
-17.36657093812169
 30
0.0
 10
60.21375096055103
 20
-17.35495135336547
 30
0.0
 10
60.67643429015351
 20
-16.99292097258774
 30
0.0
 10
61.32539583120029
 20
-16.48513567153437
 30
0.0
 10
61.39021138332569
 20
-15.49160673429098
 30
0.0
 10
60.82120453545666
 20
-14.77380189945197
 30
0.0
 10
60.82120453545666
 20
-14.77380189945197
 30
0.0
 10
59.5848838288723
 20
-13.21417746976462
 30
0.0
 10
59.5848838288723
 20
-13.21417746976462
 30
0.0
 10
59.01587698099944
 20
-12.49637263492658
 30
0.0
 10
58.02852663964372
 20
-12.32611956411368
 30
0.0
 10
57.37956509859887
 20
-12.83390486516705
 30
0.0
 10
56.91688176899318
 20
-13.19593524594735
 30
0.0
 10
56.75717394749554
 20
-13.80445994853027
 30
0.0
 10
56.90635232719739
 20
-14.38434041162131
 30
0.0
 10
55.4731371905447
 20
-14.58723588917646
 30
0.0
 10
53.59854294972143
 20
-15.45524720377704
 30
0.0
 10
51.80905767773356
 20
-16.85544468867879
 30
0.0
 10
50.01990709452229
 20
-18.25538029359051
 30
0.0
 10
48.73135549945692
 20
-19.86219854602364
 30
0.0
 10
48.19674775614927
 20
-21.19875665992251
 30
0.0
 10
47.66436492831335
 20
-20.91897473324801
 30
0.0
 10
47.03172120260715
 20
-20.93066052117232
 30
0.0
 10
46.56914943593191
 20
-21.29260360862111
 30
0.0
 10
45.9201878948845
 20
-21.80038890967672
 30
0.0
 10
45.85537234276102
 20
-22.79391784692012
 30
0.0
 10
46.42437919062812
 20
-23.51172268175848
 30
0.0
 10
46.42437919062812
 20
-23.51172268175848
 30
0.0
 10
47.66069989721505
 20
-25.07134711144487
 30
0.0
 10
47.66069989721505
 20
-25.07134711144487
 30
0.0
 10
48.22970674508535
 20
-25.78915194628355
 30
0.0
 10
49.21705708644427
 20
-25.95940501709838
 30
0.0
 10
49.8660186274872
 20
-25.45161971604277
 30
0.0
  0
HATCH
  5
86
330
7A
100
AcDbEntity
  8
Layer 1
 62
    18
420
        0
440
 33554687
100
AcDbHatch
 10
0.0
 20
0.0
 30
0.0
210
0.0
220
0.0
230
1.0
  2
SOLID
 70
     1
 71
     1
 91
        1
 92
        1
 93
        1
 72
     4
 94
        3
 73
     0
 74
     0
 95
       47
 96
       43
 40
0.0
 40
0.0
 40
0.0
 40
0.0
 40
1.0
 40
1.0
 40
1.0
 40
2.0
 40
2.0
 40
2.0
 40
3.0
 40
3.0
 40
3.0
 40
4.0
 40
4.0
 40
4.0
 40
5.0
 40
5.0
 40
5.0
 40
6.0
 40
6.0
 40
6.0
 40
7.0
 40
7.0
 40
7.0
 40
8.0
 40
8.0
 40
8.0
 40
9.0
 40
9.0
 40
9.0
 40
10.0
 40
10.0
 40
10.0
 40
11.0
 40
11.0
 40
11.0
 40
12.0
 40
12.0
 40
12.0
 40
13.0
 40
13.0
 40
13.0
 40
14.0
 40
14.0
 40
14.0
 40
14.0
 10
49.8660186274872
 20
-25.45161971604277
 10
50.32859039416244
 20
-25.08967662859365
 10
50.48831241863711
 20
-24.48139787361787
 10
50.3393235550755
 20
-23.90162618290034
 10
51.77244676452462
 20
-23.69851701138788
 10
53.64668818645198
 20
-22.83058182662822
 10
55.43583876966197
 20
-21.43064622171457
 10
57.22532404165111
 20
-20.0304487368125
 10
58.51403281977129
 20
-18.42330755899856
 10
59.04845497407842
 20
-17.08658047526751
 10
59.58089981757043
 20
-17.36657093812169
 10
60.21375096055103
 20
-17.35495135336547
 10
60.67643429015351
 20
-16.99292097258774
 10
61.32539583120029
 20
-16.48513567153437
 10
61.39021138332569
 20
-15.49160673429098
 10
60.82120453545666
 20
-14.77380189945197
 10
60.82120453545666
 20
-14.77380189945197
 10
59.5848838288723
 20
-13.21417746976462
 10
59.5848838288723
 20
-13.21417746976462
 10
59.01587698099944
 20
-12.49637263492658
 10
58.02852663964372
 20
-12.32611956411368
 10
57.37956509859887
 20
-12.83390486516705
 10
56.91688176899318
 20
-13.19593524594735
 10
56.75717394749554
 20
-13.80445994853027
 10
56.90635232719739
 20
-14.38434041162131
 10
55.4731371905447
 20
-14.58723588917646
 10
53.59854294972143
 20
-15.45524720377704
 10
51.80905767773356
 20
-16.85544468867879
 10
50.01990709452229
 20
-18.25538029359051
 10
48.73135549945692
 20
-19.86219854602364
 10
48.19674775614927
 20
-21.19875665992251
 10
47.66436492831335
 20
-20.91897473324801
 10
47.03172120260715
 20
-20.93066052117232
 10
46.56914943593191
 20
-21.29260360862111
 10
45.9201878948845
 20
-21.80038890967672
 10
45.85537234276102
 20
-22.79391784692012
 10
46.42437919062812
 20
-23.51172268175848
 10
46.42437919062812
 20
-23.51172268175848
 10
47.66069989721505
 20
-25.07134711144487
 10
47.66069989721505
 20
-25.07134711144487
 10
48.22970674508535
 20
-25.78915194628355
 10
49.21705708644427
 20
-25.95940501709838
 10
49.8660186274872
 20
-25.45161971604277
 97
        0
 97
        1
330
85
 75
     2
 76
     1
 98
        1
 10
0.0
 20
0.0
450
        0
451
        0
460
0.0
461
0.0
452
        0
462
0.0
453
        0
470

  0
SPLINE
  5
87
330
7A
100
AcDbEntity
  8
Layer 1
100
AcDbSpline
210
0.0
220
0.0
230
1.0
 70
     9
 71
     3
 72
    47
 73
    43
 74
     0
 42
0.0000000001
 43
0.0000000001
 40
0.0
 40
0.0
 40
0.0
 40
0.0
 40
1.0
 40
1.0
 40
1.0
 40
2.0
 40
2.0
 40
2.0
 40
3.0
 40
3.0
 40
3.0
 40
4.0
 40
4.0
 40
4.0
 40
5.0
 40
5.0
 40
5.0
 40
6.0
 40
6.0
 40
6.0
 40
7.0
 40
7.0
 40
7.0
 40
8.0
 40
8.0
 40
8.0
 40
9.0
 40
9.0
 40
9.0
 40
10.0
 40
10.0
 40
10.0
 40
11.0
 40
11.0
 40
11.0
 40
12.0
 40
12.0
 40
12.0
 40
13.0
 40
13.0
 40
13.0
 40
14.0
 40
14.0
 40
14.0
 40
14.0
 10
44.02851609368078
 20
-23.35978862382728
 30
0.0
 10
44.33834013609039
 20
-22.86080515654342
 30
0.0
 10
44.27905585702608
 20
-22.2347064877118
 30
0.0
 10
43.93971008842739
 20
-21.74157633840388
 30
0.0
 10
45.21548824039594
 20
-21.05784716981935
 30
0.0
 10
46.67674981730411
 20
-19.59811877163363
 30
0.0
 10
47.87509763294311
 20
-17.66813379240298
 30
0.0
 10
49.0736696184052
 20
-15.73778777910478
 30
0.0
 10
49.73083867491585
 20
-13.7854041304866
 30
0.0
 10
49.77278656068197
 20
-12.34641604496484
 30
0.0
 10
50.36905416704286
 20
-12.42614754598585
 30
0.0
 10
50.95928120341064
 20
-12.19752639766268
 30
0.0
 10
51.26917996909631
 20
-11.69842258569145
 30
0.0
 10
51.70384525241685
 20
-10.99837752628465
 30
0.0
 10
51.42291508397494
 20
-10.04319218018786
 30
0.0
 10
50.64170202493613
 20
-9.564946709505754
 30
0.0
 10
50.64170202493613
 20
-9.564946709505754
 30
0.0
 10
48.94430614163258
 20
-8.525829552220521
 30
0.0
 10
48.94430614163258
 20
-8.525829552220521
 30
0.0
 10
48.16309308259378
 20
-8.047584081538731
 30
0.0
 10
47.17743704480795
 20
-8.227386695170507
 30
0.0
 10
46.74277176148996
 20
-8.927431754577948
 30
0.0
 10
46.43287299580365
 20
-9.426535566553029
 30
0.0
 10
46.49225522080555
 20
-10.05286028525373
 30
0.0
 10
46.8318163576262
 20
-10.54602737134905
 30
0.0
 10
45.55587837524073
 20
-11.22958751343714
 30
0.0
 10
44.09431170400658
 20
-12.68950877005992
 30
0.0
 10
42.89573971854256
 20
-14.61985478335555
 30
0.0
 10
41.69739190290292
 20
-16.54983976258492
 30
0.0
 10
41.04025934417378
 20
-18.50186612248933
 30
0.0
 10
40.99807906875419
 20
-19.94075939698731
 30
0.0
 10
40.40194143258904
 20
-19.86120236953949
 30
0.0
 10
39.81193192848181
 20
-20.08981432543087
 30
0.0
 10
39.5021078860706
 20
-20.58879779271281
 30
0.0
 10
39.06744260275359
 20
-21.28884285212314
 30
0.0
 10
39.34837277119487
 20
-22.24402819821929
 30
0.0
 10
40.12958583023173
 20
-22.72227366889948
 30
0.0
 10
40.12958583023173
 20
-22.72227366889948
 30
0.0
 10
41.82698171353624
 20
-23.76139082618567
 30
0.0
 10
41.82698171353624
 20
-23.76139082618567
 30
0.0
 10
42.60819477257313
 20
-24.2396362968665
 30
0.0
 10
43.59385081036474
 20
-24.05983368323408
 30
0.0
 10
44.02851609368078
 20
-23.35978862382728
 30
0.0
  0
HATCH
  5
88
330
7A
100
AcDbEntity
  8
Layer 1
 62
    18
420
        0
440
 33554687
100
AcDbHatch
 10
0.0
 20
0.0
 30
0.0
210
0.0
220
0.0
230
1.0
  2
SOLID
 70
     1
 71
     1
 91
        1
 92
        1
 93
        1
 72
     4
 94
        3
 73
     0
 74
     0
 95
       47
 96
       43
 40
0.0
 40
0.0
 40
0.0
 40
0.0
 40
1.0
 40
1.0
 40
1.0
 40
2.0
 40
2.0
 40
2.0
 40
3.0
 40
3.0
 40
3.0
 40
4.0
 40
4.0
 40
4.0
 40
5.0
 40
5.0
 40
5.0
 40
6.0
 40
6.0
 40
6.0
 40
7.0
 40
7.0
 40
7.0
 40
8.0
 40
8.0
 40
8.0
 40
9.0
 40
9.0
 40
9.0
 40
10.0
 40
10.0
 40
10.0
 40
11.0
 40
11.0
 40
11.0
 40
12.0
 40
12.0
 40
12.0
 40
13.0
 40
13.0
 40
13.0
 40
14.0
 40
14.0
 40
14.0
 40
14.0
 10
44.02851609368078
 20
-23.35978862382728
 10
44.33834013609039
 20
-22.86080515654342
 10
44.27905585702608
 20
-22.2347064877118
 10
43.93971008842739
 20
-21.74157633840388
 10
45.21548824039594
 20
-21.05784716981935
 10
46.67674981730411
 20
-19.59811877163363
 10
47.87509763294311
 20
-17.66813379240298
 10
49.0736696184052
 20
-15.73778777910478
 10
49.73083867491585
 20
-13.7854041304866
 10
49.77278656068197
 20
-12.34641604496484
 10
50.36905416704286
 20
-12.42614754598585
 10
50.95928120341064
 20
-12.19752639766268
 10
51.26917996909631
 20
-11.69842258569145
 10
51.70384525241685
 20
-10.99837752628465
 10
51.42291508397494
 20
-10.04319218018786
 10
50.64170202493613
 20
-9.564946709505754
 10
50.64170202493613
 20
-9.564946709505754
 10
48.94430614163258
 20
-8.525829552220521
 10
48.94430614163258
 20
-8.525829552220521
 10
48.16309308259378
 20
-8.047584081538731
 10
47.17743704480795
 20
-8.227386695170507
 10
46.74277176148996
 20
-8.927431754577948
 10
46.43287299580365
 20
-9.426535566553029
 10
46.49225522080555
 20
-10.05286028525373
 10
46.8318163576262
 20
-10.54602737134905
 10
45.55587837524073
 20
-11.22958751343714
 10
44.09431170400658
 20
-12.68950877005992
 10
42.89573971854256
 20
-14.61985478335555
 10
41.69739190290292
 20
-16.54983976258492
 10
41.04025934417378
 20
-18.50186612248933
 10
40.99807906875419
 20
-19.94075939698731
 10
40.40194143258904
 20
-19.86120236953949
 10
39.81193192848181
 20
-20.08981432543087
 10
39.5021078860706
 20
-20.58879779271281
 10
39.06744260275359
 20
-21.28884285212314
 10
39.34837277119487
 20
-22.24402819821929
 10
40.12958583023173
 20
-22.72227366889948
 10
40.12958583023173
 20
-22.72227366889948
 10
41.82698171353624
 20
-23.76139082618567
 10
41.82698171353624
 20
-23.76139082618567
 10
42.60819477257313
 20
-24.2396362968665
 10
43.59385081036474
 20
-24.05983368323408
 10
44.02851609368078
 20
-23.35978862382728
 97
        0
 97
        1
330
87
 75
     2
 76
     1
 98
        1
 10
0.0
 20
0.0
450
        0
451
        0
460
0.0
461
0.0
452
        0
462
0.0
453
        0
470

  0
SPLINE
  5
89
330
7A
100
AcDbEntity
  8
Layer 1
100
AcDbSpline
210
0.0
220
0.0
230
1.0
 70
     9
 71
     3
 72
    47
 73
    43
 74
     0
 42
0.0000000001
 43
0.0000000001
 40
0.0
 40
0.0
 40
0.0
 40
0.0
 40
1.0
 40
1.0
 40
1.0
 40
2.0
 40
2.0
 40
2.0
 40
3.0
 40
3.0
 40
3.0
 40
4.0
 40
4.0
 40
4.0
 40
5.0
 40
5.0
 40
5.0
 40
6.0
 40
6.0
 40
6.0
 40
7.0
 40
7.0
 40
7.0
 40
8.0
 40
8.0
 40
8.0
 40
9.0
 40
9.0
 40
9.0
 40
10.0
 40
10.0
 40
10.0
 40
11.0
 40
11.0
 40
11.0
 40
12.0
 40
12.0
 40
12.0
 40
13.0
 40
13.0
 40
13.0
 40
14.0
 40
14.0
 40
14.0
 40
14.0
 10
37.79170681527467
 20
-23.39129343672091
 30
0.0
 10
37.91340819074022
 20
-22.81669426069594
 30
0.0
 10
37.64477165414637
 20
-22.24805678385993
 30
0.0
 10
37.15797155071306
 20
-21.8996912371661
 30
0.0
 10
38.12525788942748
 20
-20.82291242610391
 30
0.0
 10
39.00312311797455
 20
-18.95330149515676
 30
0.0
 10
39.47384377707514
 20
-16.73084754323712
 30
0.0
 10
39.94465249188229
 20
-14.50797784632608
 30
0.0
 10
39.89882235476232
 20
-12.44846997337022
 30
0.0
 10
39.44898990427531
 20
-11.08095503674901
 30
0.0
 10
40.03684146892487
 20
-10.95319468064909
 30
0.0
 10
40.51416708761094
 20
-10.53750749337076
 30
0.0
 10
40.63589781497803
 20
-9.96276973568241
 30
0.0
 10
40.80663783384795
 20
-9.156640192941223
 30
0.0
 10
40.21766605325601
 20
-8.353886777124483
 30
0.0
 10
39.32038654716229
 20
-8.169761651785481
 30
0.0
 10
39.32038654716229
 20
-8.169761651785481
 30
0.0
 10
37.37080503134463
 20
-7.769700201013825
 30
0.0
 10
37.37080503134463
 20
-7.769700201013825
 30
0.0
 10
36.47352552524609
 20
-7.585575075673219
 30
0.0
 10
35.6077317557716
 20
-8.089805135700537
 30
0.0
 10
35.43699173690361
 20
-8.895934678439477
 30
0.0
 10
35.31526100953652
 20
-9.470672436131355
 30
0.0
 10
35.58406651726038
 20
-10.03948919126177
 30
0.0
 10
36.07108171623945
 20
-10.38781624506473
 30
0.0
 10
35.10358759798779
 20
-11.46449044550342
 30
0.0
 10
34.22550102813233
 20
-13.33438648160666
 30
0.0
 10
33.75469231332262
 20
-15.55725617851898
 30
0.0
 10
33.28397165422105
 20
-17.77971013043895
 30
0.0
 10
33.32971463015846
 20
-19.83886959236649
 30
0.0
 10
33.77929629956769
 20
-21.20637438342462
 30
0.0
 10
33.19162628543356
 20
-21.33425462567591
 30
0.0
 10
32.71450211266195
 20
-21.749859203453
 30
0.0
 10
32.59280073719864
 20
-22.32445837947798
 30
0.0
 10
32.42206071833128
 20
-23.13058792222141
 30
0.0
 10
33.01103249892291
 20
-23.93334133803655
 30
0.0
 10
33.9083120050176
 20
-24.11746646337716
 30
0.0
 10
33.9083120050176
 20
-24.11746646337716
 30
0.0
 10
35.85789352083686
 20
-24.51752791414849
 30
0.0
 10
35.85789352083686
 20
-24.51752791414849
 30
0.0
 10
36.75517302693123
 20
-24.70165303948717
 30
0.0
 10
37.62096679641085
 20
-24.19742297946146
 30
0.0
 10
37.79170681527467
 20
-23.39129343672091
 30
0.0
  0
HATCH
  5
8A
330
7A
100
AcDbEntity
  8
Layer 1
 62
    18
420
        0
440
 33554687
100
AcDbHatch
 10
0.0
 20
0.0
 30
0.0
210
0.0
220
0.0
230
1.0
  2
SOLID
 70
     1
 71
     1
 91
        1
 92
        1
 93
        1
 72
     4
 94
        3
 73
     0
 74
     0
 95
       47
 96
       43
 40
0.0
 40
0.0
 40
0.0
 40
0.0
 40
1.0
 40
1.0
 40
1.0
 40
2.0
 40
2.0
 40
2.0
 40
3.0
 40
3.0
 40
3.0
 40
4.0
 40
4.0
 40
4.0
 40
5.0
 40
5.0
 40
5.0
 40
6.0
 40
6.0
 40
6.0
 40
7.0
 40
7.0
 40
7.0
 40
8.0
 40
8.0
 40
8.0
 40
9.0
 40
9.0
 40
9.0
 40
10.0
 40
10.0
 40
10.0
 40
11.0
 40
11.0
 40
11.0
 40
12.0
 40
12.0
 40
12.0
 40
13.0
 40
13.0
 40
13.0
 40
14.0
 40
14.0
 40
14.0
 40
14.0
 10
37.79170681527467
 20
-23.39129343672091
 10
37.91340819074022
 20
-22.81669426069594
 10
37.64477165414637
 20
-22.24805678385993
 10
37.15797155071306
 20
-21.8996912371661
 10
38.12525788942748
 20
-20.82291242610391
 10
39.00312311797455
 20
-18.95330149515676
 10
39.47384377707514
 20
-16.73084754323712
 10
39.94465249188229
 20
-14.50797784632608
 10
39.89882235476232
 20
-12.44846997337022
 10
39.44898990427531
 20
-11.08095503674901
 10
40.03684146892487
 20
-10.95319468064909
 10
40.51416708761094
 20
-10.53750749337076
 10
40.63589781497803
 20
-9.96276973568241
 10
40.80663783384795
 20
-9.156640192941223
 10
40.21766605325601
 20
-8.353886777124483
 10
39.32038654716229
 20
-8.169761651785481
 10
39.32038654716229
 20
-8.169761651785481
 10
37.37080503134463
 20
-7.769700201013825
 10
37.37080503134463
 20
-7.769700201013825
 10
36.47352552524609
 20
-7.585575075673219
 10
35.6077317557716
 20
-8.089805135700537
 10
35.43699173690361
 20
-8.895934678439477
 10
35.31526100953652
 20
-9.470672436131355
 10
35.58406651726038
 20
-10.03948919126177
 10
36.07108171623945
 20
-10.38781624506473
 10
35.10358759798779
 20
-11.46449044550342
 10
34.22550102813233
 20
-13.33438648160666
 10
33.75469231332262
 20
-15.55725617851898
 10
33.28397165422105
 20
-17.77971013043895
 10
33.32971463015846
 20
-19.83886959236649
 10
33.77929629956769
 20
-21.20637438342462
 10
33.19162628543356
 20
-21.33425462567591
 10
32.71450211266195
 20
-21.749859203453
 10
32.59280073719864
 20
-22.32445837947798
 10
32.42206071833128
 20
-23.13058792222141
 10
33.01103249892291
 20
-23.93334133803655
 10
33.9083120050176
 20
-24.11746646337716
 10
33.9083120050176
 20
-24.11746646337716
 10
35.85789352083686
 20
-24.51752791414849
 10
35.85789352083686
 20
-24.51752791414849
 10
36.75517302693123
 20
-24.70165303948717
 10
37.62096679641085
 20
-24.19742297946146
 10
37.79170681527467
 20
-23.39129343672091
 97
        0
 97
        1
330
89
 75
     2
 76
     1
 98
        1
 10
0.0
 20
0.0
450
        0
451
        0
460
0.0
461
0.0
452
        0
462
0.0
453
        0
470

  0
SPLINE
  5
8B
330
7A
100
AcDbEntity
  8
Layer 1
100
AcDbSpline
210
0.0
220
0.0
230
1.0
 70
     9
 71
     3
 72
    47
 73
    43
 74
     0
 42
0.0000000001
 43
0.0000000001
 40
0.0
 40
0.0
 40
0.0
 40
0.0
 40
1.0
 40
1.0
 40
1.0
 40
2.0
 40
2.0
 40
2.0
 40
3.0
 40
3.0
 40
3.0
 40
4.0
 40
4.0
 40
4.0
 40
5.0
 40
5.0
 40
5.0
 40
6.0
 40
6.0
 40
6.0
 40
7.0
 40
7.0
 40
7.0
 40
8.0
 40
8.0
 40
8.0
 40
9.0
 40
9.0
 40
9.0
 40
10.0
 40
10.0
 40
10.0
 40
11.0
 40
11.0
 40
11.0
 40
12.0
 40
12.0
 40
12.0
 40
13.0
 40
13.0
 40
13.0
 40
14.0
 40
14.0
 40
14.0
 40
14.0
 10
31.97596310654477
 20
-25.54307085148958
 30
0.0
 10
31.89256877065583
 20
-24.9616752696195
 30
0.0
 10
31.44471127904787
 20
-24.52015761870778
 30
0.0
 10
30.86778132954366
 20
-24.36051824953691
 30
0.0
 10
31.40560779297269
 20
-23.01670346905502
 30
0.0
 10
31.58672878996767
 20
-20.95920800683209
 30
0.0
 10
31.26417338248232
 20
-18.71046668858141
 30
0.0
 10
30.94155763593394
 20
-16.46130470787191
 30
0.0
 10
30.19003363963128
 20
-14.5432627992565
 30
0.0
 10
29.29721760195052
 20
-13.41395953694946
 30
0.0
 10
29.80523942641615
 20
-13.0917701570523
 30
0.0
 10
30.11043146793701
 20
-12.5372492812369
 30
0.0
 10
30.02701701902352
 20
-11.95571347854774
 30
0.0
 10
29.91001956991723
 20
-11.14004896992445
 30
0.0
 10
29.08083997052457
 20
-10.58890289410641
 30
0.0
 10
28.17498413393794
 20
-10.72468867082427
 30
0.0
 10
28.17498413393794
 20
-10.72468867082427
 30
0.0
 10
26.20676822907254
 20
-11.01971986078062
 30
0.0
 10
26.20676822907254
 20
-11.01971986078062
 30
0.0
 10
25.30091239248302
 20
-11.15550563750008
 30
0.0
 10
24.66142157708837
 20
-11.92680214451004
 30
0.0
 10
24.77841902619947
 20
-12.74246665313013
 30
0.0
 10
24.86183347511071
 20
-13.32400245582442
 30
0.0
 10
25.30991129837746
 20
-13.76563031522472
 30
0.0
 10
25.88702997335886
 20
-13.92515954588493
 30
0.0
 10
25.34897242491308
 20
-15.26894757876233
 30
0.0
 10
25.16774167493764
 20
-17.32678688863535
 30
0.0
 10
25.49035742148667
 20
-19.57594886934549
 30
0.0
 10
25.81291282897106
 20
-21.82469018759681
 30
0.0
 10
26.56423512704832
 20
-23.74243493440453
 30
0.0
 10
27.45681219964299
 20
-24.87181494153663
 30
0.0
 10
26.94900208696514
 20
-25.19405443528829
 30
0.0
 10
26.64397077783049
 20
-25.74842844420413
 30
0.0
 10
26.72736511371847
 20
-26.32982402607389
 30
0.0
 10
26.84436256283151
 20
-27.14548853469815
 30
0.0
 10
27.67354216222031
 20
-27.69663461051811
 30
0.0
 10
28.57939799880855
 20
-27.56084883379704
 30
0.0
 10
28.57939799880855
 20
-27.56084883379704
 30
0.0
 10
30.5476139036762
 20
-27.26581764384166
 30
0.0
 10
30.5476139036762
 20
-27.26581764384166
 30
0.0
 10
31.45346974026219
 20
-27.13003186712027
 30
0.0
 10
32.09296055565844
 20
-26.35873536011031
 30
0.0
 10
31.97596310654477
 20
-25.54307085148958
 30
0.0
  0
HATCH
  5
8C
330
7A
100
AcDbEntity
  8
Layer 1
 62
    18
420
        0
440
 33554687
100
AcDbHatch
 10
0.0
 20
0.0
 30
0.0
210
0.0
220
0.0
230
1.0
  2
SOLID
 70
     1
 71
     1
 91
        1
 92
        1
 93
        1
 72
     4
 94
        3
 73
     0
 74
     0
 95
       47
 96
       43
 40
0.0
 40
0.0
 40
0.0
 40
0.0
 40
1.0
 40
1.0
 40
1.0
 40
2.0
 40
2.0
 40
2.0
 40
3.0
 40
3.0
 40
3.0
 40
4.0
 40
4.0
 40
4.0
 40
5.0
 40
5.0
 40
5.0
 40
6.0
 40
6.0
 40
6.0
 40
7.0
 40
7.0
 40
7.0
 40
8.0
 40
8.0
 40
8.0
 40
9.0
 40
9.0
 40
9.0
 40
10.0
 40
10.0
 40
10.0
 40
11.0
 40
11.0
 40
11.0
 40
12.0
 40
12.0
 40
12.0
 40
13.0
 40
13.0
 40
13.0
 40
14.0
 40
14.0
 40
14.0
 40
14.0
 10
31.97596310654477
 20
-25.54307085148958
 10
31.89256877065583
 20
-24.9616752696195
 10
31.44471127904787
 20
-24.52015761870778
 10
30.86778132954366
 20
-24.36051824953691
 10
31.40560779297269
 20
-23.01670346905502
 10
31.58672878996767
 20
-20.95920800683209
 10
31.26417338248232
 20
-18.71046668858141
 10
30.94155763593394
 20
-16.46130470787191
 10
30.19003363963128
 20
-14.5432627992565
 10
29.29721760195052
 20
-13.41395953694946
 10
29.80523942641615
 20
-13.0917701570523
 10
30.11043146793701
 20
-12.5372492812369
 10
30.02701701902352
 20
-11.95571347854774
 10
29.91001956991723
 20
-11.14004896992445
 10
29.08083997052457
 20
-10.58890289410641
 10
28.17498413393794
 20
-10.72468867082427
 10
28.17498413393794
 20
-10.72468867082427
 10
26.20676822907254
 20
-11.01971986078062
 10
26.20676822907254
 20
-11.01971986078062
 10
25.30091239248302
 20
-11.15550563750008
 10
24.66142157708837
 20
-11.92680214451004
 10
24.77841902619947
 20
-12.74246665313013
 10
24.86183347511071
 20
-13.32400245582442
 10
25.30991129837746
 20
-13.76563031522472
 10
25.88702997335886
 20
-13.92515954588493
 10
25.34897242491308
 20
-15.26894757876233
 10
25.16774167493764
 20
-17.32678688863535
 10
25.49035742148667
 20
-19.57594886934549
 10
25.81291282897106
 20
-21.82469018759681
 10
26.56423512704832
 20
-23.74243493440453
 10
27.45681219964299
 20
-24.87181494153663
 10
26.94900208696514
 20
-25.19405443528829
 10
26.64397077783049
 20
-25.74842844420413
 10
26.72736511371847
 20
-26.32982402607389
 10
26.84436256283151
 20
-27.14548853469815
 10
27.67354216222031
 20
-27.69663461051811
 10
28.57939799880855
 20
-27.56084883379704
 10
28.57939799880855
 20
-27.56084883379704
 10
30.5476139036762
 20
-27.26581764384166
 10
30.5476139036762
 20
-27.26581764384166
 10
31.45346974026219
 20
-27.13003186712027
 10
32.09296055565844
 20
-26.35873536011031
 10
31.97596310654477
 20
-25.54307085148958
 97
        0
 97
        1
330
8B
 75
     2
 76
     1
 98
        1
 10
0.0
 20
0.0
450
        0
451
        0
460
0.0
461
0.0
452
        0
462
0.0
453
        0
470

  0
SPLINE
  5
8D
330
7A
100
AcDbEntity
  8
Layer 1
100
AcDbSpline
210
0.0
220
0.0
230
1.0
 70
     9
 71
     3
 72
    47
 73
    43
 74
     0
 42
0.0000000001
 43
0.0000000001
 40
0.0
 40
0.0
 40
0.0
 40
0.0
 40
1.0
 40
1.0
 40
1.0
 40
2.0
 40
2.0
 40
2.0
 40
3.0
 40
3.0
 40
3.0
 40
4.0
 40
4.0
 40
4.0
 40
5.0
 40
5.0
 40
5.0
 40
6.0
 40
6.0
 40
6.0
 40
7.0
 40
7.0
 40
7.0
 40
8.0
 40
8.0
 40
8.0
 40
9.0
 40
9.0
 40
9.0
 40
10.0
 40
10.0
 40
10.0
 40
11.0
 40
11.0
 40
11.0
 40
12.0
 40
12.0
 40
12.0
 40
13.0
 40
13.0
 40
13.0
 40
14.0
 40
14.0
 40
14.0
 40
14.0
 10
27.23124095205311
 20
-29.56985604243778
 30
0.0
 10
26.95485784210826
 20
-29.05160145788023
 30
0.0
 10
26.38342206150659
 20
-28.78896993367755
 30
0.0
 10
25.78661024749507
 20
-28.83532242529657
 30
0.0
 10
25.83471058416138
 20
-27.38867740089707
 30
0.0
 10
25.30440502895164
 20
-25.39246388257685
 30
0.0
 10
24.23540117274963
 20
-23.38794143003514
 30
0.0
 10
23.16619734255084
 20
-21.38304400002127
 30
0.0
 10
21.80646731017297
 20
-19.8355274995356
 30
0.0
 10
20.58246415371374
 20
-19.07772633275662
 30
0.0
 10
20.95041711637822
 20
-18.60180324241939
 30
0.0
 10
21.04854963988885
 20
-17.97649884314386
 30
0.0
 10
20.77209987194476
 20
-17.45811926609719
 30
0.0
 10
20.38435029043514
 20
-16.73103793930814
 30
0.0
 10
19.41705036408238
 20
-16.49517429773602
 30
0.0
 10
18.61156520048927
 20
-16.93130068431297
 30
0.0
 10
18.61156520048927
 20
-16.93130068431297
 30
0.0
 10
16.86143162946974
 20
-17.87890278160877
 30
0.0
 10
16.86143162946974
 20
-17.87890278160877
 30
0.0
 10
16.05594646587599
 20
-18.31502916818893
 30
0.0
 10
15.71730765282216
 20
-19.25798757606948
 30
0.0
 10
16.10505723433436
 20
-19.98506890285372
 30
0.0
 10
16.38150700227973
 20
-20.50344847990713
 30
0.0
 10
16.95318747488116
 20
-20.76610860087468
 30
0.0
 10
17.5501392326075
 20
-20.71958828925158
 30
0.0
 10
17.50181251266838
 20
-22.16628685180129
 30
0.0
 10
18.03213195813402
 20
-24.1628610416968
 30
0.0
 10
19.1013357883312
 20
-26.16775847171164
 30
0.0
 10
20.17033964453226
 20
-28.17228092425013
 30
0.0
 10
21.52977884487953
 20
-29.71958670206419
 30
0.0
 10
22.75358344936889
 20
-30.47754139797958
 30
0.0
 10
22.38584661098965
 20
-30.95343951687623
 30
0.0
 10
22.28781520449561
 20
-31.57855109464061
 30
0.0
 10
22.5641983144411
 20
-32.09680567919656
 30
0.0
 10
22.95194789595361
 20
-32.82388700598465
 30
0.0
 10
23.91924782230541
 20
-33.0597506475587
 30
0.0
 10
24.72473298589948
 20
-32.6236242609795
 30
0.0
 10
24.72473298589948
 20
-32.6236242609795
 30
0.0
 10
26.47486655691997
 20
-31.67602216368401
 30
0.0
 10
26.47486655691997
 20
-31.67602216368401
 30
0.0
 10
27.28035172051115
 20
-31.23989577710257
 30
0.0
 10
27.61899053356787
 20
-30.2969373692201
 30
0.0
 10
27.23124095205311
 20
-29.56985604243778
 30
0.0
  0
HATCH
  5
8E
330
7A
100
AcDbEntity
  8
Layer 1
 62
    18
420
        0
440
 33554687
100
AcDbHatch
 10
0.0
 20
0.0
 30
0.0
210
0.0
220
0.0
230
1.0
  2
SOLID
 70
     1
 71
     1
 91
        1
 92
        1
 93
        1
 72
     4
 94
        3
 73
     0
 74
     0
 95
       47
 96
       43
 40
0.0
 40
0.0
 40
0.0
 40
0.0
 40
1.0
 40
1.0
 40
1.0
 40
2.0
 40
2.0
 40
2.0
 40
3.0
 40
3.0
 40
3.0
 40
4.0
 40
4.0
 40
4.0
 40
5.0
 40
5.0
 40
5.0
 40
6.0
 40
6.0
 40
6.0
 40
7.0
 40
7.0
 40
7.0
 40
8.0
 40
8.0
 40
8.0
 40
9.0
 40
9.0
 40
9.0
 40
10.0
 40
10.0
 40
10.0
 40
11.0
 40
11.0
 40
11.0
 40
12.0
 40
12.0
 40
12.0
 40
13.0
 40
13.0
 40
13.0
 40
14.0
 40
14.0
 40
14.0
 40
14.0
 10
27.23124095205311
 20
-29.56985604243778
 10
26.95485784210826
 20
-29.05160145788023
 10
26.38342206150659
 20
-28.78896993367755
 10
25.78661024749507
 20
-28.83532242529657
 10
25.83471058416138
 20
-27.38867740089707
 10
25.30440502895164
 20
-25.39246388257685
 10
24.23540117274963
 20
-23.38794143003514
 10
23.16619734255084
 20
-21.38304400002127
 10
21.80646731017297
 20
-19.8355274995356
 10
20.58246415371374
 20
-19.07772633275662
 10
20.95041711637822
 20
-18.60180324241939
 10
21.04854963988885
 20
-17.97649884314386
 10
20.77209987194476
 20
-17.45811926609719
 10
20.38435029043514
 20
-16.73103793930814
 10
19.41705036408238
 20
-16.49517429773602
 10
18.61156520048927
 20
-16.93130068431297
 10
18.61156520048927
 20
-16.93130068431297
 10
16.86143162946974
 20
-17.87890278160877
 10
16.86143162946974
 20
-17.87890278160877
 10
16.05594646587599
 20
-18.31502916818893
 10
15.71730765282216
 20
-19.25798757606948
 10
16.10505723433436
 20
-19.98506890285372
 10
16.38150700227973
 20
-20.50344847990713
 10
16.95318747488116
 20
-20.76610860087468
 10
17.5501392326075
 20
-20.71958828925158
 10
17.50181251266838
 20
-22.16628685180129
 10
18.03213195813402
 20
-24.1628610416968
 10
19.1013357883312
 20
-26.16775847171164
 10
20.17033964453226
 20
-28.17228092425013
 10
21.52977884487953
 20
-29.71958670206419
 10
22.75358344936889
 20
-30.47754139797958
 10
22.38584661098965
 20
-30.95343951687623
 10
22.28781520449561
 20
-31.57855109464061
 10
22.5641983144411
 20
-32.09680567919656
 10
22.95194789595361
 20
-32.82388700598465
 10
23.91924782230541
 20
-33.0597506475587
 10
24.72473298589948
 20
-32.6236242609795
 10
24.72473298589948
 20
-32.6236242609795
 10
26.47486655691997
 20
-31.67602216368401
 10
26.47486655691997
 20
-31.67602216368401
 10
27.28035172051115
 20
-31.23989577710257
 10
27.61899053356787
 20
-30.2969373692201
 10
27.23124095205311
 20
-29.56985604243778
 97
        0
 97
        1
330
8D
 75
     2
 76
     1
 98
        1
 10
0.0
 20
0.0
450
        0
451
        0
460
0.0
461
0.0
452
        0
462
0.0
453
        0
470

  0
SPLINE
  5
8F
330
7A
100
AcDbEntity
  8
Layer 1
100
AcDbSpline
210
0.0
220
0.0
230
1.0
 70
     9
 71
     3
 72
    47
 73
    43
 74
     0
 42
0.0000000001
 43
0.0000000001
 40
0.0
 40
0.0
 40
0.0
 40
0.0
 40
1.0
 40
1.0
 40
1.0
 40
2.0
 40
2.0
 40
2.0
 40
3.0
 40
3.0
 40
3.0
 40
4.0
 40
4.0
 40
4.0
 40
5.0
 40
5.0
 40
5.0
 40
6.0
 40
6.0
 40
6.0
 40
7.0
 40
7.0
 40
7.0
 40
8.0
 40
8.0
 40
8.0
 40
9.0
 40
9.0
 40
9.0
 40
10.0
 40
10.0
 40
10.0
 40
11.0
 40
11.0
 40
11.0
 40
12.0
 40
12.0
 40
12.0
 40
13.0
 40
13.0
 40
13.0
 40
14.0
 40
14.0
 40
14.0
 40
14.0
 10
24.1482878969235
 20
-34.96099399232878
 30
0.0
 10
23.71119968827543
 20
-34.56865569985754
 30
0.0
 10
23.08438481742969
 20
-34.51749627703927
 30
0.0
 10
22.53949411759665
 20
-34.76534102694949
 30
0.0
 10
22.0894928257623
 20
-33.38962510192703
 30
0.0
 10
20.90790727433928
 20
-31.69553302140553
 30
0.0
 10
19.21732285101004
 20
-30.1780338237458
 30
0.0
 10
17.52642217725628
 20
-28.66025075397361
 30
0.0
 10
15.71911086275842
 20
-27.6716664668644
 30
0.0
 10
14.30965153623355
 20
-27.37862936636785
 30
0.0
 10
14.49246436261611
 20
-26.80550491115652
 30
0.0
 10
14.37062286235212
 20
-26.18438476759673
 30
0.0
 10
13.93342923689705
 20
-25.79195185108897
 30
0.0
 10
13.32021965972535
 20
-25.24152382837374
 30
0.0
 10
12.33061824923399
 20
-25.3510220169034
 30
0.0
 10
11.72308258014482
 20
-26.03652401151851
 30
0.0
 10
11.72308258014482
 20
-26.03652401151851
 30
0.0
 10
10.40304762714648
 20
-27.52596181622277
 30
0.0
 10
10.40304762714648
 20
-27.52596181622277
 30
0.0
 10
9.795511958056669
 20
-28.21146381084012
 30
0.0
 10
9.800111531527328
 20
-29.21337480919397
 30
0.0
 10
10.41332110869902
 20
-29.76380283190663
 30
0.0
 10
10.85051473415698
 20
-30.15623574841536
 30
0.0
 10
11.47756930362236
 20
-30.20733828079214
 30
0.0
 10
12.02253404708877
 20
-29.95928794552769
 30
0.0
 10
12.47234095827999
 20
-31.33513166681007
 30
0.0
 10
13.6540630210024
 20
-33.02955787543421
 30
0.0
 10
15.34496369475616
 20
-34.54734094520704
 30
0.0
 10
17.0355481180838
 20
-36.06484014286902
 30
0.0
 10
18.84251403846673
 20
-37.05332599105697
 30
0.0
 10
20.25183936186788
 20
-37.3465753113539
 30
0.0
 10
20.06922105547276
 20
-37.91960232296569
 30
0.0
 10
20.19109156007933
 20
-38.5405066806752
 30
0.0
 10
20.62817976872515
 20
-38.9328449731458
 30
0.0
 10
21.2413893459007
 20
-39.48327299585879
 30
0.0
 10
22.23099075639142
 20
-39.37377480733137
 30
0.0
 10
22.83852642548187
 20
-38.68827281271433
 30
0.0
 10
22.83852642548187
 20
-38.68827281271433
 30
0.0
 10
24.15856137847861
 20
-37.19883500801137
 30
0.0
 10
24.15856137847861
 20
-37.19883500801137
 30
0.0
 10
24.76609704756682
 20
-36.51333301339369
 30
0.0
 10
24.76149747409712
 20
-35.51142201503727
 30
0.0
 10
24.1482878969235
 20
-34.96099399232878
 30
0.0
  0
HATCH
  5
90
330
7A
100
AcDbEntity
  8
Layer 1
 62
    18
420
        0
440
 33554687
100
AcDbHatch
 10
0.0
 20
0.0
 30
0.0
210
0.0
220
0.0
230
1.0
  2
SOLID
 70
     1
 71
     1
 91
        1
 92
        1
 93
        1
 72
     4
 94
        3
 73
     0
 74
     0
 95
       47
 96
       43
 40
0.0
 40
0.0
 40
0.0
 40
0.0
 40
1.0
 40
1.0
 40
1.0
 40
2.0
 40
2.0
 40
2.0
 40
3.0
 40
3.0
 40
3.0
 40
4.0
 40
4.0
 40
4.0
 40
5.0
 40
5.0
 40
5.0
 40
6.0
 40
6.0
 40
6.0
 40
7.0
 40
7.0
 40
7.0
 40
8.0
 40
8.0
 40
8.0
 40
9.0
 40
9.0
 40
9.0
 40
10.0
 40
10.0
 40
10.0
 40
11.0
 40
11.0
 40
11.0
 40
12.0
 40
12.0
 40
12.0
 40
13.0
 40
13.0
 40
13.0
 40
14.0
 40
14.0
 40
14.0
 40
14.0
 10
24.1482878969235
 20
-34.96099399232878
 10
23.71119968827543
 20
-34.56865569985754
 10
23.08438481742969
 20
-34.51749627703927
 10
22.53949411759665
 20
-34.76534102694949
 10
22.0894928257623
 20
-33.38962510192703
 10
20.90790727433928
 20
-31.69553302140553
 10
19.21732285101004
 20
-30.1780338237458
 10
17.52642217725628
 20
-28.66025075397361
 10
15.71911086275842
 20
-27.6716664668644
 10
14.30965153623355
 20
-27.37862936636785
 10
14.49246436261611
 20
-26.80550491115652
 10
14.37062286235212
 20
-26.18438476759673
 10
13.93342923689705
 20
-25.79195185108897
 10
13.32021965972535
 20
-25.24152382837374
 10
12.33061824923399
 20
-25.3510220169034
 10
11.72308258014482
 20
-26.03652401151851
 10
11.72308258014482
 20
-26.03652401151851
 10
10.40304762714648
 20
-27.52596181622277
 10
10.40304762714648
 20
-27.52596181622277
 10
9.795511958056669
 20
-28.21146381084012
 10
9.800111531527328
 20
-29.21337480919397
 10
10.41332110869902
 20
-29.76380283190663
 10
10.85051473415698
 20
-30.15623574841536
 10
11.47756930362236
 20
-30.20733828079214
 10
12.02253404708877
 20
-29.95928794552769
 10
12.47234095827999
 20
-31.33513166681007
 10
13.6540630210024
 20
-33.02955787543421
 10
15.34496369475616
 20
-34.54734094520704
 10
17.0355481180838
 20
-36.06484014286902
 10
18.84251403846673
 20
-37.05332599105697
 10
20.25183936186788
 20
-37.3465753113539
 10
20.06922105547276
 20
-37.91960232296569
 10
20.19109156007933
 20
-38.5405066806752
 10
20.62817976872515
 20
-38.9328449731458
 10
21.2413893459007
 20
-39.48327299585879
 10
22.23099075639142
 20
-39.37377480733137
 10
22.83852642548187
 20
-38.68827281271433
 10
22.83852642548187
 20
-38.68827281271433
 10
24.15856137847861
 20
-37.19883500801137
 10
24.15856137847861
 20
-37.19883500801137
 10
24.76609704756682
 20
-36.51333301339369
 10
24.76149747409712
 20
-35.51142201503727
 10
24.1482878969235
 20
-34.96099399232878
 97
        0
 97
        1
330
8F
 75
     2
 76
     1
 98
        1
 10
0.0
 20
0.0
450
        0
451
        0
460
0.0
461
0.0
452
        0
462
0.0
453
        0
470

  0
SPLINE
  5
91
330
7A
100
AcDbEntity
  8
Layer 1
100
AcDbSpline
210
0.0
220
0.0
230
1.0
 70
     9
 71
     3
 72
    47
 73
    43
 74
     0
 42
0.0000000001
 43
0.0000000001
 40
0.0
 40
0.0
 40
0.0
 40
0.0
 40
1.0
 40
1.0
 40
1.0
 40
2.0
 40
2.0
 40
2.0
 40
3.0
 40
3.0
 40
3.0
 40
4.0
 40
4.0
 40
4.0
 40
5.0
 40
5.0
 40
5.0
 40
6.0
 40
6.0
 40
6.0
 40
7.0
 40
7.0
 40
7.0
 40
8.0
 40
8.0
 40
8.0
 40
9.0
 40
9.0
 40
9.0
 40
10.0
 40
10.0
 40
10.0
 40
11.0
 40
11.0
 40
11.0
 40
12.0
 40
12.0
 40
12.0
 40
13.0
 40
13.0
 40
13.0
 40
14.0
 40
14.0
 40
14.0
 40
14.0
 10
23.10599990266542
 20
-41.09125409739144
 30
0.0
 10
22.56102982364026
 20
-40.87220375877736
 30
0.0
 10
21.95455990193519
 20
-41.03866217077452
 30
0.0
 10
21.52740120485255
 20
-41.45802876735662
 30
0.0
 10
20.63373555931939
 20
-40.31940803023284
 30
0.0
 10
18.94370250252094
 20
-39.13202407399015
 30
0.0
 10
16.83584896506254
 20
-38.28477383236857
 30
0.0
 10
14.72760112042141
 20
-37.43736509925275
 30
0.0
 10
12.69109185480694
 20
-37.12703770553217
 30
0.0
 10
11.26645963836463
 20
-37.33408693462888
 30
0.0
 10
11.24207949226143
 20
-36.73300642493944
 30
0.0
 10
10.91501698172617
 20
-36.19109711691507
 30
0.0
 10
10.36991546697632
 20
-35.97199394780334
 30
0.0
 10
9.605353840469586
 20
-35.66467894166551
 30
0.0
 10
8.71299191062566
 20
-36.10625678430166
 30
0.0
 10
8.376760255864992
 20
-36.95829014525229
 30
0.0
 10
8.376760255864992
 20
-36.95829014525229
 30
0.0
 10
7.646206381965351
 20
-38.8095622183264
 30
0.0
 10
7.646206381965351
 20
-38.8095622183264
 30
0.0
 10
7.309974727205323
 20
-39.66159557927991
 30
0.0
 10
7.657201919368302
 20
-40.60142539457781
 30
0.0
 10
8.421763545873117
 20
-40.90874040071276
 30
0.0
 10
8.96686506062649
 20
-41.12784356982546
 30
0.0
 10
9.573540734344657
 20
-40.96124966591243
 30
0.0
 10
10.0006986415869
 20
-40.5416645580671
 30
0.0
 10
10.89422538386825
 20
-41.6804719006722
 30
0.0
 10
12.58450106363112
 20
-42.86812308531978
 30
0.0
 10
14.69274890826999
 20
-43.71553181843593
 30
0.0
 10
16.80060244572968
 20
-44.56278206006201
 30
0.0
 10
18.83675348526626
 20
-44.87313517134204
 30
0.0
 10
20.26133242375642
 20
-44.66633120851311
 30
0.0
 10
20.28586199227683
 20
-45.26725358464548
 30
0.0
 10
20.61287790253866
 20
-45.80895021168742
 30
0.0
 10
21.15784798156189
 20
-46.02800055030214
 30
0.0
 10
21.92240960807184
 20
-46.33531555643645
 30
0.0
 10
22.8147715379132
 20
-45.89373771380414
 30
0.0
 10
23.15100319267322
 20
-45.04170435285192
 30
0.0
 10
23.15100319267322
 20
-45.04170435285192
 30
0.0
 10
23.88155706657544
 20
-43.19043227977781
 30
0.0
 10
23.88155706657544
 20
-43.19043227977781
 30
0.0
 10
24.21778872133226
 20
-42.33839891882365
 30
0.0
 10
23.8705615291712
 20
-41.39856910352317
 30
0.0
 10
23.10599990266542
 20
-41.09125409739144
 30
0.0
  0
HATCH
  5
92
330
7A
100
AcDbEntity
  8
Layer 1
 62
    18
420
        0
440
 33554687
100
AcDbHatch
 10
0.0
 20
0.0
 30
0.0
210
0.0
220
0.0
230
1.0
  2
SOLID
 70
     1
 71
     1
 91
        1
 92
        1
 93
        1
 72
     4
 94
        3
 73
     0
 74
     0
 95
       47
 96
       43
 40
0.0
 40
0.0
 40
0.0
 40
0.0
 40
1.0
 40
1.0
 40
1.0
 40
2.0
 40
2.0
 40
2.0
 40
3.0
 40
3.0
 40
3.0
 40
4.0
 40
4.0
 40
4.0
 40
5.0
 40
5.0
 40
5.0
 40
6.0
 40
6.0
 40
6.0
 40
7.0
 40
7.0
 40
7.0
 40
8.0
 40
8.0
 40
8.0
 40
9.0
 40
9.0
 40
9.0
 40
10.0
 40
10.0
 40
10.0
 40
11.0
 40
11.0
 40
11.0
 40
12.0
 40
12.0
 40
12.0
 40
13.0
 40
13.0
 40
13.0
 40
14.0
 40
14.0
 40
14.0
 40
14.0
 10
23.10599990266542
 20
-41.09125409739144
 10
22.56102982364026
 20
-40.87220375877736
 10
21.95455990193519
 20
-41.03866217077452
 10
21.52740120485255
 20
-41.45802876735662
 10
20.63373555931939
 20
-40.31940803023284
 10
18.94370250252094
 20
-39.13202407399015
 10
16.83584896506254
 20
-38.28477383236857
 10
14.72760112042141
 20
-37.43736509925275
 10
12.69109185480694
 20
-37.12703770553217
 10
11.26645963836463
 20
-37.33408693462888
 10
11.24207949226143
 20
-36.73300642493944
 10
10.91501698172617
 20
-36.19109711691507
 10
10.36991546697632
 20
-35.97199394780334
 10
9.605353840469586
 20
-35.66467894166551
 10
8.71299191062566
 20
-36.10625678430166
 10
8.376760255864992
 20
-36.95829014525229
 10
8.376760255864992
 20
-36.95829014525229
 10
7.646206381965351
 20
-38.8095622183264
 10
7.646206381965351
 20
-38.8095622183264
 10
7.309974727205323
 20
-39.66159557927991
 10
7.657201919368302
 20
-40.60142539457781
 10
8.421763545873117
 20
-40.90874040071276
 10
8.96686506062649
 20
-41.12784356982546
 10
9.573540734344657
 20
-40.96124966591243
 10
10.0006986415869
 20
-40.5416645580671
 10
10.89422538386825
 20
-41.6804719006722
 10
12.58450106363112
 20
-42.86812308531978
 10
14.69274890826999
 20
-43.71553181843593
 10
16.80060244572968
 20
-44.56278206006201
 10
18.83675348526626
 20
-44.87313517134204
 10
20.26133242375642
 20
-44.66633120851311
 10
20.28586199227683
 20
-45.26725358464548
 10
20.61287790253866
 20
-45.80895021168742
 10
21.15784798156189
 20
-46.02800055030214
 10
21.92240960807184
 20
-46.33531555643645
 10
22.8147715379132
 20
-45.89373771380414
 10
23.15100319267322
 20
-45.04170435285192
 10
23.15100319267322
 20
-45.04170435285192
 10
23.88155706657544
 20
-43.19043227977781
 10
23.88155706657544
 20
-43.19043227977781
 10
24.21778872133226
 20
-42.33839891882365
 10
23.8705615291712
 20
-41.39856910352317
 10
23.10599990266542
 20
-41.09125409739144
 97
        0
 97
        1
330
91
 75
     2
 76
     1
 98
        1
 10
0.0
 20
0.0
450
        0
451
        0
460
0.0
461
0.0
452
        0
462
0.0
453
        0
470

  0
SPLINE
  5
93
330
7A
100
AcDbEntity
  8
Layer 1
100
AcDbSpline
210
0.0
220
0.0
230
1.0
 70
     9
 71
     3
 72
    47
 73
    43
 74
     0
 42
0.0000000001
 43
0.0000000001
 40
0.0
 40
0.0
 40
0.0
 40
0.0
 40
1.0
 40
1.0
 40
1.0
 40
2.0
 40
2.0
 40
2.0
 40
3.0
 40
3.0
 40
3.0
 40
4.0
 40
4.0
 40
4.0
 40
5.0
 40
5.0
 40
5.0
 40
6.0
 40
6.0
 40
6.0
 40
7.0
 40
7.0
 40
7.0
 40
8.0
 40
8.0
 40
8.0
 40
9.0
 40
9.0
 40
9.0
 40
10.0
 40
10.0
 40
10.0
 40
11.0
 40
11.0
 40
11.0
 40
12.0
 40
12.0
 40
12.0
 40
13.0
 40
13.0
 40
13.0
 40
14.0
 40
14.0
 40
14.0
 40
14.0
 10
24.21076054080499
 20
-47.21051724381164
 30
0.0
 10
23.62373180527453
 20
-47.19121176424261
 30
0.0
 10
23.1108577459379
 20
-47.55518204890438
 30
0.0
 10
22.85302398977313
 20
-48.09541778356729
 30
0.0
 10
21.62363460896199
 20
-47.33141698555276
 30
0.0
 10
19.62928215046962
 20
-46.79415479265719
 30
0.0
 10
17.3587527316958
 20
-46.71948441171851
 30
0.0
 10
15.08779857465812
 20
-46.64480006250551
 30
0.0
 10
13.0680668500709
 20
-47.05020953566977
 30
0.0
 10
11.80033249050636
 20
-47.73233557165659
 30
0.0
 10
11.57170472698576
 20
-47.17589912748683
 30
0.0
 10
11.07892529994598
 20
-46.77865358602789
 30
0.0
 10
10.49175498499733
 20
-46.75934345037084
 30
0.0
 10
9.668187486305443
 20
-46.73225897467191
 30
0.0
 10
8.980846468819452
 20
-47.45258052135568
 30
0.0
 10
8.956528878861973
 20
-48.36823396488941
 30
0.0
 10
8.956528878861973
 20
-48.36823396488941
 30
0.0
 10
8.903692361851604
 20
-50.35773781099907
 30
0.0
 10
8.903692361851604
 20
-50.35773781099907
 30
0.0
 10
8.87937477189541
 20
-51.27339125453599
 30
0.0
 10
9.527289510408026
 20
-52.0376250514305
 30
0.0
 10
10.35085700909959
 20
-52.06470952712494
 30
0.0
 10
10.93802732405114
 20
-52.08401966278454
 30
0.0
 10
11.45104833765336
 20
-51.71985165004119
 30
0.0
 10
11.70880656613798
 20
-51.17941087058845
 30
0.0
 10
12.93812929800104
 20
-51.94363454443418
 30
0.0
 10
14.93280118616929
 20
-52.48106478972996
 30
0.0
 10
17.20375534320729
 20
-52.55574913894168
 30
0.0
 10
19.47428476198175
 20
-52.63041951988228
 30
0.0
 10
21.49368869602401
 20
-52.22515681413561
 30
0.0
 10
22.76145693759847
 20
-51.54327946689047
 30
0.0
 10
22.9901709784902
 20
-52.09951618751284
 30
0.0
 10
23.48283382937903
 20
-52.49657784100055
 30
0.0
 10
24.06986256490405
 20
-52.51588332057021
 30
0.0
 10
24.89343006359754
 20
-52.5429677962653
 30
0.0
 10
25.58077108108578
 20
-51.82264624958153
 30
0.0
 10
25.6050886710423
 20
-50.90699280604589
 30
0.0
 10
25.6050886710423
 20
-50.90699280604589
 30
0.0
 10
25.65792518805235
 20
-48.91748895993686
 30
0.0
 10
25.65792518805235
 20
-48.91748895993686
 30
0.0
 10
25.68224277800854
 20
-48.00183551640122
 30
0.0
 10
25.03432803949336
 20
-47.23760171950607
 30
0.0
 10
24.21076054080499
 20
-47.21051724381164
 30
0.0
  0
HATCH
  5
94
330
7A
100
AcDbEntity
  8
Layer 1
 62
    18
420
        0
440
 33554687
100
AcDbHatch
 10
0.0
 20
0.0
 30
0.0
210
0.0
220
0.0
230
1.0
  2
SOLID
 70
     1
 71
     1
 91
        1
 92
        1
 93
        1
 72
     4
 94
        3
 73
     0
 74
     0
 95
       47
 96
       43
 40
0.0
 40
0.0
 40
0.0
 40
0.0
 40
1.0
 40
1.0
 40
1.0
 40
2.0
 40
2.0
 40
2.0
 40
3.0
 40
3.0
 40
3.0
 40
4.0
 40
4.0
 40
4.0
 40
5.0
 40
5.0
 40
5.0
 40
6.0
 40
6.0
 40
6.0
 40
7.0
 40
7.0
 40
7.0
 40
8.0
 40
8.0
 40
8.0
 40
9.0
 40
9.0
 40
9.0
 40
10.0
 40
10.0
 40
10.0
 40
11.0
 40
11.0
 40
11.0
 40
12.0
 40
12.0
 40
12.0
 40
13.0
 40
13.0
 40
13.0
 40
14.0
 40
14.0
 40
14.0
 40
14.0
 10
24.21076054080499
 20
-47.21051724381164
 10
23.62373180527453
 20
-47.19121176424261
 10
23.1108577459379
 20
-47.55518204890438
 10
22.85302398977313
 20
-48.09541778356729
 10
21.62363460896199
 20
-47.33141698555276
 10
19.62928215046962
 20
-46.79415479265719
 10
17.3587527316958
 20
-46.71948441171851
 10
15.08779857465812
 20
-46.64480006250551
 10
13.0680668500709
 20
-47.05020953566977
 10
11.80033249050636
 20
-47.73233557165659
 10
11.57170472698576
 20
-47.17589912748683
 10
11.07892529994598
 20
-46.77865358602789
 10
10.49175498499733
 20
-46.75934345037084
 10
9.668187486305443
 20
-46.73225897467191
 10
8.980846468819452
 20
-47.45258052135568
 10
8.956528878861973
 20
-48.36823396488941
 10
8.956528878861973
 20
-48.36823396488941
 10
8.903692361851604
 20
-50.35773781099907
 10
8.903692361851604
 20
-50.35773781099907
 10
8.87937477189541
 20
-51.27339125453599
 10
9.527289510408026
 20
-52.0376250514305
 10
10.35085700909959
 20
-52.06470952712494
 10
10.93802732405114
 20
-52.08401966278454
 10
11.45104833765336
 20
-51.71985165004119
 10
11.70880656613798
 20
-51.17941087058845
 10
12.93812929800104
 20
-51.94363454443418
 10
14.93280118616929
 20
-52.48106478972996
 10
17.20375534320729
 20
-52.55574913894168
 10
19.47428476198175
 20
-52.63041951988228
 10
21.49368869602401
 20
-52.22515681413561
 10
22.76145693759847
 20
-51.54327946689047
 10
22.9901709784902
 20
-52.09951618751284
 10
23.48283382937903
 20
-52.49657784100055
 10
24.06986256490405
 20
-52.51588332057021
 10
24.89343006359754
 20
-52.5429677962653
 10
25.58077108108578
 20
-51.82264624958153
 10
25.6050886710423
 20
-50.90699280604589
 10
25.6050886710423
 20
-50.90699280604589
 10
25.65792518805235
 20
-48.91748895993686
 10
25.65792518805235
 20
-48.91748895993686
 10
25.68224277800854
 20
-48.00183551640122
 10
25.03432803949336
 20
-47.23760171950607
 10
24.21076054080499
 20
-47.21051724381164
 97
        0
 97
        1
330
93
 75
     2
 76
     1
 98
        1
 10
0.0
 20
0.0
450
        0
451
        0
460
0.0
461
0.0
452
        0
462
0.0
453
        0
470

  0
SPLINE
  5
95
330
7A
100
AcDbEntity
  8
Layer 1
100
AcDbSpline
210
0.0
220
0.0
230
1.0
 70
     9
 71
     3
 72
    47
 73
    43
 74
     0
 42
0.0000000001
 43
0.0000000001
 40
0.0
 40
0.0
 40
0.0
 40
0.0
 40
1.0
 40
1.0
 40
1.0
 40
2.0
 40
2.0
 40
2.0
 40
3.0
 40
3.0
 40
3.0
 40
4.0
 40
4.0
 40
4.0
 40
5.0
 40
5.0
 40
5.0
 40
6.0
 40
6.0
 40
6.0
 40
7.0
 40
7.0
 40
7.0
 40
8.0
 40
8.0
 40
8.0
 40
9.0
 40
9.0
 40
9.0
 40
10.0
 40
10.0
 40
10.0
 40
11.0
 40
11.0
 40
11.0
 40
12.0
 40
12.0
 40
12.0
 40
13.0
 40
13.0
 40
13.0
 40
14.0
 40
14.0
 40
14.0
 40
14.0
 10
27.34864649490749
 20
-52.56990619429611
 30
0.0
 10
26.79047284933807
 20
-52.75271106094368
 30
0.0
 10
26.43317204966281
 20
-53.27025362673662
 30
0.0
 10
26.37584100055859
 20
-53.86611103050948
 30
0.0
 10
24.95919845697889
 20
-53.56909356851391
 30
0.0
 10
22.90141988967118
 20
-53.74696925697027
 30
0.0
 10
20.74249715498261
 20
-54.45402804727423
 30
0.0
 10
18.58317055981335
 20
-55.16121910405737
 30
0.0
 10
16.82422907872382
 20
-56.23350542138365
 30
0.0
 10
15.86657743766533
 20
-57.30837735318608
 30
0.0
 10
15.46128939020201
 20
-56.86381715564436
 30
0.0
 10
14.86229973574552
 20
-56.65925181699936
 30
0.0
 10
14.30399147001929
 20
-56.84210077247076
 30
0.0
 10
13.52090600027019
 20
-57.09856546944251
 30
0.0
 10
13.12165965828355
 20
-58.01065272587587
 30
0.0
 10
13.41224575514779
 20
-58.87931393379635
 30
0.0
 10
13.41224575514779
 20
-58.87931393379635
 30
0.0
 10
14.04362235447373
 20
-60.76671448509525
 30
0.0
 10
14.04362235447373
 20
-60.76671448509525
 30
0.0
 10
14.33420845134022
 20
-61.63537569301702
 30
0.0
 10
15.20458406818714
 20
-62.13165493930597
 30
0.0
 10
15.98766953793239
 20
-61.87519024233294
 30
0.0
 10
16.54597780366535
 20
-61.69234128685897
 30
0.0
 10
16.90334899611136
 20
-61.17456263462483
 30
0.0
 10
16.96053889202738
 20
-60.5785384268503
 30
0.0
 10
18.37719510501296
 20
-60.87578811474095
 30
0.0
 10
20.43533133017502
 20
-60.69796098330311
 30
0.0
 10
22.59465792534397
 20
-59.99076992652319
 30
0.0
 10
24.75358066003285
 20
-59.28371113621665
 30
0.0
 10
26.51226439253099
 20
-58.21167492482438
 30
0.0
 10
27.47003299662911
 20
-57.13702505996908
 30
0.0
 10
27.87533374251366
 20
-57.5813680662777
 30
0.0
 10
28.47415091725438
 20
-57.78580053080586
 30
0.0
 10
29.03232456282058
 20
-57.60299566415636
 30
0.0
 10
29.81541003257
 20
-57.34653096718205
 30
0.0
 10
30.21465637455793
 20
-56.43444371075061
 30
0.0
 10
29.92407027769369
 20
-55.56578250283013
 30
0.0
 10
29.92407027769369
 20
-55.56578250283013
 30
0.0
 10
29.29269367836615
 20
-53.67838195152994
 30
0.0
 10
29.29269367836615
 20
-53.67838195152994
 30
0.0
 10
29.00210758150029
 20
-52.80972074360946
 30
0.0
 10
28.13173196465145
 20
-52.31344149731858
 30
0.0
 10
27.34864649490749
 20
-52.56990619429611
 30
0.0
  0
HATCH
  5
96
330
7A
100
AcDbEntity
  8
Layer 1
 62
    18
420
        0
440
 33554687
100
AcDbHatch
 10
0.0
 20
0.0
 30
0.0
210
0.0
220
0.0
230
1.0
  2
SOLID
 70
     1
 71
     1
 91
        1
 92
        1
 93
        1
 72
     4
 94
        3
 73
     0
 74
     0
 95
       47
 96
       43
 40
0.0
 40
0.0
 40
0.0
 40
0.0
 40
1.0
 40
1.0
 40
1.0
 40
2.0
 40
2.0
 40
2.0
 40
3.0
 40
3.0
 40
3.0
 40
4.0
 40
4.0
 40
4.0
 40
5.0
 40
5.0
 40
5.0
 40
6.0
 40
6.0
 40
6.0
 40
7.0
 40
7.0
 40
7.0
 40
8.0
 40
8.0
 40
8.0
 40
9.0
 40
9.0
 40
9.0
 40
10.0
 40
10.0
 40
10.0
 40
11.0
 40
11.0
 40
11.0
 40
12.0
 40
12.0
 40
12.0
 40
13.0
 40
13.0
 40
13.0
 40
14.0
 40
14.0
 40
14.0
 40
14.0
 10
27.34864649490749
 20
-52.56990619429611
 10
26.79047284933807
 20
-52.75271106094368
 10
26.43317204966281
 20
-53.27025362673662
 10
26.37584100055859
 20
-53.86611103050948
 10
24.95919845697889
 20
-53.56909356851391
 10
22.90141988967118
 20
-53.74696925697027
 10
20.74249715498261
 20
-54.45402804727423
 10
18.58317055981335
 20
-55.16121910405737
 10
16.82422907872382
 20
-56.23350542138365
 10
15.86657743766533
 20
-57.30837735318608
 10
15.46128939020201
 20
-56.86381715564436
 10
14.86229973574552
 20
-56.65925181699936
 10
14.30399147001929
 20
-56.84210077247076
 10
13.52090600027019
 20
-57.09856546944251
 10
13.12165965828355
 20
-58.01065272587587
 10
13.41224575514779
 20
-58.87931393379635
 10
13.41224575514779
 20
-58.87931393379635
 10
14.04362235447373
 20
-60.76671448509525
 10
14.04362235447373
 20
-60.76671448509525
 10
14.33420845134022
 20
-61.63537569301702
 10
15.20458406818714
 20
-62.13165493930597
 10
15.98766953793239
 20
-61.87519024233294
 10
16.54597780366535
 20
-61.69234128685897
 10
16.90334899611136
 20
-61.17456263462483
 10
16.96053889202738
 20
-60.5785384268503
 10
18.37719510501296
 20
-60.87578811474095
 10
20.43533133017502
 20
-60.69796098330311
 10
22.59465792534397
 20
-59.99076992652319
 10
24.75358066003285
 20
-59.28371113621665
 10
26.51226439253099
 20
-58.21167492482438
 10
27.47003299662911
 20
-57.13702505996908
 10
27.87533374251366
 20
-57.5813680662777
 10
28.47415091725438
 20
-57.78580053080586
 10
29.03232456282058
 20
-57.60299566415636
 10
29.81541003257
 20
-57.34653096718205
 10
30.21465637455793
 20
-56.43444371075061
 10
29.92407027769369
 20
-55.56578250283013
 10
29.92407027769369
 20
-55.56578250283013
 10
29.29269367836615
 20
-53.67838195152994
 10
29.29269367836615
 20
-53.67838195152994
 10
29.00210758150029
 20
-52.80972074360946
 10
28.13173196465145
 20
-52.31344149731858
 10
27.34864649490749
 20
-52.56990619429611
 97
        0
 97
        1
330
95
 75
     2
 76
     1
 98
        1
 10
0.0
 20
0.0
450
        0
451
        0
460
0.0
461
0.0
452
        0
462
0.0
453
        0
470

  0
SPLINE
  5
97
330
7A
100
AcDbEntity
  8
Layer 1
100
AcDbSpline
210
0.0
220
0.0
230
1.0
 70
     9
 71
     3
 72
    47
 73
    43
 74
     0
 42
0.0000000001
 43
0.0000000001
 40
0.0
 40
0.0
 40
0.0
 40
0.0
 40
1.0
 40
1.0
 40
1.0
 40
2.0
 40
2.0
 40
2.0
 40
3.0
 40
3.0
 40
3.0
 40
4.0
 40
4.0
 40
4.0
 40
5.0
 40
5.0
 40
5.0
 40
6.0
 40
6.0
 40
6.0
 40
7.0
 40
7.0
 40
7.0
 40
8.0
 40
8.0
 40
8.0
 40
9.0
 40
9.0
 40
9.0
 40
10.0
 40
10.0
 40
10.0
 40
11.0
 40
11.0
 40
11.0
 40
12.0
 40
12.0
 40
12.0
 40
13.0
 40
13.0
 40
13.0
 40
14.0
 40
14.0
 40
14.0
 40
14.0
 10
32.1339476087523
 20
-56.5483603497954
 30
0.0
 10
31.67137776940216
 20
-56.9103059003973
 30
0.0
 10
31.51165898396853
 20
-57.51858550587201
 30
0.0
 10
31.66065093476764
 20
-58.09835640322749
 30
0.0
 10
30.22752880688075
 20
-58.30147320601358
 30
0.0
 10
28.35329200666976
 20
-59.16941837095253
 30
0.0
 10
26.56414887803484
 20
-60.5693635029363
 30
0.0
 10
24.77467106201709
 20
-61.96957051669244
 30
0.0
 10
23.48597084182216
 20
-63.57671855676242
 30
0.0
 10
22.95155580549488
 20
-64.91344848623204
 30
0.0
 10
22.41910947108092
 20
-64.63346085860957
 30
0.0
 10
21.78625838998289
 20
-64.64508381325149
 30
0.0
 10
21.32357698817234
 20
-65.00711665777686
 30
0.0
 10
20.67461815105152
 20
-65.5149054144941
 30
0.0
 10
20.6098078893943
 20
-66.50843469686217
 30
0.0
 10
21.17881855950963
 20
-67.2262365017722
 30
0.0
 10
21.17881855950963
 20
-67.2262365017722
 30
0.0
 10
22.41514757096199
 20
-68.78585434812248
 30
0.0
 10
22.41514757096199
 20
-68.78585434812248
 30
0.0
 10
22.98415824108214
 20
-69.50365615303123
 30
0.0
 10
23.97150948900973
 20
-69.67390396627717
 30
0.0
 10
24.62046832612541
 20
-69.16611520955865
 30
0.0
 10
25.08314972793949
 20
-68.80408236503007
 30
0.0
 10
25.24285430908927
 20
-68.19555681202492
 30
0.0
 10
25.0936728415679
 20
-67.6156771433037
 30
0.0
 10
26.52688689779834
 20
-67.41277403398979
 30
0.0
 10
28.4014765164984
 20
-66.54475273732943
 30
0.0
 10
30.19095433251615
 20
-65.14454572357138
 30
0.0
 10
31.98009746115074
 20
-63.7446005915876
 30
0.0
 10
33.26864050001159
 20
-62.13777547773776
 30
0.0
 10
33.8032411262397
 20
-60.80121451711275
 30
0.0
 10
34.33562544388774
 20
-61.08099360888699
 30
0.0
 10
34.96826910735683
 20
-61.06930445217908
 30
0.0
 10
35.43083894670633
 20
-60.70735890157719
 30
0.0
 10
36.07979778382522
 20
-60.19957014485739
 30
0.0
 10
36.14460804548598
 20
-59.20604086249189
 30
0.0
 10
35.57559737536616
 20
-58.48823905758056
 30
0.0
 10
35.57559737536616
 20
-58.48823905758056
 30
0.0
 10
34.3392683639154
 20
-56.92862121123028
 30
0.0
 10
34.3392683639154
 20
-56.92862121123028
 30
0.0
 10
33.77025769379685
 20
-56.21081940632153
 30
0.0
 10
32.78290644586669
 20
-56.04057159307496
 30
0.0
 10
32.1339476087523
 20
-56.5483603497954
 30
0.0
  0
HATCH
  5
98
330
7A
100
AcDbEntity
  8
Layer 1
 62
    18
420
        0
440
 33554687
100
AcDbHatch
 10
0.0
 20
0.0
 30
0.0
210
0.0
220
0.0
230
1.0
  2
SOLID
 70
     1
 71
     1
 91
        1
 92
        1
 93
        1
 72
     4
 94
        3
 73
     0
 74
     0
 95
       47
 96
       43
 40
0.0
 40
0.0
 40
0.0
 40
0.0
 40
1.0
 40
1.0
 40
1.0
 40
2.0
 40
2.0
 40
2.0
 40
3.0
 40
3.0
 40
3.0
 40
4.0
 40
4.0
 40
4.0
 40
5.0
 40
5.0
 40
5.0
 40
6.0
 40
6.0
 40
6.0
 40
7.0
 40
7.0
 40
7.0
 40
8.0
 40
8.0
 40
8.0
 40
9.0
 40
9.0
 40
9.0
 40
10.0
 40
10.0
 40
10.0
 40
11.0
 40
11.0
 40
11.0
 40
12.0
 40
12.0
 40
12.0
 40
13.0
 40
13.0
 40
13.0
 40
14.0
 40
14.0
 40
14.0
 40
14.0
 10
32.1339476087523
 20
-56.5483603497954
 10
31.67137776940216
 20
-56.9103059003973
 10
31.51165898396853
 20
-57.51858550587201
 10
31.66065093476764
 20
-58.09835640322749
 10
30.22752880688075
 20
-58.30147320601358
 10
28.35329200666976
 20
-59.16941837095253
 10
26.56414887803484
 20
-60.5693635029363
 10
24.77467106201709
 20
-61.96957051669244
 10
23.48597084182216
 20
-63.57671855676242
 10
22.95155580549488
 20
-64.91344848623204
 10
22.41910947108092
 20
-64.63346085860957
 10
21.78625838998289
 20
-64.64508381325149
 10
21.32357698817234
 20
-65.00711665777686
 10
20.67461815105152
 20
-65.5149054144941
 10
20.6098078893943
 20
-66.50843469686217
 10
21.17881855950963
 20
-67.2262365017722
 10
21.17881855950963
 20
-67.2262365017722
 10
22.41514757096199
 20
-68.78585434812248
 10
22.41514757096199
 20
-68.78585434812248
 10
22.98415824108214
 20
-69.50365615303123
 10
23.97150948900973
 20
-69.67390396627717
 10
24.62046832612541
 20
-69.16611520955865
 10
25.08314972793949
 20
-68.80408236503007
 10
25.24285430908927
 20
-68.19555681202492
 10
25.0936728415679
 20
-67.6156771433037
 10
26.52688689779834
 20
-67.41277403398979
 10
28.4014765164984
 20
-66.54475273732943
 10
30.19095433251615
 20
-65.14454572357138
 10
31.98009746115074
 20
-63.7446005915876
 10
33.26864050001159
 20
-62.13777547773776
 10
33.8032411262397
 20
-60.80121451711275
 10
34.33562544388774
 20
-61.08099360888699
 10
34.96826910735683
 20
-61.06930445217908
 10
35.43083894670633
 20
-60.70735890157719
 10
36.07979778382522
 20
-60.19957014485739
 10
36.14460804548598
 20
-59.20604086249189
 10
35.57559737536616
 20
-58.48823905758056
 10
35.57559737536616
 20
-58.48823905758056
 10
34.3392683639154
 20
-56.92862121123028
 10
34.3392683639154
 20
-56.92862121123028
 10
33.77025769379685
 20
-56.21081940632153
 10
32.78290644586669
 20
-56.04057159307496
 10
32.1339476087523
 20
-56.5483603497954
 97
        0
 97
        1
330
97
 75
     2
 76
     1
 98
        1
 10
0.0
 20
0.0
450
        0
451
        0
460
0.0
461
0.0
452
        0
462
0.0
453
        0
470

  0
SPLINE
  5
99
330
7A
100
AcDbEntity
  8
Layer 1
100
AcDbSpline
210
0.0
220
0.0
230
1.0
 70
     9
 71
     3
 72
    47
 73
    43
 74
     0
 42
0.0000000001
 43
0.0000000001
 40
0.0
 40
0.0
 40
0.0
 40
0.0
 40
1.0
 40
1.0
 40
1.0
 40
2.0
 40
2.0
 40
2.0
 40
3.0
 40
3.0
 40
3.0
 40
4.0
 40
4.0
 40
4.0
 40
5.0
 40
5.0
 40
5.0
 40
6.0
 40
6.0
 40
6.0
 40
7.0
 40
7.0
 40
7.0
 40
8.0
 40
8.0
 40
8.0
 40
9.0
 40
9.0
 40
9.0
 40
10.0
 40
10.0
 40
10.0
 40
11.0
 40
11.0
 40
11.0
 40
12.0
 40
12.0
 40
12.0
 40
13.0
 40
13.0
 40
13.0
 40
14.0
 40
14.0
 40
14.0
 40
14.0
 10
37.97146079350183
 20
-58.64020713085039
 30
0.0
 10
37.66163833754199
 20
-59.13919158317436
 30
0.0
 10
37.72092460720067
 20
-59.76529006351491
 30
0.0
 10
38.06027194363792
 20
-60.2584191339185
 30
0.0
 10
36.78449596550283
 20
-60.94215235866213
 30
0.0
 10
35.32323902961173
 20
-62.40188540272418
 30
0.0
 10
34.12489735010205
 20
-64.33187419193058
 30
0.0
 10
32.92633150192048
 20
-66.26222401591681
 30
0.0
 10
32.26916865275265
 20
-68.21460975390484
 30
0.0
 10
32.22722534205651
 20
-69.65359797278704
 30
0.0
 10
31.63095748220269
 20
-69.57386836751568
 30
0.0
 10
31.04073117270571
 20
-69.80249139238599
 30
0.0
 10
30.73083399385673
 20
-70.30159618963573
 30
0.0
 10
30.29617093623626
 20
-71.00164263100044
 30
0.0
 10
30.57710414156091
 20
-71.95682708391185
 30
0.0
 10
31.3583187211104
 20
-72.43507007083109
 30
0.0
 10
31.3583187211104
 20
-72.43507007083109
 30
0.0
 10
33.05571790813696
 20
-73.4741818314675
 30
0.0
 10
33.05571790813696
 20
-73.4741818314675
 30
0.0
 10
33.83693248768806
 20
-73.95242481838675
 30
0.0
 10
34.82258795381502
 20
-73.77261907099621
 30
0.0
 10
35.25725101143003
 20
-73.07257262963535
 30
0.0
 10
35.56714819028254
 20
-72.57346783238112
 30
0.0
 10
35.50776397396564
 20
-71.94714330247951
 30
0.0
 10
35.16820126918836
 20
-71.45397729597672
 30
0.0
 10
36.44413707828036
 20
-70.77041309721714
 30
0.0
 10
37.90569910788268
 20
-69.31048719375066
 30
0.0
 10
39.10426495606714
 20
-67.38013736976636
 30
0.0
 10
40.30260663557714
 20
-65.45014858056187
 30
0.0
 10
40.95973298809862
 20
-63.49812013140283
 30
0.0
 10
41.00190868874951
 20
-62.05922672280739
 30
0.0
 10
41.59804657785381
 20
-62.13878185491689
 30
0.0
 10
42.18805535511914
 20
-61.91016802317013
 30
0.0
 10
42.49787781107545
 20
-61.41118357084679
 30
0.0
 10
42.93254086869431
 20
-60.71113712948143
 30
0.0
 10
42.65160766337191
 20
-59.75595267656939
 30
0.0
 10
41.87039308382082
 20
-59.27770968965015
 30
0.0
 10
41.87039308382082
 20
-59.27770968965015
 30
0.0
 10
40.17299389679394
 20
-58.23859792901245
 30
0.0
 10
40.17299389679394
 20
-58.23859792901245
 30
0.0
 10
39.39177931724284
 20
-57.76035494209449
 30
0.0
 10
38.40612385111427
 20
-57.94016068948566
 30
0.0
 10
37.97146079350183
 20
-58.64020713085039
 30
0.0
  0
HATCH
  5
9A
330
7A
100
AcDbEntity
  8
Layer 1
 62
    18
420
        0
440
 33554687
100
AcDbHatch
 10
0.0
 20
0.0
 30
0.0
210
0.0
220
0.0
230
1.0
  2
SOLID
 70
     1
 71
     1
 91
        1
 92
        1
 93
        1
 72
     4
 94
        3
 73
     0
 74
     0
 95
       47
 96
       43
 40
0.0
 40
0.0
 40
0.0
 40
0.0
 40
1.0
 40
1.0
 40
1.0
 40
2.0
 40
2.0
 40
2.0
 40
3.0
 40
3.0
 40
3.0
 40
4.0
 40
4.0
 40
4.0
 40
5.0
 40
5.0
 40
5.0
 40
6.0
 40
6.0
 40
6.0
 40
7.0
 40
7.0
 40
7.0
 40
8.0
 40
8.0
 40
8.0
 40
9.0
 40
9.0
 40
9.0
 40
10.0
 40
10.0
 40
10.0
 40
11.0
 40
11.0
 40
11.0
 40
12.0
 40
12.0
 40
12.0
 40
13.0
 40
13.0
 40
13.0
 40
14.0
 40
14.0
 40
14.0
 40
14.0
 10
37.97146079350183
 20
-58.64020713085039
 10
37.66163833754199
 20
-59.13919158317436
 10
37.72092460720067
 20
-59.76529006351491
 10
38.06027194363792
 20
-60.2584191339185
 10
36.78449596550283
 20
-60.94215235866213
 10
35.32323902961173
 20
-62.40188540272418
 10
34.12489735010205
 20
-64.33187419193058
 10
32.92633150192048
 20
-66.26222401591681
 10
32.26916865275265
 20
-68.21460975390484
 10
32.22722534205651
 20
-69.65359797278704
 10
31.63095748220269
 20
-69.57386836751568
 10
31.04073117270571
 20
-69.80249139238599
 10
30.73083399385673
 20
-70.30159618963573
 10
30.29617093623626
 20
-71.00164263100044
 10
30.57710414156091
 20
-71.95682708391185
 10
31.3583187211104
 20
-72.43507007083109
 10
31.3583187211104
 20
-72.43507007083109
 10
33.05571790813696
 20
-73.4741818314675
 10
33.05571790813696
 20
-73.4741818314675
 10
33.83693248768806
 20
-73.95242481838675
 10
34.82258795381502
 20
-73.77261907099621
 10
35.25725101143003
 20
-73.07257262963535
 10
35.56714819028254
 20
-72.57346783238112
 10
35.50776397396564
 20
-71.94714330247951
 10
35.16820126918836
 20
-71.45397729597672
 10
36.44413707828036
 20
-70.77041309721714
 10
37.90569910788268
 20
-69.31048719375066
 10
39.10426495606714
 20
-67.38013736976636
 10
40.30260663557714
 20
-65.45014858056187
 10
40.95973298809862
 20
-63.49812013140283
 10
41.00190868874951
 20
-62.05922672280739
 10
41.59804657785381
 20
-62.13878185491689
 10
42.18805535511914
 20
-61.91016802317013
 10
42.49787781107545
 20
-61.41118357084679
 10
42.93254086869431
 20
-60.71113712948143
 10
42.65160766337191
 20
-59.75595267656939
 10
41.87039308382082
 20
-59.27770968965015
 10
41.87039308382082
 20
-59.27770968965015
 10
40.17299389679394
 20
-58.23859792901245
 10
40.17299389679394
 20
-58.23859792901245
 10
39.39177931724284
 20
-57.76035494209449
 10
38.40612385111427
 20
-57.94016068948566
 10
37.97146079350183
 20
-58.64020713085039
 97
        0
 97
        1
330
99
 75
     2
 76
     1
 98
        1
 10
0.0
 20
0.0
450
        0
451
        0
460
0.0
461
0.0
452
        0
462
0.0
453
        0
470

  0
SPLINE
  5
9B
330
7A
100
AcDbEntity
  8
Layer 1
100
AcDbSpline
210
0.0
220
0.0
230
1.0
 70
     9
 71
     3
 72
    47
 73
    43
 74
     0
 42
0.0000000001
 43
0.0000000001
 40
0.0
 40
0.0
 40
0.0
 40
0.0
 40
1.0
 40
1.0
 40
1.0
 40
2.0
 40
2.0
 40
2.0
 40
3.0
 40
3.0
 40
3.0
 40
4.0
 40
4.0
 40
4.0
 40
5.0
 40
5.0
 40
5.0
 40
6.0
 40
6.0
 40
6.0
 40
7.0
 40
7.0
 40
7.0
 40
8.0
 40
8.0
 40
8.0
 40
9.0
 40
9.0
 40
9.0
 40
10.0
 40
10.0
 40
10.0
 40
11.0
 40
11.0
 40
11.0
 40
12.0
 40
12.0
 40
12.0
 40
13.0
 40
13.0
 40
13.0
 40
14.0
 40
14.0
 40
14.0
 40
14.0
 10
44.20831623758397
 20
-58.60870285941149
 30
0.0
 10
44.0866130209719
 20
-59.18330164547468
 30
0.0
 10
44.355247735521
 20
-59.75193998308064
 30
0.0
 10
44.84204672270633
 20
-60.10030708959082
 30
0.0
 10
43.87475693375456
 20
-61.17708280123927
 30
0.0
 10
42.99688571455135
 20
-63.04669091929836
 30
0.0
 10
42.52615793420625
 20
-65.26914336290923
 30
0.0
 10
42.05534209681826
 20
-67.49201155123299
 30
0.0
 10
42.1011656348051
 20
-69.55151957102595
 30
0.0
 10
42.55099370346081
 20
-70.91903594900748
 30
0.0
 10
41.96314172944095
 20
-71.04679442149389
 30
0.0
 10
41.48581477880167
 20
-71.46248007931238
 30
0.0
 10
41.36408220984561
 20
-72.03721744694526
 30
0.0
 10
41.1933396079516
 20
-72.84334644259117
 30
0.0
 10
41.78230881633723
 20
-73.64610174560244
 30
0.0
 10
42.67958773244741
 20
-73.83022974602939
 30
0.0
 10
42.67958773244741
 20
-73.83022974602939
 30
0.0
 10
44.6291679663676
 20
-74.23029744370397
 30
0.0
 10
44.6291679663676
 20
-74.23029744370397
 30
0.0
 10
45.52644688248098
 20
-74.41442544413028
 30
0.0
 10
46.39224226762113
 20
-73.9101981583078
 30
0.0
 10
46.56298486951129
 20
-73.10406916266188
 30
0.0
 10
46.68471743846671
 20
-72.52933179502645
 30
0.0
 10
46.41591375336095
 20
-71.96051417858223
 30
0.0
 10
45.9288996705057
 20
-71.61218556427342
 30
0.0
 10
46.89639723866103
 20
-70.53551446391229
 30
0.0
 10
47.77448980008737
 20
-68.66562124140909
 30
0.0
 10
48.24530563747536
 20
-66.44275305308596
 30
0.0
 10
48.71603341782111
 20
-64.22030060947382
 30
0.0
 10
48.6702970399006
 20
-62.16114100098542
 30
0.0
 10
48.22071975229122
 20
-60.7936347693752
 30
0.0
 10
48.80839017617715
 20
-60.66575641015027
 30
0.0
 10
49.28551568064079
 20
-60.25015336118809
 30
0.0
 10
49.40721889725029
 20
-59.67555457512619
 30
0.0
 10
49.5779614991366
 20
-58.86942557947771
 30
0.0
 10
48.98899229075546
 20
-58.06667027646709
 30
0.0
 10
48.09171337464401
 20
-57.88254227604206
 30
0.0
 10
48.09171337464401
 20
-57.88254227604206
 30
0.0
 10
46.14213314072381
 20
-57.48247457836876
 30
0.0
 10
46.14213314072381
 20
-57.48247457836876
 30
0.0
 10
45.24485422461171
 20
-57.29834657794182
 30
0.0
 10
44.37905883946835
 20
-57.80257386376558
 30
0.0
 10
44.20831623758397
 20
-58.60870285941149
 30
0.0
  0
HATCH
  5
9C
330
7A
100
AcDbEntity
  8
Layer 1
 62
    18
420
        0
440
 33554687
100
AcDbHatch
 10
0.0
 20
0.0
 30
0.0
210
0.0
220
0.0
230
1.0
  2
SOLID
 70
     1
 71
     1
 91
        1
 92
        1
 93
        1
 72
     4
 94
        3
 73
     0
 74
     0
 95
       47
 96
       43
 40
0.0
 40
0.0
 40
0.0
 40
0.0
 40
1.0
 40
1.0
 40
1.0
 40
2.0
 40
2.0
 40
2.0
 40
3.0
 40
3.0
 40
3.0
 40
4.0
 40
4.0
 40
4.0
 40
5.0
 40
5.0
 40
5.0
 40
6.0
 40
6.0
 40
6.0
 40
7.0
 40
7.0
 40
7.0
 40
8.0
 40
8.0
 40
8.0
 40
9.0
 40
9.0
 40
9.0
 40
10.0
 40
10.0
 40
10.0
 40
11.0
 40
11.0
 40
11.0
 40
12.0
 40
12.0
 40
12.0
 40
13.0
 40
13.0
 40
13.0
 40
14.0
 40
14.0
 40
14.0
 40
14.0
 10
44.20831623758397
 20
-58.60870285941149
 10
44.0866130209719
 20
-59.18330164547468
 10
44.355247735521
 20
-59.75193998308064
 10
44.84204672270633
 20
-60.10030708959082
 10
43.87475693375456
 20
-61.17708280123927
 10
42.99688571455135
 20
-63.04669091929836
 10
42.52615793420625
 20
-65.26914336290923
 10
42.05534209681826
 20
-67.49201155123299
 10
42.1011656348051
 20
-69.55151957102595
 10
42.55099370346081
 20
-70.91903594900748
 10
41.96314172944095
 20
-71.04679442149389
 10
41.48581477880167
 20
-71.46248007931238
 10
41.36408220984561
 20
-72.03721744694526
 10
41.1933396079516
 20
-72.84334644259117
 10
41.78230881633723
 20
-73.64610174560244
 10
42.67958773244741
 20
-73.83022974602939
 10
42.67958773244741
 20
-73.83022974602939
 10
44.6291679663676
 20
-74.23029744370397
 10
44.6291679663676
 20
-74.23029744370397
 10
45.52644688248098
 20
-74.41442544413028
 10
46.39224226762113
 20
-73.9101981583078
 10
46.56298486951129
 20
-73.10406916266188
 10
46.68471743846671
 20
-72.52933179502645
 10
46.41591375336095
 20
-71.96051417858223
 10
45.9288996705057
 20
-71.61218556427342
 10
46.89639723866103
 20
-70.53551446391229
 10
47.77448980008737
 20
-68.66562124140909
 10
48.24530563747536
 20
-66.44275305308596
 10
48.71603341782111
 20
-64.22030060947382
 10
48.6702970399006
 20
-62.16114100098542
 10
48.22071975229122
 20
-60.7936347693752
 10
48.80839017617715
 20
-60.66575641015027
 10
49.28551568064079
 20
-60.25015336118809
 10
49.40721889725029
 20
-59.67555457512619
 10
49.5779614991366
 20
-58.86942557947771
 10
48.98899229075546
 20
-58.06667027646709
 10
48.09171337464401
 20
-57.88254227604206
 10
48.09171337464401
 20
-57.88254227604206
 10
46.14213314072381
 20
-57.48247457836876
 10
46.14213314072381
 20
-57.48247457836876
 10
45.24485422461171
 20
-57.29834657794182
 10
44.37905883946835
 20
-57.80257386376558
 10
44.20831623758397
 20
-58.60870285941149
 97
        0
 97
        1
330
9B
 75
     2
 76
     1
 98
        1
 10
0.0
 20
0.0
450
        0
451
        0
460
0.0
461
0.0
452
        0
462
0.0
453
        0
470

  0
SPLINE
  5
9D
330
7A
100
AcDbEntity
  8
Layer 1
100
AcDbSpline
210
0.0
220
0.0
230
1.0
 70
     9
 71
     3
 72
    47
 73
    43
 74
     0
 42
0.0000000001
 43
0.0000000001
 40
0.0
 40
0.0
 40
0.0
 40
0.0
 40
1.0
 40
1.0
 40
1.0
 40
2.0
 40
2.0
 40
2.0
 40
3.0
 40
3.0
 40
3.0
 40
4.0
 40
4.0
 40
4.0
 40
5.0
 40
5.0
 40
5.0
 40
6.0
 40
6.0
 40
6.0
 40
7.0
 40
7.0
 40
7.0
 40
8.0
 40
8.0
 40
8.0
 40
9.0
 40
9.0
 40
9.0
 40
10.0
 40
10.0
 40
10.0
 40
11.0
 40
11.0
 40
11.0
 40
12.0
 40
12.0
 40
12.0
 40
13.0
 40
13.0
 40
13.0
 40
14.0
 40
14.0
 40
14.0
 40
14.0
 10
50.02402206241591
 20
-56.45693746109134
 30
0.0
 10
50.1074177300941
 20
-57.03833285193049
 30
0.0
 10
50.55527623307845
 20
-57.47984947694352
 30
0.0
 10
51.13220654826609
 20
-57.6394875245487
 30
0.0
 10
50.59438316308917
 20
-58.98330353701991
 30
0.0
 10
50.41326687915931
 20
-61.0407994141247
 30
0.0
 10
50.73582743779354
 20
-63.28953999349903
 30
0.0
 10
51.0584483364556
 20
-65.53870123519359
 30
0.0
 10
51.80997672637854
 20
-67.45674142230213
 30
0.0
 10
52.70279535092941
 20
-68.58604263944599
 30
0.0
 10
52.19477426449724
 20
-68.90823318306051
 30
0.0
 10
51.88958349321065
 20
-69.46275475797333
 30
0.0
 10
51.97299927423487
 20
-70.0442903695844
 30
0.0
 10
52.08999859176984
 20
-70.85995461020208
 30
0.0
 10
52.91917945366011
 20
-71.41109878663428
 30
0.0
 10
53.82503497920271
 20
-71.27531093488729
 30
0.0
 10
53.82503497920271
 20
-71.27531093488729
 30
0.0
 10
55.79325020823999
 20
-70.98027523637755
 30
0.0
 10
55.79325020823999
 20
-70.98027523637755
 30
0.0
 10
56.69910573378516
 20
-70.84448738463056
 30
0.0
 10
57.3385947823831
 20
-70.07318941275292
 30
0.0
 10
57.22159546484556
 20
-69.25752517213715
 30
0.0
 10
57.13817968381942
 20
-68.67598956052287
 30
0.0
 10
56.69010084892729
 20
-68.23436272752499
 30
0.0
 10
56.11298180851593
 20
-68.07483481886106
 30
0.0
 10
56.65103627877089
 20
-66.73104555346846
 30
0.0
 10
56.83226231489063
 20
-64.67320582845885
 30
0.0
 10
56.50964141623178
 20
-62.42404458676684
 30
0.0
 10
56.18708085759883
 20
-60.17530400739251
 30
0.0
 10
55.43575416658021
 20
-58.2575609816306
 30
0.0
 10
54.54317450693993
 20
-57.12818301910917
 30
0.0
 10
55.0509838814672
 20
-56.80594236212817
 30
0.0
 10
55.35601392070866
 20
-56.25156765448325
 30
0.0
 10
55.27261825302597
 20
-55.67017226364537
 30
0.0
 10
55.15561893548651
 20
-54.85450802302768
 30
0.0
 10
54.32643807360008
 20
-54.30336384659549
 30
0.0
 10
53.42058254805556
 20
-54.4391516983412
 30
0.0
 10
53.42058254805556
 20
-54.4391516983412
 30
0.0
 10
51.45236731901828
 20
-54.73418739685094
 30
0.0
 10
51.45236731901828
 20
-54.73418739685094
 30
0.0
 10
50.54651179347505
 20
-54.86997524859857
 30
0.0
 10
49.90702274487453
 20
-55.64127322047813
 30
0.0
 10
50.02402206241591
 20
-56.45693746109134
 30
0.0
  0
HATCH
  5
9E
330
7A
100
AcDbEntity
  8
Layer 1
 62
    18
420
        0
440
 33554687
100
AcDbHatch
 10
0.0
 20
0.0
 30
0.0
210
0.0
220
0.0
230
1.0
  2
SOLID
 70
     1
 71
     1
 91
        1
 92
        1
 93
        1
 72
     4
 94
        3
 73
     0
 74
     0
 95
       47
 96
       43
 40
0.0
 40
0.0
 40
0.0
 40
0.0
 40
1.0
 40
1.0
 40
1.0
 40
2.0
 40
2.0
 40
2.0
 40
3.0
 40
3.0
 40
3.0
 40
4.0
 40
4.0
 40
4.0
 40
5.0
 40
5.0
 40
5.0
 40
6.0
 40
6.0
 40
6.0
 40
7.0
 40
7.0
 40
7.0
 40
8.0
 40
8.0
 40
8.0
 40
9.0
 40
9.0
 40
9.0
 40
10.0
 40
10.0
 40
10.0
 40
11.0
 40
11.0
 40
11.0
 40
12.0
 40
12.0
 40
12.0
 40
13.0
 40
13.0
 40
13.0
 40
14.0
 40
14.0
 40
14.0
 40
14.0
 10
50.02402206241591
 20
-56.45693746109134
 10
50.1074177300941
 20
-57.03833285193049
 10
50.55527623307845
 20
-57.47984947694352
 10
51.13220654826609
 20
-57.6394875245487
 10
50.59438316308917
 20
-58.98330353701991
 10
50.41326687915931
 20
-61.0407994141247
 10
50.73582743779354
 20
-63.28953999349903
 10
51.0584483364556
 20
-65.53870123519359
 10
51.80997672637854
 20
-67.45674142230213
 10
52.70279535092941
 20
-68.58604263944599
 10
52.19477426449724
 20
-68.90823318306051
 10
51.88958349321065
 20
-69.46275475797333
 10
51.97299927423487
 20
-70.0442903695844
 10
52.08999859176984
 20
-70.85995461020208
 10
52.91917945366011
 20
-71.41109878663428
 10
53.82503497920271
 20
-71.27531093488729
 10
53.82503497920271
 20
-71.27531093488729
 10
55.79325020823999
 20
-70.98027523637755
 10
55.79325020823999
 20
-70.98027523637755
 10
56.69910573378516
 20
-70.84448738463056
 10
57.3385947823831
 20
-70.07318941275292
 10
57.22159546484556
 20
-69.25752517213715
 10
57.13817968381942
 20
-68.67598956052287
 10
56.69010084892729
 20
-68.23436272752499
 10
56.11298180851593
 20
-68.07483481886106
 10
56.65103627877089
 20
-66.73104555346846
 10
56.83226231489063
 20
-64.67320582845885
 10
56.50964141623178
 20
-62.42404458676684
 10
56.18708085759883
 20
-60.17530400739251
 10
55.43575416658021
 20
-58.2575609816306
 10
54.54317450693993
 20
-57.12818301910917
 10
55.0509838814672
 20
-56.80594236212817
 10
55.35601392070866
 20
-56.25156765448325
 10
55.27261825302597
 20
-55.67017226364537
 10
55.15561893548651
 20
-54.85450802302768
 10
54.32643807360008
 20
-54.30336384659549
 10
53.42058254805556
 20
-54.4391516983412
 10
53.42058254805556
 20
-54.4391516983412
 10
51.45236731901828
 20
-54.73418739685094
 10
51.45236731901828
 20
-54.73418739685094
 10
50.54651179347505
 20
-54.86997524859857
 10
49.90702274487453
 20
-55.64127322047813
 10
50.02402206241591
 20
-56.45693746109134
 97
        0
 97
        1
330
9D
 75
     2
 76
     1
 98
        1
 10
0.0
 20
0.0
450
        0
451
        0
460
0.0
461
0.0
452
        0
462
0.0
453
        0
470

  0
SPLINE
  5
9F
330
7A
100
AcDbEntity
  8
Layer 1
100
AcDbSpline
210
0.0
220
0.0
230
1.0
 70
     9
 71
     3
 72
    47
 73
    43
 74
     0
 42
0.0000000001
 43
0.0000000001
 40
0.0
 40
0.0
 40
0.0
 40
0.0
 40
1.0
 40
1.0
 40
1.0
 40
2.0
 40
2.0
 40
2.0
 40
3.0
 40
3.0
 40
3.0
 40
4.0
 40
4.0
 40
4.0
 40
5.0
 40
5.0
 40
5.0
 40
6.0
 40
6.0
 40
6.0
 40
7.0
 40
7.0
 40
7.0
 40
8.0
 40
8.0
 40
8.0
 40
9.0
 40
9.0
 40
9.0
 40
10.0
 40
10.0
 40
10.0
 40
11.0
 40
11.0
 40
11.0
 40
12.0
 40
12.0
 40
12.0
 40
13.0
 40
13.0
 40
13.0
 40
14.0
 40
14.0
 40
14.0
 40
14.0
 10
54.76877851834995
 20
-52.43012122741532
 30
0.0
 10
55.04515950426906
 20
-52.94837694470098
 30
0.0
 10
55.61659420849374
 20
-53.21101081088248
 30
0.0
 10
56.21340621247192
 20
-53.16466076524565
 30
0.0
 10
56.16529994685301
 20
-54.61130559250046
 30
0.0
 10
56.69559732074426
 20
-56.60752128421682
 30
0.0
 10
57.76459296157154
 20
-58.61204811796064
 30
0.0
 10
58.83378857485936
 20
-60.61694993000122
 30
0.0
 10
60.19351226485815
 20
-62.16447200321118
 30
0.0
 10
61.41751231552516
 20
-62.92227818645828
 30
0.0
 10
61.04955740233109
 20
-63.39819976876939
 30
0.0
 10
60.95142231606445
 20
-64.02350376585044
 30
0.0
 10
61.22786995947103
 20
-64.54188447589953
 30
0.0
 10
61.61561656109588
 20
-65.2689673918415
 30
0.0
 10
62.58291552077332
 20
-65.50483499780911
 30
0.0
 10
63.38840247178701
 20
-65.06871191244677
 30
0.0
 10
63.38840247178701
 20
-65.06871191244677
 30
0.0
 10
65.1385399264612
 20
-64.12111698793545
 30
0.0
 10
65.1385399264612
 20
-64.12111698793545
 30
0.0
 10
65.94402687747427
 20
-63.68499390257247
 30
0.0
 10
66.28266955516024
 20
-62.74203688258042
 30
0.0
 10
65.89492295353283
 20
-62.01495396664359
 30
0.0
 10
65.61847531012624
 20
-61.49657325658999
 30
0.0
 10
65.04679591401826
 20
-61.23391079263904
 30
0.0
 10
64.44984396563575
 20
-61.2804286577053
 30
0.0
 10
64.49817661474823
 20
-59.83373029323269
 30
0.0
 10
63.96786535207954
 20
-57.83715392988168
 30
0.0
 10
62.898669738793
 20
-55.8322521178411
 30
0.0
 10
61.82967409796956
 20
-53.82772528409857
 30
0.0
 10
60.47024123913349
 20
-52.28041393475152
 30
0.0
 10
59.24643974106778
 20
-51.52245422317975
 30
0.0
 10
59.61417852987136
 20
-51.04655761142786
 30
0.0
 10
59.71221249833213
 20
-50.42144643544054
 30
0.0
 10
59.43583151241302
 20
-49.90319071815616
 30
0.0
 10
59.04808491078497
 20
-49.17610780221742
 30
0.0
 10
58.08078595110946
 20
-48.94024019624659
 30
0.0
 10
57.2752990000932
 20
-49.37636328160957
 30
0.0
 10
57.2752990000932
 20
-49.37636328160957
 30
0.0
 10
55.52516154541964
 20
-50.32395820612282
 30
0.0
 10
55.52516154541964
 20
-50.32395820612282
 30
0.0
 10
54.71967459440723
 20
-50.76008129148579
 30
0.0
 10
54.38103191671998
 20
-51.70303831147849
 30
0.0
 10
54.76877851834995
 20
-52.43012122741532
 30
0.0
  0
HATCH
  5
A0
330
7A
100
AcDbEntity
  8
Layer 1
 62
    18
420
        0
440
 33554687
100
AcDbHatch
 10
0.0
 20
0.0
 30
0.0
210
0.0
220
0.0
230
1.0
  2
SOLID
 70
     1
 71
     1
 91
        1
 92
        1
 93
        1
 72
     4
 94
        3
 73
     0
 74
     0
 95
       47
 96
       43
 40
0.0
 40
0.0
 40
0.0
 40
0.0
 40
1.0
 40
1.0
 40
1.0
 40
2.0
 40
2.0
 40
2.0
 40
3.0
 40
3.0
 40
3.0
 40
4.0
 40
4.0
 40
4.0
 40
5.0
 40
5.0
 40
5.0
 40
6.0
 40
6.0
 40
6.0
 40
7.0
 40
7.0
 40
7.0
 40
8.0
 40
8.0
 40
8.0
 40
9.0
 40
9.0
 40
9.0
 40
10.0
 40
10.0
 40
10.0
 40
11.0
 40
11.0
 40
11.0
 40
12.0
 40
12.0
 40
12.0
 40
13.0
 40
13.0
 40
13.0
 40
14.0
 40
14.0
 40
14.0
 40
14.0
 10
54.76877851834995
 20
-52.43012122741532
 10
55.04515950426906
 20
-52.94837694470098
 10
55.61659420849374
 20
-53.21101081088248
 10
56.21340621247192
 20
-53.16466076524565
 10
56.16529994685301
 20
-54.61130559250046
 10
56.69559732074426
 20
-56.60752128421682
 10
57.76459296157154
 20
-58.61204811796064
 10
58.83378857485936
 20
-60.61694993000122
 10
60.19351226485815
 20
-62.16447200321118
 10
61.41751231552516
 20
-62.92227818645828
 10
61.04955740233109
 20
-63.39819976876939
 10
60.95142231606445
 20
-64.02350376585044
 10
61.22786995947103
 20
-64.54188447589953
 10
61.61561656109588
 20
-65.2689673918415
 10
62.58291552077332
 20
-65.50483499780911
 10
63.38840247178701
 20
-65.06871191244677
 10
63.38840247178701
 20
-65.06871191244677
 10
65.1385399264612
 20
-64.12111698793545
 10
65.1385399264612
 20
-64.12111698793545
 10
65.94402687747427
 20
-63.68499390257247
 10
66.28266955516024
 20
-62.74203688258042
 10
65.89492295353283
 20
-62.01495396664359
 10
65.61847531012624
 20
-61.49657325658999
 10
65.04679591401826
 20
-61.23391079263904
 10
64.44984396563575
 20
-61.2804286577053
 10
64.49817661474823
 20
-59.83373029323269
 10
63.96786535207954
 20
-57.83715392988168
 10
62.898669738793
 20
-55.8322521178411
 10
61.82967409796956
 20
-53.82772528409857
 10
60.47024123913349
 20
-52.28041393475152
 10
59.24643974106778
 20
-51.52245422317975
 10
59.61417852987136
 20
-51.04655761142786
 10
59.71221249833213
 20
-50.42144643544054
 10
59.43583151241302
 20
-49.90319071815616
 10
59.04808491078497
 20
-49.17610780221742
 10
58.08078595110946
 20
-48.94024019624659
 10
57.2752990000932
 20
-49.37636328160957
 10
57.2752990000932
 20
-49.37636328160957
 10
55.52516154541964
 20
-50.32395820612282
 10
55.52516154541964
 20
-50.32395820612282
 10
54.71967459440723
 20
-50.76008129148579
 10
54.38103191671998
 20
-51.70303831147849
 10
54.76877851834995
 20
-52.43012122741532
 97
        0
 97
        1
330
9F
 75
     2
 76
     1
 98
        1
 10
0.0
 20
0.0
450
        0
451
        0
460
0.0
461
0.0
452
        0
462
0.0
453
        0
470

  0
SPLINE
  5
A1
330
7A
100
AcDbEntity
  8
Layer 1
100
AcDbSpline
210
0.0
220
0.0
230
1.0
 70
     9
 71
     3
 72
    47
 73
    43
 74
     0
 42
0.0000000001
 43
0.0000000001
 40
0.0
 40
0.0
 40
0.0
 40
0.0
 40
1.0
 40
1.0
 40
1.0
 40
2.0
 40
2.0
 40
2.0
 40
3.0
 40
3.0
 40
3.0
 40
4.0
 40
4.0
 40
4.0
 40
5.0
 40
5.0
 40
5.0
 40
6.0
 40
6.0
 40
6.0
 40
7.0
 40
7.0
 40
7.0
 40
8.0
 40
8.0
 40
8.0
 40
9.0
 40
9.0
 40
9.0
 40
10.0
 40
10.0
 40
10.0
 40
11.0
 40
11.0
 40
11.0
 40
12.0
 40
12.0
 40
12.0
 40
13.0
 40
13.0
 40
13.0
 40
14.0
 40
14.0
 40
14.0
 40
14.0
 10
57.85171729211932
 20
-47.03899191429832
 30
0.0
 10
58.28880469164811
 20
-47.43133110817254
 30
0.0
 10
58.9156194569889
 20
-47.48249182366304
 30
0.0
 10
59.46051066794741
 20
-47.23464819747821
 30
0.0
 10
59.91050912265546
 20
-48.61036505053096
 30
0.0
 10
61.09209118036666
 20
-50.30445956782114
 30
0.0
 10
62.78267247416723
 20
-51.82196225195465
 30
0.0
 10
64.47357001780869
 20
-53.33974880885192
 30
0.0
 10
66.28087929355297
 20
-54.32833682316156
 30
0.0
 10
67.69033801574815
 20
-54.62137683037027
 30
0.0
 10
67.50752400741692
 20
-55.19450090856672
 30
0.0
 10
67.62936422674887
 20
-55.81562130339853
 30
0.0
 10
68.06655704289344
 20
-56.20805512152521
 30
0.0
 10
68.67976548492134
 20
-56.75848440885534
 30
0.0
 10
69.6693671212295
 20
-56.64898826117408
 30
0.0
 10
70.2769042040208
 20
-55.96348751947346
 30
0.0
 10
70.2769042040208
 20
-55.96348751947346
 30
0.0
 10
71.59694222866848
 20
-54.47405243706892
 30
0.0
 10
71.59694222866848
 20
-54.47405243706892
 30
0.0
 10
72.20447931146107
 20
-53.78855169536766
 30
0.0
 10
72.19988180422184
 20
-52.78664068753014
 30
0.0
 10
71.58667336219393
 20
-52.23621140020386
 30
0.0
 10
71.14948054604873
 20
-51.84377758207397
 30
0.0
 10
70.52242608197214
 20
-51.79267375653053
 30
0.0
 10
69.97746082695481
 20
-52.0407229679159
 30
0.0
 10
69.52765675315621
 20
-50.66487831900558
 30
0.0
 10
68.34593818483448
 20
-48.97044967333009
 30
0.0
 10
66.65504064119367
 20
-47.4526631164328
 30
0.0
 10
64.96445934739181
 20
-45.9351604322961
 30
0.0
 10
63.15749546555807
 20
-44.94667085762226
 30
0.0
 10
61.74817074692586
 20
-44.65341863088942
 30
0.0
 10
61.93079023507137
 20
-44.08039199588887
 30
0.0
 10
61.8089210109486
 20
-43.45948738684927
 30
0.0
 10
61.37183361141853
 20
-43.06714819297633
 30
0.0
 10
60.75862516938869
 20
-42.51671890564876
 30
0.0
 10
59.76902353308183
 20
-42.62621505332938
 30
0.0
 10
59.16148645028989
 20
-43.31171579502936
 30
0.0
 10
59.16148645028989
 20
-43.31171579502936
 30
0.0
 10
57.84144842564156
 20
-44.80115087743517
 30
0.0
 10
57.84144842564156
 20
-44.80115087743517
 30
0.0
 10
57.23391134285154
 20
-45.48665161913516
 30
0.0
 10
57.23850885008884
 20
-46.48856262697524
 30
0.0
 10
57.85171729211932
 20
-47.03899191429832
 30
0.0
  0
HATCH
  5
A2
330
7A
100
AcDbEntity
  8
Layer 1
 62
    18
420
        0
440
 33554687
100
AcDbHatch
 10
0.0
 20
0.0
 30
0.0
210
0.0
220
0.0
230
1.0
  2
SOLID
 70
     1
 71
     1
 91
        1
 92
        1
 93
        1
 72
     4
 94
        3
 73
     0
 74
     0
 95
       47
 96
       43
 40
0.0
 40
0.0
 40
0.0
 40
0.0
 40
1.0
 40
1.0
 40
1.0
 40
2.0
 40
2.0
 40
2.0
 40
3.0
 40
3.0
 40
3.0
 40
4.0
 40
4.0
 40
4.0
 40
5.0
 40
5.0
 40
5.0
 40
6.0
 40
6.0
 40
6.0
 40
7.0
 40
7.0
 40
7.0
 40
8.0
 40
8.0
 40
8.0
 40
9.0
 40
9.0
 40
9.0
 40
10.0
 40
10.0
 40
10.0
 40
11.0
 40
11.0
 40
11.0
 40
12.0
 40
12.0
 40
12.0
 40
13.0
 40
13.0
 40
13.0
 40
14.0
 40
14.0
 40
14.0
 40
14.0
 10
57.85171729211932
 20
-47.03899191429832
 10
58.28880469164811
 20
-47.43133110817254
 10
58.9156194569889
 20
-47.48249182366304
 10
59.46051066794741
 20
-47.23464819747821
 10
59.91050912265546
 20
-48.61036505053096
 10
61.09209118036666
 20
-50.30445956782114
 10
62.78267247416723
 20
-51.82196225195465
 10
64.47357001780869
 20
-53.33974880885192
 10
66.28087929355297
 20
-54.32833682316156
 10
67.69033801574815
 20
-54.62137683037027
 10
67.50752400741692
 20
-55.19450090856672
 10
67.62936422674887
 20
-55.81562130339853
 10
68.06655704289344
 20
-56.20805512152521
 10
68.67976548492134
 20
-56.75848440885534
 10
69.6693671212295
 20
-56.64898826117408
 10
70.2769042040208
 20
-55.96348751947346
 10
70.2769042040208
 20
-55.96348751947346
 10
71.59694222866848
 20
-54.47405243706892
 10
71.59694222866848
 20
-54.47405243706892
 10
72.20447931146107
 20
-53.78855169536766
 10
72.19988180422184
 20
-52.78664068753014
 10
71.58667336219393
 20
-52.23621140020386
 10
71.14948054604873
 20
-51.84377758207397
 10
70.52242608197214
 20
-51.79267375653053
 10
69.97746082695481
 20
-52.0407229679159
 10
69.52765675315621
 20
-50.66487831900558
 10
68.34593818483448
 20
-48.97044967333009
 10
66.65504064119367
 20
-47.4526631164328
 10
64.96445934739181
 20
-45.9351604322961
 10
63.15749546555807
 20
-44.94667085762226
 10
61.74817074692586
 20
-44.65341863088942
 10
61.93079023507137
 20
-44.08039199588887
 10
61.8089210109486
 20
-43.45948738684927
 10
61.37183361141853
 20
-43.06714819297633
 10
60.75862516938869
 20
-42.51671890564876
 10
59.76902353308183
 20
-42.62621505332938
 10
59.16148645028989
 20
-43.31171579502936
 10
59.16148645028989
 20
-43.31171579502936
 10
57.84144842564156
 20
-44.80115087743517
 10
57.84144842564156
 20
-44.80115087743517
 10
57.23391134285154
 20
-45.48665161913516
 10
57.23850885008884
 20
-46.48856262697524
 10
57.85171729211932
 20
-47.03899191429832
 97
        0
 97
        1
330
A1
 75
     2
 76
     1
 98
        1
 10
0.0
 20
0.0
450
        0
451
        0
460
0.0
461
0.0
452
        0
462
0.0
453
        0
470

  0
ENDBLK
  5
7D
330
7A
100
AcDbEntity
  8
0
100
AcDbBlockEnd
  0
ENDSEC
  0
SECTION
  2
ENTITIES
  0
CIRCLE
  5
79
330
70
100
AcDbEntity
  8
Layer 1
 62
    18
420
        0
370
    35
100
AcDbCircle
 10
40.99999998975022
 20
-40.99999998975022
 30
0.0
 40
33.99999999150014
  0
INSERT
  5
7B
330
70
100
AcDbEntity
  8
Layer 1
100
AcDbBlockReference
  2
Block_0
 10
0.0
 20
0.0
 30
0.0
  0
ENDSEC
  0
SECTION
  2
OBJECTS
  0
DICTIONARY
  5
C
330
0
100
AcDbDictionary
281
     1
  3
ACAD_COLOR
350
63
  3
ACAD_DETAILVIEWSTYLE
350
6A
  3
ACAD_GROUP
350
D
  3
ACAD_LAYOUT
350
62
  3
ACAD_MATERIAL
350
10
  3
ACAD_MLEADERSTYLE
350
66
  3
ACAD_MLINESTYLE
350
5F
  3
ACAD_PLOTSETTINGS
350
61
  3
ACAD_PLOTSTYLENAME
350
E
  3
ACAD_SCALELIST
350
42
  3
ACAD_SECTIONVIEWSTYLE
350
68
  3
ACAD_TABLESTYLE
350
64
  3
ACAD_VISUALSTYLE
350
29
  3
ACDB_RECOMPOSE_DATA
350
AB
  3
AcDbVariableDictionary
350
A3
  0
DICTIONARY
  5
63
102
{ACAD_REACTORS
330
C
102
}
330
C
100
AcDbDictionary
281
     1
  0
DICTIONARY
  5
6A
102
{ACAD_REACTORS
330
C
102
}
330
C
100
AcDbDictionary
281
     1
  3
Imperial24
350
6B
  0
DICTIONARY
  5
D
102
{ACAD_REACTORS
330
C
102
}
330
C
100
AcDbDictionary
281
     1
  0
DICTIONARY
  5
62
102
{ACAD_REACTORS
330
C
102
}
330
C
100
AcDbDictionary
281
     1
  3
Layout1
350
6F
  3
Layout2
350
77
  3
Model
350
73
  0
DICTIONARY
  5
10
102
{ACAD_REACTORS
330
C
102
}
330
C
100
AcDbDictionary
281
     1
  3
ByBlock
350
19
  3
ByLayer
350
11
  3
Global
350
21
  0
DICTIONARY
  5
66
102
{ACAD_REACTORS
330
C
102
}
330
C
100
AcDbDictionary
281
     1
  3
Standard
350
67
  0
DICTIONARY
  5
5F
102
{ACAD_REACTORS
330
C
102
}
330
C
100
AcDbDictionary
281
     1
  3
Standard
350
60
  0
DICTIONARY
  5
61
102
{ACAD_REACTORS
330
C
102
}
330
C
100
AcDbDictionary
281
     1
  0
ACDBDICTIONARYWDFLT
  5
E
102
{ACAD_REACTORS
330
C
102
}
330
C
100
AcDbDictionary
281
     1
  3
Normal
350
F
100
AcDbDictionaryWithDefault
340
F
  0
DICTIONARY
  5
42
102
{ACAD_REACTORS
330
C
102
}
330
C
100
AcDbDictionary
281
     1
  3
A0
350
43
  3
A1
350
44
  3
A2
350
45
  3
A3
350
46
  3
A4
350
47
  3
A5
350
48
  3
A6
350
49
  3
A7
350
4A
  3
A8
350
4B
  3
A9
350
4C
  3
B0
350
4D
  3
B1
350
4E
  3
B2
350
4F
  3
B3
350
50
  3
B4
350
51
  3
B5
350
52
  3
B6
350
53
  0
DICTIONARY
  5
68
102
{ACAD_REACTORS
330
C
102
}
330
C
100
AcDbDictionary
281
     1
  3
Imperial24
350
69
  0
DICTIONARY
  5
64
102
{ACAD_REACTORS
330
C
102
}
330
C
100
AcDbDictionary
281
     1
  3
Standard
350
65
  0
DICTIONARY
  5
29
102
{ACAD_REACTORS
330
C
102
}
330
C
100
AcDbDictionary
281
     1
  3
2dWireframe
350
2F
  3
Basic
350
2E
  3
Brighten
350
35
  3
ColorChange
350
39
  3
Conceptual
350
32
  3
Dim
350
34
  3
EdgeColorOff
350
41
  3
Facepattern
350
38
  3
Flat
350
2A
  3
FlatWithEdges
350
2B
  3
Gouraud
350
2C
  3
GouraudWithEdges
350
2D
  3
Hidden
350
31
  3
JitterOff
350
3F
  3
Linepattern
350
37
  3
OverhangOff
350
40
  3
Realistic
350
33
  3
Shaded
350
3E
  3
Shaded with edges
350
3D
  3
Shades of Gray
350
3A
  3
Sketchy
350
3B
  3
Thicken
350
36
  3
Wireframe
350
30
  3
X-Ray
350
3C
  0
XRECORD
  5
AB
102
{ACAD_REACTORS
330
C
102
}
330
C
100
AcDbXrecord
280
     1
 90
        1
330
65
  0
DICTIONARY
  5
A3
102
{ACAD_REACTORS
330
C
102
}
330
C
100
AcDbDictionary
281
     1
  3
CANNOSCALE
350
A8
  3
CMLEADERSTYLE
350
A5
  3
CTABLESTYLE
350
A4
  3
CVIEWDETAILSTYLE
350
A6
  3
CVIEWSECTIONSTYLE
350
A7
  0
ACDBDETAILVIEWSTYLE
  5
6B
102
{ACAD_REACTORS
330
6A
102
}
330
6A
100
AcDbModelDocViewStyle
 70
     0
  3
Imperial24
290
     1
300
Imperial24
 90
        0
100
AcDbDetailViewStyle
 70
     0
 71
     0
 90
        3
 71
     1
340
55
 62
   256
 40
0.24
340
0
 62
   256
 40
0.24
300

 40
0.36
280
     3
 71
     2
340
5D
 90
       25
 62
   256
 71
     3
340
55
 62
   256
 40
0.24
 90
        1
 40
0.75
 90
        1
300
%<\AcVar ViewType \f "%tc1">% %<\AcVar ViewDetailId>%\PSCALE %<\AcVar ViewScale \f "%sn">%
 71
     4
340
5D
 90
       25
 62
   256
340
5D
 90
       25
 62
   256
280
     0
  0
LAYOUT
  5
6F
102
{ACAD_REACTORS
330
62
102
}
330
62
100
AcDbPlotSettings
  1

  2

  4

  6

 40
0.0
 41
0.0
 42
0.0
 43
0.0
 44
0.0
 45
0.0
 46
0.0
 47
0.0
 48
0.0
 49
0.0
140
0.0
141
0.0
142
1.0
143
1.0
 70
   688
 72
     0
 73
     0
 74
     5
  7

 75
    16
147
1.0
 76
     0
 77
     2
 78
   300
148
0.0
149
0.0
100
AcDbLayout
  1
Layout1
 70
     1
 71
     1
 10
0.0
 20
0.0
 11
12.0
 21
9.0
 12
0.0
 22
0.0
 32
0.0
 14
0.0
 24
0.0
 34
0.0
 15
0.0
 25
0.0
 35
0.0
146
0.0
 13
0.0
 23
0.0
 33
0.0
 16
1.0
 26
0.0
 36
0.0
 17
0.0
 27
1.0
 37
0.0
 76
     0
330
6C
  0
LAYOUT
  5
77
102
{ACAD_REACTORS
330
62
102
}
330
62
100
AcDbPlotSettings
  1

  2

  4

  6

 40
0.0
 41
0.0
 42
0.0
 43
0.0
 44
0.0
 45
0.0
 46
0.0
 47
0.0
 48
0.0
 49
0.0
140
0.0
141
0.0
142
1.0
143
1.0
 70
   688
 72
     0
 73
     0
 74
     5
  7

 75
    16
147
1.0
 76
     0
 77
     2
 78
   300
148
0.0
149
0.0
100
AcDbLayout
  1
Layout2
 70
     1
 71
     2
 10
0.0
 20
0.0
 11
12.0
 21
9.0
 12
0.0
 22
0.0
 32
0.0
 14
0.0
 24
0.0
 34
0.0
 15
0.0
 25
0.0
 35
0.0
146
0.0
 13
0.0
 23
0.0
 33
0.0
 16
1.0
 26
0.0
 36
0.0
 17
0.0
 27
1.0
 37
0.0
 76
     0
330
74
  0
LAYOUT
  5
73
102
{ACAD_REACTORS
330
62
102
}
330
62
100
AcDbPlotSettings
  1

  2

  4

  6

 40
0.0
 41
0.0
 42
0.0
 43
0.0
 44
0.0
 45
0.0
 46
0.0
 47
0.0
 48
0.0
 49
0.0
140
0.0
141
0.0
142
1.0
143
1.0
 70
  1712
 72
     0
 73
     0
 74
     0
  7

 75
     0
147
1.0
 76
     0
 77
     2
 78
   300
148
0.0
149
0.0
100
AcDbLayout
  1
Model
 70
     1
 71
     0
 10
0.0
 20
0.0
 11
12.0
 21
9.0
 12
0.0
 22
0.0
 32
0.0
 14
0.0
 24
0.0
 34
0.0
 15
0.0
 25
0.0
 35
0.0
146
0.0
 13
0.0
 23
0.0
 33
0.0
 16
1.0
 26
0.0
 36
0.0
 17
0.0
 27
1.0
 37
0.0
 76
     0
330
70
  0
MATERIAL
  5
19
102
{ACAD_XDICTIONARY
360
1A
102
}
102
{ACAD_REACTORS
330
10
102
}
330
10
100
AcDbMaterial
  1
ByBlock
 72
     0
 43
0.0208333333333333
 43
0.0
 43
0.0
 43
0.0
 43
0.0
 43
0.0208333333333333
 43
0.0
 43
0.0
 43
0.0
 43
0.0
 43
1.0
 43
0.0
 43
0.0
 43
0.0
 43
0.0
 43
1.0
 77
     0
 47
0.0208333333333333
 47
0.0
 47
0.0
 47
0.0
 47
0.0
 47
0.0208333333333333
 47
0.0
 47
0.0
 47
0.0
 47
0.0
 47
1.0
 47
0.0
 47
0.0
 47
0.0
 47
0.0
 47
1.0
171
     0
 49
0.0208333333333333
 49
0.0
 49
0.0
 49
0.0
 49
0.0
 49
0.0208333333333333
 49
0.0
 49
0.0
 49
0.0
 49
0.0
 49
1.0
 49
0.0
 49
0.0
 49
0.0
 49
0.0
 49
1.0
175
     0
142
0.0208333333333333
142
0.0
142
0.0
142
0.0
142
0.0
142
0.0208333333333333
142
0.0
142
0.0
142
0.0
142
0.0
142
1.0
142
0.0
142
0.0
142
0.0
142
0.0
142
1.0
179
     0
144
0.0208333333333333
144
0.0
144
0.0
144
0.0
144
0.0
144
0.0208333333333333
144
0.0
144
0.0
144
0.0
144
0.0
144
1.0
144
0.0
144
0.0
144
0.0
144
0.0
144
1.0
147
0.0208333333333333
147
0.0
147
0.0
147
0.0
147
0.0
147
0.0208333333333333
147
0.0
147
0.0
147
0.0
147
0.0
147
1.0
147
0.0
147
0.0
147
0.0
147
0.0
147
1.0
  0
MATERIAL
  5
11
102
{ACAD_XDICTIONARY
360
12
102
}
102
{ACAD_REACTORS
330
10
102
}
330
10
100
AcDbMaterial
  1
ByLayer
 72
     0
 43
0.0208333333333333
 43
0.0
 43
0.0
 43
0.0
 43
0.0
 43
0.0208333333333333
 43
0.0
 43
0.0
 43
0.0
 43
0.0
 43
1.0
 43
0.0
 43
0.0
 43
0.0
 43
0.0
 43
1.0
 77
     0
 47
0.0208333333333333
 47
0.0
 47
0.0
 47
0.0
 47
0.0
 47
0.0208333333333333
 47
0.0
 47
0.0
 47
0.0
 47
0.0
 47
1.0
 47
0.0
 47
0.0
 47
0.0
 47
0.0
 47
1.0
171
     0
 49
0.0208333333333333
 49
0.0
 49
0.0
 49
0.0
 49
0.0
 49
0.0208333333333333
 49
0.0
 49
0.0
 49
0.0
 49
0.0
 49
1.0
 49
0.0
 49
0.0
 49
0.0
 49
0.0
 49
1.0
175
     0
142
0.0208333333333333
142
0.0
142
0.0
142
0.0
142
0.0
142
0.0208333333333333
142
0.0
142
0.0
142
0.0
142
0.0
142
1.0
142
0.0
142
0.0
142
0.0
142
0.0
142
1.0
179
     0
144
0.0208333333333333
144
0.0
144
0.0
144
0.0
144
0.0
144
0.0208333333333333
144
0.0
144
0.0
144
0.0
144
0.0
144
1.0
144
0.0
144
0.0
144
0.0
144
0.0
144
1.0
147
0.0208333333333333
147
0.0
147
0.0
147
0.0
147
0.0
147
0.0208333333333333
147
0.0
147
0.0
147
0.0
147
0.0
147
1.0
147
0.0
147
0.0
147
0.0
147
0.0
147
1.0
  0
MATERIAL
  5
21
102
{ACAD_XDICTIONARY
360
22
102
}
102
{ACAD_REACTORS
330
10
102
}
330
10
100
AcDbMaterial
  1
Global
 72
     0
 43
0.0208333333333333
 43
0.0
 43
0.0
 43
0.0
 43
0.0
 43
0.0208333333333333
 43
0.0
 43
0.0
 43
0.0
 43
0.0
 43
1.0
 43
0.0
 43
0.0
 43
0.0
 43
0.0
 43
1.0
 77
     0
 47
0.0208333333333333
 47
0.0
 47
0.0
 47
0.0
 47
0.0
 47
0.0208333333333333
 47
0.0
 47
0.0
 47
0.0
 47
0.0
 47
1.0
 47
0.0
 47
0.0
 47
0.0
 47
0.0
 47
1.0
171
     0
 49
0.0208333333333333
 49
0.0
 49
0.0
 49
0.0
 49
0.0
 49
0.0208333333333333
 49
0.0
 49
0.0
 49
0.0
 49
0.0
 49
1.0
 49
0.0
 49
0.0
 49
0.0
 49
0.0
 49
1.0
175
     0
142
0.0208333333333333
142
0.0
142
0.0
142
0.0
142
0.0
142
0.0208333333333333
142
0.0
142
0.0
142
0.0
142
0.0
142
1.0
142
0.0
142
0.0
142
0.0
142
0.0
142
1.0
179
     0
144
0.0208333333333333
144
0.0
144
0.0
144
0.0
144
0.0
144
0.0208333333333333
144
0.0
144
0.0
144
0.0
144
0.0
144
1.0
144
0.0
144
0.0
144
0.0
144
0.0
144
1.0
147
0.0208333333333333
147
0.0
147
0.0
147
0.0
147
0.0
147
0.0208333333333333
147
0.0
147
0.0
147
0.0
147
0.0
147
1.0
147
0.0
147
0.0
147
0.0
147
0.0
147
1.0
  0
MLEADERSTYLE
  5
67
102
{ACAD_REACTORS
330
66
102
}
330
66
100
AcDbMLeaderStyle
179
     2
170
     2
171
     1
172
     0
 90
        2
 40
0.0
 41
0.0
173
     1
 91
-1056964608
340
5B
 92
       -2
290
     1
 42
0.09
291
     1
 43
0.36
  3
Standard
 44
0.18
300

342
55
174
     1
178
     6
175
     1
176
     0
 93
-1056964608
 45
0.18
292
     0
297
     0
 46
0.18
 94
-1056964608
 47
1.0
 49
1.0
140
1.0
293
     1
141
0.0
294
     1
177
     0
142
1.0
295
     1
296
     0
143
0.125
271
     0
272
     9
273
     9
298
     1
  0
MLINESTYLE
  5
60
102
{ACAD_REACTORS
330
5F
102
}
330
5F
100
AcDbMlineStyle
  2
STANDARD
 70
     0
  3

 62
   256
 51
90.0
 52
90.0
 71
     2
 49
0.5
 62
   256
  6
BYLAYER
 49
-0.5
 62
   256
  6
BYLAYER
  0
ACDBPLACEHOLDER
  5
F
102
{ACAD_REACTORS
330
E
102
}
330
E
  0
SCALE
  5
43
102
{ACAD_REACTORS
330
42
102
}
330
42
100
AcDbScale
 70
     0
300
1:1
140
1.0
141
1.0
290
     1
  0
SCALE
  5
44
102
{ACAD_REACTORS
330
42
102
}
330
42
100
AcDbScale
 70
     0
300
1/128" = 1'-0"
140
0.0078125
141
12.0
290
     0
  0
SCALE
  5
45
102
{ACAD_REACTORS
330
42
102
}
330
42
100
AcDbScale
 70
     0
300
1/64" = 1'-0"
140
0.015625
141
12.0
290
     0
  0
SCALE
  5
46
102
{ACAD_REACTORS
330
42
102
}
330
42
100
AcDbScale
 70
     0
300
1/32" = 1'-0"
140
0.03125
141
12.0
290
     0
  0
SCALE
  5
47
102
{ACAD_REACTORS
330
42
102
}
330
42
100
AcDbScale
 70
     0
300
1/16" = 1'-0"
140
0.0625
141
12.0
290
     0
  0
SCALE
  5
48
102
{ACAD_REACTORS
330
42
102
}
330
42
100
AcDbScale
 70
     0
300
3/32" = 1'-0"
140
0.09375
141
12.0
290
     0
  0
SCALE
  5
49
102
{ACAD_REACTORS
330
42
102
}
330
42
100
AcDbScale
 70
     0
300
1/8" = 1'-0"
140
0.125
141
12.0
290
     0
  0
SCALE
  5
4A
102
{ACAD_REACTORS
330
42
102
}
330
42
100
AcDbScale
 70
     0
300
3/16" = 1'-0"
140
0.1875
141
12.0
290
     0
  0
SCALE
  5
4B
102
{ACAD_REACTORS
330
42
102
}
330
42
100
AcDbScale
 70
     0
300
1/4" = 1'-0"
140
0.25
141
12.0
290
     0
  0
SCALE
  5
4C
102
{ACAD_REACTORS
330
42
102
}
330
42
100
AcDbScale
 70
     0
300
3/8" = 1'-0"
140
0.375
141
12.0
290
     0
  0
SCALE
  5
4D
102
{ACAD_REACTORS
330
42
102
}
330
42
100
AcDbScale
 70
     0
300
1/2" = 1'-0"
140
0.5
141
12.0
290
     0
  0
SCALE
  5
4E
102
{ACAD_REACTORS
330
42
102
}
330
42
100
AcDbScale
 70
     0
300
3/4" = 1'-0"
140
0.75
141
12.0
290
     0
  0
SCALE
  5
4F
102
{ACAD_REACTORS
330
42
102
}
330
42
100
AcDbScale
 70
     0
300
1" = 1'-0"
140
1.0
141
12.0
290
     0
  0
SCALE
  5
50
102
{ACAD_REACTORS
330
42
102
}
330
42
100
AcDbScale
 70
     0
300
1-1/2" = 1'-0"
140
1.5
141
12.0
290
     0
  0
SCALE
  5
51
102
{ACAD_REACTORS
330
42
102
}
330
42
100
AcDbScale
 70
     0
300
3" = 1'-0"
140
3.0
141
12.0
290
     0
  0
SCALE
  5
52
102
{ACAD_REACTORS
330
42
102
}
330
42
100
AcDbScale
 70
     0
300
6" = 1'-0"
140
6.0
141
12.0
290
     0
  0
SCALE
  5
53
102
{ACAD_REACTORS
330
42
102
}
330
42
100
AcDbScale
 70
     0
300
1'-0" = 1'-0"
140
12.0
141
12.0
290
     0
  0
ACDBSECTIONVIEWSTYLE
  5
69
102
{ACAD_REACTORS
330
68
102
}
330
68
100
AcDbModelDocViewStyle
 70
     0
  3
Imperial24
290
     1
300
Imperial24
 90
        0
100
AcDbSectionViewStyle
 70
     0
 71
     0
 90
       78
 71
     1
340
55
 62
   256
 40
0.24
340
0
340
0
 62
   256
 40
0.24
300
I, O, Q, S, X, Z
 40
0.48
 90
        3
 40
0.18
 90
        1
 71
     2
340
5D
 90
       25
 62
   256
340
5D
 90
       50
 62
   256
 40
0.24
 40
0.0
 40
0.24
 71
     3
340
55
 62
   256
 40
0.24
 90
        1
 40
0.75
 90
        1
300
%<\AcVar ViewType \f "%tc1">% %<\AcVar ViewSectionStartId>%-%<\AcVar ViewSectionEndId>%\PSCALE %<\AcVar ViewScale \f "%sn">%
 71
     4
 62
   256
 62
   257
300
ANSI31
 40
1.0
 90
        0
290
     0
290
     0
 90
        6
 40
0.0
 40
1.570796326794896
 40
0.2617993877991494
 40
1.308996938995747
 40
-0.2617993877991494
 40
1.832595714594046
  0
TABLESTYLE
  5
65
102
{ACAD_XDICTIONARY
360
A9
102
}
102
{ACAD_REACTORS
330
64
102
}
330
64
100
AcDbTableStyle
280
     0
  3
Standard
 70
     0
 71
     0
 40
0.06
 41
0.06
280
     0
281
     0
  7
Standard
140
0.18
170
     2
 62
     0
 63
     7
283
     0
 90
      512
 91
        0
  1

274
    -2
284
     1
 64
     0
275
    -2
285
     1
 65
     0
276
    -2
286
     1
 66
     0
277
    -2
287
     1
 67
     0
278
    -2
288
     1
 68
     0
279
    -2
289
     1
 69
     0
  7
Standard
140
0.25
170
     5
 62
     0
 63
     7
283
     0
 90
      512
 91
        0
  1

274
    -2
284
     1
 64
     0
275
    -2
285
     1
 65
     0
276
    -2
286
     1
 66
     0
277
    -2
287
     1
 67
     0
278
    -2
288
     1
 68
     0
279
    -2
289
     1
 69
     0
  7
Standard
140
0.18
170
     5
 62
     0
 63
     7
283
     0
 90
      512
 91
        0
  1

274
    -2
284
     1
 64
     0
275
    -2
285
     1
 65
     0
276
    -2
286
     1
 66
     0
277
    -2
287
     1
 67
     0
278
    -2
288
     1
 68
     0
279
    -2
289
     1
 69
     0
  0
VISUALSTYLE
  5
2F
102
{ACAD_REACTORS
330
29
102
}
330
29
100
AcDbVisualStyle
  2
2dWireframe
 70
     4
177
     3
291
     0
 70
    58
 90
        0
176
     1
 90
        2
176
     1
 90
        0
176
     1
 90
        0
176
     1
 40
0.6
176
     1
 40
30.0
176
     1
 62
     7
420
 16777215
176
     1
 90
        1
176
     1
 90
        4
176
     1
 62
     7
176
     1
 62
   257
176
     1
 90
        1
176
     1
 90
        1
176
     1
 40
1.0
176
     1
 90
        0
176
     1
 62
   257
176
     1
 40
1.0
176
     1
 90
        1
176
     1
 90
        6
176
     1
 90
        2
176
     1
 62
     7
176
     1
 90
        5
176
     1
 90
        0
176
     1
 90
        0
176
     1
290
     0
176
     1
 90
        1
176
     1
 40
0.0
176
     1
 90
        0
176
     1
290
     1
176
     1
290
     1
176
     1
290
     0
176
     1
290
     0
176
     1
290
     0
176
     1
290
     0
176
     1
290
     0
176
     1
290
     0
176
     1
290
     0
176
     1
 90
       50
176
     1
 40
0.0
176
     1
 40
1.0
176
     1
 90
        0
176
     1
 62
    18
420
        0
176
     1
 90
       50
176
     1
 90
        3
176
     1
 62
     5
420
      255
176
     1
290
     0
176
     1
 90
       50
176
     1
 90
       50
176
     1
 90
       50
176
     1
290
     0
176
     1
 90
       50
176
     1
 62
   256
176
     0
 40
1.0
176
     0
 90
        2
176
     1
  1
strokes_ogs.tif
176
     1
290
     0
176
     1
 40
1.0
176
     1
 40
1.0
176
     1
  0
VISUALSTYLE
  5
2E
102
{ACAD_REACTORS
330
29
102
}
330
29
100
AcDbVisualStyle
  2
Basic
 70
     7
177
     3
291
     1
 70
    58
 90
        1
176
     1
 90
        0
176
     1
 90
        1
176
     1
 90
        0
176
     1
 40
0.6
176
     1
 40
30.0
176
     1
 62
     7
420
 16777215
176
     1
 90
        0
176
     1
 90
        4
176
     1
 62
     7
176
     1
 62
   257
176
     1
 90
        1
176
     1
 90
        1
176
     1
 40
1.0
176
     1
 90
        8
176
     1
 62
     7
176
     1
 40
1.0
176
     1
 90
        1
176
     1
 90
        6
176
     1
 90
        2
176
     1
 62
     7
176
     1
 90
        5
176
     1
 90
        0
176
     1
 90
        0
176
     1
290
     0
176
     1
 90
        1
176
     1
 40
0.0
176
     1
 90
        0
176
     1
290
     0
176
     1
290
     1
176
     1
290
     1
176
     1
290
     0
176
     1
290
     0
176
     1
290
     0
176
     1
290
     0
176
     1
290
     0
176
     1
290
     0
176
     1
 90
       50
176
     1
 40
0.0
176
     1
 40
1.0
176
     1
 90
        0
176
     1
 62
    18
420
        0
176
     1
 90
       50
176
     1
 90
        3
176
     1
 62
     5
420
      255
176
     1
290
     0
176
     1
 90
       50
176
     1
 90
       50
176
     1
 90
       50
176
     1
290
     0
176
     1
 90
       50
176
     1
 62
   256
176
     0
 40
1.0
176
     0
 90
        2
176
     1
  1
strokes_ogs.tif
176
     1
290
     0
176
     1
 40
1.0
176
     1
 40
1.0
176
     1
  0
VISUALSTYLE
  5
35
102
{ACAD_REACTORS
330
29
102
}
330
29
100
AcDbVisualStyle
  2
Brighten
 70
    12
177
     3
291
     1
 70
    58
 90
        2
176
     1
 90
        2
176
     1
 90
        0
176
     1
 90
        0
176
     1
 40
0.6
176
     1
 40
30.0
176
     1
 62
     7
420
 16777215
176
     1
 90
        1
176
     1
 90
        4
176
     1
 62
     7
176
     1
 62
   257
176
     1
 90
        1
176
     1
 90
        1
176
     1
 40
1.0
176
     1
 90
        8
176
     1
 62
     7
176
     1
 40
1.0
176
     1
 90
        1
176
     1
 90
        6
176
     1
 90
        2
176
     1
 62
     7
176
     1
 90
        5
176
     1
 90
        0
176
     1
 90
        0
176
     1
290
     0
176
     1
 90
        1
176
     1
 40
50.0
176
     1
 90
        0
176
     1
290
     0
176
     1
290
     1
176
     1
290
     1
176
     1
290
     0
176
     1
290
     0
176
     1
290
     0
176
     1
290
     0
176
     1
290
     0
176
     1
290
     0
176
     1
 90
       50
176
     1
 40
0.0
176
     1
 40
1.0
176
     1
 90
        0
176
     1
 62
    18
420
        0
176
     1
 90
       50
176
     1
 90
        3
176
     1
 62
     5
420
      255
176
     1
290
     0
176
     1
 90
       50
176
     1
 90
       50
176
     1
 90
       50
176
     1
290
     0
176
     1
 90
       50
176
     1
 62
   256
176
     0
 40
1.0
176
     0
 90
        2
176
     1
  1
strokes_ogs.tif
176
     1
290
     0
176
     1
 40
1.0
176
     1
 40
1.0
176
     1
  0
VISUALSTYLE
  5
39
102
{ACAD_REACTORS
330
29
102
}
330
29
100
AcDbVisualStyle
  2
ColorChange
 70
    16
177
     3
291
     1
 70
    58
 90
        2
176
     1
 90
        2
176
     1
 90
        3
176
     1
 90
        0
176
     1
 40
0.6
176
     1
 40
30.0
176
     1
 62
     8
420
  8421504
176
     1
 90
        1
176
     1
 90
        4
176
     1
 62
     7
176
     1
 62
   257
176
     1
 90
        1
176
     1
 90
        1
176
     1
 40
1.0
176
     1
 90
        8
176
     1
 62
     8
420
  8421504
176
     1
 40
1.0
176
     1
 90
        1
176
     1
 90
        6
176
     1
 90
        2
176
     1
 62
     7
176
     1
 90
        5
176
     1
 90
        0
176
     1
 90
        0
176
     1
290
     0
176
     1
 90
        1
176
     1
 40
0.0
176
     1
 90
        0
176
     1
290
     0
176
     1
290
     1
176
     1
290
     1
176
     1
290
     0
176
     1
290
     0
176
     1
290
     0
176
     1
290
     0
176
     1
290
     0
176
     1
290
     0
176
     1
 90
       50
176
     1
 40
0.0
176
     1
 40
1.0
176
     1
 90
        0
176
     1
 62
    18
420
        0
176
     1
 90
       50
176
     1
 90
        3
176
     1
 62
     5
420
      255
176
     1
290
     0
176
     1
 90
       50
176
     1
 90
       50
176
     1
 90
       50
176
     1
290
     0
176
     1
 90
       50
176
     1
 62
   256
176
     0
 40
1.0
176
     0
 90
        2
176
     1
  1
strokes_ogs.tif
176
     1
290
     0
176
     1
 40
1.0
176
     1
 40
1.0
176
     1
  0
VISUALSTYLE
  5
32
102
{ACAD_REACTORS
330
29
102
}
330
29
100
AcDbVisualStyle
  2
Conceptual
 70
     9
177
     3
291
     0
 70
    58
 90
        3
176
     1
 90
        2
176
     1
 90
        0
176
     1
 90
        0
176
     1
 40
0.6
176
     1
 40
30.0
176
     1
 62
     7
420
 16777215
176
     1
 90
        2
176
     1
 90
        2
176
     1
 62
     7
176
     1
 62
   257
176
     1
 90
        1
176
     1
 90
        1
176
     1
 40
179.0
176
     1
 90
        8
176
     1
 62
     7
176
     1
 40
1.0
176
     1
 90
        1
176
     1
 90
        6
176
     1
 90
        2
176
     1
 62
     7
176
     1
 90
        3
176
     1
 90
        0
176
     1
 90
        0
176
     1
290
     0
176
     1
 90
        1
176
     1
 40
0.0
176
     1
 90
        0
176
     1
290
     0
176
     1
290
     1
176
     1
290
     1
176
     1
290
     0
176
     1
290
     0
176
     1
290
     0
176
     1
290
     0
176
     1
290
     0
176
     1
290
     0
176
     1
 90
       50
176
     1
 40
0.0
176
     1
 40
1.0
176
     1
 90
        0
176
     1
 62
    18
420
        0
176
     1
 90
       50
176
     1
 90
        3
176
     1
 62
     5
420
      255
176
     1
290
     0
176
     1
 90
       50
176
     1
 90
       50
176
     1
 90
       50
176
     1
290
     0
176
     1
 90
       50
176
     1
 62
   256
176
     0
 40
1.0
176
     0
 90
        2
176
     1
  1
strokes_ogs.tif
176
     1
290
     0
176
     1
 40
1.0
176
     1
 40
1.0
176
     1
  0
VISUALSTYLE
  5
34
102
{ACAD_REACTORS
330
29
102
}
330
29
100
AcDbVisualStyle
  2
Dim
 70
    11
177
     3
291
     1
 70
    58
 90
        2
176
     1
 90
        2
176
     1
 90
        0
176
     1
 90
        0
176
     1
 40
0.6
176
     1
 40
30.0
176
     1
 62
     7
420
 16777215
176
     1
 90
        1
176
     1
 90
        4
176
     1
 62
     7
176
     1
 62
   257
176
     1
 90
        1
176
     1
 90
        1
176
     1
 40
1.0
176
     1
 90
        8
176
     1
 62
     7
176
     1
 40
1.0
176
     1
 90
        1
176
     1
 90
        6
176
     1
 90
        2
176
     1
 62
     7
176
     1
 90
        5
176
     1
 90
        0
176
     1
 90
        0
176
     1
290
     0
176
     1
 90
        1
176
     1
 40
-50.0
176
     1
 90
        0
176
     1
290
     0
176
     1
290
     1
176
     1
290
     1
176
     1
290
     0
176
     1
290
     0
176
     1
290
     0
176
     1
290
     0
176
     1
290
     0
176
     1
290
     0
176
     1
 90
       50
176
     1
 40
0.0
176
     1
 40
1.0
176
     1
 90
        0
176
     1
 62
    18
420
        0
176
     1
 90
       50
176
     1
 90
        3
176
     1
 62
     5
420
      255
176
     1
290
     0
176
     1
 90
       50
176
     1
 90
       50
176
     1
 90
       50
176
     1
290
     0
176
     1
 90
       50
176
     1
 62
   256
176
     0
 40
1.0
176
     0
 90
        2
176
     1
  1
strokes_ogs.tif
176
     1
290
     0
176
     1
 40
1.0
176
     1
 40
1.0
176
     1
  0
VISUALSTYLE
  5
41
102
{ACAD_REACTORS
330
29
102
}
330
29
100
AcDbVisualStyle
  2
EdgeColorOff
 70
    22
177
     3
291
     1
 70
    58
 90
        2
176
     0
 90
        2
176
     0
 90
        0
176
     0
 90
        0
176
     0
 40
0.6
176
     0
 40
30.0
176
     0
 62
     7
420
 16777215
176
     0
 90
        1
176
     0
 90
        4
176
     0
 62
     7
176
     0
 62
   257
176
     0
 90
        1
176
     0
 90
        1
176
     0
 40
1.0
176
     0
 90
        8
176
     2
 62
     7
176
     0
 40
1.0
176
     0
 90
        1
176
     0
 90
        6
176
     0
 90
        2
176
     0
 62
     7
176
     0
 90
        5
176
     0
 90
        0
176
     0
 90
        0
176
     0
290
     0
176
     0
 90
        1
176
     0
 40
0.0
176
     0
 90
        0
176
     0
290
     0
176
     0
290
     1
176
     0
290
     1
176
     0
290
     0
176
     0
290
     0
176
     0
290
     0
176
     0
290
     0
176
     0
290
     0
176
     0
290
     0
176
     0
 90
       50
176
     0
 40
0.0
176
     0
 40
1.0
176
     0
 90
        0
176
     0
 62
    18
420
        0
176
     0
 90
       50
176
     0
 90
        3
176
     0
 62
     5
420
      255
176
     0
290
     0
176
     0
 90
       50
176
     0
 90
       50
176
     0
 90
       50
176
     0
290
     0
176
     0
 90
       50
176
     0
 62
   256
176
     0
 40
1.0
176
     0
 90
        2
176
     0
  1
strokes_ogs.tif
176
     0
290
     0
176
     0
 40
1.0
176
     0
 40
1.0
176
     0
  0
VISUALSTYLE
  5
38
102
{ACAD_REACTORS
330
29
102
}
330
29
100
AcDbVisualStyle
  2
Facepattern
 70
    15
177
     3
291
     1
 70
    58
 90
        2
176
     1
 90
        2
176
     1
 90
        0
176
     1
 90
        0
176
     1
 40
0.6
176
     1
 40
30.0
176
     1
 62
     7
420
 16777215
176
     1
 90
        1
176
     1
 90
        4
176
     1
 62
     7
176
     1
 62
   257
176
     1
 90
        1
176
     1
 90
        1
176
     1
 40
1.0
176
     1
 90
        8
176
     1
 62
     7
176
     1
 40
1.0
176
     1
 90
        1
176
     1
 90
        6
176
     1
 90
        2
176
     1
 62
     7
176
     1
 90
        5
176
     1
 90
        0
176
     1
 90
        0
176
     1
290
     0
176
     1
 90
        1
176
     1
 40
0.0
176
     1
 90
        0
176
     1
290
     0
176
     1
290
     1
176
     1
290
     1
176
     1
290
     0
176
     1
290
     0
176
     1
290
     0
176
     1
290
     0
176
     1
290
     0
176
     1
290
     0
176
     1
 90
       50
176
     1
 40
0.0
176
     1
 40
1.0
176
     1
 90
        0
176
     1
 62
    18
420
        0
176
     1
 90
       50
176
     1
 90
        3
176
     1
 62
     5
420
      255
176
     1
290
     0
176
     1
 90
       50
176
     1
 90
       50
176
     1
 90
       50
176
     1
290
     0
176
     1
 90
       50
176
     1
 62
   256
176
     0
 40
1.0
176
     0
 90
        2
176
     1
  1
strokes_ogs.tif
176
     1
290
     0
176
     1
 40
1.0
176
     1
 40
1.0
176
     1
  0
VISUALSTYLE
  5
2A
102
{ACAD_REACTORS
330
29
102
}
330
29
100
AcDbVisualStyle
  2
Flat
 70
     0
177
     3
291
     1
 70
    58
 90
        2
176
     1
 90
        1
176
     1
 90
        1
176
     1
 90
        2
176
     1
 40
0.6
176
     1
 40
30.0
176
     1
 62
     7
420
 16777215
176
     1
 90
        0
176
     1
 90
        0
176
     1
 62
     7
176
     1
 62
   257
176
     1
 90
        1
176
     1
 90
        1
176
     1
 40
1.0
176
     1
 90
        8
176
     1
 62
     7
176
     1
 40
1.0
176
     1
 90
        1
176
     1
 90
        6
176
     1
 90
        2
176
     1
 62
     7
176
     1
 90
        5
176
     1
 90
        0
176
     1
 90
        0
176
     1
290
     0
176
     1
 90
       13
176
     1
 40
0.0
176
     1
 90
        0
176
     1
290
     0
176
     1
290
     1
176
     1
290
     1
176
     1
290
     0
176
     1
290
     0
176
     1
290
     0
176
     1
290
     0
176
     1
290
     0
176
     1
290
     0
176
     1
 90
       50
176
     1
 40
0.0
176
     1
 40
1.0
176
     1
 90
        0
176
     1
 62
    18
420
        0
176
     1
 90
       50
176
     1
 90
        3
176
     1
 62
     5
420
      255
176
     1
290
     0
176
     1
 90
       50
176
     1
 90
       50
176
     1
 90
       50
176
     1
290
     0
176
     1
 90
       50
176
     1
 62
   256
176
     0
 40
1.0
176
     0
 90
        2
176
     1
  1
strokes_ogs.tif
176
     1
290
     0
176
     1
 40
1.0
176
     1
 40
1.0
176
     1
  0
VISUALSTYLE
  5
2B
102
{ACAD_REACTORS
330
29
102
}
330
29
100
AcDbVisualStyle
  2
FlatWithEdges
 70
     1
177
     3
291
     1
 70
    58
 90
        2
176
     1
 90
        1
176
     1
 90
        1
176
     1
 90
        2
176
     1
 40
0.6
176
     1
 40
30.0
176
     1
 62
     7
420
 16777215
176
     1
 90
        1
176
     1
 90
        0
176
     1
 62
     7
176
     1
 62
   257
176
     1
 90
        1
176
     1
 90
        1
176
     1
 40
1.0
176
     1
 90
        0
176
     1
 62
   257
176
     1
 40
1.0
176
     1
 90
        1
176
     1
 90
        6
176
     1
 90
        2
176
     1
 62
     7
176
     1
 90
        5
176
     1
 90
        0
176
     1
 90
        0
176
     1
290
     0
176
     1
 90
       13
176
     1
 40
0.0
176
     1
 90
        0
176
     1
290
     0
176
     1
290
     1
176
     1
290
     1
176
     1
290
     0
176
     1
290
     0
176
     1
290
     0
176
     1
290
     0
176
     1
290
     0
176
     1
290
     0
176
     1
 90
       50
176
     1
 40
0.0
176
     1
 40
1.0
176
     1
 90
        0
176
     1
 62
    18
420
        0
176
     1
 90
       50
176
     1
 90
        3
176
     1
 62
     5
420
      255
176
     1
290
     0
176
     1
 90
       50
176
     1
 90
       50
176
     1
 90
       50
176
     1
290
     0
176
     1
 90
       50
176
     1
 62
   256
176
     0
 40
1.0
176
     0
 90
        2
176
     1
  1
strokes_ogs.tif
176
     1
290
     0
176
     1
 40
1.0
176
     1
 40
1.0
176
     1
  0
VISUALSTYLE
  5
2C
102
{ACAD_REACTORS
330
29
102
}
330
29
100
AcDbVisualStyle
  2
Gouraud
 70
     2
177
     3
291
     1
 70
    58
 90
        2
176
     1
 90
        2
176
     1
 90
        1
176
     1
 90
        2
176
     1
 40
0.6
176
     1
 40
30.0
176
     1
 62
     7
420
 16777215
176
     1
 90
        0
176
     1
 90
        0
176
     1
 62
     7
176
     1
 62
   257
176
     1
 90
        1
176
     1
 90
        1
176
     1
 40
1.0
176
     1
 90
        0
176
     1
 62
     7
176
     1
 40
1.0
176
     1
 90
        1
176
     1
 90
        6
176
     1
 90
        2
176
     1
 62
     7
176
     1
 90
        5
176
     1
 90
        0
176
     1
 90
        0
176
     1
290
     0
176
     1
 90
       13
176
     1
 40
0.0
176
     1
 90
        0
176
     1
290
     0
176
     1
290
     1
176
     1
290
     1
176
     1
290
     0
176
     1
290
     0
176
     1
290
     0
176
     1
290
     0
176
     1
290
     0
176
     1
290
     0
176
     1
 90
       50
176
     1
 40
0.0
176
     1
 40
1.0
176
     1
 90
        0
176
     1
 62
    18
420
        0
176
     1
 90
       50
176
     1
 90
        3
176
     1
 62
     5
420
      255
176
     1
290
     0
176
     1
 90
       50
176
     1
 90
       50
176
     1
 90
       50
176
     1
290
     0
176
     1
 90
       50
176
     1
 62
   256
176
     0
 40
1.0
176
     0
 90
        2
176
     1
  1
strokes_ogs.tif
176
     1
290
     0
176
     1
 40
1.0
176
     1
 40
1.0
176
     1
  0
VISUALSTYLE
  5
2D
102
{ACAD_REACTORS
330
29
102
}
330
29
100
AcDbVisualStyle
  2
GouraudWithEdges
 70
     3
177
     3
291
     1
 70
    58
 90
        2
176
     1
 90
        2
176
     1
 90
        1
176
     1
 90
        2
176
     1
 40
0.6
176
     1
 40
30.0
176
     1
 62
     7
420
 16777215
176
     1
 90
        1
176
     1
 90
        0
176
     1
 62
     7
176
     1
 62
   257
176
     1
 90
        1
176
     1
 90
        1
176
     1
 40
1.0
176
     1
 90
        0
176
     1
 62
   257
176
     1
 40
1.0
176
     1
 90
        1
176
     1
 90
        6
176
     1
 90
        2
176
     1
 62
     7
176
     1
 90
        5
176
     1
 90
        0
176
     1
 90
        0
176
     1
290
     0
176
     1
 90
       13
176
     1
 40
0.0
176
     1
 90
        0
176
     1
290
     0
176
     1
290
     1
176
     1
290
     1
176
     1
290
     0
176
     1
290
     0
176
     1
290
     0
176
     1
290
     0
176
     1
290
     0
176
     1
290
     0
176
     1
 90
       50
176
     1
 40
0.0
176
     1
 40
1.0
176
     1
 90
        0
176
     1
 62
    18
420
        0
176
     1
 90
       50
176
     1
 90
        3
176
     1
 62
     5
420
      255
176
     1
290
     0
176
     1
 90
       50
176
     1
 90
       50
176
     1
 90
       50
176
     1
290
     0
176
     1
 90
       50
176
     1
 62
   256
176
     0
 40
1.0
176
     0
 90
        2
176
     1
  1
strokes_ogs.tif
176
     1
290
     0
176
     1
 40
1.0
176
     1
 40
1.0
176
     1
  0
VISUALSTYLE
  5
31
102
{ACAD_REACTORS
330
29
102
}
330
29
100
AcDbVisualStyle
  2
Hidden
 70
     6
177
     3
291
     0
 70
    58
 90
        1
176
     1
 90
        2
176
     1
 90
        2
176
     1
 90
        0
176
     1
 40
0.6
176
     1
 40
30.0
176
     1
 62
     7
420
 16777215
176
     1
 90
        2
176
     1
 90
        2
176
     1
 62
     7
176
     1
 62
   257
176
     1
 90
        2
176
     1
 90
        1
176
     1
 40
40.0
176
     1
 90
        0
176
     1
 62
   257
176
     1
 40
1.0
176
     1
 90
        1
176
     1
 90
        6
176
     1
 90
        2
176
     1
 62
     7
176
     1
 90
        3
176
     1
 90
        0
176
     1
 90
        0
176
     1
290
     0
176
     1
 90
        1
176
     1
 40
0.0
176
     1
 90
        0
176
     1
290
     0
176
     1
290
     1
176
     1
290
     1
176
     1
290
     0
176
     1
290
     0
176
     1
290
     0
176
     1
290
     0
176
     1
290
     0
176
     1
290
     0
176
     1
 90
       50
176
     1
 40
0.0
176
     1
 40
1.0
176
     1
 90
        0
176
     1
 62
    18
420
        0
176
     1
 90
       50
176
     1
 90
        3
176
     1
 62
     5
420
      255
176
     1
290
     0
176
     1
 90
       50
176
     1
 90
       50
176
     1
 90
       50
176
     1
290
     0
176
     1
 90
       50
176
     1
 62
   256
176
     0
 40
1.0
176
     0
 90
        2
176
     1
  1
strokes_ogs.tif
176
     1
290
     0
176
     1
 40
1.0
176
     1
 40
1.0
176
     1
  0
VISUALSTYLE
  5
3F
102
{ACAD_REACTORS
330
29
102
}
330
29
100
AcDbVisualStyle
  2
JitterOff
 70
    20
177
     3
291
     1
 70
    58
 90
        2
176
     0
 90
        2
176
     0
 90
        0
176
     0
 90
        0
176
     0
 40
0.6
176
     0
 40
30.0
176
     0
 62
     7
420
 16777215
176
     0
 90
        1
176
     0
 90
        4
176
     0
 62
     7
176
     0
 62
   257
176
     0
 90
        1
176
     0
 90
        1
176
     0
 40
1.0
176
     0
 90
       10
176
     2
 62
     7
176
     0
 40
1.0
176
     0
 90
        1
176
     0
 90
        6
176
     0
 90
        2
176
     0
 62
     7
176
     0
 90
        5
176
     0
 90
        0
176
     0
 90
        0
176
     0
290
     0
176
     0
 90
        1
176
     0
 40
0.0
176
     0
 90
        0
176
     0
290
     0
176
     0
290
     1
176
     0
290
     1
176
     0
290
     0
176
     0
290
     0
176
     0
290
     0
176
     0
290
     0
176
     0
290
     0
176
     0
290
     0
176
     0
 90
       50
176
     0
 40
0.0
176
     0
 40
1.0
176
     0
 90
        0
176
     0
 62
    18
420
        0
176
     0
 90
       50
176
     0
 90
        3
176
     0
 62
     5
420
      255
176
     0
290
     0
176
     0
 90
       50
176
     0
 90
       50
176
     0
 90
       50
176
     0
290
     0
176
     0
 90
       50
176
     0
 62
   256
176
     0
 40
1.0
176
     0
 90
        2
176
     0
  1
strokes_ogs.tif
176
     0
290
     0
176
     0
 40
1.0
176
     0
 40
1.0
176
     0
  0
VISUALSTYLE
  5
37
102
{ACAD_REACTORS
330
29
102
}
330
29
100
AcDbVisualStyle
  2
Linepattern
 70
    14
177
     3
291
     1
 70
    58
 90
        2
176
     1
 90
        2
176
     1
 90
        0
176
     1
 90
        0
176
     1
 40
0.6
176
     1
 40
30.0
176
     1
 62
     7
420
 16777215
176
     1
 90
        1
176
     1
 90
        4
176
     1
 62
     7
176
     1
 62
   257
176
     1
 90
        7
176
     1
 90
        7
176
     1
 40
1.0
176
     1
 90
        8
176
     1
 62
     7
176
     1
 40
1.0
176
     1
 90
        1
176
     1
 90
        6
176
     1
 90
        2
176
     1
 62
     7
176
     1
 90
        5
176
     1
 90
        0
176
     1
 90
        0
176
     1
290
     0
176
     1
 90
        1
176
     1
 40
0.0
176
     1
 90
        0
176
     1
290
     0
176
     1
290
     1
176
     1
290
     1
176
     1
290
     0
176
     1
290
     0
176
     1
290
     0
176
     1
290
     0
176
     1
290
     0
176
     1
290
     0
176
     1
 90
       50
176
     1
 40
0.0
176
     1
 40
1.0
176
     1
 90
        0
176
     1
 62
    18
420
        0
176
     1
 90
       50
176
     1
 90
        3
176
     1
 62
     5
420
      255
176
     1
290
     0
176
     1
 90
       50
176
     1
 90
       50
176
     1
 90
       50
176
     1
290
     0
176
     1
 90
       50
176
     1
 62
   256
176
     0
 40
1.0
176
     0
 90
        2
176
     1
  1
strokes_ogs.tif
176
     1
290
     0
176
     1
 40
1.0
176
     1
 40
1.0
176
     1
  0
VISUALSTYLE
  5
40
102
{ACAD_REACTORS
330
29
102
}
330
29
100
AcDbVisualStyle
  2
OverhangOff
 70
    21
177
     3
291
     1
 70
    58
 90
        2
176
     0
 90
        2
176
     0
 90
        0
176
     0
 90
        0
176
     0
 40
0.6
176
     0
 40
30.0
176
     0
 62
     7
420
 16777215
176
     0
 90
        1
176
     0
 90
        4
176
     0
 62
     7
176
     0
 62
   257
176
     0
 90
        1
176
     0
 90
        1
176
     0
 40
1.0
176
     0
 90
        9
176
     2
 62
     7
176
     0
 40
1.0
176
     0
 90
        1
176
     0
 90
        6
176
     0
 90
        2
176
     0
 62
     7
176
     0
 90
        5
176
     0
 90
        0
176
     0
 90
        0
176
     0
290
     0
176
     0
 90
        1
176
     0
 40
0.0
176
     0
 90
        0
176
     0
290
     0
176
     0
290
     1
176
     0
290
     1
176
     0
290
     0
176
     0
290
     0
176
     0
290
     0
176
     0
290
     0
176
     0
290
     0
176
     0
290
     0
176
     0
 90
       50
176
     0
 40
0.0
176
     0
 40
1.0
176
     0
 90
        0
176
     0
 62
    18
420
        0
176
     0
 90
       50
176
     0
 90
        3
176
     0
 62
     5
420
      255
176
     0
290
     0
176
     0
 90
       50
176
     0
 90
       50
176
     0
 90
       50
176
     0
290
     0
176
     0
 90
       50
176
     0
 62
   256
176
     0
 40
1.0
176
     0
 90
        2
176
     0
  1
strokes_ogs.tif
176
     0
290
     0
176
     0
 40
1.0
176
     0
 40
1.0
176
     0
  0
VISUALSTYLE
  5
33
102
{ACAD_REACTORS
330
29
102
}
330
29
100
AcDbVisualStyle
  2
Realistic
 70
     8
177
     3
291
     0
 70
    58
 90
        2
176
     1
 90
        3
176
     1
 90
        0
176
     1
 90
        2
176
     1
 40
0.6
176
     1
 40
30.0
176
     1
 62
     7
420
 16777215
176
     1
 90
        0
176
     1
 90
        0
176
     1
 62
     7
176
     1
 62
   257
176
     1
 90
        1
176
     1
 90
        1
176
     1
 40
1.0
176
     1
 90
        8
176
     1
 62
   257
176
     1
 40
1.0
176
     1
 90
        1
176
     1
 90
        6
176
     1
 90
        2
176
     1
 62
     7
176
     1
 90
        3
176
     1
 90
        0
176
     1
 90
        0
176
     1
290
     0
176
     1
 90
       13
176
     1
 40
0.0
176
     1
 90
        0
176
     1
290
     0
176
     1
290
     1
176
     1
290
     1
176
     1
290
     0
176
     1
290
     0
176
     1
290
     0
176
     1
290
     0
176
     1
290
     0
176
     1
290
     0
176
     1
 90
       50
176
     1
 40
0.0
176
     1
 40
1.0
176
     1
 90
        0
176
     1
 62
    18
420
        0
176
     1
 90
       50
176
     1
 90
        3
176
     1
 62
     5
420
      255
176
     1
290
     0
176
     1
 90
       50
176
     1
 90
       50
176
     1
 90
       50
176
     1
290
     0
176
     1
 90
       50
176
     1
 62
   256
176
     0
 40
1.0
176
     0
 90
        2
176
     1
  1
strokes_ogs.tif
176
     1
290
     0
176
     1
 40
1.0
176
     1
 40
1.0
176
     1
  0
VISUALSTYLE
  5
3E
102
{ACAD_REACTORS
330
29
102
}
330
29
100
AcDbVisualStyle
  2
Shaded
 70
    27
177
     3
291
     0
 70
    58
 90
        2
176
     1
 90
        2
176
     1
 90
        1
176
     1
 90
        2
176
     1
 40
0.6
176
     1
 40
30.0
176
     1
 62
     7
420
 16777215
176
     1
 90
        0
176
     1
 90
        4
176
     1
 62
     7
176
     1
 62
   257
176
     1
 90
        1
176
     1
 90
        1
176
     1
 40
1.0
176
     1
 90
        8
176
     1
 62
   257
176
     1
 40
1.0
176
     1
 90
        1
176
     1
 90
        6
176
     1
 90
        2
176
     1
 62
     8
420
  7895160
176
     1
 90
        3
176
     1
 90
        0
176
     1
 90
        0
176
     1
290
     0
176
     1
 90
        5
176
     1
 40
0.0
176
     1
 90
        0
176
     1
290
     0
176
     1
290
     1
176
     1
290
     1
176
     1
290
     0
176
     1
290
     0
176
     1
290
     0
176
     1
290
     0
176
     1
290
     0
176
     1
290
     0
176
     1
 90
       50
176
     1
 40
0.0
176
     1
 40
1.0
176
     1
 90
        0
176
     1
 62
    18
420
        0
176
     1
 90
       50
176
     1
 90
        3
176
     1
 62
     5
420
      255
176
     1
290
     0
176
     1
 90
       50
176
     1
 90
       50
176
     1
 90
       50
176
     1
290
     0
176
     1
 90
       50
176
     1
 62
   256
176
     0
 40
1.0
176
     0
 90
        2
176
     1
  1
strokes_ogs.tif
176
     1
290
     0
176
     1
 40
1.0
176
     1
 40
1.0
176
     1
  0
VISUALSTYLE
  5
3D
102
{ACAD_REACTORS
330
29
102
}
330
29
100
AcDbVisualStyle
  2
Shaded with edges
 70
    26
177
     3
291
     0
 70
    58
 90
        2
176
     1
 90
        2
176
     1
 90
        1
176
     1
 90
        2
176
     1
 40
0.6
176
     1
 40
30.0
176
     1
 62
     7
420
 16777215
176
     1
 90
        1
176
     1
 90
        2
176
     1
 62
     7
176
     1
 62
   257
176
     1
 90
        2
176
     1
 90
        1
176
     1
 40
1.0
176
     1
 90
        8
176
     1
 62
   257
176
     1
 40
1.0
176
     1
 90
        1
176
     1
 90
        6
176
     1
 90
        2
176
     1
 62
     7
176
     1
 90
        3
176
     1
 90
        0
176
     1
 90
        0
176
     1
290
     0
176
     1
 90
        5
176
     1
 40
0.0
176
     1
 90
        0
176
     1
290
     0
176
     1
290
     1
176
     1
290
     1
176
     1
290
     0
176
     1
290
     0
176
     1
290
     0
176
     1
290
     0
176
     1
290
     0
176
     1
290
     0
176
     1
 90
       50
176
     1
 40
0.0
176
     1
 40
1.0
176
     1
 90
        0
176
     1
 62
    18
420
        0
176
     1
 90
       50
176
     1
 90
        3
176
     1
 62
     5
420
      255
176
     1
290
     0
176
     1
 90
       50
176
     1
 90
       50
176
     1
 90
       50
176
     1
290
     0
176
     1
 90
       50
176
     1
 62
   256
176
     0
 40
1.0
176
     0
 90
        2
176
     1
  1
strokes_ogs.tif
176
     1
290
     0
176
     1
 40
1.0
176
     1
 40
1.0
176
     1
  0
VISUALSTYLE
  5
3A
102
{ACAD_REACTORS
330
29
102
}
330
29
100
AcDbVisualStyle
  2
Shades of Gray
 70
    23
177
     3
291
     0
 70
    58
 90
        2
176
     1
 90
        2
176
     1
 90
        3
176
     1
 90
        0
176
     1
 40
0.6
176
     1
 40
30.0
176
     1
 62
     7
420
 16777215
176
     1
 90
        2
176
     1
 90
        2
176
     1
 62
     7
176
     1
 62
     7
176
     1
 90
        1
176
     1
 90
        1
176
     1
 40
40.0
176
     1
 90
        8
176
     1
 62
     7
176
     1
 40
1.0
176
     1
 90
        1
176
     1
 90
        6
176
     1
 90
        2
176
     1
 62
     7
176
     1
 90
        3
176
     1
 90
        0
176
     1
 90
        0
176
     1
290
     0
176
     1
 90
        1
176
     1
 40
0.0
176
     1
 90
        0
176
     1
290
     0
176
     1
290
     1
176
     1
290
     1
176
     1
290
     0
176
     1
290
     0
176
     1
290
     0
176
     1
290
     0
176
     1
290
     0
176
     1
290
     0
176
     1
 90
       50
176
     1
 40
0.0
176
     1
 40
1.0
176
     1
 90
        0
176
     1
 62
    18
420
        0
176
     1
 90
       50
176
     1
 90
        3
176
     1
 62
     5
420
      255
176
     1
290
     0
176
     1
 90
       50
176
     1
 90
       50
176
     1
 90
       50
176
     1
290
     0
176
     1
 90
       50
176
     1
 62
   256
176
     0
 40
1.0
176
     0
 90
        2
176
     1
  1
strokes_ogs.tif
176
     1
290
     0
176
     1
 40
1.0
176
     1
 40
1.0
176
     1
  0
VISUALSTYLE
  5
3B
102
{ACAD_REACTORS
330
29
102
}
330
29
100
AcDbVisualStyle
  2
Sketchy
 70
    24
177
     3
291
     0
 70
    58
 90
        1
176
     1
 90
        2
176
     1
 90
        2
176
     1
 90
        0
176
     1
 40
0.6
176
     1
 40
30.0
176
     1
 62
     7
420
 16777215
176
     1
 90
        2
176
     1
 90
        2
176
     1
 62
     7
176
     1
 62
     7
176
     1
 90
        1
176
     1
 90
        1
176
     1
 40
40.0
176
     1
 90
       11
176
     1
 62
     7
176
     1
 40
1.0
176
     1
 90
        1
176
     1
 90
        6
176
     1
 90
        2
176
     1
 62
     7
176
     1
 90
        6
176
     1
 90
        0
176
     1
 90
        0
176
     1
290
     0
176
     1
 90
        1
176
     1
 40
0.0
176
     1
 90
        0
176
     1
290
     0
176
     1
290
     1
176
     1
290
     1
176
     1
290
     0
176
     1
290
     0
176
     1
290
     0
176
     1
290
     0
176
     1
290
     0
176
     1
290
     0
176
     1
 90
       50
176
     1
 40
0.0
176
     1
 40
1.0
176
     1
 90
        0
176
     1
 62
    18
420
        0
176
     1
 90
       50
176
     1
 90
        3
176
     1
 62
     5
420
      255
176
     1
290
     0
176
     1
 90
       50
176
     1
 90
       50
176
     1
 90
       50
176
     1
290
     0
176
     1
 90
       50
176
     1
 62
   256
176
     0
 40
1.0
176
     0
 90
        2
176
     1
  1
strokes_ogs.tif
176
     1
290
     0
176
     1
 40
1.0
176
     1
 40
1.0
176
     1
  0
VISUALSTYLE
  5
36
102
{ACAD_REACTORS
330
29
102
}
330
29
100
AcDbVisualStyle
  2
Thicken
 70
    13
177
     3
291
     1
 70
    58
 90
        2
176
     1
 90
        2
176
     1
 90
        0
176
     1
 90
        0
176
     1
 40
0.6
176
     1
 40
30.0
176
     1
 62
     7
420
 16777215
176
     1
 90
        1
176
     1
 90
        4
176
     1
 62
     7
176
     1
 62
   257
176
     1
 90
        1
176
     1
 90
        1
176
     1
 40
1.0
176
     1
 90
       12
176
     1
 62
     7
176
     1
 40
1.0
176
     1
 90
        1
176
     1
 90
        6
176
     1
 90
        2
176
     1
 62
     7
176
     1
 90
        5
176
     1
 90
        0
176
     1
 90
        0
176
     1
290
     0
176
     1
 90
        1
176
     1
 40
0.0
176
     1
 90
        0
176
     1
290
     0
176
     1
290
     1
176
     1
290
     1
176
     1
290
     0
176
     1
290
     0
176
     1
290
     0
176
     1
290
     0
176
     1
290
     0
176
     1
290
     0
176
     1
 90
       50
176
     1
 40
0.0
176
     1
 40
1.0
176
     1
 90
        0
176
     1
 62
    18
420
        0
176
     1
 90
       50
176
     1
 90
        3
176
     1
 62
     5
420
      255
176
     1
290
     0
176
     1
 90
       50
176
     1
 90
       50
176
     1
 90
       50
176
     1
290
     0
176
     1
 90
       50
176
     1
 62
   256
176
     0
 40
1.0
176
     0
 90
        2
176
     1
  1
strokes_ogs.tif
176
     1
290
     0
176
     1
 40
1.0
176
     1
 40
1.0
176
     1
  0
VISUALSTYLE
  5
30
102
{ACAD_REACTORS
330
29
102
}
330
29
100
AcDbVisualStyle
  2
Wireframe
 70
     5
177
     3
291
     0
 70
    58
 90
        0
176
     1
 90
        2
176
     1
 90
        0
176
     1
 90
        0
176
     1
 40
0.6
176
     1
 40
30.0
176
     1
 62
     7
420
 16777215
176
     1
 90
        1
176
     1
 90
        4
176
     1
 62
     7
176
     1
 62
   257
176
     1
 90
        1
176
     1
 90
        1
176
     1
 40
1.0
176
     1
 90
        0
176
     1
 62
   257
176
     1
 40
1.0
176
     1
 90
        1
176
     1
 90
        6
176
     1
 90
        2
176
     1
 62
     7
176
     1
 90
        3
176
     1
 90
        0
176
     1
 90
        0
176
     1
290
     0
176
     1
 90
        1
176
     1
 40
0.0
176
     1
 90
        0
176
     1
290
     0
176
     1
290
     1
176
     1
290
     1
176
     1
290
     0
176
     1
290
     0
176
     1
290
     0
176
     1
290
     0
176
     1
290
     0
176
     1
290
     0
176
     1
 90
       50
176
     1
 40
0.0
176
     1
 40
1.0
176
     1
 90
        0
176
     1
 62
    18
420
        0
176
     1
 90
       50
176
     1
 90
        3
176
     1
 62
     5
420
      255
176
     1
290
     0
176
     1
 90
       50
176
     1
 90
       50
176
     1
 90
       50
176
     1
290
     0
176
     1
 90
       50
176
     1
 62
   256
176
     0
 40
1.0
176
     0
 90
        2
176
     1
  1
strokes_ogs.tif
176
     1
290
     0
176
     1
 40
1.0
176
     1
 40
1.0
176
     1
  0
VISUALSTYLE
  5
3C
102
{ACAD_REACTORS
330
29
102
}
330
29
100
AcDbVisualStyle
  2
X-Ray
 70
    25
177
     3
291
     0
 70
    58
 90
        2
176
     1
 90
        2
176
     1
 90
        1
176
     1
 90
        1
176
     1
 40
0.5
176
     1
 40
30.0
176
     1
 62
     7
420
 16777215
176
     1
 90
        1
176
     1
 90
        0
176
     1
 62
     7
176
     1
 62
   257
176
     1
 90
        1
176
     1
 90
        1
176
     1
 40
1.0
176
     1
 90
        8
176
     1
 62
     7
176
     1
 40
1.0
176
     1
 90
        1
176
     1
 90
        6
176
     1
 90
        2
176
     1
 62
     7
176
     1
 90
        3
176
     1
 90
        0
176
     1
 90
        0
176
     1
290
     0
176
     1
 90
       13
176
     1
 40
0.0
176
     1
 90
        0
176
     1
290
     0
176
     1
290
     1
176
     1
290
     1
176
     1
290
     0
176
     1
290
     0
176
     1
290
     0
176
     1
290
     0
176
     1
290
     0
176
     1
290
     0
176
     1
 90
       50
176
     1
 40
0.0
176
     1
 40
1.0
176
     1
 90
        0
176
     1
 62
    18
420
        0
176
     1
 90
       50
176
     1
 90
        3
176
     1
 62
     5
420
      255
176
     1
290
     0
176
     1
 90
       50
176
     1
 90
       50
176
     1
 90
       50
176
     1
290
     0
176
     1
 90
       50
176
     1
 62
   256
176
     0
 40
1.0
176
     0
 90
        2
176
     1
  1
strokes_ogs.tif
176
     1
290
     0
176
     1
 40
1.0
176
     1
 40
1.0
176
     1
  0
DICTIONARYVAR
  5
A8
102
{ACAD_REACTORS
330
A3
102
}
330
A3
100
DictionaryVariables
280
     0
  1
1:1
  0
DICTIONARYVAR
  5
A5
102
{ACAD_REACTORS
330
A3
102
}
330
A3
100
DictionaryVariables
280
     0
  1
STANDARD
  0
DICTIONARYVAR
  5
A4
102
{ACAD_REACTORS
330
A3
102
}
330
A3
100
DictionaryVariables
280
     0
  1
STANDARD
  0
DICTIONARYVAR
  5
A6
102
{ACAD_REACTORS
330
A3
102
}
330
A3
100
DictionaryVariables
280
     0
  1
Imperial24
  0
DICTIONARYVAR
  5
A7
102
{ACAD_REACTORS
330
A3
102
}
330
A3
100
DictionaryVariables
280
     0
  1
Imperial24
  0
DICTIONARY
  5
1A
330
19
100
AcDbDictionary
280
     1
281
     1
  3
BUMPTILE
360
1C
  3
DIFFUSETILE
360
1B
  3
OPACITYTILE
360
1F
  3
REFLECTIONTILE
360
1E
  3
REFRACTIONTILE
360
20
  3
SPECULARTILE
360
1D
  0
DICTIONARY
  5
12
330
11
100
AcDbDictionary
280
     1
281
     1
  3
BUMPTILE
360
14
  3
DIFFUSETILE
360
13
  3
OPACITYTILE
360
17
  3
REFLECTIONTILE
360
16
  3
REFRACTIONTILE
360
18
  3
SPECULARTILE
360
15
  0
DICTIONARY
  5
22
330
21
100
AcDbDictionary
280
     1
281
     1
  3
BUMPTILE
360
24
  3
DIFFUSETILE
360
23
  3
OPACITYTILE
360
27
  3
REFLECTIONTILE
360
26
  3
REFRACTIONTILE
360
28
  3
SPECULARTILE
360
25
  0
DICTIONARY
  5
A9
330
65
100
AcDbDictionary
280
     1
281
     1
  3
ACAD_ROUNDTRIP_2008_TABLESTYLE_CELLSTYLEMAP
360
AA
  0
XRECORD
  5
1C
102
{ACAD_REACTORS
330
1A
102
}
330
1A
100
AcDbXrecord
280
     1
270
     1
271
     1
  0
XRECORD
  5
1B
102
{ACAD_REACTORS
330
1A
102
}
330
1A
100
AcDbXrecord
280
     1
270
     1
271
     1
  0
XRECORD
  5
1F
102
{ACAD_REACTORS
330
1A
102
}
330
1A
100
AcDbXrecord
280
     1
270
     1
271
     1
  0
XRECORD
  5
1E
102
{ACAD_REACTORS
330
1A
102
}
330
1A
100
AcDbXrecord
280
     1
270
     1
271
     1
  0
XRECORD
  5
20
102
{ACAD_REACTORS
330
1A
102
}
330
1A
100
AcDbXrecord
280
     1
270
     1
271
     1
  0
XRECORD
  5
1D
102
{ACAD_REACTORS
330
1A
102
}
330
1A
100
AcDbXrecord
280
     1
270
     1
271
     1
  0
XRECORD
  5
14
102
{ACAD_REACTORS
330
12
102
}
330
12
100
AcDbXrecord
280
     1
270
     1
271
     1
  0
XRECORD
  5
13
102
{ACAD_REACTORS
330
12
102
}
330
12
100
AcDbXrecord
280
     1
270
     1
271
     1
  0
XRECORD
  5
17
102
{ACAD_REACTORS
330
12
102
}
330
12
100
AcDbXrecord
280
     1
270
     1
271
     1
  0
XRECORD
  5
16
102
{ACAD_REACTORS
330
12
102
}
330
12
100
AcDbXrecord
280
     1
270
     1
271
     1
  0
XRECORD
  5
18
102
{ACAD_REACTORS
330
12
102
}
330
12
100
AcDbXrecord
280
     1
270
     1
271
     1
  0
XRECORD
  5
15
102
{ACAD_REACTORS
330
12
102
}
330
12
100
AcDbXrecord
280
     1
270
     1
271
     1
  0
XRECORD
  5
24
102
{ACAD_REACTORS
330
22
102
}
330
22
100
AcDbXrecord
280
     1
270
     1
271
     1
  0
XRECORD
  5
23
102
{ACAD_REACTORS
330
22
102
}
330
22
100
AcDbXrecord
280
     1
270
     1
271
     1
  0
XRECORD
  5
27
102
{ACAD_REACTORS
330
22
102
}
330
22
100
AcDbXrecord
280
     1
270
     1
271
     1
  0
XRECORD
  5
26
102
{ACAD_REACTORS
330
22
102
}
330
22
100
AcDbXrecord
280
     1
270
     1
271
     1
  0
XRECORD
  5
28
102
{ACAD_REACTORS
330
22
102
}
330
22
100
AcDbXrecord
280
     1
270
     1
271
     1
  0
XRECORD
  5
25
102
{ACAD_REACTORS
330
22
102
}
330
22
100
AcDbXrecord
280
     1
270
     1
271
     1
  0
CELLSTYLEMAP
  5
AA
102
{ACAD_REACTORS
330
A9
102
}
330
A9
100
AcDbCellStyleMap
 90
        3
300
CELLSTYLE
  1
TABLEFORMAT_BEGIN
 90
        5
170
     1
 91
        0
 92
    32768
 62
   257
 93
        1
300
CONTENTFORMAT
  1
CONTENTFORMAT_BEGIN
 90
        0
 91
        0
 92
      512
 93
        0
300

 40
0.0
140
1.0
 94
        5
 62
     0
340
55
144
0.25
309
CONTENTFORMAT_END
171
     0
 94
        0
309
TABLEFORMAT_END
  1
CELLSTYLE_BEGIN
 90
        1
 91
        1
300
_TITLE
309
CELLSTYLE_END
300
CELLSTYLE
  1
TABLEFORMAT_BEGIN
 90
        5
170
     1
 91
        0
 92
        0
 62
   257
 93
        1
300
CONTENTFORMAT
  1
CONTENTFORMAT_BEGIN
 90
        0
 91
        0
 92
      512
 93
        0
300

 40
0.0
140
1.0
 94
        5
 62
     0
340
55
144
0.18
309
CONTENTFORMAT_END
171
     0
 94
        0
309
TABLEFORMAT_END
  1
CELLSTYLE_BEGIN
 90
        2
 91
        1
300
_HEADER
309
CELLSTYLE_END
300
CELLSTYLE
  1
TABLEFORMAT_BEGIN
 90
        5
170
     1
 91
        0
 92
        0
 62
   257
 93
        1
300
CONTENTFORMAT
  1
CONTENTFORMAT_BEGIN
 90
        0
 91
        0
 92
      512
 93
        0
300

 40
0.0
140
1.0
 94
        2
 62
     0
340
55
144
0.18
309
CONTENTFORMAT_END
171
     0
 94
        0
309
TABLEFORMAT_END
  1
CELLSTYLE_BEGIN
 90
        3
 91
        2
300
_DATA
309
CELLSTYLE_END
  0
ENDSEC
  0
EOF
