M48
; DRILL file {KiCad 9.0.5} date 2025-10-09T03:13:53-0600
; FORMAT={-:-/ absolute / metric / decimal}
; #@! TF.CreationDate,2025-10-09T03:13:53-06:00
; #@! TF.GenerationSoftware,Kicad,Pcbnew,9.0.5
; #@! TF.FileFunction,Plated,1,2,PTH
FMAT,2
METRIC
; #@! TA.AperFunction,Plated,PTH,ViaDrill
T1C0.600
; #@! TA.AperFunction,Plated,PTH,ComponentDrill
T2C0.950
; #@! TA.AperFunction,Plated,PTH,ComponentDrill
T3C1.000
; #@! TA.AperFunction,Plated,PTH,ComponentDrill
T4C1.200
%
G90
G05
T1
X1.74Y46.45
X4.31Y41.13
X4.35Y34.56
X5.72Y12.15
X5.79Y33.41
X6.85Y37.71
X7.88Y12.09
X9.393Y1.412
X13.27Y46.52
X14.46Y31.97
X38.92Y34.07
X38.94Y32.78
X38.95Y31.53
X38.95Y30.25
X42.06Y45.36
X43.45Y28.26
X45.31Y27.87
X46.802Y39.883
X49.79Y41.11
T2
X26.63Y52.31
X29.13Y52.31
X31.63Y52.31
X34.13Y52.31
T3
X2.48Y21.2
X2.48Y18.66
X2.48Y16.12
X2.48Y13.58
X7.56Y21.225
X7.56Y18.685
X13.98Y52.35
X16.48Y52.35
X24.258Y46.54
X24.258Y44.0
X24.258Y41.46
X24.258Y38.92
X24.258Y36.38
X24.258Y33.84
X24.258Y31.3
X24.258Y28.76
X26.797Y46.54
X29.337Y46.54
X36.957Y46.54
X36.957Y44.0
X36.957Y41.46
X36.957Y38.92
X36.957Y36.38
X36.957Y33.84
X36.957Y31.3
X36.957Y28.76
T4
X12.93Y12.28
X12.93Y4.08
X17.93Y12.28
X17.93Y4.08
X22.93Y12.28
X22.93Y4.08
X27.93Y12.28
X27.93Y4.08
X32.93Y12.28
X32.93Y4.08
X37.93Y12.28
X37.93Y4.08
X42.93Y12.28
X42.93Y4.08
X47.93Y12.28
X47.93Y4.08
T3
G00X7.19Y31.031
M15
G01X7.19Y32.031
M16
G05
G00X9.09Y31.02
M15
G01X9.09Y32.02
M16
G05
M30
