%TF.GenerationSoftware,KiCad,Pcbnew,9.0.5*%
%TF.CreationDate,2025-10-09T03:13:53-06:00*%
%TF.ProjectId,SpiderController,53706964-6572-4436-9f6e-74726f6c6c65,1.0*%
%TF.SameCoordinates,PX55d98a0PY8583b00*%
%TF.FileFunction,Drillmap*%
%TF.FilePolarity,Positive*%
%FSLAX45Y45*%
G04 Gerber Fmt 4.5, Leading zero omitted, Abs format (unit mm)*
G04 Created by KiCad (PCBNEW 9.0.5) date 2025-10-09 03:13:53*
%MOMM*%
%LPD*%
G01*
G04 APERTURE LIST*
%ADD10C,0.200000*%
%ADD11C,0.050000*%
G04 APERTURE END LIST*
D10*
X5498000Y200000D02*
X5498000Y5000000D01*
D11*
X5208000Y5000000D02*
G75*
G02*
X4788000Y5000000I-210000J0D01*
G01*
X4788000Y5000000D02*
G75*
G02*
X5208000Y5000000I210000J0D01*
G01*
D10*
X-2000Y5000000D02*
G75*
G02*
X498000Y5500000I500000J0D01*
G01*
X4998000Y5500000D02*
X498000Y5500000D01*
X198000Y0D02*
G75*
G02*
X-2000Y200000I0J200000D01*
G01*
X5498000Y200000D02*
G75*
G02*
X5298000Y0I-200000J0D01*
G01*
X198000Y0D02*
X5298000Y0D01*
X4998000Y5500000D02*
G75*
G02*
X5498000Y5000000I0J-500000D01*
G01*
D11*
X708000Y5000000D02*
G75*
G02*
X288000Y5000000I-210000J0D01*
G01*
X288000Y5000000D02*
G75*
G02*
X708000Y5000000I210000J0D01*
G01*
D10*
X-2000Y5000000D02*
X-2000Y200000D01*
X248777Y-321484D02*
X248777Y-121484D01*
X248777Y-121484D02*
X296396Y-121484D01*
X296396Y-121484D02*
X324967Y-131008D01*
X324967Y-131008D02*
X344015Y-150055D01*
X344015Y-150055D02*
X353539Y-169103D01*
X353539Y-169103D02*
X363062Y-207198D01*
X363062Y-207198D02*
X363062Y-235769D01*
X363062Y-235769D02*
X353539Y-273865D01*
X353539Y-273865D02*
X344015Y-292912D01*
X344015Y-292912D02*
X324967Y-311960D01*
X324967Y-311960D02*
X296396Y-321484D01*
X296396Y-321484D02*
X248777Y-321484D01*
X448777Y-321484D02*
X448777Y-188150D01*
X448777Y-226246D02*
X458301Y-207198D01*
X458301Y-207198D02*
X467824Y-197674D01*
X467824Y-197674D02*
X486872Y-188150D01*
X486872Y-188150D02*
X505920Y-188150D01*
X572586Y-321484D02*
X572586Y-188150D01*
X572586Y-121484D02*
X563063Y-131008D01*
X563063Y-131008D02*
X572586Y-140531D01*
X572586Y-140531D02*
X582110Y-131008D01*
X582110Y-131008D02*
X572586Y-121484D01*
X572586Y-121484D02*
X572586Y-140531D01*
X696396Y-321484D02*
X677348Y-311960D01*
X677348Y-311960D02*
X667824Y-292912D01*
X667824Y-292912D02*
X667824Y-121484D01*
X801158Y-321484D02*
X782110Y-311960D01*
X782110Y-311960D02*
X772586Y-292912D01*
X772586Y-292912D02*
X772586Y-121484D01*
X1029729Y-321484D02*
X1029729Y-121484D01*
X1029729Y-121484D02*
X1096396Y-264341D01*
X1096396Y-264341D02*
X1163063Y-121484D01*
X1163063Y-121484D02*
X1163063Y-321484D01*
X1344015Y-321484D02*
X1344015Y-216722D01*
X1344015Y-216722D02*
X1334491Y-197674D01*
X1334491Y-197674D02*
X1315444Y-188150D01*
X1315444Y-188150D02*
X1277348Y-188150D01*
X1277348Y-188150D02*
X1258301Y-197674D01*
X1344015Y-311960D02*
X1324967Y-321484D01*
X1324967Y-321484D02*
X1277348Y-321484D01*
X1277348Y-321484D02*
X1258301Y-311960D01*
X1258301Y-311960D02*
X1248777Y-292912D01*
X1248777Y-292912D02*
X1248777Y-273865D01*
X1248777Y-273865D02*
X1258301Y-254817D01*
X1258301Y-254817D02*
X1277348Y-245293D01*
X1277348Y-245293D02*
X1324967Y-245293D01*
X1324967Y-245293D02*
X1344015Y-235769D01*
X1439253Y-188150D02*
X1439253Y-388150D01*
X1439253Y-197674D02*
X1458301Y-188150D01*
X1458301Y-188150D02*
X1496396Y-188150D01*
X1496396Y-188150D02*
X1515443Y-197674D01*
X1515443Y-197674D02*
X1524967Y-207198D01*
X1524967Y-207198D02*
X1534491Y-226246D01*
X1534491Y-226246D02*
X1534491Y-283389D01*
X1534491Y-283389D02*
X1524967Y-302436D01*
X1524967Y-302436D02*
X1515443Y-311960D01*
X1515443Y-311960D02*
X1496396Y-321484D01*
X1496396Y-321484D02*
X1458301Y-321484D01*
X1458301Y-321484D02*
X1439253Y-311960D01*
X1620205Y-302436D02*
X1629729Y-311960D01*
X1629729Y-311960D02*
X1620205Y-321484D01*
X1620205Y-321484D02*
X1610682Y-311960D01*
X1610682Y-311960D02*
X1620205Y-302436D01*
X1620205Y-302436D02*
X1620205Y-321484D01*
X1620205Y-197674D02*
X1629729Y-207198D01*
X1629729Y-207198D02*
X1620205Y-216722D01*
X1620205Y-216722D02*
X1610682Y-207198D01*
X1610682Y-207198D02*
X1620205Y-197674D01*
X1620205Y-197674D02*
X1620205Y-216722D01*
M02*
