%TF.GenerationSoftware,KiCad,Pcbnew,9.0.5*%
%TF.CreationDate,2025-10-09T03:15:18-06:00*%
%TF.ProjectId,SpiderController,53706964-6572-4436-9f6e-74726f6c6c65,1.0*%
%TF.SameCoordinates,PX55d98a0PY8583b00*%
%TF.FileFunction,Legend,Top*%
%TF.FilePolarity,Positive*%
%FSLAX46Y46*%
G04 Gerber Fmt 4.6, Leading zero omitted, Abs format (unit mm)*
G04 Created by KiCad (PCBNEW 9.0.5) date 2025-10-09 03:15:18*
%MOMM*%
%LPD*%
G01*
G04 APERTURE LIST*
%ADD10C,0.400000*%
%ADD11C,0.300000*%
%ADD12C,0.100000*%
%ADD13C,0.150000*%
%ADD14C,0.120000*%
%ADD15C,0.127000*%
%ADD16C,0.200000*%
G04 APERTURE END LIST*
D10*
X49046776Y19439848D02*
X48665823Y19630324D01*
X48665823Y19630324D02*
X48094395Y19630324D01*
X48094395Y19630324D02*
X47522966Y19439848D01*
X47522966Y19439848D02*
X47142014Y19058896D01*
X47142014Y19058896D02*
X46951537Y18677943D01*
X46951537Y18677943D02*
X46761061Y17916039D01*
X46761061Y17916039D02*
X46761061Y17344610D01*
X46761061Y17344610D02*
X46951537Y16582705D01*
X46951537Y16582705D02*
X47142014Y16201753D01*
X47142014Y16201753D02*
X47522966Y15820800D01*
X47522966Y15820800D02*
X48094395Y15630324D01*
X48094395Y15630324D02*
X48475347Y15630324D01*
X48475347Y15630324D02*
X49046776Y15820800D01*
X49046776Y15820800D02*
X49237252Y16011277D01*
X49237252Y16011277D02*
X49237252Y17344610D01*
X49237252Y17344610D02*
X48475347Y17344610D01*
X26857061Y15820800D02*
X27428490Y15630324D01*
X27428490Y15630324D02*
X28380871Y15630324D01*
X28380871Y15630324D02*
X28761823Y15820800D01*
X28761823Y15820800D02*
X28952299Y16011277D01*
X28952299Y16011277D02*
X29142776Y16392229D01*
X29142776Y16392229D02*
X29142776Y16773181D01*
X29142776Y16773181D02*
X28952299Y17154134D01*
X28952299Y17154134D02*
X28761823Y17344610D01*
X28761823Y17344610D02*
X28380871Y17535086D01*
X28380871Y17535086D02*
X27618966Y17725562D01*
X27618966Y17725562D02*
X27238014Y17916039D01*
X27238014Y17916039D02*
X27047537Y18106515D01*
X27047537Y18106515D02*
X26857061Y18487467D01*
X26857061Y18487467D02*
X26857061Y18868420D01*
X26857061Y18868420D02*
X27047537Y19249372D01*
X27047537Y19249372D02*
X27238014Y19439848D01*
X27238014Y19439848D02*
X27618966Y19630324D01*
X27618966Y19630324D02*
X28571347Y19630324D01*
X28571347Y19630324D02*
X29142776Y19439848D01*
X36999537Y15630324D02*
X36999537Y19630324D01*
X36999537Y19630324D02*
X38523347Y19630324D01*
X38523347Y19630324D02*
X38904299Y19439848D01*
X38904299Y19439848D02*
X39094776Y19249372D01*
X39094776Y19249372D02*
X39285252Y18868420D01*
X39285252Y18868420D02*
X39285252Y18296991D01*
X39285252Y18296991D02*
X39094776Y17916039D01*
X39094776Y17916039D02*
X38904299Y17725562D01*
X38904299Y17725562D02*
X38523347Y17535086D01*
X38523347Y17535086D02*
X36999537Y17535086D01*
D11*
X36519558Y20830362D02*
X36519558Y22830362D01*
X36519558Y22830362D02*
X37281463Y22830362D01*
X37281463Y22830362D02*
X37471939Y22735124D01*
X37471939Y22735124D02*
X37567177Y22639886D01*
X37567177Y22639886D02*
X37662415Y22449410D01*
X37662415Y22449410D02*
X37662415Y22163696D01*
X37662415Y22163696D02*
X37567177Y21973220D01*
X37567177Y21973220D02*
X37471939Y21877981D01*
X37471939Y21877981D02*
X37281463Y21782743D01*
X37281463Y21782743D02*
X36519558Y21782743D01*
X38519558Y20830362D02*
X38519558Y22163696D01*
X38519558Y22830362D02*
X38424320Y22735124D01*
X38424320Y22735124D02*
X38519558Y22639886D01*
X38519558Y22639886D02*
X38614796Y22735124D01*
X38614796Y22735124D02*
X38519558Y22830362D01*
X38519558Y22830362D02*
X38519558Y22639886D01*
X39281463Y20830362D02*
X40329082Y22163696D01*
X39281463Y22163696D02*
X40329082Y20830362D01*
X41852892Y20925600D02*
X41662416Y20830362D01*
X41662416Y20830362D02*
X41281463Y20830362D01*
X41281463Y20830362D02*
X41090987Y20925600D01*
X41090987Y20925600D02*
X40995749Y21116077D01*
X40995749Y21116077D02*
X40995749Y21877981D01*
X40995749Y21877981D02*
X41090987Y22068458D01*
X41090987Y22068458D02*
X41281463Y22163696D01*
X41281463Y22163696D02*
X41662416Y22163696D01*
X41662416Y22163696D02*
X41852892Y22068458D01*
X41852892Y22068458D02*
X41948130Y21877981D01*
X41948130Y21877981D02*
X41948130Y21687505D01*
X41948130Y21687505D02*
X40995749Y21497029D01*
X43090987Y20830362D02*
X42900511Y20925600D01*
X42900511Y20925600D02*
X42805273Y21116077D01*
X42805273Y21116077D02*
X42805273Y22830362D01*
X45757654Y22830362D02*
X46138607Y22830362D01*
X46138607Y22830362D02*
X46329083Y22735124D01*
X46329083Y22735124D02*
X46519559Y22544648D01*
X46519559Y22544648D02*
X46614797Y22163696D01*
X46614797Y22163696D02*
X46614797Y21497029D01*
X46614797Y21497029D02*
X46519559Y21116077D01*
X46519559Y21116077D02*
X46329083Y20925600D01*
X46329083Y20925600D02*
X46138607Y20830362D01*
X46138607Y20830362D02*
X45757654Y20830362D01*
X45757654Y20830362D02*
X45567178Y20925600D01*
X45567178Y20925600D02*
X45376702Y21116077D01*
X45376702Y21116077D02*
X45281464Y21497029D01*
X45281464Y21497029D02*
X45281464Y22163696D01*
X45281464Y22163696D02*
X45376702Y22544648D01*
X45376702Y22544648D02*
X45567178Y22735124D01*
X45567178Y22735124D02*
X45757654Y22830362D01*
X48329083Y22163696D02*
X48329083Y20830362D01*
X47471940Y22163696D02*
X47471940Y21116077D01*
X47471940Y21116077D02*
X47567178Y20925600D01*
X47567178Y20925600D02*
X47757654Y20830362D01*
X47757654Y20830362D02*
X48043369Y20830362D01*
X48043369Y20830362D02*
X48233845Y20925600D01*
X48233845Y20925600D02*
X48329083Y21020839D01*
X48995750Y22163696D02*
X49757654Y22163696D01*
X49281464Y22830362D02*
X49281464Y21116077D01*
X49281464Y21116077D02*
X49376702Y20925600D01*
X49376702Y20925600D02*
X49567178Y20830362D01*
X49567178Y20830362D02*
X49757654Y20830362D01*
D10*
X12859200Y15757443D02*
X12859200Y18043157D01*
X14002057Y16900300D02*
X11716342Y16900300D01*
X14002057Y21043158D02*
X14002057Y19328872D01*
X14002057Y20186015D02*
X11002057Y20186015D01*
X11002057Y20186015D02*
X11430628Y19900301D01*
X11430628Y19900301D02*
X11716342Y19614586D01*
X11716342Y19614586D02*
X11859200Y19328872D01*
X11287771Y22186015D02*
X11144914Y22328872D01*
X11144914Y22328872D02*
X11002057Y22614586D01*
X11002057Y22614586D02*
X11002057Y23328872D01*
X11002057Y23328872D02*
X11144914Y23614586D01*
X11144914Y23614586D02*
X11287771Y23757444D01*
X11287771Y23757444D02*
X11573485Y23900301D01*
X11573485Y23900301D02*
X11859200Y23900301D01*
X11859200Y23900301D02*
X12287771Y23757444D01*
X12287771Y23757444D02*
X14002057Y22043158D01*
X14002057Y22043158D02*
X14002057Y23900301D01*
X22071537Y15630324D02*
X22071537Y19630324D01*
X22071537Y19630324D02*
X23595347Y19630324D01*
X23595347Y19630324D02*
X23976299Y19439848D01*
X23976299Y19439848D02*
X24166776Y19249372D01*
X24166776Y19249372D02*
X24357252Y18868420D01*
X24357252Y18868420D02*
X24357252Y18296991D01*
X24357252Y18296991D02*
X24166776Y17916039D01*
X24166776Y17916039D02*
X23976299Y17725562D01*
X23976299Y17725562D02*
X23595347Y17535086D01*
X23595347Y17535086D02*
X22071537Y17535086D01*
X16164914Y17368872D02*
X16022057Y17083157D01*
X16022057Y17083157D02*
X16022057Y16654586D01*
X16022057Y16654586D02*
X16164914Y16226015D01*
X16164914Y16226015D02*
X16450628Y15940300D01*
X16450628Y15940300D02*
X16736342Y15797443D01*
X16736342Y15797443D02*
X17307771Y15654586D01*
X17307771Y15654586D02*
X17736342Y15654586D01*
X17736342Y15654586D02*
X18307771Y15797443D01*
X18307771Y15797443D02*
X18593485Y15940300D01*
X18593485Y15940300D02*
X18879200Y16226015D01*
X18879200Y16226015D02*
X19022057Y16654586D01*
X19022057Y16654586D02*
X19022057Y16940300D01*
X19022057Y16940300D02*
X18879200Y17368872D01*
X18879200Y17368872D02*
X18736342Y17511729D01*
X18736342Y17511729D02*
X17736342Y17511729D01*
X17736342Y17511729D02*
X17736342Y16940300D01*
X19022057Y18797443D02*
X16022057Y18797443D01*
X16022057Y18797443D02*
X19022057Y20511729D01*
X19022057Y20511729D02*
X16022057Y20511729D01*
X19022057Y21940300D02*
X16022057Y21940300D01*
X16022057Y21940300D02*
X16022057Y22654586D01*
X16022057Y22654586D02*
X16164914Y23083157D01*
X16164914Y23083157D02*
X16450628Y23368872D01*
X16450628Y23368872D02*
X16736342Y23511729D01*
X16736342Y23511729D02*
X17307771Y23654586D01*
X17307771Y23654586D02*
X17736342Y23654586D01*
X17736342Y23654586D02*
X18307771Y23511729D01*
X18307771Y23511729D02*
X18593485Y23368872D01*
X18593485Y23368872D02*
X18879200Y23083157D01*
X18879200Y23083157D02*
X19022057Y22654586D01*
X19022057Y22654586D02*
X19022057Y21940300D01*
X41785061Y15820800D02*
X42356490Y15630324D01*
X42356490Y15630324D02*
X43308871Y15630324D01*
X43308871Y15630324D02*
X43689823Y15820800D01*
X43689823Y15820800D02*
X43880299Y16011277D01*
X43880299Y16011277D02*
X44070776Y16392229D01*
X44070776Y16392229D02*
X44070776Y16773181D01*
X44070776Y16773181D02*
X43880299Y17154134D01*
X43880299Y17154134D02*
X43689823Y17344610D01*
X43689823Y17344610D02*
X43308871Y17535086D01*
X43308871Y17535086D02*
X42546966Y17725562D01*
X42546966Y17725562D02*
X42166014Y17916039D01*
X42166014Y17916039D02*
X41975537Y18106515D01*
X41975537Y18106515D02*
X41785061Y18487467D01*
X41785061Y18487467D02*
X41785061Y18868420D01*
X41785061Y18868420D02*
X41975537Y19249372D01*
X41975537Y19249372D02*
X42166014Y19439848D01*
X42166014Y19439848D02*
X42546966Y19630324D01*
X42546966Y19630324D02*
X43499347Y19630324D01*
X43499347Y19630324D02*
X44070776Y19439848D01*
D11*
X22819558Y20790362D02*
X22819558Y22790362D01*
X22819558Y22790362D02*
X23581463Y22790362D01*
X23581463Y22790362D02*
X23771939Y22695124D01*
X23771939Y22695124D02*
X23867177Y22599886D01*
X23867177Y22599886D02*
X23962415Y22409410D01*
X23962415Y22409410D02*
X23962415Y22123696D01*
X23962415Y22123696D02*
X23867177Y21933220D01*
X23867177Y21933220D02*
X23771939Y21837981D01*
X23771939Y21837981D02*
X23581463Y21742743D01*
X23581463Y21742743D02*
X22819558Y21742743D01*
X24819558Y20790362D02*
X24819558Y22123696D01*
X24819558Y22790362D02*
X24724320Y22695124D01*
X24724320Y22695124D02*
X24819558Y22599886D01*
X24819558Y22599886D02*
X24914796Y22695124D01*
X24914796Y22695124D02*
X24819558Y22790362D01*
X24819558Y22790362D02*
X24819558Y22599886D01*
X25581463Y20790362D02*
X26629082Y22123696D01*
X25581463Y22123696D02*
X26629082Y20790362D01*
X28152892Y20885600D02*
X27962416Y20790362D01*
X27962416Y20790362D02*
X27581463Y20790362D01*
X27581463Y20790362D02*
X27390987Y20885600D01*
X27390987Y20885600D02*
X27295749Y21076077D01*
X27295749Y21076077D02*
X27295749Y21837981D01*
X27295749Y21837981D02*
X27390987Y22028458D01*
X27390987Y22028458D02*
X27581463Y22123696D01*
X27581463Y22123696D02*
X27962416Y22123696D01*
X27962416Y22123696D02*
X28152892Y22028458D01*
X28152892Y22028458D02*
X28248130Y21837981D01*
X28248130Y21837981D02*
X28248130Y21647505D01*
X28248130Y21647505D02*
X27295749Y21457029D01*
X29390987Y20790362D02*
X29200511Y20885600D01*
X29200511Y20885600D02*
X29105273Y21076077D01*
X29105273Y21076077D02*
X29105273Y22790362D01*
X31676702Y20790362D02*
X31676702Y22790362D01*
X32629083Y22123696D02*
X32629083Y20790362D01*
X32629083Y21933220D02*
X32724321Y22028458D01*
X32724321Y22028458D02*
X32914797Y22123696D01*
X32914797Y22123696D02*
X33200512Y22123696D01*
X33200512Y22123696D02*
X33390988Y22028458D01*
X33390988Y22028458D02*
X33486226Y21837981D01*
X33486226Y21837981D02*
X33486226Y20790362D01*
D10*
X34118776Y19439848D02*
X33737823Y19630324D01*
X33737823Y19630324D02*
X33166395Y19630324D01*
X33166395Y19630324D02*
X32594966Y19439848D01*
X32594966Y19439848D02*
X32214014Y19058896D01*
X32214014Y19058896D02*
X32023537Y18677943D01*
X32023537Y18677943D02*
X31833061Y17916039D01*
X31833061Y17916039D02*
X31833061Y17344610D01*
X31833061Y17344610D02*
X32023537Y16582705D01*
X32023537Y16582705D02*
X32214014Y16201753D01*
X32214014Y16201753D02*
X32594966Y15820800D01*
X32594966Y15820800D02*
X33166395Y15630324D01*
X33166395Y15630324D02*
X33547347Y15630324D01*
X33547347Y15630324D02*
X34118776Y15820800D01*
X34118776Y15820800D02*
X34309252Y16011277D01*
X34309252Y16011277D02*
X34309252Y17344610D01*
X34309252Y17344610D02*
X33547347Y17344610D01*
D12*
X10406666Y16032581D02*
X10406666Y15318296D01*
X10406666Y15318296D02*
X10359047Y15175439D01*
X10359047Y15175439D02*
X10263809Y15080200D01*
X10263809Y15080200D02*
X10120952Y15032581D01*
X10120952Y15032581D02*
X10025714Y15032581D01*
X10787619Y16032581D02*
X11406666Y16032581D01*
X11406666Y16032581D02*
X11073333Y15651629D01*
X11073333Y15651629D02*
X11216190Y15651629D01*
X11216190Y15651629D02*
X11311428Y15604010D01*
X11311428Y15604010D02*
X11359047Y15556391D01*
X11359047Y15556391D02*
X11406666Y15461153D01*
X11406666Y15461153D02*
X11406666Y15223058D01*
X11406666Y15223058D02*
X11359047Y15127820D01*
X11359047Y15127820D02*
X11311428Y15080200D01*
X11311428Y15080200D02*
X11216190Y15032581D01*
X11216190Y15032581D02*
X10930476Y15032581D01*
X10930476Y15032581D02*
X10835238Y15080200D01*
X10835238Y15080200D02*
X10787619Y15127820D01*
D13*
X38176666Y50845181D02*
X38176666Y50130896D01*
X38176666Y50130896D02*
X38129047Y49988039D01*
X38129047Y49988039D02*
X38033809Y49892800D01*
X38033809Y49892800D02*
X37890952Y49845181D01*
X37890952Y49845181D02*
X37795714Y49845181D01*
X39176666Y49845181D02*
X38605238Y49845181D01*
X38890952Y49845181D02*
X38890952Y50845181D01*
X38890952Y50845181D02*
X38795714Y50702324D01*
X38795714Y50702324D02*
X38700476Y50607086D01*
X38700476Y50607086D02*
X38605238Y50559467D01*
X2036666Y11515181D02*
X2036666Y10800896D01*
X2036666Y10800896D02*
X1989047Y10658039D01*
X1989047Y10658039D02*
X1893809Y10562800D01*
X1893809Y10562800D02*
X1750952Y10515181D01*
X1750952Y10515181D02*
X1655714Y10515181D01*
X2655714Y11086610D02*
X2560476Y11134229D01*
X2560476Y11134229D02*
X2512857Y11181848D01*
X2512857Y11181848D02*
X2465238Y11277086D01*
X2465238Y11277086D02*
X2465238Y11324705D01*
X2465238Y11324705D02*
X2512857Y11419943D01*
X2512857Y11419943D02*
X2560476Y11467562D01*
X2560476Y11467562D02*
X2655714Y11515181D01*
X2655714Y11515181D02*
X2846190Y11515181D01*
X2846190Y11515181D02*
X2941428Y11467562D01*
X2941428Y11467562D02*
X2989047Y11419943D01*
X2989047Y11419943D02*
X3036666Y11324705D01*
X3036666Y11324705D02*
X3036666Y11277086D01*
X3036666Y11277086D02*
X2989047Y11181848D01*
X2989047Y11181848D02*
X2941428Y11134229D01*
X2941428Y11134229D02*
X2846190Y11086610D01*
X2846190Y11086610D02*
X2655714Y11086610D01*
X2655714Y11086610D02*
X2560476Y11038991D01*
X2560476Y11038991D02*
X2512857Y10991372D01*
X2512857Y10991372D02*
X2465238Y10896134D01*
X2465238Y10896134D02*
X2465238Y10705658D01*
X2465238Y10705658D02*
X2512857Y10610420D01*
X2512857Y10610420D02*
X2560476Y10562800D01*
X2560476Y10562800D02*
X2655714Y10515181D01*
X2655714Y10515181D02*
X2846190Y10515181D01*
X2846190Y10515181D02*
X2941428Y10562800D01*
X2941428Y10562800D02*
X2989047Y10610420D01*
X2989047Y10610420D02*
X3036666Y10705658D01*
X3036666Y10705658D02*
X3036666Y10896134D01*
X3036666Y10896134D02*
X2989047Y10991372D01*
X2989047Y10991372D02*
X2941428Y11038991D01*
X2941428Y11038991D02*
X2846190Y11086610D01*
X7146666Y16515181D02*
X7146666Y15800896D01*
X7146666Y15800896D02*
X7099047Y15658039D01*
X7099047Y15658039D02*
X7003809Y15562800D01*
X7003809Y15562800D02*
X6860952Y15515181D01*
X6860952Y15515181D02*
X6765714Y15515181D01*
X7527619Y16515181D02*
X8194285Y16515181D01*
X8194285Y16515181D02*
X7765714Y15515181D01*
X7703333Y10527681D02*
X7370000Y11003872D01*
X7131905Y10527681D02*
X7131905Y11527681D01*
X7131905Y11527681D02*
X7512857Y11527681D01*
X7512857Y11527681D02*
X7608095Y11480062D01*
X7608095Y11480062D02*
X7655714Y11432443D01*
X7655714Y11432443D02*
X7703333Y11337205D01*
X7703333Y11337205D02*
X7703333Y11194348D01*
X7703333Y11194348D02*
X7655714Y11099110D01*
X7655714Y11099110D02*
X7608095Y11051491D01*
X7608095Y11051491D02*
X7512857Y11003872D01*
X7512857Y11003872D02*
X7131905Y11003872D01*
X8084286Y11432443D02*
X8131905Y11480062D01*
X8131905Y11480062D02*
X8227143Y11527681D01*
X8227143Y11527681D02*
X8465238Y11527681D01*
X8465238Y11527681D02*
X8560476Y11480062D01*
X8560476Y11480062D02*
X8608095Y11432443D01*
X8608095Y11432443D02*
X8655714Y11337205D01*
X8655714Y11337205D02*
X8655714Y11241967D01*
X8655714Y11241967D02*
X8608095Y11099110D01*
X8608095Y11099110D02*
X8036667Y10527681D01*
X8036667Y10527681D02*
X8655714Y10527681D01*
X7161905Y4497681D02*
X7161905Y5497681D01*
X7161905Y5497681D02*
X7400000Y5497681D01*
X7400000Y5497681D02*
X7542857Y5450062D01*
X7542857Y5450062D02*
X7638095Y5354824D01*
X7638095Y5354824D02*
X7685714Y5259586D01*
X7685714Y5259586D02*
X7733333Y5069110D01*
X7733333Y5069110D02*
X7733333Y4926253D01*
X7733333Y4926253D02*
X7685714Y4735777D01*
X7685714Y4735777D02*
X7638095Y4640539D01*
X7638095Y4640539D02*
X7542857Y4545300D01*
X7542857Y4545300D02*
X7400000Y4497681D01*
X7400000Y4497681D02*
X7161905Y4497681D01*
X8590476Y5164348D02*
X8590476Y4497681D01*
X8352381Y5545300D02*
X8114286Y4831015D01*
X8114286Y4831015D02*
X8733333Y4831015D01*
X51843333Y28165181D02*
X51367143Y28165181D01*
X51367143Y28165181D02*
X51367143Y29165181D01*
X52700476Y28165181D02*
X52129048Y28165181D01*
X52414762Y28165181D02*
X52414762Y29165181D01*
X52414762Y29165181D02*
X52319524Y29022324D01*
X52319524Y29022324D02*
X52224286Y28927086D01*
X52224286Y28927086D02*
X52129048Y28879467D01*
X1048095Y25375181D02*
X1048095Y24565658D01*
X1048095Y24565658D02*
X1095714Y24470420D01*
X1095714Y24470420D02*
X1143333Y24422800D01*
X1143333Y24422800D02*
X1238571Y24375181D01*
X1238571Y24375181D02*
X1429047Y24375181D01*
X1429047Y24375181D02*
X1524285Y24422800D01*
X1524285Y24422800D02*
X1571904Y24470420D01*
X1571904Y24470420D02*
X1619523Y24565658D01*
X1619523Y24565658D02*
X1619523Y25375181D01*
X2048095Y25279943D02*
X2095714Y25327562D01*
X2095714Y25327562D02*
X2190952Y25375181D01*
X2190952Y25375181D02*
X2429047Y25375181D01*
X2429047Y25375181D02*
X2524285Y25327562D01*
X2524285Y25327562D02*
X2571904Y25279943D01*
X2571904Y25279943D02*
X2619523Y25184705D01*
X2619523Y25184705D02*
X2619523Y25089467D01*
X2619523Y25089467D02*
X2571904Y24946610D01*
X2571904Y24946610D02*
X2000476Y24375181D01*
X2000476Y24375181D02*
X2619523Y24375181D01*
X4941905Y4492681D02*
X4941905Y5492681D01*
X4941905Y5492681D02*
X5180000Y5492681D01*
X5180000Y5492681D02*
X5322857Y5445062D01*
X5322857Y5445062D02*
X5418095Y5349824D01*
X5418095Y5349824D02*
X5465714Y5254586D01*
X5465714Y5254586D02*
X5513333Y5064110D01*
X5513333Y5064110D02*
X5513333Y4921253D01*
X5513333Y4921253D02*
X5465714Y4730777D01*
X5465714Y4730777D02*
X5418095Y4635539D01*
X5418095Y4635539D02*
X5322857Y4540300D01*
X5322857Y4540300D02*
X5180000Y4492681D01*
X5180000Y4492681D02*
X4941905Y4492681D01*
X5846667Y5492681D02*
X6465714Y5492681D01*
X6465714Y5492681D02*
X6132381Y5111729D01*
X6132381Y5111729D02*
X6275238Y5111729D01*
X6275238Y5111729D02*
X6370476Y5064110D01*
X6370476Y5064110D02*
X6418095Y5016491D01*
X6418095Y5016491D02*
X6465714Y4921253D01*
X6465714Y4921253D02*
X6465714Y4683158D01*
X6465714Y4683158D02*
X6418095Y4587920D01*
X6418095Y4587920D02*
X6370476Y4540300D01*
X6370476Y4540300D02*
X6275238Y4492681D01*
X6275238Y4492681D02*
X5989524Y4492681D01*
X5989524Y4492681D02*
X5894286Y4540300D01*
X5894286Y4540300D02*
X5846667Y4587920D01*
X5513333Y10602681D02*
X5180000Y11078872D01*
X4941905Y10602681D02*
X4941905Y11602681D01*
X4941905Y11602681D02*
X5322857Y11602681D01*
X5322857Y11602681D02*
X5418095Y11555062D01*
X5418095Y11555062D02*
X5465714Y11507443D01*
X5465714Y11507443D02*
X5513333Y11412205D01*
X5513333Y11412205D02*
X5513333Y11269348D01*
X5513333Y11269348D02*
X5465714Y11174110D01*
X5465714Y11174110D02*
X5418095Y11126491D01*
X5418095Y11126491D02*
X5322857Y11078872D01*
X5322857Y11078872D02*
X4941905Y11078872D01*
X6465714Y10602681D02*
X5894286Y10602681D01*
X6180000Y10602681D02*
X6180000Y11602681D01*
X6180000Y11602681D02*
X6084762Y11459824D01*
X6084762Y11459824D02*
X5989524Y11364586D01*
X5989524Y11364586D02*
X5894286Y11316967D01*
X23278095Y26915181D02*
X23278095Y26105658D01*
X23278095Y26105658D02*
X23325714Y26010420D01*
X23325714Y26010420D02*
X23373333Y25962800D01*
X23373333Y25962800D02*
X23468571Y25915181D01*
X23468571Y25915181D02*
X23659047Y25915181D01*
X23659047Y25915181D02*
X23754285Y25962800D01*
X23754285Y25962800D02*
X23801904Y26010420D01*
X23801904Y26010420D02*
X23849523Y26105658D01*
X23849523Y26105658D02*
X23849523Y26915181D01*
X24230476Y26915181D02*
X24849523Y26915181D01*
X24849523Y26915181D02*
X24516190Y26534229D01*
X24516190Y26534229D02*
X24659047Y26534229D01*
X24659047Y26534229D02*
X24754285Y26486610D01*
X24754285Y26486610D02*
X24801904Y26438991D01*
X24801904Y26438991D02*
X24849523Y26343753D01*
X24849523Y26343753D02*
X24849523Y26105658D01*
X24849523Y26105658D02*
X24801904Y26010420D01*
X24801904Y26010420D02*
X24754285Y25962800D01*
X24754285Y25962800D02*
X24659047Y25915181D01*
X24659047Y25915181D02*
X24373333Y25915181D01*
X24373333Y25915181D02*
X24278095Y25962800D01*
X24278095Y25962800D02*
X24230476Y26010420D01*
X19903333Y43625181D02*
X19570000Y44101372D01*
X19331905Y43625181D02*
X19331905Y44625181D01*
X19331905Y44625181D02*
X19712857Y44625181D01*
X19712857Y44625181D02*
X19808095Y44577562D01*
X19808095Y44577562D02*
X19855714Y44529943D01*
X19855714Y44529943D02*
X19903333Y44434705D01*
X19903333Y44434705D02*
X19903333Y44291848D01*
X19903333Y44291848D02*
X19855714Y44196610D01*
X19855714Y44196610D02*
X19808095Y44148991D01*
X19808095Y44148991D02*
X19712857Y44101372D01*
X19712857Y44101372D02*
X19331905Y44101372D01*
X20236667Y44625181D02*
X20855714Y44625181D01*
X20855714Y44625181D02*
X20522381Y44244229D01*
X20522381Y44244229D02*
X20665238Y44244229D01*
X20665238Y44244229D02*
X20760476Y44196610D01*
X20760476Y44196610D02*
X20808095Y44148991D01*
X20808095Y44148991D02*
X20855714Y44053753D01*
X20855714Y44053753D02*
X20855714Y43815658D01*
X20855714Y43815658D02*
X20808095Y43720420D01*
X20808095Y43720420D02*
X20760476Y43672800D01*
X20760476Y43672800D02*
X20665238Y43625181D01*
X20665238Y43625181D02*
X20379524Y43625181D01*
X20379524Y43625181D02*
X20284286Y43672800D01*
X20284286Y43672800D02*
X20236667Y43720420D01*
X44441905Y27395181D02*
X44441905Y28395181D01*
X44441905Y28395181D02*
X44680000Y28395181D01*
X44680000Y28395181D02*
X44822857Y28347562D01*
X44822857Y28347562D02*
X44918095Y28252324D01*
X44918095Y28252324D02*
X44965714Y28157086D01*
X44965714Y28157086D02*
X45013333Y27966610D01*
X45013333Y27966610D02*
X45013333Y27823753D01*
X45013333Y27823753D02*
X44965714Y27633277D01*
X44965714Y27633277D02*
X44918095Y27538039D01*
X44918095Y27538039D02*
X44822857Y27442800D01*
X44822857Y27442800D02*
X44680000Y27395181D01*
X44680000Y27395181D02*
X44441905Y27395181D01*
X45965714Y27395181D02*
X45394286Y27395181D01*
X45680000Y27395181D02*
X45680000Y28395181D01*
X45680000Y28395181D02*
X45584762Y28252324D01*
X45584762Y28252324D02*
X45489524Y28157086D01*
X45489524Y28157086D02*
X45394286Y28109467D01*
X40978095Y29105181D02*
X40978095Y28295658D01*
X40978095Y28295658D02*
X41025714Y28200420D01*
X41025714Y28200420D02*
X41073333Y28152800D01*
X41073333Y28152800D02*
X41168571Y28105181D01*
X41168571Y28105181D02*
X41359047Y28105181D01*
X41359047Y28105181D02*
X41454285Y28152800D01*
X41454285Y28152800D02*
X41501904Y28200420D01*
X41501904Y28200420D02*
X41549523Y28295658D01*
X41549523Y28295658D02*
X41549523Y29105181D01*
X42549523Y28105181D02*
X41978095Y28105181D01*
X42263809Y28105181D02*
X42263809Y29105181D01*
X42263809Y29105181D02*
X42168571Y28962324D01*
X42168571Y28962324D02*
X42073333Y28867086D01*
X42073333Y28867086D02*
X41978095Y28819467D01*
X42604905Y44910181D02*
X42604905Y45910181D01*
X42604905Y45910181D02*
X42843000Y45910181D01*
X42843000Y45910181D02*
X42985857Y45862562D01*
X42985857Y45862562D02*
X43081095Y45767324D01*
X43081095Y45767324D02*
X43128714Y45672086D01*
X43128714Y45672086D02*
X43176333Y45481610D01*
X43176333Y45481610D02*
X43176333Y45338753D01*
X43176333Y45338753D02*
X43128714Y45148277D01*
X43128714Y45148277D02*
X43081095Y45053039D01*
X43081095Y45053039D02*
X42985857Y44957800D01*
X42985857Y44957800D02*
X42843000Y44910181D01*
X42843000Y44910181D02*
X42604905Y44910181D01*
X43557286Y45814943D02*
X43604905Y45862562D01*
X43604905Y45862562D02*
X43700143Y45910181D01*
X43700143Y45910181D02*
X43938238Y45910181D01*
X43938238Y45910181D02*
X44033476Y45862562D01*
X44033476Y45862562D02*
X44081095Y45814943D01*
X44081095Y45814943D02*
X44128714Y45719705D01*
X44128714Y45719705D02*
X44128714Y45624467D01*
X44128714Y45624467D02*
X44081095Y45481610D01*
X44081095Y45481610D02*
X43509667Y44910181D01*
X43509667Y44910181D02*
X44128714Y44910181D01*
X43713333Y38480420D02*
X43665714Y38432800D01*
X43665714Y38432800D02*
X43522857Y38385181D01*
X43522857Y38385181D02*
X43427619Y38385181D01*
X43427619Y38385181D02*
X43284762Y38432800D01*
X43284762Y38432800D02*
X43189524Y38528039D01*
X43189524Y38528039D02*
X43141905Y38623277D01*
X43141905Y38623277D02*
X43094286Y38813753D01*
X43094286Y38813753D02*
X43094286Y38956610D01*
X43094286Y38956610D02*
X43141905Y39147086D01*
X43141905Y39147086D02*
X43189524Y39242324D01*
X43189524Y39242324D02*
X43284762Y39337562D01*
X43284762Y39337562D02*
X43427619Y39385181D01*
X43427619Y39385181D02*
X43522857Y39385181D01*
X43522857Y39385181D02*
X43665714Y39337562D01*
X43665714Y39337562D02*
X43713333Y39289943D01*
X44665714Y38385181D02*
X44094286Y38385181D01*
X44380000Y38385181D02*
X44380000Y39385181D01*
X44380000Y39385181D02*
X44284762Y39242324D01*
X44284762Y39242324D02*
X44189524Y39147086D01*
X44189524Y39147086D02*
X44094286Y39099467D01*
X49633333Y45130420D02*
X49585714Y45082800D01*
X49585714Y45082800D02*
X49442857Y45035181D01*
X49442857Y45035181D02*
X49347619Y45035181D01*
X49347619Y45035181D02*
X49204762Y45082800D01*
X49204762Y45082800D02*
X49109524Y45178039D01*
X49109524Y45178039D02*
X49061905Y45273277D01*
X49061905Y45273277D02*
X49014286Y45463753D01*
X49014286Y45463753D02*
X49014286Y45606610D01*
X49014286Y45606610D02*
X49061905Y45797086D01*
X49061905Y45797086D02*
X49109524Y45892324D01*
X49109524Y45892324D02*
X49204762Y45987562D01*
X49204762Y45987562D02*
X49347619Y46035181D01*
X49347619Y46035181D02*
X49442857Y46035181D01*
X49442857Y46035181D02*
X49585714Y45987562D01*
X49585714Y45987562D02*
X49633333Y45939943D01*
X50014286Y45939943D02*
X50061905Y45987562D01*
X50061905Y45987562D02*
X50157143Y46035181D01*
X50157143Y46035181D02*
X50395238Y46035181D01*
X50395238Y46035181D02*
X50490476Y45987562D01*
X50490476Y45987562D02*
X50538095Y45939943D01*
X50538095Y45939943D02*
X50585714Y45844705D01*
X50585714Y45844705D02*
X50585714Y45749467D01*
X50585714Y45749467D02*
X50538095Y45606610D01*
X50538095Y45606610D02*
X49966667Y45035181D01*
X49966667Y45035181D02*
X50585714Y45035181D01*
X20476666Y50895181D02*
X20476666Y50180896D01*
X20476666Y50180896D02*
X20429047Y50038039D01*
X20429047Y50038039D02*
X20333809Y49942800D01*
X20333809Y49942800D02*
X20190952Y49895181D01*
X20190952Y49895181D02*
X20095714Y49895181D01*
X21381428Y50561848D02*
X21381428Y49895181D01*
X21143333Y50942800D02*
X20905238Y50228515D01*
X20905238Y50228515D02*
X21524285Y50228515D01*
%TO.C,J3*%
D12*
X9990000Y14650000D02*
X51990000Y14650000D01*
X51990000Y-3850000D01*
X9990000Y-3850000D01*
X9990000Y14650000D01*
D14*
%TO.C,J1*%
X23720000Y52200000D02*
X23720000Y49700000D01*
X23720000Y49700000D02*
X26220000Y49700000D01*
X24020000Y54020000D02*
X24020000Y50000000D01*
X24020000Y52310000D02*
X24520000Y52310000D01*
X24020000Y51500000D02*
X25020000Y51500000D01*
X24020000Y50000000D02*
X36740000Y50000000D01*
X24520000Y53520000D02*
X36240000Y53520000D01*
X24520000Y52310000D02*
X24520000Y53520000D01*
X25020000Y51500000D02*
X25020000Y50000000D01*
X35740000Y51500000D02*
X35740000Y50000000D01*
X36240000Y53520000D02*
X36240000Y52310000D01*
X36240000Y52310000D02*
X36740000Y52310000D01*
X36740000Y54020000D02*
X24020000Y54020000D01*
X36740000Y51500000D02*
X35740000Y51500000D01*
X36740000Y50000000D02*
X36740000Y54020000D01*
%TO.C,J8*%
X1100000Y22580000D02*
X2480000Y22580000D01*
X1100000Y21200000D02*
X1100000Y22580000D01*
X1100000Y19930000D02*
X1100000Y12200000D01*
X1100000Y19930000D02*
X3860000Y19930000D01*
X1100000Y12200000D02*
X3860000Y12200000D01*
X3860000Y19930000D02*
X3860000Y12200000D01*
%TO.C,J7*%
X6180000Y22605000D02*
X7560000Y22605000D01*
X6180000Y21225000D02*
X6180000Y22605000D01*
X6180000Y19955000D02*
X6180000Y17305000D01*
X6180000Y19955000D02*
X8940000Y19955000D01*
X6180000Y17305000D02*
X8940000Y17305000D01*
X8940000Y19955000D02*
X8940000Y17305000D01*
%TO.C,R2*%
X7347500Y8250242D02*
X7347500Y8724758D01*
X8392500Y8250242D02*
X8392500Y8724758D01*
%TO.C,D4*%
X6920000Y3350000D02*
X6920000Y665000D01*
X6920000Y665000D02*
X8840000Y665000D01*
X8840000Y665000D02*
X8840000Y3350000D01*
%TO.C,L1*%
X47350000Y29700000D02*
X47350000Y34800000D01*
X52550000Y29700000D02*
X52550000Y34800000D01*
%TO.C,U2*%
X440000Y42960000D02*
X1010000Y42960000D01*
X440000Y27785000D02*
X440000Y42960000D01*
X440000Y27785000D02*
X1010000Y27785000D01*
X1010000Y26345000D02*
X1010000Y27785000D01*
X2530000Y42960000D02*
X3550000Y42960000D01*
X2530000Y27785000D02*
X3550000Y27785000D01*
X5070000Y42960000D02*
X6090000Y42960000D01*
X5070000Y27785000D02*
X6090000Y27785000D01*
X7610000Y42960000D02*
X8630000Y42960000D01*
X7610000Y27785000D02*
X8630000Y27785000D01*
X10150000Y42960000D02*
X11170000Y42960000D01*
X10150000Y27785000D02*
X11170000Y27785000D01*
X12690000Y42960000D02*
X13710000Y42960000D01*
X12690000Y27785000D02*
X13710000Y27785000D01*
X15230000Y42960000D02*
X16250000Y42960000D01*
X15230000Y27785000D02*
X16250000Y27785000D01*
X17770000Y42960000D02*
X18340000Y42960000D01*
X17770000Y27785000D02*
X18340000Y27785000D01*
X18340000Y27785000D02*
X18340000Y42960000D01*
%TO.C,D3*%
X4680000Y3345000D02*
X4680000Y660000D01*
X4680000Y660000D02*
X6600000Y660000D01*
X6600000Y660000D02*
X6600000Y3345000D01*
%TO.C,R1*%
X5117500Y8255242D02*
X5117500Y8729758D01*
X6162500Y8255242D02*
X6162500Y8729758D01*
D15*
%TO.C,U3*%
X22987500Y47810000D02*
X38227500Y47810000D01*
X22987500Y27490000D02*
X22987500Y47810000D01*
X38227500Y47810000D02*
X38227500Y27490000D01*
X38227500Y27490000D02*
X22987500Y27490000D01*
D16*
X38907500Y28760000D02*
G75*
G02*
X38707500Y28760000I-100000J0D01*
G01*
X38707500Y28760000D02*
G75*
G02*
X38907500Y28760000I100000J0D01*
G01*
D14*
%TO.C,R3*%
X19537500Y41587742D02*
X19537500Y42062258D01*
X20582500Y41587742D02*
X20582500Y42062258D01*
%TO.C,D1*%
X50650000Y28880000D02*
X46790000Y28880000D01*
X50650000Y26880000D02*
X46790000Y26880000D01*
X50650000Y26880000D02*
X50650000Y28880000D01*
%TO.C,U1*%
X40995000Y34715000D02*
X45115000Y34715000D01*
X40995000Y34620000D02*
X40995000Y34715000D01*
X40995000Y29595000D02*
X40995000Y29690000D01*
X45115000Y34715000D02*
X45115000Y34620000D01*
X45115000Y29690000D02*
X45115000Y29595000D01*
X45115000Y29595000D02*
X40995000Y29595000D01*
X45895000Y29355000D02*
X45415000Y29355000D01*
X45655000Y29685000D01*
X45895000Y29355000D01*
G36*
X45895000Y29355000D02*
G01*
X45415000Y29355000D01*
X45655000Y29685000D01*
X45895000Y29355000D01*
G37*
%TO.C,D2*%
X41260000Y44460000D02*
X41260000Y42460000D01*
X41260000Y44460000D02*
X45120000Y44460000D01*
X41260000Y42460000D02*
X45120000Y42460000D01*
%TO.C,C1*%
X44696252Y37700000D02*
X43273748Y37700000D01*
X44696252Y35880000D02*
X43273748Y35880000D01*
%TO.C,C2*%
X47530000Y43752500D02*
X47530000Y35512500D01*
X47530000Y35512500D02*
X52050000Y35512500D01*
X52050000Y35512500D02*
X52050000Y43752500D01*
%TO.C,J4*%
X11070000Y52240000D02*
X11070000Y49740000D01*
X11070000Y49740000D02*
X13570000Y49740000D01*
X11370000Y54060000D02*
X11370000Y50040000D01*
X11370000Y52350000D02*
X11870000Y52350000D01*
X11370000Y51540000D02*
X12370000Y51540000D01*
X11370000Y50040000D02*
X19090000Y50040000D01*
X11870000Y53560000D02*
X18590000Y53560000D01*
X11870000Y52350000D02*
X11870000Y53560000D01*
X12370000Y51540000D02*
X12370000Y50040000D01*
X18090000Y51540000D02*
X18090000Y50040000D01*
X18590000Y53560000D02*
X18590000Y52350000D01*
X18590000Y52350000D02*
X19090000Y52350000D01*
X19090000Y54060000D02*
X11370000Y54060000D01*
X19090000Y51540000D02*
X18090000Y51540000D01*
X19090000Y50040000D02*
X19090000Y54060000D01*
%TD*%
M02*
