%TF.GenerationSoftware,KiCad,Pcbnew,9.0.5*%
%TF.CreationDate,2025-10-09T03:15:18-06:00*%
%TF.ProjectId,SpiderController,53706964-6572-4436-9f6e-74726f6c6c65,1.0*%
%TF.SameCoordinates,PX55d98a0PY8583b00*%
%TF.FileFunction,Legend,Bot*%
%TF.FilePolarity,Positive*%
%FSLAX46Y46*%
G04 Gerber Fmt 4.6, Leading zero omitted, Abs format (unit mm)*
G04 Created by KiCad (PCBNEW 9.0.5) date 2025-10-09 03:15:18*
%MOMM*%
%LPD*%
G01*
G04 APERTURE LIST*
%ADD10C,0.187500*%
%ADD11C,0.150000*%
%ADD12C,0.250000*%
%ADD13C,0.000000*%
%ADD14C,0.120000*%
G04 APERTURE END LIST*
D10*
X34558571Y42223322D02*
X34558571Y43723322D01*
X34558571Y43723322D02*
X34058571Y42651893D01*
X34058571Y42651893D02*
X33558571Y43723322D01*
X33558571Y43723322D02*
X33558571Y42223322D01*
X32915713Y42294750D02*
X32701428Y42223322D01*
X32701428Y42223322D02*
X32344285Y42223322D01*
X32344285Y42223322D02*
X32201428Y42294750D01*
X32201428Y42294750D02*
X32129999Y42366179D01*
X32129999Y42366179D02*
X32058570Y42509036D01*
X32058570Y42509036D02*
X32058570Y42651893D01*
X32058570Y42651893D02*
X32129999Y42794750D01*
X32129999Y42794750D02*
X32201428Y42866179D01*
X32201428Y42866179D02*
X32344285Y42937608D01*
X32344285Y42937608D02*
X32629999Y43009036D01*
X32629999Y43009036D02*
X32772856Y43080465D01*
X32772856Y43080465D02*
X32844285Y43151893D01*
X32844285Y43151893D02*
X32915713Y43294750D01*
X32915713Y43294750D02*
X32915713Y43437608D01*
X32915713Y43437608D02*
X32844285Y43580465D01*
X32844285Y43580465D02*
X32772856Y43651893D01*
X32772856Y43651893D02*
X32629999Y43723322D01*
X32629999Y43723322D02*
X32272856Y43723322D01*
X32272856Y43723322D02*
X32058570Y43651893D01*
X30629999Y42223322D02*
X31487142Y42223322D01*
X31058571Y42223322D02*
X31058571Y43723322D01*
X31058571Y43723322D02*
X31201428Y43509036D01*
X31201428Y43509036D02*
X31344285Y43366179D01*
X31344285Y43366179D02*
X31487142Y43294750D01*
D11*
G36*
X51300069Y25239568D02*
G01*
X51300069Y21708793D01*
X50919295Y21708793D01*
X50919295Y22818633D01*
X49250383Y22818633D01*
X49054500Y23014271D01*
X49054500Y23193790D01*
X49429657Y23193790D01*
X50174598Y23193790D01*
X50174598Y24121180D01*
X50549755Y24495360D01*
X50549755Y25053943D01*
X49429657Y25053943D01*
X49429657Y23193790D01*
X49054500Y23193790D01*
X49054500Y25239079D01*
X49245010Y25429100D01*
X51109560Y25429100D01*
X51300069Y25239568D01*
G37*
G36*
X48216992Y25429100D02*
G01*
X48216992Y24495604D01*
X47841835Y24121180D01*
X47841835Y23008654D01*
X48032344Y22818633D01*
X48396266Y22818633D01*
X48586775Y23008654D01*
X48586775Y25429100D01*
X48216992Y25429100D01*
G37*
G36*
X48216992Y25726100D02*
G01*
X48586775Y25726100D01*
X48653942Y25793022D01*
X48653942Y26049966D01*
X48586775Y26116888D01*
X48216992Y26116888D01*
X48149825Y26049966D01*
X48149825Y25793022D01*
X48216992Y25726100D01*
G37*
G36*
X47506245Y23932380D02*
G01*
X47321353Y24116051D01*
X47506245Y24303629D01*
X47511863Y25233218D01*
X47315980Y25429100D01*
X46951814Y25429100D01*
X46761549Y25237858D01*
X46761549Y24303629D01*
X45641451Y24303629D01*
X45641451Y25429100D01*
X45266294Y25429100D01*
X45266294Y24305583D01*
X45450942Y24121180D01*
X45266294Y23936532D01*
X45266294Y22818633D01*
X45635833Y22818633D01*
X45635833Y23928472D01*
X46386147Y23928472D01*
X46386147Y23007188D01*
X46576657Y22818633D01*
X47315736Y22818633D01*
X47506245Y23007921D01*
X47506245Y23932380D01*
G37*
G36*
X44826901Y25244697D02*
G01*
X44826901Y23008654D01*
X44636392Y22818633D01*
X42777459Y22818633D01*
X42586950Y23008898D01*
X42586950Y23568947D01*
X42962107Y23568947D01*
X42962107Y23193790D01*
X43712665Y23193790D01*
X43712665Y23928472D01*
X42777459Y23928472D01*
X42592567Y24113853D01*
X42592567Y24303629D01*
X42962107Y24303629D01*
X44082205Y24303629D01*
X44082205Y25053943D01*
X42962107Y25053943D01*
X42962107Y24303629D01*
X42592567Y24303629D01*
X42592567Y25243720D01*
X42777459Y25429100D01*
X44642009Y25429100D01*
X44826901Y25244697D01*
G37*
G36*
X42024459Y22818633D02*
G01*
X42214968Y23009142D01*
X42214968Y25988905D01*
X42024703Y26179414D01*
X41660537Y26179414D01*
X41470272Y25988905D01*
X41470272Y24499024D01*
X41100488Y24129240D01*
X41100488Y23009142D01*
X41290997Y22818633D01*
X42024459Y22818633D01*
G37*
G36*
X38559630Y23008898D02*
G01*
X38750139Y22818633D01*
X40603454Y22818633D01*
X40793963Y23008654D01*
X40793963Y25239079D01*
X40603454Y25429100D01*
X38744521Y25429100D01*
X38554012Y25237370D01*
X38554012Y24678786D01*
X38929169Y24678786D01*
X38929169Y25053943D01*
X40049267Y25053943D01*
X40049267Y24495360D01*
X39679727Y24126553D01*
X39679727Y23193790D01*
X38923551Y23193790D01*
X38923551Y23568947D01*
X38559630Y23568947D01*
X38559630Y23008898D01*
G37*
G36*
X38108025Y23373064D02*
G01*
X37911898Y23568947D01*
X37184054Y23568947D01*
X36987927Y23373064D01*
X36987927Y23014516D01*
X37184054Y22818633D01*
X37911898Y22818633D01*
X38108025Y23014516D01*
X38108025Y23373064D01*
G37*
G36*
X36536810Y25242987D02*
G01*
X36536810Y24678786D01*
X36167271Y24678786D01*
X36167271Y25053943D01*
X35041556Y25053943D01*
X35041556Y24303629D01*
X36346301Y24303629D01*
X36536810Y24114585D01*
X36536810Y23007677D01*
X36346301Y22818633D01*
X34492986Y22818633D01*
X34302477Y23008654D01*
X34302477Y23193790D01*
X35041556Y23193790D01*
X35792114Y23193790D01*
X35792114Y23928472D01*
X35041556Y23928472D01*
X35041556Y23193790D01*
X34302477Y23193790D01*
X34302477Y24121180D01*
X34672016Y24489987D01*
X34672016Y25244697D01*
X34856908Y25429100D01*
X36351918Y25429100D01*
X36536810Y25242987D01*
G37*
G36*
X33445673Y22818633D02*
G01*
X33636182Y23008654D01*
X33636182Y25053943D01*
X34016957Y25053943D01*
X34016957Y25429100D01*
X33636182Y25429100D01*
X33636182Y26179414D01*
X33261025Y26179414D01*
X33261025Y25429100D01*
X32516085Y25429100D01*
X32516085Y25053943D01*
X32891486Y25053943D01*
X32891486Y24495116D01*
X32516085Y24120691D01*
X32521702Y23008654D01*
X32712212Y22818633D01*
X33445673Y22818633D01*
G37*
G36*
X29793510Y22818633D02*
G01*
X29984019Y23008654D01*
X29984019Y25239079D01*
X29793510Y25429100D01*
X26444940Y25429100D01*
X26254431Y25239079D01*
X26254431Y22818633D01*
X26623970Y22818633D01*
X26623970Y25053943D01*
X27743824Y25053943D01*
X27743824Y24495116D01*
X27374284Y24126309D01*
X27374284Y23008654D01*
X27564794Y22818633D01*
X27923098Y22818633D01*
X28113607Y23008654D01*
X28119225Y25053943D01*
X29239078Y25053943D01*
X29239078Y24495116D01*
X28869539Y24126309D01*
X28869539Y23008654D01*
X29060048Y22818633D01*
X29793510Y22818633D01*
G37*
G36*
X25803558Y25239079D02*
G01*
X25803558Y23008654D01*
X25613049Y22818633D01*
X23759734Y22818633D01*
X23569225Y23008654D01*
X23569225Y23193790D01*
X23938764Y23193790D01*
X24689078Y23193790D01*
X24689078Y24126553D01*
X25053244Y24489742D01*
X25053244Y25053943D01*
X23938764Y25053943D01*
X23938764Y23193790D01*
X23569225Y23193790D01*
X23569225Y25239079D01*
X23759734Y25429100D01*
X25613049Y25429100D01*
X25803558Y25239079D01*
G37*
G36*
X22706803Y22818633D02*
G01*
X22897313Y23008654D01*
X22897313Y25053943D01*
X23278087Y25053943D01*
X23278087Y25429100D01*
X22897313Y25429100D01*
X22897313Y26179414D01*
X22522156Y26179414D01*
X22522156Y25429100D01*
X21777215Y25429100D01*
X21777215Y25053943D01*
X22152616Y25053943D01*
X22152616Y24495116D01*
X21777215Y24120691D01*
X21782833Y23008654D01*
X21973342Y22818633D01*
X22706803Y22818633D01*
G37*
G36*
X21461898Y25239079D02*
G01*
X21461898Y23008654D01*
X21271388Y22818633D01*
X19418073Y22818633D01*
X19227564Y23008654D01*
X19227564Y23193790D01*
X19597103Y23193790D01*
X20347417Y23193790D01*
X20347417Y24126553D01*
X20711584Y24489742D01*
X20711584Y25053943D01*
X19597103Y25053943D01*
X19597103Y23193790D01*
X19227564Y23193790D01*
X19227564Y25239079D01*
X19418073Y25429100D01*
X21271388Y25429100D01*
X21461898Y25239079D01*
G37*
G36*
X18678750Y22818633D02*
G01*
X18869260Y23008654D01*
X18869260Y25239079D01*
X18678750Y25429100D01*
X17004466Y25429100D01*
X17004466Y25053943D01*
X18124563Y25053943D01*
X18124563Y24495116D01*
X17754780Y24126309D01*
X17754780Y23008654D01*
X17945289Y22818633D01*
X18678750Y22818633D01*
G37*
G36*
X16250488Y25429100D02*
G01*
X16250488Y24495604D01*
X15875331Y24121180D01*
X15875331Y23008654D01*
X16065840Y22818633D01*
X16429762Y22818633D01*
X16620272Y23008654D01*
X16620272Y25429100D01*
X16250488Y25429100D01*
G37*
G36*
X16250488Y25726100D02*
G01*
X16620272Y25726100D01*
X16687438Y25793022D01*
X16687438Y26049966D01*
X16620272Y26116888D01*
X16250488Y26116888D01*
X16183321Y26049966D01*
X16183321Y25793022D01*
X16250488Y25726100D01*
G37*
G36*
X14419644Y24118982D02*
G01*
X14419644Y23935067D01*
X14419644Y23193790D01*
X13674947Y23193790D01*
X13674947Y23568947D01*
X13299790Y23568947D01*
X13299790Y23008898D01*
X13490299Y22818633D01*
X15354849Y22818633D01*
X15545359Y23009142D01*
X15545359Y24124843D01*
X14117271Y25053943D01*
X15164584Y25053943D01*
X15164584Y24678786D01*
X15545359Y24678786D01*
X15545359Y25237370D01*
X15354849Y25429100D01*
X13490299Y25429100D01*
X13299790Y25236637D01*
X13299790Y24919365D01*
X14419644Y24118982D01*
G37*
G36*
X12919015Y25244697D02*
G01*
X12919015Y23008654D01*
X12728506Y22818633D01*
X10869574Y22818633D01*
X10679064Y23008898D01*
X10679064Y23568947D01*
X11054221Y23568947D01*
X11054221Y23193790D01*
X11804780Y23193790D01*
X11804780Y23928472D01*
X10869574Y23928472D01*
X10684682Y24113853D01*
X10684682Y24303629D01*
X11054221Y24303629D01*
X12174319Y24303629D01*
X12174319Y25053943D01*
X11054221Y25053943D01*
X11054221Y24303629D01*
X10684682Y24303629D01*
X10684682Y25243720D01*
X10869574Y25429100D01*
X12734124Y25429100D01*
X12919015Y25244697D01*
G37*
G36*
X8806210Y25989149D02*
G01*
X8806210Y25435206D01*
X10110955Y25435206D01*
X10301465Y25244697D01*
X10301465Y23009142D01*
X10110955Y22818633D01*
X8252023Y22818633D01*
X8061514Y23009142D01*
X8061514Y24499512D01*
X8806210Y24499512D01*
X9181367Y24124111D01*
X9181367Y23193790D01*
X9926308Y23193790D01*
X9926308Y25060049D01*
X8806210Y25060049D01*
X8806210Y24499512D01*
X8061514Y24499512D01*
X8061514Y25994522D01*
X8246406Y26179414D01*
X8615945Y26179414D01*
X8806210Y25989149D01*
G37*
G36*
X46452337Y18519568D02*
G01*
X46452337Y14988793D01*
X46071563Y14988793D01*
X46071563Y16098633D01*
X44402651Y16098633D01*
X44206768Y16294271D01*
X44206768Y16473790D01*
X44581925Y16473790D01*
X45326866Y16473790D01*
X45326866Y17401180D01*
X45702023Y17775360D01*
X45702023Y18333943D01*
X44581925Y18333943D01*
X44581925Y16473790D01*
X44206768Y16473790D01*
X44206768Y18519079D01*
X44397278Y18709100D01*
X46261828Y18709100D01*
X46452337Y18519568D01*
G37*
G36*
X43671632Y16098633D02*
G01*
X43862142Y16288654D01*
X43862142Y18519079D01*
X43671632Y18709100D01*
X41997348Y18709100D01*
X41997348Y18333943D01*
X43117445Y18333943D01*
X43117445Y17775116D01*
X42747662Y17406309D01*
X42747662Y16288654D01*
X42938171Y16098633D01*
X43671632Y16098633D01*
G37*
G36*
X41741870Y18519079D02*
G01*
X41741870Y16288654D01*
X41551360Y16098633D01*
X39698046Y16098633D01*
X39507536Y16288654D01*
X39507536Y16473790D01*
X39877076Y16473790D01*
X40627390Y16473790D01*
X40627390Y17406553D01*
X40991556Y17769742D01*
X40991556Y18333943D01*
X39877076Y18333943D01*
X39877076Y16473790D01*
X39507536Y16473790D01*
X39507536Y18519079D01*
X39698046Y18709100D01*
X41551360Y18709100D01*
X41741870Y18519079D01*
G37*
G36*
X39121144Y18519568D02*
G01*
X39121144Y14988793D01*
X38740369Y14988793D01*
X38740369Y16098633D01*
X37071458Y16098633D01*
X36875575Y16294271D01*
X36875575Y16473790D01*
X37250732Y16473790D01*
X37995673Y16473790D01*
X37995673Y17401180D01*
X38370830Y17775360D01*
X38370830Y18333943D01*
X37250732Y18333943D01*
X37250732Y16473790D01*
X36875575Y16473790D01*
X36875575Y18519079D01*
X37066085Y18709100D01*
X38930634Y18709100D01*
X39121144Y18519568D01*
G37*
G36*
X32023691Y16288898D02*
G01*
X32214200Y16098633D01*
X34067515Y16098633D01*
X34258025Y16288654D01*
X34258025Y18519079D01*
X34067515Y18709100D01*
X32208583Y18709100D01*
X32018073Y18517370D01*
X32018073Y17958786D01*
X32393230Y17958786D01*
X32393230Y18333943D01*
X33513328Y18333943D01*
X33513328Y17775360D01*
X33143789Y17406553D01*
X33143789Y16473790D01*
X32387613Y16473790D01*
X32387613Y16848947D01*
X32023691Y16848947D01*
X32023691Y16288898D01*
G37*
G36*
X31667341Y18519079D02*
G01*
X31667341Y16288654D01*
X31476831Y16098633D01*
X29623517Y16098633D01*
X29433007Y16288654D01*
X29433007Y16473790D01*
X29802547Y16473790D01*
X30552861Y16473790D01*
X30552861Y17406553D01*
X30917027Y17769742D01*
X30917027Y18333943D01*
X29802547Y18333943D01*
X29802547Y16473790D01*
X29433007Y16473790D01*
X29433007Y18519079D01*
X29623517Y18709100D01*
X31476831Y18709100D01*
X31667341Y18519079D01*
G37*
G36*
X27209909Y18333943D02*
G01*
X28330006Y18333943D01*
X28330006Y17769498D01*
X27960223Y17400691D01*
X27960223Y16288654D01*
X28150732Y16098633D01*
X28884193Y16098633D01*
X29074703Y16288654D01*
X29074703Y18519079D01*
X28884193Y18709100D01*
X27030879Y18709100D01*
X26840369Y18519079D01*
X26834752Y16098633D01*
X27209909Y16098633D01*
X27209909Y18333943D01*
G37*
G36*
X25983565Y16098633D02*
G01*
X26174075Y16288654D01*
X26174075Y18333943D01*
X26554849Y18333943D01*
X26554849Y18709100D01*
X26174075Y18709100D01*
X26174075Y19459414D01*
X25798918Y19459414D01*
X25798918Y18709100D01*
X25053977Y18709100D01*
X25053977Y18333943D01*
X25429378Y18333943D01*
X25429378Y17775116D01*
X25053977Y17400691D01*
X25059595Y16288654D01*
X25250104Y16098633D01*
X25983565Y16098633D01*
G37*
G36*
X24542533Y16098633D02*
G01*
X24733042Y16288654D01*
X24733042Y18519079D01*
X24542533Y18709100D01*
X22868248Y18709100D01*
X22868248Y18333943D01*
X23988346Y18333943D01*
X23988346Y17775116D01*
X23618562Y17406309D01*
X23618562Y16288654D01*
X23809071Y16098633D01*
X24542533Y16098633D01*
G37*
G36*
X22612770Y18519079D02*
G01*
X22612770Y16288654D01*
X22422260Y16098633D01*
X20568946Y16098633D01*
X20378436Y16288654D01*
X20378436Y16473790D01*
X20747976Y16473790D01*
X21498290Y16473790D01*
X21498290Y17406553D01*
X21862456Y17769742D01*
X21862456Y18333943D01*
X20747976Y18333943D01*
X20747976Y16473790D01*
X20378436Y16473790D01*
X20378436Y18519079D01*
X20568946Y18709100D01*
X22422260Y18709100D01*
X22612770Y18519079D01*
G37*
G36*
X19829623Y16098633D02*
G01*
X20020132Y16289142D01*
X20020132Y19268905D01*
X19829867Y19459414D01*
X19465701Y19459414D01*
X19275436Y19268905D01*
X19275436Y17779024D01*
X18905652Y17409240D01*
X18905652Y16289142D01*
X19096161Y16098633D01*
X19829623Y16098633D01*
G37*
G36*
X18442323Y16098633D02*
G01*
X18632833Y16289142D01*
X18632833Y19268905D01*
X18442567Y19459414D01*
X18078401Y19459414D01*
X17888136Y19268905D01*
X17888136Y17779024D01*
X17518353Y17409240D01*
X17518353Y16289142D01*
X17708862Y16098633D01*
X18442323Y16098633D01*
G37*
G36*
X17211828Y18524697D02*
G01*
X17211828Y16288654D01*
X17021318Y16098633D01*
X15162386Y16098633D01*
X14971877Y16288898D01*
X14971877Y16848947D01*
X15347034Y16848947D01*
X15347034Y16473790D01*
X16097592Y16473790D01*
X16097592Y17208472D01*
X15162386Y17208472D01*
X14977494Y17393853D01*
X14977494Y17583629D01*
X15347034Y17583629D01*
X16467131Y17583629D01*
X16467131Y18333943D01*
X15347034Y18333943D01*
X15347034Y17583629D01*
X14977494Y17583629D01*
X14977494Y18523720D01*
X15162386Y18709100D01*
X17026936Y18709100D01*
X17211828Y18524697D01*
G37*
G36*
X14409385Y16098633D02*
G01*
X14599895Y16288654D01*
X14599895Y18519079D01*
X14409385Y18709100D01*
X12735101Y18709100D01*
X12735101Y18333943D01*
X13855198Y18333943D01*
X13855198Y17775116D01*
X13485415Y17406309D01*
X13485415Y16288654D01*
X13675924Y16098633D01*
X14409385Y16098633D01*
G37*
D10*
X34598571Y39593322D02*
X34598571Y41093322D01*
X34598571Y41093322D02*
X34098571Y40021893D01*
X34098571Y40021893D02*
X33598571Y41093322D01*
X33598571Y41093322D02*
X33598571Y39593322D01*
X32955713Y39664750D02*
X32741428Y39593322D01*
X32741428Y39593322D02*
X32384285Y39593322D01*
X32384285Y39593322D02*
X32241428Y39664750D01*
X32241428Y39664750D02*
X32169999Y39736179D01*
X32169999Y39736179D02*
X32098570Y39879036D01*
X32098570Y39879036D02*
X32098570Y40021893D01*
X32098570Y40021893D02*
X32169999Y40164750D01*
X32169999Y40164750D02*
X32241428Y40236179D01*
X32241428Y40236179D02*
X32384285Y40307608D01*
X32384285Y40307608D02*
X32669999Y40379036D01*
X32669999Y40379036D02*
X32812856Y40450465D01*
X32812856Y40450465D02*
X32884285Y40521893D01*
X32884285Y40521893D02*
X32955713Y40664750D01*
X32955713Y40664750D02*
X32955713Y40807608D01*
X32955713Y40807608D02*
X32884285Y40950465D01*
X32884285Y40950465D02*
X32812856Y41021893D01*
X32812856Y41021893D02*
X32669999Y41093322D01*
X32669999Y41093322D02*
X32312856Y41093322D01*
X32312856Y41093322D02*
X32098570Y41021893D01*
X31527142Y40950465D02*
X31455714Y41021893D01*
X31455714Y41021893D02*
X31312857Y41093322D01*
X31312857Y41093322D02*
X30955714Y41093322D01*
X30955714Y41093322D02*
X30812857Y41021893D01*
X30812857Y41021893D02*
X30741428Y40950465D01*
X30741428Y40950465D02*
X30669999Y40807608D01*
X30669999Y40807608D02*
X30669999Y40664750D01*
X30669999Y40664750D02*
X30741428Y40450465D01*
X30741428Y40450465D02*
X31598571Y39593322D01*
X31598571Y39593322D02*
X30669999Y39593322D01*
D12*
X11945050Y16287762D02*
X11278384Y14287762D01*
X11278384Y14287762D02*
X10611717Y16287762D01*
X8897431Y14287762D02*
X10040288Y14287762D01*
X9468860Y14287762D02*
X9468860Y16287762D01*
X9468860Y16287762D02*
X9659336Y16002048D01*
X9659336Y16002048D02*
X9849812Y15811572D01*
X9849812Y15811572D02*
X10040288Y15716334D01*
X8040288Y14478239D02*
X7945050Y14383000D01*
X7945050Y14383000D02*
X8040288Y14287762D01*
X8040288Y14287762D02*
X8135526Y14383000D01*
X8135526Y14383000D02*
X8040288Y14478239D01*
X8040288Y14478239D02*
X8040288Y14287762D01*
X6706955Y16287762D02*
X6516478Y16287762D01*
X6516478Y16287762D02*
X6326002Y16192524D01*
X6326002Y16192524D02*
X6230764Y16097286D01*
X6230764Y16097286D02*
X6135526Y15906810D01*
X6135526Y15906810D02*
X6040288Y15525858D01*
X6040288Y15525858D02*
X6040288Y15049667D01*
X6040288Y15049667D02*
X6135526Y14668715D01*
X6135526Y14668715D02*
X6230764Y14478239D01*
X6230764Y14478239D02*
X6326002Y14383000D01*
X6326002Y14383000D02*
X6516478Y14287762D01*
X6516478Y14287762D02*
X6706955Y14287762D01*
X6706955Y14287762D02*
X6897431Y14383000D01*
X6897431Y14383000D02*
X6992669Y14478239D01*
X6992669Y14478239D02*
X7087907Y14668715D01*
X7087907Y14668715D02*
X7183145Y15049667D01*
X7183145Y15049667D02*
X7183145Y15525858D01*
X7183145Y15525858D02*
X7087907Y15906810D01*
X7087907Y15906810D02*
X6992669Y16097286D01*
X6992669Y16097286D02*
X6897431Y16192524D01*
X6897431Y16192524D02*
X6706955Y16287762D01*
D13*
%TO.C,G\u002A\u002A\u002A*%
G36*
X6776189Y7167764D02*
G01*
X6776189Y6913553D01*
X6521977Y6913553D01*
X6267765Y6913553D01*
X6267765Y7167764D01*
X6267765Y7421976D01*
X6521977Y7421976D01*
X6776189Y7421976D01*
X6776189Y7167764D01*
G37*
G36*
X8020767Y6421689D02*
G01*
X8269683Y6415721D01*
X8275652Y6166805D01*
X8281620Y5917890D01*
X8026736Y5917890D01*
X7771852Y5917890D01*
X7771852Y6172774D01*
X7771852Y6427658D01*
X8020767Y6421689D01*
G37*
G36*
X8767515Y7167764D02*
G01*
X8767515Y6913553D01*
X8523895Y6913553D01*
X8280275Y6913553D01*
X8280275Y7167764D01*
X8280275Y7421976D01*
X8523895Y7421976D01*
X8767515Y7421976D01*
X8767515Y7167764D01*
G37*
G36*
X9763178Y6913553D02*
G01*
X9763178Y5917890D01*
X9519558Y5917890D01*
X9275938Y5917890D01*
X9275938Y6913553D01*
X9275938Y7909216D01*
X9519558Y7909216D01*
X9763178Y7909216D01*
X9763178Y6913553D01*
G37*
G36*
X4784863Y8661259D02*
G01*
X4784863Y7909216D01*
X5028482Y7909216D01*
X5272102Y7909216D01*
X5272102Y6913553D01*
X5272102Y5917890D01*
X5028482Y5917890D01*
X4784863Y5917890D01*
X4784863Y6912880D01*
X4784863Y7907871D01*
X4535947Y7913839D01*
X4287031Y7919808D01*
X4281464Y8666555D01*
X4275897Y9413302D01*
X4530380Y9413302D01*
X4784863Y9413302D01*
X4784863Y8661259D01*
G37*
G36*
X3429066Y10673484D02*
G01*
X3429066Y10429579D01*
X2724687Y10435160D01*
X2020309Y10440742D01*
X2014319Y10679066D01*
X2011524Y10790283D01*
X2158007Y10790283D01*
X2158007Y10673769D01*
X2158007Y10557256D01*
X2729983Y10557256D01*
X3301960Y10557256D01*
X3301960Y10673769D01*
X3301960Y10790283D01*
X2729983Y10790283D01*
X2158007Y10790283D01*
X2011524Y10790283D01*
X2008329Y10917389D01*
X2718698Y10917389D01*
X3429066Y10917389D01*
X3429066Y10790283D01*
X3429066Y10673484D01*
G37*
G36*
X3238407Y9720475D02*
G01*
X3238407Y9476855D01*
X2719391Y9476855D01*
X2200375Y9476855D01*
X2200375Y9720475D01*
X2200375Y9858173D01*
X2348666Y9858173D01*
X2348666Y9731067D01*
X2348666Y9603961D01*
X2729983Y9603961D01*
X3111301Y9603961D01*
X3111301Y9731067D01*
X3111301Y9858173D01*
X2729983Y9858173D01*
X2348666Y9858173D01*
X2200375Y9858173D01*
X2200375Y9964095D01*
X2719391Y9964095D01*
X3238407Y9964095D01*
X3238407Y9858173D01*
X3238407Y9720475D01*
G37*
G36*
X2216080Y7818339D02*
G01*
X2253153Y7795456D01*
X2265503Y7785560D01*
X2275573Y7768192D01*
X2269051Y7742893D01*
X2242795Y7701161D01*
X2193663Y7634493D01*
X2137269Y7556767D01*
X2071613Y7461316D01*
X2017056Y7377112D01*
X2005022Y7357702D01*
X1967570Y7300679D01*
X1941986Y7272797D01*
X1920763Y7268037D01*
X1896393Y7280380D01*
X1867827Y7302969D01*
X1846130Y7330166D01*
X1848443Y7346711D01*
X1870631Y7393809D01*
X1910309Y7460402D01*
X1961814Y7538546D01*
X2019483Y7620297D01*
X2077651Y7697710D01*
X2130656Y7762841D01*
X2172834Y7807745D01*
X2198521Y7824478D01*
X2216080Y7818339D01*
G37*
G36*
X2801025Y11426993D02*
G01*
X2818887Y11420017D01*
X2843854Y11404159D01*
X2844926Y11378422D01*
X2825747Y11328255D01*
X2819889Y11313924D01*
X2801108Y11262635D01*
X2793536Y11232567D01*
X2801767Y11229200D01*
X2845755Y11224300D01*
X2922560Y11220108D01*
X3026331Y11216844D01*
X3151217Y11214725D01*
X3291368Y11213970D01*
X3789199Y11213970D01*
X3789199Y11150417D01*
X3789199Y11086864D01*
X2729983Y11086864D01*
X1670767Y11086864D01*
X1670767Y11150417D01*
X1670767Y11213970D01*
X2164205Y11213970D01*
X2657643Y11213970D01*
X2682715Y11304003D01*
X2686610Y11317847D01*
X2709935Y11389398D01*
X2732510Y11427002D01*
X2760739Y11437315D01*
X2801025Y11426993D01*
G37*
G36*
X2682885Y8497081D02*
G01*
X2688747Y8184612D01*
X3027130Y8184612D01*
X3365513Y8184612D01*
X3365513Y8121059D01*
X3365513Y8057506D01*
X3026564Y8057506D01*
X2687615Y8057506D01*
X2687615Y7570267D01*
X2687615Y7083027D01*
X3100709Y7083027D01*
X3513803Y7083027D01*
X3513803Y7019474D01*
X3513803Y6955921D01*
X2571101Y6955921D01*
X1628399Y6955921D01*
X1628399Y7019474D01*
X1628399Y7083027D01*
X2083862Y7083027D01*
X2539325Y7083027D01*
X2539325Y7570267D01*
X2539325Y8057506D01*
X2168599Y8057506D01*
X1797873Y8057506D01*
X1797873Y8121059D01*
X1797873Y8184612D01*
X2168033Y8184612D01*
X2538192Y8184612D01*
X2544054Y8497081D01*
X2549917Y8809549D01*
X2613470Y8809549D01*
X2677023Y8809549D01*
X2682885Y8497081D01*
G37*
G36*
X4784863Y4668015D02*
G01*
X4784863Y3418140D01*
X7030400Y3418140D01*
X9275938Y3418140D01*
X9275938Y4424395D01*
X9275938Y5430650D01*
X9519558Y5430650D01*
X9763178Y5430650D01*
X9763178Y4424395D01*
X9763178Y3418140D01*
X9519558Y3418140D01*
X9275938Y3418140D01*
X9275938Y3174520D01*
X9275938Y2930900D01*
X7030400Y2930900D01*
X4784863Y2930900D01*
X4784863Y3173848D01*
X4784863Y3416795D01*
X4535947Y3422764D01*
X4287031Y3428732D01*
X4281566Y4673311D01*
X4276100Y5917890D01*
X4530481Y5917890D01*
X4784863Y5917890D01*
X4784863Y4668015D01*
G37*
G36*
X9275938Y5674270D02*
G01*
X9275938Y5430650D01*
X9021727Y5430650D01*
X8767515Y5430650D01*
X8767515Y5674270D01*
X8767515Y5917890D01*
X9021727Y5917890D01*
X9275938Y5917890D01*
X9275938Y5674270D01*
G37*
G36*
X3646684Y8306422D02*
G01*
X3646966Y8284375D01*
X3650110Y8069426D01*
X3653883Y7890990D01*
X3658894Y7743709D01*
X3665751Y7622228D01*
X3675063Y7521187D01*
X3687438Y7435231D01*
X3703485Y7359001D01*
X3723812Y7287141D01*
X3749029Y7214294D01*
X3779742Y7135102D01*
X3837001Y6991978D01*
X3787212Y6954422D01*
X3748111Y6930855D01*
X3722331Y6926194D01*
X3718849Y6930182D01*
X3700695Y6964607D01*
X3673835Y7025447D01*
X3642713Y7102843D01*
X3616137Y7174939D01*
X3586988Y7266509D01*
X3563777Y7359903D01*
X3545872Y7460909D01*
X3532641Y7575317D01*
X3523451Y7708913D01*
X3517670Y7867486D01*
X3514664Y8056824D01*
X3513803Y8282716D01*
X3513803Y8926063D01*
X2571101Y8926063D01*
X1628399Y8926063D01*
X1628399Y8989616D01*
X1628399Y9053169D01*
X2632801Y9053169D01*
X3637203Y9053169D01*
X3646684Y8306422D01*
G37*
G36*
X3683278Y9741659D02*
G01*
X3683278Y9222644D01*
X3609133Y9222644D01*
X3534988Y9222644D01*
X3534988Y9678106D01*
X3534988Y10133569D01*
X2719391Y10133569D01*
X1903795Y10133569D01*
X1903795Y9767081D01*
X1904029Y9693682D01*
X1906304Y9559251D01*
X1911142Y9463174D01*
X1918720Y9402724D01*
X1929216Y9375171D01*
X1951660Y9364428D01*
X2007687Y9353837D01*
X2079977Y9349749D01*
X2082423Y9349749D01*
X2150804Y9348643D01*
X2186000Y9342850D01*
X2196936Y9328591D01*
X2192543Y9302085D01*
X2184759Y9269527D01*
X2179480Y9236216D01*
X2178544Y9234332D01*
X2151453Y9227424D01*
X2094521Y9224484D01*
X2018010Y9226152D01*
X2012836Y9226412D01*
X1941350Y9230539D01*
X1885972Y9238139D01*
X1844646Y9254073D01*
X1815317Y9283204D01*
X1795930Y9330393D01*
X1784429Y9400502D01*
X1778759Y9498393D01*
X1776864Y9628927D01*
X1776689Y9796967D01*
X1776689Y10260675D01*
X2729983Y10260675D01*
X3683278Y10260675D01*
X3683278Y9741659D01*
G37*
G36*
X2093740Y3243369D02*
G01*
X2093700Y3233535D01*
X2087866Y3003055D01*
X2073088Y2798529D01*
X2049905Y2623148D01*
X2018855Y2480101D01*
X1980476Y2372579D01*
X1935305Y2303771D01*
X1927545Y2296096D01*
X1884524Y2261763D01*
X1845023Y2256639D01*
X1789299Y2277122D01*
X1785263Y2279067D01*
X1730596Y2329261D01*
X1683984Y2419087D01*
X1646213Y2546564D01*
X1618066Y2709709D01*
X1612782Y2755791D01*
X1613161Y2799683D01*
X1627408Y2823991D01*
X1659742Y2842111D01*
X1679159Y2850873D01*
X1717256Y2864618D01*
X1731917Y2856589D01*
X1734320Y2824086D01*
X1734500Y2816769D01*
X1740860Y2760580D01*
X1754300Y2684490D01*
X1772043Y2600844D01*
X1791317Y2521985D01*
X1809344Y2460257D01*
X1823352Y2428006D01*
X1835975Y2416654D01*
X1862182Y2412351D01*
X1869290Y2419235D01*
X1889707Y2465399D01*
X1909280Y2546005D01*
X1927147Y2655164D01*
X1942449Y2786988D01*
X1954325Y2935589D01*
X1961916Y3095079D01*
X1973490Y3460508D01*
X2033972Y3460508D01*
X2094454Y3460508D01*
X2093740Y3243369D01*
G37*
G36*
X2733680Y6783568D02*
G01*
X2770826Y6740294D01*
X2934581Y6547387D01*
X3159050Y6331418D01*
X3409857Y6140678D01*
X3693870Y5969431D01*
X3712551Y5959334D01*
X3780176Y5922428D01*
X3829730Y5894829D01*
X3851576Y5881888D01*
X3851980Y5881464D01*
X3843830Y5861893D01*
X3814086Y5827440D01*
X3767182Y5780535D01*
X3656381Y5841456D01*
X3516779Y5922895D01*
X3300855Y6066287D01*
X3098270Y6221274D01*
X2923062Y6377591D01*
X2719540Y6576859D01*
X2657496Y6496290D01*
X2506036Y6325233D01*
X2320575Y6158611D01*
X2109551Y6003306D01*
X1881337Y5866115D01*
X1702544Y5769951D01*
X1665471Y5814491D01*
X1640589Y5848104D01*
X1628399Y5873321D01*
X1628963Y5874868D01*
X1652244Y5892917D01*
X1702855Y5922442D01*
X1771393Y5957885D01*
X1865029Y6006575D01*
X2130018Y6175572D01*
X2372384Y6378539D01*
X2434859Y6439487D01*
X2535277Y6546079D01*
X2600903Y6630208D01*
X2631536Y6691598D01*
X2626978Y6729972D01*
X2620804Y6738658D01*
X2622336Y6761427D01*
X2659774Y6784385D01*
X2670787Y6789253D01*
X2705371Y6797888D01*
X2733680Y6783568D01*
G37*
G36*
X10017390Y9413302D02*
G01*
X10271601Y9413302D01*
X10271601Y8661259D01*
X10271601Y7909216D01*
X10017390Y7909216D01*
X9763178Y7909216D01*
X9763178Y8661259D01*
X9763178Y9413302D01*
X10017390Y9413302D01*
G37*
G36*
X9763178Y9667905D02*
G01*
X9763178Y9413302D01*
X9265346Y9413302D01*
X8767515Y9413302D01*
X8767515Y9159091D01*
X8767515Y8904879D01*
X8523895Y8904879D01*
X8280275Y8904879D01*
X8280275Y8661259D01*
X8280275Y8417639D01*
X7528232Y8417639D01*
X6776189Y8417639D01*
X6776189Y8660587D01*
X6776189Y8903534D01*
X6527273Y8909503D01*
X6278357Y8915471D01*
X6272389Y9164387D01*
X6266420Y9413302D01*
X5525641Y9413302D01*
X4784863Y9413302D01*
X4784863Y9667514D01*
X4784863Y9921726D01*
X5526314Y9921726D01*
X6267765Y9921726D01*
X6267765Y9667514D01*
X6267765Y9413302D01*
X6521977Y9413302D01*
X6776189Y9413302D01*
X6776189Y9159091D01*
X6776189Y8904879D01*
X7528232Y8904879D01*
X8280275Y8904879D01*
X8280275Y9159091D01*
X8280275Y9413302D01*
X8523223Y9413302D01*
X8766170Y9413302D01*
X8772139Y9662218D01*
X8778107Y9911134D01*
X9270642Y9916820D01*
X9763178Y9922507D01*
X9763178Y9667905D01*
G37*
G36*
X2814721Y2945729D02*
G01*
X2814721Y2941771D01*
X2815691Y2761674D01*
X2818473Y2616458D01*
X2822989Y2507989D01*
X2829164Y2438132D01*
X2836919Y2408752D01*
X2847743Y2382644D01*
X2833519Y2330370D01*
X2805455Y2291731D01*
X2769981Y2274187D01*
X2763771Y2274787D01*
X2720207Y2284818D01*
X2649120Y2304836D01*
X2560127Y2331760D01*
X2462848Y2362510D01*
X2366903Y2394003D01*
X2281910Y2423159D01*
X2217489Y2446895D01*
X2183259Y2462132D01*
X2168212Y2481998D01*
X2169164Y2533698D01*
X2182777Y2587940D01*
X2396990Y2515801D01*
X2497149Y2482080D01*
X2581000Y2456391D01*
X2635799Y2447372D01*
X2667704Y2457311D01*
X2682870Y2488491D01*
X2687455Y2543202D01*
X2687615Y2623728D01*
X2687615Y2803795D01*
X2442588Y2803795D01*
X2197561Y2803795D01*
X2204264Y2862051D01*
X2210968Y2920308D01*
X2449291Y2926298D01*
X2687615Y2932288D01*
X2687615Y3048108D01*
X2687615Y3163928D01*
X2442588Y3163928D01*
X2197561Y3163928D01*
X2204264Y3222185D01*
X2210968Y3280442D01*
X2449291Y3286432D01*
X2687615Y3292421D01*
X2687615Y3376465D01*
X2687703Y3393434D01*
X2692216Y3438822D01*
X2710299Y3457118D01*
X2751168Y3460508D01*
X2814721Y3460508D01*
X2814721Y2945729D01*
G37*
G36*
X2874324Y4476470D02*
G01*
X2910100Y4467073D01*
X2972847Y4449594D01*
X3052724Y4426756D01*
X3097502Y4414536D01*
X3211217Y4387183D01*
X3337226Y4360524D01*
X3455546Y4338915D01*
X3683278Y4301676D01*
X3683278Y3923461D01*
X3683278Y3545246D01*
X2761760Y3545246D01*
X1840242Y3545246D01*
X1840242Y3958340D01*
X1840242Y4371434D01*
X2263928Y4371434D01*
X2687615Y4371434D01*
X2687615Y4318986D01*
X2687615Y4266537D01*
X2332777Y4260729D01*
X1977940Y4254920D01*
X1971537Y4143703D01*
X1965134Y4032485D01*
X2315782Y4032485D01*
X2666431Y4032485D01*
X2666431Y3980049D01*
X2666431Y3927613D01*
X2322185Y3921792D01*
X1977940Y3915971D01*
X1971587Y3794161D01*
X1965234Y3672352D01*
X2760703Y3672352D01*
X3556172Y3672352D01*
X3556172Y3788327D01*
X3556172Y3904303D01*
X3222519Y3910137D01*
X2888866Y3915971D01*
X2882163Y3974228D01*
X2875460Y4032485D01*
X3215816Y4032485D01*
X3556172Y4032485D01*
X3556172Y4112859D01*
X3556172Y4193233D01*
X3312044Y4240811D01*
X3230951Y4257365D01*
X3115129Y4283156D01*
X3009885Y4308840D01*
X2930784Y4330745D01*
X2793652Y4373101D01*
X2827807Y4425228D01*
X2853974Y4461724D01*
X2869798Y4477356D01*
X2874324Y4476470D01*
G37*
G36*
X3640909Y2935137D02*
G01*
X3640922Y2912369D01*
X3642030Y2735943D01*
X3644868Y2593075D01*
X3649348Y2485963D01*
X3655382Y2416804D01*
X3662881Y2387795D01*
X3674007Y2362574D01*
X3662774Y2307753D01*
X3659141Y2298538D01*
X3647179Y2276790D01*
X3629113Y2264201D01*
X3599295Y2261579D01*
X3552079Y2269733D01*
X3481817Y2289472D01*
X3382865Y2321605D01*
X3249574Y2366940D01*
X3168858Y2394868D01*
X3089171Y2424085D01*
X3038814Y2446272D01*
X3011468Y2464954D01*
X3000816Y2483656D01*
X3000540Y2505905D01*
X3006066Y2540717D01*
X3014307Y2565571D01*
X3030792Y2563657D01*
X3080128Y2550443D01*
X3153822Y2527739D01*
X3243441Y2498031D01*
X3319102Y2472669D01*
X3400303Y2446688D01*
X3460092Y2429005D01*
X3489183Y2422477D01*
X3491899Y2423028D01*
X3504243Y2447669D01*
X3511457Y2510361D01*
X3513803Y2613136D01*
X3513803Y2803795D01*
X3259591Y2803795D01*
X3005380Y2803795D01*
X3005380Y2867347D01*
X3005380Y2930900D01*
X3259591Y2930900D01*
X3513803Y2930900D01*
X3513803Y3047414D01*
X3513803Y3163928D01*
X3259591Y3163928D01*
X3005380Y3163928D01*
X3005380Y3227481D01*
X3005380Y3291034D01*
X3259591Y3291034D01*
X3513803Y3291034D01*
X3513803Y3375771D01*
X3513904Y3393967D01*
X3518490Y3439029D01*
X3536606Y3457162D01*
X3577356Y3460508D01*
X3640909Y3460508D01*
X3640909Y2935137D01*
G37*
G36*
X3429066Y5336318D02*
G01*
X3429056Y5296816D01*
X3428527Y5116989D01*
X3426656Y4974110D01*
X3422710Y4863640D01*
X3415953Y4781041D01*
X3405652Y4721773D01*
X3391071Y4681299D01*
X3371476Y4655078D01*
X3346132Y4638573D01*
X3314306Y4627244D01*
X3312085Y4626676D01*
X3269958Y4621702D01*
X3192270Y4617108D01*
X3085148Y4613086D01*
X2954720Y4609828D01*
X2807110Y4607526D01*
X2648448Y4606372D01*
X2475282Y4606000D01*
X2316565Y4606727D01*
X2191401Y4609633D01*
X2095125Y4615719D01*
X2023075Y4625988D01*
X1970583Y4641442D01*
X1932987Y4663084D01*
X1905621Y4691915D01*
X1883821Y4728939D01*
X1862921Y4775156D01*
X1837443Y4836567D01*
X1810771Y4914779D01*
X1804224Y4967342D01*
X1817432Y5001357D01*
X1850027Y5023926D01*
X1886783Y5040348D01*
X1912633Y5044085D01*
X1925198Y5021525D01*
X1935488Y4965089D01*
X1936686Y4958580D01*
X1960796Y4881402D01*
X1996440Y4811502D01*
X2043158Y4742160D01*
X2643505Y4736529D01*
X2814130Y4735391D01*
X2977128Y4735634D01*
X3102150Y4737649D01*
X3191551Y4741504D01*
X3247685Y4747268D01*
X3272906Y4755011D01*
X3277596Y4760548D01*
X3286087Y4784034D01*
X3292471Y4826979D01*
X3296999Y4893963D01*
X3299923Y4989567D01*
X3301493Y5118370D01*
X3301960Y5284954D01*
X3301960Y5790784D01*
X2769168Y5790784D01*
X2236375Y5790784D01*
X2250535Y5584237D01*
X2261506Y5454864D01*
X2278735Y5327358D01*
X2299613Y5239556D01*
X2323900Y5192730D01*
X2338011Y5186941D01*
X2388575Y5179157D01*
X2464855Y5173816D01*
X2556670Y5171833D01*
X2768543Y5171833D01*
X2747146Y5110455D01*
X2729484Y5074981D01*
X2696422Y5047222D01*
X2643179Y5032581D01*
X2562598Y5029264D01*
X2447519Y5035482D01*
X2348421Y5046024D01*
X2274240Y5065005D01*
X2223439Y5098906D01*
X2189665Y5154579D01*
X2166564Y5238871D01*
X2147782Y5358634D01*
X2143260Y5393208D01*
X2128621Y5514908D01*
X2115260Y5638917D01*
X2105605Y5743119D01*
X2091542Y5917890D01*
X2760304Y5917890D01*
X3429066Y5917890D01*
X3429066Y5336318D01*
G37*
D14*
%TO.C,JP1*%
X25860000Y43270000D02*
X25860000Y42670000D01*
X26510000Y41970000D02*
X29310000Y41970000D01*
X29110000Y41770000D02*
X28810000Y41470000D01*
X29110000Y41770000D02*
X29410000Y41470000D01*
X29310000Y43970000D02*
X26510000Y43970000D01*
X29410000Y41470000D02*
X28810000Y41470000D01*
X29960000Y42670000D02*
X29960000Y43270000D01*
X25860000Y43270000D02*
G75*
G02*
X26560000Y43970000I700000J0D01*
G01*
X26560000Y41970000D02*
G75*
G02*
X25860000Y42670000I0J700000D01*
G01*
X29260000Y43970000D02*
G75*
G02*
X29960000Y43270000I1J-699999D01*
G01*
X29960000Y42670000D02*
G75*
G02*
X29260000Y41970000I-699999J-1D01*
G01*
%TO.C,JP2*%
X25870000Y40600000D02*
X25870000Y40000000D01*
X26520000Y39300000D02*
X29320000Y39300000D01*
X29120000Y39100000D02*
X28820000Y38800000D01*
X29120000Y39100000D02*
X29420000Y38800000D01*
X29320000Y41300000D02*
X26520000Y41300000D01*
X29420000Y38800000D02*
X28820000Y38800000D01*
X29970000Y40000000D02*
X29970000Y40600000D01*
X25870000Y40600000D02*
G75*
G02*
X26570000Y41300000I700000J0D01*
G01*
X26570000Y39300000D02*
G75*
G02*
X25870000Y40000000I0J700000D01*
G01*
X29270000Y41300000D02*
G75*
G02*
X29970000Y40600000I1J-699999D01*
G01*
X29970000Y40000000D02*
G75*
G02*
X29270000Y39300000I-699999J-1D01*
G01*
%TD*%
M02*
