%TF.GenerationSoftware,KiCad,Pcbnew,9.0.5*%
%TF.CreationDate,2025-10-09T03:15:18-06:00*%
%TF.ProjectId,SpiderController,53706964-6572-4436-9f6e-74726f6c6c65,1.0*%
%TF.SameCoordinates,PX55d98a0PY8583b00*%
%TF.FileFunction,Copper,L1,Top*%
%TF.FilePolarity,Positive*%
%FSLAX46Y46*%
G04 Gerber Fmt 4.6, Leading zero omitted, Abs format (unit mm)*
G04 Created by KiCad (PCBNEW 9.0.5) date 2025-10-09 03:15:18*
%MOMM*%
%LPD*%
G01*
G04 APERTURE LIST*
G04 Aperture macros list*
%AMRoundRect*
0 Rectangle with rounded corners*
0 $1 Rounding radius*
0 $2 $3 $4 $5 $6 $7 $8 $9 X,Y pos of 4 corners*
0 Add a 4 corners polygon primitive as box body*
4,1,4,$2,$3,$4,$5,$6,$7,$8,$9,$2,$3,0*
0 Add four circle primitives for the rounded corners*
1,1,$1+$1,$2,$3*
1,1,$1+$1,$4,$5*
1,1,$1+$1,$6,$7*
1,1,$1+$1,$8,$9*
0 Add four rect primitives between the rounded corners*
20,1,$1+$1,$2,$3,$4,$5,0*
20,1,$1+$1,$4,$5,$6,$7,0*
20,1,$1+$1,$6,$7,$8,$9,0*
20,1,$1+$1,$8,$9,$2,$3,0*%
G04 Aperture macros list end*
%TA.AperFunction,ComponentPad*%
%ADD10C,2.800000*%
%TD*%
%TA.AperFunction,ComponentPad*%
%ADD11RoundRect,0.250000X-0.600000X-0.725000X0.600000X-0.725000X0.600000X0.725000X-0.600000X0.725000X0*%
%TD*%
%TA.AperFunction,ComponentPad*%
%ADD12O,1.700000X1.950000*%
%TD*%
%TA.AperFunction,ComponentPad*%
%ADD13R,1.700000X1.700000*%
%TD*%
%TA.AperFunction,ComponentPad*%
%ADD14C,1.700000*%
%TD*%
%TA.AperFunction,SMDPad,CuDef*%
%ADD15RoundRect,0.200000X0.275000X-0.200000X0.275000X0.200000X-0.275000X0.200000X-0.275000X-0.200000X0*%
%TD*%
%TA.AperFunction,SMDPad,CuDef*%
%ADD16RoundRect,0.243750X0.456250X-0.243750X0.456250X0.243750X-0.456250X0.243750X-0.456250X-0.243750X0*%
%TD*%
%TA.AperFunction,SMDPad,CuDef*%
%ADD17R,4.200000X1.500000*%
%TD*%
%TA.AperFunction,SMDPad,CuDef*%
%ADD18R,1.000000X3.150000*%
%TD*%
%TA.AperFunction,ComponentPad*%
%ADD19O,1.500000X2.500000*%
%TD*%
%TA.AperFunction,ComponentPad*%
%ADD20R,1.508000X1.508000*%
%TD*%
%TA.AperFunction,ComponentPad*%
%ADD21C,1.508000*%
%TD*%
%TA.AperFunction,SMDPad,CuDef*%
%ADD22RoundRect,0.250000X0.300000X0.300000X-0.300000X0.300000X-0.300000X-0.300000X0.300000X-0.300000X0*%
%TD*%
%TA.AperFunction,SMDPad,CuDef*%
%ADD23RoundRect,0.150000X0.825000X0.150000X-0.825000X0.150000X-0.825000X-0.150000X0.825000X-0.150000X0*%
%TD*%
%TA.AperFunction,SMDPad,CuDef*%
%ADD24RoundRect,0.250000X-0.300000X-0.300000X0.300000X-0.300000X0.300000X0.300000X-0.300000X0.300000X0*%
%TD*%
%TA.AperFunction,SMDPad,CuDef*%
%ADD25RoundRect,0.250000X0.325000X0.650000X-0.325000X0.650000X-0.325000X-0.650000X0.325000X-0.650000X0*%
%TD*%
%TA.AperFunction,SMDPad,CuDef*%
%ADD26RoundRect,0.250001X1.044999X-0.872499X1.044999X0.872499X-1.044999X0.872499X-1.044999X-0.872499X0*%
%TD*%
%TA.AperFunction,ComponentPad*%
%ADD27RoundRect,0.250000X-0.600000X-0.750000X0.600000X-0.750000X0.600000X0.750000X-0.600000X0.750000X0*%
%TD*%
%TA.AperFunction,ComponentPad*%
%ADD28O,1.700000X2.000000*%
%TD*%
%TA.AperFunction,ViaPad*%
%ADD29C,1.000000*%
%TD*%
%TA.AperFunction,Conductor*%
%ADD30C,1.524000*%
%TD*%
%TA.AperFunction,Conductor*%
%ADD31C,0.508000*%
%TD*%
%TA.AperFunction,Conductor*%
%ADD32C,0.203200*%
%TD*%
%TA.AperFunction,Conductor*%
%ADD33C,0.254000*%
%TD*%
G04 APERTURE END LIST*
D10*
%TO.P,J3,1,Pin_1*%
%TO.N,+12V*%
X12930000Y12280000D03*
X12930000Y4080000D03*
%TO.P,J3,2,Pin_2*%
%TO.N,GND*%
X17930000Y12280000D03*
X17930000Y4080000D03*
%TO.P,J3,3,Pin_3*%
%TO.N,+12P*%
X22930000Y12280000D03*
X22930000Y4080000D03*
%TO.P,J3,4,Pin_4*%
%TO.N,Pixel In*%
X27930000Y12280000D03*
X27930000Y4080000D03*
%TO.P,J3,5,Pin_5*%
%TO.N,GND*%
X32930000Y12280000D03*
X32930000Y4080000D03*
%TO.P,J3,6,Pin_6*%
%TO.N,+12P*%
X37930000Y12280000D03*
X37930000Y4080000D03*
%TO.P,J3,7,Pin_7*%
%TO.N,Pixel Out*%
X42930000Y12280000D03*
X42930000Y4080000D03*
%TO.P,J3,8,Pin_8*%
%TO.N,GND*%
X47930000Y12280000D03*
X47930000Y4080000D03*
%TD*%
D11*
%TO.P,J1,1,Pin_1*%
%TO.N,M1B*%
X26630000Y52310000D03*
D12*
%TO.P,J1,2,Pin_2*%
%TO.N,M1A*%
X29130000Y52310000D03*
%TO.P,J1,3,Pin_3*%
%TO.N,M2A*%
X31630000Y52310000D03*
%TO.P,J1,4,Pin_4*%
%TO.N,M2B*%
X34130000Y52310000D03*
%TD*%
D13*
%TO.P,J8,1,Pin_1*%
%TO.N,SDA*%
X2480000Y21200000D03*
D14*
%TO.P,J8,2,Pin_2*%
%TO.N,SCL*%
X2480000Y18660000D03*
%TO.P,J8,3,Pin_3*%
%TO.N,+3.3V*%
X2480000Y16120000D03*
%TO.P,J8,4,Pin_4*%
%TO.N,GND*%
X2480000Y13580000D03*
%TD*%
D13*
%TO.P,J7,1,Pin_1*%
%TO.N,+12P*%
X7560000Y21225000D03*
D14*
%TO.P,J7,2,Pin_2*%
%TO.N,+12V*%
X7560000Y18685000D03*
%TD*%
D15*
%TO.P,R2,1*%
%TO.N,Net-(D4-A)*%
X7870000Y7662500D03*
%TO.P,R2,2*%
%TO.N,+5V*%
X7870000Y9312500D03*
%TD*%
D16*
%TO.P,D4,1,K*%
%TO.N,GND*%
X7880000Y1412500D03*
%TO.P,D4,2,A*%
%TO.N,Net-(D4-A)*%
X7880000Y3287500D03*
%TD*%
D17*
%TO.P,L1,1,1*%
%TO.N,Net-(D1-K)*%
X49950000Y30450000D03*
%TO.P,L1,2,2*%
%TO.N,+5V*%
X49950000Y34050000D03*
%TD*%
D18*
%TO.P,U2,1,D0*%
%TO.N,unconnected-(U2-D0-Pad1)*%
X1770000Y27860000D03*
%TO.P,U2,2,D1*%
%TO.N,Step*%
X4310000Y27860000D03*
%TO.P,U2,3,D2*%
%TO.N,Dir*%
X6850000Y27860000D03*
%TO.P,U2,4,D3*%
%TO.N,Enable*%
X9390000Y27860000D03*
%TO.P,U2,5,D4*%
%TO.N,SDA*%
X11930000Y27860000D03*
%TO.P,U2,6,D5*%
%TO.N,SCL*%
X14470000Y27860000D03*
%TO.P,U2,7,D6*%
%TO.N,TX*%
X17010000Y27860000D03*
%TO.P,U2,8,D7*%
%TO.N,RX*%
X17010000Y43885000D03*
%TO.P,U2,9,D8*%
%TO.N,Net-(U2-D8)*%
X14470000Y43885000D03*
%TO.P,U2,10,D9*%
%TO.N,unconnected-(U2-D9-Pad10)*%
X11930000Y43885000D03*
%TO.P,U2,11,D10*%
%TO.N,Home*%
X9390000Y43885000D03*
%TO.P,U2,12,VCC_3V3*%
%TO.N,+3.3V*%
X6850000Y43885000D03*
%TO.P,U2,13,GND*%
%TO.N,GND*%
X4310000Y43885000D03*
%TO.P,U2,14,VUSB*%
%TO.N,Net-(D2-K)*%
X1770000Y43885000D03*
D19*
%TO.P,U2,B+,Batt+*%
%TO.N,unconnected-(U2-Batt+-PadB+)*%
X9090000Y31520000D03*
%TO.P,U2,B-,Batt-*%
%TO.N,unconnected-(U2-Batt--PadB-)*%
X7190000Y31531000D03*
%TD*%
D16*
%TO.P,D3,1,K*%
%TO.N,GND*%
X5640000Y1407500D03*
%TO.P,D3,2,A*%
%TO.N,Net-(D3-A)*%
X5640000Y3282500D03*
%TD*%
D15*
%TO.P,R1,1*%
%TO.N,Net-(D3-A)*%
X5640000Y7667500D03*
%TO.P,R1,2*%
%TO.N,Net-(U2-D8)*%
X5640000Y9317500D03*
%TD*%
D20*
%TO.P,U3,1,GND*%
%TO.N,GND*%
X36957500Y28760000D03*
D21*
%TO.P,U3,2,VIO*%
%TO.N,+3.3V*%
X36957500Y31300000D03*
%TO.P,U3,3,M1B*%
%TO.N,M1B*%
X36957500Y33840000D03*
%TO.P,U3,4,M1A*%
%TO.N,M1A*%
X36957500Y36380000D03*
%TO.P,U3,5,M2A*%
%TO.N,M2A*%
X36957500Y38920000D03*
%TO.P,U3,6,M2B*%
%TO.N,M2B*%
X36957500Y41460000D03*
%TO.P,U3,7,GND*%
%TO.N,GND*%
X36957500Y44000000D03*
%TO.P,U3,8,VM*%
%TO.N,+12V*%
X36957500Y46540000D03*
%TO.P,U3,9,DIR*%
%TO.N,Dir*%
X24257500Y28760000D03*
%TO.P,U3,10,STEP*%
%TO.N,Step*%
X24257500Y31300000D03*
%TO.P,U3,11,PDN*%
%TO.N,unconnected-(U3-PDN-Pad11)*%
X24257500Y33840000D03*
%TO.P,U3,12,UART*%
%TO.N,RX*%
X24257500Y36380000D03*
%TO.P,U3,13,SPRD*%
%TO.N,unconnected-(U3-SPRD-Pad13)*%
X24257500Y38920000D03*
%TO.P,U3,14,MS2*%
%TO.N,MS2*%
X24257500Y41460000D03*
%TO.P,U3,15,MS1*%
%TO.N,MS1*%
X24257500Y44000000D03*
%TO.P,U3,16,~{EN}*%
%TO.N,Enable*%
X24257500Y46540000D03*
%TO.P,U3,17,INDEX*%
%TO.N,unconnected-(U3-INDEX-Pad17)*%
X29337500Y46540000D03*
%TO.P,U3,18,DIAG*%
%TO.N,unconnected-(U3-DIAG-Pad18)*%
X26797500Y46540000D03*
%TD*%
D15*
%TO.P,R3,1*%
%TO.N,TX*%
X20060000Y41000000D03*
%TO.P,R3,2*%
%TO.N,RX*%
X20060000Y42650000D03*
%TD*%
D22*
%TO.P,D1,1,K*%
%TO.N,Net-(D1-K)*%
X49840000Y27880000D03*
%TO.P,D1,2,A*%
%TO.N,GND*%
X47040000Y27880000D03*
%TD*%
D23*
%TO.P,U1,1,VIN*%
%TO.N,+12V*%
X45530000Y30250000D03*
%TO.P,U1,2,OUT*%
%TO.N,Net-(D1-K)*%
X45530000Y31520000D03*
%TO.P,U1,3,FB*%
%TO.N,+5V*%
X45530000Y32790000D03*
%TO.P,U1,4,~{EN}*%
%TO.N,+12V*%
X45530000Y34060000D03*
%TO.P,U1,5,GND*%
%TO.N,GND*%
X40580000Y34060000D03*
%TO.P,U1,6,GND*%
X40580000Y32790000D03*
%TO.P,U1,7,GND*%
X40580000Y31520000D03*
%TO.P,U1,8,GND*%
X40580000Y30250000D03*
%TD*%
D24*
%TO.P,D2,1,K*%
%TO.N,Net-(D2-K)*%
X42070000Y43460000D03*
%TO.P,D2,2,A*%
%TO.N,+5V*%
X44870000Y43460000D03*
%TD*%
D25*
%TO.P,C1,1*%
%TO.N,+12V*%
X45460000Y36790000D03*
%TO.P,C1,2*%
%TO.N,GND*%
X42510000Y36790000D03*
%TD*%
D26*
%TO.P,C2,1*%
%TO.N,+5V*%
X49790000Y36895000D03*
%TO.P,C2,2*%
%TO.N,GND*%
X49790000Y43310000D03*
%TD*%
D27*
%TO.P,J4,1,Pin_1*%
%TO.N,Home*%
X13980000Y52350000D03*
D28*
%TO.P,J4,2,Pin_2*%
%TO.N,GND*%
X16480000Y52350000D03*
%TD*%
D29*
%TO.N,+12V*%
X43450000Y28260000D03*
%TO.N,GND*%
X38940000Y32780000D03*
X38920000Y34070000D03*
X49790000Y41110000D03*
X45310000Y27870000D03*
X38950000Y31530000D03*
X38950000Y30250000D03*
X9392500Y1412500D03*
X4310000Y41130000D03*
%TO.N,+3.3V*%
X6850000Y37710000D03*
%TO.N,+5V*%
X7880000Y12090000D03*
X46802500Y39882500D03*
%TO.N,Net-(D2-K)*%
X42060000Y45360000D03*
X1740000Y46450000D03*
%TO.N,Net-(U2-D8)*%
X5720000Y12150000D03*
X14460000Y31970000D03*
%TO.N,Dir*%
X5790000Y33410000D03*
%TO.N,Enable*%
X13270000Y46520000D03*
%TO.N,Step*%
X4350000Y34560000D03*
%TD*%
D30*
%TO.N,+12P*%
X23168648Y3841352D02*
G75*
G03*
X22930005Y3742500I-98848J-98852D01*
G01*
X22930000Y4417500D02*
G75*
G03*
X23168647Y3841351I814800J0D01*
G01*
X36748499Y2898501D02*
G75*
G02*
X33896106Y1716999I-2852399J2852399D01*
G01*
X24111500Y2898500D02*
G75*
G03*
X26963893Y1716997I2852400J2852400D01*
G01*
X37686048Y3836049D02*
G75*
G03*
X37930000Y4425000I-588948J588951D01*
G01*
D31*
X37930000Y3735000D02*
G75*
G03*
X37686053Y3836044I-142900J0D01*
G01*
X22930000Y3742500D02*
X22930000Y4417500D01*
D30*
X37930000Y4425000D02*
X37930000Y3735000D01*
X22930000Y6105000D02*
X22930000Y4755000D01*
X37930000Y6150000D02*
X37930000Y4770000D01*
D31*
%TO.N,+12V*%
X45460000Y37257813D02*
X45460000Y36945938D01*
X45460000Y36790000D02*
X45460000Y36166250D01*
D30*
%TO.N,+12P*%
X36748499Y2898501D02*
X37686048Y3836049D01*
X33896106Y1717000D02*
X26963893Y1717000D01*
X23168648Y3841352D02*
X24111500Y2898500D01*
%TO.N,GND*%
X47930000Y12280000D02*
X47930000Y4080000D01*
X32930000Y12280000D02*
X32930000Y4080000D01*
X17930000Y12280000D02*
X17930000Y4080000D01*
%TO.N,+12P*%
X37930000Y4425000D02*
X37930000Y4770000D01*
X22930000Y4417500D02*
X22930000Y4755000D01*
D31*
%TO.N,+12V*%
X45460000Y36945938D02*
X45460000Y36790000D01*
X45460000Y34179498D02*
X45460000Y36166250D01*
X43450000Y28260000D02*
X43450000Y30934645D01*
X44660832Y34130000D02*
X45410502Y34130000D01*
D30*
X12930000Y12280000D02*
X12930000Y4080000D01*
D31*
X45018942Y38478558D02*
X36957500Y46540000D01*
X44814472Y30250000D02*
X45530000Y30250000D01*
X43525000Y30995000D02*
X43885000Y30635000D01*
X45495000Y34095000D02*
X45530000Y34060000D01*
X43500000Y32969168D02*
X43500000Y31055356D01*
X45460000Y37257813D02*
X45460000Y37413750D01*
X43525000Y30995000D02*
G75*
G02*
X43499982Y31055356I60400J60400D01*
G01*
X43475000Y30995000D02*
G75*
G03*
X43500018Y31055356I-60400J60400D01*
G01*
X45460000Y37413750D02*
G75*
G03*
X45018924Y38478540I-1505900J-50D01*
G01*
X43885000Y30635000D02*
G75*
G03*
X44814472Y30249988I929500J929500D01*
G01*
X45460000Y34179498D02*
G75*
G03*
X45495001Y34095001I119500J2D01*
G01*
X44660832Y34130000D02*
G75*
G03*
X43839990Y33790010I-32J-1160800D01*
G01*
X45410502Y34130000D02*
G75*
G02*
X45494999Y34094999I-2J-119500D01*
G01*
X45410502Y34130000D02*
G75*
G03*
X45460000Y34179498I-2J49500D01*
G01*
X43525000Y30995000D02*
G75*
G03*
X43475000Y30995000I-25000J-24998D01*
G01*
X43840000Y33790000D02*
G75*
G03*
X43500014Y32969168I820800J-820800D01*
G01*
X43475000Y30995000D02*
G75*
G03*
X43449982Y30934645I60400J-60400D01*
G01*
D32*
%TO.N,GND*%
X9392500Y1412500D02*
X9410000Y1430000D01*
D31*
X40580000Y33989290D02*
X40580000Y32790000D01*
X38940000Y32780000D02*
X38945000Y32785000D01*
D33*
X4310000Y41130000D02*
X4310000Y43885000D01*
D31*
X49790000Y41110000D02*
X49790000Y43310000D01*
D32*
X7871464Y1407500D02*
X5640000Y1407500D01*
X7883535Y1412500D02*
X9392500Y1412500D01*
D31*
X40962842Y35242843D02*
X42510000Y36790000D01*
X40580000Y31520000D02*
X40580000Y30250000D01*
X45327071Y27880000D02*
X47040000Y27880000D01*
X40580000Y30250000D02*
X38950000Y30250000D01*
X45310000Y27870000D02*
X45315000Y27875000D01*
X38920000Y34070000D02*
X38925000Y34065000D01*
X38955000Y31525000D02*
X38950000Y31530000D01*
X40580000Y32790000D02*
X38957071Y32790000D01*
X40680000Y34560000D02*
X40680000Y34230711D01*
X38937071Y34060000D02*
X40509289Y34060000D01*
X40580000Y31520000D02*
X40580000Y32790000D01*
X40580000Y31520000D02*
X38967071Y31520000D01*
X40630000Y34110000D02*
G75*
G03*
X40679996Y34230711I-120700J120700D01*
G01*
X38937071Y34060000D02*
G75*
G02*
X38925008Y34065008I29J17100D01*
G01*
X38945000Y32785000D02*
G75*
G02*
X38957071Y32790012I12100J-12100D01*
G01*
X45315000Y27875000D02*
G75*
G02*
X45327071Y27880012I12100J-12100D01*
G01*
X40680000Y34560000D02*
G75*
G02*
X40962839Y35242846I965700J0D01*
G01*
X40630000Y34110000D02*
G75*
G03*
X40580004Y33989290I120700J-120700D01*
G01*
X40580000Y33989290D02*
G75*
G03*
X40509289Y34060000I-70700J10D01*
G01*
D32*
X7877500Y1410000D02*
G75*
G02*
X7883535Y1412485I6000J-6000D01*
G01*
D31*
X40630000Y34110000D02*
G75*
G02*
X40509289Y34060004I-120700J120700D01*
G01*
X38955000Y31525000D02*
G75*
G03*
X38967071Y31519988I12100J12100D01*
G01*
D32*
X7877500Y1410000D02*
G75*
G02*
X7871464Y1407515I-6000J6000D01*
G01*
D30*
%TO.N,+12P*%
X22930000Y12280000D02*
X22930000Y6105000D01*
D31*
X22930000Y3742500D02*
X22930000Y3405000D01*
D30*
X22930000Y12280000D02*
X22930000Y17119409D01*
X18824408Y21225000D02*
X7560000Y21225000D01*
D31*
X37930000Y3735000D02*
X37930000Y3390000D01*
D30*
X37930000Y6150000D02*
X37930000Y12280000D01*
X18824408Y21225000D02*
G75*
G02*
X21727498Y20022498I-8J-4105600D01*
G01*
X21727500Y20022500D02*
G75*
G02*
X22930003Y17119409I-2903100J-2903100D01*
G01*
D31*
%TO.N,Net-(D1-K)*%
X48123395Y31520000D02*
X45530000Y31520000D01*
X49415000Y30985000D02*
X49895000Y30505000D01*
X49840000Y30262219D02*
X49840000Y27880000D01*
X49895000Y30395000D02*
G75*
G03*
X49839992Y30262219I132800J-132800D01*
G01*
X49895000Y30395000D02*
G75*
G03*
X49895000Y30505000I-55000J55000D01*
G01*
X49415000Y30985000D02*
G75*
G03*
X48123395Y31519998I-1291600J-1291600D01*
G01*
%TO.N,Pixel In*%
X27930000Y12280000D02*
X27930000Y4080000D01*
%TO.N,Pixel Out*%
X42930000Y12280000D02*
X42930000Y4080000D01*
D33*
%TO.N,+3.3V*%
X6850000Y37710000D02*
X6850000Y43885000D01*
D31*
%TO.N,+5V*%
X46802500Y39882500D02*
X49790000Y36895000D01*
D33*
X7875000Y12085000D02*
X7880000Y12090000D01*
D31*
X46802500Y39882500D02*
X45451595Y41233405D01*
X49790000Y34323138D02*
X49790000Y36895000D01*
X47799045Y32790000D02*
X45530000Y32790000D01*
X49320000Y33420000D02*
X49870000Y33970000D01*
X44870000Y42637500D02*
X44870000Y43460000D01*
D33*
X7870000Y12072929D02*
X7870000Y9312500D01*
D31*
X49870000Y34130000D02*
G75*
G02*
X49870000Y33970000I-80000J-80000D01*
G01*
X44870000Y42637500D02*
G75*
G03*
X45451593Y41233403I1985700J0D01*
G01*
X47799045Y32790000D02*
G75*
G03*
X49319987Y33420013I-45J2151000D01*
G01*
D33*
X7875000Y12085000D02*
G75*
G03*
X7869988Y12072929I12100J-12100D01*
G01*
D31*
X49790000Y34323138D02*
G75*
G03*
X49869989Y34129989I273100J-38D01*
G01*
D33*
%TO.N,Net-(D2-K)*%
X1770000Y46398787D02*
X1770000Y43885000D01*
X1755000Y46435000D02*
X1740000Y46450000D01*
X42065000Y43465000D02*
X42070000Y43460000D01*
X42060000Y45360000D02*
X42060000Y43477072D01*
X1770000Y46398787D02*
G75*
G03*
X1755004Y46435004I-51200J13D01*
G01*
X42060000Y43477072D02*
G75*
G03*
X42065008Y43465008I17100J28D01*
G01*
D32*
%TO.N,Net-(D3-A)*%
X5640000Y7667500D02*
X5640000Y3282500D01*
%TO.N,Net-(D4-A)*%
X7870000Y3304572D02*
X7870000Y7662500D01*
X7875000Y3292500D02*
X7880000Y3287500D01*
X7870000Y3304572D02*
G75*
G03*
X7875008Y3292508I17100J28D01*
G01*
%TO.N,Home*%
X12788872Y52038874D02*
X10983792Y50233793D01*
X13540000Y52350000D02*
X13980000Y52350000D01*
X9390000Y46386037D02*
X9390000Y43885000D01*
X12788872Y52038874D02*
G75*
G02*
X13540000Y52349988I751128J-751174D01*
G01*
X9390000Y46386037D02*
G75*
G02*
X10983821Y50233764I5441500J-37D01*
G01*
%TO.N,SDA*%
X11930000Y26039117D02*
X11930000Y27860000D01*
X2480000Y23034609D02*
X2480000Y21200000D01*
X4255391Y24810000D02*
X10700883Y24810000D01*
X3000000Y24290000D02*
G75*
G02*
X4255391Y24810004I1255400J-1255400D01*
G01*
X11570000Y25170000D02*
G75*
G03*
X11929993Y26039117I-869100J869100D01*
G01*
X3000000Y24290000D02*
G75*
G03*
X2479996Y23034609I1255400J-1255400D01*
G01*
X11570000Y25170000D02*
G75*
G02*
X10700883Y24810007I-869100J869100D01*
G01*
%TO.N,SCL*%
X3730000Y23036741D02*
X3730000Y20793884D01*
X14470000Y25477904D02*
X14470000Y27860000D01*
X3105000Y19285000D02*
X2480000Y18660000D01*
X4993259Y24300000D02*
X13292096Y24300000D01*
X3730000Y20793884D02*
G75*
G02*
X3104995Y19285005I-2133900J16D01*
G01*
X14125000Y24645000D02*
G75*
G03*
X14469998Y25477904I-832900J832900D01*
G01*
X3730000Y23036741D02*
G75*
G02*
X4100033Y23929967I1263200J-41D01*
G01*
X4100000Y23930000D02*
G75*
G02*
X4993259Y24300046I893300J-893200D01*
G01*
X14125000Y24645000D02*
G75*
G02*
X13292096Y24300002I-832900J832900D01*
G01*
D33*
%TO.N,Net-(U2-D8)*%
X14470000Y31987072D02*
X14470000Y43885000D01*
X14460000Y31970000D02*
X14465000Y31975000D01*
X5640000Y12013432D02*
X5640000Y9317500D01*
X5680000Y12110000D02*
X5720000Y12150000D01*
X14465000Y31975000D02*
G75*
G03*
X14470012Y31987072I-12100J12100D01*
G01*
X5680000Y12110000D02*
G75*
G03*
X5639987Y12013432I96600J-96600D01*
G01*
%TO.N,RX*%
X22032739Y38604761D02*
X24257500Y36380000D01*
X17951723Y43885000D02*
X17010000Y43885000D01*
X21300000Y40533188D02*
X21300000Y40373750D01*
X19442500Y43267500D02*
X20060000Y42650000D01*
X20680000Y42030000D02*
X20060000Y42650000D01*
X17951723Y43885000D02*
G75*
G02*
X19442493Y43267493I-23J-2108300D01*
G01*
X22032739Y38604761D02*
G75*
G02*
X21300027Y40373750I1768961J1768939D01*
G01*
X20680000Y42030000D02*
G75*
G02*
X21299995Y40533188I-1496800J-1496800D01*
G01*
%TO.N,TX*%
X20060000Y31479067D02*
X20060000Y41000000D01*
X18999999Y28920001D02*
X18268804Y28188805D01*
X17475000Y27860000D02*
X17010000Y27860000D01*
X17475000Y27860000D02*
G75*
G03*
X18268803Y28188806I0J1122600D01*
G01*
X18999999Y28920001D02*
G75*
G03*
X20060013Y31479067I-2559099J2559099D01*
G01*
%TO.N,Dir*%
X6320000Y28390000D02*
X6850000Y27860000D01*
X5790000Y29669534D02*
X5790000Y33410000D01*
X5790000Y29669534D02*
G75*
G03*
X6319990Y28389990I1809500J-34D01*
G01*
%TO.N,Enable*%
X11676207Y30146208D02*
X9390000Y27860000D01*
X13270000Y33993964D02*
X13270000Y46520000D01*
X13270000Y33993964D02*
G75*
G02*
X11676200Y30146215I-5441600J36D01*
G01*
%TO.N,Step*%
X4330000Y34540000D02*
X4350000Y34560000D01*
X4310000Y34491716D02*
X4310000Y27860000D01*
X4330000Y34540000D02*
G75*
G03*
X4309993Y34491716I48300J-48300D01*
G01*
D31*
%TO.N,M2A*%
X32060000Y51575945D02*
X32060000Y42709778D01*
X35618750Y38920000D02*
X36957500Y38920000D01*
X31845000Y52095000D02*
X31630000Y52310000D01*
X33170000Y40030000D02*
X33333360Y39866640D01*
X31845000Y52095000D02*
G75*
G02*
X32060018Y51575945I-519100J-519100D01*
G01*
X33333360Y39866640D02*
G75*
G03*
X35618750Y38919956I2285440J2285360D01*
G01*
X33170000Y40030000D02*
G75*
G02*
X32059990Y42709778I2679800J2679800D01*
G01*
%TO.N,M1A*%
X30240000Y51200000D02*
X29130000Y52310000D01*
X34969066Y36380000D02*
X36957500Y36380000D01*
X31350000Y39999067D02*
X31350000Y48520223D01*
X32410000Y37440000D02*
G75*
G02*
X31349986Y39999067I2559100J2559100D01*
G01*
X34969066Y36380000D02*
G75*
G02*
X32410010Y37440010I34J3619100D01*
G01*
X30240000Y51200000D02*
G75*
G02*
X31350010Y48520223I-2679800J-2679800D01*
G01*
%TO.N,M1B*%
X30610000Y36912793D02*
X30610000Y46076037D01*
X29016207Y49923793D02*
X26630000Y52310000D01*
X33682792Y33840000D02*
X36957500Y33840000D01*
X30610000Y46076037D02*
G75*
G03*
X29016199Y49923785I-5441600J-37D01*
G01*
X30610000Y36912793D02*
G75*
G03*
X31510002Y34740002I3072800J7D01*
G01*
X33682792Y33840000D02*
G75*
G02*
X31510002Y34740002I8J3072800D01*
G01*
%TO.N,M2B*%
X34130000Y44259656D02*
X34130000Y52310000D01*
X36363750Y41460000D02*
X36957500Y41460000D01*
X34950000Y42280000D02*
X35350155Y41879845D01*
X35350155Y41879845D02*
G75*
G03*
X36363750Y41459953I1013645J1013555D01*
G01*
X34950000Y42280000D02*
G75*
G02*
X34129981Y44259656I1979700J1979700D01*
G01*
D30*
%TO.N,+12V*%
X12197500Y17952500D02*
G75*
G03*
X10429088Y18684995I-1768400J-1768400D01*
G01*
X12197500Y17952500D02*
G75*
G02*
X12929995Y16184089I-1768400J-1768400D01*
G01*
X12930000Y12280000D02*
X12930000Y16184089D01*
X10429088Y18685000D02*
X7560000Y18685000D01*
%TD*%
M02*
