ISO-10303-21;
HEADER;
FILE_DESCRIPTION (( 'STEP AP214' ),
    '1' );
FILE_NAME ('Front Cover.STEP',
    '2025-10-10T07:54:07',
    ( '' ),
    ( '' ),
    'SwSTEP 2.0',
    'SolidWorks 2025',
    '' );
FILE_SCHEMA (( 'AUTOMOTIVE_DESIGN' ));
ENDSEC;

DATA;
#1 = CARTESIAN_POINT ( 'NONE',  ( -93.00000000000000000, -160.3461478715776707, 74.00000000000012790 ) ) ;
#2 = CARTESIAN_POINT ( 'NONE',  ( -30.34171337674250779, 0.000000000000000000, 66.50000000000009948 ) ) ;
#3 = CARTESIAN_POINT ( 'NONE',  ( -89.75000000000000000, -155.3461478715776707, 65.00000000000018474 ) ) ;
#4 = ORIENTED_EDGE ( 'NONE', *, *, #717, .T. ) ;
#5 = FACE_OUTER_BOUND ( 'NONE', #329, .T. ) ;
#6 = EDGE_CURVE ( 'NONE', #895, #645, #746, .T. ) ;
#7 = DIRECTION ( 'NONE',  ( -1.110223024625156540E-16, -1.000000000000000000, 0.000000000000000000 ) ) ;
#8 = CYLINDRICAL_SURFACE ( 'NONE', #436, 2.149999999999999023 ) ;
#9 = ORIENTED_EDGE ( 'NONE', *, *, #812, .T. ) ;
#10 = CARTESIAN_POINT ( 'NONE',  ( -26.00000000000000355, -1.112526774261244321E-13, 0.000000000000000000 ) ) ;
#11 = ORIENTED_EDGE ( 'NONE', *, *, #569, .T. ) ;
#12 = ADVANCED_FACE ( 'NONE', ( #892 ), #489, .F. ) ;
#13 = LINE ( 'NONE', #456, #335 ) ;
#14 = VECTOR ( 'NONE', #780, 1000.000000000000000 ) ;
#15 = DIRECTION ( 'NONE',  ( -9.049974844778400961E-17, 1.000000000000000000, -0.000000000000000000 ) ) ;
#16 = AXIS2_PLACEMENT_3D ( 'NONE', #209, #497, #493 ) ;
#17 = ORIENTED_EDGE ( 'NONE', *, *, #471, .F. ) ;
#18 = AXIS2_PLACEMENT_3D ( 'NONE', #25, #391, #705 ) ;
#19 = CIRCLE ( 'NONE', #598, 2.149999999999999023 ) ;
#20 = CARTESIAN_POINT ( 'NONE',  ( -30.34171337674250779, -7.000000000000117240, 70.00000000000009948 ) ) ;
#21 = VERTEX_POINT ( 'NONE', #419 ) ;
#22 = CARTESIAN_POINT ( 'NONE',  ( -30.34171337674251845, -4.000000000000000000, 5.000000000000101252 ) ) ;
#23 = DIRECTION ( 'NONE',  ( 1.000000000000000000, 0.000000000000000000, 0.000000000000000000 ) ) ;
#24 = ORIENTED_EDGE ( 'NONE', *, *, #519, .T. ) ;
#25 = CARTESIAN_POINT ( 'NONE',  ( -86.50000000000000000, -155.3461478715776707, 75.00000000000009948 ) ) ;
#26 = ORIENTED_EDGE ( 'NONE', *, *, #911, .F. ) ;
#27 = DIRECTION ( 'NONE',  ( -0.000000000000000000, -0.000000000000000000, -1.000000000000000000 ) ) ;
#28 = ORIENTED_EDGE ( 'NONE', *, *, #506, .T. ) ;
#29 = LINE ( 'NONE', #898, #952 ) ;
#30 = LINE ( 'NONE', #39, #143 ) ;
#31 = VERTEX_POINT ( 'NONE', #267 ) ;
#32 = EDGE_CURVE ( 'NONE', #667, #131, #792, .T. ) ;
#33 = CYLINDRICAL_SURFACE ( 'NONE', #962, 1.000000000000000000 ) ;
#34 = ADVANCED_FACE ( 'NONE', ( #736, #56, #742 ), #655, .F. ) ;
#35 = CARTESIAN_POINT ( 'NONE',  ( -30.34171337674250779, -4.000000000000000000, 73.50000000000011369 ) ) ;
#36 = ORIENTED_EDGE ( 'NONE', *, *, #306, .F. ) ;
#37 = CARTESIAN_POINT ( 'NONE',  ( -88.50000000000000000, -155.3461478715776707, 66.74928556845377159 ) ) ;
#38 = CARTESIAN_POINT ( 'NONE',  ( -93.00000000000000000, -1.000000000000000222, 0.000000000000000000 ) ) ;
#39 = CARTESIAN_POINT ( 'NONE',  ( -86.50000000000000000, -160.3461478715776707, 75.00000000000009948 ) ) ;
#40 = ORIENTED_EDGE ( 'NONE', *, *, #753, .T. ) ;
#41 = EDGE_CURVE ( 'NONE', #448, #31, #979, .T. ) ;
#42 = CARTESIAN_POINT ( 'NONE',  ( -88.50000000000001421, -7.000000000000110134, 249.1691337098909855 ) ) ;
#43 = EDGE_CURVE ( 'NONE', #620, #586, #659, .T. ) ;
#44 = FACE_OUTER_BOUND ( 'NONE', #351, .T. ) ;
#45 = CIRCLE ( 'NONE', #349, 2.049999999999999822 ) ;
#46 = ORIENTED_EDGE ( 'NONE', *, *, #539, .F. ) ;
#47 = AXIS2_PLACEMENT_3D ( 'NONE', #591, #771, #514 ) ;
#48 = AXIS2_PLACEMENT_3D ( 'NONE', #808, #413, #286 ) ;
#49 = VERTEX_POINT ( 'NONE', #201 ) ;
#50 = CARTESIAN_POINT ( 'NONE',  ( -93.00000000000000000, -1.000000000000001110, 74.00000000000014211 ) ) ;
#51 = EDGE_LOOP ( 'NONE', ( #635, #163, #673, #9, #24 ) ) ;
#52 = DIRECTION ( 'NONE',  ( 1.110223024625156540E-16, 1.000000000000000000, -0.000000000000000000 ) ) ;
#53 = ORIENTED_EDGE ( 'NONE', *, *, #724, .T. ) ;
#54 = LINE ( 'NONE', #660, #361 ) ;
#55 = DIRECTION ( 'NONE',  ( 0.000000000000000000, 1.000000000000000000, 0.000000000000000000 ) ) ;
#56 = FACE_BOUND ( 'NONE', #81, .T. ) ;
#57 = FILL_AREA_STYLE_COLOUR ( '', #560 ) ;
#58 = ORIENTED_EDGE ( 'NONE', *, *, #220, .T. ) ;
#59 = DIRECTION ( 'NONE',  ( -1.246507886929443236E-16, 4.607499272175655657E-17, -1.000000000000000000 ) ) ;
#60 = ORIENTED_EDGE ( 'NONE', *, *, #43, .T. ) ;
#61 = EDGE_CURVE ( 'NONE', #913, #404, #757, .T. ) ;
#62 = DIRECTION ( 'NONE',  ( -0.000000000000000000, -0.000000000000000000, 1.000000000000000000 ) ) ;
#63 = EDGE_CURVE ( 'NONE', #904, #662, #193, .T. ) ;
#64 = VERTEX_POINT ( 'NONE', #122 ) ;
#65 = CYLINDRICAL_SURFACE ( 'NONE', #636, 2.150000000000000799 ) ;
#66 = VECTOR ( 'NONE', #766, 1000.000000000000000 ) ;
#67 = DIRECTION ( 'NONE',  ( 0.000000000000000000, 0.000000000000000000, 1.000000000000000000 ) ) ;
#68 = ORIENTED_EDGE ( 'NONE', *, *, #520, .F. ) ;
#69 = DIRECTION ( 'NONE',  ( 1.000000000000000000, -1.110223024625156540E-16, 0.000000000000000000 ) ) ;
#70 = FACE_OUTER_BOUND ( 'NONE', #681, .T. ) ;
#71 = ORIENTED_EDGE ( 'NONE', *, *, #327, .T. ) ;
#72 = LINE ( 'NONE', #211, #637 ) ;
#73 = EDGE_CURVE ( 'NONE', #124, #870, #318, .T. ) ;
#74 = CARTESIAN_POINT ( 'NONE',  ( -86.50000000000000000, -160.3461478715776707, 4.448069231528961609 ) ) ;
#75 = ORIENTED_EDGE ( 'NONE', *, *, #768, .F. ) ;
#76 = CARTESIAN_POINT ( 'NONE',  ( -26.00000000000002132, -1.112526774261244068E-13, 74.00000000000009948 ) ) ;
#77 = AXIS2_PLACEMENT_3D ( 'NONE', #974, #639, #759 ) ;
#78 = CARTESIAN_POINT ( 'NONE',  ( 0.000000000000000000, 0.000000000000000000, 0.000000000000000000 ) ) ;
#79 = AXIS2_PLACEMENT_3D ( 'NONE', #710, #268, #108 ) ;
#80 = CYLINDRICAL_SURFACE ( 'NONE', #994, 2.049999999999996270 ) ;
#81 = EDGE_LOOP ( 'NONE', ( #978, #574 ) ) ;
#82 = EDGE_CURVE ( 'NONE', #549, #86, #887, .T. ) ;
#83 = CARTESIAN_POINT ( 'NONE',  ( -93.00000000000000000, -0.9999999999999997780, 74.00000000000012790 ) ) ;
#84 = DIRECTION ( 'NONE',  ( -0.000000000000000000, -1.000000000000000000, -0.000000000000000000 ) ) ;
#85 = DIRECTION ( 'NONE',  ( 0.000000000000000000, 0.000000000000000000, -1.000000000000000000 ) ) ;
#86 = VERTEX_POINT ( 'NONE', #112 ) ;
#87 = CARTESIAN_POINT ( 'NONE',  ( -30.34171337674251845, -4.000000000000000000, 5.000000000000101252 ) ) ;
#88 = DIRECTION ( 'NONE',  ( -1.000000000000000000, 0.000000000000000000, 0.000000000000000000 ) ) ;
#89 = FACE_BOUND ( 'NONE', #961, .T. ) ;
#90 = ORIENTED_EDGE ( 'NONE', *, *, #244, .T. ) ;
#91 = CARTESIAN_POINT ( 'NONE',  ( -26.00000000000000355, -7.000000000000117240, 0.000000000000000000 ) ) ;
#92 = UNCERTAINTY_MEASURE_WITH_UNIT (LENGTH_MEASURE( 1.000000000000000082E-05 ), #834, 'distance_accuracy_value', 'NONE');
#93 = ADVANCED_FACE ( 'NONE', ( #414 ), #731, .F. ) ;
#94 = EDGE_CURVE ( 'NONE', #864, #264, #689, .T. ) ;
#95 = CARTESIAN_POINT ( 'NONE',  ( -88.50000000000000000, -160.3461478715776707, 0.000000000000000000 ) ) ;
#96 = VECTOR ( 'NONE', #865, 1000.000000000000000 ) ;
#97 = CARTESIAN_POINT ( 'NONE',  ( -89.75000000000000000, -160.3461478715776707, 62.85000000000018616 ) ) ;
#98 = EDGE_CURVE ( 'NONE', #864, #367, #421, .T. ) ;
#99 = CIRCLE ( 'NONE', #686, 2.149999999999999023 ) ;
#100 = EDGE_CURVE ( 'NONE', #931, #124, #313, .T. ) ;
#101 = ORIENTED_EDGE ( 'NONE', *, *, #565, .T. ) ;
#102 = VECTOR ( 'NONE', #216, 1000.000000000000000 ) ;
#103 = CIRCLE ( 'NONE', #545, 2.149999999999999023 ) ;
#104 = LINE ( 'NONE', #873, #652 ) ;
#105 = LINE ( 'NONE', #483, #512 ) ;
#106 = ORIENTED_EDGE ( 'NONE', *, *, #292, .F. ) ;
#107 = DIRECTION ( 'NONE',  ( -0.000000000000000000, -1.000000000000000000, -0.000000000000000000 ) ) ;
#108 = DIRECTION ( 'NONE',  ( 1.000000000000000000, 0.000000000000000000, 0.000000000000000000 ) ) ;
#109 = PLANE ( 'NONE',  #820 ) ;
#110 = CYLINDRICAL_SURFACE ( 'NONE', #995, 2.049999999999999822 ) ;
#111 = FACE_OUTER_BOUND ( 'NONE', #750, .T. ) ;
#112 = CARTESIAN_POINT ( 'NONE',  ( -30.34171337674251845, 0.000000000000000000, 1.500000000000101474 ) ) ;
#113 = VERTEX_POINT ( 'NONE', #616 ) ;
#114 = CARTESIAN_POINT ( 'NONE',  ( -94.00000000000000000, -160.3461478715776707, 249.1691337098909855 ) ) ;
#115 = ORIENTED_EDGE ( 'NONE', *, *, #569, .F. ) ;
#116 = ADVANCED_FACE ( 'NONE', ( #694 ), #868, .F. ) ;
#117 = ORIENTED_EDGE ( 'NONE', *, *, #233, .T. ) ;
#118 = ORIENTED_EDGE ( 'NONE', *, *, #911, .T. ) ;
#119 = CYLINDRICAL_SURFACE ( 'NONE', #258, 3.500000000000003109 ) ;
#120 = CIRCLE ( 'NONE', #273, 2.049999999999996270 ) ;
#121 = CIRCLE ( 'NONE', #432, 3.499999999999999556 ) ;
#122 = CARTESIAN_POINT ( 'NONE',  ( -86.50000000000000000, -160.3461478715776707, 75.00000000000009948 ) ) ;
#123 = CIRCLE ( 'NONE', #47, 3.499999999999999556 ) ;
#124 = VERTEX_POINT ( 'NONE', #933 ) ;
#125 = LINE ( 'NONE', #127, #704 ) ;
#126 = CARTESIAN_POINT ( 'NONE',  ( -26.00000000000002487, -284.4651112508298638, 75.00000000000009948 ) ) ;
#127 = CARTESIAN_POINT ( 'NONE',  ( -88.50000000000000000, -160.3461478715776707, 249.1691337098909855 ) ) ;
#128 = ORIENTED_EDGE ( 'NONE', *, *, #570, .T. ) ;
#129 = CYLINDRICAL_SURFACE ( 'NONE', #615, 3.499999999999999556 ) ;
#130 = EDGE_CURVE ( 'NONE', #904, #422, #13, .T. ) ;
#131 = VERTEX_POINT ( 'NONE', #714 ) ;
#132 = LINE ( 'NONE', #428, #451 ) ;
#133 = ORIENTED_EDGE ( 'NONE', *, *, #306, .T. ) ;
#134 = DIRECTION ( 'NONE',  ( 0.000000000000000000, 8.673617379884027583E-16, 1.000000000000000000 ) ) ;
#135 = DIRECTION ( 'NONE',  ( 0.000000000000000000, 1.000000000000000000, 0.000000000000000000 ) ) ;
#136 = ORIENTED_EDGE ( 'NONE', *, *, #312, .F. ) ;
#137 = VECTOR ( 'NONE', #386, 1000.000000000000000 ) ;
#138 = CLOSED_SHELL ( 'NONE', ( #740, #747, #902, #183, #582, #396, #12, #713, #782, #93, #885, #382, #617, #353, #34, #698, #602, #564, #480, #552, #680, #627, #412, #918, #799, #116, #735, #988, #447, #894, #641 ) ) ;
#139 = CARTESIAN_POINT ( 'NONE',  ( -88.50000000000000000, -160.3461478715776707, 4.448069231528961609 ) ) ;
#140 = CIRCLE ( 'NONE', #773, 1.000000000000000888 ) ;
#141 = AXIS2_PLACEMENT_3D ( 'NONE', #42, #52, #648 ) ;
#142 = AXIS2_PLACEMENT_3D ( 'NONE', #253, #165, #877 ) ;
#143 = VECTOR ( 'NONE', #802, 1000.000000000000000 ) ;
#144 = CYLINDRICAL_SURFACE ( 'NONE', #48, 3.500000000000003109 ) ;
#145 = ORIENTED_EDGE ( 'NONE', *, *, #969, .F. ) ;
#146 = CARTESIAN_POINT ( 'NONE',  ( -88.50000000000002842, -160.3461478715776707, 75.00000000000009948 ) ) ;
#147 = EDGE_CURVE ( 'NONE', #677, #895, #400, .T. ) ;
#148 = EDGE_CURVE ( 'NONE', #448, #387, #158, .T. ) ;
#149 = ORIENTED_EDGE ( 'NONE', *, *, #763, .T. ) ;
#150 = CARTESIAN_POINT ( 'NONE',  ( -94.00000000000000000, -1.000000000000001110, 74.00000000000014211 ) ) ;
#151 = CARTESIAN_POINT ( 'NONE',  ( -30.34171337674250779, 0.000000000000000000, 73.50000000000011369 ) ) ;
#152 = ORIENTED_EDGE ( 'NONE', *, *, #508, .T. ) ;
#153 = DIRECTION ( 'NONE',  ( 1.000000000000000000, 0.000000000000000000, 0.000000000000000000 ) ) ;
#154 = ORIENTED_EDGE ( 'NONE', *, *, #147, .F. ) ;
#155 = LINE ( 'NONE', #76, #739 ) ;
#156 = CARTESIAN_POINT ( 'NONE',  ( -89.75000000000001421, -155.3461478715776707, 12.15000000000018332 ) ) ;
#157 = DIRECTION ( 'NONE',  ( 0.000000000000000000, 1.000000000000000000, -0.000000000000000000 ) ) ;
#158 = CIRCLE ( 'NONE', #208, 2.050000000000003375 ) ;
#159 = ORIENTED_EDGE ( 'NONE', *, *, #570, .F. ) ;
#160 = DIRECTION ( 'NONE',  ( 0.000000000000000000, 1.000000000000000000, 0.000000000000000000 ) ) ;
#161 = DIRECTION ( 'NONE',  ( 1.000000000000000000, -0.000000000000000000, -0.000000000000000000 ) ) ;
#162 = DIRECTION ( 'NONE',  ( -0.000000000000000000, -0.000000000000000000, 1.000000000000000000 ) ) ;
#163 = ORIENTED_EDGE ( 'NONE', *, *, #63, .T. ) ;
#164 = EDGE_CURVE ( 'NONE', #365, #586, #777, .T. ) ;
#165 = DIRECTION ( 'NONE',  ( -0.000000000000000000, 1.000000000000000000, -0.000000000000000000 ) ) ;
#166 = EDGE_CURVE ( 'NONE', #551, #218, #541, .T. ) ;
#167 = EDGE_CURVE ( 'NONE', #255, #931, #484, .T. ) ;
#168 = DIRECTION ( 'NONE',  ( 1.000000000000000000, 0.000000000000000000, 0.000000000000000000 ) ) ;
#169 = CARTESIAN_POINT ( 'NONE',  ( -94.00000000000000000, -160.3461478715776707, 74.00000000000014211 ) ) ;
#170 = EDGE_LOOP ( 'NONE', ( #573, #600 ) ) ;
#171 = DIRECTION ( 'NONE',  ( 0.000000000000000000, 0.000000000000000000, 1.000000000000000000 ) ) ;
#172 = ORIENTED_EDGE ( 'NONE', *, *, #94, .F. ) ;
#173 = DIRECTION ( 'NONE',  ( 0.000000000000000000, 1.000000000000000000, 0.000000000000000000 ) ) ;
#174 = EDGE_LOOP ( 'NONE', ( #630, #390, #485, #987 ) ) ;
#175 = AXIS2_PLACEMENT_3D ( 'NONE', #305, #764, #683 ) ;
#176 = DIRECTION ( 'NONE',  ( -0.000000000000000000, 1.000000000000000000, -0.000000000000000000 ) ) ;
#177 = AXIS2_PLACEMENT_3D ( 'NONE', #819, #496, #826 ) ;
#178 = ORIENTED_EDGE ( 'NONE', *, *, #445, .F. ) ;
#179 = VECTOR ( 'NONE', #699, 1000.000000000000000 ) ;
#180 = CIRCLE ( 'NONE', #175, 2.149999999999999023 ) ;
#181 = CARTESIAN_POINT ( 'NONE',  ( -30.34171337674250779, 0.000000000000000000, 70.00000000000009948 ) ) ;
#182 = ORIENTED_EDGE ( 'NONE', *, *, #896, .F. ) ;
#183 = ADVANCED_FACE ( 'NONE', ( #460 ), #797, .F. ) ;
#184 = PLANE ( 'NONE',  #528 ) ;
#185 = ORIENTED_EDGE ( 'NONE', *, *, #664, .T. ) ;
#186 = FACE_BOUND ( 'NONE', #610, .T. ) ;
#187 = LINE ( 'NONE', #954, #377 ) ;
#188 = DIRECTION ( 'NONE',  ( 0.000000000000000000, -1.000000000000000000, 0.000000000000000000 ) ) ;
#189 = VERTEX_POINT ( 'NONE', #379 ) ;
#190 = FACE_OUTER_BOUND ( 'NONE', #653, .T. ) ;
#191 = ORIENTED_EDGE ( 'NONE', *, *, #6, .T. ) ;
#192 = AXIS2_PLACEMENT_3D ( 'NONE', #114, #883, #325 ) ;
#193 = CIRCLE ( 'NONE', #595, 1.000000000000000888 ) ;
#194 = APPLICATION_CONTEXT ( 'automotive_design' ) ;
#195 = AXIS2_PLACEMENT_3D ( 'NONE', #215, #504, #298 ) ;
#196 = DIRECTION ( 'NONE',  ( -1.000000000000000000, 0.000000000000000000, 0.000000000000000000 ) ) ;
#197 = DIRECTION ( 'NONE',  ( -0.000000000000000000, -0.000000000000000000, -1.000000000000000000 ) ) ;
#198 = VERTEX_POINT ( 'NONE', #2 ) ;
#199 = EDGE_CURVE ( 'NONE', #357, #811, #243, .T. ) ;
#200 = FACE_OUTER_BOUND ( 'NONE', #348, .T. ) ;
#201 = CARTESIAN_POINT ( 'NONE',  ( -30.34171337674251845, -4.000000000000000000, 2.950000000000101430 ) ) ;
#202 = ORIENTED_EDGE ( 'NONE', *, *, #519, .F. ) ;
#203 = DIRECTION ( 'NONE',  ( -0.000000000000000000, -1.000000000000000000, -0.000000000000000000 ) ) ;
#204 = DIRECTION ( 'NONE',  ( 0.000000000000000000, 1.000000000000000000, 0.000000000000000000 ) ) ;
#205 = AXIS2_PLACEMENT_3D ( 'NONE', #181, #474, #455 ) ;
#206 = VECTOR ( 'NONE', #197, 1000.000000000000000 ) ;
#207 = DIRECTION ( 'NONE',  ( 1.000000000000000000, -0.000000000000000000, -0.000000000000000000 ) ) ;
#208 = AXIS2_PLACEMENT_3D ( 'NONE', #608, #7, #88 ) ;
#209 = CARTESIAN_POINT ( 'NONE',  ( -89.75000000000001421, -155.3461478715776707, 10.00000000000018296 ) ) ;
#210 = CARTESIAN_POINT ( 'NONE',  ( -30.34171337674251845, -4.000000000000000000, 5.000000000000101252 ) ) ;
#211 = CARTESIAN_POINT ( 'NONE',  ( -93.00000000000000000, -284.4651112508298638, 75.00000000000011369 ) ) ;
#212 = ORIENTED_EDGE ( 'NONE', *, *, #343, .T. ) ;
#213 = DIRECTION ( 'NONE',  ( 0.000000000000000000, 0.000000000000000000, 1.000000000000000000 ) ) ;
#214 = ORIENTED_EDGE ( 'NONE', *, *, #717, .F. ) ;
#215 = CARTESIAN_POINT ( 'NONE',  ( -86.50000000000000000, -160.3461478715776707, 4.448069231528961609 ) ) ;
#216 = DIRECTION ( 'NONE',  ( -0.000000000000000000, 1.000000000000000000, -0.000000000000000000 ) ) ;
#217 = VERTEX_POINT ( 'NONE', #156 ) ;
#218 = VERTEX_POINT ( 'NONE', #507 ) ;
#219 = DIRECTION ( 'NONE',  ( 0.000000000000000000, 1.000000000000000000, 0.000000000000000000 ) ) ;
#220 = EDGE_CURVE ( 'NONE', #422, #454, #672, .T. ) ;
#221 = AXIS2_PLACEMENT_3D ( 'NONE', #384, #15, #153 ) ;
#222 = LINE ( 'NONE', #139, #66 ) ;
#223 = PRESENTATION_LAYER_ASSIGNMENT (  '', '', ( #775 ) ) ;
#224 = DIRECTION ( 'NONE',  ( 1.000000000000000000, 0.000000000000000000, 0.000000000000000000 ) ) ;
#225 = VECTOR ( 'NONE', #498, 1000.000000000000000 ) ;
#226 = CARTESIAN_POINT ( 'NONE',  ( -89.75000000000000000, -149.2650295533733527, 62.85000000000018616 ) ) ;
#227 = ORIENTED_EDGE ( 'NONE', *, *, #654, .F. ) ;
#228 = CARTESIAN_POINT ( 'NONE',  ( -88.50000000000000000, -155.3461478715776707, 75.00000000000009948 ) ) ;
#229 = DIRECTION ( 'NONE',  ( -9.049974844778400961E-17, 1.000000000000000000, -0.000000000000000000 ) ) ;
#230 = ORIENTED_EDGE ( 'NONE', *, *, #565, .F. ) ;
#231 = DIRECTION ( 'NONE',  ( -0.000000000000000000, -1.000000000000000000, 0.000000000000000000 ) ) ;
#232 = PRODUCT_DEFINITION_CONTEXT ( 'detailed design', #589, 'design' ) ;
#233 = EDGE_CURVE ( 'NONE', #517, #336, #72, .T. ) ;
#234 = DIRECTION ( 'NONE',  ( 0.000000000000000000, 1.000000000000000000, 0.000000000000000000 ) ) ;
#235 = CYLINDRICAL_SURFACE ( 'NONE', #791, 2.150000000000000799 ) ;
#236 = ORIENTED_EDGE ( 'NONE', *, *, #969, .T. ) ;
#237 = CARTESIAN_POINT ( 'NONE',  ( -30.34171337674251845, -160.3471478715776755, 2.950000000000101430 ) ) ;
#238 = VECTOR ( 'NONE', #721, 1000.000000000000000 ) ;
#239 = PRODUCT_CONTEXT ( 'NONE', #194, 'mechanical' ) ;
#240 = DIRECTION ( 'NONE',  ( -0.000000000000000000, -1.000000000000000000, -0.000000000000000000 ) ) ;
#241 = VECTOR ( 'NONE', #358, 1000.000000000000000 ) ;
#242 = CARTESIAN_POINT ( 'NONE',  ( -88.50000000000001421, -7.000000000000110134, 0.000000000000000000 ) ) ;
#243 = CIRCLE ( 'NONE', #378, 3.499999999999999556 ) ;
#244 = EDGE_CURVE ( 'NONE', #131, #904, #155, .T. ) ;
#245 = ORIENTED_EDGE ( 'NONE', *, *, #312, .T. ) ;
#246 = CYLINDRICAL_SURFACE ( 'NONE', #559, 1.000000000000000888 ) ;
#247 = CARTESIAN_POINT ( 'NONE',  ( -89.75000000000000000, -149.2650295533733527, 65.00000000000018474 ) ) ;
#248 = DIRECTION ( 'NONE',  ( -0.000000000000000000, -1.000000000000000000, -0.000000000000000000 ) ) ;
#249 = ORIENTED_EDGE ( 'NONE', *, *, #61, .F. ) ;
#250 = CARTESIAN_POINT ( 'NONE',  ( -93.00000000000000000, -1.000000000000000222, 249.1691337098909855 ) ) ;
#251 = DIRECTION ( 'NONE',  ( -1.000000000000000000, 0.000000000000000000, 0.000000000000000000 ) ) ;
#252 = EDGE_LOOP ( 'NONE', ( #558, #128, #117, #511, #374, #897, #707, #850 ) ) ;
#253 = CARTESIAN_POINT ( 'NONE',  ( -30.34171337674250779, -160.3471478715776755, 70.00000000000009948 ) ) ;
#254 = ORIENTED_EDGE ( 'NONE', *, *, #646, .T. ) ;
#255 = VERTEX_POINT ( 'NONE', #919 ) ;
#256 = CIRCLE ( 'NONE', #838, 2.049999999999999822 ) ;
#257 = FACE_OUTER_BOUND ( 'NONE', #323, .T. ) ;
#258 = AXIS2_PLACEMENT_3D ( 'NONE', #426, #355, #972 ) ;
#259 = VERTEX_POINT ( 'NONE', #843 ) ;
#260 = VECTOR ( 'NONE', #929, 1000.000000000000000 ) ;
#261 = PLANE ( 'NONE',  #18 ) ;
#262 = DIRECTION ( 'NONE',  ( 9.049974844778400961E-17, -1.000000000000000000, 0.000000000000000000 ) ) ;
#263 = FACE_OUTER_BOUND ( 'NONE', #787, .T. ) ;
#264 = VERTEX_POINT ( 'NONE', #151 ) ;
#265 = CARTESIAN_POINT ( 'NONE',  ( -86.50000000000000000, -160.3461478715776707, 4.448069231528961609 ) ) ;
#266 = ORIENTED_EDGE ( 'NONE', *, *, #269, .T. ) ;
#267 = CARTESIAN_POINT ( 'NONE',  ( -30.34171337674251845, -4.000000000000000000, 7.050000000000101075 ) ) ;
#268 = DIRECTION ( 'NONE',  ( -9.049974844778400961E-17, 1.000000000000000000, -0.000000000000000000 ) ) ;
#269 = EDGE_CURVE ( 'NONE', #131, #454, #989, .T. ) ;
#270 = VECTOR ( 'NONE', #162, 1000.000000000000000 ) ;
#271 = AXIS2_PLACEMENT_3D ( 'NONE', #346, #959, #815 ) ;
#272 = EDGE_CURVE ( 'NONE', #527, #259, #132, .T. ) ;
#273 = AXIS2_PLACEMENT_3D ( 'NONE', #881, #835, #572 ) ;
#274 = CARTESIAN_POINT ( 'NONE',  ( -30.34171337674250779, -160.3471478715776755, 72.05000000000009663 ) ) ;
#275 = EDGE_LOOP ( 'NONE', ( #795, #315, #685, #701 ) ) ;
#276 = ORIENTED_EDGE ( 'NONE', *, *, #763, .F. ) ;
#277 = EDGE_CURVE ( 'NONE', #354, #527, #362, .T. ) ;
#278 = CARTESIAN_POINT ( 'NONE',  ( -93.00000000000000000, -1.000000000000000222, 74.00000000000012790 ) ) ;
#279 = ORIENTED_EDGE ( 'NONE', *, *, #147, .T. ) ;
#280 = SURFACE_STYLE_USAGE ( .BOTH. , #651 ) ;
#281 = CARTESIAN_POINT ( 'NONE',  ( -30.34171337674251845, -160.3471478715776755, 5.000000000000101252 ) ) ;
#282 = EDGE_CURVE ( 'NONE', #811, #549, #518, .T. ) ;
#283 = VERTEX_POINT ( 'NONE', #295 ) ;
#284 = DIRECTION ( 'NONE',  ( 1.000000000000000000, 0.000000000000000000, 0.000000000000000000 ) ) ;
#285 = EDGE_CURVE ( 'NONE', #64, #336, #778, .T. ) ;
#286 = DIRECTION ( 'NONE',  ( 0.000000000000000000, 0.000000000000000000, 1.000000000000000000 ) ) ;
#287 = ORIENTED_EDGE ( 'NONE', *, *, #486, .T. ) ;
#288 = PRODUCT_DEFINITION_FORMATION_WITH_SPECIFIED_SOURCE ( 'ANY', '', #849, .NOT_KNOWN. ) ;
#289 = CARTESIAN_POINT ( 'NONE',  ( -30.34171337674251845, 0.000000000000000000, 5.000000000000101252 ) ) ;
#290 = CARTESIAN_POINT ( 'NONE',  ( -30.34171337674250779, -4.000000000000000000, 67.95000000000010232 ) ) ;
#291 = VECTOR ( 'NONE', #754, 1000.000000000000000 ) ;
#292 = EDGE_CURVE ( 'NONE', #336, #339, #824, .T. ) ;
#293 = CARTESIAN_POINT ( 'NONE',  ( -88.50000000000000000, -155.3461478715776707, 4.448069231528961609 ) ) ;
#294 = ORIENTED_EDGE ( 'NONE', *, *, #724, .F. ) ;
#295 = CARTESIAN_POINT ( 'NONE',  ( -88.50000000000000000, -155.3461478715776707, 11.74928556845376271 ) ) ;
#296 = LINE ( 'NONE', #891, #206 ) ;
#297 = ORIENTED_EDGE ( 'NONE', *, *, #486, .F. ) ;
#298 = DIRECTION ( 'NONE',  ( 1.000000000000000000, 0.000000000000000000, -0.000000000000000000 ) ) ;
#299 = ORIENTED_EDGE ( 'NONE', *, *, #272, .F. ) ;
#300 = LINE ( 'NONE', #678, #671 ) ;
#301 = CARTESIAN_POINT ( 'NONE',  ( -86.50000000000000000, -155.3461478715776707, 75.00000000000009948 ) ) ;
#302 = CIRCLE ( 'NONE', #922, 3.500000000000003109 ) ;
#303 = CARTESIAN_POINT ( 'NONE',  ( -26.00000000000000355, -7.000000000000117240, 249.1691337098909855 ) ) ;
#304 = AXIS2_PLACEMENT_3D ( 'NONE', #749, #490, #284 ) ;
#305 = CARTESIAN_POINT ( 'NONE',  ( -89.75000000000000000, -160.3461478715776707, 65.00000000000018474 ) ) ;
#306 = EDGE_CURVE ( 'NONE', #218, #283, #585, .T. ) ;
#307 = PLANE ( 'NONE',  #337 ) ;
#308 = CARTESIAN_POINT ( 'NONE',  ( -30.34171337674251845, -4.000000000000000000, 5.000000000000101252 ) ) ;
#309 = DIRECTION ( 'NONE',  ( 0.000000000000000000, 0.000000000000000000, 1.000000000000000000 ) ) ;
#310 = EDGE_LOOP ( 'NONE', ( #781, #101, #212, #846 ) ) ;
#311 = FACE_OUTER_BOUND ( 'NONE', #174, .T. ) ;
#312 = EDGE_CURVE ( 'NONE', #21, #551, #222, .T. ) ;
#313 = LINE ( 'NONE', #709, #996 ) ;
#314 = CARTESIAN_POINT ( 'NONE',  ( -89.75000000000000000, -149.2650295533733527, 65.00000000000018474 ) ) ;
#315 = ORIENTED_EDGE ( 'NONE', *, *, #468, .T. ) ;
#316 = CARTESIAN_POINT ( 'NONE',  ( -30.34171337674250779, -4.000000000000000000, 66.50000000000009948 ) ) ;
#317 = CIRCLE ( 'NONE', #221, 2.149999999999999023 ) ;
#318 = CIRCLE ( 'NONE', #177, 2.149999999999999023 ) ;
#319 = DIRECTION ( 'NONE',  ( 1.000000000000000000, 0.000000000000000000, -0.000000000000000000 ) ) ;
#320 = FACE_OUTER_BOUND ( 'NONE', #406, .T. ) ;
#321 = EDGE_LOOP ( 'NONE', ( #53, #4, #992, #402 ) ) ;
#322 = DIRECTION ( 'NONE',  ( -1.000000000000000000, 0.000000000000000000, 0.000000000000000000 ) ) ;
#323 = EDGE_LOOP ( 'NONE', ( #17, #439, #719, #385 ) ) ;
#324 = DIRECTION ( 'NONE',  ( -0.000000000000000000, 1.000000000000000000, -0.000000000000000000 ) ) ;
#325 = DIRECTION ( 'NONE',  ( 0.000000000000000000, 0.000000000000000000, -1.000000000000000000 ) ) ;
#326 = ORIENTED_EDGE ( 'NONE', *, *, #415, .T. ) ;
#327 = EDGE_CURVE ( 'NONE', #454, #113, #596, .T. ) ;
#328 = DIRECTION ( 'NONE',  ( -1.000000000000000000, -9.049974844778400961E-17, -0.000000000000000000 ) ) ;
#329 = EDGE_LOOP ( 'NONE', ( #556, #758 ) ) ;
#330 = LINE ( 'NONE', #957, #684 ) ;
#331 = EDGE_LOOP ( 'NONE', ( #214, #236, #477, #287, #878, #461 ) ) ;
#332 = DIRECTION ( 'NONE',  ( -0.000000000000000000, -0.000000000000000000, -1.000000000000000000 ) ) ;
#333 = DIRECTION ( 'NONE',  ( -1.000000000000000000, -9.049974844778400961E-17, -0.000000000000000000 ) ) ;
#334 =( GEOMETRIC_REPRESENTATION_CONTEXT ( 3 ) GLOBAL_UNCERTAINTY_ASSIGNED_CONTEXT ( ( #92 ) ) GLOBAL_UNIT_ASSIGNED_CONTEXT ( ( #834, #571, #817 ) ) REPRESENTATION_CONTEXT ( 'NONE', 'WORKASPACE' ) );
#335 = VECTOR ( 'NONE', #603, 1000.000000000000000 ) ;
#336 = VERTEX_POINT ( 'NONE', #435 ) ;
#337 = AXIS2_PLACEMENT_3D ( 'NONE', #303, #851, #597 ) ;
#338 = DIRECTION ( 'NONE',  ( 1.000000000000000000, -1.657049290485308122E-15, -1.246507886929443976E-16 ) ) ;
#339 = VERTEX_POINT ( 'NONE', #761 ) ;
#340 = CARTESIAN_POINT ( 'NONE',  ( -89.75000000000001421, -155.3461478715776707, 7.850000000000181721 ) ) ;
#341 = EDGE_CURVE ( 'NONE', #645, #398, #300, .T. ) ;
#342 = DIRECTION ( 'NONE',  ( -1.000000000000000000, -9.049974844778400961E-17, -0.000000000000000000 ) ) ;
#343 = EDGE_CURVE ( 'NONE', #86, #549, #123, .T. ) ;
#344 = EDGE_CURVE ( 'NONE', #189, #958, #440, .T. ) ;
#345 = EDGE_LOOP ( 'NONE', ( #727, #876, #860, #369 ) ) ;
#346 = CARTESIAN_POINT ( 'NONE',  ( -88.50000000000000000, -160.3461478715776707, 249.1691337098909855 ) ) ;
#347 = CARTESIAN_POINT ( 'NONE',  ( -86.50000000000000000, 1.809994968955680192E-16, 0.000000000000000000 ) ) ;
#348 = EDGE_LOOP ( 'NONE', ( #40, #185, #408, #900 ) ) ;
#349 = AXIS2_PLACEMENT_3D ( 'NONE', #977, #219, #67 ) ;
#350 = DIRECTION ( 'NONE',  ( -0.000000000000000000, -0.000000000000000000, -1.000000000000000000 ) ) ;
#351 = EDGE_LOOP ( 'NONE', ( #178, #326, #152, #172 ) ) ;
#352 = FACE_OUTER_BOUND ( 'NONE', #252, .T. ) ;
#353 = ADVANCED_FACE ( 'NONE', ( #993 ), #307, .F. ) ;
#354 = VERTEX_POINT ( 'NONE', #601 ) ;
#355 = DIRECTION ( 'NONE',  ( -0.000000000000000000, 1.000000000000000000, -0.000000000000000000 ) ) ;
#356 = DIRECTION ( 'NONE',  ( -1.000000000000000000, 0.000000000000000000, 0.000000000000000000 ) ) ;
#357 = VERTEX_POINT ( 'NONE', #932 ) ;
#358 = DIRECTION ( 'NONE',  ( -0.000000000000000000, 1.000000000000000000, -0.000000000000000000 ) ) ;
#359 = DIRECTION ( 'NONE',  ( -0.000000000000000000, 1.000000000000000000, -0.000000000000000000 ) ) ;
#360 = ORIENTED_EDGE ( 'NONE', *, *, #816, .F. ) ;
#361 = VECTOR ( 'NONE', #423, 1000.000000000000000 ) ;
#362 = LINE ( 'NONE', #228, #889 ) ;
#363 = EDGE_CURVE ( 'NONE', #131, #517, #903, .T. ) ;
#364 = DIRECTION ( 'NONE',  ( -0.000000000000000000, -1.000000000000000000, -0.000000000000000000 ) ) ;
#365 = VERTEX_POINT ( 'NONE', #290 ) ;
#366 = FACE_BOUND ( 'NONE', #170, .T. ) ;
#367 = VERTEX_POINT ( 'NONE', #581 ) ;
#368 = CARTESIAN_POINT ( 'NONE',  ( -93.00000000000000000, -1.000000000000000222, 0.000000000000000000 ) ) ;
#369 = ORIENTED_EDGE ( 'NONE', *, *, #745, .F. ) ;
#370 = FACE_OUTER_BOUND ( 'NONE', #752, .T. ) ;
#371 = ORIENTED_EDGE ( 'NONE', *, *, #654, .T. ) ;
#372 = CARTESIAN_POINT ( 'NONE',  ( -93.00000000000000000, -2.303749636087820433E-16, 249.1691337098909855 ) ) ;
#373 = CARTESIAN_POINT ( 'NONE',  ( -88.50000000000000000, -155.3461478715776707, 75.00000000000009948 ) ) ;
#374 = ORIENTED_EDGE ( 'NONE', *, *, #753, .F. ) ;
#375 = VECTOR ( 'NONE', #328, 1000.000000000000000 ) ;
#376 = DIRECTION ( 'NONE',  ( 0.000000000000000000, 0.000000000000000000, 1.000000000000000000 ) ) ;
#377 = VECTOR ( 'NONE', #410, 1000.000000000000000 ) ;
#378 = AXIS2_PLACEMENT_3D ( 'NONE', #308, #234, #525 ) ;
#379 = CARTESIAN_POINT ( 'NONE',  ( -86.50000000000000000, -155.3461478715776707, 4.448069231528961609 ) ) ;
#380 = DIRECTION ( 'NONE',  ( -0.000000000000000000, 1.000000000000000000, -0.000000000000000000 ) ) ;
#381 = EDGE_LOOP ( 'NONE', ( #827, #711 ) ) ;
#382 = ADVANCED_FACE ( 'NONE', ( #786 ), #942, .T. ) ;
#383 = DIRECTION ( 'NONE',  ( 1.000000000000000000, 0.000000000000000000, -0.000000000000000000 ) ) ;
#384 = CARTESIAN_POINT ( 'NONE',  ( -89.75000000000001421, -155.3461478715776707, 10.00000000000018296 ) ) ;
#385 = ORIENTED_EDGE ( 'NONE', *, *, #546, .T. ) ;
#386 = DIRECTION ( 'NONE',  ( -0.000000000000000000, 1.000000000000000000, -0.000000000000000000 ) ) ;
#387 = VERTEX_POINT ( 'NONE', #949 ) ;
#388 = DIRECTION ( 'NONE',  ( 0.000000000000000000, 0.000000000000000000, 1.000000000000000000 ) ) ;
#389 = PLANE ( 'NONE',  #741 ) ;
#390 = ORIENTED_EDGE ( 'NONE', *, *, #920, .T. ) ;
#391 = DIRECTION ( 'NONE',  ( 9.049974844778400961E-17, -1.000000000000000000, 0.000000000000000000 ) ) ;
#392 = VECTOR ( 'NONE', #628, 1000.000000000000000 ) ;
#393 =( GEOMETRIC_REPRESENTATION_CONTEXT ( 3 ) GLOBAL_UNCERTAINTY_ASSIGNED_CONTEXT ( ( #441 ) ) GLOBAL_UNIT_ASSIGNED_CONTEXT ( ( #733, #693, #607 ) ) REPRESENTATION_CONTEXT ( 'NONE', 'WORKASPACE' ) );
#394 = CARTESIAN_POINT ( 'NONE',  ( -88.50000000000000000, -155.3461478715776707, 75.00000000000009948 ) ) ;
#395 = CARTESIAN_POINT ( 'NONE',  ( -93.00000000000000000, -1.000000000000000222, 74.00000000000012790 ) ) ;
#396 = ADVANCED_FACE ( 'NONE', ( #311 ), #533, .F. ) ;
#397 = CIRCLE ( 'NONE', #634, 3.500000000000003109 ) ;
#398 = VERTEX_POINT ( 'NONE', #91 ) ;
#399 = DIRECTION ( 'NONE',  ( -1.000000000000000000, 0.000000000000000000, 0.000000000000000000 ) ) ;
#400 = LINE ( 'NONE', #95, #706 ) ;
#401 = DIRECTION ( 'NONE',  ( 0.000000000000000000, -1.000000000000000000, -4.607499272175655657E-17 ) ) ;
#402 = ORIENTED_EDGE ( 'NONE', *, *, #488, .F. ) ;
#403 = DIRECTION ( 'NONE',  ( 0.000000000000000000, 0.000000000000000000, 1.000000000000000000 ) ) ;
#404 = VERTEX_POINT ( 'NONE', #712 ) ;
#405 = CARTESIAN_POINT ( 'NONE',  ( -86.50000000000000000, -155.3461478715776707, 75.00000000000009948 ) ) ;
#406 = EDGE_LOOP ( 'NONE', ( #590, #501, #722, #279, #26, #75, #626 ) ) ;
#407 = DIRECTION ( 'NONE',  ( 0.000000000000000000, 1.000000000000000000, 4.607499272175655657E-17 ) ) ;
#408 = ORIENTED_EDGE ( 'NONE', *, *, #520, .T. ) ;
#409 = ORIENTED_EDGE ( 'NONE', *, *, #166, .F. ) ;
#410 = DIRECTION ( 'NONE',  ( -0.000000000000000000, -0.000000000000000000, -1.000000000000000000 ) ) ;
#411 = AXIS2_PLACEMENT_3D ( 'NONE', #247, #240, #858 ) ;
#412 = ADVANCED_FACE ( 'NONE', ( #801 ), #261, .F. ) ;
#413 = DIRECTION ( 'NONE',  ( -0.000000000000000000, 1.000000000000000000, -0.000000000000000000 ) ) ;
#414 = FACE_OUTER_BOUND ( 'NONE', #537, .T. ) ;
#415 = EDGE_CURVE ( 'NONE', #367, #198, #606, .T. ) ;
#416 = EDGE_CURVE ( 'NONE', #620, #670, #256, .T. ) ;
#417 = DIRECTION ( 'NONE',  ( 0.000000000000000000, 1.000000000000000000, 0.000000000000000000 ) ) ;
#418 = DIRECTION ( 'NONE',  ( 0.000000000000000000, 1.000000000000000000, -8.673617379884147885E-16 ) ) ;
#419 = CARTESIAN_POINT ( 'NONE',  ( -88.50000000000000000, -160.3461478715776707, 4.448069231528961609 ) ) ;
#420 = DIRECTION ( 'NONE',  ( -1.000000000000000000, 0.000000000000000000, 0.000000000000000000 ) ) ;
#421 = CIRCLE ( 'NONE', #669, 3.500000000000003109 ) ;
#422 = VERTEX_POINT ( 'NONE', #10 ) ;
#423 = DIRECTION ( 'NONE',  ( -0.000000000000000000, 1.000000000000000000, -0.000000000000000000 ) ) ;
#424 = FACE_OUTER_BOUND ( 'NONE', #804, .T. ) ;
#425 = ORIENTED_EDGE ( 'NONE', *, *, #854, .F. ) ;
#426 = CARTESIAN_POINT ( 'NONE',  ( -30.34171337674250779, -4.000000000000000000, 70.00000000000009948 ) ) ;
#427 = FACE_OUTER_BOUND ( 'NONE', #968, .T. ) ;
#428 = CARTESIAN_POINT ( 'NONE',  ( -88.50000000000000000, -155.3461478715776707, 75.00000000000009948 ) ) ;
#429 = FACE_OUTER_BOUND ( 'NONE', #331, .T. ) ;
#430 = CARTESIAN_POINT ( 'NONE',  ( -30.34171337674251845, 0.000000000000000000, 8.500000000000101252 ) ) ;
#431 = VECTOR ( 'NONE', #936, 1000.000000000000000 ) ;
#432 = AXIS2_PLACEMENT_3D ( 'NONE', #567, #893, #213 ) ;
#433 = VECTOR ( 'NONE', #452, 1000.000000000000000 ) ;
#434 = AXIS2_PLACEMENT_3D ( 'NONE', #250, #332, #399 ) ;
#435 = CARTESIAN_POINT ( 'NONE',  ( -93.00000000000000000, -160.3461478715776707, 75.00000000000009948 ) ) ;
#436 = AXIS2_PLACEMENT_3D ( 'NONE', #314, #248, #638 ) ;
#437 = EDGE_CURVE ( 'NONE', #958, #259, #953, .T. ) ;
#438 = LINE ( 'NONE', #373, #270 ) ;
#439 = ORIENTED_EDGE ( 'NONE', *, *, #539, .T. ) ;
#440 = LINE ( 'NONE', #908, #495 ) ;
#441 = UNCERTAINTY_MEASURE_WITH_UNIT (LENGTH_MEASURE( 1.000000000000000082E-05 ), #733, 'distance_accuracy_value', 'NONE');
#442 = PLANE ( 'NONE',  #871 ) ;
#443 = DIRECTION ( 'NONE',  ( -0.000000000000000000, -0.000000000000000000, 1.000000000000000000 ) ) ;
#444 = SHAPE_DEFINITION_REPRESENTATION ( #523, #624 ) ;
#445 = EDGE_CURVE ( 'NONE', #367, #864, #397, .T. ) ;
#446 = CARTESIAN_POINT ( 'NONE',  ( -30.34171337674250779, -160.3471478715776755, 70.00000000000009948 ) ) ;
#447 = ADVANCED_FACE ( 'NONE', ( #946 ), #246, .T. ) ;
#448 = VERTEX_POINT ( 'NONE', #464 ) ;
#449 = VECTOR ( 'NONE', #333, 1000.000000000000000 ) ;
#450 = DIRECTION ( 'NONE',  ( -1.000000000000000000, 1.657049290485307925E-15, 0.000000000000000000 ) ) ;
#451 = VECTOR ( 'NONE', #62, 1000.000000000000000 ) ;
#452 = DIRECTION ( 'NONE',  ( -0.000000000000000000, 1.000000000000000000, -0.000000000000000000 ) ) ;
#453 = DIRECTION ( 'NONE',  ( -0.000000000000000000, -1.000000000000000000, -0.000000000000000000 ) ) ;
#454 = VERTEX_POINT ( 'NONE', #633 ) ;
#455 = DIRECTION ( 'NONE',  ( 0.000000000000000000, 0.000000000000000000, 1.000000000000000000 ) ) ;
#456 = CARTESIAN_POINT ( 'NONE',  ( -26.00000000000000355, -1.112526774261244321E-13, 249.1691337098909855 ) ) ;
#457 = DIRECTION ( 'NONE',  ( -0.000000000000000000, -1.000000000000000000, -0.000000000000000000 ) ) ;
#458 = ORIENTED_EDGE ( 'NONE', *, *, #130, .T. ) ;
#459 = LINE ( 'NONE', #237, #137 ) ;
#460 = FACE_OUTER_BOUND ( 'NONE', #310, .T. ) ;
#461 = ORIENTED_EDGE ( 'NONE', *, *, #61, .T. ) ;
#462 = LINE ( 'NONE', #548, #756 ) ;
#463 = ORIENTED_EDGE ( 'NONE', *, *, #167, .F. ) ;
#464 = CARTESIAN_POINT ( 'NONE',  ( -30.34171337674251845, -7.000000000000117240, 7.050000000000101075 ) ) ;
#465 = VECTOR ( 'NONE', #135, 1000.000000000000000 ) ;
#466 = ORIENTED_EDGE ( 'NONE', *, *, #980, .T. ) ;
#467 = AXIS2_PLACEMENT_3D ( 'NONE', #395, #947, #251 ) ;
#468 = EDGE_CURVE ( 'NONE', #738, #765, #861, .T. ) ;
#469 = CARTESIAN_POINT ( 'NONE',  ( -30.34171337674250779, -4.000000000000000000, 70.00000000000009948 ) ) ;
#470 = CARTESIAN_POINT ( 'NONE',  ( -89.75000000000001421, -155.3461478715776707, 10.00000000000018296 ) ) ;
#471 = EDGE_CURVE ( 'NONE', #387, #49, #459, .T. ) ;
#472 = VECTOR ( 'NONE', #840, 1000.000000000000000 ) ;
#473 = ORIENTED_EDGE ( 'NONE', *, *, #437, .F. ) ;
#474 = DIRECTION ( 'NONE',  ( 0.000000000000000000, 1.000000000000000000, 0.000000000000000000 ) ) ;
#475 = ORIENTED_EDGE ( 'NONE', *, *, #836, .F. ) ;
#476 = LINE ( 'NONE', #169, #238 ) ;
#477 = ORIENTED_EDGE ( 'NONE', *, *, #814, .F. ) ;
#478 = DIRECTION ( 'NONE',  ( 0.000000000000000000, -0.000000000000000000, 1.000000000000000000 ) ) ;
#479 = CARTESIAN_POINT ( 'NONE',  ( -86.50000000000000000, -155.3461478715776707, 4.448069231528961609 ) ) ;
#480 = ADVANCED_FACE ( 'NONE', ( #186, #5 ), #109, .T. ) ;
#481 = CARTESIAN_POINT ( 'NONE',  ( -30.34171337674251845, -7.000000000000117240, 5.000000000000101252 ) ) ;
#482 = VECTOR ( 'NONE', #203, 1000.000000000000000 ) ;
#483 = CARTESIAN_POINT ( 'NONE',  ( -94.00000000000000000, -160.3461478715776707, 249.1691337098909855 ) ) ;
#484 = CIRCLE ( 'NONE', #687, 2.149999999999999023 ) ;
#485 = ORIENTED_EDGE ( 'NONE', *, *, #164, .T. ) ;
#486 = EDGE_CURVE ( 'NONE', #218, #882, #103, .T. ) ;
#487 = ORIENTED_EDGE ( 'NONE', *, *, #32, .T. ) ;
#488 = EDGE_CURVE ( 'NONE', #882, #913, #104, .T. ) ;
#489 = PLANE ( 'NONE',  #271 ) ;
#490 = DIRECTION ( 'NONE',  ( 9.049974844778400961E-17, -1.000000000000000000, 0.000000000000000000 ) ) ;
#491 = DIRECTION ( 'NONE',  ( 0.000000000000000000, -1.000000000000000000, 0.000000000000000000 ) ) ;
#492 = ORIENTED_EDGE ( 'NONE', *, *, #921, .T. ) ;
#493 = DIRECTION ( 'NONE',  ( 1.000000000000000000, 0.000000000000000000, -1.613696256722611948E-15 ) ) ;
#494 = LINE ( 'NONE', #916, #465 ) ;
#495 = VECTOR ( 'NONE', #682, 1000.000000000000000 ) ;
#496 = DIRECTION ( 'NONE',  ( 0.000000000000000000, -1.000000000000000000, 0.000000000000000000 ) ) ;
#497 = DIRECTION ( 'NONE',  ( -9.049974844778400961E-17, 1.000000000000000000, -0.000000000000000000 ) ) ;
#498 = DIRECTION ( 'NONE',  ( -1.000000000000000000, 1.657049290485308122E-15, 1.246507886929443976E-16 ) ) ;
#499 = ORIENTED_EDGE ( 'NONE', *, *, #94, .T. ) ;
#500 = CARTESIAN_POINT ( 'NONE',  ( -88.50000000000000000, -155.3461478715776707, 75.00000000000009948 ) ) ;
#501 = ORIENTED_EDGE ( 'NONE', *, *, #292, .T. ) ;
#502 = CARTESIAN_POINT ( 'NONE',  ( -94.00000000000000000, -160.3461478715776707, 0.000000000000000000 ) ) ;
#503 = ORIENTED_EDGE ( 'NONE', *, *, #546, .F. ) ;
#504 = DIRECTION ( 'NONE',  ( 0.000000000000000000, 0.000000000000000000, 1.000000000000000000 ) ) ;
#505 = ORIENTED_EDGE ( 'NONE', *, *, #814, .T. ) ;
#506 = EDGE_CURVE ( 'NONE', #264, #198, #737, .T. ) ;
#507 = CARTESIAN_POINT ( 'NONE',  ( -88.50000000000000000, -155.3461478715776707, 8.250714431546601446 ) ) ;
#508 = EDGE_CURVE ( 'NONE', #198, #264, #302, .T. ) ;
#509 = CARTESIAN_POINT ( 'NONE',  ( -26.00000000000002132, -1.000000000000111244, 74.00000000000009948 ) ) ;
#510 = VECTOR ( 'NONE', #784, 1000.000000000000000 ) ;
#511 = ORIENTED_EDGE ( 'NONE', *, *, #285, .F. ) ;
#512 = VECTOR ( 'NONE', #27, 1000.000000000000000 ) ;
#513 = AXIS2_PLACEMENT_3D ( 'NONE', #289, #580, #809 ) ;
#514 = DIRECTION ( 'NONE',  ( 0.000000000000000000, 0.000000000000000000, 1.000000000000000000 ) ) ;
#515 = AXIS2_PLACEMENT_3D ( 'NONE', #301, #593, #930 ) ;
#516 = CARTESIAN_POINT ( 'NONE',  ( -30.34171337674250779, -4.000000000000000000, 70.00000000000009948 ) ) ;
#517 = VERTEX_POINT ( 'NONE', #718 ) ;
#518 = LINE ( 'NONE', #524, #102 ) ;
#519 = EDGE_CURVE ( 'NONE', #398, #422, #29, .T. ) ;
#520 = EDGE_CURVE ( 'NONE', #696, #189, #494, .T. ) ;
#521 = CARTESIAN_POINT ( 'NONE',  ( -94.00000000000000000, -160.3461478715776707, 0.000000000000000000 ) ) ;
#522 = ORIENTED_EDGE ( 'NONE', *, *, #343, .F. ) ;
#523 = PRODUCT_DEFINITION_SHAPE ( 'NONE', 'NONE',  #813 ) ;
#524 = CARTESIAN_POINT ( 'NONE',  ( -30.34171337674251845, -4.000000000000000000, 8.500000000000101252 ) ) ;
#525 = DIRECTION ( 'NONE',  ( 0.000000000000000000, 0.000000000000000000, 1.000000000000000000 ) ) ;
#526 = DIRECTION ( 'NONE',  ( 0.000000000000000000, 0.000000000000000000, 1.000000000000000000 ) ) ;
#527 = VERTEX_POINT ( 'NONE', #37 ) ;
#528 = AXIS2_PLACEMENT_3D ( 'NONE', #405, #262, #869 ) ;
#529 = CARTESIAN_POINT ( 'NONE',  ( -30.34171337674250779, -4.000000000000000000, 70.00000000000009948 ) ) ;
#530 = DIRECTION ( 'NONE',  ( 0.000000000000000000, 0.000000000000000000, 1.000000000000000000 ) ) ;
#531 = DIRECTION ( 'NONE',  ( 0.000000000000000000, -0.000000000000000000, 1.000000000000000000 ) ) ;
#532 = ORIENTED_EDGE ( 'NONE', *, *, #921, .F. ) ;
#533 = CYLINDRICAL_SURFACE ( 'NONE', #142, 2.049999999999996270 ) ;
#534 = CARTESIAN_POINT ( 'NONE',  ( -89.75000000000000000, -155.3461478715776707, 65.00000000000018474 ) ) ;
#535 = ORIENTED_EDGE ( 'NONE', *, *, #6, .F. ) ;
#536 = CARTESIAN_POINT ( 'NONE',  ( -30.34171337674250779, -7.000000000000117240, 67.95000000000010232 ) ) ;
#537 = EDGE_LOOP ( 'NONE', ( #154, #915, #720, #971, #202, #923, #535 ) ) ;
#538 = DIRECTION ( 'NONE',  ( 0.000000000000000000, 1.000000000000000000, 0.000000000000000000 ) ) ;
#539 = EDGE_CURVE ( 'NONE', #387, #448, #886, .T. ) ;
#540 = ORIENTED_EDGE ( 'NONE', *, *, #344, .F. ) ;
#541 = LINE ( 'NONE', #394, #179 ) ;
#542 = DIRECTION ( 'NONE',  ( 0.000000000000000000, 0.000000000000000000, 1.000000000000000000 ) ) ;
#543 = ORIENTED_EDGE ( 'NONE', *, *, #745, .T. ) ;
#544 = DIRECTION ( 'NONE',  ( 0.000000000000000000, 0.000000000000000000, 1.000000000000000000 ) ) ;
#545 = AXIS2_PLACEMENT_3D ( 'NONE', #697, #867, #794 ) ;
#546 = EDGE_CURVE ( 'NONE', #31, #49, #45, .T. ) ;
#547 = CIRCLE ( 'NONE', #611, 2.049999999999999822 ) ;
#548 = CARTESIAN_POINT ( 'NONE',  ( -88.50000000000001421, -7.000000000000110134, 249.1691337098909855 ) ) ;
#549 = VERTEX_POINT ( 'NONE', #430 ) ;
#550 = CARTESIAN_POINT ( 'NONE',  ( -88.50000000000004263, -7.000000000000110134, 75.00000000000012790 ) ) ;
#551 = VERTEX_POINT ( 'NONE', #293 ) ;
#552 = ADVANCED_FACE ( 'NONE', ( #111 ), #144, .F. ) ;
#553 = DIRECTION ( 'NONE',  ( -1.110223024625156540E-16, -1.000000000000000000, 0.000000000000000000 ) ) ;
#554 = ORIENTED_EDGE ( 'NONE', *, *, #816, .T. ) ;
#555 = DIRECTION ( 'NONE',  ( -0.000000000000000000, 1.000000000000000000, -0.000000000000000000 ) ) ;
#556 = ORIENTED_EDGE ( 'NONE', *, *, #896, .T. ) ;
#557 = DIRECTION ( 'NONE',  ( -1.000000000000000000, 0.000000000000000000, 0.000000000000000000 ) ) ;
#558 = ORIENTED_EDGE ( 'NONE', *, *, #762, .F. ) ;
#559 = AXIS2_PLACEMENT_3D ( 'NONE', #857, #407, #544 ) ;
#560 = COLOUR_RGB ( '',0.7921568627450980005, 0.8196078431372548767, 0.9333333333333333481 ) ;
#561 = CARTESIAN_POINT ( 'NONE',  ( -88.50000000000001421, -7.000000000000110134, 75.00000000000012790 ) ) ;
#562 = VECTOR ( 'NONE', #443, 1000.000000000000000 ) ;
#563 = EDGE_LOOP ( 'NONE', ( #785, #975, #60, #11 ) ) ;
#564 = ADVANCED_FACE ( 'NONE', ( #825 ), #129, .F. ) ;
#565 = EDGE_CURVE ( 'NONE', #357, #86, #829, .T. ) ;
#566 = DIRECTION ( 'NONE',  ( -9.049974844778400961E-17, 1.000000000000000000, 0.000000000000000000 ) ) ;
#567 = CARTESIAN_POINT ( 'NONE',  ( -30.34171337674251845, -4.000000000000000000, 5.000000000000101252 ) ) ;
#568 = CARTESIAN_POINT ( 'NONE',  ( -89.75000000000001421, -160.3461478715776707, 10.00000000000018296 ) ) ;
#569 = EDGE_CURVE ( 'NONE', #586, #365, #120, .T. ) ;
#570 = EDGE_CURVE ( 'NONE', #662, #517, #905, .T. ) ;
#571 =( NAMED_UNIT ( * ) PLANE_ANGLE_UNIT ( ) SI_UNIT ( $, .RADIAN. ) );
#572 = DIRECTION ( 'NONE',  ( 0.000000000000000000, 0.000000000000000000, 1.000000000000000000 ) ) ;
#573 = ORIENTED_EDGE ( 'NONE', *, *, #506, .F. ) ;
#574 = ORIENTED_EDGE ( 'NONE', *, *, #830, .F. ) ;
#575 = PRESENTATION_STYLE_ASSIGNMENT (( #280 ) ) ;
#576 = DIRECTION ( 'NONE',  ( 0.000000000000000000, 0.000000000000000000, 1.000000000000000000 ) ) ;
#577 = AXIS2_PLACEMENT_3D ( 'NONE', #278, #350, #196 ) ;
#578 = ORIENTED_EDGE ( 'NONE', *, *, #415, .F. ) ;
#579 = VECTOR ( 'NONE', #450, 1000.000000000000000 ) ;
#580 = DIRECTION ( 'NONE',  ( 0.000000000000000000, 1.000000000000000000, 0.000000000000000000 ) ) ;
#581 = CARTESIAN_POINT ( 'NONE',  ( -30.34171337674250779, -4.000000000000000000, 66.50000000000009948 ) ) ;
#582 = ADVANCED_FACE ( 'NONE', ( #427 ), #588, .F. ) ;
#583 = LINE ( 'NONE', #502, #482 ) ;
#584 = FACE_OUTER_BOUND ( 'NONE', #770, .T. ) ;
#585 = LINE ( 'NONE', #500, #562 ) ;
#586 = VERTEX_POINT ( 'NONE', #730 ) ;
#587 = DIRECTION ( 'NONE',  ( 0.000000000000000000, 0.000000000000000000, 1.000000000000000000 ) ) ;
#588 = CYLINDRICAL_SURFACE ( 'NONE', #702, 2.049999999999999822 ) ;
#589 = APPLICATION_CONTEXT ( 'automotive_design' ) ;
#590 = ORIENTED_EDGE ( 'NONE', *, *, #285, .T. ) ;
#591 = CARTESIAN_POINT ( 'NONE',  ( -30.34171337674251845, 0.000000000000000000, 5.000000000000101252 ) ) ;
#592 = EDGE_LOOP ( 'NONE', ( #136, #118, #191, #998, #855, #299, #818, #632, #36, #409 ) ) ;
#593 = DIRECTION ( 'NONE',  ( 9.049974844778400961E-17, -1.000000000000000000, 0.000000000000000000 ) ) ;
#594 = ORIENTED_EDGE ( 'NONE', *, *, #269, .F. ) ;
#595 = AXIS2_PLACEMENT_3D ( 'NONE', #907, #207, #663 ) ;
#596 = CIRCLE ( 'NONE', #856, 1.000000000000000888 ) ;
#597 = DIRECTION ( 'NONE',  ( 0.000000000000000000, 0.000000000000000000, 1.000000000000000000 ) ) ;
#598 = AXIS2_PLACEMENT_3D ( 'NONE', #3, #229, #997 ) ;
#599 = CARTESIAN_POINT ( 'NONE',  ( -89.75000000000001421, -149.2650295533733527, 12.15000000000018332 ) ) ;
#600 = ORIENTED_EDGE ( 'NONE', *, *, #508, .F. ) ;
#601 = CARTESIAN_POINT ( 'NONE',  ( -88.50000000000000000, -155.3461478715776707, 63.25071443154659079 ) ) ;
#602 = ADVANCED_FACE ( 'NONE', ( #352 ), #751, .F. ) ;
#603 = DIRECTION ( 'NONE',  ( -0.000000000000000000, -0.000000000000000000, -1.000000000000000000 ) ) ;
#604 = LINE ( 'NONE', #853, #510 ) ;
#605 = ORIENTED_EDGE ( 'NONE', *, *, #363, .F. ) ;
#606 = LINE ( 'NONE', #316, #431 ) ;
#607 =( NAMED_UNIT ( * ) SI_UNIT ( $, .STERADIAN. ) SOLID_ANGLE_UNIT ( ) );
#608 = CARTESIAN_POINT ( 'NONE',  ( -30.34171337674251845, -7.000000000000117240, 5.000000000000101252 ) ) ;
#609 = CARTESIAN_POINT ( 'NONE',  ( -88.50000000000000000, -160.3461478715776707, 75.00000000000009948 ) ) ;
#610 = EDGE_LOOP ( 'NONE', ( #503, #360 ) ) ;
#611 = AXIS2_PLACEMENT_3D ( 'NONE', #789, #553, #557 ) ;
#612 = VECTOR ( 'NONE', #965, 1000.000000000000000 ) ;
#613 = DIRECTION ( 'NONE',  ( -1.110223024625156540E-16, -1.000000000000000000, 0.000000000000000000 ) ) ;
#614 = ORIENTED_EDGE ( 'NONE', *, *, #445, .T. ) ;
#615 = AXIS2_PLACEMENT_3D ( 'NONE', #210, #555, #576 ) ;
#616 = CARTESIAN_POINT ( 'NONE',  ( -94.00000000000000000, -1.000000000000001110, 0.000000000000000000 ) ) ;
#617 = ADVANCED_FACE ( 'NONE', ( #658, #366, #263 ), #983, .F. ) ;
#618 = LINE ( 'NONE', #226, #14 ) ;
#619 = PRODUCT_RELATED_PRODUCT_CATEGORY ( 'part', '', ( #849 ) ) ;
#620 = VERTEX_POINT ( 'NONE', #744 ) ;
#621 = CARTESIAN_POINT ( 'NONE',  ( -86.50000000000000000, -155.3461478715776707, 75.00000000000009948 ) ) ;
#622 = EDGE_LOOP ( 'NONE', ( #951, #734, #106, #990 ) ) ;
#623 = DIRECTION ( 'NONE',  ( 0.000000000000000000, 0.000000000000000000, 1.000000000000000000 ) ) ;
#624 = ADVANCED_BREP_SHAPE_REPRESENTATION ( 'Front Cover', ( #928, #793 ), #393 ) ;
#625 = FACE_OUTER_BOUND ( 'NONE', #629, .T. ) ;
#626 = ORIENTED_EDGE ( 'NONE', *, *, #664, .F. ) ;
#627 = ADVANCED_FACE ( 'NONE', ( #584 ), #912, .F. ) ;
#628 = DIRECTION ( 'NONE',  ( -1.000000000000000000, 1.110223024625156540E-16, 1.246507886929443236E-16 ) ) ;
#629 = EDGE_LOOP ( 'NONE', ( #945, #276, #463, #227 ) ) ;
#630 = ORIENTED_EDGE ( 'NONE', *, *, #416, .T. ) ;
#631 = LINE ( 'NONE', #265, #449 ) ;
#632 = ORIENTED_EDGE ( 'NONE', *, *, #646, .F. ) ;
#633 = CARTESIAN_POINT ( 'NONE',  ( -93.00000000000000000, -2.303749636087820433E-16, 0.000000000000000000 ) ) ;
#634 = AXIS2_PLACEMENT_3D ( 'NONE', #529, #538, #171 ) ;
#635 = ORIENTED_EDGE ( 'NONE', *, *, #130, .F. ) ;
#636 = AXIS2_PLACEMENT_3D ( 'NONE', #823, #364, #674 ) ;
#637 = VECTOR ( 'NONE', #984, 1000.000000000000000 ) ;
#638 = DIRECTION ( 'NONE',  ( 0.000000000000000000, 0.000000000000000000, -1.000000000000000000 ) ) ;
#639 = DIRECTION ( 'NONE',  ( -1.657049290485308122E-15, -1.000000000000000000, 0.000000000000000000 ) ) ;
#640 = ORIENTED_EDGE ( 'NONE', *, *, #854, .T. ) ;
#641 = ADVANCED_FACE ( 'NONE', ( #424 ), #33, .T. ) ;
#642 = PLANE ( 'NONE',  #192 ) ;
#643 = EDGE_LOOP ( 'NONE', ( #249, #774 ) ) ;
#644 = EDGE_CURVE ( 'NONE', #404, #913, #890, .T. ) ;
#645 = VERTEX_POINT ( 'NONE', #242 ) ;
#646 = EDGE_CURVE ( 'NONE', #283, #354, #438, .T. ) ;
#647 = CARTESIAN_POINT ( 'NONE',  ( -88.50000000000000000, -160.3461478715776707, 0.000000000000000000 ) ) ;
#648 = DIRECTION ( 'NONE',  ( -1.000000000000000000, 1.110223024625156540E-16, 0.000000000000000000 ) ) ;
#649 = VECTOR ( 'NONE', #457, 1000.000000000000000 ) ;
#650 = VECTOR ( 'NONE', #342, 1000.000000000000000 ) ;
#651 = SURFACE_SIDE_STYLE ('',( #976 ) ) ;
#652 = VECTOR ( 'NONE', #107, 1000.000000000000000 ) ;
#653 = EDGE_LOOP ( 'NONE', ( #726, #800, #605 ) ) ;
#654 = EDGE_CURVE ( 'NONE', #354, #255, #19, .T. ) ;
#655 = PLANE ( 'NONE',  #141 ) ;
#656 = CARTESIAN_POINT ( 'NONE',  ( -26.00000000000000355, -1.112526774261244321E-13, 74.00000000000009948 ) ) ;
#657 = ORIENTED_EDGE ( 'NONE', *, *, #82, .F. ) ;
#658 = FACE_BOUND ( 'NONE', #967, .T. ) ;
#659 = LINE ( 'NONE', #274, #241 ) ;
#660 = CARTESIAN_POINT ( 'NONE',  ( -30.34171337674250779, -160.3471478715776755, 67.95000000000010232 ) ) ;
#661 = DIRECTION ( 'NONE',  ( -1.110223024625156540E-16, -1.000000000000000000, 0.000000000000000000 ) ) ;
#662 = VERTEX_POINT ( 'NONE', #845 ) ;
#663 = DIRECTION ( 'NONE',  ( 0.000000000000000000, -8.673617379884027583E-16, 1.000000000000000000 ) ) ;
#664 = EDGE_CURVE ( 'NONE', #64, #696, #604, .T. ) ;
#665 = EDGE_CURVE ( 'NONE', #870, #124, #180, .T. ) ;
#666 = CARTESIAN_POINT ( 'NONE',  ( -86.50000000000000000, -155.3461478715776707, 75.00000000000009948 ) ) ;
#667 = VERTEX_POINT ( 'NONE', #150 ) ;
#668 = DIRECTION ( 'NONE',  ( -5.743284181788658855E-33, -1.000000000000000000, -4.607499272175655657E-17 ) ) ;
#669 = AXIS2_PLACEMENT_3D ( 'NONE', #469, #779, #852 ) ;
#670 = VERTEX_POINT ( 'NONE', #536 ) ;
#671 = VECTOR ( 'NONE', #69, 1000.000000000000000 ) ;
#672 = LINE ( 'NONE', #688, #579 ) ;
#673 = ORIENTED_EDGE ( 'NONE', *, *, #762, .T. ) ;
#674 = DIRECTION ( 'NONE',  ( 0.000000000000000000, 0.000000000000000000, -1.000000000000000000 ) ) ;
#675 = EDGE_CURVE ( 'NONE', #765, #259, #769, .T. ) ;
#676 = CARTESIAN_POINT ( 'NONE',  ( -30.34171337674251845, -4.000000000000000000, 1.500000000000101474 ) ) ;
#677 = VERTEX_POINT ( 'NONE', #521 ) ;
#678 = CARTESIAN_POINT ( 'NONE',  ( -88.50000000000001421, -7.000000000000110134, 0.000000000000000000 ) ) ;
#679 = FACE_OUTER_BOUND ( 'NONE', #563, .T. ) ;
#680 = ADVANCED_FACE ( 'NONE', ( #89, #70 ), #442, .T. ) ;
#681 = EDGE_LOOP ( 'NONE', ( #970, #614 ) ) ;
#682 = DIRECTION ( 'NONE',  ( -0.000000000000000000, -0.000000000000000000, 1.000000000000000000 ) ) ;
#683 = DIRECTION ( 'NONE',  ( 0.000000000000000000, 0.000000000000000000, -1.000000000000000000 ) ) ;
#684 = VECTOR ( 'NONE', #401, 1000.000000000000000 ) ;
#685 = ORIENTED_EDGE ( 'NONE', *, *, #831, .T. ) ;
#686 = AXIS2_PLACEMENT_3D ( 'NONE', #470, #729, #23 ) ;
#687 = AXIS2_PLACEMENT_3D ( 'NONE', #534, #863, #168 ) ;
#688 = CARTESIAN_POINT ( 'NONE',  ( -26.00000000000000355, -1.112526774261244321E-13, 0.000000000000000000 ) ) ;
#689 = LINE ( 'NONE', #788, #433 ) ;
#690 = CARTESIAN_POINT ( 'NONE',  ( -89.75000000000001421, -149.2650295533733527, 10.00000000000018296 ) ) ;
#691 = ORIENTED_EDGE ( 'NONE', *, *, #63, .F. ) ;
#692 = DIRECTION ( 'NONE',  ( 0.000000000000000000, 0.000000000000000000, -1.000000000000000000 ) ) ;
#693 =( NAMED_UNIT ( * ) PLANE_ANGLE_UNIT ( ) SI_UNIT ( $, .RADIAN. ) );
#694 = FACE_OUTER_BOUND ( 'NONE', #760, .T. ) ;
#695 = FACE_OUTER_BOUND ( 'NONE', #345, .T. ) ;
#696 = VERTEX_POINT ( 'NONE', #74 ) ;
#697 = CARTESIAN_POINT ( 'NONE',  ( -89.75000000000001421, -155.3461478715776707, 10.00000000000018296 ) ) ;
#698 = ADVANCED_FACE ( 'NONE', ( #934, #938, #320 ), #389, .F. ) ;
#699 = DIRECTION ( 'NONE',  ( -0.000000000000000000, -0.000000000000000000, 1.000000000000000000 ) ) ;
#700 = LINE ( 'NONE', #599, #649 ) ;
#701 = ORIENTED_EDGE ( 'NONE', *, *, #341, .T. ) ;
#702 = AXIS2_PLACEMENT_3D ( 'NONE', #281, #359, #986 ) ;
#703 = VECTOR ( 'NONE', #566, 1000.000000000000000 ) ;
#704 = VECTOR ( 'NONE', #828, 1000.000000000000000 ) ;
#705 = DIRECTION ( 'NONE',  ( 1.000000000000000000, 9.049974844778400961E-17, 0.000000000000000000 ) ) ;
#706 = VECTOR ( 'NONE', #161, 1000.000000000000000 ) ;
#707 = ORIENTED_EDGE ( 'NONE', *, *, #675, .F. ) ;
#708 = CIRCLE ( 'NONE', #79, 2.149999999999999023 ) ;
#709 = CARTESIAN_POINT ( 'NONE',  ( -89.75000000000000000, -149.2650295533733527, 67.15000000000017621 ) ) ;
#710 = CARTESIAN_POINT ( 'NONE',  ( -89.75000000000000000, -155.3461478715776707, 65.00000000000018474 ) ) ;
#711 = ORIENTED_EDGE ( 'NONE', *, *, #73, .F. ) ;
#712 = CARTESIAN_POINT ( 'NONE',  ( -89.75000000000001421, -160.3461478715776707, 12.15000000000018332 ) ) ;
#713 = ADVANCED_FACE ( 'NONE', ( #679 ), #80, .F. ) ;
#714 = CARTESIAN_POINT ( 'NONE',  ( -93.00000000000000000, -2.303749636087820433E-16, 74.00000000000012790 ) ) ;
#715 = CARTESIAN_POINT ( 'NONE',  ( -30.34171337674251845, -4.000000000000000000, 8.500000000000101252 ) ) ;
#716 = ORIENTED_EDGE ( 'NONE', *, *, #803, .T. ) ;
#717 = EDGE_CURVE ( 'NONE', #217, #404, #700, .T. ) ;
#718 = CARTESIAN_POINT ( 'NONE',  ( -93.00000000000000000, -1.000000000000000222, 75.00000000000012790 ) ) ;
#719 = ORIENTED_EDGE ( 'NONE', *, *, #41, .T. ) ;
#720 = ORIENTED_EDGE ( 'NONE', *, *, #327, .F. ) ;
#721 = DIRECTION ( 'NONE',  ( -0.000000000000000000, 1.000000000000000000, 4.607499272175655657E-17 ) ) ;
#722 = ORIENTED_EDGE ( 'NONE', *, *, #836, .T. ) ;
#723 = CARTESIAN_POINT ( 'NONE',  ( -25.99999999999955946, -1.000000000000111910, 75.00000000000011369 ) ) ;
#724 = EDGE_CURVE ( 'NONE', #882, #217, #317, .T. ) ;
#725 = CIRCLE ( 'NONE', #16, 2.149999999999999023 ) ;
#726 = ORIENTED_EDGE ( 'NONE', *, *, #32, .F. ) ;
#727 = ORIENTED_EDGE ( 'NONE', *, *, #167, .T. ) ;
#728 = AXIS2_PLACEMENT_3D ( 'NONE', #22, #324, #623 ) ;
#729 = DIRECTION ( 'NONE',  ( 9.049974844778400961E-17, -1.000000000000000000, 0.000000000000000000 ) ) ;
#730 = CARTESIAN_POINT ( 'NONE',  ( -30.34171337674250779, -4.000000000000000000, 72.05000000000009663 ) ) ;
#731 = PLANE ( 'NONE',  #776 ) ;
#732 = CARTESIAN_POINT ( 'NONE',  ( -30.34171337674251845, -160.3471478715776755, 7.050000000000101075 ) ) ;
#733 =( LENGTH_UNIT ( ) NAMED_UNIT ( * ) SI_UNIT ( .MILLI., .METRE. ) );
#734 = ORIENTED_EDGE ( 'NONE', *, *, #803, .F. ) ;
#735 = ADVANCED_FACE ( 'NONE', ( #370 ), #991, .T. ) ;
#736 = FACE_BOUND ( 'NONE', #981, .T. ) ;
#737 = CIRCLE ( 'NONE', #205, 3.500000000000003109 ) ;
#738 = VERTEX_POINT ( 'NONE', #848 ) ;
#739 = VECTOR ( 'NONE', #837, 1000.000000000000000 ) ;
#740 = ADVANCED_FACE ( 'NONE', ( #772 ), #235, .F. ) ;
#741 = AXIS2_PLACEMENT_3D ( 'NONE', #859, #157, #309 ) ;
#742 = FACE_OUTER_BOUND ( 'NONE', #275, .T. ) ;
#743 = ORIENTED_EDGE ( 'NONE', *, *, #41, .F. ) ;
#744 = CARTESIAN_POINT ( 'NONE',  ( -30.34171337674250779, -7.000000000000117240, 72.05000000000009663 ) ) ;
#745 = EDGE_CURVE ( 'NONE', #255, #870, #618, .T. ) ;
#746 = LINE ( 'NONE', #888, #703 ) ;
#747 = ADVANCED_FACE ( 'NONE', ( #695 ), #8, .F. ) ;
#748 = ORIENTED_EDGE ( 'NONE', *, *, #166, .T. ) ;
#749 = CARTESIAN_POINT ( 'NONE',  ( -89.75000000000000000, -155.3461478715776707, 65.00000000000018474 ) ) ;
#750 = EDGE_LOOP ( 'NONE', ( #578, #880, #499, #28 ) ) ;
#751 = PLANE ( 'NONE',  #842 ) ;
#752 = EDGE_LOOP ( 'NONE', ( #133, #145, #294, #297 ) ) ;
#753 = EDGE_CURVE ( 'NONE', #958, #64, #30, .T. ) ;
#754 = DIRECTION ( 'NONE',  ( -0.000000000000000000, -0.000000000000000000, -1.000000000000000000 ) ) ;
#755 = PLANE ( 'NONE',  #872 ) ;
#756 = VECTOR ( 'NONE', #798, 1000.000000000000000 ) ;
#757 = CIRCLE ( 'NONE', #964, 2.150000000000000799 ) ;
#758 = ORIENTED_EDGE ( 'NONE', *, *, #199, .T. ) ;
#759 = DIRECTION ( 'NONE',  ( 1.000000000000000000, -1.657049290485308122E-15, 0.000000000000000000 ) ) ;
#760 = EDGE_LOOP ( 'NONE', ( #806, #149, #532, #371, #543, #956 ) ) ;
#761 = CARTESIAN_POINT ( 'NONE',  ( -94.00000000000000000, -160.3461478715776707, 74.00000000000012790 ) ) ;
#762 = EDGE_CURVE ( 'NONE', #662, #738, #330, .T. ) ;
#763 = EDGE_CURVE ( 'NONE', #931, #527, #708, .T. ) ;
#764 = DIRECTION ( 'NONE',  ( 0.000000000000000000, -1.000000000000000000, 0.000000000000000000 ) ) ;
#765 = VERTEX_POINT ( 'NONE', #561 ) ;
#766 = DIRECTION ( 'NONE',  ( 0.000000000000000000, 1.000000000000000000, 0.000000000000000000 ) ) ;
#767 = APPLICATION_PROTOCOL_DEFINITION ( 'draft international standard', 'automotive_design', 1998, #589 ) ;
#768 = EDGE_CURVE ( 'NONE', #696, #21, #631, .T. ) ;
#769 = LINE ( 'NONE', #609, #96 ) ;
#770 = EDGE_LOOP ( 'NONE', ( #245, #425, #68, #906 ) ) ;
#771 = DIRECTION ( 'NONE',  ( 0.000000000000000000, 1.000000000000000000, 0.000000000000000000 ) ) ;
#772 = FACE_OUTER_BOUND ( 'NONE', #321, .T. ) ;
#773 = AXIS2_PLACEMENT_3D ( 'NONE', #50, #418, #134 ) ;
#774 = ORIENTED_EDGE ( 'NONE', *, *, #644, .F. ) ;
#775 = STYLED_ITEM ( 'NONE', ( #575 ), #928 ) ;
#776 = AXIS2_PLACEMENT_3D ( 'NONE', #38, #530, #319 ) ;
#777 = CIRCLE ( 'NONE', #874, 2.049999999999996270 ) ;
#778 = LINE ( 'NONE', #146, #260 ) ;
#779 = DIRECTION ( 'NONE',  ( 0.000000000000000000, 1.000000000000000000, 0.000000000000000000 ) ) ;
#780 = DIRECTION ( 'NONE',  ( -0.000000000000000000, -1.000000000000000000, -0.000000000000000000 ) ) ;
#781 = ORIENTED_EDGE ( 'NONE', *, *, #199, .F. ) ;
#782 = ADVANCED_FACE ( 'NONE', ( #257 ), #110, .F. ) ;
#783 = DIRECTION ( 'NONE',  ( 0.000000000000000000, 1.000000000000000000, 0.000000000000000000 ) ) ;
#784 = DIRECTION ( 'NONE',  ( 0.000000000000000000, 0.000000000000000000, -1.000000000000000000 ) ) ;
#785 = ORIENTED_EDGE ( 'NONE', *, *, #920, .F. ) ;
#786 = FACE_OUTER_BOUND ( 'NONE', #832, .T. ) ;
#787 = EDGE_LOOP ( 'NONE', ( #594, #90, #458, #58 ) ) ;
#788 = CARTESIAN_POINT ( 'NONE',  ( -30.34171337674250779, -4.000000000000000000, 73.50000000000011369 ) ) ;
#789 = CARTESIAN_POINT ( 'NONE',  ( -30.34171337674250779, -7.000000000000117240, 70.00000000000009948 ) ) ;
#790 = ORIENTED_EDGE ( 'NONE', *, *, #999, .F. ) ;
#791 = AXIS2_PLACEMENT_3D ( 'NONE', #690, #453, #924 ) ;
#792 = CIRCLE ( 'NONE', #577, 1.000000000000000888 ) ;
#793 = AXIS2_PLACEMENT_3D ( 'NONE', #78, #587, #224 ) ;
#794 = DIRECTION ( 'NONE',  ( 1.000000000000000000, 0.000000000000000000, 8.068481283613059739E-16 ) ) ;
#795 = ORIENTED_EDGE ( 'NONE', *, *, #812, .F. ) ;
#796 = AXIS2_PLACEMENT_3D ( 'NONE', #481, #661, #356 ) ;
#797 = CYLINDRICAL_SURFACE ( 'NONE', #728, 3.499999999999999556 ) ;
#798 = DIRECTION ( 'NONE',  ( -0.000000000000000000, -0.000000000000000000, -1.000000000000000000 ) ) ;
#799 = ADVANCED_FACE ( 'NONE', ( #625 ), #184, .T. ) ;
#800 = ORIENTED_EDGE ( 'NONE', *, *, #985, .T. ) ;
#801 = FACE_OUTER_BOUND ( 'NONE', #926, .T. ) ;
#802 = DIRECTION ( 'NONE',  ( -0.000000000000000000, -1.000000000000000000, -0.000000000000000000 ) ) ;
#803 = EDGE_CURVE ( 'NONE', #339, #667, #476, .T. ) ;
#804 = EDGE_LOOP ( 'NONE', ( #935, #159, #691, #948 ) ) ;
#805 = CARTESIAN_POINT ( 'NONE',  ( -30.34171337674250779, 0.000000000000000000, 70.00000000000009948 ) ) ;
#806 = ORIENTED_EDGE ( 'NONE', *, *, #100, .F. ) ;
#807 = CARTESIAN_POINT ( 'NONE',  ( -30.34171337674251845, -4.000000000000000000, 5.000000000000101252 ) ) ;
#808 = CARTESIAN_POINT ( 'NONE',  ( -30.34171337674250779, -4.000000000000000000, 70.00000000000009948 ) ) ;
#809 = DIRECTION ( 'NONE',  ( 0.000000000000000000, 0.000000000000000000, 1.000000000000000000 ) ) ;
#810 = FACE_OUTER_BOUND ( 'NONE', #917, .T. ) ;
#811 = VERTEX_POINT ( 'NONE', #715 ) ;
#812 = EDGE_CURVE ( 'NONE', #738, #398, #187, .T. ) ;
#813 = PRODUCT_DEFINITION ( 'UNKNOWN', '', #288, #232 ) ;
#814 = EDGE_CURVE ( 'NONE', #218, #283, #99, .T. ) ;
#815 = DIRECTION ( 'NONE',  ( 9.049974844778402193E-17, -1.000000000000000000, 0.000000000000000000 ) ) ;
#816 = EDGE_CURVE ( 'NONE', #49, #31, #939, .T. ) ;
#817 =( NAMED_UNIT ( * ) SI_UNIT ( $, .STERADIAN. ) SOLID_ANGLE_UNIT ( ) );
#818 = ORIENTED_EDGE ( 'NONE', *, *, #277, .F. ) ;
#819 = CARTESIAN_POINT ( 'NONE',  ( -89.75000000000000000, -160.3461478715776707, 65.00000000000018474 ) ) ;
#820 = AXIS2_PLACEMENT_3D ( 'NONE', #87, #160, #478 ) ;
#821 = ORIENTED_EDGE ( 'NONE', *, *, #282, .T. ) ;
#822 = CIRCLE ( 'NONE', #304, 2.149999999999999023 ) ;
#823 = CARTESIAN_POINT ( 'NONE',  ( -89.75000000000001421, -149.2650295533733527, 10.00000000000018296 ) ) ;
#824 = CIRCLE ( 'NONE', #925, 1.000000000000000888 ) ;
#825 = FACE_OUTER_BOUND ( 'NONE', #940, .T. ) ;
#826 = DIRECTION ( 'NONE',  ( 0.000000000000000000, 0.000000000000000000, -1.000000000000000000 ) ) ;
#827 = ORIENTED_EDGE ( 'NONE', *, *, #665, .F. ) ;
#828 = DIRECTION ( 'NONE',  ( -0.000000000000000000, -0.000000000000000000, -1.000000000000000000 ) ) ;
#829 = LINE ( 'NONE', #676, #472 ) ;
#830 = EDGE_CURVE ( 'NONE', #670, #620, #547, .T. ) ;
#831 = EDGE_CURVE ( 'NONE', #765, #645, #462, .T. ) ;
#832 = EDGE_LOOP ( 'NONE', ( #790, #487, #266, #71 ) ) ;
#833 = DIRECTION ( 'NONE',  ( 1.000000000000000000, 0.000000000000000000, 0.000000000000000000 ) ) ;
#834 =( LENGTH_UNIT ( ) NAMED_UNIT ( * ) SI_UNIT ( .MILLI., .METRE. ) );
#835 = DIRECTION ( 'NONE',  ( 0.000000000000000000, 1.000000000000000000, 0.000000000000000000 ) ) ;
#836 = EDGE_CURVE ( 'NONE', #339, #677, #105, .T. ) ;
#837 = DIRECTION ( 'NONE',  ( 1.000000000000000000, -1.657049290485308122E-15, -1.246507886929443976E-16 ) ) ;
#838 = AXIS2_PLACEMENT_3D ( 'NONE', #20, #613, #322 ) ;
#839 = MECHANICAL_DESIGN_GEOMETRIC_PRESENTATION_REPRESENTATION (  '', ( #775 ), #334 ) ;
#840 = DIRECTION ( 'NONE',  ( -0.000000000000000000, 1.000000000000000000, -0.000000000000000000 ) ) ;
#841 = ORIENTED_EDGE ( 'NONE', *, *, #82, .T. ) ;
#842 = AXIS2_PLACEMENT_3D ( 'NONE', #126, #59, #668 ) ;
#843 = CARTESIAN_POINT ( 'NONE',  ( -88.50000000000000000, -155.3461478715776707, 75.00000000000009948 ) ) ;
#844 = APPLICATION_PROTOCOL_DEFINITION ( 'draft international standard', 'automotive_design', 1998, #194 ) ;
#845 = CARTESIAN_POINT ( 'NONE',  ( -26.00000000000000355, -1.000000000000111022, 75.00000000000009948 ) ) ;
#846 = ORIENTED_EDGE ( 'NONE', *, *, #282, .F. ) ;
#847 = DIRECTION ( 'NONE',  ( 0.000000000000000000, 0.000000000000000000, 1.000000000000000000 ) ) ;
#848 = CARTESIAN_POINT ( 'NONE',  ( -26.00000000000000355, -7.000000000000117240, 75.00000000000009948 ) ) ;
#849 = PRODUCT ( 'Front Cover', 'Front Cover', '', ( #239 ) ) ;
#850 = ORIENTED_EDGE ( 'NONE', *, *, #468, .F. ) ;
#851 = DIRECTION ( 'NONE',  ( -1.000000000000000000, 0.000000000000000000, 0.000000000000000000 ) ) ;
#852 = DIRECTION ( 'NONE',  ( 0.000000000000000000, 0.000000000000000000, 1.000000000000000000 ) ) ;
#853 = CARTESIAN_POINT ( 'NONE',  ( -86.50000000000000000, -160.3461478715776707, 75.00000000000009948 ) ) ;
#854 = EDGE_CURVE ( 'NONE', #189, #551, #879, .T. ) ;
#855 = ORIENTED_EDGE ( 'NONE', *, *, #675, .T. ) ;
#856 = AXIS2_PLACEMENT_3D ( 'NONE', #368, #847, #833 ) ;
#857 = CARTESIAN_POINT ( 'NONE',  ( -93.00000000000000000, -160.3461478715776707, 74.00000000000012790 ) ) ;
#858 = DIRECTION ( 'NONE',  ( 0.000000000000000000, 0.000000000000000000, -1.000000000000000000 ) ) ;
#859 = CARTESIAN_POINT ( 'NONE',  ( -88.50000000000000000, -160.3461478715776707, 249.1691337098909855 ) ) ;
#860 = ORIENTED_EDGE ( 'NONE', *, *, #73, .T. ) ;
#861 = LINE ( 'NONE', #550, #392 ) ;
#862 = ORIENTED_EDGE ( 'NONE', *, *, #471, .T. ) ;
#863 = DIRECTION ( 'NONE',  ( -9.049974844778400961E-17, 1.000000000000000000, -0.000000000000000000 ) ) ;
#864 = VERTEX_POINT ( 'NONE', #35 ) ;
#865 = DIRECTION ( 'NONE',  ( 9.049974844778402193E-17, -1.000000000000000000, -4.607499272175656889E-17 ) ) ;
#866 = ORIENTED_EDGE ( 'NONE', *, *, #164, .F. ) ;
#867 = DIRECTION ( 'NONE',  ( -9.049974844778400961E-17, 1.000000000000000000, -0.000000000000000000 ) ) ;
#868 = CYLINDRICAL_SURFACE ( 'NONE', #411, 2.149999999999999023 ) ;
#869 = DIRECTION ( 'NONE',  ( 1.000000000000000000, 9.049974844778400961E-17, 0.000000000000000000 ) ) ;
#870 = VERTEX_POINT ( 'NONE', #97 ) ;
#871 = AXIS2_PLACEMENT_3D ( 'NONE', #516, #944, #531 ) ;
#872 = AXIS2_PLACEMENT_3D ( 'NONE', #347, #420, #910 ) ;
#873 = CARTESIAN_POINT ( 'NONE',  ( -89.75000000000001421, -149.2650295533733527, 7.850000000000181721 ) ) ;
#874 = AXIS2_PLACEMENT_3D ( 'NONE', #937, #173, #388 ) ;
#875 = DIRECTION ( 'NONE',  ( 0.000000000000000000, 0.000000000000000000, 1.000000000000000000 ) ) ;
#876 = ORIENTED_EDGE ( 'NONE', *, *, #100, .T. ) ;
#877 = DIRECTION ( 'NONE',  ( 0.000000000000000000, 0.000000000000000000, 1.000000000000000000 ) ) ;
#878 = ORIENTED_EDGE ( 'NONE', *, *, #488, .T. ) ;
#879 = LINE ( 'NONE', #479, #650 ) ;
#880 = ORIENTED_EDGE ( 'NONE', *, *, #98, .F. ) ;
#881 = CARTESIAN_POINT ( 'NONE',  ( -30.34171337674250779, -4.000000000000000000, 70.00000000000009948 ) ) ;
#882 = VERTEX_POINT ( 'NONE', #340 ) ;
#883 = DIRECTION ( 'NONE',  ( 1.000000000000000000, 0.000000000000000000, 0.000000000000000000 ) ) ;
#884 = ORIENTED_EDGE ( 'NONE', *, *, #272, .T. ) ;
#885 = ADVANCED_FACE ( 'NONE', ( #810 ), #642, .F. ) ;
#886 = CIRCLE ( 'NONE', #796, 2.050000000000003375 ) ;
#887 = CIRCLE ( 'NONE', #513, 3.499999999999999556 ) ;
#888 = CARTESIAN_POINT ( 'NONE',  ( -88.50000000000000000, -160.3461478715776707, 0.000000000000000000 ) ) ;
#889 = VECTOR ( 'NONE', #914, 1000.000000000000000 ) ;
#890 = CIRCLE ( 'NONE', #927, 2.150000000000000799 ) ;
#891 = CARTESIAN_POINT ( 'NONE',  ( -94.00000000000000000, -1.000000000000001110, 249.1691337098909855 ) ) ;
#892 = FACE_OUTER_BOUND ( 'NONE', #592, .T. ) ;
#893 = DIRECTION ( 'NONE',  ( 0.000000000000000000, 1.000000000000000000, 0.000000000000000000 ) ) ;
#894 = ADVANCED_FACE ( 'NONE', ( #190 ), #960, .T. ) ;
#895 = VERTEX_POINT ( 'NONE', #647 ) ;
#896 = EDGE_CURVE ( 'NONE', #811, #357, #121, .T. ) ;
#897 = ORIENTED_EDGE ( 'NONE', *, *, #437, .T. ) ;
#898 = CARTESIAN_POINT ( 'NONE',  ( -26.00000000000000355, -7.000000000000117240, 0.000000000000000000 ) ) ;
#899 = DIRECTION ( 'NONE',  ( 0.000000000000000000, 0.000000000000000000, -1.000000000000000000 ) ) ;
#900 = ORIENTED_EDGE ( 'NONE', *, *, #344, .T. ) ;
#901 = CARTESIAN_POINT ( 'NONE',  ( -89.75000000000000000, -155.3461478715776707, 67.15000000000017621 ) ) ;
#902 = ADVANCED_FACE ( 'NONE', ( #44 ), #119, .F. ) ;
#903 = CIRCLE ( 'NONE', #941, 1.000000000000000888 ) ;
#904 = VERTEX_POINT ( 'NONE', #656 ) ;
#905 = LINE ( 'NONE', #723, #225 ) ;
#906 = ORIENTED_EDGE ( 'NONE', *, *, #768, .T. ) ;
#907 = CARTESIAN_POINT ( 'NONE',  ( -26.00000000000000355, -1.000000000000111244, 74.00000000000009948 ) ) ;
#908 = CARTESIAN_POINT ( 'NONE',  ( -86.50000000000000000, -155.3461478715776707, 75.00000000000009948 ) ) ;
#909 = ORIENTED_EDGE ( 'NONE', *, *, #148, .T. ) ;
#910 = DIRECTION ( 'NONE',  ( 0.000000000000000000, 0.000000000000000000, 1.000000000000000000 ) ) ;
#911 = EDGE_CURVE ( 'NONE', #21, #895, #125, .T. ) ;
#912 = PLANE ( 'NONE',  #195 ) ;
#913 = VERTEX_POINT ( 'NONE', #966 ) ;
#914 = DIRECTION ( 'NONE',  ( -0.000000000000000000, -0.000000000000000000, 1.000000000000000000 ) ) ;
#915 = ORIENTED_EDGE ( 'NONE', *, *, #980, .F. ) ;
#916 = CARTESIAN_POINT ( 'NONE',  ( -86.50000000000000000, -160.3461478715776707, 4.448069231528961609 ) ) ;
#917 = EDGE_LOOP ( 'NONE', ( #475, #716, #943, #466 ) ) ;
#918 = ADVANCED_FACE ( 'NONE', ( #200 ), #755, .F. ) ;
#919 = CARTESIAN_POINT ( 'NONE',  ( -89.75000000000000000, -155.3461478715776707, 62.85000000000018616 ) ) ;
#920 = EDGE_CURVE ( 'NONE', #670, #365, #54, .T. ) ;
#921 = EDGE_CURVE ( 'NONE', #354, #527, #822, .T. ) ;
#922 = AXIS2_PLACEMENT_3D ( 'NONE', #805, #783, #403 ) ;
#923 = ORIENTED_EDGE ( 'NONE', *, *, #341, .F. ) ;
#924 = DIRECTION ( 'NONE',  ( 0.000000000000000000, 0.000000000000000000, -1.000000000000000000 ) ) ;
#925 = AXIS2_PLACEMENT_3D ( 'NONE', #1, #231, #376 ) ;
#926 = EDGE_LOOP ( 'NONE', ( #748, #505, #254, #492, #884, #473, #540, #640 ) ) ;
#927 = AXIS2_PLACEMENT_3D ( 'NONE', #955, #188, #85 ) ;
#928 = MANIFOLD_SOLID_BREP ( 'Fillet1', #138 ) ;
#929 = DIRECTION ( 'NONE',  ( -1.000000000000000000, 0.000000000000000000, 1.246507886929443236E-16 ) ) ;
#930 = DIRECTION ( 'NONE',  ( 1.000000000000000000, 9.049974844778400961E-17, 0.000000000000000000 ) ) ;
#931 = VERTEX_POINT ( 'NONE', #901 ) ;
#932 = CARTESIAN_POINT ( 'NONE',  ( -30.34171337674251845, -4.000000000000000000, 1.500000000000101474 ) ) ;
#933 = CARTESIAN_POINT ( 'NONE',  ( -89.75000000000000000, -160.3461478715776707, 67.15000000000017621 ) ) ;
#934 = FACE_BOUND ( 'NONE', #643, .T. ) ;
#935 = ORIENTED_EDGE ( 'NONE', *, *, #363, .T. ) ;
#936 = DIRECTION ( 'NONE',  ( -0.000000000000000000, 1.000000000000000000, -0.000000000000000000 ) ) ;
#937 = CARTESIAN_POINT ( 'NONE',  ( -30.34171337674250779, -4.000000000000000000, 70.00000000000009948 ) ) ;
#938 = FACE_BOUND ( 'NONE', #381, .T. ) ;
#939 = CIRCLE ( 'NONE', #963, 2.049999999999999822 ) ;
#940 = EDGE_LOOP ( 'NONE', ( #230, #182, #821, #841 ) ) ;
#941 = AXIS2_PLACEMENT_3D ( 'NONE', #83, #383, #692 ) ;
#942 = CYLINDRICAL_SURFACE ( 'NONE', #434, 1.000000000000000888 ) ;
#943 = ORIENTED_EDGE ( 'NONE', *, *, #999, .T. ) ;
#944 = DIRECTION ( 'NONE',  ( 0.000000000000000000, 1.000000000000000000, 0.000000000000000000 ) ) ;
#945 = ORIENTED_EDGE ( 'NONE', *, *, #277, .T. ) ;
#946 = FACE_OUTER_BOUND ( 'NONE', #622, .T. ) ;
#947 = DIRECTION ( 'NONE',  ( 0.000000000000000000, 1.000000000000000000, 4.607499272175655657E-17 ) ) ;
#948 = ORIENTED_EDGE ( 'NONE', *, *, #244, .F. ) ;
#949 = CARTESIAN_POINT ( 'NONE',  ( -30.34171337674251845, -7.000000000000117240, 2.950000000000101430 ) ) ;
#950 = CARTESIAN_POINT ( 'NONE',  ( -30.34171337674251845, -160.3471478715776755, 5.000000000000101252 ) ) ;
#951 = ORIENTED_EDGE ( 'NONE', *, *, #985, .F. ) ;
#952 = VECTOR ( 'NONE', #55, 1000.000000000000000 ) ;
#953 = LINE ( 'NONE', #621, #375 ) ;
#954 = CARTESIAN_POINT ( 'NONE',  ( -26.00000000000000355, -7.000000000000117240, 249.1691337098909855 ) ) ;
#955 = CARTESIAN_POINT ( 'NONE',  ( -89.75000000000001421, -160.3461478715776707, 10.00000000000018296 ) ) ;
#956 = ORIENTED_EDGE ( 'NONE', *, *, #665, .T. ) ;
#957 = CARTESIAN_POINT ( 'NONE',  ( -26.00000000000000355, -7.000000000000109246, 75.00000000000009948 ) ) ;
#958 = VERTEX_POINT ( 'NONE', #666 ) ;
#959 = DIRECTION ( 'NONE',  ( -1.000000000000000000, -9.049974844778402193E-17, 0.000000000000000000 ) ) ;
#960 = SPHERICAL_SURFACE ( 'NONE', #467, 1.000000000000000000 ) ;
#961 = EDGE_LOOP ( 'NONE', ( #115, #866 ) ) ;
#962 = AXIS2_PLACEMENT_3D ( 'NONE', #509, #338, #204 ) ;
#963 = AXIS2_PLACEMENT_3D ( 'NONE', #807, #417, #875 ) ;
#964 = AXIS2_PLACEMENT_3D ( 'NONE', #568, #491, #899 ) ;
#965 = DIRECTION ( 'NONE',  ( -0.000000000000000000, 1.000000000000000000, -0.000000000000000000 ) ) ;
#966 = CARTESIAN_POINT ( 'NONE',  ( -89.75000000000001421, -160.3461478715776707, 7.850000000000181721 ) ) ;
#967 = EDGE_LOOP ( 'NONE', ( #657, #522 ) ) ;
#968 = EDGE_LOOP ( 'NONE', ( #909, #862, #554, #743 ) ) ;
#969 = EDGE_CURVE ( 'NONE', #217, #283, #725, .T. ) ;
#970 = ORIENTED_EDGE ( 'NONE', *, *, #98, .T. ) ;
#971 = ORIENTED_EDGE ( 'NONE', *, *, #220, .F. ) ;
#972 = DIRECTION ( 'NONE',  ( 0.000000000000000000, 0.000000000000000000, 1.000000000000000000 ) ) ;
#973 = ORIENTED_EDGE ( 'NONE', *, *, #148, .F. ) ;
#974 = CARTESIAN_POINT ( 'NONE',  ( -26.00000000000000355, -1.112526774261244321E-13, 249.1691337098909855 ) ) ;
#975 = ORIENTED_EDGE ( 'NONE', *, *, #830, .T. ) ;
#976 = SURFACE_STYLE_FILL_AREA ( #982 ) ;
#977 = CARTESIAN_POINT ( 'NONE',  ( -30.34171337674251845, -4.000000000000000000, 5.000000000000101252 ) ) ;
#978 = ORIENTED_EDGE ( 'NONE', *, *, #416, .F. ) ;
#979 = LINE ( 'NONE', #732, #612 ) ;
#980 = EDGE_CURVE ( 'NONE', #113, #677, #583, .T. ) ;
#981 = EDGE_LOOP ( 'NONE', ( #973, #46 ) ) ;
#982 = FILL_AREA_STYLE ('',( #57 ) ) ;
#983 = PLANE ( 'NONE',  #77 ) ;
#984 = DIRECTION ( 'NONE',  ( -0.000000000000000000, -1.000000000000000000, -4.607499272175655657E-17 ) ) ;
#985 = EDGE_CURVE ( 'NONE', #667, #517, #140, .T. ) ;
#986 = DIRECTION ( 'NONE',  ( 0.000000000000000000, 0.000000000000000000, 1.000000000000000000 ) ) ;
#987 = ORIENTED_EDGE ( 'NONE', *, *, #43, .F. ) ;
#988 = ADVANCED_FACE ( 'NONE', ( #429 ), #65, .F. ) ;
#989 = LINE ( 'NONE', #372, #291 ) ;
#990 = ORIENTED_EDGE ( 'NONE', *, *, #233, .F. ) ;
#991 = PLANE ( 'NONE',  #515 ) ;
#992 = ORIENTED_EDGE ( 'NONE', *, *, #644, .T. ) ;
#993 = FACE_OUTER_BOUND ( 'NONE', #51, .T. ) ;
#994 = AXIS2_PLACEMENT_3D ( 'NONE', #446, #380, #526 ) ;
#995 = AXIS2_PLACEMENT_3D ( 'NONE', #950, #176, #542 ) ;
#996 = VECTOR ( 'NONE', #84, 1000.000000000000000 ) ;
#997 = DIRECTION ( 'NONE',  ( 1.000000000000000000, 0.000000000000000000, 0.000000000000000000 ) ) ;
#998 = ORIENTED_EDGE ( 'NONE', *, *, #831, .F. ) ;
#999 = EDGE_CURVE ( 'NONE', #667, #113, #296, .T. ) ;
ENDSEC;
END-ISO-10303-21;
