ISO-10303-21;
HEADER;
FILE_DESCRIPTION (( 'STEP AP214' ),
    '1' );
FILE_NAME ('Homing Switch Mount.STEP',
    '2025-10-25T19:55:40',
    ( '' ),
    ( '' ),
    'SwSTEP 2.0',
    'SolidWorks 2025',
    '' );
FILE_SCHEMA (( 'AUTOMOTIVE_DESIGN' ));
ENDSEC;

DATA;
#1 = FACE_OUTER_BOUND ( 'NONE', #135, .T. ) ;
#2 = ORIENTED_EDGE ( 'NONE', *, *, #1089, .T. ) ;
#3 = CARTESIAN_POINT ( 'NONE',  ( 9.000000000000010658, 0.000000000000000000, -18.49999999999994316 ) ) ;
#4 = FACE_OUTER_BOUND ( 'NONE', #313, .T. ) ;
#5 = DIRECTION ( 'NONE',  ( 1.000000000000000000, -6.367124396146892223E-31, 0.000000000000000000 ) ) ;
#6 = ADVANCED_FACE ( 'NONE', ( #4 ), #854, .T. ) ;
#7 = ORIENTED_EDGE ( 'NONE', *, *, #630, .F. ) ;
#8 = FACE_OUTER_BOUND ( 'NONE', #1140, .T. ) ;
#9 = ORIENTED_EDGE ( 'NONE', *, *, #1074, .F. ) ;
#10 = VECTOR ( 'NONE', #322, 1000.000000000000000 ) ;
#11 = DIRECTION ( 'NONE',  ( -0.000000000000000000, 1.000000000000000000, -0.000000000000000000 ) ) ;
#12 = CIRCLE ( 'NONE', #180, 2.000000000000000000 ) ;
#13 = VECTOR ( 'NONE', #368, 1000.000000000000000 ) ;
#14 = VERTEX_POINT ( 'NONE', #205 ) ;
#15 = DIRECTION ( 'NONE',  ( -1.000000000000000000, 6.367124396146893099E-31, 2.478176394252579662E-16 ) ) ;
#16 = ORIENTED_EDGE ( 'NONE', *, *, #116, .T. ) ;
#17 = EDGE_LOOP ( 'NONE', ( #294, #7 ) ) ;
#18 = DIRECTION ( 'NONE',  ( 1.000000000000000000, -6.367124396146890472E-31, 1.239088197126290077E-16 ) ) ;
#19 = EDGE_CURVE ( 'NONE', #769, #14, #33, .T. ) ;
#20 = VERTEX_POINT ( 'NONE', #1133 ) ;
#21 = CARTESIAN_POINT ( 'NONE',  ( -9.462128050783054241E-16, -1.358183229005566957E-43, 3.000000000000003553 ) ) ;
#22 = EDGE_CURVE ( 'NONE', #382, #861, #311, .T. ) ;
#23 = VERTEX_POINT ( 'NONE', #664 ) ;
#24 = EDGE_CURVE ( 'NONE', #1146, #593, #1041, .T. ) ;
#25 = LINE ( 'NONE', #1138, #37 ) ;
#26 = ORIENTED_EDGE ( 'NONE', *, *, #775, .T. ) ;
#27 = EDGE_LOOP ( 'NONE', ( #183, #660, #604, #1106 ) ) ;
#28 = CARTESIAN_POINT ( 'NONE',  ( 9.000000000000010658, -2.000000000000000000, -18.49999999999994316 ) ) ;
#29 = FACE_BOUND ( 'NONE', #649, .T. ) ;
#30 = ORIENTED_EDGE ( 'NONE', *, *, #66, .F. ) ;
#31 = ORIENTED_EDGE ( 'NONE', *, *, #524, .F. ) ;
#32 = LINE ( 'NONE', #641, #1186 ) ;
#33 = LINE ( 'NONE', #119, #346 ) ;
#34 = VECTOR ( 'NONE', #341, 1000.000000000000000 ) ;
#35 = DIRECTION ( 'NONE',  ( 6.367124396146892223E-31, 1.000000000000000000, -4.668657484706398495E-44 ) ) ;
#36 = DIRECTION ( 'NONE',  ( -8.761676666762117330E-17, 0.7071067811865450192, 0.7071067811865500152 ) ) ;
#37 = VECTOR ( 'NONE', #18, 1000.000000000000000 ) ;
#38 = EDGE_LOOP ( 'NONE', ( #555, #840 ) ) ;
#39 = CIRCLE ( 'NONE', #961, 0.9000000000010925927 ) ;
#40 = EDGE_LOOP ( 'NONE', ( #92, #943, #216, #145 ) ) ;
#41 = CYLINDRICAL_SURFACE ( 'NONE', #410, 2.149999999999999023 ) ;
#42 = CARTESIAN_POINT ( 'NONE',  ( 14.00000000000001243, 4.000000000000000000, 0.000000000000000000 ) ) ;
#43 = ORIENTED_EDGE ( 'NONE', *, *, #280, .T. ) ;
#44 = FACE_BOUND ( 'NONE', #190, .T. ) ;
#45 = ORIENTED_EDGE ( 'NONE', *, *, #723, .F. ) ;
#46 = DIRECTION ( 'NONE',  ( 1.239088197126290077E-16, -4.676546913395298908E-44, -1.000000000000000000 ) ) ;
#47 = ORIENTED_EDGE ( 'NONE', *, *, #1064, .T. ) ;
#48 = EDGE_CURVE ( 'NONE', #1005, #23, #1118, .T. ) ;
#49 = DIRECTION ( 'NONE',  ( 1.000000000000000000, -0.000000000000000000, 3.154042683594347469E-16 ) ) ;
#50 = CARTESIAN_POINT ( 'NONE',  ( 5.046468293750926763E-15, 7.243643888029638928E-43, -15.99999999999990585 ) ) ;
#51 = DIRECTION ( 'NONE',  ( 1.000000000000000000, -0.000000000000000000, -0.000000000000000000 ) ) ;
#52 = DIRECTION ( 'NONE',  ( -1.000000000000000000, 0.000000000000000000, 2.478176394252579662E-16 ) ) ;
#53 = DIRECTION ( 'NONE',  ( 0.000000000000000000, 0.000000000000000000, -1.000000000000000000 ) ) ;
#54 = VERTEX_POINT ( 'NONE', #942 ) ;
#55 = VECTOR ( 'NONE', #61, 1000.000000000000000 ) ;
#56 = AXIS2_PLACEMENT_3D ( 'NONE', #345, #691, #188 ) ;
#57 = CARTESIAN_POINT ( 'NONE',  ( 14.00000000000001243, 4.000000000000000000, 0.000000000000000000 ) ) ;
#58 = VECTOR ( 'NONE', #15, 1000.000000000000000 ) ;
#59 = CARTESIAN_POINT ( 'NONE',  ( 2.000000000000006661, -10.00000000000000000, -19.99999999999990763 ) ) ;
#60 = LINE ( 'NONE', #1157, #762 ) ;
#61 = DIRECTION ( 'NONE',  ( 4.502236837173784631E-31, 0.7071067811865500152, -0.7071067811865450192 ) ) ;
#62 = ADVANCED_FACE ( 'NONE', ( #1125 ), #659, .T. ) ;
#63 = ORIENTED_EDGE ( 'NONE', *, *, #153, .T. ) ;
#64 = CARTESIAN_POINT ( 'NONE',  ( 14.00000000000000888, 8.266875410496933471E-43, -15.99999999999990941 ) ) ;
#65 = EDGE_CURVE ( 'NONE', #307, #293, #888, .T. ) ;
#66 = EDGE_CURVE ( 'NONE', #130, #924, #793, .T. ) ;
#67 = ADVANCED_FACE ( 'NONE', ( #977 ), #607, .F. ) ;
#68 = CARTESIAN_POINT ( 'NONE',  ( 11.50000000000001243, 1.890641104811397501E-46, 9.255886935744365967E-16 ) ) ;
#69 = LINE ( 'NONE', #907, #1053 ) ;
#70 = DIRECTION ( 'NONE',  ( 6.367124396146892223E-31, 1.000000000000000000, -4.668657484706398495E-44 ) ) ;
#71 = LINE ( 'NONE', #430, #305 ) ;
#72 = ORIENTED_EDGE ( 'NONE', *, *, #280, .F. ) ;
#73 = ORIENTED_EDGE ( 'NONE', *, *, #645, .T. ) ;
#74 = DIRECTION ( 'NONE',  ( 6.367124396146892223E-31, 1.000000000000000000, -4.668657484706398495E-44 ) ) ;
#75 = EDGE_CURVE ( 'NONE', #1095, #1049, #513, .T. ) ;
#76 = FACE_OUTER_BOUND ( 'NONE', #1129, .T. ) ;
#77 = AXIS2_PLACEMENT_3D ( 'NONE', #1036, #863, #164 ) ;
#78 = ORIENTED_EDGE ( 'NONE', *, *, #440, .T. ) ;
#79 = CYLINDRICAL_SURFACE ( 'NONE', #842, 0.9000000000010925927 ) ;
#80 = CIRCLE ( 'NONE', #136, 2.000000000000000000 ) ;
#81 = DIRECTION ( 'NONE',  ( 0.000000000000000000, 0.000000000000000000, 1.000000000000000000 ) ) ;
#82 = VECTOR ( 'NONE', #609, 1000.000000000000000 ) ;
#83 =( GEOMETRIC_REPRESENTATION_CONTEXT ( 3 ) GLOBAL_UNCERTAINTY_ASSIGNED_CONTEXT ( ( #728 ) ) GLOBAL_UNIT_ASSIGNED_CONTEXT ( ( #443, #985, #1182 ) ) REPRESENTATION_CONTEXT ( 'NONE', 'WORKASPACE' ) );
#84 = EDGE_LOOP ( 'NONE', ( #624, #285, #916, #833 ) ) ;
#85 = DIRECTION ( 'NONE',  ( -1.000000000000000000, 6.367124396146892223E-31, 2.478176394252579662E-16 ) ) ;
#86 = EDGE_CURVE ( 'NONE', #350, #924, #229, .T. ) ;
#87 = EDGE_LOOP ( 'NONE', ( #384, #319 ) ) ;
#88 = CARTESIAN_POINT ( 'NONE',  ( 5.204170427930419706E-15, -2.000000000000000000, -6.250000000000000000 ) ) ;
#89 = DIRECTION ( 'NONE',  ( 1.239088197126290077E-16, -4.676546913395298908E-44, -1.000000000000000000 ) ) ;
#90 = CYLINDRICAL_SURFACE ( 'NONE', #302, 3.750000000000000000 ) ;
#91 = DIRECTION ( 'NONE',  ( 6.367124396146892223E-31, 1.000000000000000000, -4.668657484706398495E-44 ) ) ;
#92 = ORIENTED_EDGE ( 'NONE', *, *, #524, .T. ) ;
#93 = DIRECTION ( 'NONE',  ( 0.000000000000000000, 0.000000000000000000, 1.000000000000000000 ) ) ;
#94 = PLANE ( 'NONE',  #544 ) ;
#95 = ORIENTED_EDGE ( 'NONE', *, *, #493, .T. ) ;
#96 = EDGE_CURVE ( 'NONE', #1142, #307, #80, .T. ) ;
#97 = AXIS2_PLACEMENT_3D ( 'NONE', #908, #283, #1082 ) ;
#98 = AXIS2_PLACEMENT_3D ( 'NONE', #590, #255, #586 ) ;
#99 = CARTESIAN_POINT ( 'NONE',  ( 1.999999999999999556, 4.000000000000000000, 5.000000000000004441 ) ) ;
#100 = AXIS2_PLACEMENT_3D ( 'NONE', #846, #192, #543 ) ;
#101 = LINE ( 'NONE', #554, #676 ) ;
#102 = VERTEX_POINT ( 'NONE', #772 ) ;
#103 = EDGE_CURVE ( 'NONE', #713, #657, #423, .T. ) ;
#104 = ADVANCED_FACE ( 'NONE', ( #591 ), #798, .F. ) ;
#105 = ORIENTED_EDGE ( 'NONE', *, *, #320, .T. ) ;
#106 = LINE ( 'NONE', #1027, #903 ) ;
#107 = ORIENTED_EDGE ( 'NONE', *, *, #687, .T. ) ;
#108 = LINE ( 'NONE', #636, #700 ) ;
#109 = CARTESIAN_POINT ( 'NONE',  ( 2.500000000000003997, 10.95730350040557077, -6.250000000000000000 ) ) ;
#110 = ORIENTED_EDGE ( 'NONE', *, *, #729, .F. ) ;
#111 = CARTESIAN_POINT ( 'NONE',  ( 14.00000000000001421, -10.00000000000000000, -16.99999999999991118 ) ) ;
#112 = EDGE_LOOP ( 'NONE', ( #398, #165, #158, #185, #479, #640 ) ) ;
#113 = EDGE_CURVE ( 'NONE', #462, #953, #1068, .T. ) ;
#114 = AXIS2_PLACEMENT_3D ( 'NONE', #498, #875, #963 ) ;
#115 = DIRECTION ( 'NONE',  ( 0.000000000000000000, -1.000000000000000000, 0.000000000000000000 ) ) ;
#116 = EDGE_CURVE ( 'NONE', #757, #274, #489, .T. ) ;
#117 = EDGE_CURVE ( 'NONE', #20, #102, #332, .T. ) ;
#118 = VECTOR ( 'NONE', #748, 1000.000000000000000 ) ;
#119 = CARTESIAN_POINT ( 'NONE',  ( 14.00000000000001243, 0.000000000000000000, 0.000000000000000000 ) ) ;
#120 = VERTEX_POINT ( 'NONE', #971 ) ;
#121 = CARTESIAN_POINT ( 'NONE',  ( 4.850000000000006750, -2.000000000000000000, -3.124999999999998224 ) ) ;
#122 = VERTEX_POINT ( 'NONE', #1139 ) ;
#123 = CARTESIAN_POINT ( 'NONE',  ( 0.000000000000000000, 0.000000000000000000, 5.000000000000004441 ) ) ;
#124 = FACE_OUTER_BOUND ( 'NONE', #965, .T. ) ;
#125 = EDGE_LOOP ( 'NONE', ( #474, #468, #929, #536 ) ) ;
#126 = ORIENTED_EDGE ( 'NONE', *, *, #86, .T. ) ;
#127 = CARTESIAN_POINT ( 'NONE',  ( -9.462128050783054241E-16, 4.000000000000000000, 3.000000000000003553 ) ) ;
#128 = DIRECTION ( 'NONE',  ( 0.000000000000000000, 0.000000000000000000, -1.000000000000000000 ) ) ;
#129 = DIRECTION ( 'NONE',  ( 0.000000000000000000, -1.000000000000000000, 0.000000000000000000 ) ) ;
#130 = VERTEX_POINT ( 'NONE', #587 ) ;
#131 = ADVANCED_FACE ( 'NONE', ( #344 ), #883, .T. ) ;
#132 = ORIENTED_EDGE ( 'NONE', *, *, #65, .T. ) ;
#133 = DIRECTION ( 'NONE',  ( -1.000000000000000000, 0.000000000000000000, 0.000000000000000000 ) ) ;
#134 = EDGE_LOOP ( 'NONE', ( #340, #724, #30, #222 ) ) ;
#135 = EDGE_LOOP ( 'NONE', ( #1023, #938 ) ) ;
#136 = AXIS2_PLACEMENT_3D ( 'NONE', #236, #983, #249 ) ;
#137 = FACE_OUTER_BOUND ( 'NONE', #755, .T. ) ;
#138 = CIRCLE ( 'NONE', #56, 2.000000000000001776 ) ;
#139 = ORIENTED_EDGE ( 'NONE', *, *, #729, .T. ) ;
#140 = AXIS2_PLACEMENT_3D ( 'NONE', #869, #318, #950 ) ;
#141 = CARTESIAN_POINT ( 'NONE',  ( 14.00000000000000711, -6.750000000000000000, -21.99999999999990763 ) ) ;
#142 = CARTESIAN_POINT ( 'NONE',  ( 9.900000000001103473, -2.000000000000000000, -18.49999999999994316 ) ) ;
#143 = EDGE_CURVE ( 'NONE', #924, #122, #405, .T. ) ;
#144 = CARTESIAN_POINT ( 'NONE',  ( 6.308085367188665751E-15, 4.000000000000000000, -19.99999999999990763 ) ) ;
#145 = ORIENTED_EDGE ( 'NONE', *, *, #24, .F. ) ;
#146 = LINE ( 'NONE', #497, #880 ) ;
#147 = CARTESIAN_POINT ( 'NONE',  ( 9.000000000000010658, 0.000000000000000000, -18.49999999999994316 ) ) ;
#148 = CARTESIAN_POINT ( 'NONE',  ( 14.00000000000000711, -10.00000000000000000, -19.99999999999990763 ) ) ;
#149 = FACE_OUTER_BOUND ( 'NONE', #84, .T. ) ;
#150 = ORIENTED_EDGE ( 'NONE', *, *, #143, .T. ) ;
#151 = CARTESIAN_POINT ( 'NONE',  ( 9.000000000000010658, 4.000000000000000000, -18.49999999999994316 ) ) ;
#152 = DIRECTION ( 'NONE',  ( 3.154042683594347469E-16, 4.527277430018551214E-44, -1.000000000000000000 ) ) ;
#153 = EDGE_CURVE ( 'NONE', #500, #385, #1158, .T. ) ;
#154 = CARTESIAN_POINT ( 'NONE',  ( 9.000000000000010658, -2.000000000000000000, -11.99999999999994316 ) ) ;
#155 = CARTESIAN_POINT ( 'NONE',  ( 2.500000000000003997, -2.000000000000000000, -5.750000000000010658 ) ) ;
#156 = ADVANCED_FACE ( 'NONE', ( #244 ), #785, .F. ) ;
#157 = CARTESIAN_POINT ( 'NONE',  ( 7.124757133476168191E-16, -2.000000000000000000, -5.750000000000010658 ) ) ;
#158 = ORIENTED_EDGE ( 'NONE', *, *, #743, .T. ) ;
#159 = VECTOR ( 'NONE', #93, 1000.000000000000000 ) ;
#160 = CIRCLE ( 'NONE', #1168, 2.149999999999999023 ) ;
#161 = VECTOR ( 'NONE', #1048, 1000.000000000000000 ) ;
#162 = LINE ( 'NONE', #681, #1010 ) ;
#163 = LINE ( 'NONE', #261, #882 ) ;
#164 = DIRECTION ( 'NONE',  ( -3.154042683594347469E-16, 0.000000000000000000, 1.000000000000000000 ) ) ;
#165 = ORIENTED_EDGE ( 'NONE', *, *, #1031, .T. ) ;
#166 = DIRECTION ( 'NONE',  ( -6.367124396146892223E-31, -1.000000000000000000, 4.668657484706398495E-44 ) ) ;
#167 = LINE ( 'NONE', #256, #434 ) ;
#168 = ORIENTED_EDGE ( 'NONE', *, *, #1121, .F. ) ;
#169 = CARTESIAN_POINT ( 'NONE',  ( 14.00000000000000711, -3.000000000000000000, -21.99999999999990763 ) ) ;
#170 = CARTESIAN_POINT ( 'NONE',  ( 7.000000000000006217, -2.000000000000000000, -3.124999999999998224 ) ) ;
#171 = DIRECTION ( 'NONE',  ( -0.000000000000000000, 1.000000000000000000, -0.000000000000000000 ) ) ;
#172 = ORIENTED_EDGE ( 'NONE', *, *, #911, .F. ) ;
#173 = DIRECTION ( 'NONE',  ( 1.000000000000000000, 0.000000000000000000, 1.239088197126290077E-16 ) ) ;
#174 = CARTESIAN_POINT ( 'NONE',  ( 9.150000000000005684, -2.000000000000000000, -3.124999999999998224 ) ) ;
#175 = LINE ( 'NONE', #99, #935 ) ;
#176 = DIRECTION ( 'NONE',  ( 6.367124396146892223E-31, 1.000000000000000000, -4.668657484706398495E-44 ) ) ;
#177 = VECTOR ( 'NONE', #370, 1000.000000000000000 ) ;
#178 = VERTEX_POINT ( 'NONE', #148 ) ;
#179 = CARTESIAN_POINT ( 'NONE',  ( 8.099999999998919620, 5.730411956539160798E-31, -18.49999999999994316 ) ) ;
#180 = AXIS2_PLACEMENT_3D ( 'NONE', #227, #502, #404 ) ;
#181 = AXIS2_PLACEMENT_3D ( 'NONE', #457, #454, #828 ) ;
#182 = DIRECTION ( 'NONE',  ( 1.000000000000000000, -6.367124396146892223E-31, -0.000000000000000000 ) ) ;
#183 = ORIENTED_EDGE ( 'NONE', *, *, #153, .F. ) ;
#184 = CARTESIAN_POINT ( 'NONE',  ( 9.000000000000010658, 0.000000000000000000, -11.99999999999994316 ) ) ;
#185 = ORIENTED_EDGE ( 'NONE', *, *, #877, .T. ) ;
#186 = CARTESIAN_POINT ( 'NONE',  ( 12.00000000000001243, 4.000000000000000000, 5.000000000000002665 ) ) ;
#187 = LINE ( 'NONE', #1176, #899 ) ;
#188 = DIRECTION ( 'NONE',  ( 1.000000000000000000, 0.000000000000000000, 0.000000000000000000 ) ) ;
#189 = VERTEX_POINT ( 'NONE', #690 ) ;
#190 = EDGE_LOOP ( 'NONE', ( #749, #1025 ) ) ;
#191 = EDGE_CURVE ( 'NONE', #897, #593, #409, .T. ) ;
#192 = DIRECTION ( 'NONE',  ( 1.000000000000000000, -6.367124396146892223E-31, 0.000000000000000000 ) ) ;
#193 = ORIENTED_EDGE ( 'NONE', *, *, #945, .T. ) ;
#194 = PRODUCT_DEFINITION_FORMATION_WITH_SPECIFIED_SOURCE ( 'ANY', '', #243, .NOT_KNOWN. ) ;
#195 = AXIS2_PLACEMENT_3D ( 'NONE', #504, #1060, #1047 ) ;
#196 = VECTOR ( 'NONE', #792, 1000.000000000000000 ) ;
#197 = CARTESIAN_POINT ( 'NONE',  ( 7.124757133476168191E-16, -2.000000000000000000, -5.750000000000010658 ) ) ;
#198 = ORIENTED_EDGE ( 'NONE', *, *, #19, .F. ) ;
#199 = EDGE_CURVE ( 'NONE', #1123, #745, #533, .T. ) ;
#200 = VERTEX_POINT ( 'NONE', #367 ) ;
#201 = LINE ( 'NONE', #111, #254 ) ;
#202 = ORIENTED_EDGE ( 'NONE', *, *, #96, .T. ) ;
#203 = EDGE_CURVE ( 'NONE', #1123, #207, #287, .T. ) ;
#204 = CARTESIAN_POINT ( 'NONE',  ( 3.596821504049518519E-15, -1.500000000000006439, 7.002986227059627613E-44 ) ) ;
#205 = CARTESIAN_POINT ( 'NONE',  ( 14.00000000000001243, -4.481482139863910516E-59, 8.673617379884035472E-16 ) ) ;
#206 = CARTESIAN_POINT ( 'NONE',  ( 1.316495309083386868E-15, -10.00000000000000000, -16.99999999999990763 ) ) ;
#207 = VERTEX_POINT ( 'NONE', #814 ) ;
#208 = ORIENTED_EDGE ( 'NONE', *, *, #765, .F. ) ;
#209 = VECTOR ( 'NONE', #1161, 1000.000000000000000 ) ;
#210 = DIRECTION ( 'NONE',  ( 1.000000000000000000, -0.000000000000000000, -0.000000000000000000 ) ) ;
#211 = CIRCLE ( 'NONE', #98, 2.149999999999999023 ) ;
#212 = AXIS2_PLACEMENT_3D ( 'NONE', #512, #420, #81 ) ;
#213 = EDGE_LOOP ( 'NONE', ( #823, #31, #496, #1179 ) ) ;
#214 = ORIENTED_EDGE ( 'NONE', *, *, #117, .F. ) ;
#215 = DIRECTION ( 'NONE',  ( -2.230244969721371291E-16, -0.7071067811865500152, 0.7071067811865450192 ) ) ;
#216 = ORIENTED_EDGE ( 'NONE', *, *, #820, .T. ) ;
#217 = CARTESIAN_POINT ( 'NONE',  ( 12.00000000000000711, 4.000000000000000000, -21.99999999999990763 ) ) ;
#218 = EDGE_LOOP ( 'NONE', ( #737, #1012, #1114, #923 ) ) ;
#219 = EDGE_CURVE ( 'NONE', #851, #317, #175, .T. ) ;
#220 = ORIENTED_EDGE ( 'NONE', *, *, #546, .T. ) ;
#221 = LINE ( 'NONE', #217, #901 ) ;
#222 = ORIENTED_EDGE ( 'NONE', *, *, #320, .F. ) ;
#223 = EDGE_LOOP ( 'NONE', ( #458, #795, #835, #1137 ) ) ;
#224 = VERTEX_POINT ( 'NONE', #818 ) ;
#225 = ADVANCED_FACE ( 'NONE', ( #1171 ), #90, .F. ) ;
#226 = EDGE_CURVE ( 'NONE', #20, #120, #436, .T. ) ;
#227 = CARTESIAN_POINT ( 'NONE',  ( 1.999999999999999112, 0.000000000000000000, 3.000000000000003997 ) ) ;
#228 = AXIS2_PLACEMENT_3D ( 'NONE', #349, #74, #809 ) ;
#229 = LINE ( 'NONE', #582, #525 ) ;
#230 = LINE ( 'NONE', #768, #161 ) ;
#231 = VECTOR ( 'NONE', #862, 1000.000000000000000 ) ;
#232 = EDGE_LOOP ( 'NONE', ( #424, #637, #890, #997 ) ) ;
#233 = VECTOR ( 'NONE', #703, 1000.000000000000000 ) ;
#234 = DIRECTION ( 'NONE',  ( 1.000000000000000000, -6.367124396146892223E-31, -2.478176394252579662E-16 ) ) ;
#235 = CARTESIAN_POINT ( 'NONE',  ( 14.00000000000001243, 0.000000000000000000, 3.000000000000002665 ) ) ;
#236 = CARTESIAN_POINT ( 'NONE',  ( 12.00000000000001243, 4.000000000000000000, 3.000000000000003109 ) ) ;
#237 = CARTESIAN_POINT ( 'NONE',  ( 12.00000000000000711, -10.00000000000000000, -21.99999999999990763 ) ) ;
#238 = ORIENTED_EDGE ( 'NONE', *, *, #601, .T. ) ;
#239 = ADVANCED_FACE ( 'NONE', ( #1192 ), #1006, .F. ) ;
#240 = DIRECTION ( 'NONE',  ( 2.365532012695506194E-16, 0.000000000000000000, 1.000000000000000000 ) ) ;
#241 = ADVANCED_FACE ( 'NONE', ( #262 ), #716, .F. ) ;
#242 = ADVANCED_FACE ( 'NONE', ( #279, #441, #1187 ), #429, .F. ) ;
#243 = PRODUCT ( 'Homing Switch Mount', 'Homing Switch Mount', '', ( #354 ) ) ;
#244 = FACE_OUTER_BOUND ( 'NONE', #1044, .T. ) ;
#245 = SURFACE_SIDE_STYLE ('',( #1061 ) ) ;
#246 = ORIENTED_EDGE ( 'NONE', *, *, #600, .F. ) ;
#247 = FACE_OUTER_BOUND ( 'NONE', #1113, .T. ) ;
#248 = LINE ( 'NONE', #595, #674 ) ;
#249 = DIRECTION ( 'NONE',  ( -1.000000000000000000, 0.000000000000000000, 0.000000000000000000 ) ) ;
#250 = DIRECTION ( 'NONE',  ( 0.000000000000000000, 0.000000000000000000, 1.000000000000000000 ) ) ;
#251 = VERTEX_POINT ( 'NONE', #523 ) ;
#252 = CIRCLE ( 'NONE', #717, 0.9000000000010925927 ) ;
#253 = VECTOR ( 'NONE', #570, 1000.000000000000000 ) ;
#254 = VECTOR ( 'NONE', #936, 1000.000000000000000 ) ;
#255 = DIRECTION ( 'NONE',  ( 6.367124396146892223E-31, 1.000000000000000000, -4.668657484706398495E-44 ) ) ;
#256 = CARTESIAN_POINT ( 'NONE',  ( 6.308085367188665751E-15, 0.000000000000000000, -19.99999999999990763 ) ) ;
#257 = CARTESIAN_POINT ( 'NONE',  ( 11.50000000000001243, 10.95730350040557077, 9.255886935744365967E-16 ) ) ;
#258 = DIRECTION ( 'NONE',  ( 6.367124396146892223E-31, 1.000000000000000000, -4.668657484706398495E-44 ) ) ;
#259 = EDGE_CURVE ( 'NONE', #23, #1189, #704, .T. ) ;
#260 = LINE ( 'NONE', #693, #1026 ) ;
#261 = CARTESIAN_POINT ( 'NONE',  ( 7.124757133476168191E-16, -2.000000000000000000, -5.750000000000010658 ) ) ;
#262 = FACE_OUTER_BOUND ( 'NONE', #615, .T. ) ;
#263 = APPLICATION_PROTOCOL_DEFINITION ( 'draft international standard', 'automotive_design', 1998, #974 ) ;
#264 = ORIENTED_EDGE ( 'NONE', *, *, #534, .F. ) ;
#265 = DIRECTION ( 'NONE',  ( 1.000000000000000000, -0.000000000000000000, -0.000000000000000000 ) ) ;
#266 = EDGE_CURVE ( 'NONE', #293, #815, #1185, .T. ) ;
#267 = DIRECTION ( 'NONE',  ( -1.000000000000000000, 0.000000000000000000, 0.000000000000000000 ) ) ;
#268 = AXIS2_PLACEMENT_3D ( 'NONE', #730, #991, #1100 ) ;
#269 = ORIENTED_EDGE ( 'NONE', *, *, #259, .F. ) ;
#270 = CARTESIAN_POINT ( 'NONE',  ( 9.000000000000010658, -2.000000000000000000, -18.49999999999994316 ) ) ;
#271 = AXIS2_PLACEMENT_3D ( 'NONE', #1004, #619, #805 ) ;
#272 = AXIS2_PLACEMENT_3D ( 'NONE', #28, #35, #767 ) ;
#273 = LINE ( 'NONE', #623, #321 ) ;
#274 = VERTEX_POINT ( 'NONE', #1077 ) ;
#275 = FACE_OUTER_BOUND ( 'NONE', #545, .T. ) ;
#276 = EDGE_CURVE ( 'NONE', #930, #973, #372, .T. ) ;
#277 = EDGE_CURVE ( 'NONE', #884, #721, #273, .T. ) ;
#278 = EDGE_CURVE ( 'NONE', #884, #23, #187, .T. ) ;
#279 = FACE_BOUND ( 'NONE', #529, .T. ) ;
#280 = EDGE_CURVE ( 'NONE', #802, #120, #539, .T. ) ;
#281 = CARTESIAN_POINT ( 'NONE',  ( 12.00000000000000711, 4.000000000000000000, -19.99999999999990763 ) ) ;
#282 = ORIENTED_EDGE ( 'NONE', *, *, #775, .F. ) ;
#283 = DIRECTION ( 'NONE',  ( 1.000000000000000000, -0.000000000000000000, -0.000000000000000000 ) ) ;
#284 = DIRECTION ( 'NONE',  ( -1.000000000000000000, 6.367124396146892223E-31, 0.000000000000000000 ) ) ;
#285 = ORIENTED_EDGE ( 'NONE', *, *, #219, .T. ) ;
#286 = ADVANCED_FACE ( 'NONE', ( #827 ), #94, .F. ) ;
#287 = CIRCLE ( 'NONE', #97, 2.250000000000001776 ) ;
#288 = AXIS2_PLACEMENT_3D ( 'NONE', #147, #980, #874 ) ;
#289 = CARTESIAN_POINT ( 'NONE',  ( 8.099999999998919620, -2.000000000000000000, -18.49999999999994316 ) ) ;
#290 = DIRECTION ( 'NONE',  ( 6.367124396146892223E-31, 1.000000000000000000, -4.668657484706398495E-44 ) ) ;
#291 = ORIENTED_EDGE ( 'NONE', *, *, #628, .F. ) ;
#292 = CARTESIAN_POINT ( 'NONE',  ( 2.500000000000003997, -2.000000000000000000, -5.750000000000010658 ) ) ;
#293 = VERTEX_POINT ( 'NONE', #511 ) ;
#294 = ORIENTED_EDGE ( 'NONE', *, *, #531, .F. ) ;
#295 = CARTESIAN_POINT ( 'NONE',  ( 5.204170427930419706E-15, -1.500000000000006439, -6.250000000000000000 ) ) ;
#296 = EDGE_LOOP ( 'NONE', ( #428, #168, #1017, #629 ) ) ;
#297 = EDGE_LOOP ( 'NONE', ( #1116, #376, #379, #927 ) ) ;
#298 = DIRECTION ( 'NONE',  ( -1.000000000000000000, 0.000000000000000000, 0.000000000000000000 ) ) ;
#299 = ORIENTED_EDGE ( 'NONE', *, *, #226, .T. ) ;
#300 = FACE_OUTER_BOUND ( 'NONE', #912, .T. ) ;
#301 = ORIENTED_EDGE ( 'NONE', *, *, #1110, .T. ) ;
#302 = AXIS2_PLACEMENT_3D ( 'NONE', #169, #617, #996 ) ;
#303 = DIRECTION ( 'NONE',  ( 6.367124396146892223E-31, 1.000000000000000000, -4.668657484706398495E-44 ) ) ;
#304 = ADVANCED_FACE ( 'NONE', ( #672 ), #1150, .F. ) ;
#305 = VECTOR ( 'NONE', #602, 1000.000000000000000 ) ;
#306 = DIRECTION ( 'NONE',  ( 1.000000000000000000, 0.000000000000000000, -1.239088197126411365E-16 ) ) ;
#307 = VERTEX_POINT ( 'NONE', #585 ) ;
#308 = DIRECTION ( 'NONE',  ( -1.000000000000000000, 6.367124396146892223E-31, -1.239088197126290077E-16 ) ) ;
#309 = EDGE_CURVE ( 'NONE', #189, #684, #252, .T. ) ;
#310 = EDGE_CURVE ( 'NONE', #350, #1005, #872, .T. ) ;
#311 = LINE ( 'NONE', #289, #177 ) ;
#312 = PLANE ( 'NONE',  #140 ) ;
#313 = EDGE_LOOP ( 'NONE', ( #797, #264, #1153, #864 ) ) ;
#314 = CARTESIAN_POINT ( 'NONE',  ( 8.750000000000007105, -6.750000000000000000, -21.99999999999990763 ) ) ;
#315 = ADVANCED_BREP_SHAPE_REPRESENTATION ( 'Homing Switch Mount', ( #960, #695 ), #83 ) ;
#316 = DIRECTION ( 'NONE',  ( -2.365532012695506194E-16, 5.166797131560612294E-44, -1.000000000000000000 ) ) ;
#317 = VERTEX_POINT ( 'NONE', #966 ) ;
#318 = DIRECTION ( 'NONE',  ( -6.367124396146892223E-31, -1.000000000000000000, 4.668657484706398495E-44 ) ) ;
#319 = ORIENTED_EDGE ( 'NONE', *, *, #1110, .F. ) ;
#320 = EDGE_CURVE ( 'NONE', #657, #130, #1155, .T. ) ;
#321 = VECTOR ( 'NONE', #1001, 1000.000000000000000 ) ;
#322 = DIRECTION ( 'NONE',  ( -1.000000000000000000, 6.367124396146892223E-31, -1.239088197126290077E-16 ) ) ;
#323 = EDGE_CURVE ( 'NONE', #1160, #54, #146, .T. ) ;
#324 = CARTESIAN_POINT ( 'NONE',  ( 14.00000000000001243, -1.500000000000006439, -6.249999999999998224 ) ) ;
#325 = AXIS2_PLACEMENT_3D ( 'NONE', #726, #290, #639 ) ;
#326 = VERTEX_POINT ( 'NONE', #50 ) ;
#327 = EDGE_CURVE ( 'NONE', #385, #1095, #260, .T. ) ;
#328 = EDGE_CURVE ( 'NONE', #14, #713, #891, .T. ) ;
#329 = CARTESIAN_POINT ( 'NONE',  ( 14.00000000000001066, -1.999999999999997335, -5.750000000000011546 ) ) ;
#330 = CARTESIAN_POINT ( 'NONE',  ( 3.596821504049520097E-15, -2.290140994701945555E-45, 1.069188389594819474E-88 ) ) ;
#331 = CARTESIAN_POINT ( 'NONE',  ( 8.099999999998919620, 4.000000000000000000, -11.99999999999994316 ) ) ;
#332 = LINE ( 'NONE', #416, #464 ) ;
#333 = CARTESIAN_POINT ( 'NONE',  ( 8.099999999998919620, 5.730411956539157295E-31, -11.99999999999994316 ) ) ;
#334 = ORIENTED_EDGE ( 'NONE', *, *, #1089, .F. ) ;
#335 = CARTESIAN_POINT ( 'NONE',  ( 0.000000000000000000, 4.000000000000000000, -21.99999999999990763 ) ) ;
#336 = DIRECTION ( 'NONE',  ( -1.000000000000000000, 6.367124396146892223E-31, -1.239088197126290077E-16 ) ) ;
#337 = LINE ( 'NONE', #962, #196 ) ;
#338 = CARTESIAN_POINT ( 'NONE',  ( 14.00000000000001243, -2.000000000000002665, -0.4999999999999907851 ) ) ;
#339 = CARTESIAN_POINT ( 'NONE',  ( 2.000000000000006661, -10.00000000000000000, -21.99999999999990763 ) ) ;
#340 = ORIENTED_EDGE ( 'NONE', *, *, #601, .F. ) ;
#341 = DIRECTION ( 'NONE',  ( -1.672683727290848633E-16, 0.7071067811865500152, -0.7071067811865450192 ) ) ;
#342 = DIRECTION ( 'NONE',  ( 6.367124396146892223E-31, 1.000000000000000000, -4.668657484706398495E-44 ) ) ;
#343 = EDGE_CURVE ( 'NONE', #224, #122, #1173, .T. ) ;
#344 = FACE_OUTER_BOUND ( 'NONE', #218, .T. ) ;
#345 = CARTESIAN_POINT ( 'NONE',  ( 12.00000000000000711, -10.00000000000000000, -19.99999999999990763 ) ) ;
#346 = VECTOR ( 'NONE', #396, 1000.000000000000000 ) ;
#347 = AXIS2_PLACEMENT_3D ( 'NONE', #705, #1066, #250 ) ;
#348 = STYLED_ITEM ( 'NONE', ( #499 ), #960 ) ;
#349 = CARTESIAN_POINT ( 'NONE',  ( -1.273424879229378445E-30, -2.000000000000000000, 9.337314969412796990E-44 ) ) ;
#350 = VERTEX_POINT ( 'NONE', #446 ) ;
#351 = FACE_OUTER_BOUND ( 'NONE', #296, .T. ) ;
#352 = EDGE_CURVE ( 'NONE', #982, #1142, #622, .T. ) ;
#353 = CARTESIAN_POINT ( 'NONE',  ( 9.000000000000010658, 4.000000000000000000, -11.99999999999994316 ) ) ;
#354 = PRODUCT_CONTEXT ( 'NONE', #974, 'mechanical' ) ;
#355 = DIRECTION ( 'NONE',  ( 0.000000000000000000, 0.000000000000000000, -1.000000000000000000 ) ) ;
#356 = DIRECTION ( 'NONE',  ( -1.000000000000000000, 0.000000000000000000, 0.000000000000000000 ) ) ;
#357 = EDGE_CURVE ( 'NONE', #560, #470, #1126, .T. ) ;
#358 = AXIS2_PLACEMENT_3D ( 'NONE', #777, #868, #1152 ) ;
#359 = ORIENTED_EDGE ( 'NONE', *, *, #19, .T. ) ;
#360 = PLANE ( 'NONE',  #394 ) ;
#361 = AXIS2_PLACEMENT_3D ( 'NONE', #986, #265, #355 ) ;
#362 = EDGE_CURVE ( 'NONE', #200, #802, #816, .T. ) ;
#363 = AXIS2_PLACEMENT_3D ( 'NONE', #57, #1154, #240 ) ;
#364 = CARTESIAN_POINT ( 'NONE',  ( 12.00000000000000711, 4.000000000000000000, -19.99999999999990763 ) ) ;
#365 = CARTESIAN_POINT ( 'NONE',  ( 5.250000000000006217, -5.250000000000000000, -21.99999999999990763 ) ) ;
#366 = VERTEX_POINT ( 'NONE', #537 ) ;
#367 = CARTESIAN_POINT ( 'NONE',  ( 14.00000000000001421, -10.00000000000000000, -16.99999999999991118 ) ) ;
#368 = DIRECTION ( 'NONE',  ( -1.000000000000000000, 6.367124396146892223E-31, -1.239088197126290077E-16 ) ) ;
#369 = ORIENTED_EDGE ( 'NONE', *, *, #904, .T. ) ;
#370 = DIRECTION ( 'NONE',  ( 6.367124396146892223E-31, 1.000000000000000000, -4.668657484706398495E-44 ) ) ;
#371 = PLANE ( 'NONE',  #860 ) ;
#372 = CIRCLE ( 'NONE', #1050, 0.9000000000010925927 ) ;
#373 = CIRCLE ( 'NONE', #466, 1.000000000000000888 ) ;
#374 = DIRECTION ( 'NONE',  ( 8.761676666762208542E-17, 0.7071067811865450192, -0.7071067811865500152 ) ) ;
#375 = VECTOR ( 'NONE', #182, 1000.000000000000000 ) ;
#376 = ORIENTED_EDGE ( 'NONE', *, *, #1190, .F. ) ;
#377 = ORIENTED_EDGE ( 'NONE', *, *, #1035, .T. ) ;
#378 = CARTESIAN_POINT ( 'NONE',  ( 1.853000076611687323E-15, -1.874999999999984235, -5.875000000000025757 ) ) ;
#379 = ORIENTED_EDGE ( 'NONE', *, *, #743, .F. ) ;
#380 = ORIENTED_EDGE ( 'NONE', *, *, #852, .T. ) ;
#381 = CARTESIAN_POINT ( 'NONE',  ( 2.500000000000003997, -2.000000000000000000, -6.250000000000000000 ) ) ;
#382 = VERTEX_POINT ( 'NONE', #179 ) ;
#383 = CARTESIAN_POINT ( 'NONE',  ( 8.099999999998919620, 4.000000000000000000, -18.49999999999994316 ) ) ;
#384 = ORIENTED_EDGE ( 'NONE', *, *, #478, .F. ) ;
#385 = VERTEX_POINT ( 'NONE', #1180 ) ;
#386 = LINE ( 'NONE', #1040, #253 ) ;
#387 = ORIENTED_EDGE ( 'NONE', *, *, #362, .F. ) ;
#388 = PLANE ( 'NONE',  #1149 ) ;
#389 = EDGE_LOOP ( 'NONE', ( #734, #45, #774, #679 ) ) ;
#390 = ADVANCED_FACE ( 'NONE', ( #1184 ), #360, .F. ) ;
#391 = ORIENTED_EDGE ( 'NONE', *, *, #1085, .T. ) ;
#392 = VECTOR ( 'NONE', #994, 1000.000000000000000 ) ;
#393 = CARTESIAN_POINT ( 'NONE',  ( 14.00000000000000888, -8.913974154606401610E-30, -15.99999999999990941 ) ) ;
#394 = AXIS2_PLACEMENT_3D ( 'NONE', #88, #521, #173 ) ;
#395 = VECTOR ( 'NONE', #342, 1000.000000000000000 ) ;
#396 = DIRECTION ( 'NONE',  ( -2.365532012695506194E-16, 5.166797131560612294E-44, -1.000000000000000000 ) ) ;
#397 = FACE_OUTER_BOUND ( 'NONE', #490, .T. ) ;
#398 = ORIENTED_EDGE ( 'NONE', *, *, #647, .T. ) ;
#399 = CARTESIAN_POINT ( 'NONE',  ( 7.000000000000006217, -2.000000000000000000, -3.124999999999998224 ) ) ;
#400 = DIRECTION ( 'NONE',  ( -6.367124396146892223E-31, -1.000000000000000000, 4.668657484706398495E-44 ) ) ;
#401 = ORIENTED_EDGE ( 'NONE', *, *, #203, .T. ) ;
#402 = CARTESIAN_POINT ( 'NONE',  ( 0.000000000000000000, 0.000000000000000000, 0.000000000000000000 ) ) ;
#403 = ORIENTED_EDGE ( 'NONE', *, *, #323, .T. ) ;
#404 = DIRECTION ( 'NONE',  ( -1.000000000000000000, 6.367124396146892223E-31, 8.673617379884035472E-16 ) ) ;
#405 = LINE ( 'NONE', #1144, #10 ) ;
#406 = ORIENTED_EDGE ( 'NONE', *, *, #648, .T. ) ;
#407 = DIRECTION ( 'NONE',  ( 0.000000000000000000, -1.000000000000000000, 0.000000000000000000 ) ) ;
#408 = CLOSED_SHELL ( 'NONE', ( #1136, #731, #562, #242, #1000, #390, #286, #914, #989, #444, #62, #1002, #1101, #1045, #1088, #104, #239, #789, #685, #419, #876, #67, #6, #131, #915, #825, #241, #892, #999, #156, #913, #826, #225, #979, #427, #304 ) ) ;
#409 = LINE ( 'NONE', #682, #740 ) ;
#410 = AXIS2_PLACEMENT_3D ( 'NONE', #399, #303, #771 ) ;
#411 = LINE ( 'NONE', #1127, #1094 ) ;
#412 = CIRCLE ( 'NONE', #488, 0.9000000000010925927 ) ;
#413 = ORIENTED_EDGE ( 'NONE', *, *, #266, .T. ) ;
#414 = LINE ( 'NONE', #335, #1072 ) ;
#415 = DIRECTION ( 'NONE',  ( -1.000000000000000000, 0.000000000000000000, 0.000000000000000000 ) ) ;
#416 = CARTESIAN_POINT ( 'NONE',  ( 1.316495309083386868E-15, -10.00000000000000000, -16.99999999999990763 ) ) ;
#417 = ORIENTED_EDGE ( 'NONE', *, *, #456, .F. ) ;
#418 = CARTESIAN_POINT ( 'NONE',  ( 1.564312948508650603E-15, -0.9999999999999991118, -15.99999999999990585 ) ) ;
#419 = ADVANCED_FACE ( 'NONE', ( #351 ), #79, .F. ) ;
#420 = DIRECTION ( 'NONE',  ( 0.000000000000000000, 1.000000000000000000, 0.000000000000000000 ) ) ;
#421 = DIRECTION ( 'NONE',  ( -1.000000000000000000, 0.000000000000000000, 0.000000000000000000 ) ) ;
#422 = CARTESIAN_POINT ( 'NONE',  ( -8.673617379884465401E-16, 1.250000000000016209, 2.750000000000002665 ) ) ;
#423 = LINE ( 'NONE', #257, #618 ) ;
#424 = ORIENTED_EDGE ( 'NONE', *, *, #945, .F. ) ;
#425 = CARTESIAN_POINT ( 'NONE',  ( 3.596821504049520097E-15, -2.290140994701945555E-45, 1.069188389594819474E-88 ) ) ;
#426 = CYLINDRICAL_SURFACE ( 'NONE', #761, 0.9000000000010925927 ) ;
#427 = ADVANCED_FACE ( 'NONE', ( #275 ), #898, .T. ) ;
#428 = ORIENTED_EDGE ( 'NONE', *, *, #116, .F. ) ;
#429 = PLANE ( 'NONE',  #1090 ) ;
#430 = CARTESIAN_POINT ( 'NONE',  ( 5.250000000000007105, 4.000000000000000000, -21.99999999999990763 ) ) ;
#431 = AXIS2_PLACEMENT_3D ( 'NONE', #418, #234, #959 ) ;
#432 = AXIS2_PLACEMENT_3D ( 'NONE', #732, #753, #463 ) ;
#433 = ORIENTED_EDGE ( 'NONE', *, *, #1033, .T. ) ;
#434 = VECTOR ( 'NONE', #900, 1000.000000000000000 ) ;
#435 = DIRECTION ( 'NONE',  ( -0.000000000000000000, 1.000000000000000000, -0.000000000000000000 ) ) ;
#436 = LINE ( 'NONE', #519, #738 ) ;
#437 = ORIENTED_EDGE ( 'NONE', *, *, #309, .T. ) ;
#438 = DIRECTION ( 'NONE',  ( -1.000000000000000000, 6.367124396146892223E-31, -1.239088197126290077E-16 ) ) ;
#439 = DIRECTION ( 'NONE',  ( 6.367124396146892223E-31, 1.000000000000000000, -4.668657484706398495E-44 ) ) ;
#440 = EDGE_CURVE ( 'NONE', #574, #500, #625, .T. ) ;
#441 = FACE_OUTER_BOUND ( 'NONE', #1165, .T. ) ;
#442 = EDGE_CURVE ( 'NONE', #514, #366, #160, .T. ) ;
#443 =( LENGTH_UNIT ( ) NAMED_UNIT ( * ) SI_UNIT ( .MILLI., .METRE. ) );
#444 = ADVANCED_FACE ( 'NONE', ( #714 ), #1087, .F. ) ;
#445 = ORIENTED_EDGE ( 'NONE', *, *, #723, .T. ) ;
#446 = CARTESIAN_POINT ( 'NONE',  ( 14.00000000000001243, -2.000000000000000000, -5.750000000000008882 ) ) ;
#447 = ORIENTED_EDGE ( 'NONE', *, *, #911, .T. ) ;
#448 = DIRECTION ( 'NONE',  ( -2.365532012695506194E-16, 5.166797131560612294E-44, -1.000000000000000000 ) ) ;
#449 = VECTOR ( 'NONE', #1097, 1000.000000000000000 ) ;
#450 = EDGE_LOOP ( 'NONE', ( #589, #549, #105, #369 ) ) ;
#451 = VECTOR ( 'NONE', #610, 1000.000000000000000 ) ;
#452 = AXIS2_PLACEMENT_3D ( 'NONE', #197, #475, #559 ) ;
#453 = DIRECTION ( 'NONE',  ( 1.000000000000000000, -6.367124396146890472E-31, 1.239088197126290077E-16 ) ) ;
#454 = DIRECTION ( 'NONE',  ( -6.367124396146892223E-31, -1.000000000000000000, 4.668657484706398495E-44 ) ) ;
#455 = EDGE_LOOP ( 'NONE', ( #9, #447, #220, #1099 ) ) ;
#456 = EDGE_CURVE ( 'NONE', #54, #574, #386, .T. ) ;
#457 = CARTESIAN_POINT ( 'NONE',  ( 7.000000000000006217, 0.000000000000000000, -3.124999999999998224 ) ) ;
#458 = ORIENTED_EDGE ( 'NONE', *, *, #838, .T. ) ;
#459 = DIRECTION ( 'NONE',  ( -2.972592296812789740E-74, -4.668657484706398495E-44, -1.000000000000000000 ) ) ;
#460 = LINE ( 'NONE', #1024, #487 ) ;
#461 = ORIENTED_EDGE ( 'NONE', *, *, #24, .T. ) ;
#462 = VERTEX_POINT ( 'NONE', #556 ) ;
#463 = DIRECTION ( 'NONE',  ( -0.000000000000000000, 0.000000000000000000, -1.000000000000000000 ) ) ;
#464 = VECTOR ( 'NONE', #1164, 1000.000000000000000 ) ;
#465 = VECTOR ( 'NONE', #1019, 1000.000000000000000 ) ;
#466 = AXIS2_PLACEMENT_3D ( 'NONE', #780, #49, #680 ) ;
#467 = LINE ( 'NONE', #121, #804 ) ;
#468 = ORIENTED_EDGE ( 'NONE', *, *, #852, .F. ) ;
#469 = PLANE ( 'NONE',  #452 ) ;
#470 = VERTEX_POINT ( 'NONE', #314 ) ;
#471 = APPLICATION_CONTEXT ( 'automotive_design' ) ;
#472 = DIRECTION ( 'NONE',  ( 1.000000000000000000, -6.367124396146892223E-31, 1.239088197126290077E-16 ) ) ;
#473 = EDGE_CURVE ( 'NONE', #815, #670, #221, .T. ) ;
#474 = ORIENTED_EDGE ( 'NONE', *, *, #113, .F. ) ;
#475 = DIRECTION ( 'NONE',  ( -8.761676666762117330E-17, 0.7071067811865450192, 0.7071067811865500152 ) ) ;
#476 = EDGE_CURVE ( 'NONE', #326, #1189, #565, .T. ) ;
#477 = ORIENTED_EDGE ( 'NONE', *, *, #476, .T. ) ;
#478 = EDGE_CURVE ( 'NONE', #861, #274, #919, .T. ) ;
#479 = ORIENTED_EDGE ( 'NONE', *, *, #831, .T. ) ;
#480 = DIRECTION ( 'NONE',  ( 6.367124396146892223E-31, 1.000000000000000000, -4.668657484706398495E-44 ) ) ;
#481 = ORIENTED_EDGE ( 'NONE', *, *, #473, .T. ) ;
#482 = CYLINDRICAL_SURFACE ( 'NONE', #272, 0.9000000000010925927 ) ;
#483 =( LENGTH_UNIT ( ) NAMED_UNIT ( * ) SI_UNIT ( .MILLI., .METRE. ) );
#484 = ORIENTED_EDGE ( 'NONE', *, *, #343, .F. ) ;
#485 = ORIENTED_EDGE ( 'NONE', *, *, #1034, .F. ) ;
#486 = CARTESIAN_POINT ( 'NONE',  ( 4.850000000000006750, 1.368931745171581513E-30, -3.124999999999998224 ) ) ;
#487 = VECTOR ( 'NONE', #210, 1000.000000000000000 ) ;
#488 = AXIS2_PLACEMENT_3D ( 'NONE', #353, #91, #267 ) ;
#489 = LINE ( 'NONE', #142, #781 ) ;
#490 = EDGE_LOOP ( 'NONE', ( #773, #477, #269, #692, #736, #829, #198, #839, #541, #107, #584, #662, #1183, #727 ) ) ;
#491 = DIRECTION ( 'NONE',  ( -1.000000000000000000, 0.000000000000000000, 0.000000000000000000 ) ) ;
#492 = ORIENTED_EDGE ( 'NONE', *, *, #203, .F. ) ;
#493 = EDGE_CURVE ( 'NONE', #1079, #385, #932, .T. ) ;
#494 = DIRECTION ( 'NONE',  ( -1.000000000000000000, 0.000000000000000000, -1.239088197126290077E-16 ) ) ;
#495 =( NAMED_UNIT ( * ) PLANE_ANGLE_UNIT ( ) SI_UNIT ( $, .RADIAN. ) );
#496 = ORIENTED_EDGE ( 'NONE', *, *, #1064, .F. ) ;
#497 = CARTESIAN_POINT ( 'NONE',  ( 6.195440985631200170E-17, -2.000000000000000000, -0.4999999999999900080 ) ) ;
#498 = CARTESIAN_POINT ( 'NONE',  ( 2.000000000000006661, 4.000000000000000000, -19.99999999999990763 ) ) ;
#499 = PRESENTATION_STYLE_ASSIGNMENT (( #1043 ) ) ;
#500 = VERTEX_POINT ( 'NONE', #292 ) ;
#501 = DIRECTION ( 'NONE',  ( 1.000000000000000000, 0.000000000000000000, 1.239088197126290077E-16 ) ) ;
#502 = DIRECTION ( 'NONE',  ( -6.367124396146892223E-31, -1.000000000000000000, 4.668657484706398495E-44 ) ) ;
#503 = CARTESIAN_POINT ( 'NONE',  ( 0.000000000000000000, 4.000000000000000000, 0.000000000000000000 ) ) ;
#504 = CARTESIAN_POINT ( 'NONE',  ( 6.195440985631200170E-17, -2.000000000000000000, -0.4999999999999900080 ) ) ;
#505 = VECTOR ( 'NONE', #11, 1000.000000000000000 ) ;
#506 = FACE_OUTER_BOUND ( 'NONE', #112, .T. ) ;
#507 =( GEOMETRIC_REPRESENTATION_CONTEXT ( 3 ) GLOBAL_UNCERTAINTY_ASSIGNED_CONTEXT ( ( #817 ) ) GLOBAL_UNIT_ASSIGNED_CONTEXT ( ( #483, #495, #855 ) ) REPRESENTATION_CONTEXT ( 'NONE', 'WORKASPACE' ) );
#508 = EDGE_LOOP ( 'NONE', ( #485, #706, #73, #1086 ) ) ;
#509 = EDGE_CURVE ( 'NONE', #969, #1160, #32, .T. ) ;
#510 = PLANE ( 'NONE',  #843 ) ;
#511 = CARTESIAN_POINT ( 'NONE',  ( 14.00000000000000711, 4.000000000000000000, -19.99999999999990763 ) ) ;
#512 = CARTESIAN_POINT ( 'NONE',  ( 2.000000000000006661, 4.000000000000000000, -19.99999999999990763 ) ) ;
#513 = LINE ( 'NONE', #669, #857 ) ;
#514 = VERTEX_POINT ( 'NONE', #486 ) ;
#515 = EDGE_CURVE ( 'NONE', #1008, #800, #1069, .T. ) ;
#516 = EDGE_CURVE ( 'NONE', #1049, #1079, #25, .T. ) ;
#517 = DIRECTION ( 'NONE',  ( -1.000000000000000000, 6.367124396146892223E-31, -1.239088197126290077E-16 ) ) ;
#518 = CARTESIAN_POINT ( 'NONE',  ( 2.500000000000003997, 1.386301758170906037E-59, -6.250000000000000000 ) ) ;
#519 = CARTESIAN_POINT ( 'NONE',  ( 1.316495309083386868E-15, -10.00000000000000000, -16.99999999999990763 ) ) ;
#520 = ORIENTED_EDGE ( 'NONE', *, *, #442, .T. ) ;
#521 = DIRECTION ( 'NONE',  ( -1.239088197126290077E-16, 4.676546913395298908E-44, 1.000000000000000000 ) ) ;
#522 = CARTESIAN_POINT ( 'NONE',  ( 11.50000000000001243, 0.000000000000000000, -6.249999999999999112 ) ) ;
#523 = CARTESIAN_POINT ( 'NONE',  ( -9.462128050783054241E-16, 4.000000000000000000, 3.000000000000003553 ) ) ;
#524 = EDGE_CURVE ( 'NONE', #1146, #969, #668, .T. ) ;
#525 = VECTOR ( 'NONE', #1065, 1000.000000000000000 ) ;
#526 = LINE ( 'NONE', #330, #451 ) ;
#527 = CIRCLE ( 'NONE', #655, 2.000000000000000444 ) ;
#528 = AXIS2_PLACEMENT_3D ( 'NONE', #402, #1141, #778 ) ;
#529 = EDGE_LOOP ( 'NONE', ( #579, #849, #208, #246 ) ) ;
#530 = DIRECTION ( 'NONE',  ( -6.367124396146892223E-31, -1.000000000000000000, 4.668657484706398495E-44 ) ) ;
#531 = EDGE_CURVE ( 'NONE', #577, #1015, #599, .T. ) ;
#532 = FACE_OUTER_BOUND ( 'NONE', #125, .T. ) ;
#533 = LINE ( 'NONE', #710, #449 ) ;
#534 = EDGE_CURVE ( 'NONE', #897, #251, #663, .T. ) ;
#535 = DIRECTION ( 'NONE',  ( 0.000000000000000000, -1.000000000000000000, 0.000000000000000000 ) ) ;
#536 = ORIENTED_EDGE ( 'NONE', *, *, #1085, .F. ) ;
#537 = CARTESIAN_POINT ( 'NONE',  ( 9.150000000000005684, -1.368931745171581513E-30, -3.124999999999998224 ) ) ;
#538 = ORIENTED_EDGE ( 'NONE', *, *, #75, .T. ) ;
#539 = LINE ( 'NONE', #902, #673 ) ;
#540 = CARTESIAN_POINT ( 'NONE',  ( 0.000000000000000000, 4.000000000000000000, 5.000000000000004441 ) ) ;
#541 = ORIENTED_EDGE ( 'NONE', *, *, #1156, .T. ) ;
#542 = DIRECTION ( 'NONE',  ( 0.000000000000000000, -1.000000000000000000, 0.000000000000000000 ) ) ;
#543 = DIRECTION ( 'NONE',  ( 6.367124396146892223E-31, 1.000000000000000000, 0.000000000000000000 ) ) ;
#544 = AXIS2_PLACEMENT_3D ( 'NONE', #1013, #89, #1143 ) ;
#545 = EDGE_LOOP ( 'NONE', ( #905, #492, #940, #752 ) ) ;
#546 = EDGE_CURVE ( 'NONE', #514, #577, #467, .T. ) ;
#547 = AXIS2_PLACEMENT_3D ( 'NONE', #764, #1132, #844 ) ;
#548 = CARTESIAN_POINT ( 'NONE',  ( 11.50000000000001243, 1.890641104811397501E-46, -6.249999999999999112 ) ) ;
#549 = ORIENTED_EDGE ( 'NONE', *, *, #103, .T. ) ;
#550 = CARTESIAN_POINT ( 'NONE',  ( 9.000000000000010658, 4.000000000000000000, -18.49999999999994316 ) ) ;
#551 = EDGE_CURVE ( 'NONE', #1160, #500, #1124, .T. ) ;
#552 = ORIENTED_EDGE ( 'NONE', *, *, #534, .T. ) ;
#553 = ORIENTED_EDGE ( 'NONE', *, *, #877, .F. ) ;
#554 = CARTESIAN_POINT ( 'NONE',  ( 2.000000000000006661, 4.000000000000000000, -21.99999999999990763 ) ) ;
#555 = ORIENTED_EDGE ( 'NONE', *, *, #1163, .F. ) ;
#556 = CARTESIAN_POINT ( 'NONE',  ( 2.000000000000006661, 4.000000000000000000, -21.99999999999990763 ) ) ;
#557 = ORIENTED_EDGE ( 'NONE', *, *, #493, .F. ) ;
#558 = ORIENTED_EDGE ( 'NONE', *, *, #22, .F. ) ;
#559 = DIRECTION ( 'NONE',  ( 1.000000000000000000, -6.367124396146892223E-31, 1.239088197126290077E-16 ) ) ;
#560 = VERTEX_POINT ( 'NONE', #848 ) ;
#561 = VECTOR ( 'NONE', #448, 1000.000000000000000 ) ;
#562 = ADVANCED_FACE ( 'NONE', ( #853 ), #41, .F. ) ;
#563 = AXIS2_PLACEMENT_3D ( 'NONE', #694, #51, #1070 ) ;
#564 = VECTOR ( 'NONE', #215, 1000.000000000000000 ) ;
#565 = LINE ( 'NONE', #393, #465 ) ;
#566 = EDGE_CURVE ( 'NONE', #251, #851, #821, .T. ) ;
#567 = DIRECTION ( 'NONE',  ( 6.367124396146892223E-31, 1.000000000000000000, -4.668657484706398495E-44 ) ) ;
#568 = CARTESIAN_POINT ( 'NONE',  ( 12.00000000000001243, 4.000000000000000000, 5.000000000000002665 ) ) ;
#569 = CARTESIAN_POINT ( 'NONE',  ( 14.00000000000000711, -5.250000000000000000, -21.99999999999990763 ) ) ;
#570 = DIRECTION ( 'NONE',  ( 2.571758278209442450E-16, -4.685032189580578890E-44, -1.000000000000000000 ) ) ;
#571 = EDGE_LOOP ( 'NONE', ( #837, #552, #139, #391, #214, #299, #2, #1039, #1103, #830, #417, #47, #461 ) ) ;
#572 = CARTESIAN_POINT ( 'NONE',  ( 12.00000000000001243, 6.367124396147704976E-30, 5.000000000000002665 ) ) ;
#573 = ORIENTED_EDGE ( 'NONE', *, *, #516, .T. ) ;
#574 = VERTEX_POINT ( 'NONE', #650 ) ;
#575 = DIRECTION ( 'NONE',  ( -4.502236837173784631E-31, -0.7071067811865500152, -0.7071067811865450192 ) ) ;
#576 = ORIENTED_EDGE ( 'NONE', *, *, #476, .F. ) ;
#577 = VERTEX_POINT ( 'NONE', #658 ) ;
#578 = FILL_AREA_STYLE_COLOUR ( '', #621 ) ;
#579 = ORIENTED_EDGE ( 'NONE', *, *, #1033, .F. ) ;
#580 = VECTOR ( 'NONE', #567, 1000.000000000000000 ) ;
#581 = CIRCLE ( 'NONE', #563, 2.250000000000001776 ) ;
#582 = CARTESIAN_POINT ( 'NONE',  ( 14.00000000000001243, -2.000000000000000000, -6.249999999999998224 ) ) ;
#583 = DIRECTION ( 'NONE',  ( -6.367124396146892223E-31, -1.000000000000000000, 4.668657484706398495E-44 ) ) ;
#584 = ORIENTED_EDGE ( 'NONE', *, *, #191, .T. ) ;
#585 = CARTESIAN_POINT ( 'NONE',  ( 14.00000000000001243, 4.000000000000000000, 3.000000000000002665 ) ) ;
#586 = DIRECTION ( 'NONE',  ( -1.000000000000000000, 0.000000000000000000, 0.000000000000000000 ) ) ;
#587 = CARTESIAN_POINT ( 'NONE',  ( 14.00000000000001243, -1.500000000000006439, 1.734723475976807094E-15 ) ) ;
#588 = CARTESIAN_POINT ( 'NONE',  ( 9.900000000001103473, -5.730411956539156419E-31, -11.99999999999994316 ) ) ;
#589 = ORIENTED_EDGE ( 'NONE', *, *, #328, .T. ) ;
#590 = CARTESIAN_POINT ( 'NONE',  ( 7.000000000000006217, 4.000000000000000000, -3.124999999999998224 ) ) ;
#591 = FACE_OUTER_BOUND ( 'NONE', #450, .T. ) ;
#592 = CARTESIAN_POINT ( 'NONE',  ( 8.750000000000007105, 0.7500000000000000000, -21.99999999999990763 ) ) ;
#593 = VERTEX_POINT ( 'NONE', #928 ) ;
#594 = DIRECTION ( 'NONE',  ( -1.000000000000000000, 0.000000000000000000, 0.000000000000000000 ) ) ;
#595 = CARTESIAN_POINT ( 'NONE',  ( 0.000000000000000000, 4.000000000000000000, 0.000000000000000000 ) ) ;
#596 = DIRECTION ( 'NONE',  ( -1.419949629397821250E-29, -4.892717259471157688E-44, 1.000000000000000000 ) ) ;
#597 = AXIS2_PLACEMENT_3D ( 'NONE', #697, #46, #494 ) ;
#598 = DIRECTION ( 'NONE',  ( 3.154042683594347469E-16, 4.527277430018551214E-44, -1.000000000000000000 ) ) ;
#599 = CIRCLE ( 'NONE', #1128, 2.149999999999999023 ) ;
#600 = EDGE_CURVE ( 'NONE', #1008, #560, #460, .T. ) ;
#601 = EDGE_CURVE ( 'NONE', #122, #657, #1032, .T. ) ;
#602 = DIRECTION ( 'NONE',  ( 0.000000000000000000, 1.000000000000000000, 0.000000000000000000 ) ) ;
#603 = PRODUCT_DEFINITION ( 'UNKNOWN', '', #194, #626 ) ;
#604 = ORIENTED_EDGE ( 'NONE', *, *, #865, .F. ) ;
#605 = DIRECTION ( 'NONE',  ( 6.367124396146892223E-31, 1.000000000000000000, -4.668657484706398495E-44 ) ) ;
#606 = FACE_BOUND ( 'NONE', #38, .T. ) ;
#607 = PLANE ( 'NONE',  #195 ) ;
#608 = CARTESIAN_POINT ( 'NONE',  ( 9.900000000001103473, -5.730411956539159922E-31, -18.49999999999994316 ) ) ;
#609 = DIRECTION ( 'NONE',  ( 1.000000000000000000, -6.367124396146892223E-31, 1.239088197126290077E-16 ) ) ;
#610 = DIRECTION ( 'NONE',  ( -1.000000000000000000, 6.367124396146892223E-31, -1.239088197126290077E-16 ) ) ;
#611 = LINE ( 'NONE', #174, #395 ) ;
#612 = EDGE_LOOP ( 'NONE', ( #573, #95, #1063, #538 ) ) ;
#613 = DIRECTION ( 'NONE',  ( 6.367124396146892223E-31, 1.000000000000000000, -4.668657484706398495E-44 ) ) ;
#614 = CARTESIAN_POINT ( 'NONE',  ( 14.00000000000001421, -0.9999999999999991118, -16.99999999999991118 ) ) ;
#615 = EDGE_LOOP ( 'NONE', ( #63, #557, #956, #955, #934, #1042 ) ) ;
#616 = CARTESIAN_POINT ( 'NONE',  ( 7.000000000000006217, 0.000000000000000000, -3.124999999999998224 ) ) ;
#617 = DIRECTION ( 'NONE',  ( 1.000000000000000000, -0.000000000000000000, -0.000000000000000000 ) ) ;
#618 = VECTOR ( 'NONE', #400, 1000.000000000000000 ) ;
#619 = DIRECTION ( 'NONE',  ( 6.367124396146892223E-31, 1.000000000000000000, -4.668657484706398495E-44 ) ) ;
#620 = CIRCLE ( 'NONE', #288, 0.9000000000010925927 ) ;
#621 = COLOUR_RGB ( '',0.7921568627450980005, 0.8196078431372548767, 0.9333333333333333481 ) ;
#622 = LINE ( 'NONE', #186, #819 ) ;
#623 = CARTESIAN_POINT ( 'NONE',  ( 11.50000000000001243, 10.95730350040557077, -6.249999999999999112 ) ) ;
#624 = ORIENTED_EDGE ( 'NONE', *, *, #1178, .T. ) ;
#625 = LINE ( 'NONE', #808, #82 ) ;
#626 = PRODUCT_DEFINITION_CONTEXT ( 'detailed design', #471, 'design' ) ;
#627 = DIRECTION ( 'NONE',  ( 6.367124396146892223E-31, 1.000000000000000000, -4.668657484706398495E-44 ) ) ;
#628 = EDGE_CURVE ( 'NONE', #757, #382, #620, .T. ) ;
#629 = ORIENTED_EDGE ( 'NONE', *, *, #478, .T. ) ;
#630 = EDGE_CURVE ( 'NONE', #1015, #577, #211, .T. ) ;
#631 = LINE ( 'NONE', #378, #564 ) ;
#632 = VECTOR ( 'NONE', #751, 1000.000000000000000 ) ;
#633 = ORIENTED_EDGE ( 'NONE', *, *, #689, .T. ) ;
#634 = AXIS2_PLACEMENT_3D ( 'NONE', #170, #176, #896 ) ;
#635 = CIRCLE ( 'NONE', #822, 0.9000000000010925927 ) ;
#636 = CARTESIAN_POINT ( 'NONE',  ( 2.500000000000003997, 0.000000000000000000, -6.250000000000000000 ) ) ;
#637 = ORIENTED_EDGE ( 'NONE', *, *, #838, .F. ) ;
#638 = ORIENTED_EDGE ( 'NONE', *, *, #1076, .F. ) ;
#639 = DIRECTION ( 'NONE',  ( -1.000000000000000000, 6.367124396146892223E-31, 0.000000000000000000 ) ) ;
#640 = ORIENTED_EDGE ( 'NONE', *, *, #117, .T. ) ;
#641 = CARTESIAN_POINT ( 'NONE',  ( 2.500000000000003997, -2.000000000000000000, -0.4999999999999899525 ) ) ;
#642 = ORIENTED_EDGE ( 'NONE', *, *, #904, .F. ) ;
#643 = ORIENTED_EDGE ( 'NONE', *, *, #831, .F. ) ;
#644 = CARTESIAN_POINT ( 'NONE',  ( 1.999999999999999556, 4.000000000000000000, 5.000000000000004441 ) ) ;
#645 = EDGE_CURVE ( 'NONE', #973, #684, #796, .T. ) ;
#646 = ORIENTED_EDGE ( 'NONE', *, *, #1074, .T. ) ;
#647 = EDGE_CURVE ( 'NONE', #102, #747, #527, .T. ) ;
#648 = EDGE_CURVE ( 'NONE', #307, #769, #1169, .T. ) ;
#649 = EDGE_LOOP ( 'NONE', ( #671, #172 ) ) ;
#650 = CARTESIAN_POINT ( 'NONE',  ( 5.075582514019949851E-15, -2.000000000000000000, -5.750000000000010658 ) ) ;
#651 = CARTESIAN_POINT ( 'NONE',  ( 14.00000000000001243, -2.000000000000000000, -6.249999999999998224 ) ) ;
#652 = LINE ( 'NONE', #206, #58 ) ;
#653 = ORIENTED_EDGE ( 'NONE', *, *, #86, .F. ) ;
#654 = VECTOR ( 'NONE', #438, 1000.000000000000000 ) ;
#655 = AXIS2_PLACEMENT_3D ( 'NONE', #59, #166, #893 ) ;
#656 = VECTOR ( 'NONE', #1071, 1000.000000000000000 ) ;
#657 = VERTEX_POINT ( 'NONE', #783 ) ;
#658 = CARTESIAN_POINT ( 'NONE',  ( 4.850000000000006750, 4.000000000000000000, -3.124999999999998224 ) ) ;
#659 = PLANE ( 'NONE',  #77 ) ;
#660 = ORIENTED_EDGE ( 'NONE', *, *, #440, .F. ) ;
#661 = CARTESIAN_POINT ( 'NONE',  ( 5.250000000000006217, 0.7499999999999997780, -21.99999999999990763 ) ) ;
#662 = ORIENTED_EDGE ( 'NONE', *, *, #820, .F. ) ;
#663 = LINE ( 'NONE', #127, #505 ) ;
#664 = CARTESIAN_POINT ( 'NONE',  ( 14.00000000000001243, -8.913974154605947589E-30, -6.249999999999998224 ) ) ;
#665 = EDGE_CURVE ( 'NONE', #745, #894, #581, .T. ) ;
#666 = FILL_AREA_STYLE ('',( #578 ) ) ;
#667 = ORIENTED_EDGE ( 'NONE', *, *, #515, .T. ) ;
#668 = LINE ( 'NONE', #204, #698 ) ;
#669 = CARTESIAN_POINT ( 'NONE',  ( 5.204170427930419706E-15, -2.000000000000000000, -6.250000000000000000 ) ) ;
#670 = VERTEX_POINT ( 'NONE', #1151 ) ;
#671 = ORIENTED_EDGE ( 'NONE', *, *, #442, .F. ) ;
#672 = FACE_OUTER_BOUND ( 'NONE', #746, .T. ) ;
#673 = VECTOR ( 'NONE', #85, 1000.000000000000000 ) ;
#674 = VECTOR ( 'NONE', #975, 1000.000000000000000 ) ;
#675 = CARTESIAN_POINT ( 'NONE',  ( 8.099999999998919620, -2.000000000000000000, -11.99999999999994316 ) ) ;
#676 = VECTOR ( 'NONE', #1108, 1000.000000000000000 ) ;
#677 = CARTESIAN_POINT ( 'NONE',  ( 1.316495309083386868E-15, -10.00000000000000000, -16.99999999999990763 ) ) ;
#678 = CARTESIAN_POINT ( 'NONE',  ( 9.150000000000005684, 4.000000000000000000, -3.124999999999998224 ) ) ;
#679 = ORIENTED_EDGE ( 'NONE', *, *, #873, .F. ) ;
#680 = DIRECTION ( 'NONE',  ( -3.154042683594343032E-16, 0.000000000000000000, 1.000000000000000000 ) ) ;
#681 = CARTESIAN_POINT ( 'NONE',  ( 0.000000000000000000, 0.000000000000000000, 0.000000000000000000 ) ) ;
#682 = CARTESIAN_POINT ( 'NONE',  ( 0.000000000000000000, 0.000000000000000000, 0.000000000000000000 ) ) ;
#683 = DIRECTION ( 'NONE',  ( 0.000000000000000000, 0.000000000000000000, 1.000000000000000000 ) ) ;
#684 = VERTEX_POINT ( 'NONE', #331 ) ;
#685 = ADVANCED_FACE ( 'NONE', ( #1054 ), #426, .F. ) ;
#686 = DIRECTION ( 'NONE',  ( -1.000000000000000000, -6.367124396147564847E-31, 1.419949629397821250E-29 ) ) ;
#687 = EDGE_CURVE ( 'NONE', #317, #897, #12, .T. ) ;
#688 = LINE ( 'NONE', #141, #881 ) ;
#689 = EDGE_CURVE ( 'NONE', #207, #470, #337, .T. ) ;
#690 = CARTESIAN_POINT ( 'NONE',  ( 9.900000000001103473, 4.000000000000000000, -11.99999999999994316 ) ) ;
#691 = DIRECTION ( 'NONE',  ( -6.367124396146892223E-31, -1.000000000000000000, 4.668657484706398495E-44 ) ) ;
#692 = ORIENTED_EDGE ( 'NONE', *, *, #278, .F. ) ;
#693 = CARTESIAN_POINT ( 'NONE',  ( 5.204170427930419706E-15, -1.500000000000006439, -6.250000000000000000 ) ) ;
#694 = CARTESIAN_POINT ( 'NONE',  ( 5.250000000000006217, -3.000000000000000000, -21.99999999999990763 ) ) ;
#695 = AXIS2_PLACEMENT_3D ( 'NONE', #719, #1177, #1166 ) ;
#696 = LINE ( 'NONE', #522, #656 ) ;
#697 = CARTESIAN_POINT ( 'NONE',  ( 3.596821504049518519E-15, -2.000000000000000000, 9.337314969412796990E-44 ) ) ;
#698 = VECTOR ( 'NONE', #472, 1000.000000000000000 ) ;
#699 = CYLINDRICAL_SURFACE ( 'NONE', #634, 2.149999999999999023 ) ;
#700 = VECTOR ( 'NONE', #459, 1000.000000000000000 ) ;
#701 = CARTESIAN_POINT ( 'NONE',  ( 3.596821504049518519E-15, -1.500000000000006439, 7.002986227059627613E-44 ) ) ;
#702 = DIRECTION ( 'NONE',  ( 6.367124396146892223E-31, 1.000000000000000000, -4.668657484706398495E-44 ) ) ;
#703 = DIRECTION ( 'NONE',  ( -2.230244969721371291E-16, 0.7071067811865500152, 0.7071067811865450192 ) ) ;
#704 = LINE ( 'NONE', #1092, #561 ) ;
#705 = CARTESIAN_POINT ( 'NONE',  ( 14.00000000000000888, -0.9999999999999991118, -15.99999999999990941 ) ) ;
#706 = ORIENTED_EDGE ( 'NONE', *, *, #733, .F. ) ;
#707 = DIRECTION ( 'NONE',  ( 1.000000000000000000, -0.000000000000000000, -0.000000000000000000 ) ) ;
#708 = CARTESIAN_POINT ( 'NONE',  ( 1.971276677246466971E-15, 2.829548393761594509E-43, -6.249999999999999112 ) ) ;
#709 = ORIENTED_EDGE ( 'NONE', *, *, #1120, .F. ) ;
#710 = CARTESIAN_POINT ( 'NONE',  ( 14.00000000000000711, -0.7499999999999997780, -21.99999999999990763 ) ) ;
#711 = DIRECTION ( 'NONE',  ( -1.000000000000000000, 6.367124396146889596E-31, 0.000000000000000000 ) ) ;
#712 = CARTESIAN_POINT ( 'NONE',  ( 14.00000000000000711, 4.000000000000000000, -19.99999999999990763 ) ) ;
#713 = VERTEX_POINT ( 'NONE', #68 ) ;
#714 = FACE_OUTER_BOUND ( 'NONE', #213, .T. ) ;
#715 = DIRECTION ( 'NONE',  ( 0.000000000000000000, 1.000000000000000000, 0.000000000000000000 ) ) ;
#716 = PLANE ( 'NONE',  #268 ) ;
#717 = AXIS2_PLACEMENT_3D ( 'NONE', #1059, #605, #791 ) ;
#718 = VECTOR ( 'NONE', #407, 1000.000000000000000 ) ;
#719 = CARTESIAN_POINT ( 'NONE',  ( 0.000000000000000000, 0.000000000000000000, 0.000000000000000000 ) ) ;
#720 = AXIS2_PLACEMENT_3D ( 'NONE', #157, #36, #866 ) ;
#721 = VERTEX_POINT ( 'NONE', #886 ) ;
#722 = DIRECTION ( 'NONE',  ( 6.367124396146892223E-31, 1.000000000000000000, -4.668657484706398495E-44 ) ) ;
#723 = EDGE_CURVE ( 'NONE', #470, #800, #688, .T. ) ;
#724 = ORIENTED_EDGE ( 'NONE', *, *, #143, .F. ) ;
#725 = DIRECTION ( 'NONE',  ( 1.000000000000000000, 0.000000000000000000, -1.419949629397821530E-29 ) ) ;
#726 = CARTESIAN_POINT ( 'NONE',  ( -1.273424879229378445E-30, -2.000000000000000000, 9.337314969412796990E-44 ) ) ;
#727 = ORIENTED_EDGE ( 'NONE', *, *, #516, .F. ) ;
#728 = UNCERTAINTY_MEASURE_WITH_UNIT (LENGTH_MEASURE( 1.000000000000000082E-05 ), #443, 'distance_accuracy_value', 'NONE');
#729 = EDGE_CURVE ( 'NONE', #251, #953, #248, .T. ) ;
#730 = CARTESIAN_POINT ( 'NONE',  ( 2.500000000000003997, 10.95730350040557077, -6.250000000000000000 ) ) ;
#731 = ADVANCED_FACE ( 'NONE', ( #76 ), #794, .F. ) ;
#732 = CARTESIAN_POINT ( 'NONE',  ( 5.250000000000007105, 0.7500000000000000000, -21.99999999999990763 ) ) ;
#733 = EDGE_CURVE ( 'NONE', #973, #930, #782, .T. ) ;
#734 = ORIENTED_EDGE ( 'NONE', *, *, #786, .F. ) ;
#735 = DIRECTION ( 'NONE',  ( 6.367124396146892223E-31, 1.000000000000000000, -4.668657484706398495E-44 ) ) ;
#736 = ORIENTED_EDGE ( 'NONE', *, *, #1076, .T. ) ;
#737 = ORIENTED_EDGE ( 'NONE', *, *, #96, .F. ) ;
#738 = VECTOR ( 'NONE', #1181, 1000.000000000000000 ) ;
#739 = CARTESIAN_POINT ( 'NONE',  ( 2.000000000000006661, -1.273424879230316439E-30, -19.99999999999990763 ) ) ;
#740 = VECTOR ( 'NONE', #598, 1000.000000000000000 ) ;
#741 = ORIENTED_EDGE ( 'NONE', *, *, #362, .T. ) ;
#742 = VECTOR ( 'NONE', #744, 1000.000000000000000 ) ;
#743 = EDGE_CURVE ( 'NONE', #670, #178, #138, .T. ) ;
#744 = DIRECTION ( 'NONE',  ( -6.367124396146892223E-31, -1.000000000000000000, 4.668657484706398495E-44 ) ) ;
#745 = VERTEX_POINT ( 'NONE', #1159 ) ;
#746 = EDGE_LOOP ( 'NONE', ( #282, #576, #334, #72 ) ) ;
#747 = VERTEX_POINT ( 'NONE', #339 ) ;
#748 = DIRECTION ( 'NONE',  ( 1.000000000000000000, -0.000000000000000000, -0.000000000000000000 ) ) ;
#749 = ORIENTED_EDGE ( 'NONE', *, *, #733, .T. ) ;
#750 = CARTESIAN_POINT ( 'NONE',  ( 1.999999999999999112, 4.000000000000000000, 3.000000000000003997 ) ) ;
#751 = DIRECTION ( 'NONE',  ( 6.367124396146892223E-31, 1.000000000000000000, -4.668657484706398495E-44 ) ) ;
#752 = ORIENTED_EDGE ( 'NONE', *, *, #665, .T. ) ;
#753 = DIRECTION ( 'NONE',  ( 1.000000000000000000, 0.000000000000000000, -0.000000000000000000 ) ) ;
#754 = ORIENTED_EDGE ( 'NONE', *, *, #765, .T. ) ;
#755 = EDGE_LOOP ( 'NONE', ( #754, #401, #633, #978 ) ) ;
#756 = DIRECTION ( 'NONE',  ( -1.000000000000000000, 0.000000000000000000, 0.000000000000000000 ) ) ;
#757 = VERTEX_POINT ( 'NONE', #608 ) ;
#758 = DIRECTION ( 'NONE',  ( 1.239088197126411365E-16, -0.000000000000000000, 1.000000000000000000 ) ) ;
#759 = EDGE_LOOP ( 'NONE', ( #520, #646, #878, #807 ) ) ;
#760 = AXIS2_PLACEMENT_3D ( 'NONE', #998, #707, #1080 ) ;
#761 = AXIS2_PLACEMENT_3D ( 'NONE', #154, #702, #415 ) ;
#762 = VECTOR ( 'NONE', #439, 1000.000000000000000 ) ;
#763 = ORIENTED_EDGE ( 'NONE', *, *, #456, .T. ) ;
#764 = CARTESIAN_POINT ( 'NONE',  ( 5.250000000000006217, -3.000000000000000000, -21.99999999999990763 ) ) ;
#765 = EDGE_CURVE ( 'NONE', #560, #1123, #984, .T. ) ;
#766 = ORIENTED_EDGE ( 'NONE', *, *, #343, .T. ) ;
#767 = DIRECTION ( 'NONE',  ( -1.000000000000000000, 0.000000000000000000, 0.000000000000000000 ) ) ;
#768 = CARTESIAN_POINT ( 'NONE',  ( 11.50000000000001243, -1.999999999999999112, -5.750000000000009770 ) ) ;
#769 = VERTEX_POINT ( 'NONE', #799 ) ;
#770 = ORIENTED_EDGE ( 'NONE', *, *, #551, .F. ) ;
#771 = DIRECTION ( 'NONE',  ( -1.000000000000000000, 0.000000000000000000, 0.000000000000000000 ) ) ;
#772 = CARTESIAN_POINT ( 'NONE',  ( 6.308085367188659440E-15, -10.00000000000000000, -19.99999999999990763 ) ) ;
#773 = ORIENTED_EDGE ( 'NONE', *, *, #824, .T. ) ;
#774 = ORIENTED_EDGE ( 'NONE', *, *, #689, .F. ) ;
#775 = EDGE_CURVE ( 'NONE', #1189, #802, #858, .T. ) ;
#776 = DIRECTION ( 'NONE',  ( 6.367124396146892223E-31, 1.000000000000000000, -4.668657484706398495E-44 ) ) ;
#777 = CARTESIAN_POINT ( 'NONE',  ( 12.00000000000001243, 4.000000000000000000, 3.000000000000003109 ) ) ;
#778 = DIRECTION ( 'NONE',  ( -1.419949629397821250E-29, -4.892717259471157688E-44, 1.000000000000000000 ) ) ;
#779 = ORIENTED_EDGE ( 'NONE', *, *, #1031, .F. ) ;
#780 = CARTESIAN_POINT ( 'NONE',  ( 5.046468293750926763E-15, -0.9999999999999991118, -15.99999999999990585 ) ) ;
#781 = VECTOR ( 'NONE', #1055, 1000.000000000000000 ) ;
#782 = CIRCLE ( 'NONE', #937, 0.9000000000010925927 ) ;
#783 = CARTESIAN_POINT ( 'NONE',  ( 11.50000000000001243, -1.500000000000007772, 6.796347812843191851E-16 ) ) ;
#784 = PRESENTATION_LAYER_ASSIGNMENT (  '', '', ( #348 ) ) ;
#785 = PLANE ( 'NONE',  #1009 ) ;
#786 = EDGE_CURVE ( 'NONE', #800, #894, #71, .T. ) ;
#787 = PLANE ( 'NONE',  #922 ) ;
#788 = ORIENTED_EDGE ( 'NONE', *, *, #1178, .F. ) ;
#789 = ADVANCED_FACE ( 'NONE', ( #889 ), #699, .F. ) ;
#790 = CARTESIAN_POINT ( 'NONE',  ( 5.204170427930419706E-15, -1.500000000000006439, -6.250000000000000000 ) ) ;
#791 = DIRECTION ( 'NONE',  ( -1.000000000000000000, 0.000000000000000000, 0.000000000000000000 ) ) ;
#792 = DIRECTION ( 'NONE',  ( 0.000000000000000000, -1.000000000000000000, 0.000000000000000000 ) ) ;
#793 = LINE ( 'NONE', #338, #841 ) ;
#794 = CYLINDRICAL_SURFACE ( 'NONE', #271, 0.9000000000010925927 ) ;
#795 = ORIENTED_EDGE ( 'NONE', *, *, #277, .F. ) ;
#796 = LINE ( 'NONE', #675, #1147 ) ;
#797 = ORIENTED_EDGE ( 'NONE', *, *, #566, .F. ) ;
#798 = PLANE ( 'NONE',  #597 ) ;
#799 = CARTESIAN_POINT ( 'NONE',  ( 14.00000000000001243, -1.550039139468184983E-43, 3.000000000000002665 ) ) ;
#800 = VERTEX_POINT ( 'NONE', #1078 ) ;
#801 = FACE_OUTER_BOUND ( 'NONE', #867, .T. ) ;
#802 = VERTEX_POINT ( 'NONE', #614 ) ;
#803 = DIRECTION ( 'NONE',  ( 1.419949629397821530E-29, -0.000000000000000000, 1.000000000000000000 ) ) ;
#804 = VECTOR ( 'NONE', #480, 1000.000000000000000 ) ;
#805 = DIRECTION ( 'NONE',  ( -1.000000000000000000, 0.000000000000000000, 0.000000000000000000 ) ) ;
#806 = VECTOR ( 'NONE', #171, 1000.000000000000000 ) ;
#807 = ORIENTED_EDGE ( 'NONE', *, *, #546, .F. ) ;
#808 = CARTESIAN_POINT ( 'NONE',  ( 7.124757133476168191E-16, -2.000000000000000000, -5.750000000000010658 ) ) ;
#809 = DIRECTION ( 'NONE',  ( -1.000000000000000000, 6.367124396146892223E-31, 0.000000000000000000 ) ) ;
#810 = APPLICATION_PROTOCOL_DEFINITION ( 'draft international standard', 'automotive_design', 1998, #471 ) ;
#811 = ORIENTED_EDGE ( 'NONE', *, *, #645, .F. ) ;
#812 = DIRECTION ( 'NONE',  ( -1.000000000000000000, 0.000000000000000000, 0.000000000000000000 ) ) ;
#813 = DIRECTION ( 'NONE',  ( 1.000000000000000000, -6.367124396146892223E-31, 1.239088197126290077E-16 ) ) ;
#814 = CARTESIAN_POINT ( 'NONE',  ( 8.750000000000007105, -5.250000000000000000, -21.99999999999990763 ) ) ;
#815 = VERTEX_POINT ( 'NONE', #992 ) ;
#816 = LINE ( 'NONE', #1096, #392 ) ;
#817 = UNCERTAINTY_MEASURE_WITH_UNIT (LENGTH_MEASURE( 1.000000000000000082E-05 ), #483, 'distance_accuracy_value', 'NONE');
#818 = CARTESIAN_POINT ( 'NONE',  ( 11.50000000000001243, -2.000000000000000000, -5.750000000000008882 ) ) ;
#819 = VECTOR ( 'NONE', #435, 1000.000000000000000 ) ;
#820 = EDGE_CURVE ( 'NONE', #847, #593, #526, .T. ) ;
#821 = CIRCLE ( 'NONE', #1051, 2.000000000000000000 ) ;
#822 = AXIS2_PLACEMENT_3D ( 'NONE', #151, #879, #594 ) ;
#823 = ORIENTED_EDGE ( 'NONE', *, *, #509, .F. ) ;
#824 = EDGE_CURVE ( 'NONE', #1049, #326, #162, .T. ) ;
#825 = ADVANCED_FACE ( 'NONE', ( #532 ), #987, .T. ) ;
#826 = ADVANCED_FACE ( 'NONE', ( #1081 ), #921, .T. ) ;
#827 = FACE_OUTER_BOUND ( 'NONE', #40, .T. ) ;
#828 = DIRECTION ( 'NONE',  ( -1.000000000000000000, 6.367124396146893975E-31, 0.000000000000000000 ) ) ;
#829 = ORIENTED_EDGE ( 'NONE', *, *, #328, .F. ) ;
#830 = ORIENTED_EDGE ( 'NONE', *, *, #865, .T. ) ;
#831 = EDGE_CURVE ( 'NONE', #200, #20, #652, .T. ) ;
#832 = DIRECTION ( 'NONE',  ( -6.367124396146892223E-31, -1.000000000000000000, 4.668657484706398495E-44 ) ) ;
#833 = ORIENTED_EDGE ( 'NONE', *, *, #352, .T. ) ;
#834 = CARTESIAN_POINT ( 'NONE',  ( 8.750000000000007105, -0.7499999999999997780, -21.99999999999990763 ) ) ;
#835 = ORIENTED_EDGE ( 'NONE', *, *, #278, .T. ) ;
#836 = CARTESIAN_POINT ( 'NONE',  ( 11.50000000000001243, -2.000000000000000888, -0.4999999999999892863 ) ) ;
#837 = ORIENTED_EDGE ( 'NONE', *, *, #191, .F. ) ;
#838 = EDGE_CURVE ( 'NONE', #1005, #721, #1115, .T. ) ;
#839 = ORIENTED_EDGE ( 'NONE', *, *, #859, .T. ) ;
#840 = ORIENTED_EDGE ( 'NONE', *, *, #309, .F. ) ;
#841 = VECTOR ( 'NONE', #1073, 1000.000000000000000 ) ;
#842 = AXIS2_PLACEMENT_3D ( 'NONE', #270, #722, #812 ) ;
#843 = AXIS2_PLACEMENT_3D ( 'NONE', #871, #970, #501 ) ;
#844 = DIRECTION ( 'NONE',  ( 0.000000000000000000, 0.000000000000000000, -1.000000000000000000 ) ) ;
#845 = CARTESIAN_POINT ( 'NONE',  ( 3.596821504049518519E-15, -2.000000000000000000, 9.337314969412796990E-44 ) ) ;
#846 = CARTESIAN_POINT ( 'NONE',  ( 11.50000000000001243, 10.95730350040557077, -6.249999999999999112 ) ) ;
#847 = VERTEX_POINT ( 'NONE', #931 ) ;
#848 = CARTESIAN_POINT ( 'NONE',  ( 8.750000000000007105, 0.7499999999999997780, -21.99999999999990763 ) ) ;
#849 = ORIENTED_EDGE ( 'NONE', *, *, #199, .F. ) ;
#850 = PLANE ( 'NONE',  #325 ) ;
#851 = VERTEX_POINT ( 'NONE', #644 ) ;
#852 = EDGE_CURVE ( 'NONE', #747, #462, #101, .T. ) ;
#853 = FACE_OUTER_BOUND ( 'NONE', #759, .T. ) ;
#854 = CYLINDRICAL_SURFACE ( 'NONE', #1104, 2.000000000000000000 ) ;
#855 =( NAMED_UNIT ( * ) SI_UNIT ( $, .STERADIAN. ) SOLID_ANGLE_UNIT ( ) );
#856 = ORIENTED_EDGE ( 'NONE', *, *, #226, .F. ) ;
#857 = VECTOR ( 'NONE', #70, 1000.000000000000000 ) ;
#858 = CIRCLE ( 'NONE', #347, 1.000000000000000888 ) ;
#859 = EDGE_CURVE ( 'NONE', #769, #982, #1030, .T. ) ;
#860 = AXIS2_PLACEMENT_3D ( 'NONE', #739, #832, #5 ) ;
#861 = VERTEX_POINT ( 'NONE', #383 ) ;
#862 = DIRECTION ( 'NONE',  ( -0.000000000000000000, -0.000000000000000000, -1.000000000000000000 ) ) ;
#863 = DIRECTION ( 'NONE',  ( -1.000000000000000000, 0.000000000000000000, -3.154042683594347469E-16 ) ) ;
#864 = ORIENTED_EDGE ( 'NONE', *, *, #219, .F. ) ;
#865 = EDGE_CURVE ( 'NONE', #1095, #574, #631, .T. ) ;
#866 = DIRECTION ( 'NONE',  ( 1.000000000000000000, -6.367124396146892223E-31, 1.239088197126290077E-16 ) ) ;
#867 = EDGE_LOOP ( 'NONE', ( #110, #951, #788, #202, #132, #413, #1029, #925 ) ) ;
#868 = DIRECTION ( 'NONE',  ( 0.000000000000000000, 1.000000000000000000, 0.000000000000000000 ) ) ;
#869 = CARTESIAN_POINT ( 'NONE',  ( 2.000000000000006661, -10.00000000000000000, -19.99999999999990763 ) ) ;
#870 = ORIENTED_EDGE ( 'NONE', *, *, #1034, .T. ) ;
#871 = CARTESIAN_POINT ( 'NONE',  ( 5.204170427930419706E-15, -2.000000000000000000, -6.250000000000000000 ) ) ;
#872 = LINE ( 'NONE', #329, #34 ) ;
#873 = EDGE_CURVE ( 'NONE', #894, #207, #1011, .T. ) ;
#874 = DIRECTION ( 'NONE',  ( -1.000000000000000000, 6.367124396146893099E-31, 0.000000000000000000 ) ) ;
#875 = DIRECTION ( 'NONE',  ( 6.367124396146892223E-31, 1.000000000000000000, -4.668657484706398495E-44 ) ) ;
#876 = ADVANCED_FACE ( 'NONE', ( #1021 ), #469, .F. ) ;
#877 = EDGE_CURVE ( 'NONE', #178, #200, #201, .T. ) ;
#878 = ORIENTED_EDGE ( 'NONE', *, *, #630, .T. ) ;
#879 = DIRECTION ( 'NONE',  ( 6.367124396146892223E-31, 1.000000000000000000, -4.668657484706398495E-44 ) ) ;
#880 = VECTOR ( 'NONE', #517, 1000.000000000000000 ) ;
#881 = VECTOR ( 'NONE', #421, 1000.000000000000000 ) ;
#882 = VECTOR ( 'NONE', #813, 1000.000000000000000 ) ;
#883 = CYLINDRICAL_SURFACE ( 'NONE', #358, 1.999999999999999556 ) ;
#884 = VERTEX_POINT ( 'NONE', #548 ) ;
#885 = DIRECTION ( 'NONE',  ( -1.000000000000000000, -5.305936996789749476E-31, 1.239088197126411365E-16 ) ) ;
#886 = CARTESIAN_POINT ( 'NONE',  ( 11.50000000000001243, -1.500000000000007550, -6.249999999999998224 ) ) ;
#887 = FACE_BOUND ( 'NONE', #87, .T. ) ;
#888 = LINE ( 'NONE', #42, #1167 ) ;
#889 = FACE_OUTER_BOUND ( 'NONE', #455, .T. ) ;
#890 = ORIENTED_EDGE ( 'NONE', *, *, #310, .F. ) ;
#891 = LINE ( 'NONE', #425, #654 ) ;
#892 = ADVANCED_FACE ( 'NONE', ( #300 ), #926, .F. ) ;
#893 = DIRECTION ( 'NONE',  ( 1.000000000000000000, 0.000000000000000000, 0.000000000000000000 ) ) ;
#894 = VERTEX_POINT ( 'NONE', #365 ) ;
#895 = CARTESIAN_POINT ( 'NONE',  ( 0.000000000000000000, 4.000000000000000000, -21.99999999999990763 ) ) ;
#896 = DIRECTION ( 'NONE',  ( -1.000000000000000000, 0.000000000000000000, 0.000000000000000000 ) ) ;
#897 = VERTEX_POINT ( 'NONE', #21 ) ;
#898 = CYLINDRICAL_SURFACE ( 'NONE', #361, 2.250000000000001776 ) ;
#899 = VECTOR ( 'NONE', #453, 1000.000000000000000 ) ;
#900 = DIRECTION ( 'NONE',  ( 0.000000000000000000, -1.000000000000000000, 0.000000000000000000 ) ) ;
#901 = VECTOR ( 'NONE', #115, 1000.000000000000000 ) ;
#902 = CARTESIAN_POINT ( 'NONE',  ( 5.361872562110360721E-15, -0.9999999999999991118, -16.99999999999990763 ) ) ;
#903 = VECTOR ( 'NONE', #946, 1000.000000000000000 ) ;
#904 = EDGE_CURVE ( 'NONE', #130, #14, #106, .T. ) ;
#905 = ORIENTED_EDGE ( 'NONE', *, *, #873, .T. ) ;
#906 = DIRECTION ( 'NONE',  ( -1.000000000000000000, 6.367124396146893975E-31, 0.000000000000000000 ) ) ;
#907 = CARTESIAN_POINT ( 'NONE',  ( 5.250000000000007105, 4.000000000000000000, -21.99999999999990763 ) ) ;
#908 = CARTESIAN_POINT ( 'NONE',  ( 8.750000000000007105, -3.000000000000000000, -21.99999999999990763 ) ) ;
#909 = EDGE_LOOP ( 'NONE', ( #445, #993, #1191, #990 ) ) ;
#910 = CARTESIAN_POINT ( 'NONE',  ( 11.50000000000001243, -2.000000000000000000, -6.249999999999999112 ) ) ;
#911 = EDGE_CURVE ( 'NONE', #366, #514, #976, .T. ) ;
#912 = EDGE_LOOP ( 'NONE', ( #193, #766, #238, #1014, #638, #1172 ) ) ;
#913 = ADVANCED_FACE ( 'NONE', ( #1 ), #371, .F. ) ;
#914 = ADVANCED_FACE ( 'NONE', ( #124 ), #850, .F. ) ;
#915 = ADVANCED_FACE ( 'NONE', ( #1098 ), #1016, .T. ) ;
#916 = ORIENTED_EDGE ( 'NONE', *, *, #1156, .F. ) ;
#917 = DIRECTION ( 'NONE',  ( -1.000000000000000000, 6.367124396146889596E-31, 0.000000000000000000 ) ) ;
#918 = AXIS2_PLACEMENT_3D ( 'NONE', #364, #627, #356 ) ;
#919 = CIRCLE ( 'NONE', #1105, 0.9000000000010925927 ) ;
#920 = LINE ( 'NONE', #712, #806 ) ;
#921 = PLANE ( 'NONE',  #432 ) ;
#922 = AXIS2_PLACEMENT_3D ( 'NONE', #592, #491, #683 ) ;
#923 = ORIENTED_EDGE ( 'NONE', *, *, #648, .F. ) ;
#924 = VERTEX_POINT ( 'NONE', #1038 ) ;
#925 = ORIENTED_EDGE ( 'NONE', *, *, #113, .T. ) ;
#926 = PLANE ( 'NONE',  #100 ) ;
#927 = ORIENTED_EDGE ( 'NONE', *, *, #473, .F. ) ;
#928 = CARTESIAN_POINT ( 'NONE',  ( -2.735695943731999685E-31, -3.926787220056560941E-59, 8.673617379884029556E-16 ) ) ;
#929 = ORIENTED_EDGE ( 'NONE', *, *, #647, .F. ) ;
#930 = VERTEX_POINT ( 'NONE', #588 ) ;
#931 = CARTESIAN_POINT ( 'NONE',  ( 2.500000000000003997, 0.000000000000000000, -2.348203812442153500E-16 ) ) ;
#932 = LINE ( 'NONE', #109, #742 ) ;
#933 = DIRECTION ( 'NONE',  ( 0.000000000000000000, -1.000000000000000000, 0.000000000000000000 ) ) ;
#934 = ORIENTED_EDGE ( 'NONE', *, *, #509, .T. ) ;
#935 = VECTOR ( 'NONE', #542, 1000.000000000000000 ) ;
#936 = DIRECTION ( 'NONE',  ( 2.312964634635746211E-15, 4.515903254171780733E-44, 1.000000000000000000 ) ) ;
#937 = AXIS2_PLACEMENT_3D ( 'NONE', #1075, #258, #711 ) ;
#938 = ORIENTED_EDGE ( 'NONE', *, *, #628, .T. ) ;
#939 = VECTOR ( 'NONE', #1083, 1000.000000000000000 ) ;
#940 = ORIENTED_EDGE ( 'NONE', *, *, #199, .T. ) ;
#941 = DIRECTION ( 'NONE',  ( 6.367124396146892223E-31, 1.000000000000000000, -4.668657484706398495E-44 ) ) ;
#942 = CARTESIAN_POINT ( 'NONE',  ( 3.725409417959987585E-15, -2.000000000000000000, -0.4999999999999900080 ) ) ;
#943 = ORIENTED_EDGE ( 'NONE', *, *, #952, .F. ) ;
#944 = LINE ( 'NONE', #123, #939 ) ;
#945 = EDGE_CURVE ( 'NONE', #721, #224, #230, .T. ) ;
#946 = DIRECTION ( 'NONE',  ( 6.367124396146892223E-31, 1.000000000000000000, -4.668657484706398495E-44 ) ) ;
#947 = ORIENTED_EDGE ( 'NONE', *, *, #276, .F. ) ;
#948 = DIRECTION ( 'NONE',  ( 4.502236837173784631E-31, 0.7071067811865500152, 0.7071067811865450192 ) ) ;
#949 = ORIENTED_EDGE ( 'NONE', *, *, #310, .T. ) ;
#950 = DIRECTION ( 'NONE',  ( 1.000000000000000000, -6.367124396146892223E-31, 0.000000000000000000 ) ) ;
#951 = ORIENTED_EDGE ( 'NONE', *, *, #566, .T. ) ;
#952 = EDGE_CURVE ( 'NONE', #847, #969, #411, .T. ) ;
#953 = VERTEX_POINT ( 'NONE', #144 ) ;
#954 = CARTESIAN_POINT ( 'NONE',  ( 7.000000000000006217, 4.000000000000000000, -3.124999999999998224 ) ) ;
#955 = ORIENTED_EDGE ( 'NONE', *, *, #952, .T. ) ;
#956 = ORIENTED_EDGE ( 'NONE', *, *, #1122, .F. ) ;
#957 = CARTESIAN_POINT ( 'NONE',  ( 2.500000000000003997, -1.500000000000007772, -6.053011682405846703E-16 ) ) ;
#958 = ORIENTED_EDGE ( 'NONE', *, *, #259, .T. ) ;
#959 = DIRECTION ( 'NONE',  ( -2.478176394252578676E-16, 0.000000000000000000, -1.000000000000000000 ) ) ;
#960 = MANIFOLD_SOLID_BREP ( 'Fillet2', #408 ) ;
#961 = AXIS2_PLACEMENT_3D ( 'NONE', #3, #735, #1018 ) ;
#962 = CARTESIAN_POINT ( 'NONE',  ( 8.750000000000007105, 4.000000000000000000, -21.99999999999990763 ) ) ;
#963 = DIRECTION ( 'NONE',  ( -1.000000000000000000, 0.000000000000000000, 0.000000000000000000 ) ) ;
#964 = FACE_OUTER_BOUND ( 'NONE', #27, .T. ) ;
#965 = EDGE_LOOP ( 'NONE', ( #78, #770, #403, #763 ) ) ;
#966 = CARTESIAN_POINT ( 'NONE',  ( 1.999999999999999556, 1.061187399357949720E-30, 5.000000000000004441 ) ) ;
#967 = PRODUCT_RELATED_PRODUCT_CATEGORY ( 'part', '', ( #243 ) ) ;
#968 = DIRECTION ( 'NONE',  ( -2.478176394252579662E-16, -4.652878627328597668E-44, -1.000000000000000000 ) ) ;
#969 = VERTEX_POINT ( 'NONE', #957 ) ;
#970 = DIRECTION ( 'NONE',  ( -1.239088197126290077E-16, 4.676546913395298908E-44, 1.000000000000000000 ) ) ;
#971 = CARTESIAN_POINT ( 'NONE',  ( 1.316495309083392785E-15, -0.9999999999999991118, -16.99999999999990763 ) ) ;
#972 = PLANE ( 'NONE',  #720 ) ;
#973 = VERTEX_POINT ( 'NONE', #333 ) ;
#974 = APPLICATION_CONTEXT ( 'automotive_design' ) ;
#975 = DIRECTION ( 'NONE',  ( 3.154042683594347469E-16, 4.527277430018551214E-44, -1.000000000000000000 ) ) ;
#976 = CIRCLE ( 'NONE', #181, 2.149999999999999023 ) ;
#977 = FACE_OUTER_BOUND ( 'NONE', #134, .T. ) ;
#978 = ORIENTED_EDGE ( 'NONE', *, *, #357, .F. ) ;
#979 = ADVANCED_FACE ( 'NONE', ( #137 ), #787, .T. ) ;
#980 = DIRECTION ( 'NONE',  ( 6.367124396146892223E-31, 1.000000000000000000, -4.668657484706398495E-44 ) ) ;
#981 = DIRECTION ( 'NONE',  ( 6.367124396146892223E-31, 1.000000000000000000, 4.892717259471158683E-44 ) ) ;
#982 = VERTEX_POINT ( 'NONE', #572 ) ;
#983 = DIRECTION ( 'NONE',  ( 6.367124396146892223E-31, 1.000000000000000000, -4.668657484706398495E-44 ) ) ;
#984 = LINE ( 'NONE', #1084, #1028 ) ;
#985 =( NAMED_UNIT ( * ) PLANE_ANGLE_UNIT ( ) SI_UNIT ( $, .RADIAN. ) );
#986 = CARTESIAN_POINT ( 'NONE',  ( 14.00000000000000711, -3.000000000000000000, -21.99999999999990763 ) ) ;
#987 = CYLINDRICAL_SURFACE ( 'NONE', #212, 2.000000000000001776 ) ;
#988 = FACE_BOUND ( 'NONE', #17, .T. ) ;
#989 = ADVANCED_FACE ( 'NONE', ( #964 ), #972, .F. ) ;
#990 = ORIENTED_EDGE ( 'NONE', *, *, #357, .T. ) ;
#991 = DIRECTION ( 'NONE',  ( -1.000000000000000000, 6.367124396146892223E-31, 0.000000000000000000 ) ) ;
#992 = CARTESIAN_POINT ( 'NONE',  ( 12.00000000000000711, 4.000000000000000000, -21.99999999999990763 ) ) ;
#993 = ORIENTED_EDGE ( 'NONE', *, *, #515, .F. ) ;
#994 = DIRECTION ( 'NONE',  ( 6.367124396146892223E-31, 1.000000000000000000, -4.668657484706398495E-44 ) ) ;
#995 = AXIS2_PLACEMENT_3D ( 'NONE', #1111, #374, #308 ) ;
#996 = DIRECTION ( 'NONE',  ( 0.000000000000000000, 0.000000000000000000, -1.000000000000000000 ) ) ;
#997 = ORIENTED_EDGE ( 'NONE', *, *, #1035, .F. ) ;
#998 = CARTESIAN_POINT ( 'NONE',  ( 8.750000000000007105, -3.000000000000000000, -21.99999999999990763 ) ) ;
#999 = ADVANCED_FACE ( 'NONE', ( #506 ), #312, .T. ) ;
#1000 = ADVANCED_FACE ( 'NONE', ( #29, #44, #397 ), #1135, .F. ) ;
#1001 = DIRECTION ( 'NONE',  ( -6.367124396146892223E-31, -1.000000000000000000, 4.668657484706398495E-44 ) ) ;
#1002 = ADVANCED_FACE ( 'NONE', ( #149 ), #388, .T. ) ;
#1003 = LINE ( 'NONE', #540, #1170 ) ;
#1004 = CARTESIAN_POINT ( 'NONE',  ( 9.000000000000010658, -2.000000000000000000, -11.99999999999994316 ) ) ;
#1005 = VERTEX_POINT ( 'NONE', #324 ) ;
#1006 = PLANE ( 'NONE',  #228 ) ;
#1007 = SHAPE_DEFINITION_REPRESENTATION ( #1062, #315 ) ;
#1008 = VERTEX_POINT ( 'NONE', #661 ) ;
#1009 = AXIS2_PLACEMENT_3D ( 'NONE', #677, #968, #52 ) ;
#1010 = VECTOR ( 'NONE', #152, 1000.000000000000000 ) ;
#1011 = LINE ( 'NONE', #569, #118 ) ;
#1012 = ORIENTED_EDGE ( 'NONE', *, *, #352, .F. ) ;
#1013 = CARTESIAN_POINT ( 'NONE',  ( 3.596821504049518519E-15, -2.000000000000000000, 9.337314969412796990E-44 ) ) ;
#1014 = ORIENTED_EDGE ( 'NONE', *, *, #103, .F. ) ;
#1015 = VERTEX_POINT ( 'NONE', #678 ) ;
#1016 = CYLINDRICAL_SURFACE ( 'NONE', #1188, 2.000000000000001776 ) ;
#1017 = ORIENTED_EDGE ( 'NONE', *, *, #22, .T. ) ;
#1018 = DIRECTION ( 'NONE',  ( -1.000000000000000000, 6.367124396146893099E-31, 0.000000000000000000 ) ) ;
#1019 = DIRECTION ( 'NONE',  ( 1.000000000000000000, -6.367124396146892223E-31, -2.478176394252579662E-16 ) ) ;
#1020 = CARTESIAN_POINT ( 'NONE',  ( 1.999999999999999112, 4.000000000000000000, 3.000000000000003997 ) ) ;
#1021 = FACE_OUTER_BOUND ( 'NONE', #232, .T. ) ;
#1022 = EDGE_LOOP ( 'NONE', ( #1037, #1067, #433, #667 ) ) ;
#1023 = ORIENTED_EDGE ( 'NONE', *, *, #1121, .T. ) ;
#1024 = CARTESIAN_POINT ( 'NONE',  ( 14.00000000000000711, 0.7499999999999997780, -21.99999999999990763 ) ) ;
#1025 = ORIENTED_EDGE ( 'NONE', *, *, #276, .T. ) ;
#1026 = VECTOR ( 'NONE', #336, 1000.000000000000000 ) ;
#1027 = CARTESIAN_POINT ( 'NONE',  ( 14.00000000000001243, -2.000000000000000000, 1.734723475976807094E-15 ) ) ;
#1028 = VECTOR ( 'NONE', #535, 1000.000000000000000 ) ;
#1029 = ORIENTED_EDGE ( 'NONE', *, *, #1120, .T. ) ;
#1030 = CIRCLE ( 'NONE', #1052, 2.000000000000000000 ) ;
#1031 = EDGE_CURVE ( 'NONE', #747, #670, #1056, .T. ) ;
#1032 = LINE ( 'NONE', #836, #1091 ) ;
#1033 = EDGE_CURVE ( 'NONE', #745, #1008, #69, .T. ) ;
#1034 = EDGE_CURVE ( 'NONE', #930, #189, #60, .T. ) ;
#1035 = EDGE_CURVE ( 'NONE', #224, #350, #163, .T. ) ;
#1036 = CARTESIAN_POINT ( 'NONE',  ( 0.000000000000000000, 4.000000000000000000, 0.000000000000000000 ) ) ;
#1037 = ORIENTED_EDGE ( 'NONE', *, *, #786, .T. ) ;
#1038 = CARTESIAN_POINT ( 'NONE',  ( 14.00000000000001243, -2.000000000000000000, -0.4999999999999882871 ) ) ;
#1039 = ORIENTED_EDGE ( 'NONE', *, *, #824, .F. ) ;
#1040 = CARTESIAN_POINT ( 'NONE',  ( 5.204170427930419706E-15, -2.000000000000000000, -6.250000000000000000 ) ) ;
#1041 = LINE ( 'NONE', #845, #632 ) ;
#1042 = ORIENTED_EDGE ( 'NONE', *, *, #551, .T. ) ;
#1043 = SURFACE_STYLE_USAGE ( .BOTH. , #245 ) ;
#1044 = EDGE_LOOP ( 'NONE', ( #741, #43, #856, #643 ) ) ;
#1045 = ADVANCED_FACE ( 'NONE', ( #887, #606, #988, #801 ), #1162, .T. ) ;
#1046 = DIRECTION ( 'NONE',  ( 6.367124396146892223E-31, 1.000000000000000000, -4.668657484706398495E-44 ) ) ;
#1047 = DIRECTION ( 'NONE',  ( -1.000000000000000000, 6.367124396146892223E-31, -1.239088197126290077E-16 ) ) ;
#1048 = DIRECTION ( 'NONE',  ( -4.502236837173784631E-31, -0.7071067811865500152, 0.7071067811865450192 ) ) ;
#1049 = VERTEX_POINT ( 'NONE', #708 ) ;
#1050 = AXIS2_PLACEMENT_3D ( 'NONE', #184, #613, #917 ) ;
#1051 = AXIS2_PLACEMENT_3D ( 'NONE', #750, #1117, #298 ) ;
#1052 = AXIS2_PLACEMENT_3D ( 'NONE', #1119, #1102, #284 ) ;
#1053 = VECTOR ( 'NONE', #715, 1000.000000000000000 ) ;
#1054 = FACE_OUTER_BOUND ( 'NONE', #508, .T. ) ;
#1055 = DIRECTION ( 'NONE',  ( 6.367124396146892223E-31, 1.000000000000000000, -4.668657484706398495E-44 ) ) ;
#1056 = LINE ( 'NONE', #237, #375 ) ;
#1057 = ORIENTED_EDGE ( 'NONE', *, *, #65, .F. ) ;
#1058 = PLANE ( 'NONE',  #363 ) ;
#1059 = CARTESIAN_POINT ( 'NONE',  ( 9.000000000000010658, 4.000000000000000000, -11.99999999999994316 ) ) ;
#1060 = DIRECTION ( 'NONE',  ( 8.761676666762208542E-17, 0.7071067811865450192, -0.7071067811865500152 ) ) ;
#1061 = SURFACE_STYLE_FILL_AREA ( #666 ) ;
#1062 = PRODUCT_DEFINITION_SHAPE ( 'NONE', 'NONE',  #603 ) ;
#1063 = ORIENTED_EDGE ( 'NONE', *, *, #327, .T. ) ;
#1064 = EDGE_CURVE ( 'NONE', #54, #1146, #1174, .T. ) ;
#1065 = DIRECTION ( 'NONE',  ( 0.000000000000000000, 4.663696451581031814E-44, 1.000000000000000000 ) ) ;
#1066 = DIRECTION ( 'NONE',  ( -1.000000000000000000, 0.000000000000000000, 2.365532012695506194E-16 ) ) ;
#1067 = ORIENTED_EDGE ( 'NONE', *, *, #665, .F. ) ;
#1068 = CIRCLE ( 'NONE', #114, 2.000000000000000000 ) ;
#1069 = CIRCLE ( 'NONE', #547, 3.750000000000000000 ) ;
#1070 = DIRECTION ( 'NONE',  ( 0.000000000000000000, 0.000000000000000000, -1.000000000000000000 ) ) ;
#1071 = DIRECTION ( 'NONE',  ( 2.972592296812789740E-74, 4.668657484706398495E-44, 1.000000000000000000 ) ) ;
#1072 = VECTOR ( 'NONE', #686, 1000.000000000000000 ) ;
#1073 = DIRECTION ( 'NONE',  ( -1.672683727290848633E-16, -0.7071067811865500152, -0.7071067811865450192 ) ) ;
#1074 = EDGE_CURVE ( 'NONE', #366, #1015, #611, .T. ) ;
#1075 = CARTESIAN_POINT ( 'NONE',  ( 9.000000000000010658, 0.000000000000000000, -11.99999999999994316 ) ) ;
#1076 = EDGE_CURVE ( 'NONE', #884, #713, #696, .T. ) ;
#1077 = CARTESIAN_POINT ( 'NONE',  ( 9.900000000001103473, 4.000000000000000000, -18.49999999999994316 ) ) ;
#1078 = CARTESIAN_POINT ( 'NONE',  ( 5.250000000000006217, -6.750000000000000000, -21.99999999999990763 ) ) ;
#1079 = VERTEX_POINT ( 'NONE', #518 ) ;
#1080 = DIRECTION ( 'NONE',  ( 0.000000000000000000, 0.000000000000000000, -1.000000000000000000 ) ) ;
#1081 = FACE_OUTER_BOUND ( 'NONE', #1022, .T. ) ;
#1082 = DIRECTION ( 'NONE',  ( 0.000000000000000000, 0.000000000000000000, -1.000000000000000000 ) ) ;
#1083 = DIRECTION ( 'NONE',  ( -1.000000000000000000, -5.305936996789749476E-31, 1.239088197126411365E-16 ) ) ;
#1084 = CARTESIAN_POINT ( 'NONE',  ( 8.750000000000007105, 4.000000000000000000, -21.99999999999990763 ) ) ;
#1085 = EDGE_CURVE ( 'NONE', #953, #102, #167, .T. ) ;
#1086 = ORIENTED_EDGE ( 'NONE', *, *, #1163, .T. ) ;
#1087 = PLANE ( 'NONE',  #995 ) ;
#1088 = ADVANCED_FACE ( 'NONE', ( #1148 ), #510, .F. ) ;
#1089 = EDGE_CURVE ( 'NONE', #120, #326, #373, .T. ) ;
#1090 = AXIS2_PLACEMENT_3D ( 'NONE', #895, #803, #725 ) ;
#1091 = VECTOR ( 'NONE', #948, 1000.000000000000000 ) ;
#1092 = CARTESIAN_POINT ( 'NONE',  ( 14.00000000000001243, 0.000000000000000000, 0.000000000000000000 ) ) ;
#1093 = CARTESIAN_POINT ( 'NONE',  ( 2.500000000000003997, -2.000000000000000000, -0.4999999999999893974 ) ) ;
#1094 = VECTOR ( 'NONE', #583, 1000.000000000000000 ) ;
#1095 = VERTEX_POINT ( 'NONE', #790 ) ;
#1096 = CARTESIAN_POINT ( 'NONE',  ( 14.00000000000001421, -10.00000000000000000, -16.99999999999991118 ) ) ;
#1097 = DIRECTION ( 'NONE',  ( -1.000000000000000000, 0.000000000000000000, 0.000000000000000000 ) ) ;
#1098 = FACE_OUTER_BOUND ( 'NONE', #297, .T. ) ;
#1099 = ORIENTED_EDGE ( 'NONE', *, *, #531, .T. ) ;
#1100 = DIRECTION ( 'NONE',  ( -6.367124396146892223E-31, -1.000000000000000000, 0.000000000000000000 ) ) ;
#1101 = ADVANCED_FACE ( 'NONE', ( #247 ), #1058, .F. ) ;
#1102 = DIRECTION ( 'NONE',  ( -6.367124396146892223E-31, -1.000000000000000000, 4.668657484706398495E-44 ) ) ;
#1103 = ORIENTED_EDGE ( 'NONE', *, *, #75, .F. ) ;
#1104 = AXIS2_PLACEMENT_3D ( 'NONE', #1020, #933, #128 ) ;
#1105 = AXIS2_PLACEMENT_3D ( 'NONE', #550, #1046, #756 ) ;
#1106 = ORIENTED_EDGE ( 'NONE', *, *, #327, .F. ) ;
#1107 = ORIENTED_EDGE ( 'NONE', *, *, #66, .T. ) ;
#1108 = DIRECTION ( 'NONE',  ( -0.000000000000000000, 1.000000000000000000, -0.000000000000000000 ) ) ;
#1109 = MECHANICAL_DESIGN_GEOMETRIC_PRESENTATION_REPRESENTATION (  '', ( #348 ), #507 ) ;
#1110 = EDGE_CURVE ( 'NONE', #274, #861, #635, .T. ) ;
#1111 = CARTESIAN_POINT ( 'NONE',  ( 6.195440985631200170E-17, -2.000000000000000000, -0.4999999999999900080 ) ) ;
#1112 = ORIENTED_EDGE ( 'NONE', *, *, #48, .T. ) ;
#1113 = EDGE_LOOP ( 'NONE', ( #1057, #406, #359, #642, #1107, #653, #949, #1112, #958, #26, #387, #553, #1131 ) ) ;
#1114 = ORIENTED_EDGE ( 'NONE', *, *, #859, .F. ) ;
#1115 = LINE ( 'NONE', #295, #13 ) ;
#1116 = ORIENTED_EDGE ( 'NONE', *, *, #266, .F. ) ;
#1117 = DIRECTION ( 'NONE',  ( 6.367124396146892223E-31, 1.000000000000000000, -4.668657484706398495E-44 ) ) ;
#1118 = LINE ( 'NONE', #651, #580 ) ;
#1119 = CARTESIAN_POINT ( 'NONE',  ( 12.00000000000001243, 0.000000000000000000, 3.000000000000003109 ) ) ;
#1120 = EDGE_CURVE ( 'NONE', #815, #462, #414, .T. ) ;
#1121 = EDGE_CURVE ( 'NONE', #382, #757, #39, .T. ) ;
#1122 = EDGE_CURVE ( 'NONE', #847, #1079, #108, .T. ) ;
#1123 = VERTEX_POINT ( 'NONE', #834 ) ;
#1124 = LINE ( 'NONE', #381, #231 ) ;
#1125 = FACE_OUTER_BOUND ( 'NONE', #571, .T. ) ;
#1126 = CIRCLE ( 'NONE', #760, 3.750000000000000000 ) ;
#1127 = CARTESIAN_POINT ( 'NONE',  ( 2.500000000000003997, 10.95730350040557077, -2.348203812442153500E-16 ) ) ;
#1128 = AXIS2_PLACEMENT_3D ( 'NONE', #954, #941, #133 ) ;
#1129 = EDGE_LOOP ( 'NONE', ( #947, #870, #437, #811 ) ) ;
#1130 = AXIS2_PLACEMENT_3D ( 'NONE', #503, #981, #596 ) ;
#1131 = ORIENTED_EDGE ( 'NONE', *, *, #1190, .T. ) ;
#1132 = DIRECTION ( 'NONE',  ( 1.000000000000000000, -0.000000000000000000, -0.000000000000000000 ) ) ;
#1133 = CARTESIAN_POINT ( 'NONE',  ( 1.316495309083386868E-15, -10.00000000000000000, -16.99999999999990763 ) ) ;
#1134 = CARTESIAN_POINT ( 'NONE',  ( 3.596821504049518519E-15, -1.500000000000006439, 7.002986227059627613E-44 ) ) ;
#1135 = PLANE ( 'NONE',  #528 ) ;
#1136 = ADVANCED_FACE ( 'NONE', ( #8 ), #482, .F. ) ;
#1137 = ORIENTED_EDGE ( 'NONE', *, *, #48, .F. ) ;
#1138 = CARTESIAN_POINT ( 'NONE',  ( 5.204170427930421283E-15, -2.951046528434881194E-43, -6.250000000000000000 ) ) ;
#1139 = CARTESIAN_POINT ( 'NONE',  ( 11.50000000000001243, -2.000000000000000000, -0.4999999999999886202 ) ) ;
#1140 = EDGE_LOOP ( 'NONE', ( #291, #16, #301, #558 ) ) ;
#1141 = DIRECTION ( 'NONE',  ( 6.367124396146892223E-31, 1.000000000000000000, 4.892717259471158683E-44 ) ) ;
#1142 = VERTEX_POINT ( 'NONE', #568 ) ;
#1143 = DIRECTION ( 'NONE',  ( -1.000000000000000000, 0.000000000000000000, -1.239088197126290077E-16 ) ) ;
#1144 = CARTESIAN_POINT ( 'NONE',  ( 6.195440985631200170E-17, -2.000000000000000000, -0.4999999999999900080 ) ) ;
#1145 = CARTESIAN_POINT ( 'NONE',  ( 0.000000000000000000, 4.000000000000000000, 5.000000000000004441 ) ) ;
#1146 = VERTEX_POINT ( 'NONE', #1134 ) ;
#1147 = VECTOR ( 'NONE', #776, 1000.000000000000000 ) ;
#1148 = FACE_OUTER_BOUND ( 'NONE', #223, .T. ) ;
#1149 = AXIS2_PLACEMENT_3D ( 'NONE', #1145, #758, #306 ) ;
#1150 = CYLINDRICAL_SURFACE ( 'NONE', #431, 1.000000000000000888 ) ;
#1151 = CARTESIAN_POINT ( 'NONE',  ( 12.00000000000000711, -10.00000000000000000, -21.99999999999990763 ) ) ;
#1152 = DIRECTION ( 'NONE',  ( 0.000000000000000000, 0.000000000000000000, 1.000000000000000000 ) ) ;
#1153 = ORIENTED_EDGE ( 'NONE', *, *, #687, .F. ) ;
#1154 = DIRECTION ( 'NONE',  ( -1.000000000000000000, 0.000000000000000000, 2.365532012695506194E-16 ) ) ;
#1155 = LINE ( 'NONE', #701, #209 ) ;
#1156 = EDGE_CURVE ( 'NONE', #982, #317, #944, .T. ) ;
#1157 = CARTESIAN_POINT ( 'NONE',  ( 9.900000000001103473, -2.000000000000000000, -11.99999999999994316 ) ) ;
#1158 = LINE ( 'NONE', #155, #55 ) ;
#1159 = CARTESIAN_POINT ( 'NONE',  ( 5.250000000000006217, -0.7499999999999997780, -21.99999999999990763 ) ) ;
#1160 = VERTEX_POINT ( 'NONE', #1093 ) ;
#1161 = DIRECTION ( 'NONE',  ( 1.000000000000000000, -6.367124396146892223E-31, 1.239088197126290077E-16 ) ) ;
#1162 = PLANE ( 'NONE',  #1130 ) ;
#1163 = EDGE_CURVE ( 'NONE', #684, #189, #412, .T. ) ;
#1164 = DIRECTION ( 'NONE',  ( 1.663863352701758050E-15, -4.774597734154819486E-44, -1.000000000000000000 ) ) ;
#1165 = EDGE_LOOP ( 'NONE', ( #709, #481, #779, #380 ) ) ;
#1166 = DIRECTION ( 'NONE',  ( 1.000000000000000000, 0.000000000000000000, 0.000000000000000000 ) ) ;
#1167 = VECTOR ( 'NONE', #316, 1000.000000000000000 ) ;
#1168 = AXIS2_PLACEMENT_3D ( 'NONE', #616, #530, #906 ) ;
#1169 = LINE ( 'NONE', #235, #718 ) ;
#1170 = VECTOR ( 'NONE', #885, 1000.000000000000000 ) ;
#1171 = FACE_OUTER_BOUND ( 'NONE', #909, .T. ) ;
#1172 = ORIENTED_EDGE ( 'NONE', *, *, #277, .T. ) ;
#1173 = LINE ( 'NONE', #910, #159 ) ;
#1174 = LINE ( 'NONE', #422, #233 ) ;
#1175 = EDGE_LOOP ( 'NONE', ( #150, #484, #377, #126 ) ) ;
#1176 = CARTESIAN_POINT ( 'NONE',  ( 5.204170427930421283E-15, -2.951046528434881194E-43, -6.250000000000000000 ) ) ;
#1177 = DIRECTION ( 'NONE',  ( 0.000000000000000000, 0.000000000000000000, 1.000000000000000000 ) ) ;
#1178 = EDGE_CURVE ( 'NONE', #1142, #851, #1003, .T. ) ;
#1179 = ORIENTED_EDGE ( 'NONE', *, *, #323, .F. ) ;
#1180 = CARTESIAN_POINT ( 'NONE',  ( 2.500000000000003997, -1.500000000000006439, -6.250000000000000000 ) ) ;
#1181 = DIRECTION ( 'NONE',  ( 6.367124396146892223E-31, 1.000000000000000000, -4.668657484706398495E-44 ) ) ;
#1182 =( NAMED_UNIT ( * ) SI_UNIT ( $, .STERADIAN. ) SOLID_ANGLE_UNIT ( ) );
#1183 = ORIENTED_EDGE ( 'NONE', *, *, #1122, .T. ) ;
#1184 = FACE_OUTER_BOUND ( 'NONE', #612, .T. ) ;
#1185 = CIRCLE ( 'NONE', #918, 2.000000000000000000 ) ;
#1186 = VECTOR ( 'NONE', #575, 1000.000000000000000 ) ;
#1187 = FACE_BOUND ( 'NONE', #389, .T. ) ;
#1188 = AXIS2_PLACEMENT_3D ( 'NONE', #281, #129, #53 ) ;
#1189 = VERTEX_POINT ( 'NONE', #64 ) ;
#1190 = EDGE_CURVE ( 'NONE', #178, #293, #920, .T. ) ;
#1191 = ORIENTED_EDGE ( 'NONE', *, *, #600, .T. ) ;
#1192 = FACE_OUTER_BOUND ( 'NONE', #1175, .T. ) ;
ENDSEC;
END-ISO-10303-21;
