ISO-10303-21;
HEADER;
/* Generated by software containing ST-Developer
 * from STEP Tools, Inc. (www.steptools.com) 
 */

FILE_DESCRIPTION(
/* description */ (''),
/* implementation_level */ '2;1');

FILE_NAME(
/* name */ 
'/Users/Twmaster/Desktop/untitled folder/24mm-wheel-2020-gantry.step',
/* time_stamp */ '2017-09-24T13:30:53-05:00',
/* author */ (''),
/* organization */ (''),
/* preprocessor_version */ 'ST-DEVELOPER v16.13',
/* originating_system */ 'Autodesk Translation Framework v6.1.1.50',
/* authorisation */ '');

FILE_SCHEMA (('AUTOMOTIVE_DESIGN { 1 0 10303 214 3 1 1 }'));
ENDSEC;

DATA;
#10=MECHANICAL_DESIGN_GEOMETRIC_PRESENTATION_REPRESENTATION('',(#13),#1167);
#11=SHAPE_REPRESENTATION_RELATIONSHIP('SRR','None',#1173,#12);
#12=ADVANCED_BREP_SHAPE_REPRESENTATION('',(#14),#1166);
#13=STYLED_ITEM('',(#1182),#14);
#14=MANIFOLD_SOLID_BREP('Body1',#701);
#15=LINE('',#988,#67);
#16=LINE('',#990,#68);
#17=LINE('',#992,#69);
#18=LINE('',#993,#70);
#19=LINE('',#996,#71);
#20=LINE('',#998,#72);
#21=LINE('',#999,#73);
#22=LINE('',#1003,#74);
#23=LINE('',#1005,#75);
#24=LINE('',#1007,#76);
#25=LINE('',#1008,#77);
#26=LINE('',#1012,#78);
#27=LINE('',#1014,#79);
#28=LINE('',#1016,#80);
#29=LINE('',#1018,#81);
#30=LINE('',#1022,#82);
#31=LINE('',#1026,#83);
#32=LINE('',#1028,#84);
#33=LINE('',#1030,#85);
#34=LINE('',#1032,#86);
#35=LINE('',#1034,#87);
#36=LINE('',#1038,#88);
#37=LINE('',#1041,#89);
#38=LINE('',#1058,#90);
#39=LINE('',#1060,#91);
#40=LINE('',#1061,#92);
#41=LINE('',#1090,#93);
#42=LINE('',#1091,#94);
#43=LINE('',#1092,#95);
#44=LINE('',#1094,#96);
#45=LINE('',#1095,#97);
#46=LINE('',#1097,#98);
#47=LINE('',#1098,#99);
#48=LINE('',#1101,#100);
#49=LINE('',#1102,#101);
#50=LINE('',#1103,#102);
#51=LINE('',#1106,#103);
#52=LINE('',#1107,#104);
#53=LINE('',#1109,#105);
#54=LINE('',#1110,#106);
#55=LINE('',#1113,#107);
#56=LINE('',#1116,#108);
#57=LINE('',#1119,#109);
#58=LINE('',#1120,#110);
#59=LINE('',#1123,#111);
#60=LINE('',#1127,#112);
#61=LINE('',#1131,#113);
#62=LINE('',#1138,#114);
#63=LINE('',#1139,#115);
#64=LINE('',#1141,#116);
#65=LINE('',#1143,#117);
#66=LINE('',#1145,#118);
#67=VECTOR('',#793,10.);
#68=VECTOR('',#794,10.);
#69=VECTOR('',#795,10.);
#70=VECTOR('',#796,10.);
#71=VECTOR('',#799,10.);
#72=VECTOR('',#800,10.);
#73=VECTOR('',#801,10.);
#74=VECTOR('',#804,10.);
#75=VECTOR('',#805,10.);
#76=VECTOR('',#806,10.);
#77=VECTOR('',#807,10.);
#78=VECTOR('',#810,10.);
#79=VECTOR('',#811,10.);
#80=VECTOR('',#812,10.);
#81=VECTOR('',#813,10.);
#82=VECTOR('',#816,10.);
#83=VECTOR('',#819,10.);
#84=VECTOR('',#820,10.);
#85=VECTOR('',#821,10.);
#86=VECTOR('',#822,10.);
#87=VECTOR('',#823,10.);
#88=VECTOR('',#826,10.);
#89=VECTOR('',#829,10.);
#90=VECTOR('',#846,10.);
#91=VECTOR('',#847,10.);
#92=VECTOR('',#848,10.);
#93=VECTOR('',#883,10.);
#94=VECTOR('',#884,10.);
#95=VECTOR('',#885,10.);
#96=VECTOR('',#888,10.);
#97=VECTOR('',#889,10.);
#98=VECTOR('',#892,10.);
#99=VECTOR('',#893,10.);
#100=VECTOR('',#896,10.);
#101=VECTOR('',#897,10.);
#102=VECTOR('',#898,10.);
#103=VECTOR('',#901,10.);
#104=VECTOR('',#902,10.);
#105=VECTOR('',#905,10.);
#106=VECTOR('',#906,10.);
#107=VECTOR('',#909,10.);
#108=VECTOR('',#912,10.);
#109=VECTOR('',#915,10.);
#110=VECTOR('',#916,10.);
#111=VECTOR('',#919,10.);
#112=VECTOR('',#922,10.);
#113=VECTOR('',#925,10.);
#114=VECTOR('',#934,10.);
#115=VECTOR('',#935,10.);
#116=VECTOR('',#938,10.);
#117=VECTOR('',#941,10.);
#118=VECTOR('',#944,10.);
#119=PLANE('',#706);
#120=PLANE('',#710);
#121=PLANE('',#711);
#122=PLANE('',#712);
#123=PLANE('',#713);
#124=PLANE('',#725);
#125=PLANE('',#742);
#126=PLANE('',#743);
#127=PLANE('',#744);
#128=PLANE('',#745);
#129=PLANE('',#746);
#130=PLANE('',#747);
#131=PLANE('',#750);
#132=PLANE('',#751);
#133=PLANE('',#758);
#134=PLANE('',#761);
#135=PLANE('',#764);
#136=PLANE('',#766);
#137=PLANE('',#769);
#138=PLANE('',#773);
#139=PLANE('',#774);
#140=FACE_BOUND('',#215,.T.);
#141=FACE_BOUND('',#217,.T.);
#142=FACE_BOUND('',#219,.T.);
#143=FACE_BOUND('',#224,.T.);
#144=FACE_BOUND('',#225,.T.);
#145=FACE_BOUND('',#226,.T.);
#146=FACE_BOUND('',#227,.T.);
#147=FACE_BOUND('',#228,.T.);
#148=FACE_BOUND('',#229,.T.);
#149=FACE_BOUND('',#230,.T.);
#150=FACE_BOUND('',#231,.T.);
#151=FACE_BOUND('',#234,.T.);
#152=FACE_BOUND('',#236,.T.);
#153=FACE_BOUND('',#238,.T.);
#154=FACE_BOUND('',#240,.T.);
#155=FACE_BOUND('',#242,.T.);
#156=FACE_BOUND('',#244,.T.);
#157=FACE_BOUND('',#246,.T.);
#158=FACE_BOUND('',#256,.T.);
#159=FACE_BOUND('',#257,.T.);
#160=FACE_BOUND('',#258,.T.);
#161=FACE_BOUND('',#259,.T.);
#162=FACE_BOUND('',#260,.T.);
#163=FACE_BOUND('',#261,.T.);
#164=FACE_BOUND('',#262,.T.);
#165=FACE_BOUND('',#263,.T.);
#166=FACE_BOUND('',#264,.T.);
#167=FACE_BOUND('',#265,.T.);
#168=FACE_BOUND('',#271,.T.);
#169=FACE_BOUND('',#273,.T.);
#170=FACE_BOUND('',#275,.T.);
#171=FACE_BOUND('',#277,.T.);
#172=FACE_BOUND('',#279,.T.);
#173=FACE_BOUND('',#281,.T.);
#174=FACE_BOUND('',#283,.T.);
#175=FACE_BOUND('',#285,.T.);
#176=FACE_OUTER_BOUND('',#214,.T.);
#177=FACE_OUTER_BOUND('',#216,.T.);
#178=FACE_OUTER_BOUND('',#218,.T.);
#179=FACE_OUTER_BOUND('',#220,.T.);
#180=FACE_OUTER_BOUND('',#221,.T.);
#181=FACE_OUTER_BOUND('',#222,.T.);
#182=FACE_OUTER_BOUND('',#223,.T.);
#183=FACE_OUTER_BOUND('',#232,.T.);
#184=FACE_OUTER_BOUND('',#233,.T.);
#185=FACE_OUTER_BOUND('',#235,.T.);
#186=FACE_OUTER_BOUND('',#237,.T.);
#187=FACE_OUTER_BOUND('',#239,.T.);
#188=FACE_OUTER_BOUND('',#241,.T.);
#189=FACE_OUTER_BOUND('',#243,.T.);
#190=FACE_OUTER_BOUND('',#245,.T.);
#191=FACE_OUTER_BOUND('',#247,.T.);
#192=FACE_OUTER_BOUND('',#248,.T.);
#193=FACE_OUTER_BOUND('',#249,.T.);
#194=FACE_OUTER_BOUND('',#250,.T.);
#195=FACE_OUTER_BOUND('',#251,.T.);
#196=FACE_OUTER_BOUND('',#252,.T.);
#197=FACE_OUTER_BOUND('',#253,.T.);
#198=FACE_OUTER_BOUND('',#254,.T.);
#199=FACE_OUTER_BOUND('',#255,.T.);
#200=FACE_OUTER_BOUND('',#266,.T.);
#201=FACE_OUTER_BOUND('',#267,.T.);
#202=FACE_OUTER_BOUND('',#268,.T.);
#203=FACE_OUTER_BOUND('',#269,.T.);
#204=FACE_OUTER_BOUND('',#270,.T.);
#205=FACE_OUTER_BOUND('',#272,.T.);
#206=FACE_OUTER_BOUND('',#274,.T.);
#207=FACE_OUTER_BOUND('',#276,.T.);
#208=FACE_OUTER_BOUND('',#278,.T.);
#209=FACE_OUTER_BOUND('',#280,.T.);
#210=FACE_OUTER_BOUND('',#282,.T.);
#211=FACE_OUTER_BOUND('',#284,.T.);
#212=FACE_OUTER_BOUND('',#286,.T.);
#213=FACE_OUTER_BOUND('',#287,.T.);
#214=EDGE_LOOP('',(#474));
#215=EDGE_LOOP('',(#475));
#216=EDGE_LOOP('',(#476));
#217=EDGE_LOOP('',(#477));
#218=EDGE_LOOP('',(#478));
#219=EDGE_LOOP('',(#479));
#220=EDGE_LOOP('',(#480,#481,#482,#483));
#221=EDGE_LOOP('',(#484,#485,#486,#487));
#222=EDGE_LOOP('',(#488,#489,#490,#491));
#223=EDGE_LOOP('',(#492,#493,#494,#495,#496,#497,#498,#499,#500,#501,#502,
#503,#504,#505,#506,#507));
#224=EDGE_LOOP('',(#508));
#225=EDGE_LOOP('',(#509));
#226=EDGE_LOOP('',(#510));
#227=EDGE_LOOP('',(#511));
#228=EDGE_LOOP('',(#512));
#229=EDGE_LOOP('',(#513));
#230=EDGE_LOOP('',(#514));
#231=EDGE_LOOP('',(#515));
#232=EDGE_LOOP('',(#516,#517,#518,#519));
#233=EDGE_LOOP('',(#520));
#234=EDGE_LOOP('',(#521));
#235=EDGE_LOOP('',(#522));
#236=EDGE_LOOP('',(#523));
#237=EDGE_LOOP('',(#524));
#238=EDGE_LOOP('',(#525));
#239=EDGE_LOOP('',(#526));
#240=EDGE_LOOP('',(#527));
#241=EDGE_LOOP('',(#528));
#242=EDGE_LOOP('',(#529));
#243=EDGE_LOOP('',(#530));
#244=EDGE_LOOP('',(#531));
#245=EDGE_LOOP('',(#532));
#246=EDGE_LOOP('',(#533));
#247=EDGE_LOOP('',(#534,#535,#536,#537));
#248=EDGE_LOOP('',(#538,#539,#540,#541,#542,#543));
#249=EDGE_LOOP('',(#544,#545,#546,#547,#548,#549));
#250=EDGE_LOOP('',(#550,#551,#552,#553,#554,#555));
#251=EDGE_LOOP('',(#556,#557,#558,#559));
#252=EDGE_LOOP('',(#560,#561,#562,#563,#564,#565));
#253=EDGE_LOOP('',(#566,#567,#568,#569));
#254=EDGE_LOOP('',(#570,#571,#572,#573));
#255=EDGE_LOOP('',(#574,#575,#576,#577,#578,#579,#580,#581));
#256=EDGE_LOOP('',(#582));
#257=EDGE_LOOP('',(#583));
#258=EDGE_LOOP('',(#584));
#259=EDGE_LOOP('',(#585));
#260=EDGE_LOOP('',(#586));
#261=EDGE_LOOP('',(#587));
#262=EDGE_LOOP('',(#588,#589,#590,#591));
#263=EDGE_LOOP('',(#592,#593,#594,#595));
#264=EDGE_LOOP('',(#596));
#265=EDGE_LOOP('',(#597));
#266=EDGE_LOOP('',(#598,#599,#600,#601));
#267=EDGE_LOOP('',(#602,#603,#604,#605));
#268=EDGE_LOOP('',(#606,#607,#608,#609));
#269=EDGE_LOOP('',(#610,#611,#612,#613));
#270=EDGE_LOOP('',(#614));
#271=EDGE_LOOP('',(#615));
#272=EDGE_LOOP('',(#616));
#273=EDGE_LOOP('',(#617));
#274=EDGE_LOOP('',(#618));
#275=EDGE_LOOP('',(#619));
#276=EDGE_LOOP('',(#620));
#277=EDGE_LOOP('',(#621));
#278=EDGE_LOOP('',(#622));
#279=EDGE_LOOP('',(#623));
#280=EDGE_LOOP('',(#624));
#281=EDGE_LOOP('',(#625));
#282=EDGE_LOOP('',(#626));
#283=EDGE_LOOP('',(#627));
#284=EDGE_LOOP('',(#628));
#285=EDGE_LOOP('',(#629));
#286=EDGE_LOOP('',(#630,#631,#632,#633,#634,#635,#636,#637));
#287=EDGE_LOOP('',(#638,#639,#640,#641,#642,#643,#644,#645));
#288=CIRCLE('',#704,6.);
#289=CIRCLE('',#705,6.);
#290=CIRCLE('',#707,3.625);
#291=CIRCLE('',#709,3.625);
#292=CIRCLE('',#714,5.);
#293=CIRCLE('',#715,5.);
#294=CIRCLE('',#716,5.);
#295=CIRCLE('',#717,5.);
#296=CIRCLE('',#718,5.05);
#297=CIRCLE('',#719,5.05);
#298=CIRCLE('',#720,2.5);
#299=CIRCLE('',#721,2.5);
#300=CIRCLE('',#722,2.5);
#301=CIRCLE('',#723,6.);
#302=CIRCLE('',#724,6.);
#303=CIRCLE('',#727,3.65);
#304=CIRCLE('',#728,3.65);
#305=CIRCLE('',#730,3.65);
#306=CIRCLE('',#731,3.65);
#307=CIRCLE('',#733,6.);
#308=CIRCLE('',#735,6.);
#309=CIRCLE('',#737,2.5);
#310=CIRCLE('',#739,2.5);
#311=CIRCLE('',#741,2.5);
#312=CIRCLE('',#749,5.);
#313=CIRCLE('',#752,5.);
#314=CIRCLE('',#753,5.);
#315=CIRCLE('',#754,5.);
#316=CIRCLE('',#755,2.5);
#317=CIRCLE('',#756,2.5);
#318=CIRCLE('',#763,5.05);
#319=CIRCLE('',#765,2.5);
#320=CIRCLE('',#768,5.05);
#321=CIRCLE('',#770,2.5);
#322=VERTEX_POINT('',#975);
#323=VERTEX_POINT('',#977);
#324=VERTEX_POINT('',#980);
#325=VERTEX_POINT('',#983);
#326=VERTEX_POINT('',#986);
#327=VERTEX_POINT('',#987);
#328=VERTEX_POINT('',#989);
#329=VERTEX_POINT('',#991);
#330=VERTEX_POINT('',#995);
#331=VERTEX_POINT('',#997);
#332=VERTEX_POINT('',#1001);
#333=VERTEX_POINT('',#1002);
#334=VERTEX_POINT('',#1004);
#335=VERTEX_POINT('',#1006);
#336=VERTEX_POINT('',#1010);
#337=VERTEX_POINT('',#1011);
#338=VERTEX_POINT('',#1013);
#339=VERTEX_POINT('',#1015);
#340=VERTEX_POINT('',#1017);
#341=VERTEX_POINT('',#1019);
#342=VERTEX_POINT('',#1021);
#343=VERTEX_POINT('',#1023);
#344=VERTEX_POINT('',#1025);
#345=VERTEX_POINT('',#1027);
#346=VERTEX_POINT('',#1029);
#347=VERTEX_POINT('',#1031);
#348=VERTEX_POINT('',#1033);
#349=VERTEX_POINT('',#1035);
#350=VERTEX_POINT('',#1037);
#351=VERTEX_POINT('',#1039);
#352=VERTEX_POINT('',#1042);
#353=VERTEX_POINT('',#1044);
#354=VERTEX_POINT('',#1046);
#355=VERTEX_POINT('',#1048);
#356=VERTEX_POINT('',#1050);
#357=VERTEX_POINT('',#1052);
#358=VERTEX_POINT('',#1054);
#359=VERTEX_POINT('',#1057);
#360=VERTEX_POINT('',#1059);
#361=VERTEX_POINT('',#1063);
#362=VERTEX_POINT('',#1065);
#363=VERTEX_POINT('',#1068);
#364=VERTEX_POINT('',#1070);
#365=VERTEX_POINT('',#1073);
#366=VERTEX_POINT('',#1076);
#367=VERTEX_POINT('',#1079);
#368=VERTEX_POINT('',#1082);
#369=VERTEX_POINT('',#1085);
#370=VERTEX_POINT('',#1088);
#371=VERTEX_POINT('',#1089);
#372=VERTEX_POINT('',#1100);
#373=VERTEX_POINT('',#1105);
#374=VERTEX_POINT('',#1112);
#375=VERTEX_POINT('',#1114);
#376=VERTEX_POINT('',#1118);
#377=VERTEX_POINT('',#1122);
#378=VERTEX_POINT('',#1124);
#379=VERTEX_POINT('',#1126);
#380=VERTEX_POINT('',#1128);
#381=VERTEX_POINT('',#1130);
#382=VERTEX_POINT('',#1133);
#383=VERTEX_POINT('',#1135);
#384=VERTEX_POINT('',#1148);
#385=VERTEX_POINT('',#1151);
#386=VERTEX_POINT('',#1155);
#387=VERTEX_POINT('',#1158);
#388=EDGE_CURVE('',#322,#322,#288,.T.);
#389=EDGE_CURVE('',#323,#323,#289,.T.);
#390=EDGE_CURVE('',#324,#324,#290,.T.);
#391=EDGE_CURVE('',#325,#325,#291,.T.);
#392=EDGE_CURVE('',#326,#327,#15,.T.);
#393=EDGE_CURVE('',#328,#326,#16,.T.);
#394=EDGE_CURVE('',#329,#328,#17,.T.);
#395=EDGE_CURVE('',#327,#329,#18,.T.);
#396=EDGE_CURVE('',#329,#330,#19,.F.);
#397=EDGE_CURVE('',#331,#330,#20,.F.);
#398=EDGE_CURVE('',#327,#331,#21,.T.);
#399=EDGE_CURVE('',#332,#333,#22,.T.);
#400=EDGE_CURVE('',#334,#332,#23,.T.);
#401=EDGE_CURVE('',#335,#334,#24,.T.);
#402=EDGE_CURVE('',#333,#335,#25,.T.);
#403=EDGE_CURVE('',#336,#337,#26,.T.);
#404=EDGE_CURVE('',#337,#338,#27,.T.);
#405=EDGE_CURVE('',#338,#339,#28,.T.);
#406=EDGE_CURVE('',#339,#340,#29,.T.);
#407=EDGE_CURVE('',#341,#340,#292,.T.);
#408=EDGE_CURVE('',#341,#342,#30,.T.);
#409=EDGE_CURVE('',#343,#342,#293,.T.);
#410=EDGE_CURVE('',#343,#344,#31,.T.);
#411=EDGE_CURVE('',#344,#345,#32,.T.);
#412=EDGE_CURVE('',#345,#346,#33,.T.);
#413=EDGE_CURVE('',#346,#347,#34,.T.);
#414=EDGE_CURVE('',#347,#348,#35,.T.);
#415=EDGE_CURVE('',#349,#348,#294,.T.);
#416=EDGE_CURVE('',#349,#350,#36,.T.);
#417=EDGE_CURVE('',#351,#350,#295,.T.);
#418=EDGE_CURVE('',#351,#336,#37,.T.);
#419=EDGE_CURVE('',#352,#352,#296,.T.);
#420=EDGE_CURVE('',#353,#353,#297,.T.);
#421=EDGE_CURVE('',#354,#354,#298,.T.);
#422=EDGE_CURVE('',#355,#355,#299,.T.);
#423=EDGE_CURVE('',#356,#356,#300,.T.);
#424=EDGE_CURVE('',#357,#357,#301,.T.);
#425=EDGE_CURVE('',#358,#358,#302,.T.);
#426=EDGE_CURVE('',#333,#359,#38,.F.);
#427=EDGE_CURVE('',#360,#359,#39,.F.);
#428=EDGE_CURVE('',#332,#360,#40,.T.);
#429=EDGE_CURVE('',#361,#361,#303,.T.);
#430=EDGE_CURVE('',#362,#362,#304,.T.);
#431=EDGE_CURVE('',#363,#363,#305,.T.);
#432=EDGE_CURVE('',#364,#364,#306,.T.);
#433=EDGE_CURVE('',#365,#365,#307,.T.);
#434=EDGE_CURVE('',#366,#366,#308,.T.);
#435=EDGE_CURVE('',#367,#367,#309,.T.);
#436=EDGE_CURVE('',#368,#368,#310,.T.);
#437=EDGE_CURVE('',#369,#369,#311,.T.);
#438=EDGE_CURVE('',#370,#371,#41,.F.);
#439=EDGE_CURVE('',#346,#370,#42,.T.);
#440=EDGE_CURVE('',#345,#371,#43,.F.);
#441=EDGE_CURVE('',#371,#360,#44,.T.);
#442=EDGE_CURVE('',#334,#344,#45,.T.);
#443=EDGE_CURVE('',#359,#370,#46,.T.);
#444=EDGE_CURVE('',#347,#335,#47,.T.);
#445=EDGE_CURVE('',#330,#372,#48,.T.);
#446=EDGE_CURVE('',#339,#328,#49,.T.);
#447=EDGE_CURVE('',#338,#372,#50,.T.);
#448=EDGE_CURVE('',#372,#373,#51,.F.);
#449=EDGE_CURVE('',#337,#373,#52,.F.);
#450=EDGE_CURVE('',#373,#331,#53,.T.);
#451=EDGE_CURVE('',#326,#336,#54,.T.);
#452=EDGE_CURVE('',#348,#374,#55,.T.);
#453=EDGE_CURVE('',#374,#375,#312,.T.);
#454=EDGE_CURVE('',#375,#349,#56,.T.);
#455=EDGE_CURVE('',#376,#375,#57,.T.);
#456=EDGE_CURVE('',#350,#376,#58,.T.);
#457=EDGE_CURVE('',#374,#377,#59,.T.);
#458=EDGE_CURVE('',#378,#377,#313,.T.);
#459=EDGE_CURVE('',#378,#379,#60,.T.);
#460=EDGE_CURVE('',#380,#379,#314,.T.);
#461=EDGE_CURVE('',#380,#381,#61,.T.);
#462=EDGE_CURVE('',#376,#381,#315,.T.);
#463=EDGE_CURVE('',#382,#382,#316,.T.);
#464=EDGE_CURVE('',#383,#383,#317,.T.);
#465=EDGE_CURVE('',#342,#378,#62,.T.);
#466=EDGE_CURVE('',#377,#343,#63,.T.);
#467=EDGE_CURVE('',#379,#341,#64,.T.);
#468=EDGE_CURVE('',#340,#380,#65,.T.);
#469=EDGE_CURVE('',#381,#351,#66,.T.);
#470=EDGE_CURVE('',#384,#384,#318,.T.);
#471=EDGE_CURVE('',#385,#385,#319,.T.);
#472=EDGE_CURVE('',#386,#386,#320,.T.);
#473=EDGE_CURVE('',#387,#387,#321,.T.);
#474=ORIENTED_EDGE('',*,*,#388,.T.);
#475=ORIENTED_EDGE('',*,*,#389,.F.);
#476=ORIENTED_EDGE('',*,*,#388,.F.);
#477=ORIENTED_EDGE('',*,*,#390,.F.);
#478=ORIENTED_EDGE('',*,*,#390,.T.);
#479=ORIENTED_EDGE('',*,*,#391,.F.);
#480=ORIENTED_EDGE('',*,*,#392,.F.);
#481=ORIENTED_EDGE('',*,*,#393,.F.);
#482=ORIENTED_EDGE('',*,*,#394,.F.);
#483=ORIENTED_EDGE('',*,*,#395,.F.);
#484=ORIENTED_EDGE('',*,*,#395,.T.);
#485=ORIENTED_EDGE('',*,*,#396,.T.);
#486=ORIENTED_EDGE('',*,*,#397,.F.);
#487=ORIENTED_EDGE('',*,*,#398,.F.);
#488=ORIENTED_EDGE('',*,*,#399,.F.);
#489=ORIENTED_EDGE('',*,*,#400,.F.);
#490=ORIENTED_EDGE('',*,*,#401,.F.);
#491=ORIENTED_EDGE('',*,*,#402,.F.);
#492=ORIENTED_EDGE('',*,*,#403,.T.);
#493=ORIENTED_EDGE('',*,*,#404,.T.);
#494=ORIENTED_EDGE('',*,*,#405,.T.);
#495=ORIENTED_EDGE('',*,*,#406,.T.);
#496=ORIENTED_EDGE('',*,*,#407,.F.);
#497=ORIENTED_EDGE('',*,*,#408,.T.);
#498=ORIENTED_EDGE('',*,*,#409,.F.);
#499=ORIENTED_EDGE('',*,*,#410,.T.);
#500=ORIENTED_EDGE('',*,*,#411,.T.);
#501=ORIENTED_EDGE('',*,*,#412,.T.);
#502=ORIENTED_EDGE('',*,*,#413,.T.);
#503=ORIENTED_EDGE('',*,*,#414,.T.);
#504=ORIENTED_EDGE('',*,*,#415,.F.);
#505=ORIENTED_EDGE('',*,*,#416,.T.);
#506=ORIENTED_EDGE('',*,*,#417,.F.);
#507=ORIENTED_EDGE('',*,*,#418,.T.);
#508=ORIENTED_EDGE('',*,*,#389,.T.);
#509=ORIENTED_EDGE('',*,*,#419,.T.);
#510=ORIENTED_EDGE('',*,*,#420,.T.);
#511=ORIENTED_EDGE('',*,*,#421,.T.);
#512=ORIENTED_EDGE('',*,*,#422,.T.);
#513=ORIENTED_EDGE('',*,*,#423,.T.);
#514=ORIENTED_EDGE('',*,*,#424,.T.);
#515=ORIENTED_EDGE('',*,*,#425,.T.);
#516=ORIENTED_EDGE('',*,*,#399,.T.);
#517=ORIENTED_EDGE('',*,*,#426,.T.);
#518=ORIENTED_EDGE('',*,*,#427,.F.);
#519=ORIENTED_EDGE('',*,*,#428,.F.);
#520=ORIENTED_EDGE('',*,*,#429,.F.);
#521=ORIENTED_EDGE('',*,*,#430,.F.);
#522=ORIENTED_EDGE('',*,*,#431,.F.);
#523=ORIENTED_EDGE('',*,*,#432,.F.);
#524=ORIENTED_EDGE('',*,*,#433,.T.);
#525=ORIENTED_EDGE('',*,*,#425,.F.);
#526=ORIENTED_EDGE('',*,*,#434,.T.);
#527=ORIENTED_EDGE('',*,*,#424,.F.);
#528=ORIENTED_EDGE('',*,*,#435,.F.);
#529=ORIENTED_EDGE('',*,*,#423,.F.);
#530=ORIENTED_EDGE('',*,*,#436,.F.);
#531=ORIENTED_EDGE('',*,*,#422,.F.);
#532=ORIENTED_EDGE('',*,*,#437,.F.);
#533=ORIENTED_EDGE('',*,*,#421,.F.);
#534=ORIENTED_EDGE('',*,*,#438,.F.);
#535=ORIENTED_EDGE('',*,*,#439,.F.);
#536=ORIENTED_EDGE('',*,*,#412,.F.);
#537=ORIENTED_EDGE('',*,*,#440,.T.);
#538=ORIENTED_EDGE('',*,*,#441,.F.);
#539=ORIENTED_EDGE('',*,*,#440,.F.);
#540=ORIENTED_EDGE('',*,*,#411,.F.);
#541=ORIENTED_EDGE('',*,*,#442,.F.);
#542=ORIENTED_EDGE('',*,*,#400,.T.);
#543=ORIENTED_EDGE('',*,*,#428,.T.);
#544=ORIENTED_EDGE('',*,*,#443,.F.);
#545=ORIENTED_EDGE('',*,*,#426,.F.);
#546=ORIENTED_EDGE('',*,*,#402,.T.);
#547=ORIENTED_EDGE('',*,*,#444,.F.);
#548=ORIENTED_EDGE('',*,*,#413,.F.);
#549=ORIENTED_EDGE('',*,*,#439,.T.);
#550=ORIENTED_EDGE('',*,*,#445,.F.);
#551=ORIENTED_EDGE('',*,*,#396,.F.);
#552=ORIENTED_EDGE('',*,*,#394,.T.);
#553=ORIENTED_EDGE('',*,*,#446,.F.);
#554=ORIENTED_EDGE('',*,*,#405,.F.);
#555=ORIENTED_EDGE('',*,*,#447,.T.);
#556=ORIENTED_EDGE('',*,*,#448,.F.);
#557=ORIENTED_EDGE('',*,*,#447,.F.);
#558=ORIENTED_EDGE('',*,*,#404,.F.);
#559=ORIENTED_EDGE('',*,*,#449,.T.);
#560=ORIENTED_EDGE('',*,*,#450,.F.);
#561=ORIENTED_EDGE('',*,*,#449,.F.);
#562=ORIENTED_EDGE('',*,*,#403,.F.);
#563=ORIENTED_EDGE('',*,*,#451,.F.);
#564=ORIENTED_EDGE('',*,*,#392,.T.);
#565=ORIENTED_EDGE('',*,*,#398,.T.);
#566=ORIENTED_EDGE('',*,*,#415,.T.);
#567=ORIENTED_EDGE('',*,*,#452,.T.);
#568=ORIENTED_EDGE('',*,*,#453,.T.);
#569=ORIENTED_EDGE('',*,*,#454,.T.);
#570=ORIENTED_EDGE('',*,*,#454,.F.);
#571=ORIENTED_EDGE('',*,*,#455,.F.);
#572=ORIENTED_EDGE('',*,*,#456,.F.);
#573=ORIENTED_EDGE('',*,*,#416,.F.);
#574=ORIENTED_EDGE('',*,*,#453,.F.);
#575=ORIENTED_EDGE('',*,*,#457,.T.);
#576=ORIENTED_EDGE('',*,*,#458,.F.);
#577=ORIENTED_EDGE('',*,*,#459,.T.);
#578=ORIENTED_EDGE('',*,*,#460,.F.);
#579=ORIENTED_EDGE('',*,*,#461,.T.);
#580=ORIENTED_EDGE('',*,*,#462,.F.);
#581=ORIENTED_EDGE('',*,*,#455,.T.);
#582=ORIENTED_EDGE('',*,*,#391,.T.);
#583=ORIENTED_EDGE('',*,*,#429,.T.);
#584=ORIENTED_EDGE('',*,*,#431,.T.);
#585=ORIENTED_EDGE('',*,*,#435,.T.);
#586=ORIENTED_EDGE('',*,*,#436,.T.);
#587=ORIENTED_EDGE('',*,*,#437,.T.);
#588=ORIENTED_EDGE('',*,*,#438,.T.);
#589=ORIENTED_EDGE('',*,*,#441,.T.);
#590=ORIENTED_EDGE('',*,*,#427,.T.);
#591=ORIENTED_EDGE('',*,*,#443,.T.);
#592=ORIENTED_EDGE('',*,*,#397,.T.);
#593=ORIENTED_EDGE('',*,*,#445,.T.);
#594=ORIENTED_EDGE('',*,*,#448,.T.);
#595=ORIENTED_EDGE('',*,*,#450,.T.);
#596=ORIENTED_EDGE('',*,*,#463,.T.);
#597=ORIENTED_EDGE('',*,*,#464,.T.);
#598=ORIENTED_EDGE('',*,*,#409,.T.);
#599=ORIENTED_EDGE('',*,*,#465,.T.);
#600=ORIENTED_EDGE('',*,*,#458,.T.);
#601=ORIENTED_EDGE('',*,*,#466,.T.);
#602=ORIENTED_EDGE('',*,*,#465,.F.);
#603=ORIENTED_EDGE('',*,*,#408,.F.);
#604=ORIENTED_EDGE('',*,*,#467,.F.);
#605=ORIENTED_EDGE('',*,*,#459,.F.);
#606=ORIENTED_EDGE('',*,*,#407,.T.);
#607=ORIENTED_EDGE('',*,*,#468,.T.);
#608=ORIENTED_EDGE('',*,*,#460,.T.);
#609=ORIENTED_EDGE('',*,*,#467,.T.);
#610=ORIENTED_EDGE('',*,*,#417,.T.);
#611=ORIENTED_EDGE('',*,*,#456,.T.);
#612=ORIENTED_EDGE('',*,*,#462,.T.);
#613=ORIENTED_EDGE('',*,*,#469,.T.);
#614=ORIENTED_EDGE('',*,*,#434,.F.);
#615=ORIENTED_EDGE('',*,*,#430,.T.);
#616=ORIENTED_EDGE('',*,*,#470,.T.);
#617=ORIENTED_EDGE('',*,*,#420,.F.);
#618=ORIENTED_EDGE('',*,*,#470,.F.);
#619=ORIENTED_EDGE('',*,*,#471,.F.);
#620=ORIENTED_EDGE('',*,*,#433,.F.);
#621=ORIENTED_EDGE('',*,*,#432,.T.);
#622=ORIENTED_EDGE('',*,*,#472,.T.);
#623=ORIENTED_EDGE('',*,*,#419,.F.);
#624=ORIENTED_EDGE('',*,*,#472,.F.);
#625=ORIENTED_EDGE('',*,*,#473,.F.);
#626=ORIENTED_EDGE('',*,*,#473,.T.);
#627=ORIENTED_EDGE('',*,*,#463,.F.);
#628=ORIENTED_EDGE('',*,*,#471,.T.);
#629=ORIENTED_EDGE('',*,*,#464,.F.);
#630=ORIENTED_EDGE('',*,*,#451,.T.);
#631=ORIENTED_EDGE('',*,*,#418,.F.);
#632=ORIENTED_EDGE('',*,*,#469,.F.);
#633=ORIENTED_EDGE('',*,*,#461,.F.);
#634=ORIENTED_EDGE('',*,*,#468,.F.);
#635=ORIENTED_EDGE('',*,*,#406,.F.);
#636=ORIENTED_EDGE('',*,*,#446,.T.);
#637=ORIENTED_EDGE('',*,*,#393,.T.);
#638=ORIENTED_EDGE('',*,*,#442,.T.);
#639=ORIENTED_EDGE('',*,*,#410,.F.);
#640=ORIENTED_EDGE('',*,*,#466,.F.);
#641=ORIENTED_EDGE('',*,*,#457,.F.);
#642=ORIENTED_EDGE('',*,*,#452,.F.);
#643=ORIENTED_EDGE('',*,*,#414,.F.);
#644=ORIENTED_EDGE('',*,*,#444,.T.);
#645=ORIENTED_EDGE('',*,*,#401,.T.);
#646=CYLINDRICAL_SURFACE('',#703,6.);
#647=CYLINDRICAL_SURFACE('',#708,3.625);
#648=CYLINDRICAL_SURFACE('',#726,3.65);
#649=CYLINDRICAL_SURFACE('',#729,3.65);
#650=CYLINDRICAL_SURFACE('',#732,6.);
#651=CYLINDRICAL_SURFACE('',#734,6.);
#652=CYLINDRICAL_SURFACE('',#736,2.5);
#653=CYLINDRICAL_SURFACE('',#738,2.5);
#654=CYLINDRICAL_SURFACE('',#740,2.5);
#655=CYLINDRICAL_SURFACE('',#748,5.);
#656=CYLINDRICAL_SURFACE('',#757,5.);
#657=CYLINDRICAL_SURFACE('',#759,5.);
#658=CYLINDRICAL_SURFACE('',#760,5.);
#659=CYLINDRICAL_SURFACE('',#762,5.05);
#660=CYLINDRICAL_SURFACE('',#767,5.05);
#661=CYLINDRICAL_SURFACE('',#771,2.5);
#662=CYLINDRICAL_SURFACE('',#772,2.5);
#663=ADVANCED_FACE('',(#176,#140),#646,.F.);
#664=ADVANCED_FACE('',(#177,#141),#119,.T.);
#665=ADVANCED_FACE('',(#178,#142),#647,.F.);
#666=ADVANCED_FACE('',(#179),#120,.F.);
#667=ADVANCED_FACE('',(#180),#121,.F.);
#668=ADVANCED_FACE('',(#181),#122,.F.);
#669=ADVANCED_FACE('',(#182,#143,#144,#145,#146,#147,#148,#149,#150),#123,
 .T.);
#670=ADVANCED_FACE('',(#183),#124,.F.);
#671=ADVANCED_FACE('',(#184,#151),#648,.F.);
#672=ADVANCED_FACE('',(#185,#152),#649,.F.);
#673=ADVANCED_FACE('',(#186,#153),#650,.F.);
#674=ADVANCED_FACE('',(#187,#154),#651,.F.);
#675=ADVANCED_FACE('',(#188,#155),#652,.F.);
#676=ADVANCED_FACE('',(#189,#156),#653,.F.);
#677=ADVANCED_FACE('',(#190,#157),#654,.F.);
#678=ADVANCED_FACE('',(#191),#125,.F.);
#679=ADVANCED_FACE('',(#192),#126,.F.);
#680=ADVANCED_FACE('',(#193),#127,.F.);
#681=ADVANCED_FACE('',(#194),#128,.F.);
#682=ADVANCED_FACE('',(#195),#129,.F.);
#683=ADVANCED_FACE('',(#196),#130,.F.);
#684=ADVANCED_FACE('',(#197),#655,.T.);
#685=ADVANCED_FACE('',(#198),#131,.T.);
#686=ADVANCED_FACE('',(#199,#158,#159,#160,#161,#162,#163,#164,#165,#166,
#167),#132,.F.);
#687=ADVANCED_FACE('',(#200),#656,.T.);
#688=ADVANCED_FACE('',(#201),#133,.T.);
#689=ADVANCED_FACE('',(#202),#657,.T.);
#690=ADVANCED_FACE('',(#203),#658,.T.);
#691=ADVANCED_FACE('',(#204,#168),#134,.T.);
#692=ADVANCED_FACE('',(#205,#169),#659,.F.);
#693=ADVANCED_FACE('',(#206,#170),#135,.T.);
#694=ADVANCED_FACE('',(#207,#171),#136,.T.);
#695=ADVANCED_FACE('',(#208,#172),#660,.F.);
#696=ADVANCED_FACE('',(#209,#173),#137,.T.);
#697=ADVANCED_FACE('',(#210,#174),#661,.F.);
#698=ADVANCED_FACE('',(#211,#175),#662,.F.);
#699=ADVANCED_FACE('',(#212),#138,.T.);
#700=ADVANCED_FACE('',(#213),#139,.T.);
#701=CLOSED_SHELL('',(#663,#664,#665,#666,#667,#668,#669,#670,#671,#672,
#673,#674,#675,#676,#677,#678,#679,#680,#681,#682,#683,#684,#685,#686,#687,
#688,#689,#690,#691,#692,#693,#694,#695,#696,#697,#698,#699,#700));
#702=AXIS2_PLACEMENT_3D('placement',#973,#775,#776);
#703=AXIS2_PLACEMENT_3D('',#974,#777,#778);
#704=AXIS2_PLACEMENT_3D('',#976,#779,#780);
#705=AXIS2_PLACEMENT_3D('',#978,#781,#782);
#706=AXIS2_PLACEMENT_3D('',#979,#783,#784);
#707=AXIS2_PLACEMENT_3D('',#981,#785,#786);
#708=AXIS2_PLACEMENT_3D('',#982,#787,#788);
#709=AXIS2_PLACEMENT_3D('',#984,#789,#790);
#710=AXIS2_PLACEMENT_3D('',#985,#791,#792);
#711=AXIS2_PLACEMENT_3D('',#994,#797,#798);
#712=AXIS2_PLACEMENT_3D('',#1000,#802,#803);
#713=AXIS2_PLACEMENT_3D('',#1009,#808,#809);
#714=AXIS2_PLACEMENT_3D('',#1020,#814,#815);
#715=AXIS2_PLACEMENT_3D('',#1024,#817,#818);
#716=AXIS2_PLACEMENT_3D('',#1036,#824,#825);
#717=AXIS2_PLACEMENT_3D('',#1040,#827,#828);
#718=AXIS2_PLACEMENT_3D('',#1043,#830,#831);
#719=AXIS2_PLACEMENT_3D('',#1045,#832,#833);
#720=AXIS2_PLACEMENT_3D('',#1047,#834,#835);
#721=AXIS2_PLACEMENT_3D('',#1049,#836,#837);
#722=AXIS2_PLACEMENT_3D('',#1051,#838,#839);
#723=AXIS2_PLACEMENT_3D('',#1053,#840,#841);
#724=AXIS2_PLACEMENT_3D('',#1055,#842,#843);
#725=AXIS2_PLACEMENT_3D('',#1056,#844,#845);
#726=AXIS2_PLACEMENT_3D('',#1062,#849,#850);
#727=AXIS2_PLACEMENT_3D('',#1064,#851,#852);
#728=AXIS2_PLACEMENT_3D('',#1066,#853,#854);
#729=AXIS2_PLACEMENT_3D('',#1067,#855,#856);
#730=AXIS2_PLACEMENT_3D('',#1069,#857,#858);
#731=AXIS2_PLACEMENT_3D('',#1071,#859,#860);
#732=AXIS2_PLACEMENT_3D('',#1072,#861,#862);
#733=AXIS2_PLACEMENT_3D('',#1074,#863,#864);
#734=AXIS2_PLACEMENT_3D('',#1075,#865,#866);
#735=AXIS2_PLACEMENT_3D('',#1077,#867,#868);
#736=AXIS2_PLACEMENT_3D('',#1078,#869,#870);
#737=AXIS2_PLACEMENT_3D('',#1080,#871,#872);
#738=AXIS2_PLACEMENT_3D('',#1081,#873,#874);
#739=AXIS2_PLACEMENT_3D('',#1083,#875,#876);
#740=AXIS2_PLACEMENT_3D('',#1084,#877,#878);
#741=AXIS2_PLACEMENT_3D('',#1086,#879,#880);
#742=AXIS2_PLACEMENT_3D('',#1087,#881,#882);
#743=AXIS2_PLACEMENT_3D('',#1093,#886,#887);
#744=AXIS2_PLACEMENT_3D('',#1096,#890,#891);
#745=AXIS2_PLACEMENT_3D('',#1099,#894,#895);
#746=AXIS2_PLACEMENT_3D('',#1104,#899,#900);
#747=AXIS2_PLACEMENT_3D('',#1108,#903,#904);
#748=AXIS2_PLACEMENT_3D('',#1111,#907,#908);
#749=AXIS2_PLACEMENT_3D('',#1115,#910,#911);
#750=AXIS2_PLACEMENT_3D('',#1117,#913,#914);
#751=AXIS2_PLACEMENT_3D('',#1121,#917,#918);
#752=AXIS2_PLACEMENT_3D('',#1125,#920,#921);
#753=AXIS2_PLACEMENT_3D('',#1129,#923,#924);
#754=AXIS2_PLACEMENT_3D('',#1132,#926,#927);
#755=AXIS2_PLACEMENT_3D('',#1134,#928,#929);
#756=AXIS2_PLACEMENT_3D('',#1136,#930,#931);
#757=AXIS2_PLACEMENT_3D('',#1137,#932,#933);
#758=AXIS2_PLACEMENT_3D('',#1140,#936,#937);
#759=AXIS2_PLACEMENT_3D('',#1142,#939,#940);
#760=AXIS2_PLACEMENT_3D('',#1144,#942,#943);
#761=AXIS2_PLACEMENT_3D('',#1146,#945,#946);
#762=AXIS2_PLACEMENT_3D('',#1147,#947,#948);
#763=AXIS2_PLACEMENT_3D('',#1149,#949,#950);
#764=AXIS2_PLACEMENT_3D('',#1150,#951,#952);
#765=AXIS2_PLACEMENT_3D('',#1152,#953,#954);
#766=AXIS2_PLACEMENT_3D('',#1153,#955,#956);
#767=AXIS2_PLACEMENT_3D('',#1154,#957,#958);
#768=AXIS2_PLACEMENT_3D('',#1156,#959,#960);
#769=AXIS2_PLACEMENT_3D('',#1157,#961,#962);
#770=AXIS2_PLACEMENT_3D('',#1159,#963,#964);
#771=AXIS2_PLACEMENT_3D('',#1160,#965,#966);
#772=AXIS2_PLACEMENT_3D('',#1161,#967,#968);
#773=AXIS2_PLACEMENT_3D('',#1162,#969,#970);
#774=AXIS2_PLACEMENT_3D('',#1163,#971,#972);
#775=DIRECTION('axis',(0.,0.,1.));
#776=DIRECTION('refdir',(1.,0.,0.));
#777=DIRECTION('center_axis',(0.,0.,-1.));
#778=DIRECTION('ref_axis',(1.,0.,0.));
#779=DIRECTION('center_axis',(0.,0.,-1.));
#780=DIRECTION('ref_axis',(1.,0.,0.));
#781=DIRECTION('center_axis',(0.,0.,-1.));
#782=DIRECTION('ref_axis',(1.,0.,0.));
#783=DIRECTION('center_axis',(0.,0.,1.));
#784=DIRECTION('ref_axis',(1.,0.,0.));
#785=DIRECTION('center_axis',(0.,0.,1.));
#786=DIRECTION('ref_axis',(1.,0.,0.));
#787=DIRECTION('center_axis',(0.,0.,-1.));
#788=DIRECTION('ref_axis',(1.,0.,0.));
#789=DIRECTION('center_axis',(0.,0.,1.));
#790=DIRECTION('ref_axis',(1.,0.,0.));
#791=DIRECTION('center_axis',(0.,0.,-1.));
#792=DIRECTION('ref_axis',(-1.,0.,0.));
#793=DIRECTION('',(-1.,0.,0.));
#794=DIRECTION('',(0.,-1.,0.));
#795=DIRECTION('',(1.,0.,0.));
#796=DIRECTION('',(0.,1.,0.));
#797=DIRECTION('center_axis',(1.,0.,0.));
#798=DIRECTION('ref_axis',(0.,-1.,0.));
#799=DIRECTION('',(0.,0.,1.));
#800=DIRECTION('',(0.,-1.,0.));
#801=DIRECTION('',(0.,0.,-1.));
#802=DIRECTION('center_axis',(0.,0.,-1.));
#803=DIRECTION('ref_axis',(-1.,0.,0.));
#804=DIRECTION('',(0.,-1.,0.));
#805=DIRECTION('',(1.,0.,0.));
#806=DIRECTION('',(0.,1.,0.));
#807=DIRECTION('',(-1.,2.01858761282431E-16,0.));
#808=DIRECTION('center_axis',(0.,0.,1.));
#809=DIRECTION('ref_axis',(1.,0.,0.));
#810=DIRECTION('',(-1.,0.,0.));
#811=DIRECTION('',(0.,1.,0.));
#812=DIRECTION('',(1.,0.,0.));
#813=DIRECTION('',(0.,1.,0.));
#814=DIRECTION('center_axis',(0.,0.,-1.));
#815=DIRECTION('ref_axis',(0.707106781186547,0.707106781186547,0.));
#816=DIRECTION('',(-1.,0.,0.));
#817=DIRECTION('center_axis',(0.,0.,-1.));
#818=DIRECTION('ref_axis',(-0.707106781186547,0.707106781186547,0.));
#819=DIRECTION('',(0.,-1.,0.));
#820=DIRECTION('',(1.,0.,0.));
#821=DIRECTION('',(0.,-1.,0.));
#822=DIRECTION('',(-1.,2.01858761282431E-16,0.));
#823=DIRECTION('',(0.,-1.,0.));
#824=DIRECTION('center_axis',(0.,0.,-1.));
#825=DIRECTION('ref_axis',(-0.707106781186547,-0.707106781186547,0.));
#826=DIRECTION('',(1.,0.,0.));
#827=DIRECTION('center_axis',(0.,0.,-1.));
#828=DIRECTION('ref_axis',(0.707106781186547,-0.707106781186547,0.));
#829=DIRECTION('',(0.,1.,0.));
#830=DIRECTION('center_axis',(0.,0.,-1.));
#831=DIRECTION('ref_axis',(1.,0.,0.));
#832=DIRECTION('center_axis',(0.,0.,-1.));
#833=DIRECTION('ref_axis',(1.,0.,0.));
#834=DIRECTION('center_axis',(0.,0.,-1.));
#835=DIRECTION('ref_axis',(1.,0.,0.));
#836=DIRECTION('center_axis',(0.,0.,-1.));
#837=DIRECTION('ref_axis',(1.,0.,0.));
#838=DIRECTION('center_axis',(0.,0.,-1.));
#839=DIRECTION('ref_axis',(1.,0.,0.));
#840=DIRECTION('center_axis',(0.,0.,-1.));
#841=DIRECTION('ref_axis',(1.,0.,0.));
#842=DIRECTION('center_axis',(0.,0.,-1.));
#843=DIRECTION('ref_axis',(1.,0.,0.));
#844=DIRECTION('center_axis',(-1.,0.,0.));
#845=DIRECTION('ref_axis',(0.,1.,0.));
#846=DIRECTION('',(0.,0.,1.));
#847=DIRECTION('',(0.,1.,0.));
#848=DIRECTION('',(0.,0.,-1.));
#849=DIRECTION('center_axis',(0.,0.,-1.));
#850=DIRECTION('ref_axis',(1.,0.,0.));
#851=DIRECTION('center_axis',(0.,0.,1.));
#852=DIRECTION('ref_axis',(1.,0.,0.));
#853=DIRECTION('center_axis',(0.,0.,-1.));
#854=DIRECTION('ref_axis',(1.,0.,0.));
#855=DIRECTION('center_axis',(0.,0.,-1.));
#856=DIRECTION('ref_axis',(1.,0.,0.));
#857=DIRECTION('center_axis',(0.,0.,1.));
#858=DIRECTION('ref_axis',(1.,0.,0.));
#859=DIRECTION('center_axis',(0.,0.,-1.));
#860=DIRECTION('ref_axis',(1.,0.,0.));
#861=DIRECTION('center_axis',(0.,0.,-1.));
#862=DIRECTION('ref_axis',(1.,0.,0.));
#863=DIRECTION('center_axis',(0.,0.,-1.));
#864=DIRECTION('ref_axis',(1.,0.,0.));
#865=DIRECTION('center_axis',(0.,0.,-1.));
#866=DIRECTION('ref_axis',(1.,0.,0.));
#867=DIRECTION('center_axis',(0.,0.,-1.));
#868=DIRECTION('ref_axis',(1.,0.,0.));
#869=DIRECTION('center_axis',(0.,0.,-1.));
#870=DIRECTION('ref_axis',(1.,0.,0.));
#871=DIRECTION('center_axis',(0.,0.,1.));
#872=DIRECTION('ref_axis',(1.,0.,0.));
#873=DIRECTION('center_axis',(0.,0.,-1.));
#874=DIRECTION('ref_axis',(1.,0.,0.));
#875=DIRECTION('center_axis',(0.,0.,1.));
#876=DIRECTION('ref_axis',(1.,0.,0.));
#877=DIRECTION('center_axis',(0.,0.,-1.));
#878=DIRECTION('ref_axis',(1.,0.,0.));
#879=DIRECTION('center_axis',(0.,0.,1.));
#880=DIRECTION('ref_axis',(1.,0.,0.));
#881=DIRECTION('center_axis',(1.,0.,0.));
#882=DIRECTION('ref_axis',(0.,-1.,0.));
#883=DIRECTION('',(0.,-1.,0.));
#884=DIRECTION('',(0.,0.,-1.));
#885=DIRECTION('',(0.,0.,1.));
#886=DIRECTION('center_axis',(0.,1.,0.));
#887=DIRECTION('ref_axis',(1.,0.,0.));
#888=DIRECTION('',(-1.,0.,0.));
#889=DIRECTION('',(0.,0.,1.));
#890=DIRECTION('center_axis',(0.,-1.,0.));
#891=DIRECTION('ref_axis',(-1.,0.,0.));
#892=DIRECTION('',(1.,0.,0.));
#893=DIRECTION('',(0.,0.,-1.));
#894=DIRECTION('center_axis',(0.,1.,0.));
#895=DIRECTION('ref_axis',(1.,0.,0.));
#896=DIRECTION('',(-1.,0.,0.));
#897=DIRECTION('',(0.,0.,-1.));
#898=DIRECTION('',(0.,0.,-1.));
#899=DIRECTION('center_axis',(-1.,0.,0.));
#900=DIRECTION('ref_axis',(0.,1.,0.));
#901=DIRECTION('',(0.,1.,0.));
#902=DIRECTION('',(0.,0.,1.));
#903=DIRECTION('center_axis',(0.,-1.,0.));
#904=DIRECTION('ref_axis',(-1.,0.,0.));
#905=DIRECTION('',(1.,0.,0.));
#906=DIRECTION('',(0.,0.,1.));
#907=DIRECTION('center_axis',(0.,0.,1.));
#908=DIRECTION('ref_axis',(-0.707106781186547,-0.707106781186547,0.));
#909=DIRECTION('',(0.,0.,-1.));
#910=DIRECTION('center_axis',(0.,0.,1.));
#911=DIRECTION('ref_axis',(-0.707106781186547,-0.707106781186547,0.));
#912=DIRECTION('',(0.,0.,1.));
#913=DIRECTION('center_axis',(0.,-1.,0.));
#914=DIRECTION('ref_axis',(1.,0.,0.));
#915=DIRECTION('',(-1.,0.,0.));
#916=DIRECTION('',(0.,0.,-1.));
#917=DIRECTION('center_axis',(0.,0.,1.));
#918=DIRECTION('ref_axis',(1.,0.,0.));
#919=DIRECTION('',(0.,1.,0.));
#920=DIRECTION('center_axis',(0.,0.,1.));
#921=DIRECTION('ref_axis',(-0.707106781186547,0.707106781186547,0.));
#922=DIRECTION('',(1.,0.,0.));
#923=DIRECTION('center_axis',(0.,0.,1.));
#924=DIRECTION('ref_axis',(0.707106781186547,0.707106781186547,0.));
#925=DIRECTION('',(0.,-1.,0.));
#926=DIRECTION('center_axis',(0.,0.,1.));
#927=DIRECTION('ref_axis',(0.707106781186547,-0.707106781186547,0.));
#928=DIRECTION('center_axis',(0.,0.,1.));
#929=DIRECTION('ref_axis',(1.,0.,0.));
#930=DIRECTION('center_axis',(0.,0.,1.));
#931=DIRECTION('ref_axis',(1.,0.,0.));
#932=DIRECTION('center_axis',(0.,0.,1.));
#933=DIRECTION('ref_axis',(-0.707106781186547,0.707106781186547,0.));
#934=DIRECTION('',(0.,0.,-1.));
#935=DIRECTION('',(0.,0.,1.));
#936=DIRECTION('center_axis',(0.,1.,0.));
#937=DIRECTION('ref_axis',(-1.,0.,0.));
#938=DIRECTION('',(0.,0.,1.));
#939=DIRECTION('center_axis',(0.,0.,1.));
#940=DIRECTION('ref_axis',(0.707106781186547,0.707106781186547,0.));
#941=DIRECTION('',(0.,0.,-1.));
#942=DIRECTION('center_axis',(0.,0.,1.));
#943=DIRECTION('ref_axis',(0.707106781186547,-0.707106781186547,0.));
#944=DIRECTION('',(0.,0.,1.));
#945=DIRECTION('center_axis',(0.,0.,1.));
#946=DIRECTION('ref_axis',(1.,0.,0.));
#947=DIRECTION('center_axis',(0.,0.,-1.));
#948=DIRECTION('ref_axis',(1.,0.,0.));
#949=DIRECTION('center_axis',(0.,0.,-1.));
#950=DIRECTION('ref_axis',(1.,0.,0.));
#951=DIRECTION('center_axis',(0.,0.,1.));
#952=DIRECTION('ref_axis',(1.,0.,0.));
#953=DIRECTION('center_axis',(0.,0.,1.));
#954=DIRECTION('ref_axis',(1.,0.,0.));
#955=DIRECTION('center_axis',(0.,0.,1.));
#956=DIRECTION('ref_axis',(1.,0.,0.));
#957=DIRECTION('center_axis',(0.,0.,-1.));
#958=DIRECTION('ref_axis',(1.,0.,0.));
#959=DIRECTION('center_axis',(0.,0.,-1.));
#960=DIRECTION('ref_axis',(1.,0.,0.));
#961=DIRECTION('center_axis',(0.,0.,1.));
#962=DIRECTION('ref_axis',(1.,0.,0.));
#963=DIRECTION('center_axis',(0.,0.,1.));
#964=DIRECTION('ref_axis',(1.,0.,0.));
#965=DIRECTION('center_axis',(0.,0.,-1.));
#966=DIRECTION('ref_axis',(1.,0.,0.));
#967=DIRECTION('center_axis',(0.,0.,-1.));
#968=DIRECTION('ref_axis',(1.,0.,0.));
#969=DIRECTION('center_axis',(1.,0.,0.));
#970=DIRECTION('ref_axis',(0.,1.,0.));
#971=DIRECTION('center_axis',(-1.,0.,0.));
#972=DIRECTION('ref_axis',(0.,-1.,0.));
#973=CARTESIAN_POINT('',(0.,0.,0.));
#974=CARTESIAN_POINT('Origin',(-0.0170614570448313,20.5,6.35));
#975=CARTESIAN_POINT('',(-6.01706145704483,20.5,4.35));
#976=CARTESIAN_POINT('Origin',(-0.0170614570448313,20.5,4.35));
#977=CARTESIAN_POINT('',(-6.01706145704483,20.5,6.35));
#978=CARTESIAN_POINT('Origin',(-0.0170614570448313,20.5,6.35));
#979=CARTESIAN_POINT('Origin',(-0.0170614570448313,20.5,4.35));
#980=CARTESIAN_POINT('',(-3.64206145704483,20.5,4.35));
#981=CARTESIAN_POINT('Origin',(-0.0170614570448313,20.5,4.35));
#982=CARTESIAN_POINT('Origin',(-0.0170614570448313,20.5,6.35));
#983=CARTESIAN_POINT('',(-3.64206145704483,20.5,0.));
#984=CARTESIAN_POINT('Origin',(-0.0170614570448313,20.5,0.));
#985=CARTESIAN_POINT('Origin',(28.6250002011657,1.11022302462516E-15,4.6));
#986=CARTESIAN_POINT('',(30.,-3.375,4.6));
#987=CARTESIAN_POINT('',(27.2500004023314,-3.375,4.6));
#988=CARTESIAN_POINT('',(30.,-3.375,4.6));
#989=CARTESIAN_POINT('',(30.,3.375,4.6));
#990=CARTESIAN_POINT('',(30.,-15.,4.6));
#991=CARTESIAN_POINT('',(27.2500004023314,3.375,4.6));
#992=CARTESIAN_POINT('',(27.2500004023314,3.375,4.6));
#993=CARTESIAN_POINT('',(27.2500004023314,1.6875,4.6));
#994=CARTESIAN_POINT('Origin',(27.2500004023314,3.375,6.35));
#995=CARTESIAN_POINT('',(27.2500004023314,3.375,0.));
#996=CARTESIAN_POINT('',(27.2500004023314,3.375,6.35));
#997=CARTESIAN_POINT('',(27.2500004023314,-3.375,0.));
#998=CARTESIAN_POINT('',(27.2500004023314,1.6875,0.));
#999=CARTESIAN_POINT('',(27.2500004023314,-3.375,6.35));
#1000=CARTESIAN_POINT('Origin',(-28.6250002011657,3.33066907387547E-15,
4.6));
#1001=CARTESIAN_POINT('',(-27.2500004023314,3.375,4.6));
#1002=CARTESIAN_POINT('',(-27.2500004023314,-3.37499999999999,4.6));
#1003=CARTESIAN_POINT('',(-27.2500004023314,-1.6875,4.6));
#1004=CARTESIAN_POINT('',(-30.,3.375,4.6));
#1005=CARTESIAN_POINT('',(-27.2500004023314,3.375,4.6));
#1006=CARTESIAN_POINT('',(-30.,-3.37499999999999,4.6));
#1007=CARTESIAN_POINT('',(-30.,15.,4.6));
#1008=CARTESIAN_POINT('',(-30.,-3.37499999999999,4.6));
#1009=CARTESIAN_POINT('Origin',(0.,0.,6.35));
#1010=CARTESIAN_POINT('',(30.,-3.375,6.35));
#1011=CARTESIAN_POINT('',(24.7500004023314,-3.375,6.35));
#1012=CARTESIAN_POINT('',(15.,-3.375,6.35));
#1013=CARTESIAN_POINT('',(24.7500004023314,3.375,6.35));
#1014=CARTESIAN_POINT('',(24.7500004023314,-1.6875,6.35));
#1015=CARTESIAN_POINT('',(30.,3.375,6.35));
#1016=CARTESIAN_POINT('',(13.6250002011657,3.375,6.35));
#1017=CARTESIAN_POINT('',(30.,25.,6.35));
#1018=CARTESIAN_POINT('',(30.,30.,6.35));
#1019=CARTESIAN_POINT('',(25.,30.,6.35));
#1020=CARTESIAN_POINT('Origin',(25.,25.,6.35));
#1021=CARTESIAN_POINT('',(-25.,30.,6.35));
#1022=CARTESIAN_POINT('',(-30.,30.,6.35));
#1023=CARTESIAN_POINT('',(-30.,25.,6.35));
#1024=CARTESIAN_POINT('Origin',(-25.,25.,6.35));
#1025=CARTESIAN_POINT('',(-30.,3.375,6.35));
#1026=CARTESIAN_POINT('',(-30.,-30.,6.35));
#1027=CARTESIAN_POINT('',(-24.7500004023314,3.375,6.35));
#1028=CARTESIAN_POINT('',(-14.1250002011657,3.375,6.35));
#1029=CARTESIAN_POINT('',(-24.7500004023314,-3.375,6.35));
#1030=CARTESIAN_POINT('',(-24.7500004023314,1.6875,6.35));
#1031=CARTESIAN_POINT('',(-30.,-3.37499999999999,6.35));
#1032=CARTESIAN_POINT('',(-13.6250002011657,-3.375,6.35));
#1033=CARTESIAN_POINT('',(-30.,-25.,6.35));
#1034=CARTESIAN_POINT('',(-30.,-30.,6.35));
#1035=CARTESIAN_POINT('',(-25.,-30.,6.35));
#1036=CARTESIAN_POINT('Origin',(-25.,-25.,6.35));
#1037=CARTESIAN_POINT('',(25.,-30.,6.35));
#1038=CARTESIAN_POINT('',(30.,-30.,6.35));
#1039=CARTESIAN_POINT('',(30.,-25.,6.35));
#1040=CARTESIAN_POINT('Origin',(25.,-25.,6.35));
#1041=CARTESIAN_POINT('',(30.,30.,6.35));
#1042=CARTESIAN_POINT('',(-25.55,-20.5,6.35));
#1043=CARTESIAN_POINT('Origin',(-20.5,-20.5,6.35));
#1044=CARTESIAN_POINT('',(15.45,-20.5,6.35));
#1045=CARTESIAN_POINT('Origin',(20.5,-20.5,6.35));
#1046=CARTESIAN_POINT('',(7.50000014901161,-3.06161699786838E-16,6.35));
#1047=CARTESIAN_POINT('Origin',(10.0000001490116,0.,6.35));
#1048=CARTESIAN_POINT('',(-12.5000001490116,-3.06161699786838E-16,6.35));
#1049=CARTESIAN_POINT('Origin',(-10.0000001490116,0.,6.35));
#1050=CARTESIAN_POINT('',(-2.5,-3.06161699786838E-16,6.35));
#1051=CARTESIAN_POINT('Origin',(0.,0.,6.35));
#1052=CARTESIAN_POINT('',(14.5,20.5,6.35));
#1053=CARTESIAN_POINT('Origin',(20.5,20.5,6.35));
#1054=CARTESIAN_POINT('',(-26.5,20.5,6.35));
#1055=CARTESIAN_POINT('Origin',(-20.5,20.5,6.35));
#1056=CARTESIAN_POINT('Origin',(-27.2500004023314,-3.375,6.35));
#1057=CARTESIAN_POINT('',(-27.2500004023314,-3.375,0.));
#1058=CARTESIAN_POINT('',(-27.2500004023314,-3.375,6.35));
#1059=CARTESIAN_POINT('',(-27.2500004023314,3.375,0.));
#1060=CARTESIAN_POINT('',(-27.2500004023314,-1.6875,0.));
#1061=CARTESIAN_POINT('',(-27.2500004023314,3.375,6.35));
#1062=CARTESIAN_POINT('Origin',(20.5,20.5,4.35));
#1063=CARTESIAN_POINT('',(16.85,20.5,0.));
#1064=CARTESIAN_POINT('Origin',(20.5,20.5,0.));
#1065=CARTESIAN_POINT('',(16.85,20.5,4.35));
#1066=CARTESIAN_POINT('Origin',(20.5,20.5,4.35));
#1067=CARTESIAN_POINT('Origin',(-20.5,20.5,6.35));
#1068=CARTESIAN_POINT('',(-24.15,20.5,0.));
#1069=CARTESIAN_POINT('Origin',(-20.5,20.5,0.));
#1070=CARTESIAN_POINT('',(-24.15,20.5,4.35));
#1071=CARTESIAN_POINT('Origin',(-20.5,20.5,4.35));
#1072=CARTESIAN_POINT('Origin',(-20.5,20.5,6.35));
#1073=CARTESIAN_POINT('',(-26.5,20.5,4.35));
#1074=CARTESIAN_POINT('Origin',(-20.5,20.5,4.35));
#1075=CARTESIAN_POINT('Origin',(20.5,20.5,6.35));
#1076=CARTESIAN_POINT('',(14.5,20.5,4.35));
#1077=CARTESIAN_POINT('Origin',(20.5,20.5,4.35));
#1078=CARTESIAN_POINT('Origin',(0.,0.,6.35));
#1079=CARTESIAN_POINT('',(-2.5,-3.06161699786838E-16,0.));
#1080=CARTESIAN_POINT('Origin',(0.,0.,0.));
#1081=CARTESIAN_POINT('Origin',(-10.0000001490116,0.,6.35));
#1082=CARTESIAN_POINT('',(-12.5000001490116,-3.06161699786838E-16,0.));
#1083=CARTESIAN_POINT('Origin',(-10.0000001490116,0.,0.));
#1084=CARTESIAN_POINT('Origin',(10.0000001490116,0.,6.35));
#1085=CARTESIAN_POINT('',(7.50000014901161,-3.06161699786838E-16,0.));
#1086=CARTESIAN_POINT('Origin',(10.0000001490116,0.,0.));
#1087=CARTESIAN_POINT('Origin',(-24.7500004023314,3.375,6.35));
#1088=CARTESIAN_POINT('',(-24.7500004023314,-3.375,0.));
#1089=CARTESIAN_POINT('',(-24.7500004023314,3.375,0.));
#1090=CARTESIAN_POINT('',(-24.7500004023314,1.6875,0.));
#1091=CARTESIAN_POINT('',(-24.7500004023314,-3.375,6.35));
#1092=CARTESIAN_POINT('',(-24.7500004023314,3.375,6.35));
#1093=CARTESIAN_POINT('Origin',(-28.2500004023314,3.375,6.35));
#1094=CARTESIAN_POINT('',(-14.1250002011657,3.375,0.));
#1095=CARTESIAN_POINT('',(-30.,3.375,3.175));
#1096=CARTESIAN_POINT('Origin',(-25.7500004023314,-3.375,6.35));
#1097=CARTESIAN_POINT('',(-12.8750002011657,-3.375,0.));
#1098=CARTESIAN_POINT('',(-30.,-3.37499999999999,3.175));
#1099=CARTESIAN_POINT('Origin',(25.7500004023314,3.375,6.35));
#1100=CARTESIAN_POINT('',(24.7500004023314,3.375,0.));
#1101=CARTESIAN_POINT('',(12.8750002011657,3.375,0.));
#1102=CARTESIAN_POINT('',(30.,3.375,3.175));
#1103=CARTESIAN_POINT('',(24.7500004023314,3.375,6.35));
#1104=CARTESIAN_POINT('Origin',(24.7500004023314,-3.375,6.35));
#1105=CARTESIAN_POINT('',(24.7500004023314,-3.375,0.));
#1106=CARTESIAN_POINT('',(24.7500004023314,-1.6875,0.));
#1107=CARTESIAN_POINT('',(24.7500004023314,-3.375,6.35));
#1108=CARTESIAN_POINT('Origin',(28.2500004023314,-3.375,6.35));
#1109=CARTESIAN_POINT('',(14.1250002011657,-3.375,0.));
#1110=CARTESIAN_POINT('',(30.,-3.375,3.175));
#1111=CARTESIAN_POINT('Origin',(-25.,-25.,0.));
#1112=CARTESIAN_POINT('',(-30.,-25.,0.));
#1113=CARTESIAN_POINT('',(-30.,-25.,0.));
#1114=CARTESIAN_POINT('',(-25.,-30.,0.));
#1115=CARTESIAN_POINT('Origin',(-25.,-25.,0.));
#1116=CARTESIAN_POINT('',(-25.,-30.,0.));
#1117=CARTESIAN_POINT('Origin',(-30.,-30.,0.));
#1118=CARTESIAN_POINT('',(25.,-30.,0.));
#1119=CARTESIAN_POINT('',(30.,-30.,0.));
#1120=CARTESIAN_POINT('',(25.,-30.,0.));
#1121=CARTESIAN_POINT('Origin',(0.,0.,0.));
#1122=CARTESIAN_POINT('',(-30.,25.,0.));
#1123=CARTESIAN_POINT('',(-30.,-30.,0.));
#1124=CARTESIAN_POINT('',(-25.,30.,0.));
#1125=CARTESIAN_POINT('Origin',(-25.,25.,0.));
#1126=CARTESIAN_POINT('',(25.,30.,0.));
#1127=CARTESIAN_POINT('',(-30.,30.,0.));
#1128=CARTESIAN_POINT('',(30.,25.,0.));
#1129=CARTESIAN_POINT('Origin',(25.,25.,0.));
#1130=CARTESIAN_POINT('',(30.,-25.,0.));
#1131=CARTESIAN_POINT('',(30.,30.,0.));
#1132=CARTESIAN_POINT('Origin',(25.,-25.,0.));
#1133=CARTESIAN_POINT('',(-23.,-20.5,0.));
#1134=CARTESIAN_POINT('Origin',(-20.5,-20.5,0.));
#1135=CARTESIAN_POINT('',(18.,-20.5,0.));
#1136=CARTESIAN_POINT('Origin',(20.5,-20.5,0.));
#1137=CARTESIAN_POINT('Origin',(-25.,25.,0.));
#1138=CARTESIAN_POINT('',(-25.,30.,0.));
#1139=CARTESIAN_POINT('',(-30.,25.,0.));
#1140=CARTESIAN_POINT('Origin',(30.,30.,0.));
#1141=CARTESIAN_POINT('',(25.,30.,0.));
#1142=CARTESIAN_POINT('Origin',(25.,25.,0.));
#1143=CARTESIAN_POINT('',(30.,25.,0.));
#1144=CARTESIAN_POINT('Origin',(25.,-25.,0.));
#1145=CARTESIAN_POINT('',(30.,-25.,0.));
#1146=CARTESIAN_POINT('Origin',(20.5,20.5,4.35));
#1147=CARTESIAN_POINT('Origin',(20.5,-20.5,6.35));
#1148=CARTESIAN_POINT('',(15.45,-20.5,4.35));
#1149=CARTESIAN_POINT('Origin',(20.5,-20.5,4.35));
#1150=CARTESIAN_POINT('Origin',(20.5,-20.5,4.35));
#1151=CARTESIAN_POINT('',(18.,-20.5,4.35));
#1152=CARTESIAN_POINT('Origin',(20.5,-20.5,4.35));
#1153=CARTESIAN_POINT('Origin',(-20.5,20.5,4.35));
#1154=CARTESIAN_POINT('Origin',(-20.5,-20.5,6.35));
#1155=CARTESIAN_POINT('',(-25.55,-20.5,4.35));
#1156=CARTESIAN_POINT('Origin',(-20.5,-20.5,4.35));
#1157=CARTESIAN_POINT('Origin',(-20.5,-20.5,4.35));
#1158=CARTESIAN_POINT('',(-23.,-20.5,4.35));
#1159=CARTESIAN_POINT('Origin',(-20.5,-20.5,4.35));
#1160=CARTESIAN_POINT('Origin',(-20.5,-20.5,6.35));
#1161=CARTESIAN_POINT('Origin',(20.5,-20.5,6.35));
#1162=CARTESIAN_POINT('Origin',(30.,-30.,0.));
#1163=CARTESIAN_POINT('Origin',(-30.,30.,0.));
#1164=UNCERTAINTY_MEASURE_WITH_UNIT(LENGTH_MEASURE(0.01),#1170,
'DISTANCE_ACCURACY_VALUE',
'Maximum model space distance between geometric entities at asserted c
onnectivities');
#1165=UNCERTAINTY_MEASURE_WITH_UNIT(LENGTH_MEASURE(0.01),#1170,
'DISTANCE_ACCURACY_VALUE',
'Maximum model space distance between geometric entities at asserted c
onnectivities');
#1166=(
GEOMETRIC_REPRESENTATION_CONTEXT(3)
GLOBAL_UNCERTAINTY_ASSIGNED_CONTEXT((#1164))
GLOBAL_UNIT_ASSIGNED_CONTEXT((#1170,#1169,#1168))
REPRESENTATION_CONTEXT('','3D')
);
#1167=(
GEOMETRIC_REPRESENTATION_CONTEXT(3)
GLOBAL_UNCERTAINTY_ASSIGNED_CONTEXT((#1165))
GLOBAL_UNIT_ASSIGNED_CONTEXT((#1170,#1169,#1168))
REPRESENTATION_CONTEXT('','3D')
);
#1168=(
NAMED_UNIT(*)
SI_UNIT($,.STERADIAN.)
SOLID_ANGLE_UNIT()
);
#1169=(
NAMED_UNIT(*)
PLANE_ANGLE_UNIT()
SI_UNIT($,.RADIAN.)
);
#1170=(
LENGTH_UNIT()
NAMED_UNIT(*)
SI_UNIT(.MILLI.,.METRE.)
);
#1171=SHAPE_DEFINITION_REPRESENTATION(#1172,#1173);
#1172=PRODUCT_DEFINITION_SHAPE('',$,#1175);
#1173=SHAPE_REPRESENTATION('',(#702),#1166);
#1174=PRODUCT_DEFINITION_CONTEXT('part definition',#1179,'design');
#1175=PRODUCT_DEFINITION('large-wheel-2020-gantry v7',
'large-wheel-2020-gantry v7',#1176,#1174);
#1176=PRODUCT_DEFINITION_FORMATION('',$,#1181);
#1177=PRODUCT_RELATED_PRODUCT_CATEGORY('large-wheel-2020-gantry v7',
'large-wheel-2020-gantry v7',(#1181));
#1178=APPLICATION_PROTOCOL_DEFINITION('international standard',
'automotive_design',2009,#1179);
#1179=APPLICATION_CONTEXT(
'Core Data for Automotive Mechanical Design Process');
#1180=PRODUCT_CONTEXT('part definition',#1179,'mechanical');
#1181=PRODUCT('large-wheel-2020-gantry v7','large-wheel-2020-gantry v7',
$,(#1180));
#1182=PRESENTATION_STYLE_ASSIGNMENT((#1183));
#1183=SURFACE_STYLE_USAGE(.BOTH.,#1184);
#1184=SURFACE_SIDE_STYLE('',(#1185));
#1185=SURFACE_STYLE_FILL_AREA(#1186);
#1186=FILL_AREA_STYLE('Steel - Satin',(#1187));
#1187=FILL_AREA_STYLE_COLOUR('Steel - Satin',#1188);
#1188=COLOUR_RGB('Steel - Satin',0.627450980392157,0.627450980392157,0.627450980392157);
ENDSEC;
END-ISO-10303-21;
