ISO-10303-21;
HEADER;
FILE_DESCRIPTION (( 'STEP AP214' ),
    '1' );
FILE_NAME ('Gutter Spacer.STEP',
    '2025-12-30T09:46:18',
    ( '' ),
    ( '' ),
    'SwSTEP 2.0',
    'SolidWorks 2026',
    '' );
FILE_SCHEMA (( 'AUTOMOTIVE_DESIGN' ));
ENDSEC;

DATA;
#1 = LINE ( 'NONE', #791, #575 ) ;
#2 = EDGE_CURVE ( 'NONE', #574, #834, #64, .T. ) ;
#3 = DIRECTION ( 'NONE',  ( 0.000000000000000000, 0.000000000000000000, 1.000000000000000000 ) ) ;
#4 = CARTESIAN_POINT ( 'NONE',  ( 88.74230351012056417, -70.00000000000312639, 4.000000000000000000 ) ) ;
#5 = ORIENTED_EDGE ( 'NONE', *, *, #57, .T. ) ;
#6 = ADVANCED_FACE ( 'NONE', ( #475 ), #8, .F. ) ;
#7 = VECTOR ( 'NONE', #510, 1000.000000000000000 ) ;
#8 = CYLINDRICAL_SURFACE ( 'NONE', #92, 2.000000000000001776 ) ;
#9 = LINE ( 'NONE', #147, #688 ) ;
#10 = DIRECTION ( 'NONE',  ( 1.000000000000000000, 0.000000000000000000, 0.000000000000000000 ) ) ;
#11 = DIRECTION ( 'NONE',  ( -0.000000000000000000, -0.000000000000000000, -1.000000000000000000 ) ) ;
#12 = APPLICATION_PROTOCOL_DEFINITION ( 'draft international standard', 'automotive_design', 1998, #726 ) ;
#13 = ORIENTED_EDGE ( 'NONE', *, *, #555, .T. ) ;
#14 = FACE_OUTER_BOUND ( 'NONE', #182, .T. ) ;
#15 = DIRECTION ( 'NONE',  ( -0.7071067811865513475, -0.000000000000000000, 0.7071067811865435759 ) ) ;
#16 = CARTESIAN_POINT ( 'NONE',  ( 75.73845914864976692, -72.00000000000288480, 4.000000000000000000 ) ) ;
#17 = VECTOR ( 'NONE', #696, 1000.000000000000000 ) ;
#18 = MECHANICAL_DESIGN_GEOMETRIC_PRESENTATION_REPRESENTATION (  '', ( #772 ), #501 ) ;
#19 = ORIENTED_EDGE ( 'NONE', *, *, #170, .F. ) ;
#20 = DIRECTION ( 'NONE',  ( 1.000000000000000000, 0.000000000000000000, 0.000000000000000000 ) ) ;
#21 = AXIS2_PLACEMENT_3D ( 'NONE', #460, #197, #215 ) ;
#22 = ADVANCED_FACE ( 'NONE', ( #590 ), #468, .F. ) ;
#23 = CARTESIAN_POINT ( 'NONE',  ( 122.7423035101205642, -72.00000000000312639, 5.999999999999998224 ) ) ;
#24 = VERTEX_POINT ( 'NONE', #537 ) ;
#25 = DIRECTION ( 'NONE',  ( 0.000000000000000000, 0.000000000000000000, -1.000000000000000000 ) ) ;
#26 = DIRECTION ( 'NONE',  ( -0.000000000000000000, -0.000000000000000000, -1.000000000000000000 ) ) ;
#27 = EDGE_CURVE ( 'NONE', #217, #535, #459, .T. ) ;
#28 = EDGE_LOOP ( 'NONE', ( #777, #502, #554, #767 ) ) ;
#29 = VERTEX_POINT ( 'NONE', #660 ) ;
#30 = DIRECTION ( 'NONE',  ( 1.000000000000000000, 1.850371707708594070E-16, 0.000000000000000000 ) ) ;
#31 = ORIENTED_EDGE ( 'NONE', *, *, #800, .F. ) ;
#32 = ADVANCED_FACE ( 'NONE', ( #806 ), #478, .F. ) ;
#33 = FACE_OUTER_BOUND ( 'NONE', #42, .T. ) ;
#34 = ORIENTED_EDGE ( 'NONE', *, *, #419, .T. ) ;
#35 = VECTOR ( 'NONE', #229, 1000.000000000000000 ) ;
#36 = CARTESIAN_POINT ( 'NONE',  ( 114.7423035101205926, -72.00000000000312639, 44.00000000000005684 ) ) ;
#37 = AXIS2_PLACEMENT_3D ( 'NONE', #289, #624, #680 ) ;
#38 = SURFACE_SIDE_STYLE ('',( #298 ) ) ;
#39 = DIRECTION ( 'NONE',  ( 1.000000000000000000, 1.850371707708594070E-16, 0.000000000000000000 ) ) ;
#40 = ORIENTED_EDGE ( 'NONE', *, *, #154, .T. ) ;
#41 = DIRECTION ( 'NONE',  ( 0.000000000000000000, 0.000000000000000000, 1.000000000000000000 ) ) ;
#42 = EDGE_LOOP ( 'NONE', ( #194, #547, #516, #240 ) ) ;
#43 = LINE ( 'NONE', #433, #17 ) ;
#44 = ORIENTED_EDGE ( 'NONE', *, *, #87, .F. ) ;
#45 = DIRECTION ( 'NONE',  ( 0.7071067811865513475, 1.308410382236486167E-16, -0.7071067811865435759 ) ) ;
#46 = PRODUCT_DEFINITION ( 'UNKNOWN', '', #829, #530 ) ;
#47 = ORIENTED_EDGE ( 'NONE', *, *, #573, .T. ) ;
#48 = DIRECTION ( 'NONE',  ( 0.000000000000000000, -0.000000000000000000, -1.000000000000000000 ) ) ;
#49 = FACE_BOUND ( 'NONE', #636, .T. ) ;
#50 = CARTESIAN_POINT ( 'NONE',  ( 88.74230351012056417, -72.00000000000312639, 5.999999999999998224 ) ) ;
#51 = ADVANCED_FACE ( 'NONE', ( #351, #552 ), #747, .F. ) ;
#52 = VECTOR ( 'NONE', #703, 1000.000000000000000 ) ;
#53 = ORIENTED_EDGE ( 'NONE', *, *, #639, .T. ) ;
#54 = CARTESIAN_POINT ( 'NONE',  ( 127.7461478715745073, -72.00000000000270006, 4.000000000000000000 ) ) ;
#55 = FACE_OUTER_BOUND ( 'NONE', #598, .T. ) ;
#56 = VERTEX_POINT ( 'NONE', #614 ) ;
#57 = EDGE_CURVE ( 'NONE', #570, #233, #355, .T. ) ;
#58 = DIRECTION ( 'NONE',  ( 1.000000000000000000, 0.000000000000000000, 0.000000000000000000 ) ) ;
#59 = CARTESIAN_POINT ( 'NONE',  ( 130.3461478716026249, -72.00000000000270006, 4.000000000000000000 ) ) ;
#60 = DIRECTION ( 'NONE',  ( 1.982541115402063729E-15, -1.000000000000000000, 0.000000000000000000 ) ) ;
#61 = ORIENTED_EDGE ( 'NONE', *, *, #555, .F. ) ;
#62 = EDGE_CURVE ( 'NONE', #736, #294, #425, .T. ) ;
#63 = AXIS2_PLACEMENT_3D ( 'NONE', #189, #504, #837 ) ;
#64 = LINE ( 'NONE', #205, #731 ) ;
#65 = DIRECTION ( 'NONE',  ( -1.850371707708594070E-16, 1.000000000000000000, -0.000000000000000000 ) ) ;
#66 = DIRECTION ( 'NONE',  ( 1.000000000000000000, 0.000000000000000000, 0.000000000000000000 ) ) ;
#67 = ORIENTED_EDGE ( 'NONE', *, *, #188, .F. ) ;
#68 = VECTOR ( 'NONE', #678, 1000.000000000000000 ) ;
#69 = ORIENTED_EDGE ( 'NONE', *, *, #419, .F. ) ;
#70 = DIRECTION ( 'NONE',  ( -1.000000000000000000, 0.000000000000000000, -0.000000000000000000 ) ) ;
#71 = FACE_OUTER_BOUND ( 'NONE', #682, .T. ) ;
#72 = ORIENTED_EDGE ( 'NONE', *, *, #170, .T. ) ;
#73 = FACE_OUTER_BOUND ( 'NONE', #603, .T. ) ;
#74 = DIRECTION ( 'NONE',  ( 0.000000000000000000, 0.000000000000000000, 1.000000000000000000 ) ) ;
#75 = LINE ( 'NONE', #730, #591 ) ;
#76 = VECTOR ( 'NONE', #842, 1000.000000000000000 ) ;
#77 = DIRECTION ( 'NONE',  ( -1.000000000000000000, 0.000000000000000000, 0.000000000000000000 ) ) ;
#78 = ORIENTED_EDGE ( 'NONE', *, *, #845, .F. ) ;
#79 = VECTOR ( 'NONE', #593, 1000.000000000000000 ) ;
#80 = AXIS2_PLACEMENT_3D ( 'NONE', #356, #618, #810 ) ;
#81 = CARTESIAN_POINT ( 'NONE',  ( 88.74230351012056417, -72.00000000000312639, 43.99999999999990763 ) ) ;
#82 =( NAMED_UNIT ( * ) PLANE_ANGLE_UNIT ( ) SI_UNIT ( $, .RADIAN. ) );
#83 = VERTEX_POINT ( 'NONE', #81 ) ;
#84 = CARTESIAN_POINT ( 'NONE',  ( 73.13845914863851760, -72.00000000000288480, 4.000000000000000000 ) ) ;
#85 = EDGE_CURVE ( 'NONE', #429, #363, #89, .T. ) ;
#86 = DIRECTION ( 'NONE',  ( -1.000000000000000000, 0.000000000000000000, -0.000000000000000000 ) ) ;
#87 = EDGE_CURVE ( 'NONE', #402, #535, #515, .T. ) ;
#88 = EDGE_CURVE ( 'NONE', #233, #496, #796, .T. ) ;
#89 = LINE ( 'NONE', #349, #410 ) ;
#90 =( LENGTH_UNIT ( ) NAMED_UNIT ( * ) SI_UNIT ( .MILLI., .METRE. ) );
#91 = CARTESIAN_POINT ( 'NONE',  ( 114.7423035101205926, -72.00000000000312639, 5.999999999999998224 ) ) ;
#92 = AXIS2_PLACEMENT_3D ( 'NONE', #136, #330, #58 ) ;
#93 = ORIENTED_EDGE ( 'NONE', *, *, #85, .T. ) ;
#94 = EDGE_CURVE ( 'NONE', #464, #448, #282, .T. ) ;
#95 = AXIS2_PLACEMENT_3D ( 'NONE', #401, #74, #216 ) ;
#96 = LINE ( 'NONE', #559, #428 ) ;
#97 = ORIENTED_EDGE ( 'NONE', *, *, #142, .F. ) ;
#98 = LINE ( 'NONE', #481, #676 ) ;
#99 = EDGE_CURVE ( 'NONE', #634, #238, #168, .T. ) ;
#100 = VERTEX_POINT ( 'NONE', #690 ) ;
#101 = DIRECTION ( 'NONE',  ( -1.000000000000000000, -0.000000000000000000, -0.000000000000000000 ) ) ;
#102 = ORIENTED_EDGE ( 'NONE', *, *, #435, .T. ) ;
#103 = DIRECTION ( 'NONE',  ( -1.000000000000000000, 0.000000000000000000, 0.000000000000000000 ) ) ;
#104 = ORIENTED_EDGE ( 'NONE', *, *, #457, .F. ) ;
#105 = AXIS2_PLACEMENT_3D ( 'NONE', #700, #507, #192 ) ;
#106 = CARTESIAN_POINT ( 'NONE',  ( 139.2423035101205642, -79.00000000000312639, 4.000000000000000000 ) ) ;
#107 = AXIS2_PLACEMENT_3D ( 'NONE', #303, #783, #581 ) ;
#108 = CARTESIAN_POINT ( 'NONE',  ( 122.7423035101205642, -72.00000000000312639, 65.00000000000000000 ) ) ;
#109 = ORIENTED_EDGE ( 'NONE', *, *, #158, .F. ) ;
#110 =( NAMED_UNIT ( * ) PLANE_ANGLE_UNIT ( ) SI_UNIT ( $, .RADIAN. ) );
#111 = EDGE_CURVE ( 'NONE', #780, #838, #852, .T. ) ;
#112 = FACE_OUTER_BOUND ( 'NONE', #506, .T. ) ;
#113 = ORIENTED_EDGE ( 'NONE', *, *, #198, .F. ) ;
#114 = LINE ( 'NONE', #641, #744 ) ;
#115 = ORIENTED_EDGE ( 'NONE', *, *, #88, .T. ) ;
#116 = CARTESIAN_POINT ( 'NONE',  ( 64.24230351012056417, -79.00000000000314060, 0.000000000000000000 ) ) ;
#117 = CARTESIAN_POINT ( 'NONE',  ( 80.74230351012056417, -70.00000000000312639, 5.999999999999998224 ) ) ;
#118 = ADVANCED_FACE ( 'NONE', ( #112 ), #778, .F. ) ;
#119 = DIRECTION ( 'NONE',  ( -0.000000000000000000, 0.000000000000000000, 1.000000000000000000 ) ) ;
#120 = ORIENTED_EDGE ( 'NONE', *, *, #508, .F. ) ;
#121 = AXIS2_PLACEMENT_3D ( 'NONE', #821, #221, #160 ) ;
#122 = SURFACE_STYLE_USAGE ( .BOTH. , #38 ) ;
#123 = CARTESIAN_POINT ( 'NONE',  ( 80.74230351012056417, -72.00000000000312639, 5.999999999999998224 ) ) ;
#124 = ORIENTED_EDGE ( 'NONE', *, *, #198, .T. ) ;
#125 = EDGE_CURVE ( 'NONE', #379, #218, #437, .T. ) ;
#126 = CARTESIAN_POINT ( 'NONE',  ( 80.74230351012056417, -79.00000000000314060, 65.00000000000000000 ) ) ;
#127 = VECTOR ( 'NONE', #77, 1000.000000000000000 ) ;
#128 =( GEOMETRIC_REPRESENTATION_CONTEXT ( 3 ) GLOBAL_UNCERTAINTY_ASSIGNED_CONTEXT ( ( #812 ) ) GLOBAL_UNIT_ASSIGNED_CONTEXT ( ( #90, #82, #683 ) ) REPRESENTATION_CONTEXT ( 'NONE', 'WORKASPACE' ) );
#129 = ORIENTED_EDGE ( 'NONE', *, *, #728, .T. ) ;
#130 = CARTESIAN_POINT ( 'NONE',  ( 88.74230351012056417, -79.00000000000314060, 5.999999999999998224 ) ) ;
#131 = ADVANCED_FACE ( 'NONE', ( #33 ), #305, .F. ) ;
#132 = EDGE_LOOP ( 'NONE', ( #242, #416, #446, #353 ) ) ;
#133 = CARTESIAN_POINT ( 'NONE',  ( 130.3461478716026249, -72.00000000000270006, 4.000000000000000000 ) ) ;
#134 = DIRECTION ( 'NONE',  ( 1.000000000000000000, 1.850371707708594070E-16, 0.000000000000000000 ) ) ;
#135 = ORIENTED_EDGE ( 'NONE', *, *, #845, .T. ) ;
#136 = CARTESIAN_POINT ( 'NONE',  ( 124.7423035101205784, -79.00000000000314060, 5.999999999999998224 ) ) ;
#137 = DIRECTION ( 'NONE',  ( 1.000000000000000000, 1.850371707708594070E-16, 0.000000000000000000 ) ) ;
#138 = CYLINDRICAL_SURFACE ( 'NONE', #649, 2.000000000000001776 ) ;
#139 = EDGE_LOOP ( 'NONE', ( #765, #208, #186, #184 ) ) ;
#140 = VECTOR ( 'NONE', #465, 1000.000000000000000 ) ;
#141 = VECTOR ( 'NONE', #739, 1000.000000000000000 ) ;
#142 = EDGE_CURVE ( 'NONE', #233, #436, #567, .T. ) ;
#143 = ORIENTED_EDGE ( 'NONE', *, *, #274, .F. ) ;
#144 = DIRECTION ( 'NONE',  ( -0.000000000000000000, -0.000000000000000000, -1.000000000000000000 ) ) ;
#145 = FACE_OUTER_BOUND ( 'NONE', #28, .T. ) ;
#146 = ORIENTED_EDGE ( 'NONE', *, *, #27, .T. ) ;
#147 = CARTESIAN_POINT ( 'NONE',  ( 112.7423035101205926, -72.00000000000312639, 4.000000000000000000 ) ) ;
#148 = EDGE_CURVE ( 'NONE', #669, #436, #385, .T. ) ;
#149 = CARTESIAN_POINT ( 'NONE',  ( 130.3461478716026249, -72.00000000000270006, 4.000000000000000000 ) ) ;
#150 = ORIENTED_EDGE ( 'NONE', *, *, #27, .F. ) ;
#151 = DIRECTION ( 'NONE',  ( 1.000000000000000000, 0.000000000000000000, 0.000000000000000000 ) ) ;
#152 = CARTESIAN_POINT ( 'NONE',  ( 73.13845914863851760, -72.00000000000288480, 4.000000000000000000 ) ) ;
#153 = ORIENTED_EDGE ( 'NONE', *, *, #94, .F. ) ;
#154 = EDGE_CURVE ( 'NONE', #574, #309, #493, .T. ) ;
#155 = AXIS2_PLACEMENT_3D ( 'NONE', #768, #369, #103 ) ;
#156 = ORIENTED_EDGE ( 'NONE', *, *, #398, .T. ) ;
#157 = CARTESIAN_POINT ( 'NONE',  ( 123.5707306348667345, -71.17157287525694187, 3.999999999999998224 ) ) ;
#158 = EDGE_CURVE ( 'NONE', #406, #736, #259, .T. ) ;
#159 = ORIENTED_EDGE ( 'NONE', *, *, #398, .F. ) ;
#160 = DIRECTION ( 'NONE',  ( -1.000000000000000000, -1.850371707708594070E-16, 0.000000000000000000 ) ) ;
#161 = EDGE_LOOP ( 'NONE', ( #770, #69, #840, #328 ) ) ;
#162 = FACE_OUTER_BOUND ( 'NONE', #161, .T. ) ;
#163 = ORIENTED_EDGE ( 'NONE', *, *, #321, .T. ) ;
#164 = CARTESIAN_POINT ( 'NONE',  ( 80.74230351012056417, -72.00000000000312639, 5.999999999999998224 ) ) ;
#165 = ORIENTED_EDGE ( 'NONE', *, *, #321, .F. ) ;
#166 = CYLINDRICAL_SURFACE ( 'NONE', #80, 2.000000000000001776 ) ;
#167 = VECTOR ( 'NONE', #209, 1000.000000000000000 ) ;
#168 = LINE ( 'NONE', #540, #370 ) ;
#169 = AXIS2_PLACEMENT_3D ( 'NONE', #296, #615, #86 ) ;
#170 = EDGE_CURVE ( 'NONE', #551, #439, #382, .T. ) ;
#171 = CIRCLE ( 'NONE', #225, 2.000000000000001776 ) ;
#172 = ORIENTED_EDGE ( 'NONE', *, *, #775, .T. ) ;
#173 = CARTESIAN_POINT ( 'NONE',  ( 114.7423035101205926, -72.00000000000312639, 5.999999999999998224 ) ) ;
#174 = DIRECTION ( 'NONE',  ( -1.000000000000000000, 0.000000000000000000, -0.000000000000000000 ) ) ;
#175 = ORIENTED_EDGE ( 'NONE', *, *, #246, .F. ) ;
#176 = DIRECTION ( 'NONE',  ( 1.000000000000000000, 0.000000000000000000, 0.000000000000000000 ) ) ;
#177 = EDGE_LOOP ( 'NONE', ( #261, #494 ) ) ;
#178 = CARTESIAN_POINT ( 'NONE',  ( 113.9138763853744081, -71.17157287525694187, 3.999999999999998224 ) ) ;
#179 = CARTESIAN_POINT ( 'NONE',  ( 139.2423035101205642, -64.00000000000312639, 4.000000000000000000 ) ) ;
#180 = ORIENTED_EDGE ( 'NONE', *, *, #388, .F. ) ;
#181 = FACE_OUTER_BOUND ( 'NONE', #816, .T. ) ;
#182 = EDGE_LOOP ( 'NONE', ( #558, #172, #577, #384 ) ) ;
#183 = FACE_BOUND ( 'NONE', #177, .T. ) ;
#184 = ORIENTED_EDGE ( 'NONE', *, *, #707, .F. ) ;
#185 = CYLINDRICAL_SURFACE ( 'NONE', #107, 2.000000000000001776 ) ;
#186 = ORIENTED_EDGE ( 'NONE', *, *, #654, .F. ) ;
#187 =( NAMED_UNIT ( * ) SI_UNIT ( $, .STERADIAN. ) SOLID_ANGLE_UNIT ( ) );
#188 = EDGE_CURVE ( 'NONE', #715, #56, #315, .T. ) ;
#189 = CARTESIAN_POINT ( 'NONE',  ( 73.13845914863851760, -72.00000000000288480, 4.000000000000000000 ) ) ;
#190 = DIRECTION ( 'NONE',  ( 0.000000000000000000, 0.000000000000000000, -1.000000000000000000 ) ) ;
#191 = ORIENTED_EDGE ( 'NONE', *, *, #761, .T. ) ;
#192 = DIRECTION ( 'NONE',  ( 0.000000000000000000, 0.000000000000000000, -1.000000000000000000 ) ) ;
#193 = DIRECTION ( 'NONE',  ( 1.850371707708594070E-16, -1.000000000000000000, 0.000000000000000000 ) ) ;
#194 = ORIENTED_EDGE ( 'NONE', *, *, #734, .T. ) ;
#195 = CARTESIAN_POINT ( 'NONE',  ( 114.7423035101205926, -72.00000000000312639, 44.00000000000005684 ) ) ;
#196 = ORIENTED_EDGE ( 'NONE', *, *, #583, .T. ) ;
#197 = DIRECTION ( 'NONE',  ( 1.000000000000000000, 1.982541115402063729E-15, -0.000000000000000000 ) ) ;
#198 = EDGE_CURVE ( 'NONE', #29, #594, #264, .T. ) ;
#199 = VECTOR ( 'NONE', #693, 1000.000000000000000 ) ;
#200 = EDGE_LOOP ( 'NONE', ( #659, #295, #230, #34, #587, #836, #129, #705, #163 ) ) ;
#201 = ORIENTED_EDGE ( 'NONE', *, *, #800, .T. ) ;
#202 = DIRECTION ( 'NONE',  ( 0.000000000000000000, 1.000000000000000000, 0.000000000000000000 ) ) ;
#203 = PLANE ( 'NONE',  #517 ) ;
#204 = EDGE_LOOP ( 'NONE', ( #339, #623, #146, #44 ) ) ;
#205 = CARTESIAN_POINT ( 'NONE',  ( 88.74230351012056417, -79.00000000000314060, 59.00000000000000711 ) ) ;
#206 = LINE ( 'NONE', #404, #288 ) ;
#207 = LINE ( 'NONE', #4, #487 ) ;
#208 = ORIENTED_EDGE ( 'NONE', *, *, #99, .F. ) ;
#209 = DIRECTION ( 'NONE',  ( -0.000000000000000000, 1.000000000000000000, -0.000000000000000000 ) ) ;
#210 = ORIENTED_EDGE ( 'NONE', *, *, #519, .T. ) ;
#211 = CARTESIAN_POINT ( 'NONE',  ( 88.74230351012056417, -64.00000000000312639, 59.00000000000000711 ) ) ;
#212 = CARTESIAN_POINT ( 'NONE',  ( 122.7423035101205784, -79.00000000000314060, 67.00000000000000000 ) ) ;
#213 = VECTOR ( 'NONE', #292, 1000.000000000000000 ) ;
#214 = EDGE_CURVE ( 'NONE', #448, #291, #557, .T. ) ;
#215 = DIRECTION ( 'NONE',  ( 0.000000000000000000, -1.000000000000000000, 0.000000000000000000 ) ) ;
#216 = DIRECTION ( 'NONE',  ( 1.000000000000000000, 0.000000000000000000, 0.000000000000000000 ) ) ;
#217 = VERTEX_POINT ( 'NONE', #54 ) ;
#218 = VERTEX_POINT ( 'NONE', #323 ) ;
#219 = CARTESIAN_POINT ( 'NONE',  ( 88.74230351012056417, -72.00000000000312639, 67.00000000000000000 ) ) ;
#220 = ORIENTED_EDGE ( 'NONE', *, *, #348, .F. ) ;
#221 = DIRECTION ( 'NONE',  ( -1.850371707708594070E-16, 1.000000000000000000, 0.000000000000000000 ) ) ;
#222 = ADVANCED_FACE ( 'NONE', ( #183, #310, #49 ), #254, .F. ) ;
#223 = CARTESIAN_POINT ( 'NONE',  ( 124.7423035101205642, -70.00000000000312639, 4.000000000000000000 ) ) ;
#224 = AXIS2_PLACEMENT_3D ( 'NONE', #211, #340, #527 ) ;
#225 = AXIS2_PLACEMENT_3D ( 'NONE', #857, #336, #407 ) ;
#226 = CARTESIAN_POINT ( 'NONE',  ( 90.74230351012056417, -79.00000000000314060, 4.000000000000000000 ) ) ;
#227 = CARTESIAN_POINT ( 'NONE',  ( 114.7423035101205926, -79.00000000000312639, 5.999999999999998224 ) ) ;
#228 = DIRECTION ( 'NONE',  ( -1.850371707708594070E-16, 1.000000000000000000, 0.000000000000000000 ) ) ;
#229 = DIRECTION ( 'NONE',  ( -1.000000000000000000, -1.850371707708594070E-16, 0.000000000000000000 ) ) ;
#230 = ORIENTED_EDGE ( 'NONE', *, *, #57, .F. ) ;
#231 = DIRECTION ( 'NONE',  ( 1.000000000000000000, 0.000000000000000000, 0.000000000000000000 ) ) ;
#232 = VECTOR ( 'NONE', #638, 1000.000000000000000 ) ;
#233 = VERTEX_POINT ( 'NONE', #123 ) ;
#234 = VECTOR ( 'NONE', #119, 1000.000000000000000 ) ;
#235 = DIRECTION ( 'NONE',  ( -0.000000000000000000, -0.000000000000000000, -1.000000000000000000 ) ) ;
#236 = CIRCLE ( 'NONE', #319, 2.000000000000001776 ) ;
#237 = CARTESIAN_POINT ( 'NONE',  ( 88.74230351012056417, -79.00000000000314060, 4.000000000000000000 ) ) ;
#238 = VERTEX_POINT ( 'NONE', #701 ) ;
#239 = CARTESIAN_POINT ( 'NONE',  ( 93.99230351012033680, -79.00000000000314060, 49.24999999999973710 ) ) ;
#240 = ORIENTED_EDGE ( 'NONE', *, *, #450, .F. ) ;
#241 = CARTESIAN_POINT ( 'NONE',  ( 139.2423035101205642, -79.00000000000312639, 4.000000000000000000 ) ) ;
#242 = ORIENTED_EDGE ( 'NONE', *, *, #2, .T. ) ;
#243 = CARTESIAN_POINT ( 'NONE',  ( 139.2423035101205642, -64.00000000000312639, 0.000000000000000000 ) ) ;
#244 = ORIENTED_EDGE ( 'NONE', *, *, #372, .T. ) ;
#245 = CARTESIAN_POINT ( 'NONE',  ( 88.74230351012056417, -64.00000000000312639, 43.99999999999990763 ) ) ;
#246 = EDGE_CURVE ( 'NONE', #439, #464, #43, .T. ) ;
#247 = CIRCLE ( 'NONE', #630, 2.000000000000001776 ) ;
#248 = CARTESIAN_POINT ( 'NONE',  ( 101.7423035101205073, -79.00000000000314060, 57.00000000000000711 ) ) ;
#249 = DIRECTION ( 'NONE',  ( -0.000000000000000000, 1.000000000000000000, -0.000000000000000000 ) ) ;
#250 = AXIS2_PLACEMENT_3D ( 'NONE', #273, #525, #461 ) ;
#251 = CARTESIAN_POINT ( 'NONE',  ( 122.7423035101205784, -77.00000000000312639, 67.00000000000000000 ) ) ;
#252 = ORIENTED_EDGE ( 'NONE', *, *, #111, .T. ) ;
#253 = EDGE_CURVE ( 'NONE', #669, #418, #247, .T. ) ;
#254 = PLANE ( 'NONE',  #856 ) ;
#255 = ORIENTED_EDGE ( 'NONE', *, *, #855, .F. ) ;
#256 = DIRECTION ( 'NONE',  ( -1.000000000000000000, 0.000000000000000000, 0.000000000000000000 ) ) ;
#257 = ORIENTED_EDGE ( 'NONE', *, *, #306, .F. ) ;
#258 = ADVANCED_FACE ( 'NONE', ( #832 ), #766, .F. ) ;
#259 = LINE ( 'NONE', #243, #453 ) ;
#260 = DIRECTION ( 'NONE',  ( 0.7071067811865514585, 1.308410382236486414E-16, -0.7071067811865435759 ) ) ;
#261 = ORIENTED_EDGE ( 'NONE', *, *, #372, .F. ) ;
#262 = AXIS2_PLACEMENT_3D ( 'NONE', #847, #714, #512 ) ;
#263 = VECTOR ( 'NONE', #279, 1000.000000000000000 ) ;
#264 = LINE ( 'NONE', #442, #702 ) ;
#265 = FACE_BOUND ( 'NONE', #809, .T. ) ;
#266 = AXIS2_PLACEMENT_3D ( 'NONE', #324, #632, #452 ) ;
#267 = CYLINDRICAL_SURFACE ( 'NONE', #250, 2.600000000028107827 ) ;
#268 = VERTEX_POINT ( 'NONE', #708 ) ;
#269 = DIRECTION ( 'NONE',  ( 0.000000000000000000, 0.000000000000000000, -1.000000000000000000 ) ) ;
#270 = EDGE_CURVE ( 'NONE', #325, #406, #378, .T. ) ;
#271 = ORIENTED_EDGE ( 'NONE', *, *, #508, .T. ) ;
#272 = DIRECTION ( 'NONE',  ( 1.850371707708594070E-16, -1.000000000000000000, -2.051301589523017084E-32 ) ) ;
#273 = CARTESIAN_POINT ( 'NONE',  ( 130.3461478716026249, -72.00000000000270006, 4.000000000000000000 ) ) ;
#274 = EDGE_CURVE ( 'NONE', #663, #439, #342, .T. ) ;
#275 = CARTESIAN_POINT ( 'NONE',  ( 132.9461478716307283, -72.00000000000270006, 4.000000000000000000 ) ) ;
#276 = CARTESIAN_POINT ( 'NONE',  ( 1.424786214935675726E-14, -77.00000000000315481, 65.00000000000000000 ) ) ;
#277 = VECTOR ( 'NONE', #814, 1000.000000000000000 ) ;
#278 = VECTOR ( 'NONE', #495, 1000.000000000000000 ) ;
#279 = DIRECTION ( 'NONE',  ( -0.000000000000000000, -0.000000000000000000, -1.000000000000000000 ) ) ;
#280 = DIRECTION ( 'NONE',  ( -0.000000000000000000, 0.000000000000000000, -1.000000000000000000 ) ) ;
#281 = ADVANCED_FACE ( 'NONE', ( #522 ), #825, .F. ) ;
#282 = LINE ( 'NONE', #227, #529 ) ;
#283 = PLANE ( 'NONE',  #169 ) ;
#284 = CARTESIAN_POINT ( 'NONE',  ( 64.24230351012056417, -64.00000000000314060, 0.000000000000000000 ) ) ;
#285 = VECTOR ( 'NONE', #644, 1000.000000000000000 ) ;
#286 = CARTESIAN_POINT ( 'NONE',  ( 88.74230351012056417, -79.00000000000314060, 43.99999999999990763 ) ) ;
#287 = ORIENTED_EDGE ( 'NONE', *, *, #125, .T. ) ;
#288 = VECTOR ( 'NONE', #737, 1000.000000000000000 ) ;
#289 = CARTESIAN_POINT ( 'NONE',  ( 73.13845914863851760, -72.00000000000288480, 0.000000000000000000 ) ) ;
#290 = LINE ( 'NONE', #480, #213 ) ;
#291 = VERTEX_POINT ( 'NONE', #841 ) ;
#292 = DIRECTION ( 'NONE',  ( -0.000000000000000000, -1.000000000000000000, -0.000000000000000000 ) ) ;
#293 = EDGE_CURVE ( 'NONE', #464, #808, #383, .T. ) ;
#294 = VERTEX_POINT ( 'NONE', #116 ) ;
#295 = ORIENTED_EDGE ( 'NONE', *, *, #450, .T. ) ;
#296 = CARTESIAN_POINT ( 'NONE',  ( 0.000000000000000000, 0.000000000000000000, 67.00000000000000000 ) ) ;
#297 = EDGE_LOOP ( 'NONE', ( #451, #135, #685, #40, #403, #381, #362 ) ) ;
#298 = SURFACE_STYLE_FILL_AREA ( #562 ) ;
#299 = AXIS2_PLACEMENT_3D ( 'NONE', #245, #260, #763 ) ;
#300 = ADVANCED_FACE ( 'NONE', ( #781 ), #488, .F. ) ;
#301 = DIRECTION ( 'NONE',  ( 1.000000000000000000, 0.000000000000000000, 0.000000000000000000 ) ) ;
#302 = EDGE_LOOP ( 'NONE', ( #746, #542, #579, #443 ) ) ;
#303 = CARTESIAN_POINT ( 'NONE',  ( 0.000000000000000000, -74.00000000000312639, 65.00000000000000000 ) ) ;
#304 = EDGE_LOOP ( 'NONE', ( #677, #483, #93, #220 ) ) ;
#305 = CYLINDRICAL_SURFACE ( 'NONE', #604, 2.000000000000000000 ) ;
#306 = EDGE_CURVE ( 'NONE', #218, #496, #432, .T. ) ;
#307 = EDGE_LOOP ( 'NONE', ( #255, #616, #120, #19 ) ) ;
#308 = CARTESIAN_POINT ( 'NONE',  ( 124.7423035101205642, -70.00000000000312639, 4.000000000000000000 ) ) ;
#309 = VERTEX_POINT ( 'NONE', #248 ) ;
#310 = FACE_OUTER_BOUND ( 'NONE', #359, .T. ) ;
#311 = CARTESIAN_POINT ( 'NONE',  ( 122.7423035101205784, -79.00000000000314060, 65.00000000000000000 ) ) ;
#312 = AXIS2_PLACEMENT_3D ( 'NONE', #420, #743, #20 ) ;
#313 = ORIENTED_EDGE ( 'NONE', *, *, #457, .T. ) ;
#314 = PRESENTATION_STYLE_ASSIGNMENT (( #122 ) ) ;
#315 = LINE ( 'NONE', #366, #285 ) ;
#316 = ORIENTED_EDGE ( 'NONE', *, *, #270, .F. ) ;
#317 = VECTOR ( 'NONE', #318, 1000.000000000000000 ) ;
#318 = DIRECTION ( 'NONE',  ( -0.000000000000000000, -0.000000000000000000, -1.000000000000000000 ) ) ;
#319 = AXIS2_PLACEMENT_3D ( 'NONE', #415, #228, #411 ) ;
#320 = MANIFOLD_SOLID_BREP ( 'Fillet3', #368 ) ;
#321 = EDGE_CURVE ( 'NONE', #238, #83, #668, .T. ) ;
#322 = ORIENTED_EDGE ( 'NONE', *, *, #855, .T. ) ;
#323 = CARTESIAN_POINT ( 'NONE',  ( 78.74230351012054996, -79.00000000000314060, 4.000000000000000000 ) ) ;
#324 = CARTESIAN_POINT ( 'NONE',  ( 122.7423035101205784, -77.00000000000312639, 65.00000000000000000 ) ) ;
#325 = VERTEX_POINT ( 'NONE', #539 ) ;
#326 = DIRECTION ( 'NONE',  ( -0.000000000000000000, -0.000000000000000000, -1.000000000000000000 ) ) ;
#327 = CARTESIAN_POINT ( 'NONE',  ( 70.53845914862726829, -72.00000000000288480, 0.000000000000000000 ) ) ;
#328 = ORIENTED_EDGE ( 'NONE', *, *, #775, .F. ) ;
#329 = AXIS2_PLACEMENT_3D ( 'NONE', #179, #633, #39 ) ;
#330 = DIRECTION ( 'NONE',  ( 1.982541115402063729E-15, -1.000000000000000000, 0.000000000000000000 ) ) ;
#331 = CARTESIAN_POINT ( 'NONE',  ( 90.74230351012056417, -70.00000000000312639, 4.000000000000000000 ) ) ;
#332 = PRODUCT_RELATED_PRODUCT_CATEGORY ( 'part', '', ( #729 ) ) ;
#333 = CARTESIAN_POINT ( 'NONE',  ( 132.9461478716307283, -72.00000000000270006, 0.000000000000000000 ) ) ;
#334 = ORIENTED_EDGE ( 'NONE', *, *, #573, .F. ) ;
#335 = ORIENTED_EDGE ( 'NONE', *, *, #388, .T. ) ;
#336 = DIRECTION ( 'NONE',  ( -1.850371707708594070E-16, 1.000000000000000000, 0.000000000000000000 ) ) ;
#337 = EDGE_CURVE ( 'NONE', #83, #358, #742, .T. ) ;
#338 = DIRECTION ( 'NONE',  ( 0.000000000000000000, 0.000000000000000000, 1.000000000000000000 ) ) ;
#339 = ORIENTED_EDGE ( 'NONE', *, *, #482, .F. ) ;
#340 = DIRECTION ( 'NONE',  ( -1.000000000000000000, -1.850371707708594070E-16, 0.000000000000000000 ) ) ;
#341 = LINE ( 'NONE', #674, #127 ) ;
#342 = LINE ( 'NONE', #861, #263 ) ;
#343 = VECTOR ( 'NONE', #249, 1000.000000000000000 ) ;
#344 = PLANE ( 'NONE',  #619 ) ;
#345 = CARTESIAN_POINT ( 'NONE',  ( 130.3461478716026249, -72.00000000000270006, 0.000000000000000000 ) ) ;
#346 = AXIS2_PLACEMENT_3D ( 'NONE', #345, #609, #10 ) ;
#347 = ORIENTED_EDGE ( 'NONE', *, *, #684, .F. ) ;
#348 = EDGE_CURVE ( 'NONE', #100, #363, #675, .T. ) ;
#349 = CARTESIAN_POINT ( 'NONE',  ( 70.53845914862726829, -72.00000000000288480, 4.000000000000000000 ) ) ;
#350 = DIRECTION ( 'NONE',  ( -1.850371707708594070E-16, 1.000000000000000000, 0.000000000000000000 ) ) ;
#351 = FACE_BOUND ( 'NONE', #297, .T. ) ;
#352 = DIRECTION ( 'NONE',  ( 1.000000000000000000, 5.337610695313248426E-16, 0.000000000000000000 ) ) ;
#353 = ORIENTED_EDGE ( 'NONE', *, *, #754, .T. ) ;
#354 = UNCERTAINTY_MEASURE_WITH_UNIT (LENGTH_MEASURE( 1.000000000000000082E-05 ), #440, 'distance_accuracy_value', 'NONE');
#355 = LINE ( 'NONE', #556, #601 ) ;
#356 = CARTESIAN_POINT ( 'NONE',  ( 90.74230351012054996, 1.679069911074333321E-14, 6.000000000000000000 ) ) ;
#357 = PRESENTATION_LAYER_ASSIGNMENT (  '', '', ( #772 ) ) ;
#358 = VERTEX_POINT ( 'NONE', #466 ) ;
#359 = EDGE_LOOP ( 'NONE', ( #287, #784, #102, #124, #396, #458, #47, #854, #196, #252, #431, #156 ) ) ;
#360 = ADVANCED_FACE ( 'NONE', ( #71 ), #203, .F. ) ;
#361 = FACE_OUTER_BOUND ( 'NONE', #568, .T. ) ;
#362 = ORIENTED_EDGE ( 'NONE', *, *, #214, .T. ) ;
#363 = VERTEX_POINT ( 'NONE', #327 ) ;
#364 = LINE ( 'NONE', #626, #277 ) ;
#365 = FILL_AREA_STYLE_COLOUR ( '', #664 ) ;
#366 = CARTESIAN_POINT ( 'NONE',  ( 122.7423035101205784, -79.00000000000314060, 67.00000000000000000 ) ) ;
#367 = ORIENTED_EDGE ( 'NONE', *, *, #348, .T. ) ;
#368 = CLOSED_SHELL ( 'NONE', ( #118, #764, #222, #851, #671, #258, #22, #51, #424, #513, #32, #360, #300, #536, #741, #474, #795, #692, #602, #455, #500, #131, #815, #6, #281, #611 ) ) ;
#369 = DIRECTION ( 'NONE',  ( -1.850371707708594070E-16, 1.000000000000000000, 0.000000000000000000 ) ) ;
#370 = VECTOR ( 'NONE', #15, 1000.000000000000114 ) ;
#371 = ORIENTED_EDGE ( 'NONE', *, *, #754, .F. ) ;
#372 = EDGE_CURVE ( 'NONE', #217, #773, #704, .T. ) ;
#373 = CIRCLE ( 'NONE', #386, 2.000000000000001776 ) ;
#374 = CARTESIAN_POINT ( 'NONE',  ( 80.74230351012056417, -77.00000000000314060, 65.00000000000000000 ) ) ;
#375 = PLANE ( 'NONE',  #665 ) ;
#376 = ADVANCED_BREP_SHAPE_REPRESENTATION ( 'Gutter Spacer', ( #320, #706 ), #128 ) ;
#377 = ORIENTED_EDGE ( 'NONE', *, *, #833, .F. ) ;
#378 = LINE ( 'NONE', #571, #167 ) ;
#379 = VERTEX_POINT ( 'NONE', #807 ) ;
#380 = DIRECTION ( 'NONE',  ( 0.000000000000000000, 0.000000000000000000, 1.000000000000000000 ) ) ;
#381 = ORIENTED_EDGE ( 'NONE', *, *, #408, .F. ) ;
#382 = LINE ( 'NONE', #576, #76 ) ;
#383 =( BOUNDED_CURVE ( )  B_SPLINE_CURVE ( 3, ( #173, #643, #178, #637 ),
 .UNSPECIFIED., .F., .T. ) 
 B_SPLINE_CURVE_WITH_KNOTS ( ( 4, 4 ),
 ( 0.000000000000000000, 1.570796326794896558 ),
 .UNSPECIFIED. ) 
 CURVE ( )  GEOMETRIC_REPRESENTATION_ITEM ( )  RATIONAL_B_SPLINE_CURVE ( ( 1.000000000000000000, 0.8047378541243649375, 0.8047378541243649375, 1.000000000000000000 ) ) 
 REPRESENTATION_ITEM ( '' )  );
#384 = ORIENTED_EDGE ( 'NONE', *, *, #805, .T. ) ;
#385 = LINE ( 'NONE', #445, #716 ) ;
#386 = AXIS2_PLACEMENT_3D ( 'NONE', #505, #779, #190 ) ;
#387 = LINE ( 'NONE', #653, #7 ) ;
#388 = EDGE_CURVE ( 'NONE', #436, #218, #844, .T. ) ;
#389 = ORIENTED_EDGE ( 'NONE', *, *, #824, .F. ) ;
#390 = CARTESIAN_POINT ( 'NONE',  ( 101.7423035101205073, -64.00000000000312639, 56.99999999999999289 ) ) ;
#391 = DIRECTION ( 'NONE',  ( -1.000000000000000000, -1.982541115402063729E-15, 0.000000000000000000 ) ) ;
#392 = ORIENTED_EDGE ( 'NONE', *, *, #142, .T. ) ;
#393 = DIRECTION ( 'NONE',  ( -0.000000000000000000, -0.000000000000000000, -1.000000000000000000 ) ) ;
#394 = FACE_OUTER_BOUND ( 'NONE', #132, .T. ) ;
#395 = LINE ( 'NONE', #662, #35 ) ;
#396 = ORIENTED_EDGE ( 'NONE', *, *, #490, .T. ) ;
#397 = VECTOR ( 'NONE', #650, 1000.000000000000000 ) ;
#398 = EDGE_CURVE ( 'NONE', #762, #379, #597, .T. ) ;
#399 = CARTESIAN_POINT ( 'NONE',  ( 112.7423035101205926, -70.00000000000312639, 4.000000000000000000 ) ) ;
#400 = AXIS2_PLACEMENT_3D ( 'NONE', #59, #144, #722 ) ;
#401 = CARTESIAN_POINT ( 'NONE',  ( 73.13845914863851760, -72.00000000000288480, 0.000000000000000000 ) ) ;
#402 = VERTEX_POINT ( 'NONE', #333 ) ;
#403 = ORIENTED_EDGE ( 'NONE', *, *, #707, .T. ) ;
#404 = CARTESIAN_POINT ( 'NONE',  ( 88.74230351012056417, -79.00000000000314060, 43.99999999999990763 ) ) ;
#405 = CARTESIAN_POINT ( 'NONE',  ( 78.74230351012054996, -79.00000000000314060, 5.999999999999998224 ) ) ;
#406 = VERTEX_POINT ( 'NONE', #859 ) ;
#407 = DIRECTION ( 'NONE',  ( -1.000000000000000000, 0.000000000000000000, 0.000000000000000000 ) ) ;
#408 = EDGE_CURVE ( 'NONE', #448, #268, #1, .T. ) ;
#409 = DIRECTION ( 'NONE',  ( -1.850371707708588893E-16, 1.000000000000000000, 0.000000000000000000 ) ) ;
#410 = VECTOR ( 'NONE', #11, 1000.000000000000000 ) ;
#411 = DIRECTION ( 'NONE',  ( -1.000000000000000000, 0.000000000000000000, 0.000000000000000000 ) ) ;
#412 = ORIENTED_EDGE ( 'NONE', *, *, #734, .F. ) ;
#413 = DIRECTION ( 'NONE',  ( -1.000000000000000000, 0.000000000000000000, 0.000000000000000000 ) ) ;
#414 = AXIS2_PLACEMENT_3D ( 'NONE', #133, #3, #584 ) ;
#415 = CARTESIAN_POINT ( 'NONE',  ( 124.7423035101205784, -79.00000000000312639, 5.999999999999998224 ) ) ;
#416 = ORIENTED_EDGE ( 'NONE', *, *, #679, .T. ) ;
#417 = CARTESIAN_POINT ( 'NONE',  ( 80.74230351012056417, -72.00000000000312639, 65.00000000000000000 ) ) ;
#418 = VERTEX_POINT ( 'NONE', #865 ) ;
#419 = EDGE_CURVE ( 'NONE', #570, #663, #600, .T. ) ;
#420 = CARTESIAN_POINT ( 'NONE',  ( 130.3461478716026249, -72.00000000000270006, 0.000000000000000000 ) ) ;
#421 = DIRECTION ( 'NONE',  ( 1.000000000000000000, 0.000000000000000000, 0.000000000000000000 ) ) ;
#422 = CARTESIAN_POINT ( 'NONE',  ( 78.74230351012054996, -70.00000000000312639, 4.000000000000000000 ) ) ;
#423 = ORIENTED_EDGE ( 'NONE', *, *, #864, .F. ) ;
#424 = ADVANCED_FACE ( 'NONE', ( #477 ), #267, .F. ) ;
#425 = LINE ( 'NONE', #284, #785 ) ;
#426 = CARTESIAN_POINT ( 'NONE',  ( 139.2423035101205642, -64.00000000000312639, 4.000000000000000000 ) ) ;
#427 = ORIENTED_EDGE ( 'NONE', *, *, #519, .F. ) ;
#428 = VECTOR ( 'NONE', #549, 1000.000000000000000 ) ;
#429 = VERTEX_POINT ( 'NONE', #727 ) ;
#430 = PLANE ( 'NONE',  #441 ) ;
#431 = ORIENTED_EDGE ( 'NONE', *, *, #462, .T. ) ;
#432 = LINE ( 'NONE', #695, #811 ) ;
#433 = CARTESIAN_POINT ( 'NONE',  ( 114.7423035101205926, -72.00000000000312639, 5.999999999999998224 ) ) ;
#434 = DIRECTION ( 'NONE',  ( 1.000000000000000000, 1.850371707708594070E-16, -0.000000000000000000 ) ) ;
#435 = EDGE_CURVE ( 'NONE', #496, #29, #207, .T. ) ;
#436 = VERTEX_POINT ( 'NONE', #804 ) ;
#437 = LINE ( 'NONE', #106, #586 ) ;
#438 = CARTESIAN_POINT ( 'NONE',  ( 124.7423035101205784, -79.00000000000312639, 4.000000000000000000 ) ) ;
#439 = VERTEX_POINT ( 'NONE', #799 ) ;
#440 =( LENGTH_UNIT ( ) NAMED_UNIT ( * ) SI_UNIT ( .MILLI., .METRE. ) );
#441 = AXIS2_PLACEMENT_3D ( 'NONE', #751, #30, #350 ) ;
#442 = CARTESIAN_POINT ( 'NONE',  ( 90.74230351012056417, -79.00000000000314060, 4.000000000000000000 ) ) ;
#443 = ORIENTED_EDGE ( 'NONE', *, *, #654, .T. ) ;
#444 = CARTESIAN_POINT ( 'NONE',  ( 75.73845914864976692, -72.00000000000288480, 4.000000000000000000 ) ) ;
#445 = CARTESIAN_POINT ( 'NONE',  ( 80.74230351012056417, -79.00000000000314060, 67.00000000000000000 ) ) ;
#446 = ORIENTED_EDGE ( 'NONE', *, *, #337, .F. ) ;
#447 = LINE ( 'NONE', #712, #234 ) ;
#448 = VERTEX_POINT ( 'NONE', #732 ) ;
#449 = DIRECTION ( 'NONE',  ( 1.000000000000000000, 1.850371707708594070E-16, -0.000000000000000000 ) ) ;
#450 = EDGE_CURVE ( 'NONE', #358, #233, #341, .T. ) ;
#451 = ORIENTED_EDGE ( 'NONE', *, *, #490, .F. ) ;
#452 = DIRECTION ( 'NONE',  ( 0.000000000000000000, -1.000000000000000000, 0.000000000000000000 ) ) ;
#453 = VECTOR ( 'NONE', #771, 1000.000000000000000 ) ;
#454 = ORIENTED_EDGE ( 'NONE', *, *, #85, .F. ) ;
#455 = ADVANCED_FACE ( 'NONE', ( #145 ), #138, .T. ) ;
#456 = FACE_OUTER_BOUND ( 'NONE', #139, .T. ) ;
#457 = EDGE_CURVE ( 'NONE', #535, #402, #735, .T. ) ;
#458 = ORIENTED_EDGE ( 'NONE', *, *, #833, .T. ) ;
#459 = LINE ( 'NONE', #724, #645 ) ;
#460 = CARTESIAN_POINT ( 'NONE',  ( 122.7423035101205642, -74.00000000000312639, 65.00000000000000000 ) ) ;
#461 = DIRECTION ( 'NONE',  ( -1.000000000000000000, 0.000000000000000000, 0.000000000000000000 ) ) ;
#462 = EDGE_CURVE ( 'NONE', #838, #762, #395, .T. ) ;
#463 = EDGE_LOOP ( 'NONE', ( #656, #367 ) ) ;
#464 = VERTEX_POINT ( 'NONE', #91 ) ;
#465 = DIRECTION ( 'NONE',  ( -1.000000000000000000, 0.000000000000000000, 0.000000000000000000 ) ) ;
#466 = CARTESIAN_POINT ( 'NONE',  ( 88.74230351012056417, -72.00000000000312639, 5.999999999999998224 ) ) ;
#467 = EDGE_CURVE ( 'NONE', #566, #429, #801, .T. ) ;
#468 = PLANE ( 'NONE',  #797 ) ;
#469 = LINE ( 'NONE', #606, #534 ) ;
#470 = CIRCLE ( 'NONE', #266, 2.000000000000001776 ) ;
#471 = CARTESIAN_POINT ( 'NONE',  ( 64.24230351012056417, -64.00000000000314060, 4.000000000000000000 ) ) ;
#472 = CIRCLE ( 'NONE', #37, 2.600000000011246204 ) ;
#473 =( BOUNDED_CURVE ( )  B_SPLINE_CURVE ( 3, ( #23, #612, #157, #223 ),
 .UNSPECIFIED., .F., .T. ) 
 B_SPLINE_CURVE_WITH_KNOTS ( ( 4, 4 ),
 ( 0.000000000000000000, 1.570796326794896558 ),
 .UNSPECIFIED. ) 
 CURVE ( )  GEOMETRIC_REPRESENTATION_ITEM ( )  RATIONAL_B_SPLINE_CURVE ( ( 1.000000000000000000, 0.8047378541243649375, 0.8047378541243649375, 1.000000000000000000 ) ) 
 REPRESENTATION_ITEM ( '' )  );
#474 = ADVANCED_FACE ( 'NONE', ( #484 ), #430, .F. ) ;
#475 = FACE_OUTER_BOUND ( 'NONE', #307, .T. ) ;
#476 = LINE ( 'NONE', #661, #141 ) ;
#477 = FACE_OUTER_BOUND ( 'NONE', #204, .T. ) ;
#478 = PLANE ( 'NONE',  #752 ) ;
#479 = DIRECTION ( 'NONE',  ( 1.000000000000000000, -0.000000000000000000, -0.000000000000000000 ) ) ;
#480 = CARTESIAN_POINT ( 'NONE',  ( 80.74230351012056417, -79.00000000000314060, 67.00000000000000000 ) ) ;
#481 = CARTESIAN_POINT ( 'NONE',  ( 122.7423035101205642, -70.00000000000312639, 4.000000000000000000 ) ) ;
#482 = EDGE_CURVE ( 'NONE', #773, #402, #818, .T. ) ;
#483 = ORIENTED_EDGE ( 'NONE', *, *, #467, .T. ) ;
#484 = FACE_OUTER_BOUND ( 'NONE', #302, .T. ) ;
#485 = CARTESIAN_POINT ( 'NONE',  ( 78.74230351012054996, -70.00000000000312639, 4.000000000000000000 ) ) ;
#486 = CARTESIAN_POINT ( 'NONE',  ( 132.9461478716307283, -72.00000000000270006, 4.000000000000000000 ) ) ;
#487 = VECTOR ( 'NONE', #528, 1000.000000000000000 ) ;
#488 = PLANE ( 'NONE',  #858 ) ;
#489 = DIRECTION ( 'NONE',  ( 0.000000000000000000, -1.000000000000000000, 0.000000000000000000 ) ) ;
#490 = EDGE_CURVE ( 'NONE', #594, #291, #491, .T. ) ;
#491 = LINE ( 'NONE', #237, #532 ) ;
#492 = ORIENTED_EDGE ( 'NONE', *, *, #87, .T. ) ;
#493 = LINE ( 'NONE', #239, #397 ) ;
#494 = ORIENTED_EDGE ( 'NONE', *, *, #819, .F. ) ;
#495 = DIRECTION ( 'NONE',  ( -1.850371707708594070E-16, 1.000000000000000000, 0.000000000000000000 ) ) ;
#496 = VERTEX_POINT ( 'NONE', #422 ) ;
#497 = DIRECTION ( 'NONE',  ( 0.000000000000000000, 0.000000000000000000, -1.000000000000000000 ) ) ;
#498 = ORIENTED_EDGE ( 'NONE', *, *, #148, .T. ) ;
#499 = LINE ( 'NONE', #774, #687 ) ;
#500 = ADVANCED_FACE ( 'NONE', ( #361 ), #166, .F. ) ;
#501 =( GEOMETRIC_REPRESENTATION_CONTEXT ( 3 ) GLOBAL_UNCERTAINTY_ASSIGNED_CONTEXT ( ( #354 ) ) GLOBAL_UNIT_ASSIGNED_CONTEXT ( ( #440, #110, #187 ) ) REPRESENTATION_CONTEXT ( 'NONE', 'WORKASPACE' ) );
#502 = ORIENTED_EDGE ( 'NONE', *, *, #550, .F. ) ;
#503 = VECTOR ( 'NONE', #272, 1000.000000000000000 ) ;
#504 = DIRECTION ( 'NONE',  ( -0.000000000000000000, -0.000000000000000000, -1.000000000000000000 ) ) ;
#505 = CARTESIAN_POINT ( 'NONE',  ( 80.74230351012056417, -74.00000000000312639, 65.00000000000000000 ) ) ;
#506 = EDGE_LOOP ( 'NONE', ( #605, #526, #423, #454 ) ) ;
#507 = DIRECTION ( 'NONE',  ( 1.000000000000000000, 0.000000000000000000, 0.000000000000000000 ) ) ;
#508 = EDGE_CURVE ( 'NONE', #439, #689, #473, .T. ) ;
#509 = CARTESIAN_POINT ( 'NONE',  ( 0.000000000000000000, 0.000000000000000000, 4.000000000000000000 ) ) ;
#510 = DIRECTION ( 'NONE',  ( -1.850371707708594070E-16, 1.000000000000000000, -0.000000000000000000 ) ) ;
#511 = ORIENTED_EDGE ( 'NONE', *, *, #718, .T. ) ;
#512 = DIRECTION ( 'NONE',  ( -1.000000000000000000, 0.000000000000000000, 0.000000000000000000 ) ) ;
#513 = ADVANCED_FACE ( 'NONE', ( #757 ), #748, .F. ) ;
#514 = CYLINDRICAL_SURFACE ( 'NONE', #608, 2.000000000000000000 ) ;
#515 = CIRCLE ( 'NONE', #312, 2.600000000028107827 ) ;
#516 = ORIENTED_EDGE ( 'NONE', *, *, #88, .F. ) ;
#517 = AXIS2_PLACEMENT_3D ( 'NONE', #212, #391, #60 ) ;
#518 = FACE_OUTER_BOUND ( 'NONE', #749, .T. ) ;
#519 = EDGE_CURVE ( 'NONE', #838, #406, #686, .T. ) ;
#520 = CARTESIAN_POINT ( 'NONE',  ( 96.24230351012064943, -72.00000000000312639, 51.50000000000007816 ) ) ;
#521 = ORIENTED_EDGE ( 'NONE', *, *, #698, .T. ) ;
#522 = FACE_OUTER_BOUND ( 'NONE', #850, .T. ) ;
#523 = DIRECTION ( 'NONE',  ( 0.000000000000000000, 0.000000000000000000, -1.000000000000000000 ) ) ;
#524 = PLANE ( 'NONE',  #224 ) ;
#525 = DIRECTION ( 'NONE',  ( -0.000000000000000000, -0.000000000000000000, -1.000000000000000000 ) ) ;
#526 = ORIENTED_EDGE ( 'NONE', *, *, #622, .T. ) ;
#527 = DIRECTION ( 'NONE',  ( 1.850371707708594070E-16, -1.000000000000000000, 0.000000000000000000 ) ) ;
#528 = DIRECTION ( 'NONE',  ( 1.000000000000000000, -0.000000000000000000, -0.000000000000000000 ) ) ;
#529 = VECTOR ( 'NONE', #755, 1000.000000000000000 ) ;
#530 = PRODUCT_DEFINITION_CONTEXT ( 'detailed design', #726, 'design' ) ;
#531 = CARTESIAN_POINT ( 'NONE',  ( 0.000000000000000000, -74.00000000000312639, 67.00000000000000000 ) ) ;
#532 = VECTOR ( 'NONE', #352, 1000.000000000000000 ) ;
#533 = DIRECTION ( 'NONE',  ( -0.000000000000000000, -0.000000000000000000, 1.000000000000000000 ) ) ;
#534 = VECTOR ( 'NONE', #137, 1000.000000000000000 ) ;
#535 = VERTEX_POINT ( 'NONE', #621 ) ;
#536 = ADVANCED_FACE ( 'NONE', ( #14 ), #283, .F. ) ;
#537 = CARTESIAN_POINT ( 'NONE',  ( 80.74230351012056417, -74.00000000000312639, 67.00000000000000000 ) ) ;
#538 = PRODUCT_CONTEXT ( 'NONE', #750, 'mechanical' ) ;
#539 = CARTESIAN_POINT ( 'NONE',  ( 139.2423035101205642, -79.00000000000312639, 0.000000000000000000 ) ) ;
#540 = CARTESIAN_POINT ( 'NONE',  ( 86.24230351012040785, -72.00000000000312639, 72.49999999999992895 ) ) ;
#541 = APPLICATION_PROTOCOL_DEFINITION ( 'draft international standard', 'automotive_design', 1998, #750 ) ;
#542 = ORIENTED_EDGE ( 'NONE', *, *, #94, .T. ) ;
#543 = CARTESIAN_POINT ( 'NONE',  ( 0.000000000000000000, 0.000000000000000000, 0.000000000000000000 ) ) ;
#544 = EDGE_CURVE ( 'NONE', #24, #418, #290, .T. ) ;
#545 = DIRECTION ( 'NONE',  ( -0.000000000000000000, -0.000000000000000000, -1.000000000000000000 ) ) ;
#546 = VECTOR ( 'NONE', #479, 1000.000000000000000 ) ;
#547 = ORIENTED_EDGE ( 'NONE', *, *, #435, .F. ) ;
#548 = CARTESIAN_POINT ( 'NONE',  ( 80.74230351012056417, -72.00000000000312639, 4.828427124746188959 ) ) ;
#549 = DIRECTION ( 'NONE',  ( -1.000000000000000000, -1.850371707708594070E-16, -0.000000000000000000 ) ) ;
#550 = EDGE_CURVE ( 'NONE', #713, #669, #96, .T. ) ;
#551 = VERTEX_POINT ( 'NONE', #822 ) ;
#552 = FACE_OUTER_BOUND ( 'NONE', #582, .T. ) ;
#553 = CARTESIAN_POINT ( 'NONE',  ( 64.24230351012056417, -64.00000000000314060, 4.000000000000000000 ) ) ;
#554 = ORIENTED_EDGE ( 'NONE', *, *, #639, .F. ) ;
#555 = EDGE_CURVE ( 'NONE', #762, #736, #745, .T. ) ;
#556 = CARTESIAN_POINT ( 'NONE',  ( 80.74230351012056417, -72.00000000000312639, 67.00000000000000000 ) ) ;
#557 = CIRCLE ( 'NONE', #262, 2.000000000000001776 ) ;
#558 = ORIENTED_EDGE ( 'NONE', *, *, #188, .T. ) ;
#559 = CARTESIAN_POINT ( 'NONE',  ( 139.2423035101205642, -79.00000000000312639, 65.00000000000000000 ) ) ;
#560 = AXIS2_PLACEMENT_3D ( 'NONE', #152, #26, #413 ) ;
#561 = ORIENTED_EDGE ( 'NONE', *, *, #214, .F. ) ;
#562 = FILL_AREA_STYLE ('',( #365 ) ) ;
#563 = DIRECTION ( 'NONE',  ( 0.000000000000000000, 0.000000000000000000, -1.000000000000000000 ) ) ;
#564 = ORIENTED_EDGE ( 'NONE', *, *, #550, .T. ) ;
#565 = LINE ( 'NONE', #36, #278 ) ;
#566 = VERTEX_POINT ( 'NONE', #16 ) ;
#567 = LINE ( 'NONE', #580, #232 ) ;
#568 = EDGE_LOOP ( 'NONE', ( #78, #113, #412, #862 ) ) ;
#569 = DIRECTION ( 'NONE',  ( 1.982541115402063729E-15, -1.000000000000000000, -0.000000000000000000 ) ) ;
#570 = VERTEX_POINT ( 'NONE', #417 ) ;
#571 = CARTESIAN_POINT ( 'NONE',  ( 139.2423035101205642, -64.00000000000312639, 0.000000000000000000 ) ) ;
#572 = LINE ( 'NONE', #438, #607 ) ;
#573 = EDGE_CURVE ( 'NONE', #808, #689, #98, .T. ) ;
#574 = VERTEX_POINT ( 'NONE', #286 ) ;
#575 = VECTOR ( 'NONE', #533, 1000.000000000000000 ) ;
#576 = CARTESIAN_POINT ( 'NONE',  ( 122.7423035101205642, -72.00000000000312639, 5.999999999999998224 ) ) ;
#577 = ORIENTED_EDGE ( 'NONE', *, *, #544, .T. ) ;
#578 = CARTESIAN_POINT ( 'NONE',  ( 88.74230351012059259, -72.00000000000312639, 4.828427124746188071 ) ) ;
#579 = ORIENTED_EDGE ( 'NONE', *, *, #408, .T. ) ;
#580 = CARTESIAN_POINT ( 'NONE',  ( 80.74230351012056417, -79.00000000000314060, 5.999999999999998224 ) ) ;
#581 = DIRECTION ( 'NONE',  ( 0.000000000000000000, 0.000000000000000000, 1.000000000000000000 ) ) ;
#582 = EDGE_LOOP ( 'NONE', ( #389, #564, #498, #335, #823, #201, #521, #620, #710, #322 ) ) ;
#583 = EDGE_CURVE ( 'NONE', #625, #780, #364, .T. ) ;
#584 = DIRECTION ( 'NONE',  ( 1.000000000000000000, 0.000000000000000000, 0.000000000000000000 ) ) ;
#585 = DIRECTION ( 'NONE',  ( -1.850371707708594070E-16, 1.000000000000000000, 0.000000000000000000 ) ) ;
#586 = VECTOR ( 'NONE', #449, 1000.000000000000000 ) ;
#587 = ORIENTED_EDGE ( 'NONE', *, *, #274, .T. ) ;
#588 =( BOUNDED_CURVE ( )  B_SPLINE_CURVE ( 3, ( #50, #578, #849, #331 ),
 .UNSPECIFIED., .F., .F. ) 
 B_SPLINE_CURVE_WITH_KNOTS ( ( 4, 4 ),
 ( 3.141592653589793560, 4.712388980384689674 ),
 .UNSPECIFIED. ) 
 CURVE ( )  GEOMETRIC_REPRESENTATION_ITEM ( )  RATIONAL_B_SPLINE_CURVE ( ( 1.000000000000000000, 0.8047378541243650485, 0.8047378541243650485, 1.000000000000000000 ) ) 
 REPRESENTATION_ITEM ( '' )  );
#589 = VECTOR ( 'NONE', #545, 1000.000000000000000 ) ;
#590 = FACE_OUTER_BOUND ( 'NONE', #723, .T. ) ;
#591 = VECTOR ( 'NONE', #326, 1000.000000000000000 ) ;
#592 = CARTESIAN_POINT ( 'NONE',  ( 139.2423035101205642, -64.00000000000312639, 4.000000000000000000 ) ) ;
#593 = DIRECTION ( 'NONE',  ( 0.000000000000000000, 0.000000000000000000, -1.000000000000000000 ) ) ;
#594 = VERTEX_POINT ( 'NONE', #226 ) ;
#595 = PRODUCT_DEFINITION_SHAPE ( 'NONE', 'NONE',  #46 ) ;
#596 = LINE ( 'NONE', #390, #503 ) ;
#597 = LINE ( 'NONE', #471, #813 ) ;
#598 = EDGE_LOOP ( 'NONE', ( #165, #191, #610, #371 ) ) ;
#599 = DIRECTION ( 'NONE',  ( 0.000000000000000000, 0.000000000000000000, 1.000000000000000000 ) ) ;
#600 = LINE ( 'NONE', #672, #546 ) ;
#601 = VECTOR ( 'NONE', #235, 1000.000000000000000 ) ;
#602 = ADVANCED_FACE ( 'NONE', ( #162 ), #185, .T. ) ;
#603 = EDGE_LOOP ( 'NONE', ( #115, #257, #180, #97 ) ) ;
#604 = AXIS2_PLACEMENT_3D ( 'NONE', #117, #301, #497 ) ;
#605 = ORIENTED_EDGE ( 'NONE', *, *, #684, .T. ) ;
#606 = CARTESIAN_POINT ( 'NONE',  ( 1.424786214935675726E-14, -77.00000000000315481, 67.00000000000000000 ) ) ;
#607 = VECTOR ( 'NONE', #569, 1000.000000000000000 ) ;
#608 = AXIS2_PLACEMENT_3D ( 'NONE', #725, #202, #599 ) ;
#609 = DIRECTION ( 'NONE',  ( 0.000000000000000000, 0.000000000000000000, 1.000000000000000000 ) ) ;
#610 = ORIENTED_EDGE ( 'NONE', *, *, #154, .F. ) ;
#611 = ADVANCED_FACE ( 'NONE', ( #181 ), #697, .F. ) ;
#612 = CARTESIAN_POINT ( 'NONE',  ( 122.7423035101205642, -72.00000000000312639, 4.828427124746188959 ) ) ;
#613 = EDGE_CURVE ( 'NONE', #689, #625, #572, .T. ) ;
#614 = CARTESIAN_POINT ( 'NONE',  ( 122.7423035101205642, -74.00000000000312639, 67.00000000000000000 ) ) ;
#615 = DIRECTION ( 'NONE',  ( 0.000000000000000000, 0.000000000000000000, -1.000000000000000000 ) ) ;
#616 = ORIENTED_EDGE ( 'NONE', *, *, #613, .F. ) ;
#617 = DIRECTION ( 'NONE',  ( 0.000000000000000000, 0.000000000000000000, 1.000000000000000000 ) ) ;
#618 = DIRECTION ( 'NONE',  ( -1.850371707708594070E-16, 1.000000000000000000, 0.000000000000000000 ) ) ;
#619 = AXIS2_PLACEMENT_3D ( 'NONE', #673, #866, #803 ) ;
#620 = ORIENTED_EDGE ( 'NONE', *, *, #666, .F. ) ;
#621 = CARTESIAN_POINT ( 'NONE',  ( 127.7461478715745073, -72.00000000000270006, 0.000000000000000000 ) ) ;
#622 = EDGE_CURVE ( 'NONE', #566, #100, #835, .T. ) ;
#623 = ORIENTED_EDGE ( 'NONE', *, *, #819, .T. ) ;
#624 = DIRECTION ( 'NONE',  ( 0.000000000000000000, 0.000000000000000000, 1.000000000000000000 ) ) ;
#625 = VERTEX_POINT ( 'NONE', #843 ) ;
#626 = CARTESIAN_POINT ( 'NONE',  ( 139.2423035101205642, -79.00000000000312639, 4.000000000000000000 ) ) ;
#627 = ORIENTED_EDGE ( 'NONE', *, *, #62, .T. ) ;
#628 = CARTESIAN_POINT ( 'NONE',  ( 80.74230351012056417, -72.00000000000312639, 67.00000000000000000 ) ) ;
#629 = CARTESIAN_POINT ( 'NONE',  ( 139.2423035101205642, -64.00000000000312639, 4.000000000000000000 ) ) ;
#630 = AXIS2_PLACEMENT_3D ( 'NONE', #374, #101, #563 ) ;
#631 = ORIENTED_EDGE ( 'NONE', *, *, #544, .F. ) ;
#632 = DIRECTION ( 'NONE',  ( 1.000000000000000000, 1.982541115402063729E-15, -0.000000000000000000 ) ) ;
#633 = DIRECTION ( 'NONE',  ( 1.850371707708594070E-16, -1.000000000000000000, 0.000000000000000000 ) ) ;
#634 = VERTEX_POINT ( 'NONE', #195 ) ;
#635 = CARTESIAN_POINT ( 'NONE',  ( 139.2423035101205642, -64.00000000000312639, 4.000000000000000000 ) ) ;
#636 = EDGE_LOOP ( 'NONE', ( #347, #647 ) ) ;
#637 = CARTESIAN_POINT ( 'NONE',  ( 112.7423035101205926, -70.00000000000312639, 4.000000000000000000 ) ) ;
#638 = DIRECTION ( 'NONE',  ( 0.000000000000000000, -1.000000000000000000, 0.000000000000000000 ) ) ;
#639 = EDGE_CURVE ( 'NONE', #715, #713, #470, .T. ) ;
#640 = ORIENTED_EDGE ( 'NONE', *, *, #111, .F. ) ;
#641 = CARTESIAN_POINT ( 'NONE',  ( 146.9923035101207347, -79.00000000000312639, 11.75000000000026290 ) ) ;
#642 = ORIENTED_EDGE ( 'NONE', *, *, #253, .T. ) ;
#643 = CARTESIAN_POINT ( 'NONE',  ( 114.7423035101206068, -72.00000000000312639, 4.828427124746188959 ) ) ;
#644 = DIRECTION ( 'NONE',  ( -1.982541115402063729E-15, 1.000000000000000000, 0.000000000000000000 ) ) ;
#645 = VECTOR ( 'NONE', #393, 1000.000000000000000 ) ;
#646 = CARTESIAN_POINT ( 'NONE',  ( 64.24230351012056417, -64.00000000000314060, 0.000000000000000000 ) ) ;
#647 = ORIENTED_EDGE ( 'NONE', *, *, #467, .F. ) ;
#648 = VECTOR ( 'NONE', #658, 1000.000000000000000 ) ;
#649 = AXIS2_PLACEMENT_3D ( 'NONE', #276, #134, #409 ) ;
#650 = DIRECTION ( 'NONE',  ( 0.7071067811865435759, 1.308410382236471869E-16, 0.7071067811865514585 ) ) ;
#651 = AXIS2_PLACEMENT_3D ( 'NONE', #790, #269, #70 ) ;
#652 = EDGE_LOOP ( 'NONE', ( #5, #392, #753, #642, #631, #511 ) ) ;
#653 = CARTESIAN_POINT ( 'NONE',  ( 88.74230351012056417, -72.00000000000312639, 6.000000000000000000 ) ) ;
#654 = EDGE_CURVE ( 'NONE', #268, #634, #565, .T. ) ;
#655 = ORIENTED_EDGE ( 'NONE', *, *, #293, .T. ) ;
#656 = ORIENTED_EDGE ( 'NONE', *, *, #864, .T. ) ;
#657 = CYLINDRICAL_SURFACE ( 'NONE', #400, 2.600000000028107827 ) ;
#658 = DIRECTION ( 'NONE',  ( -0.7071067811865435759, -0.000000000000000000, -0.7071067811865514585 ) ) ;
#659 = ORIENTED_EDGE ( 'NONE', *, *, #337, .T. ) ;
#660 = CARTESIAN_POINT ( 'NONE',  ( 90.74230351012056417, -70.00000000000312639, 4.000000000000000000 ) ) ;
#661 = CARTESIAN_POINT ( 'NONE',  ( 122.7423035101205784, -79.00000000000314060, 67.00000000000000000 ) ) ;
#662 = CARTESIAN_POINT ( 'NONE',  ( 139.2423035101205642, -64.00000000000312639, 4.000000000000000000 ) ) ;
#663 = VERTEX_POINT ( 'NONE', #108 ) ;
#664 = COLOUR_RGB ( '',0.8941176470588234615, 0.8941176470588234615, 0.8941176470588234615 ) ;
#665 = AXIS2_PLACEMENT_3D ( 'NONE', #635, #256, #41 ) ;
#666 = EDGE_CURVE ( 'NONE', #780, #325, #717, .T. ) ;
#667 = PLANE ( 'NONE',  #651 ) ;
#668 = LINE ( 'NONE', #520, #648 ) ;
#669 = VERTEX_POINT ( 'NONE', #126 ) ;
#670 = LINE ( 'NONE', #531, #140 ) ;
#671 = ADVANCED_FACE ( 'NONE', ( #853 ), #375, .F. ) ;
#672 = CARTESIAN_POINT ( 'NONE',  ( 80.74230351012056417, -72.00000000000312639, 65.00000000000000000 ) ) ;
#673 = CARTESIAN_POINT ( 'NONE',  ( 99.74230351012047890, -64.00000000000312639, 59.00000000000000711 ) ) ;
#674 = CARTESIAN_POINT ( 'NONE',  ( 80.74230351012056417, -72.00000000000312639, 5.999999999999998224 ) ) ;
#675 = CIRCLE ( 'NONE', #95, 2.600000000011246204 ) ;
#676 = VECTOR ( 'NONE', #681, 1000.000000000000000 ) ;
#677 = ORIENTED_EDGE ( 'NONE', *, *, #622, .F. ) ;
#678 = DIRECTION ( 'NONE',  ( -0.000000000000000000, -0.000000000000000000, -1.000000000000000000 ) ) ;
#679 = EDGE_CURVE ( 'NONE', #834, #358, #387, .T. ) ;
#680 = DIRECTION ( 'NONE',  ( 1.000000000000000000, 0.000000000000000000, 0.000000000000000000 ) ) ;
#681 = DIRECTION ( 'NONE',  ( 1.000000000000000000, -0.000000000000000000, -0.000000000000000000 ) ) ;
#682 = EDGE_LOOP ( 'NONE', ( #846, #72, #143, #830, #67, #53 ) ) ;
#683 =( NAMED_UNIT ( * ) SI_UNIT ( $, .STERADIAN. ) SOLID_ANGLE_UNIT ( ) );
#684 = EDGE_CURVE ( 'NONE', #429, #566, #860, .T. ) ;
#685 = ORIENTED_EDGE ( 'NONE', *, *, #2, .F. ) ;
#686 = LINE ( 'NONE', #426, #589 ) ;
#687 = VECTOR ( 'NONE', #434, 1000.000000000000000 ) ;
#688 = VECTOR ( 'NONE', #65, 1000.000000000000000 ) ;
#689 = VERTEX_POINT ( 'NONE', #308 ) ;
#690 = CARTESIAN_POINT ( 'NONE',  ( 75.73845914864976692, -72.00000000000288480, 0.000000000000000000 ) ) ;
#691 = SHAPE_DEFINITION_REPRESENTATION ( #595, #376 ) ;
#692 = ADVANCED_FACE ( 'NONE', ( #55 ), #839, .T. ) ;
#693 = DIRECTION ( 'NONE',  ( -0.000000000000000000, -0.000000000000000000, -1.000000000000000000 ) ) ;
#694 = EDGE_LOOP ( 'NONE', ( #787, #427, #640, #721 ) ) ;
#695 = CARTESIAN_POINT ( 'NONE',  ( 78.74230351012054996, -72.00000000000312639, 4.000000000000000000 ) ) ;
#696 = DIRECTION ( 'NONE',  ( -1.000000000000000000, 0.000000000000000000, 0.000000000000000000 ) ) ;
#697 = CYLINDRICAL_SURFACE ( 'NONE', #155, 2.000000000000001776 ) ;
#698 = EDGE_CURVE ( 'NONE', #294, #325, #499, .T. ) ;
#699 = ORIENTED_EDGE ( 'NONE', *, *, #482, .T. ) ;
#700 = CARTESIAN_POINT ( 'NONE',  ( 80.74230351012056417, -70.00000000000312639, 5.999999999999998224 ) ) ;
#701 = CARTESIAN_POINT ( 'NONE',  ( 101.7423035101205073, -72.00000000000312639, 56.99999999999999289 ) ) ;
#702 = VECTOR ( 'NONE', #193, 1000.000000000000000 ) ;
#703 = DIRECTION ( 'NONE',  ( -0.000000000000000000, -0.000000000000000000, -1.000000000000000000 ) ) ;
#704 = CIRCLE ( 'NONE', #756, 2.600000000028107827 ) ;
#705 = ORIENTED_EDGE ( 'NONE', *, *, #99, .T. ) ;
#706 = AXIS2_PLACEMENT_3D ( 'NONE', #543, #617, #421 ) ;
#707 = EDGE_CURVE ( 'NONE', #309, #268, #114, .T. ) ;
#708 = CARTESIAN_POINT ( 'NONE',  ( 114.7423035101205926, -79.00000000000312639, 44.00000000000005684 ) ) ;
#709 = CARTESIAN_POINT ( 'NONE',  ( 73.13845914863851760, -72.00000000000288480, 4.000000000000000000 ) ) ;
#710 = ORIENTED_EDGE ( 'NONE', *, *, #583, .F. ) ;
#711 = DIRECTION ( 'NONE',  ( -0.000000000000000000, -0.000000000000000000, -1.000000000000000000 ) ) ;
#712 = CARTESIAN_POINT ( 'NONE',  ( 114.7423035101205926, -72.00000000000312639, 67.00000000000000000 ) ) ;
#713 = VERTEX_POINT ( 'NONE', #311 ) ;
#714 = DIRECTION ( 'NONE',  ( -1.850371707708594070E-16, 1.000000000000000000, 0.000000000000000000 ) ) ;
#715 = VERTEX_POINT ( 'NONE', #251 ) ;
#716 = VECTOR ( 'NONE', #711, 1000.000000000000000 ) ;
#717 = LINE ( 'NONE', #241, #317 ) ;
#718 = EDGE_CURVE ( 'NONE', #24, #570, #373, .T. ) ;
#719 = ORIENTED_EDGE ( 'NONE', *, *, #62, .F. ) ;
#720 = CIRCLE ( 'NONE', #414, 2.600000000028107827 ) ;
#721 = ORIENTED_EDGE ( 'NONE', *, *, #666, .T. ) ;
#722 = DIRECTION ( 'NONE',  ( -1.000000000000000000, 0.000000000000000000, 0.000000000000000000 ) ) ;
#723 = EDGE_LOOP ( 'NONE', ( #627, #31, #159, #13 ) ) ;
#724 = CARTESIAN_POINT ( 'NONE',  ( 127.7461478715745073, -72.00000000000270006, 4.000000000000000000 ) ) ;
#725 = CARTESIAN_POINT ( 'NONE',  ( 78.74230351012054996, -79.00000000000314060, 5.999999999999998224 ) ) ;
#726 = APPLICATION_CONTEXT ( 'automotive_design' ) ;
#727 = CARTESIAN_POINT ( 'NONE',  ( 70.53845914862726829, -72.00000000000288480, 4.000000000000000000 ) ) ;
#728 = EDGE_CURVE ( 'NONE', #464, #634, #447, .T. ) ;
#729 = PRODUCT ( 'Gutter Spacer', 'Gutter Spacer', '', ( #538 ) ) ;
#730 = CARTESIAN_POINT ( 'NONE',  ( 64.24230351012056417, -79.00000000000314060, 4.000000000000000000 ) ) ;
#731 = VECTOR ( 'NONE', #523, 1000.000000000000000 ) ;
#732 = CARTESIAN_POINT ( 'NONE',  ( 114.7423035101205926, -79.00000000000312639, 5.999999999999998224 ) ) ;
#733 = ORIENTED_EDGE ( 'NONE', *, *, #698, .F. ) ;
#734 = EDGE_CURVE ( 'NONE', #358, #29, #588, .T. ) ;
#735 = CIRCLE ( 'NONE', #346, 2.600000000028107827 ) ;
#736 = VERTEX_POINT ( 'NONE', #646 ) ;
#737 = DIRECTION ( 'NONE',  ( 1.850371707708594070E-16, -1.000000000000000000, 0.000000000000000000 ) ) ;
#738 = DIRECTION ( 'NONE',  ( 0.000000000000000000, -1.000000000000000000, 0.000000000000000000 ) ) ;
#739 = DIRECTION ( 'NONE',  ( -0.000000000000000000, -0.000000000000000000, -1.000000000000000000 ) ) ;
#740 = CARTESIAN_POINT ( 'NONE',  ( 80.74230351012056417, -79.00000000000314060, 67.00000000000000000 ) ) ;
#741 = ADVANCED_FACE ( 'NONE', ( #394 ), #524, .F. ) ;
#742 = LINE ( 'NONE', #219, #79 ) ;
#743 = DIRECTION ( 'NONE',  ( 0.000000000000000000, 0.000000000000000000, 1.000000000000000000 ) ) ;
#744 = VECTOR ( 'NONE', #45, 1000.000000000000114 ) ;
#745 = LINE ( 'NONE', #553, #199 ) ;
#746 = ORIENTED_EDGE ( 'NONE', *, *, #728, .F. ) ;
#747 = PLANE ( 'NONE',  #121 ) ;
#748 = CYLINDRICAL_SURFACE ( 'NONE', #560, 2.600000000011246204 ) ;
#749 = EDGE_LOOP ( 'NONE', ( #316, #733, #719, #109 ) ) ;
#750 = APPLICATION_CONTEXT ( 'automotive_design' ) ;
#751 = CARTESIAN_POINT ( 'NONE',  ( 114.7423035101205926, -64.00000000000311218, 59.00000000000000711 ) ) ;
#752 = AXIS2_PLACEMENT_3D ( 'NONE', #740, #151, #25 ) ;
#753 = ORIENTED_EDGE ( 'NONE', *, *, #148, .F. ) ;
#754 = EDGE_CURVE ( 'NONE', #83, #574, #206, .T. ) ;
#755 = DIRECTION ( 'NONE',  ( 1.850371707708594070E-16, -1.000000000000000000, 0.000000000000000000 ) ) ;
#756 = AXIS2_PLACEMENT_3D ( 'NONE', #149, #338, #66 ) ;
#757 = FACE_OUTER_BOUND ( 'NONE', #304, .T. ) ;
#758 = AXIS2_PLACEMENT_3D ( 'NONE', #709, #380, #176 ) ;
#759 = ORIENTED_EDGE ( 'NONE', *, *, #158, .T. ) ;
#760 = DIRECTION ( 'NONE',  ( 0.000000000000000000, -1.000000000000000000, 0.000000000000000000 ) ) ;
#761 = EDGE_CURVE ( 'NONE', #238, #309, #596, .T. ) ;
#762 = VERTEX_POINT ( 'NONE', #786 ) ;
#763 = DIRECTION ( 'NONE',  ( -1.850371707708594070E-16, 1.000000000000000000, 0.000000000000000000 ) ) ;
#764 = ADVANCED_FACE ( 'NONE', ( #798 ), #657, .F. ) ;
#765 = ORIENTED_EDGE ( 'NONE', *, *, #761, .F. ) ;
#766 = PLANE ( 'NONE',  #329 ) ;
#767 = ORIENTED_EDGE ( 'NONE', *, *, #805, .F. ) ;
#768 = CARTESIAN_POINT ( 'NONE',  ( 112.7423035101205926, -64.00000000000311218, 5.999999999999998224 ) ) ;
#769 = EDGE_CURVE ( 'NONE', #663, #56, #776, .T. ) ;
#770 = ORIENTED_EDGE ( 'NONE', *, *, #769, .F. ) ;
#771 = DIRECTION ( 'NONE',  ( -1.000000000000000000, -1.850371707708594070E-16, 0.000000000000000000 ) ) ;
#772 = STYLED_ITEM ( 'NONE', ( #314 ), #320 ) ;
#773 = VERTEX_POINT ( 'NONE', #275 ) ;
#774 = CARTESIAN_POINT ( 'NONE',  ( 139.2423035101205642, -79.00000000000312639, 0.000000000000000000 ) ) ;
#775 = EDGE_CURVE ( 'NONE', #56, #24, #670, .T. ) ;
#776 = CIRCLE ( 'NONE', #21, 2.000000000000001776 ) ;
#777 = ORIENTED_EDGE ( 'NONE', *, *, #253, .F. ) ;
#778 = CYLINDRICAL_SURFACE ( 'NONE', #63, 2.600000000011246204 ) ;
#779 = DIRECTION ( 'NONE',  ( -1.000000000000000000, -0.000000000000000000, -0.000000000000000000 ) ) ;
#780 = VERTEX_POINT ( 'NONE', #793 ) ;
#781 = FACE_OUTER_BOUND ( 'NONE', #200, .T. ) ;
#782 = DIRECTION ( 'NONE',  ( 0.000000000000000000, 0.000000000000000000, -1.000000000000000000 ) ) ;
#783 = DIRECTION ( 'NONE',  ( -1.000000000000000000, 0.000000000000000000, 0.000000000000000000 ) ) ;
#784 = ORIENTED_EDGE ( 'NONE', *, *, #306, .T. ) ;
#785 = VECTOR ( 'NONE', #489, 1000.000000000000000 ) ;
#786 = CARTESIAN_POINT ( 'NONE',  ( 64.24230351012056417, -64.00000000000314060, 4.000000000000000000 ) ) ;
#787 = ORIENTED_EDGE ( 'NONE', *, *, #270, .T. ) ;
#788 = AXIS2_PLACEMENT_3D ( 'NONE', #405, #585, #794 ) ;
#789 = CARTESIAN_POINT ( 'NONE',  ( 64.24230351012056417, -64.00000000000314060, 4.000000000000000000 ) ) ;
#790 = CARTESIAN_POINT ( 'NONE',  ( 0.000000000000000000, 0.000000000000000000, 0.000000000000000000 ) ) ;
#791 = CARTESIAN_POINT ( 'NONE',  ( 114.7423035101205926, -79.00000000000312639, 59.00000000000000711 ) ) ;
#792 = DIRECTION ( 'NONE',  ( 1.000000000000000000, 0.000000000000000000, -0.000000000000000000 ) ) ;
#793 = CARTESIAN_POINT ( 'NONE',  ( 139.2423035101205642, -79.00000000000312639, 4.000000000000000000 ) ) ;
#794 = DIRECTION ( 'NONE',  ( -1.000000000000000000, 0.000000000000000000, 0.000000000000000000 ) ) ;
#795 = ADVANCED_FACE ( 'NONE', ( #456 ), #344, .T. ) ;
#796 =( BOUNDED_CURVE ( )  B_SPLINE_CURVE ( 3, ( #164, #548, #817, #485 ),
 .UNSPECIFIED., .F., .T. ) 
 B_SPLINE_CURVE_WITH_KNOTS ( ( 4, 4 ),
 ( 0.000000000000000000, 1.570796326794896558 ),
 .UNSPECIFIED. ) 
 CURVE ( )  GEOMETRIC_REPRESENTATION_ITEM ( )  RATIONAL_B_SPLINE_CURVE ( ( 1.000000000000000000, 0.8047378541243649375, 0.8047378541243649375, 1.000000000000000000 ) ) 
 REPRESENTATION_ITEM ( '' )  );
#797 = AXIS2_PLACEMENT_3D ( 'NONE', #789, #792, #280 ) ;
#798 = FACE_OUTER_BOUND ( 'NONE', #820, .T. ) ;
#799 = CARTESIAN_POINT ( 'NONE',  ( 122.7423035101205642, -72.00000000000312639, 5.999999999999998224 ) ) ;
#800 = EDGE_CURVE ( 'NONE', #379, #294, #75, .T. ) ;
#801 = CIRCLE ( 'NONE', #827, 2.600000000011246204 ) ;
#802 = EDGE_LOOP ( 'NONE', ( #759, #61, #826, #210 ) ) ;
#803 = DIRECTION ( 'NONE',  ( -1.850371707708594070E-16, 1.000000000000000000, 0.000000000000000000 ) ) ;
#804 = CARTESIAN_POINT ( 'NONE',  ( 80.74230351012056417, -79.00000000000314060, 5.999999999999998224 ) ) ;
#805 = EDGE_CURVE ( 'NONE', #418, #715, #469, .T. ) ;
#806 = FACE_OUTER_BOUND ( 'NONE', #652, .T. ) ;
#807 = CARTESIAN_POINT ( 'NONE',  ( 64.24230351012056417, -79.00000000000314060, 4.000000000000000000 ) ) ;
#808 = VERTEX_POINT ( 'NONE', #399 ) ;
#809 = EDGE_LOOP ( 'NONE', ( #313, #492 ) ) ;
#810 = DIRECTION ( 'NONE',  ( -1.000000000000000000, -1.850371707708588893E-16, 0.000000000000000000 ) ) ;
#811 = VECTOR ( 'NONE', #831, 1000.000000000000000 ) ;
#812 = UNCERTAINTY_MEASURE_WITH_UNIT (LENGTH_MEASURE( 1.000000000000000082E-05 ), #90, 'distance_accuracy_value', 'NONE');
#813 = VECTOR ( 'NONE', #738, 1000.000000000000000 ) ;
#814 = DIRECTION ( 'NONE',  ( 1.000000000000000000, 1.850371707708594070E-16, -0.000000000000000000 ) ) ;
#815 = ADVANCED_FACE ( 'NONE', ( #73 ), #514, .F. ) ;
#816 = EDGE_LOOP ( 'NONE', ( #655, #377, #561, #153 ) ) ;
#817 = CARTESIAN_POINT ( 'NONE',  ( 79.91387638537436544, -71.17157287525694187, 3.999999999999998224 ) ) ;
#818 = LINE ( 'NONE', #486, #68 ) ;
#819 = EDGE_CURVE ( 'NONE', #773, #217, #720, .T. ) ;
#820 = EDGE_LOOP ( 'NONE', ( #244, #699, #104, #150 ) ) ;
#821 = CARTESIAN_POINT ( 'NONE',  ( 139.2423035101205642, -79.00000000000312639, 4.000000000000000000 ) ) ;
#822 = CARTESIAN_POINT ( 'NONE',  ( 122.7423035101205784, -79.00000000000314060, 5.999999999999998224 ) ) ;
#823 = ORIENTED_EDGE ( 'NONE', *, *, #125, .F. ) ;
#824 = EDGE_CURVE ( 'NONE', #713, #551, #476, .T. ) ;
#825 = CYLINDRICAL_SURFACE ( 'NONE', #105, 2.000000000000000000 ) ;
#826 = ORIENTED_EDGE ( 'NONE', *, *, #462, .F. ) ;
#827 = AXIS2_PLACEMENT_3D ( 'NONE', #84, #828, #231 ) ;
#828 = DIRECTION ( 'NONE',  ( 0.000000000000000000, 0.000000000000000000, 1.000000000000000000 ) ) ;
#829 = PRODUCT_DEFINITION_FORMATION_WITH_SPECIFIED_SOURCE ( 'ANY', '', #729, .NOT_KNOWN. ) ;
#830 = ORIENTED_EDGE ( 'NONE', *, *, #769, .T. ) ;
#831 = DIRECTION ( 'NONE',  ( -0.000000000000000000, 1.000000000000000000, -0.000000000000000000 ) ) ;
#832 = FACE_OUTER_BOUND ( 'NONE', #802, .T. ) ;
#833 = EDGE_CURVE ( 'NONE', #291, #808, #9, .T. ) ;
#834 = VERTEX_POINT ( 'NONE', #130 ) ;
#835 = LINE ( 'NONE', #444, #52 ) ;
#836 = ORIENTED_EDGE ( 'NONE', *, *, #246, .T. ) ;
#837 = DIRECTION ( 'NONE',  ( -1.000000000000000000, 0.000000000000000000, 0.000000000000000000 ) ) ;
#838 = VERTEX_POINT ( 'NONE', #592 ) ;
#839 = PLANE ( 'NONE',  #299 ) ;
#840 = ORIENTED_EDGE ( 'NONE', *, *, #718, .F. ) ;
#841 = CARTESIAN_POINT ( 'NONE',  ( 112.7423035101205784, -79.00000000000312639, 4.000000000000000000 ) ) ;
#842 = DIRECTION ( 'NONE',  ( -1.982541115402063729E-15, 1.000000000000000000, 0.000000000000000000 ) ) ;
#843 = CARTESIAN_POINT ( 'NONE',  ( 124.7423035101205784, -79.00000000000312639, 4.000000000000000000 ) ) ;
#844 = CIRCLE ( 'NONE', #788, 2.000000000000001776 ) ;
#845 = EDGE_CURVE ( 'NONE', #594, #834, #171, .T. ) ;
#846 = ORIENTED_EDGE ( 'NONE', *, *, #824, .T. ) ;
#847 = CARTESIAN_POINT ( 'NONE',  ( 112.7423035101205926, -79.00000000000312639, 5.999999999999998224 ) ) ;
#848 = ORIENTED_EDGE ( 'NONE', *, *, #293, .F. ) ;
#849 = CARTESIAN_POINT ( 'NONE',  ( 89.57073063486676290, -71.17157287525694187, 3.999999999999999112 ) ) ;
#850 = EDGE_LOOP ( 'NONE', ( #271, #334, #848, #175 ) ) ;
#851 = ADVANCED_FACE ( 'NONE', ( #265, #518, #863 ), #667, .T. ) ;
#852 = LINE ( 'NONE', #629, #343 ) ;
#853 = FACE_OUTER_BOUND ( 'NONE', #694, .T. ) ;
#854 = ORIENTED_EDGE ( 'NONE', *, *, #613, .T. ) ;
#855 = EDGE_CURVE ( 'NONE', #625, #551, #236, .T. ) ;
#856 = AXIS2_PLACEMENT_3D ( 'NONE', #509, #782, #174 ) ;
#857 = CARTESIAN_POINT ( 'NONE',  ( 90.74230351012056417, -79.00000000000314060, 6.000000000000000000 ) ) ;
#858 = AXIS2_PLACEMENT_3D ( 'NONE', #628, #760, #48 ) ;
#859 = CARTESIAN_POINT ( 'NONE',  ( 139.2423035101205642, -64.00000000000312639, 0.000000000000000000 ) ) ;
#860 = CIRCLE ( 'NONE', #758, 2.600000000011246204 ) ;
#861 = CARTESIAN_POINT ( 'NONE',  ( 122.7423035101205642, -72.00000000000312639, 67.00000000000000000 ) ) ;
#862 = ORIENTED_EDGE ( 'NONE', *, *, #679, .F. ) ;
#863 = FACE_BOUND ( 'NONE', #463, .T. ) ;
#864 = EDGE_CURVE ( 'NONE', #363, #100, #472, .T. ) ;
#865 = CARTESIAN_POINT ( 'NONE',  ( 80.74230351012056417, -77.00000000000314060, 67.00000000000000000 ) ) ;
#866 = DIRECTION ( 'NONE',  ( -0.7071067811865436870, -1.308410382236472115E-16, -0.7071067811865513475 ) ) ;
ENDSEC;
END-ISO-10303-21;
